<svg xmlns="http://www.w3.org/2000/svg" viewBox="0 0 16 16"><style>.icon-canvas-transparent{opacity:0;fill:#f6f6f6}.icon-vs-out{fill:#f6f6f6}.icon-vs-bg{fill:#424242}.icon-vs-fg{fill:#f0eff1}.icon-vs-action-blue{fill:#00539c}</style><path class="icon-canvas-transparent" d="M16 16H0V0h16v16z" id="canvas"/><path class="icon-vs-out" d="M3.961 16h.035L4 15.996V16h8v-2h2v-2h2V7H9V1.586L7.414 0H1.586L0 1.586v5.828L1.586 9h.375l-.104.104.897.896H0v3h2.754l-.896.896L3.961 16zm2.037-6.998L5.996 9H6l-.002.002zM4.5 3C5.327 3 6 3.673 6 4.5S5.327 6 4.5 6 3 5.327 3 4.5 3.673 3 4.5 3z" id="outline"/><path class="icon-vs-bg" d="M6 4.5a1.5 1.5 0 1 1-3.001-.001A1.5 1.5 0 0 1 6 4.5zM7 8H2L1 7V2l1-1h5l1 1v5L7 8zm0-3.5a2.5 2.5 0 1 0-5 0 2.5 2.5 0 0 0 5 0zM5 14.996V15h6v-1H5.996L5 14.996zM7.996 11H11v-1H7v.004l.996.996zM9 8h-.586l-1 1H9V8zm-2 4.996V13h6v-1H7.996L7 12.996zM10 8v1h5V8h-5zm2 3h3v-1h-3v1z" id="iconBg"/><path class="icon-vs-fg" d="M4.5 2a2.5 2.5 0 1 0 0 5 2.5 2.5 0 0 0 0-5zm0 4a1.5 1.5 0 1 1 .001-3.001A1.5 1.5 0 0 1 4.5 6z" id="iconFg"/><path class="icon-vs-action-blue" d="M7.082 11.5l-3.104 3.104-.707-.707L5.168 12H0v-1h5.168L3.271 9.104l.707-.707L7.082 11.5z" id="colorAction"/></svg>