<svg xmlns="http://www.w3.org/2000/svg" viewBox="0 0 16 16"><style>.icon-canvas-transparent{opacity:0;fill:#f6f6f6}.icon-vs-out{fill:#f6f6f6}.icon-vs-bg{fill:#424242}.icon-vs-fg{fill:#f0eff1}</style><path class="icon-canvas-transparent" d="M16 16H0V0h16v16z" id="canvas"/><path class="icon-vs-out" d="M8 16a8 8 0 0 1-8-8 8 8 0 0 1 8-8 8 8 0 0 1 8 8 8 8 0 0 1-8 8z" id="outline"/><path class="icon-vs-bg" d="M8 1a7 7 0 1 0 0 14A7 7 0 0 0 8 1zm3.522 8.478L9 6.956V13H7V6.956L4.478 9.478 3.064 8.064 8 3l4.936 5.064-1.414 1.414z" id="iconBg"/><path class="icon-vs-fg" d="M8 3l4.936 5.064-1.414 1.414L9 6.956V13H7V6.956L4.478 9.478 3.064 8.064 8 3z" id="iconFg"/></svg>