<svg xmlns="http://www.w3.org/2000/svg" viewBox="0 0 16 16"><defs><style>.icon-canvas-transparent,.icon-vs-out{fill:#f6f6f6;}.icon-canvas-transparent{opacity:0;}.icon-vs-blue{fill:#1ba1e2;}.icon-white{fill:#fff;}</style></defs><title>StatusUpdate_16x</title><g id="canvas"><path class="icon-canvas-transparent" d="M16,16H0V0H16Z"/></g><g id="outline"><path class="icon-vs-out" d="M16,8A8,8,0,1,1,8,0,8,8,0,0,1,16,8Z"/></g><g id="iconBg"><path class="icon-vs-blue" d="M8,1a7,7,0,1,0,7,7A7,7,0,0,0,8,1Zm3.293,7.707L9,6.414V13H7V6.414L4.707,8.707,3.293,7.293,8,2.586l4.707,4.707Z"/></g><g id="iconFg"><path class="icon-white" d="M12.707,7.293,11.293,8.707,9,6.414V13H7V6.414L4.707,8.707,3.293,7.293,8,2.586Z"/></g></svg>