<svg xmlns="http://www.w3.org/2000/svg" viewBox="0 0 16 16"><defs><style>.icon-canvas-transparent,.icon-vs-out{fill:#f6f6f6;}.icon-canvas-transparent{opacity:0;}.icon-vs-fg{fill:#f0eff1;}.icon-vs-bg{fill:#424242;}.icon-vs-blue{fill:#1ba1e2;}</style></defs><title>CodeDefinitionWindow_16x</title><g id="canvas"><path id="_Compound_Path_" data-name="&lt;Compound Path&gt;" class="icon-canvas-transparent" d="M16,16H0V0H16Z"/></g><g id="outline"><path id="_Compound_Path_2" data-name="&lt;Compound Path&gt;" class="icon-vs-out" d="M16,15H0V1H16Z"/></g><g id="iconFg"><path class="icon-vs-fg" d="M2,5v8H14V5Zm4.354,5.647-.708.706L3.293,9,5.646,6.646l.708.708L4.707,9Zm4,.706-.707-.706L11.293,9,9.646,7.354l.707-.708L12.707,9Z"/></g><g id="iconBg"><path class="icon-vs-bg" d="M1,2V14H15V2ZM14,13H2V5H14Z"/><path class="icon-vs-blue" d="M6.354,7.354,4.707,9l1.647,1.647-.708.706L3.293,9,5.646,6.646Zm4-.708-.707.708L11.293,9,9.646,10.647l.707.706L12.707,9Z"/></g></svg>