<svg xmlns="http://www.w3.org/2000/svg" viewBox="0 0 16 16"><style>.icon-canvas-transparent{opacity:0;fill:#f6f6f6}.icon-vs-out{fill:#f6f6f6}.icon-vs-bg{fill:#424242}.icon-vs-fg{fill:#f0eff1}.icon-vs-action-blue{fill:#00539c}</style><path class="icon-canvas-transparent" d="M16 16H0V0h16v16z" id="canvas"/><path class="icon-vs-out" d="M16 0v9h-5v7H0V7h1.037L0 5.959V3.574l.932-.932.083.083V2.5c0-1.378 1.118-2.5 2.491-2.5L5 .002V0h11z" id="outline"/><path class="icon-vs-bg" d="M15 1v7h-4V7h3V2H7v5H6V1h9zM1 8h9v7H1V8zm1 6h7V9H2v5zM13 3h-3v1h3V3zm-3 3h3V5h-3v1zM9 3H8v1h1V3zM8 6h1V5H8v1zm-3 5h3v-1H5v1zm0 2h3v-1H5v1zm-2-2h1v-1H3v1zm0 2h1v-1H3v1z" id="iconBg"/><path class="icon-vs-fg" d="M7 2v5h7V2H7zm2 4H8V5h1v1zm0-2H8V3h1v1zm4 2h-3V5h3v1zm0-2h-3V3h3v1zM2 9v5h7V9H2zm2 4H3v-1h1v1zm0-2H3v-1h1v1zm4 2H5v-1h3v1zm0-2H5v-1h3v1z" id="iconFg"/><path class="icon-vs-action-blue" d="M2.5 7.052L.223 4.766l.711-.711 1.081 1.077V2.5c0-.827.664-1.5 1.491-1.5L5 1.002v1L3.507 2c-.275 0-.5.225-.5.5l.009 2.615 1.013-1.008.709.709L2.5 7.052z" id="colorAction"/></svg>