<svg xmlns="http://www.w3.org/2000/svg" viewBox="0 0 16 16"><defs><style>.icon-canvas-transparent,.icon-vs-out{fill:#f6f6f6;}.icon-canvas-transparent{opacity:0;}.icon-vs-bg{fill:#424242;}</style></defs><title>Ellipsis_16x</title><g id="canvas"><path class="icon-canvas-transparent" d="M16,0V16H0V0Z"/></g><g id="outline"><path class="icon-vs-out" d="M5,8A2,2,0,1,1,3,6,2,2,0,0,1,5,8Zm8-2a2,2,0,1,0,2,2A2,2,0,0,0,13,6ZM8,6a2,2,0,1,0,2,2A2,2,0,0,0,8,6Z"/></g><g id="iconBg"><path class="icon-vs-bg" d="M4,8A1,1,0,1,1,3,7,1,1,0,0,1,4,8ZM8,7A1,1,0,1,0,9,8,1,1,0,0,0,8,7Zm5,0a1,1,0,1,0,1,1A1,1,0,0,0,13,7Z"/></g></svg>