<svg xmlns="http://www.w3.org/2000/svg" viewBox="0 0 16 16"><style>.icon-canvas-transparent{opacity:0;fill:#f6f6f6}.icon-vs-out{fill:#f6f6f6}.icon-vs-fg{fill:#f0eff1}.icon-folder{fill:#dcb67a}.icon-vs-action-blue{fill:#00539c}</style><path class="icon-canvas-transparent" d="M16 16H0V0h16v16z" id="canvas"/><path class="icon-vs-out" d="M16 6.5v7c0 .827-.673 1.5-1.5 1.5h-11c-.827 0-1.5-.673-1.5-1.5V6.923L0 4.915v-.537l1.851-1.851L3 3.672V0h3v3h4.618l1 2H14.5c.827 0 1.5.673 1.5 1.5z" id="outline"/><path class="icon-folder" d="M15 6.5v7a.5.5 0 0 1-.5.5h-11a.5.5 0 0 1-.5-.5V7.927l1.483 1.489L7.899 6H9.5L9 5h-.101l.353-.353L8.604 4H10l1 2h3.5a.5.5 0 0 1 .5.5z" id="iconBg"/><path class="icon-vs-fg" d="M9.5 6H7.899l1-1H9l.5 1z" id="iconFg"/><path class="icon-vs-action-blue" d="M5 6.063V1H4v5.081l-2.148-2.14-.707.707L4.485 8l3.352-3.352-.707-.707L5 6.063z" id="colorAction"/></svg>