<svg xmlns="http://www.w3.org/2000/svg" viewBox="0 0 16 16"><style>.icon-canvas-transparent{opacity:0;fill:#f6f6f6}.icon-vs-out{fill:#f6f6f6}.icon-vs-bg{fill:#424242}.icon-vs-fg{fill:#f0eff1}.icon-vs-action-blue{fill:#00539c}</style><path class="icon-canvas-transparent" d="M16 16H0V0h16v16z" id="canvas"/><path class="icon-vs-out" d="M16 0v15H9.467v-.051h-3.55L4.836 16H4.44l-1.051-1.051H0V0h16z" id="outline"/><path class="icon-vs-bg" d="M5 4h4v6H7.929l-.983-1H8V5H6v3.037L5 7.018V4zm1.894 10H15v-2H8.952l-2.058 2zM1 1v2h14V1H1zm13 3v6h-4V4h4zm-1 1h-2v4h2V5z" id="iconBg"/><path class="icon-vs-fg" d="M8 9H6.946L6 8.037V5h2v4zm5-4h-2v4h2V5zm2-2v9H8.952l.481-.468L7.929 10H9V4H5v3.018l-.349-.354-2.127 2.127L3.733 10H1V3h14zm-1 1h-4v6h4V4z" id="iconFg"/><path class="icon-vs-action-blue" d="M8.016 11.516l-3.371 3.275-.707-.707L6.022 12H1v-1h5.147L3.938 8.791l.707-.707 3.371 3.432z" id="colorAction"/></svg>