<svg xmlns="http://www.w3.org/2000/svg" viewBox="0 0 16 16"><defs><style>.icon-canvas-transparent,.icon-vs-out{fill:#f6f6f6;}.icon-canvas-transparent{opacity:0;}.icon-vs-bg{fill:#424242;}</style></defs><title>Branch_16x</title><g id="canvas"><path class="icon-canvas-transparent" d="M16,0V16H0V0Z"/></g><g id="outline"><path class="icon-vs-out" d="M10.5,2.25A3.252,3.252,0,0,0,7.737,3.79c.009-.1.013-.192.013-.29A3.25,3.25,0,1,0,3,6.381V9.869A3.249,3.249,0,1,0,7.75,12.75,3.213,3.213,0,0,0,7.231,11H8.5A3.309,3.309,0,0,0,11,9.974a3.593,3.593,0,0,0,.82-1.5A3.25,3.25,0,0,0,10.5,2.25ZM6,8V6.381A3.224,3.224,0,0,0,7.262,5.218q-.012.139-.012.282A3.235,3.235,0,0,0,8.432,8Z"/></g><g id="iconBg"><path class="icon-vs-bg" d="M12.75,5.5a2.25,2.25,0,1,0-2.8,2.175,1.844,1.844,0,0,1-.417.935A1.331,1.331,0,0,1,8.5,9H6a1.978,1.978,0,0,0-1,.278V5.69a2.25,2.25,0,1,0-1,0v4.87a2.262,2.262,0,1,0,1.093.029A1,1,0,0,1,6,10H8.5a2.31,2.31,0,0,0,1.767-.708,2.931,2.931,0,0,0,.692-1.59A2.253,2.253,0,0,0,12.75,5.5Zm-9.5-2A1.25,1.25,0,1,1,4.5,4.75,1.252,1.252,0,0,1,3.25,3.5Zm2.5,9.25A1.25,1.25,0,1,1,4.5,11.5,1.252,1.252,0,0,1,5.75,12.75Zm4.75-6A1.25,1.25,0,1,1,11.75,5.5,1.252,1.252,0,0,1,10.5,6.75Z"/></g></svg>