<svg xmlns="http://www.w3.org/2000/svg" viewBox="0 0 16 16"><style>.icon-canvas-transparent{opacity:0;fill:#f6f6f6}.icon-vs-out{fill:#f6f6f6}.icon-cpp-purple{fill:#9b4f96}</style><path class="icon-canvas-transparent" d="M16 0v16H0V0h16z" id="canvas"/><g id="iconBg"><path class="icon-vs-out" d="M7.43 6.842c-.261.265-.388.658-.388 1.198 0 .498.112.864.341 1.121.14.154.366.334.867.334.458 0 .864-.113 1.241-.347l1.526-.944v3.998l-.544.278c-.671.345-1.53.52-2.55.52-1.456 0-2.621-.489-3.463-1.454-.767-.872-1.156-2.011-1.156-3.381 0-1.503.459-2.749 1.363-3.704C5.584 3.492 6.776 3 8.208 3c.83 0 1.559.118 2.168.352l.642.246v4.17l-1.53-.958a2.115 2.115 0 0 0-1.147-.31c-.515 0-.767.195-.911.342z"/><path class="icon-cpp-purple" d="M8.341 5.499c.624 0 1.182.155 1.676.464V4.286C9.523 4.096 8.922 4 8.208 4c-1.152 0-2.09.383-2.815 1.149-.725.766-1.089 1.77-1.089 3.016 0 1.126.304 2.034.91 2.724C5.86 11.629 6.763 12 7.923 12c.86 0 1.561-.136 2.095-.41V9.999a3.3 3.3 0 0 1-1.768.497c-.675 0-1.212-.223-1.612-.667-.397-.445-.596-1.041-.596-1.789 0-.806.223-1.439.674-1.899.42-.427.96-.642 1.625-.642z"/></g></svg>