<svg xmlns="http://www.w3.org/2000/svg" viewBox="0 0 16 16"><style>.icon-canvas-transparent{opacity:0;fill:#f6f6f6}.icon-vs-out{fill:#f6f6f6}.icon-vs-bg{fill:#424242}.icon-vs-action-blue{fill:#00539c}</style><path class="icon-canvas-transparent" d="M16 16H0V0h16v16z" id="canvas"/><path class="icon-vs-out" d="M16 5H8.471l1.492-1.485L6.444 0H5.41L3.843 1.621 4.22 2H3.5C1.57 2 0 3.57 0 5.5S1.57 9 3.5 9H5V7.601l3 3.75V16h4v-4.649l4-4.999V5zM3.719 6H3.5a.5.5 0 0 1 0-1h.735l-.45.452.548.548h-.614z" id="outline"/><path class="icon-vs-bg" d="M15 6l-4 5v4H9v-4L5.8 7h.613l1.006-1H15z" id="iconBg"/><path class="icon-vs-action-blue" d="M1 5.5A2.5 2.5 0 0 1 3.5 3h3.125L5.243 1.611 5.931.9l.012.012.001-.001 2.603 2.603L5.898 6.15l-.009-.009-.691-.691L6.64 4H3.5C2.673 4 2 4.673 2 5.5S2.673 7 3.5 7H4v1h-.5A2.5 2.5 0 0 1 1 5.5z" id="colorAction"/></svg>