<svg xmlns="http://www.w3.org/2000/svg" viewBox="0 0 16 16"><defs><style>.icon-canvas-transparent,.icon-vs-out{fill:#f6f6f6;}.icon-canvas-transparent{opacity:0;}.icon-white{fill:#fff;}.syntax-snappoint-purple{fill:purple;}.icon-vs-action-blue{fill:#00539c;}</style></defs><title>ProductionTracePointAdvancedAlert_16x</title><g id="canvas"><path class="icon-canvas-transparent" d="M16,0V16H0V0Z"/></g><g id="outline"><polygon class="icon-vs-out" points="16 7.629 8.371 0 7.629 0 0 7.629 0 8.371 7.629 16 8.371 16 9.479 14.893 10.586 16 12.414 16 16 12.414 16 10.586 14.893 9.479 16 8.371 16 7.629"/></g><g id="iconFg"><path class="icon-white" d="M8,2.457,2.457,8,8,13.543,13.543,8ZM7,10.586V9H5V7H7V5H9V7h1.586Z"/></g><g id="iconBg"><path class="syntax-snappoint-purple" d="M14.6,7.646l-.706.708L8,2.457,2.457,8l5.9,5.9-.708.706L1.043,8,8,1.043ZM10.586,7H9V5H7V7H5V9H7v1.586Z"/></g><g id="notificationBg"><path class="icon-vs-action-blue" d="M12,8H11L8,11v1l3,3h1l3-3V11Zm0,6H11V13h1Zm0-2H11V9h1Z"/></g><g id="notificationFg"><path class="icon-white" d="M12,12H11V9h1Zm0,1H11v1h1Z"/></g></svg>