<svg xmlns="http://www.w3.org/2000/svg" viewBox="0 0 16 16"><style>.icon-canvas-transparent{opacity:0;fill:#f6f6f6}.icon-vs-out{fill:#f6f6f6}.icon-vs-bg{fill:#424242}.icon-vs-fg{fill:#f0eff1}.icon-py-green{fill:#879636}</style><path class="icon-canvas-transparent" d="M16 16H0V0h16v16z" id="canvas"/><path class="icon-vs-out" d="M11.621 0H3v5.587l-3 3v.83l2.818 2.806.182-.182V16h13V4.379z" id="outline"/><path class="icon-vs-bg" d="M5.195 14H4v1h2.196zm6.012-13H4v3.587l.001-.001.999 1V2h5v4h4v8H9.981l-1 1H15V4.793L11.207 1zM11 5V2.207L13.793 5H11z" id="iconBg"/><g id="iconFg"><path class="icon-vs-fg" d="M11 2.207V5h2.793z"/><path class="icon-vs-fg" d="M10 6V2H5v3.585l2.225 2.228.983-.911 2.807 2.797-1.632 1.632 1.636 1.632L9.981 14H14V6z"/><path class="icon-vs-fg" d="M11 2.207V5h2.793z"/><path class="icon-vs-fg" d="M10 6V2H5v3.585l2.225 2.228.983-.911 2.807 2.797-1.632 1.632 1.636 1.632L9.981 14H14V6z"/></g><path class="icon-py-green" d="M8.215 11.578l-.42.422H5v-2h1.53l-.332.33 1.387 1.385L9.6 9.7 8.211 8.316 7.529 9H4.628l1.184-1.187L4.001 6 1 9.001l1.818 1.81L4 9.637V13h2.796l-.594.592 1.387 1.385 2.015-2.013z" id="colorImportance"/></svg>