<svg xmlns="http://www.w3.org/2000/svg" viewBox="0 0 16 16"><defs><style>.icon-canvas-transparent,.icon-vs-out{fill:#f6f6f6;}.icon-canvas-transparent{opacity:0;}.icon-vs-bg{fill:#424242;}</style></defs><title>Deployment_16x</title><g id="canvas"><path class="icon-canvas-transparent" d="M16,0V16H0V0Z"/></g><g id="outline"><path class="icon-vs-out" d="M15.9,7.5l-.748.453L11,11.608V16H5V11.608L.849,7.955.1,7.5l.17-1a7.846,7.846,0,0,1,15.458,0Z"/></g><g id="iconBg"><path class="icon-vs-bg" d="M14.8,7l-.057-.336a6.846,6.846,0,0,0-13.486,0L1.2,7l.242.146L6.959,12H6v3h4V12H9.041l5.517-4.855ZM4.484,8.49A12.505,12.505,0,0,0,7.5,8.983v2.161ZM9,14H7V13H9Zm-.5-2.856V8.983a12.505,12.505,0,0,0,3.016-.493ZM2.311,6.5a5.847,5.847,0,0,1,11.378,0A11.691,11.691,0,0,1,2.311,6.5Z"/></g></svg>