<svg xmlns="http://www.w3.org/2000/svg" viewBox="0 0 16 16"><defs><style>.icon-canvas-transparent,.icon-vs-out{fill:#f6f6f6;}.icon-canvas-transparent{opacity:0;}.icon-vs-red{fill:#e51400;}.icon-vs-bg{fill:#424242;}</style></defs><title>HeartFilled_16x</title><g id="canvas"><path class="icon-canvas-transparent" d="M16,0V16H0V0Z"/></g><g id="outline"><path class="icon-vs-out" d="M16,6a4.96,4.96,0,0,1-1.507,3.572L8,15.834,1.515,9.58A5,5,0,0,1,5,1,4.922,4.922,0,0,1,8,2.031,4.922,4.922,0,0,1,11,1,5.006,5.006,0,0,1,16,6Z"/></g><g id="iconFg"><path class="icon-vs-red" d="M14,6a2.974,2.974,0,0,1-.9,2.14L8,13.056l-5.1-4.913A3,3,0,0,1,5,3,3.026,3.026,0,0,1,7.57,4.505L8,5.229l.43-.724A2.98,2.98,0,0,1,14,6Z"/></g><g id="iconBg"><path class="icon-vs-bg" d="M11,2A4,4,0,0,0,8,3.4,3.984,3.984,0,1,0,2.209,8.86L8,14.444l5.794-5.587A4,4,0,0,0,11,2Zm2.1,6.14L8,13.056l-5.1-4.913A3,3,0,0,1,5,3,3.026,3.026,0,0,1,7.57,4.505L8,5.229l.43-.724A2.98,2.98,0,0,1,14,6,2.974,2.974,0,0,1,13.1,8.14Z"/></g></svg>