<svg xmlns="http://www.w3.org/2000/svg" viewBox="0 0 16 16"><style>.icon-canvas-transparent{opacity:0;fill:#f6f6f6}.icon-vs-fg{fill:#f0eff1}.icon-vs-out{fill:#f6f6f6}.icon-vs-bg{fill:#424242}</style><path class="icon-canvas-transparent" d="M16 16H0V0h16v16z" id="canvas"/><path class="icon-vs-out" d="M15.913 4.773l-.827-.042V3.427c0-.563-.2-2.401-2.783-2.427l-1.01-.01V2h-2.32l-.915 1.537L7.188 2H4.713V.99L3.703 1C1.115 1.026.914 2.865.914 3.427v1.312L0 4.785V16h9v-6h2.293v1.01l1.01-.01c2.582-.025 2.783-1.851 2.783-2.409l.007-1.331.907-.045V5.736l-.087-.963zM3.485 5.99c.193-.332.296-.73.296-1.176l.004-1.232.875-.018 1.581 2.471-.67.965h-1.81c-.023-.377-.108-.723-.276-1.01zm8.746 1.178v1.261l-.832.017-1.612-2.412 1.639-2.468.805.015v1.232c0 .446.102.844.295 1.176a2.323 2.323 0 0 0-.295 1.179z" id="outline"/><path class="icon-vs-fg" d="M2 14h5V9H2v5zm1-3v-1h3v3H5v-1.293l-1.535 1.535-.707-.707L4.293 11H3z" id="iconFg"/><path class="icon-vs-bg" d="M1 6.264v-.528c.609-.03.914-.358.914-.982V3.427c0-.939.6-1.415 1.799-1.427v.582c-.621.012-.932.312-.932.9v1.332c0 .636-.293 1.027-.879 1.173v.018c.529.123.806.462.858.995h-.878c-.074-.456-.358-.71-.882-.736zm13.086-1.509V3.427c0-.939-.598-1.415-1.793-1.427v.582c.625.012.938.312.938.9v1.332c0 .636.291 1.027.873 1.173v.018c-.582.136-.873.524-.873 1.164v1.314c0 .333-.071.573-.214.718-.143.145-.384.221-.724.227V10c1.195-.012 1.793-.482 1.793-1.409V7.227c0-.612.305-.933.914-.964v-.527c-.609-.03-.914-.357-.914-.981zM9.541 3l-1.5 2.519h-.023c-.082-.16-.166-.316-.252-.469L6.605 3H5.486l1.957 3.059L6.789 7h.951c.138-.228.224-.37.242-.402h.023c.09.161.165.289.233.402H9v1.261L9.447 9h1.119l-1.98-2.965L10.602 3H9.541zM6 10v3H5v-1.293l-1.535 1.535-.707-.707L4.293 11H3v-1h3zm2-2v7H1V8h7zM7 9H2v5h5V9z" id="iconBg"/></svg>