<svg xmlns="http://www.w3.org/2000/svg" viewBox="0 0 16 16"><style>.icon-canvas-transparent{opacity:0;fill:#f6f6f6}.icon-vs-out{fill:#f6f6f6}.icon-vs-bg{fill:#424242}</style><path class="icon-canvas-transparent" d="M16 16H0V0h16v16z" id="canvas"/><path class="icon-vs-out" d="M15 10H8c.046 1.203.022 1.921 0 2l-.541 1H2.474c-.122 0-.428-.326-.522-.408a3.877 3.877 0 0 1-.461-.463 3.486 3.486 0 0 1-.612-1.156 4.42 4.42 0 0 1-.01-2.697c.2-.629.46-1.255.826-1.806.302-.455.782-.883.779-1.47C2.471 4.325 1.115 3.133 1 3.012L3 3c.694 0 1.471.506 1.947 1 .328.339.553.688.71 1H15v5z" id="outline"/><g id="iconBg"><path class="icon-vs-bg" d="M14 9H7.885a5.873 5.873 0 0 0-.283-1H13V7H7.069A3.463 3.463 0 0 0 6 6h8v3zM2.834 4s.772.866.5 2c-.126.533-.666.942-1.012 1.334-1.127 1.275-1.039 3.761.512 4.666h1s-2-1.167 0-3.5c0 0 0 2.333 2 3.5h.89s1-3.5-1-4.667c0 0 1.11 1.5.11 2.667 0 0-1.11-.333-1.11-2.667 0 0 .11-3.333-1.89-3.333"/></g></svg>