<svg xmlns="http://www.w3.org/2000/svg" viewBox="0 0 16 16"><defs><style>.icon-canvas-transparent,.icon-vs-out{fill:#f6f6f6;}.icon-canvas-transparent{opacity:0;}.icon-vs-bg{fill:#424242;}.icon-vs-fg{fill:#f0eff1;}.icon-vs-action-green{fill:#388a34;}</style></defs><title>AddToCollection_16x</title><g id="canvas"><path class="icon-canvas-transparent" d="M16,16H0V0H16Z"/></g><g id="outline"><path class="icon-vs-out" d="M16,3V13H11v3H3V8H2V6H0V2H2V0H12V3Z"/></g><g id="iconBg"><path class="icon-vs-bg" d="M15,4v8H11V11h3V5H10V6H9V4ZM10,2V3h1V1H6V2ZM6,7V8H9v6H5V8H4v7h6V7Z"/></g><g id="iconFg"><path class="icon-vs-fg" d="M14,5v6H11V6H10V5ZM9,8H5v6H9ZM8,2V3h2V2Z"/></g><g id="colorAction"><path class="icon-vs-action-green" d="M3,7V5H1V3H3V1H5V3H7V5H5V7Z"/></g></svg>