<svg xmlns="http://www.w3.org/2000/svg" viewBox="0 0 16 16"><defs><style>.icon-canvas-transparent,.icon-vs-out{fill:#f6f6f6;}.icon-canvas-transparent{opacity:0;}.icon-vs-bg{fill:#424242;}</style></defs><title>Attribute_16x</title><g id="canvas"><path class="icon-canvas-transparent" d="M16,0V16H0V0Z"/></g><g id="outline"><path class="icon-vs-out" d="M12.67,3.027A6.508,6.508,0,0,0,8.15,1.388a6.421,6.421,0,0,0-4.8,1.951A6.718,6.718,0,0,0,1.477,8.185,6.258,6.258,0,0,0,3.3,12.824a6.446,6.446,0,0,0,4.711,1.788,8.556,8.556,0,0,0,3.347-.586l.606-.259V11.859a3.654,3.654,0,0,0,1.553-1.209,5.232,5.232,0,0,0,1.01-3.279A5.614,5.614,0,0,0,12.67,3.027Z"/></g><g id="iconBg"><path class="icon-vs-bg" d="M12,3.769A5.515,5.515,0,0,0,8.15,2.388,5.435,5.435,0,0,0,4.072,4.035a5.727,5.727,0,0,0-1.6,4.15A5.27,5.27,0,0,0,4,12.112a5.462,5.462,0,0,0,4.009,1.5,7.532,7.532,0,0,0,2.953-.506v-.847a6.754,6.754,0,0,1-2.885.56,4.539,4.539,0,0,1-3.4-1.289A4.635,4.635,0,0,1,3.413,8.144,5.011,5.011,0,0,1,4.739,4.589,4.392,4.392,0,0,1,8.1,3.167a4.454,4.454,0,0,1,3.3,1.189,4.154,4.154,0,0,1,1.189,3.07A3.934,3.934,0,0,1,12.092,9.5a1.427,1.427,0,0,1-1.228.8q-.813,0-.813-1.415,0-.069.321-3.835H9.518c-.037.4-.06.659-.069.786H9.422a1.126,1.126,0,0,0-.5-.636,1.57,1.57,0,0,0-.878-.253A2.5,2.5,0,0,0,5.973,5.966a4.076,4.076,0,0,0-.789,2.567,2.831,2.831,0,0,0,.57,1.86,1.862,1.862,0,0,0,1.508.69A1.969,1.969,0,0,0,9.224,9.456h.034q.008,1.626,1.5,1.627a2.4,2.4,0,0,0,1.959-1.043,4.246,4.246,0,0,0,.8-2.669A4.628,4.628,0,0,0,12,3.769ZM8.775,9.438a1.5,1.5,0,0,1-1.342.845,1.123,1.123,0,0,1-.941-.465,2.063,2.063,0,0,1-.351-1.271,3.6,3.6,0,0,1,.523-2,1.574,1.574,0,0,1,1.37-.807q1.237,0,1.237,1.463A4.387,4.387,0,0,1,8.775,9.438Z"/></g></svg>