<svg xmlns="http://www.w3.org/2000/svg" viewBox="0 0 16 16"><style>.icon-canvas-transparent{opacity:0;fill:#f6f6f6}.icon-vs-out{fill:#f6f6f6}.icon-vs-bg{fill:#424242}.icon-vs-fg{fill:#f0eff1}.icon-vs-action-blue{fill:#00539c}</style><path class="icon-canvas-transparent" d="M16 16H.029V-.029H16V16z" id="canvas"/><path class="icon-vs-out" d="M16.002 4.073v6.437l-8.801 4.4L1 11.81V6H0V3h3.733L2.524 1.791 4.315 0h.667L7.21 2.268 9.801.972l6.201 3.101z" id="outline"/><path class="icon-vs-bg" d="M15.002 4.691v5.201l-7.801 3.9L2 11.191V6h1.608L2.524 7.084l2.111 2.111L6.8 7.091l.401.2 5.2-2.6-2.6-1.3-.998.499-.857-.872 1.855-.927 5.201 2.6z" id="iconBg"/><path class="icon-vs-fg" d="M12.401 4.691l-5.2 2.6-.401-.2 2.633-2.559-.63-.642.998-.499 2.6 1.3z" id="iconFg"/><path class="icon-vs-action-blue" d="M8.016 4.516L4.645 7.791l-.707-.707L6.022 5H1V4h5.147L3.938 1.791l.707-.707 3.371 3.432z" id="colorAction"/></svg>