<svg xmlns="http://www.w3.org/2000/svg" viewBox="0 0 16 16"><defs><style>.icon-canvas-transparent,.icon-vs-out{fill:#f6f6f6}.icon-canvas-transparent{opacity:0}.icon-vs-bg{fill:#424242}.icon-vs-red{fill:#e51400}.icon-white{fill:#fff}</style></defs><title>ProcessError_16x</title><path class="icon-canvas-transparent" d="M16 0v16H0V0z"/><path class="icon-vs-out" d="M16 4.586l-1.018.6L16 5.743v.72l-.031.122a5.461 5.461 0 0 1-.5 1.264l-.376.681-.3-.078a4.493 4.493 0 0 1-6.46 6.243c-.092.084-.181.171-.28.247l-.614.477-.9-.7-.139 1.123-.77.1A4.615 4.615 0 0 1 5 16a3.874 3.874 0 0 1-.536-.046l-.769-.1-.195-.782-.044-.354-.9.7-.614-.477a5.037 5.037 0 0 1-.89-.891l-.475-.614.7-.9L.158 12.4l-.1-.769A4.553 4.553 0 0 1 0 11a3.853 3.853 0 0 1 .046-.535l.1-.769.781-.196.354-.044-.7-.9.475-.614a5.022 5.022 0 0 1 .89-.891l.614-.477.9.7.14-1.116.77-.1A4.548 4.548 0 0 1 5 6a3.154 3.154 0 0 1 .387.033l-.014-.049L6.532 5.3l-1.181-.643.194-.757a5.422 5.422 0 0 1 .5-1.262l.375-.683 1.307.34-.376-1.287.764-.452a4.069 4.069 0 0 1 .506-.271A4.077 4.077 0 0 1 9.159.1l.363-.1h.578l.6 1.021L11.257 0h.719l.124.032a5.425 5.425 0 0 1 1.262.5l.681.376-.34 1.3L15 1.838l.452.769a4.291 4.291 0 0 1 .267.5 4.069 4.069 0 0 1 .185.556l.1.354z"/><path class="icon-vs-bg" d="M15 6.335a4.393 4.393 0 0 1-.408 1.03l-1.33-.347a3.112 3.112 0 0 1-.222.269 4.459 4.459 0 0 0-1.028-.236 2.2 2.2 0 1 0-2.06.239 4.483 4.483 0 0 0-.976.485l.007-.027a3.02 3.02 0 0 1-.683-.657l-1.315.382a4.243 4.243 0 0 1-.271-.487 4.293 4.293 0 0 1-.168-.531l1.181-.693a3.038 3.038 0 0 1-.011-.947l-1.2-.66a4.436 4.436 0 0 1 .409-1.03l1.33.347a3.044 3.044 0 0 1 .659-.681l-.386-1.317a4.32 4.32 0 0 1 .488-.274 4.36 4.36 0 0 1 .53-.168l.693 1.181a3.075 3.075 0 0 1 .948-.012L11.849 1a4.42 4.42 0 0 1 1.029.41l-.347 1.329a3.014 3.014 0 0 1 .68.658l1.316-.382a4.559 4.559 0 0 1 .273.485 4.255 4.255 0 0 1 .168.531l-1.181.693a3.058 3.058 0 0 1 .012.947zm-4.679-2.1a1.1 1.1 0 1 0 1.445.575 1.1 1.1 0 0 0-1.445-.576zM7.647 9.208l-.264.339c.015.024.025.051.039.076a4.411 4.411 0 0 0 .278 4.266c-.09.084-.163.186-.261.261l-.985-.768a2.783 2.783 0 0 1-.8.331L5.5 14.949A3.894 3.894 0 0 1 5 15a3.894 3.894 0 0 1-.5-.051l-.153-1.235a2.783 2.783 0 0 1-.8-.331l-.985.768a4 4 0 0 1-.712-.713l.768-.984a2.744 2.744 0 0 1-.331-.795L1.051 11.5A3.9 3.9 0 0 1 1 11a3.9 3.9 0 0 1 .051-.5l1.235-.154a2.745 2.745 0 0 1 .331-.795l-.767-.988a4 4 0 0 1 .712-.713l.985.768a2.783 2.783 0 0 1 .8-.331L4.5 7.051A3.9 3.9 0 0 1 5 7a3.9 3.9 0 0 1 .5.051l.153 1.235a2.783 2.783 0 0 1 .8.331l.985-.768a4 4 0 0 1 .693.694 4.482 4.482 0 0 0-.484.665zM7 11a2 2 0 1 0-2 2 2 2 0 0 0 2-2zm-2-1a1 1 0 1 0 1 1 1 1 0 0 0-1-1z"/><path class="icon-vs-red" d="M11.5 8a3.5 3.5 0 1 0 3.5 3.5A3.5 3.5 0 0 0 11.5 8zm1.854 4.646l-.707.707-1.147-1.146-1.146 1.146-.707-.707 1.146-1.146-1.147-1.147.707-.707 1.147 1.147 1.146-1.146.707.707-1.146 1.146z"/><path class="icon-white" d="M12.207 11.5l1.147 1.146-.707.707-1.147-1.146-1.146 1.146-.707-.707 1.146-1.146-1.147-1.147.707-.707 1.147 1.147 1.146-1.146.707.707z"/></svg>