<svg xmlns="http://www.w3.org/2000/svg" viewBox="0 0 16 16"><style>.icon-canvas-transparent{opacity:0;fill:#f6f6f6}.icon-vs-out{fill:#f6f6f6}.icon-vs-bg{fill:#424242}.icon-vs-fg{fill:#f0eff1}</style><path class="icon-canvas-transparent" d="M16 16H0V0h16v16z" id="canvas"/><path class="icon-vs-out" d="M8 16V8.877l-3.383 3.322-2.115-2.115L3.586 9H1V6h2.586L2.502 4.915 4.616 2.8 8 6.121V0h8v16H8z" id="outline"/><path class="icon-vs-bg" d="M9 11v4h6v-4H9zm5 3h-4v-2h4v2zM9 6h6v4H9V6zm0-5v4h6V1H9zm5 3h-4V2h4v2zm-9.377 6.791l-.707-.707L6 8H2V7l4-.001-2.084-2.084.707-.707 3.354 3.291-3.354 3.292z" id="iconBg"/><path class="icon-vs-fg" d="M10 12h4v2h-4v-2zm0-10v2h4V2h-4z" id="iconFg"/></svg>