<svg xmlns="http://www.w3.org/2000/svg" viewBox="0 0 16 16"><defs><style>.icon-canvas-transparent,.icon-vs-out{fill:#f6f6f6;}.icon-canvas-transparent{opacity:0;}.icon-js-orange{fill:#f16421;}.icon-vs-bg{fill:#424242;}</style></defs><title>JS_ProjectSENode_16x</title><g id="canvas"><path class="icon-canvas-transparent" d="M16,0V16H0V0Z"/></g><g id="outline"><path class="icon-vs-out" d="M16,1V15H0V1Z"/></g><g id="iconBg"><path class="icon-js-orange" d="M1,2V14H15V2ZM14,13H2V3H14Z"/><path class="icon-vs-bg" d="M5.233,5H7V8.15a2.867,2.867,0,0,1-.733,2.116A2.865,2.865,0,0,1,4.146,11,3.373,3.373,0,0,1,3,10.812V9.359a1.806,1.806,0,0,0,1.021.3q1.212,0,1.212-1.574ZM12.47,8.224A5.456,5.456,0,0,0,11.008,7.5a4.231,4.231,0,0,1-.932-.421.554.554,0,0,1-.256-.465.483.483,0,0,1,.292-.425,1.626,1.626,0,0,1,.784-.161,3.775,3.775,0,0,1,1.767.4V5.223A6.583,6.583,0,0,0,10.8,5a3.846,3.846,0,0,0-2.037.471A1.422,1.422,0,0,0,8,6.724Q8,7.8,9.755,8.423a6.238,6.238,0,0,1,1.061.449.636.636,0,0,1,.364.509.472.472,0,0,1-.245.4,1.64,1.64,0,0,1-.873.19,3.662,3.662,0,0,1-2.03-.591v1.3A5.3,5.3,0,0,0,10.018,11a4.015,4.015,0,0,0,2.356-.559A1.386,1.386,0,0,0,13,9.269,1.3,1.3,0,0,0,12.47,8.224Z"/></g></svg>