<svg xmlns="http://www.w3.org/2000/svg" viewBox="0 0 16 16"><style>.icon-canvas-transparent{opacity:0;fill:#f6f6f6}.icon-vs-out{fill:#f6f6f6}.icon-vs-bg{fill:#424242}.icon-vs-fg{fill:#f0eff1}.icon-vb-blue{fill:#00569c}</style><path class="icon-canvas-transparent" d="M16 16H0V0h16v16z" id="canvas"/><path class="icon-vs-out" d="M11.621 0H3v3H0v3h1v1l-1 .022V10h3v3H0v3h16V4.379z" id="outline"/><path class="icon-vs-bg" d="M11.207 1H4v2h1V2h5v4h4v8h-1v1h2V4.793L11.207 1zM11 5V2.207L13.793 5H11z" id="iconBg"/><g id="iconFg"><path class="icon-vs-fg" d="M10 6V2H5v5h8v3h-1v3h1v1h1V6z"/><path class="icon-vs-fg" d="M11 2.207V5h2.793z"/><path class="icon-vs-fg" d="M10 6V2H5v5h8v3h-1v3h1v1h1V6z"/><path class="icon-vs-fg" d="M11 2.207V5h2.793z"/></g><path class="icon-vb-blue" d="M4 5H1V4h3v1zm0 1.022H2V7h2v-.978zM1 14v1h11v-1H1zm11-5V8H1v1h11zm-8 1h3v3H4v-3zm1 2h1v-1H5v1zm6-2v3H8v-3h3zm-1 1H9v1h1v-1z" id="colorImportance"/></svg>