<svg xmlns="http://www.w3.org/2000/svg" viewBox="0 0 16 16"><defs><style>.icon-canvas-transparent,.icon-vs-out{fill:#f6f6f6;}.icon-canvas-transparent{opacity:0;}.syntax-snappoint-purple{fill:purple;}.icon-white{fill:#fff;}</style></defs><title>ProductionSnapshotPointAdvancedOn_16x</title><g id="canvas"><path class="icon-canvas-transparent" d="M16,0V16H0V0Z"/></g><g id="outline"><path class="icon-vs-out" d="M16,7.856v.288L12.041,15H3.959L0,8.144V7.856L3.959,1h8.082Z"/></g><g id="iconBg"><path class="syntax-snappoint-purple" d="M11.464,2H4.536L1.072,8l3.464,6h6.928l3.464-6ZM9,9v3H7V9H4V7H7V4H9V7h3V9Z"/></g><g id="iconFg"><polygon class="icon-white" points="12 7 9 7 9 4 7 4 7 7 4 7 4 9 7 9 7 12 9 12 9 9 12 9 12 7"/></g></svg>