<svg xmlns="http://www.w3.org/2000/svg" viewBox="0 0 16 16"><style>.icon-canvas-transparent{opacity:0;fill:#f6f6f6}.icon-vs-out{fill:#f6f6f6}.icon-vs-bg{fill:#424242}.icon-vs-fg{fill:#f0eff1}.icon-vs-action-blue{fill:#00539c}</style><path class="icon-canvas-transparent" d="M16 16H0V0h16v16z" id="canvas"/><path class="icon-vs-out" d="M9.426 4V3l-3.609-.001 1.084-1.084L4.988 0h-.404L0 4.499l2 1.964V16h14V4H9.426zM13 13H5V8.986L6.902 7H13v6z" id="outline"/><path class="icon-vs-bg" d="M15 5v10H3V7.444l1 .982V14h10V6H9.426V5H15zm-2 2H6.818h.084L5 8.986v1.807l1.146-1.146A.498.498 0 0 1 6.9 9.7l1.063 1.417 2.613-3.383a.5.5 0 0 1 .83-.025L13 9.939V7zm0 4.66l-1.973-2.762-2.603 3.367a.502.502 0 0 1-.402.234.49.49 0 0 1-.422-.2l-1.154-1.538L5 12.207V13h8v-1.34z" id="iconBg"/><path class="icon-vs-fg" d="M5.818 6l1 1H13v2.939l-1.594-2.23a.494.494 0 0 0-.422-.209.505.505 0 0 0-.408.234l-2.613 3.383L6.9 9.7a.498.498 0 0 0-.754-.053L5 10.793V8.986L4.986 9h-.402L4 8.426V14h10V6H5.818zM13 13H5v-.793l1.445-1.445L7.6 12.3a.49.49 0 0 0 .422.2.507.507 0 0 0 .402-.234l2.603-3.367L13 11.66V13z" id="iconFg"/><path class="icon-vs-action-blue" d="M1.427 4.499l3.354-3.291.707.707-2.084 2.084h5.022V5H3.404l2.084 2.084-.707.707-3.354-3.292z" id="colorAction"/></svg>