<svg xmlns="http://www.w3.org/2000/svg" viewBox="0 0 16 16"><style>.icon-canvas-transparent{opacity:0;fill:#f6f6f6}.icon-vs-out{fill:#f6f6f6}.icon-vs-bg{fill:#424242}.icon-vs-fg{fill:#f0eff1}.icon-white{fill:#fff}.icon-vs-blue{fill:#1ba1e2}</style><path class="icon-canvas-transparent" d="M16 16H0V0h16v16z" id="canvas"/><path class="icon-vs-out" d="M16 11.5c0-1.953-1.258-3.602-3-4.224V4.13L8.93 0H0v16h13v-.276c1.742-.622 3-2.271 3-4.224z" id="outline"/><path class="icon-vs-bg" d="M7.762 14H2V2h5v4h4v1.051c.166-.019.329-.051.5-.051s.334.032.5.051V4.554L8.541 1H1v14h7.706a4.504 4.504 0 0 1-.944-1zM8 2.207L10.793 5H8V2.207z" id="iconBg"/><g id="iconFg"><path class="icon-vs-fg" d="M8 2.006V5h2.912z"/><path class="icon-vs-fg" d="M7 11.5c0-2.31 1.756-4.197 4-4.449V6H7V2H2v12h5.762A4.474 4.474 0 0 1 7 11.5z"/><path class="icon-vs-fg" d="M8 2.006V5h2.912z"/><path class="icon-vs-fg" d="M7 11.5c0-2.31 1.756-4.197 4-4.449V6H7V2H2v12h5.762A4.474 4.474 0 0 1 7 11.5z"/></g><path class="icon-vs-blue" d="M11.5 8a3.5 3.5 0 1 0 0 7 3.5 3.5 0 0 0 0-7zm.5 6h-1v-1h1v1zm1-3c0 .551-.449 1-1 1v.5h-1V12c0-.551.449-1 1-1v-1c-.08-.044-.252-.102-.5-.102s-.42.058-.5.102v1h-1v-1c0-.58.631-1 1.5-1s1.5.42 1.5 1v1z" id="notificationBg"/><path class="icon-white" d="M12 12.5h-1V12c0-.551.449-1 1-1v-1c-.08-.044-.252-.102-.5-.102s-.42.058-.5.102v1h-1v-1c0-.58.631-1 1.5-1s1.5.42 1.5 1v1c0 .551-.449 1-1 1v.5zm0 .5h-1v1h1v-1z" id="notificationFg"/></svg>