<svg xmlns="http://www.w3.org/2000/svg" viewBox="0 0 16 16"><defs><style>.icon-canvas-transparent,.icon-vs-out{fill:#f6f6f6;}.icon-canvas-transparent{opacity:0;}.icon-vs-bg{fill:#424242;}</style></defs><title>Workflow_16x</title><path class="icon-canvas-transparent" d="M16,0V16H0V0Z"/><path class="icon-vs-out" d="M12.789,8H15V9A7,7,0,1,1,6.957,2.078l-.725-.724L7.586,0H9.121l3.5,3.5.693-.268,2.122,2.122Z"/><path class="icon-vs-bg" d="M7.5,10.466l5.819-5.82.707.708L7.5,11.88,4.569,8.955l.707-.707ZM8,14A5,5,0,0,1,8,4H9.293L7.646,5.646l.708.708L11.207,3.5,8.354.646l-.708.708L9.293,3H8a6,6,0,1,0,6,6H13A5.006,5.006,0,0,1,8,14Z"/></svg>