<svg xmlns="http://www.w3.org/2000/svg" viewBox="0 0 16 16"><defs><style>.icon-canvas-transparent,.icon-vs-out{fill:#f6f6f6;}.icon-canvas-transparent{opacity:0;}.icon-css-red{fill:#bd1e2d;}</style></defs><title>RB_16x</title><g id="canvas"><path class="icon-canvas-transparent" d="M16,0V16H0V0Z"/></g><g id="outline"><path class="icon-vs-out" d="M15,8.91a2.772,2.772,0,0,1-1.2,2.338A4.581,4.581,0,0,1,11.07,12H5.848L4.7,10.25V12H1V3H4.7A4.981,4.981,0,0,1,7,3.464V3h3.908a4.951,4.951,0,0,1,2.569.571,2.349,2.349,0,0,1,1.207,2.07,2.3,2.3,0,0,1-.5,1.434A2.444,2.444,0,0,1,15,8.91Z"/></g><g id="iconBg"><path class="icon-css-red" d="M13.49,7.794a2.35,2.35,0,0,0-1.361-.553V7.222a2.378,2.378,0,0,0,1.116-.591,1.361,1.361,0,0,0-.28-2.2A4.056,4.056,0,0,0,10.908,4H8v6.5L6.916,8.93c-.074-.108-.156-.217-.246-.329a3.908,3.908,0,0,0-.281-.315,2.4,2.4,0,0,0-.307-.257,1.14,1.14,0,0,0-.326-.158V7.852a2.917,2.917,0,0,0,.7-.284,2.04,2.04,0,0,0,.535-.43,1.789,1.789,0,0,0,.344-.559A1.832,1.832,0,0,0,7.453,5.9Q7.453,4,4.7,4H2v7H3.7V8.32h.458a.681.681,0,0,1,.293.062.891.891,0,0,1,.258.176,1.932,1.932,0,0,1,.246.275c.081.107.165.23.253.366L6.389,11H11.07a3.607,3.607,0,0,0,2.145-.565A1.78,1.78,0,0,0,14,8.91,1.446,1.446,0,0,0,13.49,7.794ZM5.322,6.837a1.284,1.284,0,0,1-.88.293H3.7V5.182h.77c.791,0,1.186.3,1.186.917A.945.945,0,0,1,5.322,6.837ZM9.8,5.162h.675c.876,0,1.314.256,1.314.772a.768.768,0,0,1-.32.651,1.459,1.459,0,0,1-.878.236H9.8Zm1.952,4.422a1.645,1.645,0,0,1-.978.254H9.8V7.993h.985a1.717,1.717,0,0,1,.973.238.762.762,0,0,1,.348.66A.807.807,0,0,1,11.752,9.584Z"/></g></svg>