<svg xmlns="http://www.w3.org/2000/svg" viewBox="0 0 16 16"><defs><style>.icon-canvas-transparent,.icon-vs-out{fill:#f6f6f6;}.icon-canvas-transparent{opacity:0;}.icon-css-red{fill:#bd1e2d;}.icon-vs-bg{fill:#424242;}</style></defs><title>RB_ProjectSENode_16x</title><g id="canvas"><path class="icon-canvas-transparent" d="M16,0V16H0V0Z"/></g><g id="outline"><path class="icon-vs-out" d="M16,1V15H0V1Z"/></g><g id="iconBg"><path class="icon-css-red" d="M1,2V14H15V2ZM14,13H2V3H14Z"/><path class="icon-vs-bg" d="M12.369,8.158a1.784,1.784,0,0,0-1.031-.419V7.725a1.8,1.8,0,0,0,.846-.448,1.031,1.031,0,0,0-.213-1.667,3.066,3.066,0,0,0-1.558-.326H8.21v4.924L7.389,9.019c-.056-.081-.118-.165-.187-.249a2.588,2.588,0,0,0-.213-.239,1.717,1.717,0,0,0-.232-.194.829.829,0,0,0-.247-.12V8.2a2.188,2.188,0,0,0,.528-.215,1.524,1.524,0,0,0,.4-.326A1.32,1.32,0,0,0,7.7,7.238,1.374,1.374,0,0,0,7.8,6.727q0-1.443-2.085-1.443H3.665v5.3H4.956V8.557H5.3a.493.493,0,0,1,.221.047.69.69,0,0,1,.2.132,1.5,1.5,0,0,1,.186.209c.062.081.125.175.192.278l.891,1.364h3.547a2.732,2.732,0,0,0,1.624-.428A1.347,1.347,0,0,0,12.755,9,1.1,1.1,0,0,0,12.369,8.158ZM6.182,7.433a.969.969,0,0,1-.666.222h-.56V6.179h.583q.9,0,.9.695A.717.717,0,0,1,6.182,7.433ZM9.573,6.165h.512c.663,0,.995.193.995.584a.58.58,0,0,1-.242.493,1.1,1.1,0,0,1-.665.179h-.6Zm1.48,3.35a1.255,1.255,0,0,1-.741.191H9.573V8.31h.747a1.306,1.306,0,0,1,.737.179.578.578,0,0,1,.264.5A.616.616,0,0,1,11.053,9.515Z"/></g></svg>