<svg xmlns="http://www.w3.org/2000/svg" viewBox="0 0 16 16"><style>.icon-canvas-transparent{opacity:0;fill:#f6f6f6}.icon-vs-out{fill:#f6f6f6}.icon-vs-bg{fill:#424242}.icon-vs-fg{fill:#f0eff1}</style><path class="icon-canvas-transparent" d="M16 16H0V0h16v16z" id="canvas"/><path class="icon-vs-out" d="M13.914 6L16 3.914v-.83L12.901 0h-.827l-1.705 1.705.293.295H6.351l.293-.295L4.939 0h-.828L.584 3.527 3.069 6H1v9h15V6h-2.086zM5.951 6l.68-.68-.31-.313L7.047 5h2.906v.015h.706l-.304.305.68.68H5.951z" id="outline"/><path class="icon-vs-bg" d="M2 14h13V7H2v7zm10-6h2v1h-1v1h-1V8zm0 3h2v1h-1v1h-1v-2zM9 8h2v1h-1v1H9V8zm0 3h2v1h-1v1H9v-2zM7 9h1v1H7V9zm0 3h1v1H7v-1zM4 9h1v1H4V9zm0 3h1v1H4v-1zm.512-5.975L2 3.525 4.525 1l.707.707L3.947 3h9.119l-1.285-1.293.707-.707L15 3.5l-2.525 2.525-.707-.707 1.296-1.303h-2.11V4H6.047v.01H3.919l1.3 1.307-.707.708z" id="iconBg"/><path class="icon-vs-fg" d="M9 8h2v1h-1v1H9V8zm0 5h1v-1h1v-1H9v2zm3-5v2h1V9h1V8h-2zm0 5h1v-1h1v-1h-2v2zm-8-3h1V9H4v1zm0 3h1v-1H4v1zm3-3h1V9H7v1zm0 3h1v-1H7v1z" id="iconFg"/></svg>