<svg xmlns="http://www.w3.org/2000/svg" viewBox="0 0 16 16"><defs><style>.icon-canvas-transparent,.icon-vs-out{fill:#f6f6f6;}.icon-canvas-transparent{opacity:0;}.icon-vs-bg{fill:#424242;}.icon-vs-action-green{fill:#388a34;}</style></defs><title>MatchType_16x</title><g id="canvas"><path class="icon-canvas-transparent" d="M16,16H0V0H16Z"/></g><g id="outline"><path class="icon-vs-out" d="M16,4V15H7V12H0V1H9V4Z"/></g><g id="iconBg"><path class="icon-vs-bg" d="M15,5v9H8V12H9v1h5V6H9V5ZM8,11H1V2H8ZM7,3H2v7H7Z"/></g><g id="colorAction"><path class="icon-vs-action-green" d="M15,9v1H11.707l1.147,1.146-.708.708L9.793,9.5l2.353-2.354.708.708L11.707,9ZM3.146,4.854,4.293,6H1V7H4.293L3.146,8.146l.708.708L6.207,6.5,3.854,4.146Z"/></g></svg>