<svg xmlns="http://www.w3.org/2000/svg" viewBox="0 0 16 16"><defs><style>.icon-canvas-transparent,.icon-vs-out{fill:#f6f6f6;}.icon-canvas-transparent{opacity:0;}.icon-vs-bg{fill:#424242;}.icon-vs-fg{fill:#f0eff1;}</style></defs><title>Certificate_16x</title><g id="canvas"><path class="icon-canvas-transparent" d="M16,16H0V0H16Z"/></g><g id="outline"><path class="icon-vs-out" d="M1,1V4.556A4.44,4.44,0,0,0,1,10.17V16h.8l2.7-1.349L7.2,16H8V14h8V1Z"/></g><g id="iconBg"><path class="icon-vs-bg" d="M8.945,8A4.524,4.524,0,0,0,9,7.35c0-.12-.026-.233-.035-.35H11V8ZM12,5H8.32a4.466,4.466,0,0,1,.45,1H12ZM2,2V3.611a4.534,4.534,0,0,1,1-.485V3h.4a4.444,4.444,0,0,1,1.1-.15A4.444,4.444,0,0,1,5.6,3H6v.126a4.534,4.534,0,0,1,1,.485V3H8V4H9V3h1V4h1V3h1V4h1V3h1V4H13V5h1V6H13V7h1V8H13V9h1v1H13v1h1v1H13V11H12v1H11V11H10v1H9V11H8v2h7V2ZM4.5,3.85A3.494,3.494,0,0,0,2,9.791v4.992l2.5-1.25L7,14.783V9.791A3.494,3.494,0,0,0,4.5,3.85ZM6,13.166l-1.5-.75-1.5.75V10.5a3.372,3.372,0,0,0,3,0ZM4.5,9.85A2.5,2.5,0,1,1,7,7.35,2.5,2.5,0,0,1,4.5,9.85Z"/></g><g id="iconFg"><path class="icon-vs-fg" d="M6.439,3.307a3.889,3.889,0,0,1,.561.3A4.458,4.458,0,0,0,6.439,3.307ZM6,3.126V3H5.6C5.733,3.035,5.867,3.079,6,3.126ZM3.405,3H3v.126C3.133,3.079,3.267,3.035,3.405,3ZM14,12V11H13v1Zm0-9H13V4h1ZM12,4V3H11V4H10V3H9V4H8V3H7v.611A4.535,4.535,0,0,1,8.32,5H12V6H8.77a4.462,4.462,0,0,1,.2,1H11V8H8.945A4.524,4.524,0,0,0,9,7.35a4.464,4.464,0,0,1-1,2.82V11H9v1h1V11h1v1h1V11h1V10h1V9H13V8h1V7H13V6h1V5H13V4ZM6,13.166l-1.5-.75-1.5.75V10.5a3.372,3.372,0,0,0,3,0ZM4.5,9.85A2.5,2.5,0,1,1,7,7.35,2.5,2.5,0,0,1,4.5,9.85Z"/></g></svg>