<svg xmlns="http://www.w3.org/2000/svg" viewBox="0 0 16 16"><defs><style>.icon-canvas-transparent,.icon-vs-out{fill:#f6f6f6;}.icon-canvas-transparent{opacity:0;}.icon-vs-bg{fill:#424242;}.icon-vs-action-blue{fill:#00539c;}</style></defs><title>SortLines_16x</title><g id="canvas"><path class="icon-canvas-transparent" d="M16,16H0V0H16Z"/></g><g id="outline"><path class="icon-vs-out" d="M16,2V5H14V8H11v3H7.121L3.5,14.621,0,11.121v-.535L1.854,8.732,2,8.879V2H5V8.879l.146-.147L6,9.586V2Z"/></g><g id="iconBg"><path class="icon-vs-bg" d="M7,9h3v1H7ZM7,3V4h8V3ZM7,7h6V6H7Z"/></g><g id="colorAction"><path class="icon-vs-action-blue" d="M5.854,10.854,3.5,13.207,1.146,10.854l.708-.708L3,11.293V3H4v8.293l1.146-1.147Z"/></g></svg>