<svg xmlns="http://www.w3.org/2000/svg" viewBox="0 0 16 16"><defs><style>.icon-canvas-transparent,.icon-vs-out{fill:#f6f6f6;}.icon-canvas-transparent{opacity:0;}.icon-vs-bg{fill:#424242;}.icon-vs-fg{fill:#f0eff1;}.icon-vs-action-red{fill:#a1260d;}</style></defs><title>DeleteClause_16x</title><g id="canvas"><path class="icon-canvas-transparent" d="M16,16H0V0H16Z"/></g><g id="outline"><path class="icon-vs-out" d="M16,8v6H5V10l.232-.232L3.97,8.505,2,10.475l-2-2v-.95L1.5,6.03,0,4.535V3.586l2-2,1.97,1.97,1.969-1.97L8.414,4.061,6.444,6.03,8.414,8Z"/></g><g id="iconBg"><path class="icon-vs-bg" d="M7.414,9,6,10.414V13h9V9ZM14,12H7V10h7Z"/></g><g id="iconFg"><path class="icon-vs-fg" d="M14,10v2H7V10.039Z"/></g><g id="colorAction"><path class="icon-vs-action-red" d="M5.03,6.03,7,8,5.939,9.06,3.97,7.091,2,9.06.939,8l1.97-1.97L.939,4.06,2,3,3.97,4.97,5.939,3,7,4.06Z"/></g></svg>