<svg xmlns="http://www.w3.org/2000/svg" viewBox="0 0 16 16"><style>.icon-canvas-transparent{opacity:0;fill:#f6f6f6}.icon-vs-out{fill:#f6f6f6}.icon-vs-bg{fill:#424242}.icon-vs-fg{fill:#f0eff1}</style><path class="icon-canvas-transparent" d="M16 16H0V0h16v16z" id="canvas"/><path class="icon-vs-out" d="M14 0H7v.003L4.506 0a2.499 2.499 0 0 0-2.491 2.5v.223l-.083-.083L0 4.572v.382l2.042 2.05L0 6.997V16h7.983V9H16V2h-2V0z" id="outline"/><path class="icon-vs-bg" d="M8 5h1v1H8V5zm0-1h1V3H8v1zm0 4h1V7H8v1zm2 0h1V7h-1v1zM6.984 9.588L7 15H1V8l4.518.014 1.466 1.574zM6 10l-.983-1.02L2 9v5h4v-4zM3.015 2.5v2.631L1.934 4.053l-.711.711L3.5 7.05l2.237-2.237-.709-.708-1.013 1.008L4.007 2.5c0-.275.225-.5.5-.5L7 2.003v-1L4.507 1c-.828 0-1.492.673-1.492 1.5zM8 2h1V1H8v1zm6 6h1V7h-1v1zm0-2h1V5h-1v1zm0-3v1h1V3h-1zm-2 5h1V7h-1v1zm-2-6h1V1h-1v1zm2 0h1V1h-1v1zm0 2h1V3h-1v1z" id="iconBg"/><path class="icon-vs-fg" d="M5.017 9H2v5h4v-4l-.983-1z" id="iconFg"/></svg>