<svg xmlns="http://www.w3.org/2000/svg" viewBox="0 0 16 16"><defs><style>.icon-canvas-transparent,.icon-vs-out{fill:#f6f6f6;}.icon-canvas-transparent{opacity:0;}.icon-vs-bg{fill:#424242;}.icon-vs-action-blue{fill:#00539c;}</style></defs><title>ReloadXML_16x</title><path class="icon-canvas-transparent" d="M16,0V16H0V0Z"/><path class="icon-vs-out" d="M16,11.795v.41L12.205,16H5.8L2,12.2V11.8l2-2V9.42l-.5-.175A4.509,4.509,0,0,1,.5,5,4.446,4.446,0,0,1,1,2.941V0H6V.58l.5.175A4.508,4.508,0,0,1,9.5,5,4.452,4.452,0,0,1,9,7.059V8h3.205Z"/><path class="icon-vs-bg" d="M14.791,12l-2.854,2.853-.707-.707L13.377,12,11.23,9.854l.707-.707ZM6.624,10H5.209l-2,2,2.854,2.853.707-.707L4.624,12Zm.712,4.815.929.371,2.4-6-.929-.371Z"/><path class="icon-vs-action-blue" d="M4.169,7.358,3.837,8.3A3.487,3.487,0,0,1,3.226,2H2V1H5V4H4V2.712a2.5,2.5,0,0,0,.169,4.647ZM8.5,5A3.506,3.506,0,0,0,6.163,1.7l-.332.943A2.5,2.5,0,0,1,6,7.288V6H5V9H8V8H6.774A3.489,3.489,0,0,0,8.5,5Z"/></svg>