<svg xmlns="http://www.w3.org/2000/svg" viewBox="0 0 16 16"><defs><style>.icon-canvas-transparent{fill:#f6f6f6;opacity:0;}.cls-1{fill:#212121;}</style></defs><title>ChromeFeedback_16x</title><g id="canvas"><path class="icon-canvas-transparent" d="M16,0V16H0V0Z"/></g><g id="iconBg"><path class="cls-1" d="M16,0V8H14l-3,3V8H10V7h2V8.586L13.586,7H15V1H5V2.8c-.167.021-.335.048-.5.082a3.5,3.5,0,0,0-.5.137V0ZM10.746,13.859A5.341,5.341,0,0,1,11,15.5V16H10v-.5a4.356,4.356,0,0,0-.355-1.75A4.526,4.526,0,0,0,7.25,11.355a4.491,4.491,0,0,0-3.5,0A4.526,4.526,0,0,0,1.355,13.75,4.356,4.356,0,0,0,1,15.5V16H0v-.5a5.341,5.341,0,0,1,.254-1.641,5.558,5.558,0,0,1,3.262-3.484,3.389,3.389,0,0,1-.633-.562,3.5,3.5,0,0,1-.477-.692,3.638,3.638,0,0,1-.3-.781,3.462,3.462,0,0,1,.172-2.2,3.525,3.525,0,0,1,1.86-1.86,3.492,3.492,0,0,1,2.726,0,3.525,3.525,0,0,1,1.86,1.86A3.462,3.462,0,0,1,8.9,8.34a3.638,3.638,0,0,1-.3.781,3.5,3.5,0,0,1-.477.692,3.389,3.389,0,0,1-.633.562,5.55,5.55,0,0,1,3.262,3.484ZM7.262,9.27a2.59,2.59,0,0,0,.539-.8A2.406,2.406,0,0,0,8,7.5a2.377,2.377,0,0,0-.2-.969A2.559,2.559,0,0,0,6.469,5.2,2.377,2.377,0,0,0,5.5,5a2.406,2.406,0,0,0-.973.2,2.59,2.59,0,0,0-.8.539,2.533,2.533,0,0,0-.535.793A2.424,2.424,0,0,0,3,7.5a2.454,2.454,0,0,0,.195.973A2.487,2.487,0,0,0,4.527,9.805,2.437,2.437,0,0,0,5.5,10a2.407,2.407,0,0,0,.969-.2A2.533,2.533,0,0,0,7.262,9.27Z"/></g></svg>