<svg xmlns="http://www.w3.org/2000/svg" viewBox="0 0 16 16"><defs><style>.icon-canvas-transparent,.icon-vs-out{fill:#f6f6f6;}.icon-canvas-transparent{opacity:0;}.icon-vs-bg{fill:#424242;}</style></defs><title>UserVoice_16x</title><g id="canvas"><path class="icon-canvas-transparent" d="M16,0V16H0V0Z"/></g><g id="outline"><path class="icon-vs-out" d="M16,0V8H12.805L9.318,10.989c-.035.05-.062.1-.1.153a5.635,5.635,0,0,1,2.052,3.749L11.392,16H0l.122-1.109a5.638,5.638,0,0,1,2.051-3.749A4.426,4.426,0,0,1,5,4.07V0Z"/></g><g id="iconBg"><path class="icon-vs-bg" d="M15,1V7H12.435L10.09,9.01a4.47,4.47,0,0,0,.047-.569A4.386,4.386,0,0,0,10,7.4V7H9.877A4.444,4.444,0,0,0,9.4,6H11v.913L12.065,6H14V2H7V4.218a4.345,4.345,0,0,0-1-.187V1ZM10.277,15H9.263a3.6,3.6,0,0,0-7.134,0H1.116a4.619,4.619,0,0,1,2.677-3.7,3.441,3.441,0,1,1,3.807,0A4.621,4.621,0,0,1,10.277,15ZM8.137,8.441A2.441,2.441,0,1,0,5.7,10.882,2.444,2.444,0,0,0,8.137,8.441Z"/></g></svg>