<svg xmlns="http://www.w3.org/2000/svg" viewBox="0 0 16 16"><style>.icon-canvas-transparent{opacity:0;fill:#f6f6f6}.icon-vs-out{fill:#f6f6f6}.icon-vs-bg{fill:#424242}.st0{fill:#f0eff1}</style><path class="icon-canvas-transparent" d="M16 16H0V0h16v16z" id="canvas"/><path class="icon-vs-out" d="M6 0v.58l.496.175c.13.046.257.097.381.154L8.674 0h1.044L16 3.314v7.988L9.594 16H9.53l-7.385-4.653V8.478A4.51 4.51 0 0 1 .5 5c0-.733.175-1.435.5-2.059V0h5z" id="outline"/><path class="st0" d="M9 7.752l.126.07v5.585l-.04.025v.023l-.014-.012-.014.012v-.023l-4.947-3.225V10H9V7.752zm.126-5.84l-.605.307a4.49 4.49 0 0 1 .936 2.243l.039.038-.033.033c.016.155.037.309.037.467 0 .618-.138 1.219-.382 1.774l.33.188 4.477-2.686-4.799-2.364zm.967 5.944v5.41l4.027-2.9V5.221l-4.027 2.635z" id="iconFg"/><path class="icon-vs-bg" d="M4.169 7.358l-.332.944A3.507 3.507 0 0 1 1.5 5a3.49 3.49 0 0 1 1.726-3H2V1h3v3H4V2.712A2.502 2.502 0 0 0 2.5 5c0 1.059.671 2.007 1.669 2.358zM8.5 5a3.507 3.507 0 0 0-2.337-3.302l-.332.944A2.503 2.503 0 0 1 7.5 5 2.502 2.502 0 0 1 6 7.288V6H5v3h3V8H6.774A3.488 3.488 0 0 0 8.5 5zM9.197.856l-1.342.679c.267.221.507.47.716.743l.557-.283 4.642 2.287-4.323 2.593-.298-.17c-.047.113-.093.226-.149.334v.797l.051.029v5.471l-4.864-3.171V10H4v-.58l-.496-.175c-.125-.044-.24-.105-.359-.159v1.709l6.377 4.018L15 10.795V3.917L9.197.856zm4.848 9.471l-3.877 2.792V7.896l3.877-2.537v4.968z" id="iconBg"/></svg>