<svg xmlns="http://www.w3.org/2000/svg" viewBox="0 0 16 16"><style>.icon-canvas-transparent{opacity:0;fill:#f6f6f6}.icon-vs-out{fill:#f6f6f6}.icon-vs-bg{fill:#424242}.icon-vs-fg{fill:#f0eff1}</style><path class="icon-canvas-transparent" d="M16 16H0V0h16v16z" id="canvas"/><path class="icon-vs-out" d="M16 10.013a3.502 3.502 0 0 1-2.76 2.953l-1.198.242v-2.969l.664-.237a.502.502 0 0 0 .336-.466c0-.275-.225-.5-.5-.5h-.734l.449.452-2.102 2.102-.155-.151V15H0V1h10v2.761l.196-.151.634.631 1.37 1.415-.379.38h.721c1.787 0 3.25 1.352 3.458 3.085v.892z" id="outline"/><path class="icon-vs-bg" d="M8 9.422l1 .994V14H1V2h8v2.587L8 5.594V3H2v9h6V9.422zm4.542-2.386H9.417l1.382-1.389-.687-.71-.012.011-.001-.001L7.495 7.55l2.649 2.637.009-.009.691-.691-1.442-1.45h3.14c.827 0 1.5.673 1.5 1.5 0 .651-.419 1.201-1 1.408v1.042a2.5 2.5 0 0 0-.5-4.951z" id="iconBg"/><path class="icon-vs-fg" d="M6.086 7.52L8 9.422V12H2V3h6v2.594L6.086 7.52z" id="iconFg"/></svg>