<svg xmlns="http://www.w3.org/2000/svg" viewBox="0 0 16 16"><defs><style>.icon-canvas-transparent,.icon-vs-out{fill:#f6f6f6;}.icon-canvas-transparent{opacity:0;}.icon-vs-yellow{fill:#fc0;}.icon-vs-bg{fill:#424242;}</style></defs><title>FeedbackSmile_16x</title><g id="canvas"><path class="icon-canvas-transparent" d="M16,0V16H0V0Z"/></g><g id="outline"><path class="icon-vs-out" d="M16,8A8,8,0,1,1,8,0,8,8,0,0,1,16,8Z"/></g><g id="iconFg"><circle class="icon-vs-yellow" cx="8" cy="8" r="6"/></g><g id="iconBg"><path class="icon-vs-bg" d="M8,1a7,7,0,1,0,7,7A7.008,7.008,0,0,0,8,1ZM8,14a6,6,0,1,1,6-6A6.006,6.006,0,0,1,8,14Zm3.032-4.25.865.5a4.5,4.5,0,0,1-7.794,0l.865-.5a3.5,3.5,0,0,0,6.064,0ZM4.5,6.5a1,1,0,1,1,1,1A1,1,0,0,1,4.5,6.5Zm5,0a1,1,0,1,1,1,1A1,1,0,0,1,9.5,6.5Z"/></g></svg>