<svg xmlns="http://www.w3.org/2000/svg" viewBox="0 0 16 16"><defs><style>.icon-canvas-transparent,.icon-vs-out{fill:#f6f6f6;}.icon-canvas-transparent{opacity:0;}.icon-vs-bg{fill:#424242;}</style></defs><title>CallHierarchyView_16x</title><g id="canvas"><path id="_Compound_Path_" data-name="&lt;Compound Path&gt;" class="icon-canvas-transparent" d="M16,16H0V0H16Z"/></g><g id="outline"><path class="icon-vs-out" d="M12,8H10V5h3.3l.289-.5A2.987,2.987,0,0,0,11,0H5A2.987,2.987,0,0,0,2.413,4.5L2.7,5H6V8H4v3H2v4H14V11H12ZM7,5V3H9V5Z"/></g><g id="iconBg"><path id="_Compound_Path_2" data-name="&lt;Compound Path&gt;" class="icon-vs-bg" d="M3.277,4A1.977,1.977,0,0,1,3,3,2,2,0,0,1,5,1h6a2,2,0,0,1,2,2,1.977,1.977,0,0,1-.277,1H10V2H6V4ZM9,8V6H7V8Zm2,1H9v2h2ZM7,9H5v2H7Zm0,5H9V12H7ZM3,14H5V12H3Zm8,0h2V12H11Z"/></g></svg>