<svg xmlns="http://www.w3.org/2000/svg" viewBox="0 0 16 16"><style>.icon-canvas-transparent{opacity:0;fill:#f6f6f6}.icon-vs-out{fill:#f6f6f6}.icon-vs-action-blue{fill:#00539c}.icon-vs-fg_x0020_{fill:#f0eff1}.icon-vs-bg_x0020_{fill:#424242}</style><path class="icon-canvas-transparent" d="M16 16H0V0h16v16z" id="canvas"/><path class="icon-vs-out" d="M11.621 0H3v1.025l-3 3v.825l3 3V8H1v8h15V4.379z" id="outline"/><path class="icon-vs-bg_x0020_" d="M11.207 1H5.685l.791.791L6.267 2H10v4h4v8H7v1h8V4.793L11.207 1zM11 5V2.207L13.793 5H11zM2 15l2-2 2 2V9H2v6z" id="iconBg"/><path class="icon-vs-fg_x0020_" d="M13.793 5H11V2.207L13.793 5zM6 2v1h3v3H7v8h7V6h-4V2H6z" id="iconFg"/><path class="icon-vs-action-blue" d="M4.355 1.084l.707.707L2.853 4H8v1H2.978l2.084 2.084-.707.707-3.354-3.353z" id="colorAction"/></svg>