<svg xmlns="http://www.w3.org/2000/svg" viewBox="0 0 16 16"><defs><style>.icon-canvas-transparent,.icon-vs-out{fill:#f6f6f6;}.icon-canvas-transparent{opacity:0;}.icon-vs-green{fill:#393;}.icon-white{fill:#fff;}</style></defs><title>StatusSecurityOK_16x</title><g id="canvas"><path class="icon-canvas-transparent" d="M16,0V16H0V0Z"/></g><g id="outline"><path class="icon-vs-out" d="M8.275,15.922,8,16l-.275-.078C1.608,14.172.7,7.339,1.072,3.971l.06-.534L8,0l6.868,3.437.06.534C15.3,7.339,14.392,14.172,8.275,15.922Z"/></g><g id="iconBg"><path class="icon-vs-green" d="M13.951,4,8,1,2.049,4S1.058,13,8,15C14.942,13,13.951,4,13.951,4ZM6.457,12.017,3.5,9.06,4.784,7.776,6.457,9.449,11.216,4.69,12.5,5.974Z"/></g><g id="iconFg"><path class="icon-white" d="M12.5,5.974,6.457,12.017,3.5,9.06,4.784,7.776,6.457,9.449,11.216,4.69Z"/></g></svg>