<svg xmlns="http://www.w3.org/2000/svg" viewBox="0 0 16 16"><defs><style>.icon-canvas-transparent,.icon-vs-out{fill:#f6f6f6;}.icon-canvas-transparent{opacity:0;}.icon-vs-bg{fill:#424242;}.icon-vs-yellow{fill:#fc0;}</style></defs><title>XMLSchemaWarning_16x</title><path class="icon-canvas-transparent" d="M16,16H0V0H16Z"/><path class="icon-vs-out" d="M16,11v5H8l0-.008V16H1V11H3V8H7V6.416l-1,1L2.586,4,6,.586,7.914,2.5,6.416,4l1,1h2.17l1-1-1.5-1.5L11,.586,14.414,4,11.4,7.016h1.112L13,8h1v2.018l.487.982Z"/><path class="icon-vs-bg" d="M15,12v.032L14.983,12ZM9,6H8V9H4v3H2v3H7v-.919l-.029-.056L7,13.967V12H5V10H8.993l.5-1H9Zm1.5-3.5L12,4,10.5,5.5,11,6l2-2L11,2Zm-4,3L5,4,6.5,2.5,6,2,4,4,6,6Z"/><path class="icon-vs-yellow" d="M11.891,8.016h-.781l-3.016,6L8.609,15h5.766l.484-1ZM12,14H11V13h1Zm0-2H11V10h1Z"/><path d="M12,10v2H11V10Zm-1,4h1V13H11Z"/></svg>