<svg xmlns="http://www.w3.org/2000/svg" viewBox="0 0 16 16"><style>.icon-canvas-transparent{opacity:0;fill:#f6f6f6}.icon-vs-out{fill:#f6f6f6}.icon-vs-bg{fill:#424242}.st0{fill:#f0eff1}</style><path class="icon-canvas-transparent" d="M16 16H0V0h16v16z" id="canvas"/><path class="icon-vs-out" d="M11.621 0H3v7.637l-.944-.291.36.654H0v3h1v1H0v3h1.755l-.606.925L3 15.359V16h13V4.379z" id="outline"/><g id="iconFg"><path class="st0" d="M6.403 8.686l3.101-3.681-.009 4.781L14 11.226V6h-4V2H5v6.253z"/><path class="st0" d="M11 2.207V5h2.793zM9.499 12.929V14H14v-2.714z"/><path class="st0" d="M6.403 8.686l3.101-3.681-.009 4.781L14 11.226V6h-4V2H5v6.253z"/><path class="st0" d="M11 2.207V5h2.793zM9.499 12.929V14H14v-2.714z"/><path class="icon-vs-bg" d="M4.173 15l2.066-.632.466.632H4.173zM15 4.793V15H9.499v-1H14v-2.714l.088-.032-.088-.028V6h-4V2H5v6.253l-1-.308V1h7.207L15 4.793zM13.793 5L11 2.207V5h2.793zM2 12h1v-1H2v1zm-1 2h2v-1H1v1zm7.494-3.484l.005-2.766-1.757 2.086-2.616-.806 1.249 2.267L3.5 14.16l3.124-.955 1.875 2.545v-3.521L11 11.316l-2.506-.8zM1 10h2V9H1v1z"/></g></svg>