<svg xmlns="http://www.w3.org/2000/svg" viewBox="0 0 16 16"><title>WindowsApplicationPackagingProject_16x</title><path d="M16 0H0v7h.464L0 7.464v2.829l1 1V16h9v-3h6z" fill="#f6f6f6"/><path d="M14 4v7h-3.707l2.121-2.121L10 6.464V6H2V4z" fill="#f0eff1"/><path d="M15 1v11h-5v-.707l.293-.293H14V4H2v2H1V1z" fill="#424242"/><path d="M2 15v-5h7v5z" fill="#b38e5e"/><path d="M2 10.879l-2-2 1.414-1.415L2 8.05V7h7v1.05l.586-.586L11 8.879l-2 2V10H2z" fill="#bb8849"/><path d="M8 14H3v-4h5zm0-6H3v1h5z" fill="#dcb67a"/></svg>