<svg xmlns="http://www.w3.org/2000/svg" viewBox="0 0 16 16"><defs><style>.icon-canvas-transparent,.icon-vs-out{fill:#f6f6f6;}.icon-canvas-transparent{opacity:0;}.icon-vs-bg{fill:#424242;}.icon-vs-fg{fill:#f0eff1;}</style></defs><title>Copy_16x</title><g id="canvas"><path class="icon-canvas-transparent" d="M16,16H0V0H16Z"/></g><g id="outline"><path class="icon-vs-out" d="M5,16V13H1V0H7.618L10.6,3h1.017L16,7.379V16Z"/></g><g id="iconBg"><path class="icon-vs-bg" d="M11.207,4H10.19L7.2,1H2V12H6v3h9V7.793ZM11,5.207,13.793,8H11ZM6,11H3V2H6.8L8.81,4H6Zm8,3H7V5h3V9h4Z"/></g><g id="iconFg"><path class="icon-vs-fg" d="M11,5.207,13.793,8H11ZM6,11H3V2H6.8L8.81,4H6Zm8,3H7V5h3V9h4Z"/></g></svg>