<svg xmlns="http://www.w3.org/2000/svg" viewBox="0 0 16 16"><defs><style>.icon-canvas-transparent,.icon-vs-out{fill:#f6f6f6;}.icon-canvas-transparent{opacity:0;}.icon-vs-bg{fill:#424242;}</style></defs><title>EnvironmentDefinition_16x</title><g id="canvas"><path class="icon-canvas-transparent" d="M16,16H0V0H16Z"/></g><g id="iconBg"><path class="icon-vs-out" d="M16,14.35V16H0V5H4V2.5A2.5,2.5,0,0,1,6.5,0h4A2.5,2.5,0,0,1,13,2.5V8h1.729Z"/><path class="icon-vs-bg" d="M10,9H9V8h1ZM9,11h1V10H9Zm4.91-2H12V2.5A1.5,1.5,0,0,0,10.5,1h-4A1.5,1.5,0,0,0,5,2.5V5H6V2.5A.5.5,0,0,1,6.5,2h4a.5.5,0,0,1,.5.5V12H9v1h3V10h1.09l.8,4H9v1h6.11ZM10,3H7V4h3ZM3,13H6V12H3ZM5,8H3V9H5Zm.707-2L8,8.293V15H1V6ZM7,8.707,5.293,7H2v7H7ZM3,11H6V10H3Z"/></g></svg>