<svg xmlns="http://www.w3.org/2000/svg" viewBox="0 0 16 16"><defs><style>.icon-canvas-transparent,.icon-vs-out{fill:#f6f6f6}.icon-canvas-transparent{opacity:0}.icon-vs-bg{fill:#424242}</style></defs><title>ProcessModel_16x</title><path class="icon-canvas-transparent" d="M16 0v16H0V0z"/><path class="icon-vs-out" d="M16 4.586l-1.018.6L16 5.743v.72l-.031.122a5.462 5.462 0 0 1-.5 1.264l-.376.681-1.306-.34.373 1.283-.657.4a4.885 4.885 0 0 1-.6.333 4.055 4.055 0 0 1-.549.183l-.851.244-.681-1.161-.65 1.185-.2-.051A3.58 3.58 0 0 1 10 11a3.852 3.852 0 0 1-.046.535l-.1.77-.782.191-.354.044.7.9-.476.614a5.038 5.038 0 0 1-.89.891l-.614.477-.9-.7-.138 1.12-.77.1A4.623 4.623 0 0 1 5 16a3.882 3.882 0 0 1-.536-.046l-.769-.1-.195-.782-.044-.353-.9.7-.614-.477a5.038 5.038 0 0 1-.89-.891l-.475-.614.7-.9L.158 12.4l-.1-.769A4.553 4.553 0 0 1 0 11a3.853 3.853 0 0 1 .046-.535l.1-.769.781-.196.354-.044-.7-.9.475-.614c.036-.047.079-.087.116-.132H.311l-.182-.762A6.867 6.867 0 0 1 .676 2.8l-.418-.788L2.014.262 2.8.676A6.972 6.972 0 0 1 5.833 0a5.334 5.334 0 0 1 1.215.128l.77.182v.421l.3-.175a4.069 4.069 0 0 1 .503-.271A4.077 4.077 0 0 1 9.159.1l.363-.1h.578l.6 1.021L11.257 0h.719l.124.032a5.426 5.426 0 0 1 1.262.5l.681.376-.34 1.3L15 1.838l.452.769a4.289 4.289 0 0 1 .267.5 4.07 4.07 0 0 1 .185.556l.1.354z"/><path class="icon-vs-bg" d="M6 11a1 1 0 1 1-1-1 1 1 0 0 1 1 1zm2.949-.5A3.9 3.9 0 0 1 9 11a3.9 3.9 0 0 1-.051.5l-1.235.154a2.744 2.744 0 0 1-.331.795l.768.984a4 4 0 0 1-.712.713l-.985-.768a2.783 2.783 0 0 1-.8.331l-.154 1.24A3.886 3.886 0 0 1 5 15a3.886 3.886 0 0 1-.5-.051l-.153-1.235a2.783 2.783 0 0 1-.8-.331l-.985.768a4 4 0 0 1-.712-.713l.768-.984a2.744 2.744 0 0 1-.331-.795L1.051 11.5A3.9 3.9 0 0 1 1 11a3.9 3.9 0 0 1 .051-.5l1.235-.154a2.744 2.744 0 0 1 .331-.795l-.767-.988a4 4 0 0 1 .712-.713l.985.768a2.783 2.783 0 0 1 .8-.331L4.5 7.051q.188-.024.379-.038l.714.721.068.552a2.783 2.783 0 0 1 .8.331h.005l.924.934a2.744 2.744 0 0 1 .331.795zM7 11a2 2 0 1 0-2 2 2 2 0 0 0 2-2zm8-4.665a4.392 4.392 0 0 1-.408 1.03l-1.33-.347a3.041 3.041 0 0 1-.662.682l.382 1.314a4.108 4.108 0 0 1-.486.271 4.272 4.272 0 0 1-.53.168l-.693-1.181a3.076 3.076 0 0 1-.948.012l-.661 1.2a4.454 4.454 0 0 1-1.03-.41l.338-1.3.441-.49-1.7-1.7a3.067 3.067 0 0 1 0-.778l-1.2-.66a4.436 4.436 0 0 1 .409-1.03l1.33.347a3.044 3.044 0 0 1 .659-.681l-.383-1.308a4.32 4.32 0 0 1 .488-.274 4.36 4.36 0 0 1 .53-.168l.693 1.181a3.075 3.075 0 0 1 .948-.012L11.849 1a4.421 4.421 0 0 1 1.029.41l-.347 1.329a3.015 3.015 0 0 1 .68.658l1.316-.382a4.563 4.563 0 0 1 .273.485 4.266 4.266 0 0 1 .168.531l-1.181.693a3.058 3.058 0 0 1 .012.947zm-2.223-1.961a2.2 2.2 0 1 0-1.149 2.891 2.2 2.2 0 0 0 1.149-2.891zm-2.456-.14a1.1 1.1 0 1 0 1.445.575 1.1 1.1 0 0 0-1.445-.575zM1.1 6.818h.127a6.669 6.669 0 0 1 1.141-2.5h1.244L7.292 8 8 7.293 4.319 3.611V2.369a6.671 6.671 0 0 1 2.5-1.14V1.1a5.748 5.748 0 0 0-4 .717L2.2 1.49l-.711.71.33.621A5.747 5.747 0 0 0 1.1 6.818z"/></svg>