<svg xmlns="http://www.w3.org/2000/svg" viewBox="0 0 16 16"><style>.icon-canvas-transparent{opacity:0;fill:#f6f6f6}.icon-vs-out{fill:#f6f6f6}.icon-vs-bg{fill:#424242}.icon-vs-fg{fill:#f0eff1}</style><path class="icon-canvas-transparent" d="M16 0v16H0V0h16z" id="canvas"/><path class="icon-vs-out" d="M16 5.063v2.878l-.499.03L15.5 9c0 .469-.181 2-2.5 2h-1v-1h-1v6H0V7h1.395a2.46 2.46 0 0 1 .428-1.057 2.441 2.441 0 0 1 2.015-1.037c.648 0 1.205.242 1.663.721A2.213 2.213 0 0 1 7 4.922v-.424H4.5v-2.5C4.5 1.529 4.681 0 7 0h1v1h5v1.002c2.319 0 2.5 1.529 2.5 1.998v1.031l.5.032z" id="outline"/><path class="icon-vs-bg" d="M10 6h2v1h-2V6zM6.5 2.252c0-.503.25-.503.5-.503V1c-1.25 0-1.5.499-1.5.999v1.5h1V2.252zM11 9h1V8h-1v1zm3.5-3.5V4c0-.5-.25-.999-1.5-.999v.749c.25 0 .5 0 .5.503V5.5c0 .5.197.839.5 1-.303.158-.5.5-.5 1v1.25s0 .5-.5.5V10c1.25 0 1.5-.5 1.5-1V7.5c0-.568.307-.488.5-.5V6c-.178-.011-.5.081-.5-.5zM8 4.7l.75.3H12V4H8v.7zM8 3h4V2H8v1zm.475 5H10v7H1V8h1.525a1.338 1.338 0 0 1-.136-.388 1.463 1.463 0 0 1 1.197-1.685c1.037-.169 1.473.721 1.641 1.058.041.082.149.321.273.598.124-.277.232-.516.274-.6.168-.335.605-1.224 1.64-1.056a1.464 1.464 0 0 1 1.197 1.687A1.336 1.336 0 0 1 8.475 8zm-5.1-.555c.008.047.031.187.285.36.08.054.204.123.339.195h.593a21.326 21.326 0 0 0-.259-.566c-.285-.571-.443-.545-.579-.521a.461.461 0 0 0-.379.532zM5 9H2v5h3V9zm1.409-1h.593a4.23 4.23 0 0 0 .339-.196c.253-.172.276-.312.284-.357a.462.462 0 0 0-.379-.533c-.135-.025-.294-.05-.578.518-.041.08-.142.307-.259.568zM6 9v5h3V9H6z" id="iconBg"/><g id="iconFg"><path class="icon-vs-fg" d="M2 9h3v5H2V9zm4 0v5h3V9H6z"/></g></svg>