<svg xmlns="http://www.w3.org/2000/svg" viewBox="0 0 16 16"><defs><style>.icon-canvas-transparent-,.icon-vs-out{fill:#f6f6f6;}.icon-canvas-transparent-{opacity:0;}.cls-1{fill:#424242;}.icon-vs-action-green{fill:#388a34;}</style></defs><title>AddFile_16x</title><g id="canvas"><path class="icon-canvas-transparent-" d="M16,16H0V0H16Z"/></g><g id="outline"><polygon class="icon-vs-out" points="10.621 0 7 0 3.019 0 2 0 2 2.018 1 2.018 1 6 2 6 2 16 15 16 15 4.379 10.621 0"/></g><g id="iconBg"><path class="cls-1" d="M10.207,1H7V2H9V6h4v8H4V8H3.019L3,15H14V4.793ZM10,5V2.207L12.793,5Z"/><path class="cls-1" d="M10.207,1H7V2H9V6h4v8H4V8H3.019L3,15H14V4.793ZM10,5V2.207L12.793,5Z"/></g><g id="colorAction"><path class="icon-vs-action-green" d="M8,3.018H6V1H4.019V3.018H2V5H4.019V7H6V5H8Z"/></g></svg>