<svg xmlns="http://www.w3.org/2000/svg" viewBox="0 0 16 16"><defs><style>.icon-canvas-transparent,.icon-vs-out{fill:#f6f6f6;}.icon-canvas-transparent{opacity:0;}.icon-vs-bg{fill:#424242;}.icon-vs-fg{fill:#f0eff1;}.icon-vs-action-orange{fill:#c27d1a;}</style></defs><title>WindowsForm_16x</title><g id="canvas"><path class="icon-canvas-transparent" d="M16,16H0V0H16Z"/></g><g id="outline"><path class="icon-vs-out" d="M16,15H0V1H16Z"/></g><g id="iconBg"><path class="icon-vs-bg" d="M1,2V14H15V2ZM14,13H2V5H14ZM6,11H3V10H6ZM6,8H3V7H6Z"/></g><g id="iconFg"><path class="icon-vs-fg" d="M2,13H14V5H2ZM7,6h5V8H7Zm0,4h5v2H7ZM3,7H6V8H3Zm0,3H6v1H3Z"/></g><g id="colorImportance"><path class="icon-vs-action-orange" d="M12,12H7V10h5Zm0-6H7V8h5Z"/></g></svg>