<svg xmlns="http://www.w3.org/2000/svg" viewBox="0 0 16 16"><defs><style>.icon-canvas-transparent,.icon-vs-out{fill:#f6f6f6;}.icon-canvas-transparent{opacity:0;}.icon-vs-bg{fill:#424242;}</style></defs><title>CheckerboardSquare_16x</title><g id="canvas"><path class="icon-canvas-transparent" d="M16,16H0V0H16Z"/></g><g id="outline"><path class="icon-vs-out" d="M14,13H3V2H14Z"/></g><g id="iconBg"><path class="icon-vs-bg" d="M5,5H4V4H5ZM3,12H2v1H3ZM3,6H2V7H3Zm2,4H6V9H5ZM1,1V2H2V1ZM5,8H6V7H5ZM1,3V4H2V3ZM1,5V6H2V5Zm0,8v1H2V13ZM5,6H6V5H5ZM1,7V8H2V7ZM3,8H2V9H3ZM1,9v1H2V9Zm3,3v1H5V12Zm2,1H7V12H6ZM1,11v1H2V11ZM5,8H4V9H5ZM5,6H4V7H5ZM3,10H2v1H3Zm2,0H4v1H5ZM4,1H3V2H4ZM8,6V5H7V6ZM9,1V2h1V1Zm2,11H10v1h1Zm4-1V10H14v1Zm0,2V12H14v1Zm-5,2h1V14H10Zm2,0h1V14H12Zm3-6V8H14V9Zm0-4V4H14V5Zm0-2V2H14V3ZM12,1H11V2h1Zm3,6V6H14V7ZM9,13v1h1V13ZM8,10V9H7v1Zm6-9H13V2h1ZM6,1H5V2H6ZM8,8V7H7V8Zm0,4V11H7v1ZM5,12H6V11H5ZM7,4H8V3H7ZM8,1H7V2H8ZM6,15H7V14H6Zm3,0V14H8v1ZM2,15H3V14H2Zm2,0H5V14H4Zm11,0V14H14v1ZM13,6h1V5H13Zm-1,5H11v1h1Zm0,2h1V12H12Zm0-2h1V10H12Zm-2-1v1h1V10Zm3-2h1V7H13ZM11,6H10V7h1Zm2-3V2H12V3ZM11,6h1V5H11Zm1,3h1V8H12ZM11,8H10V9h1Zm2-5V4h1V3ZM12,3H11V4h1ZM10,9H9v1h1Zm0-2H9V8h1Zm2,0h1V6H12Zm1,7h1V13H13ZM9,11v1h1V11Zm2,2v1h1V13ZM6,11H7V10H6Zm6-6h1V4H12Zm1,5h1V9H13ZM11,5V4H10V5Zm2,7h1V11H13ZM11,8h1V7H11ZM10,5H9V6h1ZM6,4V3H5V4ZM4,5H3V6H4ZM4,3H3V4H4ZM5,3V2H4V3ZM7,3V2H6V3ZM4,9H3v1H4ZM4,7H3V8H4ZM6,9H7V8H6ZM3,4H2V5H3ZM6,7H7V6H6ZM6,5H7V4H6ZM3,2H2V3H3ZM8,8V9H9V8Zm3-6H10V3h1ZM8,6V7H9V6Zm0,4v1H9V10ZM8,4V5H9V4Zm3,6h1V9H11ZM4,11H3v1H4Zm4,2H9V12H8ZM9,3V2H8V3ZM3,13v1H4V13Zm7-9V3H9V4ZM7,14H8V13H7ZM5,13v1H6V13Z"/></g></svg>