<svg xmlns="http://www.w3.org/2000/svg" viewBox="0 0 16 16"><style>.icon-canvas-transparent{opacity:0;fill:#f6f6f6}.icon-vs-out{fill:#f6f6f6}.icon-vs-bg{fill:#424242}.icon-vs-fg{fill:#f0eff1}</style><path class="icon-canvas-transparent" d="M16 0v16H0V0h16z" id="canvas"/><path class="icon-vs-out" d="M8 1v3H6V2H0v14h9v-6h7V1H8zm0 6.447c-.052-.103-.104-.207-.172-.303-.037-.053-.083-.095-.124-.144H8v.447z" id="outline"/><path class="icon-vs-fg" d="M2 10h2v4H2v-4zm3 0v4h2v-4H5z" id="iconFg"/><g id="iconBg"><path class="icon-vs-bg" d="M15 2v7H9V2h6zM6 6h2V5H6v1zm-3.348.213c.14-.023.268-.032.389-.032.564 0 1.052.195 1.46.582.154-.147.323-.256.499-.347V3H1v4.447c.052-.103.104-.207.172-.304.354-.498.88-.828 1.48-.93zM7.119 9H8v6H1V9h.881a1.136 1.136 0 0 1-.113-.321 1.285 1.285 0 0 1 1.051-1.48c.911-.148 1.293.633 1.441.929.036.072.131.282.24.525.109-.243.204-.453.241-.527.147-.294.532-1.074 1.44-.927A1.286 1.286 0 0 1 7.232 8.68a1.14 1.14 0 0 1-.113.32zm-4.485-.468c.007.041.027.164.25.316.063.042.159.096.263.152h.547c-.099-.22-.184-.411-.219-.478-.25-.501-.389-.478-.508-.457a.405.405 0 0 0-.333.467zM4 10H2v4h2v-4zm1.307-1h.547c.104-.056.2-.11.262-.153.222-.151.243-.274.25-.314a.406.406 0 0 0-.333-.468c-.118-.022-.258-.044-.507.455-.035.069-.121.26-.219.48zM7 10H5v4h2v-4z"/></g></svg>