<svg xmlns="http://www.w3.org/2000/svg" viewBox="0 0 16 16"><defs><style>.icon-canvas-transparent,.icon-vs-out{fill:#f6f6f6;}.icon-canvas-transparent{opacity:0;}.icon-white{fill:#fff;}.syntax-snappoint-purple{fill:purple;}.icon-vs-red{fill:#e51400;}</style></defs><title>ProductionSnapshotPointOffError_16x</title><g id="canvas"><path class="icon-canvas-transparent" d="M16,0V16H0V0Z"/></g><g id="outline"><path class="icon-vs-out" d="M16,7.856,12.041,1H3.959L0,7.856v.288L3.959,15H8.706A4.46,4.46,0,0,0,11.5,16,4.505,4.505,0,0,0,16,11.5a4.443,4.443,0,0,0-.632-2.261L16,8.144Z"/></g><g id="iconFg"><path class="icon-white" d="M7,11.5A4.505,4.505,0,0,1,11.5,7a4.452,4.452,0,0,1,1.969.473L10.887,3H5.113L2.227,8l2.886,5H7.276A4.445,4.445,0,0,1,7,11.5Z"/></g><g id="iconBg"><path class="syntax-snappoint-purple" d="M7.276,13H5.113L2.227,8,5.113,3h5.774l2.582,4.473a4.53,4.53,0,0,1,1.249.891L14.928,8,11.465,2H4.535L1.072,8l3.463,6H7.762A4.493,4.493,0,0,1,7.276,13Z"/></g><g id="notificationBg"><path class="icon-vs-red" d="M11.5,8A3.5,3.5,0,1,0,15,11.5,3.5,3.5,0,0,0,11.5,8Zm1.853,4.647-.706.706L11.5,12.207l-1.147,1.146-.706-.706L10.793,11.5,9.647,10.353l.706-.706L11.5,10.793l1.147-1.146.706.706L12.207,11.5Z"/></g><g id="notificationFg"><path class="icon-white" d="M12.207,11.5l1.146,1.147-.706.706L11.5,12.207l-1.147,1.146-.706-.706L10.793,11.5,9.647,10.353l.706-.706L11.5,10.793l1.147-1.146.706.706Z"/></g></svg>