<svg xmlns="http://www.w3.org/2000/svg" viewBox="0 0 16 16"><style>.icon-canvas-transparent{opacity:0;fill:#f6f6f6}.icon-vs-out{fill:#f6f6f6}.icon-vs-bg{fill:#424242}.icon-vs-fg{fill:#f0eff1}.icon-asp-html-wpf-blue{fill:#0095d7}</style><path class="icon-canvas-transparent" d="M16 16H0V0h16v16z" id="canvas"/><path class="icon-vs-out" d="M16 4.379L11.621 0H3v5.663a5.503 5.503 0 0 0-2.973 4.88 5.225 5.225 0 0 0 .065.812l.001.124.033.083A5.496 5.496 0 0 0 3 15.43V16h1.893c.052.006.105.015.156.02a5.05 5.05 0 0 0 1.015-.003c.03-.003.056-.014.086-.017H16V4.379z" id="outline"/><path class="icon-vs-bg" d="M11.207 1H4v4.263c.323-.093.656-.16 1-.193V2h5v4h4v8H9.79a5.47 5.47 0 0 1-1.05 1H15V4.793L11.207 1zM11 5V2.207L13.793 5H11z" id="iconBg"/><path class="icon-vs-fg" d="M10 6V2H5v3.07a5.473 5.473 0 0 1 6.018 5.287c.006.081.009.133.009.186A5.47 5.47 0 0 1 9.789 14H14V6h-4z" id="iconFg"/><path class="icon-asp-html-wpf-blue" d="M10.027 10.543c0-.053-.008-.102-.008-.152a4.496 4.496 0 1 0-8.925.895 4.49 4.49 0 0 0 3.696 3.691l.013.002a4.283 4.283 0 0 0 1.164.043 4.503 4.503 0 0 0 4.06-4.479zM7.436 9.476a8.07 8.07 0 0 0 1.489-.388c.19.445.299.938.299 1.455 0 .08-.008.16-.012.24a7.551 7.551 0 0 1-1.831.555c.07-.393.108-.768.104-1.119a7.967 7.967 0 0 0-.049-.743zM8.58 8.459a7.185 7.185 0 0 1-1.255.319 7.475 7.475 0 0 0-.589-1.725A3.697 3.697 0 0 1 8.58 8.459zm-3.053 5.78c-.109 0-.217-.008-.324-.018-.322-.717-.57-1.43-.725-2.124a11.327 11.327 0 0 0 1.304.061c.224 0 .45-.006.678-.018a13.596 13.596 0 0 1-.87 2.095c-.022.001-.041.004-.063.004zm.004-2.782c-.41-.006-.803-.035-1.182-.079a7.722 7.722 0 0 1-.035-1.89c.387.043.79.112 1.209.112h.259c.314 0 .632-.045.956-.068.025.219.044.451.046.683.004.372-.044.778-.135 1.208a16.09 16.09 0 0 1-1.118.034zm-.004-4.61c.106 0 .21.008.313.016a6.98 6.98 0 0 1 .786 1.997c-.367.025-.729.029-1.095.025-.386-.004-.76-.029-1.119-.07.15-.782.398-1.424.645-1.935.154-.02.31-.033.47-.033zm-1.339.254a8.546 8.546 0 0 0-.471 1.612c-.443-.078-.85-.175-1.223-.28a3.7 3.7 0 0 1 1.694-1.332zm-2.357 3.442c0-.525.112-1.025.31-1.481.44.131.932.254 1.479.346a8.1 8.1 0 0 0-.05.811c-.004.342.021.694.063 1.051a12.757 12.757 0 0 1-1.788-.467c-.007-.086-.014-.172-.014-.26zm.151 1.044c.514.157 1.102.31 1.765.415.132.673.349 1.359.632 2.053a3.706 3.706 0 0 1-2.397-2.468zm4.436 2.54c.35-.737.62-1.424.795-2.054a8.144 8.144 0 0 0 1.855-.472 3.698 3.698 0 0 1-2.65 2.526z" id="colorImportance"/></svg>