<svg xmlns="http://www.w3.org/2000/svg" viewBox="0 0 16 16"><defs><style>.icon-canvas-transparent,.icon-vs-out{fill:#f6f6f6;}.icon-canvas-transparent{opacity:0;}.icon-vs-bg{fill:#424242;}.icon-vs-action-red{fill:#a1260d;}</style></defs><title>Uninstall_16x</title><g id="canvas"><path class="icon-canvas-transparent" d="M16,0V16H0V0Z"/></g><g id="outline"><path class="icon-vs-out" d="M16,10.121,14.121,12,16,13.879v.535L14.414,16h-.535L12,14.121,10.121,16H9.586l-1-1H0V0H15V8.586l1,1Z"/></g><g id="iconBg"><path class="icon-vs-bg" d="M1,1V14H8V8h6V1ZM7,13H2V8H7ZM7,7H2V2H7Zm6,0H8V2h5Z"/></g><g id="colorAction"><path class="icon-vs-action-red" d="M12.707,12l2.147,2.146-.708.708L12,12.707,9.854,14.854l-.708-.708L11.293,12,9.146,9.854l.708-.708L12,11.293l2.146-2.147.708.708Z"/></g></svg>