<svg xmlns="http://www.w3.org/2000/svg" viewBox="0 0 16 16"><style>.icon-canvas-transparent{opacity:0;fill:#f6f6f6}.icon-vs-bg{fill:#424242}.icon-vs-fg{fill:#f0eff1}.icon-vs-action-blue{fill:#00539c}.st0{fill:#f6f6f6}.st1{fill:#f0eff1}</style><path class="icon-canvas-transparent" d="M0 0h16v16H0z" id="canvas"/><path class="st0" d="M15.25 5.748a2.48 2.48 0 0 0-1.264-.655L14 5 8.75 0H0v16h13v-4l.063-.439 2.193-2.192a2.567 2.567 0 0 0-.006-3.621z" id="outline"/><path class="icon-vs-bg" d="M4 5h2v4H4V5zm7 8.623V14h-.377l-.971.971c-.012.011-.027.018-.039.029H12v-2.377l-1 1zM5.003 15H1V1h7.207L12 4.793v.661c-.133.087-1 .928-1 .928V6H7V2H2v12h3.221s-.218.919-.218 1zM8 5h2.793L8 2.207V5zm-4 7h2v-2H4v2z" id="iconBg"/><g id="iconFg"><path class="icon-vs-fg" d="M11 5H8V2l3 3zm-5.779 9H2V2h5v4h4v.381L6.031 11.35c-.012.012-.02.027-.031.04V10H4v2h1.721l-.5 2zM4 9h2V5H4v4z"/><path class="st1" d="M14.198 7.164a.562.562 0 0 1 0 .793l-5.405 5.404-1.057.264L8 12.569l5.405-5.404c.187-.188.605-.188.793-.001z"/></g><path class="icon-vs-action-blue" d="M14.545 6.456c-.564-.562-1.643-.562-2.207 0l-5.601 5.6L6.001 15l2.943-.736 5.602-5.601a1.564 1.564 0 0 0-.001-2.207zm-6.112 6.906l-1.057.264.264-1.057 4.111-4.11.793.793-4.111 4.11zm5.405-5.405l-.587.587-.793-.793.587-.587c.188-.188.605-.187.793 0a.562.562 0 0 1 0 .793z" id="colorAction"/></svg>