<svg xmlns="http://www.w3.org/2000/svg" viewBox="0 0 16 16"><defs><style>.icon-canvas-transparent,.icon-vs-out{fill:#f6f6f6;}.icon-canvas-transparent{opacity:0;}.icon-vs-bg{fill:#424242;}.icon-vs-action-green{fill:#388a34;}</style></defs><title>AddPhone_16x</title><g id="canvas"><path class="icon-canvas-transparent" d="M16,0V16H0V0Z"/></g><g id="outline"><path class="icon-vs-out" d="M14,2V14a2,2,0,0,1-2,2H5a2,2,0,0,1-2-2V8H2V6H0V2H2V0H12A2,2,0,0,1,14,2Z"/></g><g id="iconBg"><path class="icon-vs-bg" d="M13,2V14a1,1,0,0,1-1,1H5a1,1,0,0,1-1-1V8H5v6h7V2H6V1h6A1,1,0,0,1,13,2ZM8,12v1H9V12Z"/></g><g id="colorAction"><path class="icon-vs-action-green" d="M7,3V5H5V7H3V5H1V3H3V1H5V3Z"/></g></svg>