<svg xmlns="http://www.w3.org/2000/svg" viewBox="0 0 16 16"><style>.icon-canvas-transparent{opacity:0;fill:#f6f6f6}.icon-vs-out{fill:#f6f6f6}.icon-vs-bg{fill:#424242}.icon-vs-action-blue{fill:#00539c}</style><path class="icon-canvas-transparent" d="M16 16H0V0h16v16z" id="canvas"/><path class="icon-vs-out" d="M16 8h-2V4h-4V1H0v3h3.445l-.921.921 1.084 1.084L0 6.007v3h3.608l-1.084 1.084.909.909H0v3h10v-2h6V8z" id="outline"/><path class="icon-vs-bg" d="M9 2H1v1h8V2zm0 5h4V5H9v2zm-8 6h8v-1H1v1zm8-4v2h6V9H9z" id="iconBg"/><path class="icon-vs-action-blue" d="M4.645 10.798l-.707-.707 2.084-2.084H1V7.006h5.022L3.938 4.922l.707-.707 3.354 3.291-3.354 3.292z" id="colorAction"/></svg>