<svg xmlns="http://www.w3.org/2000/svg" viewBox="0 0 16 16"><style>.icon-canvas-transparent{opacity:0;fill:#f6f6f6}.icon-vs-out{fill:#f6f6f6}.icon-folder{fill:#dcb67a}.icon-vs-action-blue{fill:#00539c}</style><path class="icon-canvas-transparent" d="M16 16H0V0h16v16z" id="canvas"/><path class="icon-vs-out" d="M16 4v12H0V4h.16l3.925-4h.84l3.927 4H16z" id="outline"/><path class="icon-vs-action-blue" d="M7.798 4.354l-.707.707-2.084-2.084v5.022H4.006V2.977L1.922 5.061l-.707-.707L4.506 1l3.292 3.354z" id="colorAction"/><path class="icon-folder" d="M8 10.865L6.007 8.872V5.391l1.084 1.084.913-.912L8.566 5h5.3L10 8.865v.007l-1.993 1.993-.003-.003-.004.003zM8.987 12H7.013l-3-3-.001-.001H3.007V7.994L1 5.987V15h14V5.987L8.987 12z" id="colorImportance"/></svg>