<svg xmlns="http://www.w3.org/2000/svg" viewBox="0 0 16 16"><style>.icon-canvas-transparent{opacity:0;fill:#f6f6f6}.icon-vs-out{fill:#f6f6f6}.icon-vs-bg{fill:#424242}.icon-vs-fg{fill:#f0eff1}</style><path class="icon-canvas-transparent" d="M16 16H0V0h16v16z" id="canvas"/><path class="icon-vs-out" d="M16 4v12H0V4h.16l3.925-4h.84l3.927 4H16z" id="outline"/><path class="icon-vs-bg" d="M15 5v10H1V5.553l.921.921L2 6.396V14h12V7l-5 5H7L4 9h2l2 2 5-5H7.566l1-1H15zm-7.202-.646l-.707.707-2.084-2.084v5.022H4.006V2.977L1.922 5.061l-.707-.707L4.506 1l3.292 3.354z" id="iconBg"/><path class="icon-vs-fg" d="M8 11L6.003 8.999h.004V6h.609l.475.475L7.566 6H13l-5 5zm1 1H7L4 9h1.892v-.001H3.007L3.006 6h-.61L2 6.396V14h12V7l-5 5z" id="iconFg"/></svg>