<svg xmlns="http://www.w3.org/2000/svg" viewBox="0 0 16 16"><defs><style>.icon-canvas-transparent,.icon-vs-out{fill:#f6f6f6;}.icon-canvas-transparent{opacity:0;}.icon-vs-bg{fill:#424242;}.icon-vs-green{fill:#393;}</style></defs><title>NestSelectedTreeView_16x</title><path class="icon-canvas-transparent" d="M16,0V16H0V0Z"/><path class="icon-vs-out" d="M16,9v7H9V14H6v-.056L3.944,16H3.116L0,12.884v-.828L2.061,10l1.47,1.47L5,10H4V8H1V5H0V0H5V4h5V9Z"/><path class="icon-vs-bg" d="M7.5,7.5,6,9H5V7H2V4H1V1H4V4H3V6H5V5H9V9ZM10,10v2H8v-.056l-1,1V13h3v2h5V10Z"/><path class="icon-vs-green" d="M8.561,9.97,3.53,15,1,12.47l1.061-1.061,1.47,1.47L7.5,8.909Z"/></svg>