<svg xmlns="http://www.w3.org/2000/svg" viewBox="0 0 16 16"><style>.icon-canvas-transparent{opacity:0;fill:#f6f6f6}.icon-vs-out{fill:#f6f6f6}.icon-vs-bg{fill:#424242}.icon-vs-fg{fill:#f0eff1}.icon-vs-action-blue{fill:#00539c}</style><path class="icon-canvas-transparent" d="M16 16H0V0h16v16z" id="canvas"/><path class="icon-vs-out" d="M16 6v6h-6v-2H8.939l-4.422 4.439L0 9.922v-.503L1.869 7.55 3 8.679V3h3v5.696l1.149-1.145.851.851V4h6v2h2z" id="outline"/><path class="icon-vs-bg" d="M11 9v2h4V7h-2V5H9v4h2zm-1-1V6h2v1h-1v1h-1zm4 2h-2V8h2v2z" id="iconBg"/><path class="icon-vs-fg" d="M12 7h-1v1h-1V6h2v1zm2 1h-2v2h2V8z" id="iconFg"/><path class="icon-vs-action-blue" d="M7.148 8.964l.707.707-3.34 3.352-3.352-3.352.707-.707L4 11.086V4h1v7.104l2.148-2.14z" id="colorAction"/></svg>