<svg xmlns="http://www.w3.org/2000/svg" viewBox="0 0 16 16"><style>.icon-canvas-transparent{opacity:0;fill:#f6f6f6}.icon-vs-out{fill:#f6f6f6}.icon-vs-bg{fill:#424242}</style><path class="icon-canvas-transparent" d="M16 16H0V0h16v16z" id="canvas"/><path class="icon-vs-out" d="M16 11.877L11.896 16h-.831l-4.509-4.538 2.121-2.119L10 10.669V0h3v10.653l1.304-1.318L16 11.055v.822zM4.934 0h-.832L0 4.122v.823l1.695 1.721L3 5.347V16h3V5.332l1.324 1.326 2.118-2.121L4.934 0z" id="outline"/><g id="iconBg"><path class="icon-vs-bg" d="M7.324 5.242L5 2.914V15H4V2.914L1.697 5.242 1 4.535 4.517 1 8.03 4.535l-.706.707zm6.979 5.516L12 13.086V1h-1v12.086l-2.324-2.328-.707.707L11.482 15 15 11.465l-.697-.707z"/></g></svg>