<svg xmlns="http://www.w3.org/2000/svg" viewBox="0 0 16 16"><style>.icon-vs-out{fill:#f6f6f6}.icon-vs-bg{fill:#424242}.icon-vs-fg{fill:#f0eff1}.icon-vs-action-green{fill:#388a34}.icon-canvas-transparent_x0020_{opacity:0;fill:#f6f6f6}</style><path class="icon-canvas-transparent_x0020_" d="M16 16H0V0h16v16z" id="canvas"/><path class="icon-vs-out" d="M10.621 0H3.019l-.03 1.989L1 2.018V6h1v10h13V4.379z" id="outline"/><path class="icon-vs-bg" d="M10.207 1H7v1h2v4h4v8H4V8h-.981L3 15h11V4.793L10.207 1zM10 5V2.207L12.793 5H10zm2 3H7V7h5v1zm0 2H5V9h7v1zm0 2H5v-1h7v1z" id="iconBg"/><g id="iconFg"><path class="icon-vs-fg" d="M7 2h2v.018H7zm3 .207V5h2.793zM9 6H7v1h5v1H4v6h9V6H9zm3 6H5v-1h7v1zm0-2H5V9h7v1z"/><path class="icon-vs-fg" d="M7 2h2v.018H7zm3 .207V5h2.793zM9 6H7v1h5v1H4v6h9V6H9zm3 6H5v-1h7v1zm0-2H5V9h7v1z"/></g><path class="icon-vs-action-green" d="M8 3.018H6V1H4.019v2.018H2V5h2.019v2H6V5h2V3.018z" id="colorAction"/></svg>