<svg xmlns="http://www.w3.org/2000/svg" viewBox="0 0 16 16"><defs><style>.icon-canvas-transparent,.icon-vs-out{fill:#f6f6f6;}.icon-canvas-transparent{opacity:0;}.icon-white{fill:#fff;}.syntax-snappoint-purple{fill:purple;}.icon-vs-yellow{fill:#fc0;}</style></defs><title>ProductionSnapshotPointOffWarning_16x</title><g id="canvas"><path class="icon-canvas-transparent" d="M16,0V16H0V0Z"/></g><g id="outline"><polygon class="icon-vs-out" points="16 7.856 12.041 1 3.959 1 0 7.856 0 8.144 3.959 15 7.48 15 8.004 16 15.002 16 15.973 13.995 14.424 10.873 16 8.144 16 7.856"/></g><g id="iconFg"><path class="icon-white" d="M13.773,8l-.416.721-.846-1.7H10.493L7.485,13H5.113L2.227,8,5.113,3h5.774Z"/></g><g id="iconBg"><path class="syntax-snappoint-purple" d="M14.928,8,13.89,9.8l-.533-1.076L13.773,8,10.887,3H5.113L2.227,8l2.886,5H7.485l-.5,1H4.535L1.072,8,4.535,2h6.93Z"/></g><g id="notificationBg"><path class="icon-vs-yellow" d="M11.891,8.016h-.782l-3.015,6L8.609,15h5.766l.484-1ZM12,14H11V13h1Zm0-2H11V10h1Z"/></g><g id="notificationFg"><path d="M11,13h1v1H11Zm0-3v2h1V10Z"/></g></svg>