<svg xmlns="http://www.w3.org/2000/svg" viewBox="0 0 16 16"><defs><style>.icon-canvas-transparent,.icon-vs-out{fill:#f6f6f6;}.icon-canvas-transparent{opacity:0;}.icon-vs-bg{fill:#424242;}</style></defs><title>PolicyFile_16x</title><g id="canvas"><path class="icon-canvas-transparent" d="M16,16H0V0H16Z"/></g><g id="outline"><path class="icon-vs-out" d="M11.621,0H3V4.142A3.989,3.989,0,0,0,1.737,11.3L.941,16H16V4.379Z"/></g><g id="iconBg"><path class="icon-vs-bg" d="M11.207,1H4V4a3.939,3.939,0,0,1,1,.142V2h5V6h4v8H6.821l.2,1H15V4.793ZM11,5V2.207L13.793,5ZM7,8a3,3,0,1,0-4.158,2.767L2.125,15H2.5L4,13l1.625,2H6l-.842-4.233A3,3,0,0,0,7,8ZM4,9.5A1.5,1.5,0,1,1,5.5,8,1.5,1.5,0,0,1,4,9.5Z"/></g></svg>