<svg xmlns="http://www.w3.org/2000/svg" viewBox="0 0 16 16"><defs><style>.icon-canvas-transparent,.icon-vs-out{fill:#f6f6f6;}.icon-canvas-transparent{opacity:0;}.icon-vs-bg{fill:#424242;}.icon-vs-action-green{fill:#388a34;}</style></defs><title>ConnectEnvironment_16x</title><g id="canvas"><path class="icon-canvas-transparent" d="M16,16H0V0H16Z"/></g><g id="outline"><path class="icon-vs-out" d="M16,14.35V16H1V14.352l1-5V8.662A3.516,3.516,0,0,1,0,5.5V2H1V0H6V.051A2.5,2.5,0,0,1,6.5,0h4A2.5,2.5,0,0,1,13,2.5V8h1.729Z"/></g><g id="iconBg"><path class="icon-vs-bg" d="M7,8h3V9H7Zm0,3h3V10H7Zm3-8H7V4h3Zm3.91,6H12V2.5A1.5,1.5,0,0,0,10.5,1h-4a1.483,1.483,0,0,0-.5.092V2h4.5a.5.5,0,0,1,.5.5V12H6V7.933a3.5,3.5,0,0,1-1,.729V13h7V10h1.09l.8,4H3.11l.6-3H2.69l-.8,4H15.11Z"/><path class="icon-vs-action-green" d="M5,3V1H4V3H3V1H2V3H1V5.5A2.5,2.5,0,0,0,3,7.949V10H4V7.949A2.5,2.5,0,0,0,6,5.5V3ZM5,5.5a1.5,1.5,0,0,1-3,0V4H5Z"/></g></svg>