<svg xmlns="http://www.w3.org/2000/svg" viewBox="0 0 16 16"><defs><style>.icon-canvas-transparent,.icon-vs-out{fill:#f6f6f6;}.icon-canvas-transparent{opacity:0;}.icon-vs-yellow{fill:#fc0;}.icon-disabled-grey{fill:#848484;}.icon-vs-red{fill:#e51400;}.icon-white{fill:#fff;}</style></defs><title>LightbulbError_16x</title><g id="canvas"><path class="icon-canvas-transparent" d="M16,0V16H0V0Z"/></g><g id="outline"><path class="icon-vs-out" d="M16,11.5a4.5,4.5,0,0,1-6.236,4.15l-.35.35H6.586L5,14.414V12a1.471,1.471,0,0,0-.572-1.185A6,6,0,0,1,6.717.134,6.283,6.283,0,0,1,8,0a5.982,5.982,0,0,1,5.767,7.635A4.487,4.487,0,0,1,16,11.5Z"/></g><g id="iconBg"><path class="icon-vs-yellow" d="M9.5,6A1.5,1.5,0,1,1,8,4.5,1.5,1.5,0,0,1,9.5,6ZM6.922,1.113a5,5,0,0,0-1.9,8.9A2.466,2.466,0,0,1,6,12H7.051A4.342,4.342,0,0,1,7,11.5a4.443,4.443,0,0,1,.5-2.018V8.449a2.5,2.5,0,1,1,2.679-1.228A4.412,4.412,0,0,1,11.5,7a4.437,4.437,0,0,1,1.345.228A5,5,0,0,0,6.922,1.113Z"/><path class="icon-disabled-grey" d="M7.276,13H6V12H7.051A4.485,4.485,0,0,0,7.276,13Zm.486,1H6l1,1H8.706A4.5,4.5,0,0,1,7.762,14Z"/></g><g id="notificationBg"><path class="icon-vs-red" d="M11.5,8A3.5,3.5,0,1,0,15,11.5,3.5,3.5,0,0,0,11.5,8Zm1.854,4.646-.708.708L11.5,12.207l-1.146,1.147-.708-.708L10.793,11.5,9.646,10.354l.708-.708L11.5,10.793l1.146-1.147.708.708L12.207,11.5Z"/></g><g id="notificationFg"><path class="icon-white" d="M12.207,11.5l1.147,1.146-.708.708L11.5,12.207l-1.146,1.147-.708-.708L10.793,11.5,9.646,10.354l.708-.708L11.5,10.793l1.146-1.147.708.708Z"/></g></svg>