<svg xmlns="http://www.w3.org/2000/svg" viewBox="0 0 16 16"><defs><style>.icon-canvas-transparent,.icon-vs-out{fill:#f6f6f6;}.icon-canvas-transparent{opacity:0;}.icon-white{fill:#fff;}.syntax-snappoint-purple{fill:purple;}.icon-vs-yellow{fill:#fc0;}</style></defs><title>ProductionTracePointOffWarning_16x</title><g id="canvas"><path class="icon-canvas-transparent" d="M16,0V16H0V0Z"/></g><g id="outline"><polygon class="icon-vs-out" points="16 7.629 8.371 0 7.629 0 0 7.629 0 8.371 7.629 16 8.004 16 8.371 16 15.002 16 15.973 13.995 14.117 10.254 16 8.371 16 7.629"/></g><g id="iconFg"><polygon class="icon-white" points="10.493 7.016 12.511 7.016 13.179 8.364 13.543 8 8 2.457 2.457 8 7.476 13.019 10.493 7.016"/></g><g id="iconBg"><polygon class="syntax-snappoint-purple" points="7.476 13.019 2.457 8 8 2.457 13.543 8 13.179 8.364 13.648 9.309 14.957 8 8 1.043 1.043 8 7.003 13.96 7.476 13.019"/></g><g id="notificationBg"><path class="icon-vs-yellow" d="M11.891,8.016h-.782l-3.015,6L8.609,15h5.766l.484-1ZM12,14H11V13h1Zm0-2H11V10h1Z"/></g><g id="notificationFg"><path d="M11,13h1v1H11Zm0-3v2h1V10Z"/></g></svg>