<svg xmlns="http://www.w3.org/2000/svg" viewBox="0 0 16 16"><defs><style>.icon-canvas-transparent,.icon-vs-out{fill:#f6f6f6;}.icon-canvas-transparent{opacity:0;}.icon-vs-bg{fill:#424242;}</style></defs><title>Target_16x</title><g id="canvas"><path class="icon-canvas-transparent" d="M16,0V16H0V0Z"/></g><g id="outline"><path class="icon-vs-out" d="M16,6.5v3H14.83A6.93,6.93,0,0,1,9.5,14.83V16h-3V14.83A7,7,0,0,1,1.17,9.5H0v-3H1.17A7,7,0,0,1,6.5,1.17V0h3V1.17A7,7,0,0,1,14.83,6.5Z"/></g><g id="iconBg"><path class="icon-vs-bg" d="M10,8A2,2,0,1,1,8,6,2,2,0,0,1,10,8Zm5-.5v1H14A6,6,0,0,1,8.5,14v1h-1V14A6,6,0,0,1,2,8.5H1v-1H2A6,6,0,0,1,7.5,2V1h1V2A6,6,0,0,1,14,7.5Zm-3,1v-1H13A5,5,0,0,0,8.5,3.05V4h-1v-1A5,5,0,0,0,3.05,7.5H4v1h-1A5,5,0,0,0,7.5,13V12h1V13A5,5,0,0,0,13,8.5Z"/></g></svg>