<svg xmlns="http://www.w3.org/2000/svg" viewBox="0 0 16 16"><style>.icon-canvas-transparent{opacity:0;fill:#f6f6f6}.icon-vs-out{fill:#f6f6f6}.icon-vs-bg{fill:#424242}.icon-vs-fg{fill:#f0eff1}.icon-vs-action-blue{fill:#00539c}</style><path class="icon-canvas-transparent" d="M0 0h16v16H0z" id="canvas"/><path class="icon-vs-out" d="M11.621 0H3v9.315l-.476.476.476.476V11H0v3h3v.608l-.476.476.476.476V16h13V4.379z" id="outline"/><path class="icon-vs-bg" d="M11.207 1H4v7.315l.645-.645.355.355V2h5v4h4v8H7.85l-1 1H15V4.793L11.207 1zM11 5V2.207L13.793 5H11z" id="iconBg"/><path class="icon-vs-fg" d="M14 6v8H7.85l1.563-1.563L5 8.025V2h5v4h4zm-3-4v3h3l-3-3z" id="iconFg"/><path class="icon-vs-action-blue" d="M4.645 9.084l-.707.707L6.147 12H1v1h5.022l-2.084 2.084.707.707 3.354-3.353z" id="colorAction"/></svg>