<svg xmlns="http://www.w3.org/2000/svg" viewBox="0 0 16 16"><style>.icon-canvas-transparent{opacity:0;fill:#f6f6f6}.icon-vs-out{fill:#f6f6f6}.icon-vs-bg{fill:#424242}.icon-vs-fg{fill:#f0eff1}.icon-vs-action-blue{fill:#00539c}</style><path class="icon-canvas-transparent" d="M16 16H0V0h16v16z" id="canvas"/><path class="icon-vs-out" d="M16 13H1V2h15v11z" id="outline"/><path class="icon-vs-fg" d="M14 4H3v7h11V4zM9 7v3H8V8.01H5.919l1.3 1.308-.707.707L4 7.525 6.525 5l.707.707L5.937 7.01H8V5h1v2zm1.568 3.025l-.707-.707 1.296-1.303h-2.11v-1h2.127l-1.3-1.308.708-.707 2.512 2.5-2.526 2.525z" id="iconFg"/><path class="icon-vs-bg" d="M2 7h1v1H2V7zm4 5h1v-1H6v1zm2 0h1v-1H8v1zm-4 0h1v-1H4v1zm7-9h-1v1h1V3zM9 3H8v1h1V3zm-7 7h1V9H2v1zm0 2h1v-1H2v1zm0-6h1V5H2v1zm12 2h1V7h-1v1zm0 2h1V9h-1v1zm0-4h1V5h-1v1zm0-3v1h1V3h-1zm-4 9h1v-1h-1v1zm2 0h1v-1h-1v1zm0-8h1V3h-1v1zM5 3H4v1h1V3zM2 4h1V3H2v1zm5-1H6v1h1V3zm7 9h1v-1h-1v1zM9 5H8v5h1V5z" id="iconBg"/><path class="icon-vs-action-blue" d="M8.047 8.01H5.919l1.3 1.308-.707.707L4 7.525 6.525 5l.707.707L5.937 7.01h2.11v1zm1-.995h2.127l-1.3-1.308.708-.707 2.512 2.5-2.525 2.525-.708-.707 1.296-1.303h-2.11v-1z" id="colorAction"/></svg>