<svg xmlns="http://www.w3.org/2000/svg" viewBox="0 0 16 16"><style>.icon-canvas-transparent{opacity:0;fill:#f6f6f6}.icon-vs-out{fill:#f6f6f6}.icon-vs-bg{fill:#424242}.icon-vs-fg{fill:#f0eff1}</style><path class="icon-canvas-transparent" d="M16 16H0V0h16v16z" id="canvas"/><path class="icon-vs-out" d="M16 6.379l-3-3V0H3v3.379l-3 3v.242L3.379 10h.535L5 8.914V10h4v6h7V9h-2.379L16 6.621v-.242z" id="outline"/><path class="icon-vs-bg" d="M7 7.5V2H5.5a.5.5 0 0 0-.5.5V3H4V1h8v2h-1v-.5c0-.277-.224-.5-.5-.5H9v5.5c0 .275.224.5.5.5h.5v1H6V8h.5a.5.5 0 0 0 .5-.5zm6.293-1l-1.647 1.646.707.707L14.707 6.5l-2.353-2.354-.707.707L13.293 6.5zM3.646 4.146L1.293 6.5l2.354 2.354.707-.707L2.707 6.5l1.646-1.646-.707-.708zM15 10v5h-5v-5h5zm-1 1.009h-2.88v1l1.15.005-1.287 1.287.707.707 1.299-1.299.005 1.158H14v-2.858z" id="iconBg"/><path class="icon-vs-fg" d="M14 13.867h-1.005l-.005-1.158-1.299 1.299-.707-.707 1.287-1.287-1.15-.005v-1h2.88v2.858z" id="iconFg"/></svg>