<svg xmlns="http://www.w3.org/2000/svg" viewBox="0 0 16 16"><defs><style>.icon-canvas-transparent,.icon-vs-out{fill:#f6f6f6;}.icon-canvas-transparent{opacity:0;}.icon-vs-bg{fill:#424242;}.icon-vs-action-blue{fill:#00539c;}</style></defs><title>FTPConnection_16x</title><g id="canvas"><path class="icon-canvas-transparent" d="M16,0V16H0V0Z"/></g><g id="outline"><path class="icon-vs-out" d="M12.458,12H13v1h2v3H5v-.836L2.982,13.146,3.129,13H0V10H.629L0,9.371V7.629l2.9-2.9.936.936A6.246,6.246,0,0,1,16,4.351v3.8A6.249,6.249,0,0,1,12.458,12Z"/></g><g id="iconBg"><path class="icon-vs-bg" d="M15.3,6.254c0-.06-.008-.118-.009-.177A5.247,5.247,0,0,0,4.8,6.254c0,.154.009.3.022.453.009.1.024.2.039.294H7.391a15.683,15.683,0,0,1-1.635-.443c-.008-.1-.016-.2-.016-.3A4.3,4.3,0,0,1,6.1,4.528a15.056,15.056,0,0,0,1.725.4c-.032.3-.055.615-.057.943A9.373,9.373,0,0,0,7.837,7H8V8.052a13.088,13.088,0,0,0,.712,2.3A4.174,4.174,0,0,1,7.933,10H7.422l1.321,1.308c.087.022.169.054.257.073V13H8v1H6v1H9v1h2V15h3V14H12V13H11V11.4A5.237,5.237,0,0,0,15.3,6.254Zm-4.212,4.182a15.126,15.126,0,0,0,.928-2.4,9.556,9.556,0,0,0,2.165-.551A4.321,4.321,0,0,1,11.091,10.436Zm2.926-5.881a4.314,4.314,0,0,1,.348,1.7c0,.1-.008.188-.013.281a8.909,8.909,0,0,1-2.136.647,6.9,6.9,0,0,0,.12-1.307,8.341,8.341,0,0,0-.057-.867A9.482,9.482,0,0,0,14.017,4.555Zm-.4-.73a8.422,8.422,0,0,1-1.463.371,8.757,8.757,0,0,0-.688-2.012A4.3,4.3,0,0,1,13.614,3.825ZM9.5,1.981a4.312,4.312,0,0,1,.549-.039c.124,0,.245.008.366.019a8.137,8.137,0,0,1,.915,2.33c-.428.029-.85.033-1.277.029a12.685,12.685,0,0,1-1.3-.083A9.135,9.135,0,0,1,9.5,1.981ZM7.941,4.12a14.484,14.484,0,0,1-1.426-.327A4.322,4.322,0,0,1,8.49,2.239,9.908,9.908,0,0,0,7.941,4.12Zm.738,3.108a9.118,9.118,0,0,1-.093-1.345c0-.289.023-.566.051-.836a13.831,13.831,0,0,0,1.412.09c.1,0,.2,0,.3,0,.366,0,.737-.012,1.116-.04.028.254.049.513.052.784a6.514,6.514,0,0,1-.157,1.4c-.438.031-.868.037-1.3.034A13.193,13.193,0,0,1,8.679,7.228Zm1.448,3.335c-.025,0-.049,0-.074,0-.127,0-.254-.007-.378-.019a12.9,12.9,0,0,1-.846-2.48c.393.039.8.065,1.22.069.1,0,.2,0,.3,0,.26,0,.524-.008.79-.021A16.1,16.1,0,0,1,10.127,10.563Z"/></g><g id="colorAction"><path class="icon-vs-action-blue" d="M5.1,9.146,4.4,9.854,5.543,11H1v1H5.543L4.4,13.146l.708.708L7.457,11.5Zm-1.5,1L2.457,9H7V8H2.457L3.6,6.854,2.9,6.146.543,8.5,2.9,10.854Z"/></g></svg>