<svg xmlns="http://www.w3.org/2000/svg" viewBox="0 0 16 16"><title>ReferenceFolder_16x</title><path d="M0,0H16V16H0Z" fill="#f6f6f6" opacity="0"/><path d="M15,4.5v8A1.5,1.5,0,0,1,13.5,14H13v2H7V14H5v1H0V2.5A1.5,1.5,0,0,1,1.5,1H9.61l1,2H13.5A1.5,1.5,0,0,1,15,4.5Z" fill="#f6f6f6"/><path d="M2,3H8.374l.5,1H2Z" fill="#f0eff1"/><path d="M13.5,4h-3.5l-1-2H1.5a.5.5,0,0,0-.5.5V10H5v1H7V9h6v4h.5a.5.5,0,0,0,.5-.5v-8A.5.5,0,0,0,13.5,4ZM2,4V3H8.374l.5,1Z" fill="#dcb67a"/><path d="M1,11H4v3H1Zm7,4h4V10H8ZM5,13H7V12H5Z" fill="#424242"/></svg>