<svg xmlns="http://www.w3.org/2000/svg" viewBox="0 0 16 16"><style>.icon-vs-out{fill:#f6f6f6}.icon-vs-bg{fill:#424242}.icon-vs-fg{fill:#f0eff1}.icon-vs-action-green{fill:#388a34}.icon-canvas-transparent_x0020_{opacity:0;fill:#f6f6f6}</style><path class="icon-canvas-transparent_x0020_" d="M16 16H0V0h16v16z" id="canvas"/><path class="icon-vs-out" d="M10.621 0H2.988v2.018H1V6h1v10h13V4.379z" id="outline"/><path class="icon-vs-bg" d="M10.207 1H7v1h2v4h4v8H4V8h-.981L3 15h11V4.793L10.207 1zM10 5V2.207L12.793 5H10zM8 7H7V6h1v1zm0 2H7V8h1v1zm0 2H7v-1h1v1zm-2 0H5v-1h1v1zm5 0v-1h1v1h-1zm-2 0v-1h1v1H9zm-1 2H7v-1h1v1z" id="iconBg"/><g id="iconFg"><path class="icon-vs-fg" d="M10 2.207V5h2.793zM9 6H8v1H7v1h1v1H7V8H4v6h9V6H9zm-3 5H5v-1h1v1zm2 2H7v-1h1v1zm0-2H7v-1h1v1zm2 0H9v-1h1v1zm2 0h-1v-1h1v1z"/><path class="icon-vs-fg" d="M10 2.207V5h2.793zM9 6H8v1H7v1h1v1H7V8H4v6h9V6H9zm-3 5H5v-1h1v1zm2 2H7v-1h1v1zm0-2H7v-1h1v1zm2 0H9v-1h1v1zm2 0h-1v-1h1v1z"/></g><path class="icon-vs-action-green" d="M8 3.018H6V1H4.019v2.018H2V5h2.019v2H6V5h2V3.018z" id="colorAction"/></svg>