<svg xmlns="http://www.w3.org/2000/svg" viewBox="0 0 16 16"><style>.icon-canvas-transparent{opacity:0;fill:#f6f6f6}.icon-vs-out{fill:#f6f6f6}.icon-vs-fg{fill:#f0eff1}.icon-bg{fill:#424242}.st0{fill:#388a34}</style><path class="icon-canvas-transparent" d="M16 16H0V0h16v16z" id="canvas"/><path class="icon-vs-out" d="M11.964 0H3v1.586L1.414 0H0v9.494l3-3.051V7.84a5.074 5.074 0 0 0-1.104 3.152c0 1.191.418 2.283 1.104 3.153V16h5v.001L8.005 16H16V4.052L11.964 0z" id="outline"/><g id="iconBg"><path class="icon-bg" d="M4 5.426l1-1.017v1.898c-.358.155-.69.352-1 .58V5.426z"/><path class="icon-bg" d="M15 4.626V15h-4.827a7.953 7.953 0 0 0 1.115-1H14V6h-4V2H5v1.586l-1-1V1h7.405L15 4.626z"/><path class="icon-bg" d="M13.793 5L11 2.207V5zM7.109 15.098c-.022 0-.043.006-.066.006V15.1c-.012 0-.025.004-.038.004a4.11 4.11 0 0 1 0-8.218V5.241L9.47 7.296 7.005 9.35V7.707a3.288 3.288 0 0 0 0 6.574c.155 0 .31-.014.464-.037h.005c.143-.023.287-.055.428-.096.054-.017.105-.039.157-.057.087-.031.173-.061.258-.1.06-.025.117-.057.175-.088.105-.055.21-.109.311-.176a3.209 3.209 0 0 0 1.002-1.092h1.308c0 .002-1.642 2.463-4.004 2.463z"/></g><path class="st0" d="M1 1l3 3-3 3.051z" id="colorImportance"/><g id="iconFg"><path class="icon-vs-fg" d="M11 2.045V5h2.956z"/><path class="icon-vs-fg" d="M10 6V2H5v1.586l.408.408L5 4.409v1.898a5.128 5.128 0 0 1 1.005-.324V3.105l5.028 4.191-5.028 4.187V8.938A2.285 2.285 0 0 0 5 9.933v2.135a2.278 2.278 0 0 0 2.005 1.213 2.2 2.2 0 0 0 .313-.025l.041-.007c.088-.016.177-.036.265-.062l.111-.042c.073-.025.12-.041.165-.062l.109-.056c.096-.05.172-.088.245-.136.271-.182.503-.436.682-.751l.288-.505h3.759l-1.038 1.555a7.43 7.43 0 0 1-.657.809H14V6h-4z"/><path class="icon-vs-fg" d="M11 2.045V5h2.956z"/><path class="icon-vs-fg" d="M10 6V2H5v1.586l.408.408L5 4.409v1.898a5.128 5.128 0 0 1 1.005-.324V3.105l5.028 4.191-5.028 4.187V8.938A2.285 2.285 0 0 0 5 9.933v2.135a2.278 2.278 0 0 0 2.005 1.213 2.2 2.2 0 0 0 .313-.025l.041-.007c.088-.016.177-.036.265-.062l.111-.042c.073-.025.12-.041.165-.062l.109-.056c.096-.05.172-.088.245-.136.271-.182.503-.436.682-.751l.288-.505h3.759l-1.038 1.555a7.43 7.43 0 0 1-.657.809H14V6h-4z"/></g></svg>