<svg xmlns="http://www.w3.org/2000/svg" viewBox="0 0 16 16"><style>.icon-canvas-transparent{opacity:0;fill:#f6f6f6}.icon-vs-bg{fill:#424242}.icon-vs-red{fill:#e51400}.icon-white,.st0{fill:#fff}.st1{fill:#f0eff1}</style><path class="icon-canvas-transparent" d="M16 16H0V0h16v16z" id="canvas"/><path class="st0" d="M11.621 0H3v2H0v8h3v6h13V4.379z" id="outline"/><g id="iconBg"><path class="icon-vs-bg" d="M3.518 4.648c-.395 0-.592.461-.592 1.383 0 .869.193 1.305.58 1.305.377 0 .565-.449.565-1.344 0-.896-.184-1.344-.553-1.344zM9 2h1v4h4v1.76c.384.257.712.584 1 .944v-3.91L11.207 1H4v1h5zm2 .207L13.793 5H11V2.207zM14.297 15H15v-.703c-.208.26-.443.495-.703.703zM7.76 14H5v-4H4v5h4.703a4.5 4.5 0 0 1-.943-1z"/><path class="icon-vs-bg" d="M8 8.703V3H1v6h6.76c.071-.106.16-.197.24-.297zM4.605 7.465c-.261.348-.638.521-1.128.521C2.492 7.986 2 7.34 2 6.053c0-.668.133-1.177.399-1.527.267-.35.653-.526 1.159-.526C4.52 4 5 4.654 5 5.965c0 .652-.131 1.152-.395 1.5zM6.153 8V4.999a.89.89 0 0 1-.165.116c-.064.037-.131.07-.203.102-.038.015-.079.026-.119.039v-.772c.097-.04.2-.069.291-.117.195-.1.372-.211.529-.332H7V8h-.847z"/></g><g id="iconFg"><path class="st1" d="M11 2.207V5h2.793zM7 11.5c0-.529.108-1.029.276-1.5H5v4h2.76A4.478 4.478 0 0 1 7 11.5z"/><path class="st1" d="M11.5 7c.925 0 1.785.281 2.5.76V6h-4V2H9v5.76A4.478 4.478 0 0 1 11.5 7z"/></g><path class="icon-vs-red" d="M11.5 8a3.5 3.5 0 1 0 0 7 3.5 3.5 0 0 0 0-7zm1.854 4.646l-.707.707-1.147-1.146-1.146 1.147-.707-.707 1.147-1.146-1.147-1.146.707-.707 1.146 1.147 1.146-1.147.707.707-1.146 1.145 1.147 1.146z" id="notificationBg"/><path class="icon-white" d="M13.354 10.354l-.708-.708-1.146 1.147-1.146-1.147-.708.708 1.147 1.146-1.147 1.146.708.708 1.146-1.147 1.146 1.147.708-.708-1.147-1.146z" id="notificationFg"/></svg>