<svg xmlns="http://www.w3.org/2000/svg" viewBox="0 0 16 16"><defs><style>.icon-canvas-transparent,.icon-vs-out{fill:#f6f6f6;}.icon-canvas-transparent{opacity:0;}.icon-vs-bg{fill:#424242;}.icon-vs-action-green{fill:#388a34;}</style></defs><title>AddGroup_16x</title><g id="canvas"><path class="icon-canvas-transparent" d="M16,0V16H0V0Z"/></g><g id="outline"><path class="icon-vs-out" d="M14,9v2h2v3H14v2H11V14H9V11.971L8.709,11.8a1.593,1.593,0,0,0-1.334-.049,1.633,1.633,0,0,0-.521.351,1.61,1.61,0,0,0-.354.526,1.551,1.551,0,0,0-.125.625v1H3.5v-1A4.463,4.463,0,0,1,3.677,12a4.477,4.477,0,0,1,1.27-2.05c-.065-.1-.125-.206-.18-.313A3.677,3.677,0,0,1,4.531,9H0V8a3.588,3.588,0,0,1,.132-.965A3.733,3.733,0,0,1,.5,6.161a3.63,3.63,0,0,1,.547-.709,2.739,2.739,0,0,1,.046-2.026A2.765,2.765,0,0,1,2.551,1.968a2.756,2.756,0,0,1,2.151,0A2.767,2.767,0,0,1,6.157,3.426,2.765,2.765,0,0,1,6.362,4.77,3.586,3.586,0,0,1,8.9,4.489a3.777,3.777,0,0,1,.744.283c-.009-.09-.014-.181-.014-.272a2.7,2.7,0,0,1,.218-1.074A2.765,2.765,0,0,1,11.3,1.968a2.756,2.756,0,0,1,2.151,0,2.767,2.767,0,0,1,1.455,1.457,2.739,2.739,0,0,1,.046,2.026,3.554,3.554,0,0,1,.542.7,3.686,3.686,0,0,1,.372.88A3.589,3.589,0,0,1,16,8V9Z"/></g><g id="iconBg"><path class="icon-vs-bg" d="M14.9,7.3a2.7,2.7,0,0,0-.269-.639A2.593,2.593,0,0,0,13.64,5.7,1.688,1.688,0,0,0,14,5.149a1.739,1.739,0,0,0-.01-1.329,1.766,1.766,0,0,0-.376-.557,1.739,1.739,0,0,0-.557-.376,1.756,1.756,0,0,0-1.36,0,1.739,1.739,0,0,0-.557.376,1.766,1.766,0,0,0-.376.557A1.744,1.744,0,0,0,11.11,5.7a2.458,2.458,0,0,0-.516.376,2.942,2.942,0,0,0-.406.479,2.791,2.791,0,0,0-.424-.493,2.673,2.673,0,0,0-1.121-.608A2.525,2.525,0,0,0,8,5.375a2.6,2.6,0,0,0-1.244.318,2.656,2.656,0,0,0-.52.372,2.745,2.745,0,0,0-.423.493,3,3,0,0,0-.407-.479A2.458,2.458,0,0,0,4.89,5.7a1.688,1.688,0,0,0,.358-.554,1.739,1.739,0,0,0-.01-1.329,1.766,1.766,0,0,0-.376-.557,1.739,1.739,0,0,0-.557-.376,1.756,1.756,0,0,0-1.36,0,1.739,1.739,0,0,0-.557.376,1.766,1.766,0,0,0-.376.557A1.744,1.744,0,0,0,2.36,5.7a2.593,2.593,0,0,0-.995.961A2.7,2.7,0,0,0,1.1,7.3,2.565,2.565,0,0,0,1,8h.875a1.7,1.7,0,0,1,.137-.68,1.766,1.766,0,0,1,.376-.557,1.739,1.739,0,0,1,.557-.376,1.756,1.756,0,0,1,1.36,0,1.739,1.739,0,0,1,.557.376,1.766,1.766,0,0,1,.376.557A1.7,1.7,0,0,1,5.375,8a2.594,2.594,0,0,0,.283,1.186,2.558,2.558,0,0,0,.8.926,3.7,3.7,0,0,0-.807.554,3.469,3.469,0,0,0-1.011,1.617,3.44,3.44,0,0,0-.137.967h.875a2.563,2.563,0,0,1,.205-1.019,2.662,2.662,0,0,1,1.4-1.4A2.541,2.541,0,0,1,8,10.625a2.576,2.576,0,0,1,1.07.229A2.489,2.489,0,0,1,9.321,11h1.344a3.464,3.464,0,0,0-.279-.3,3.589,3.589,0,0,0-.841-.585,2.558,2.558,0,0,0,.8-.926A2.594,2.594,0,0,0,10.625,8a1.7,1.7,0,0,1,.137-.68,1.766,1.766,0,0,1,.376-.557,1.739,1.739,0,0,1,.557-.376,1.756,1.756,0,0,1,1.36,0,1.739,1.739,0,0,1,.557.376,1.766,1.766,0,0,1,.376.557,1.7,1.7,0,0,1,.137.68H15A2.565,2.565,0,0,0,14.9,7.3ZM4.432,4.842a.911.911,0,0,1-.188.277.924.924,0,0,1-.277.188.894.894,0,0,1-.684,0,.924.924,0,0,1-.277-.188.911.911,0,0,1-.188-.277.894.894,0,0,1,0-.684.911.911,0,0,1,.188-.277.924.924,0,0,1,.277-.188.894.894,0,0,1,.684,0,.924.924,0,0,1,.277.188.911.911,0,0,1,.188.277.894.894,0,0,1,0,.684ZM9.613,8.68a1.764,1.764,0,0,1-.933.933,1.756,1.756,0,0,1-1.36,0,1.764,1.764,0,0,1-.933-.933,1.756,1.756,0,0,1,0-1.36,1.766,1.766,0,0,1,.376-.557,1.739,1.739,0,0,1,.557-.376,1.756,1.756,0,0,1,1.36,0,1.739,1.739,0,0,1,.557.376,1.766,1.766,0,0,1,.376.557,1.756,1.756,0,0,1,0,1.36Zm3.569-3.838a.911.911,0,0,1-.188.277.924.924,0,0,1-.277.188.894.894,0,0,1-.684,0,.924.924,0,0,1-.277-.188.911.911,0,0,1-.188-.277.894.894,0,0,1,0-.684.911.911,0,0,1,.188-.277.924.924,0,0,1,.277-.188.894.894,0,0,1,.684,0,.924.924,0,0,1,.277.188.911.911,0,0,1,.188.277.894.894,0,0,1,0,.684Z"/></g><g id="colorAction"><path class="icon-vs-action-green" d="M15,12v1H13v2H12V13H10V12h2V10h1v2Z"/></g></svg>