<svg xmlns="http://www.w3.org/2000/svg" viewBox="0 0 16 16"><defs><style>.icon-canvas-transparent,.icon-vs-out{fill:#f6f6f6;}.icon-canvas-transparent{opacity:0;}.icon-vs-action-blue{fill:#00539c;}</style></defs><title>AutosizeOptimize_16x</title><g id="canvas"><path class="icon-canvas-transparent" d="M16,0V16H0V0Z"/></g><g id="outline"><path class="icon-vs-out" d="M10.857,12.991,8.208,10.343,10.33,8.222l2.661,2.661,0-1.62h3L16,14.956v1.035H9.263v-3Zm-.5-5.2L13,5.142l0,1.6h3V0H14.965L9.271.011V3.006l1.621,0L8.23,5.67ZM1.035,16l5.694-.011v-3l-1.62,0L7.77,10.33,5.649,8.208,3,10.857,3,9.263H0V16ZM3.006,6.738l0-1.62L5.67,7.778l2.121-2.12L5.142,3.009l1.6,0v-3H0V1.044L.011,6.738Z"/></g><g id="colorAction"><path class="icon-vs-action-blue" d="M15,1V5.738H14L14,2.733,10.351,6.377,9.644,5.67,13.3,2.014l-3.03-.006v-1ZM1,1.009H5.738v1l-3.005.006L6.377,5.658l-.707.706L2.014,2.708l-.006,3.03h-1ZM1,15V10.262H2l.006,3L5.649,9.623l.707.707L2.7,13.986l3.03.006v1Zm14-.009H10.262v-1l3-.006L9.623,10.342l.707-.706,3.656,3.656.006-3.03h1Z"/></g></svg>