<svg xmlns="http://www.w3.org/2000/svg" viewBox="0 0 16 16"><style>.icon-canvas-transparent{opacity:0;fill:#f6f6f6}.icon-vs-out{fill:#f6f6f6}.icon-white{fill:#fff}.icon-disabled-grey{fill:#848484}</style><path class="icon-canvas-transparent" d="M16 0v16H0V0h16z" id="canvas"/><path class="icon-vs-out" d="M16.083 8l-4.042 7H3.959L-.083 8l4.042-7h8.082l4.042 7z" id="outline"/><path class="icon-disabled-grey" d="M11.465 2h-6.93L1.072 8l3.463 6h6.93l3.463-6-3.463-6zM2.227 8l2.887-5h2.163l-3.892 7.006L2.227 8zm2.886 5l-.708-1.227L9.279 3h1.608l.708 1.227L6.721 13H5.113zm5.774 0H8.723l3.892-7.006L13.773 8l-2.886 5z" id="iconBg"/><path class="icon-white" d="M13.773 8l-2.887 5H8.723l3.892-7.006L13.773 8zm-8.66-5L2.227 8l1.158 2.006L7.277 3H5.113zm5.774 0H9.279l-4.874 8.773L5.113 13h1.608l4.874-8.773L10.887 3z" id="iconFg"/></svg>