<svg xmlns="http://www.w3.org/2000/svg" viewBox="0 0 16 16"><defs><style>.icon-canvas-transparent,.icon-vs-out{fill:#f6f6f6;}.icon-canvas-transparent{opacity:0;}.icon-vs-bg{fill:#424242;}</style></defs><title>AddFriend_16x</title><g id="canvas"><path class="icon-canvas-transparent" d="M16,0V16H0V0Z"/></g><g id="outline"><path class="icon-vs-out" d="M16,11v3H14v2H11V14H0V12.422a6.466,6.466,0,0,1,2.851-5.3,4.5,4.5,0,1,1,7.3.006A6.528,6.528,0,0,1,11.956,9H14v2Z"/></g><g id="iconBg"><path class="icon-vs-bg" d="M15,12v1H13v2H12V13H10V12h2V10h1v2Zm-4.79-2A4.479,4.479,0,0,0,2,12.445l-1-.011A5.506,5.506,0,0,1,4.514,7.376a3.5,3.5,0,1,1,3.97,0A5.512,5.512,0,0,1,11.379,10ZM9,4.5A2.5,2.5,0,1,0,6.5,7,2.5,2.5,0,0,0,9,4.5Z"/></g></svg>