<svg xmlns="http://www.w3.org/2000/svg" viewBox="0 0 16 16"><defs><style>.icon-canvas-transparent,.icon-vs-out{fill:#f6f6f6;}.icon-canvas-transparent{opacity:0;}.icon-vs-bg{fill:#424242;}</style></defs><title>CloseGroup_16x</title><g id="canvas"><path id="_Compound_Path_" data-name="&lt;Compound Path&gt;" class="icon-canvas-transparent" d="M16,16H0V0H16Z"/></g><g id="outline"><path class="icon-vs-out" d="M16,12H14v2H12v2H0V5H2V3H4V1H16Z"/></g><g id="iconBg"><path class="icon-vs-bg" d="M15,2v9H14V3H5V2ZM3,5h9v8h1V4H3ZM1,6H11v9H1Zm4.116,4.5L3.058,12.558l.884.884L6,11.384l2.058,2.058.884-.884L6.884,10.5,8.942,8.442l-.884-.884L6,9.616,3.942,7.558l-.884.884Z"/></g></svg>