<svg xmlns="http://www.w3.org/2000/svg" viewBox="0 0 16 16"><style>.icon-canvas-transparent{opacity:0;fill:#f6f6f6}.icon-vs-out{fill:#f6f6f6}.icon-vs-bg{fill:#424242}.icon-vs-fg{fill:#f0eff1}</style><path class="icon-canvas-transparent" d="M16 16H0V0h16v16z" id="canvas"/><path class="icon-vs-out" d="M15 6.586V16H2V6.396l-.079.079L0 4.554v-.39L4.086 0h.84L6.89 2h3.524L15 6.586z" id="outline"/><path class="icon-vs-fg" d="M8.853 4h.733l3 3H6.007V5.391l1.084 1.084L9.206 4.36 8.853 4zM10 12H7L4 9v5h9V9l-3 3z" id="iconFg"/><path class="icon-vs-bg" d="M10 3H7.871l.982 1h.733l3 3H6.007v1.999h-3v-.998H3v7h11V7l-4-4zm3 11H4V9l3 3h3l3-3v5zM7.798 4.354l-.707.707-2.084-2.084v5.022H4.006V2.977L1.922 5.061l-.707-.707L4.506 1l3.292 3.354z" id="iconBg"/></svg>