<svg xmlns="http://www.w3.org/2000/svg" viewBox="0 0 16 16"><defs><style>.icon-canvas-transparent,.icon-vs-out{fill:#f6f6f6;}.icon-canvas-transparent{opacity:0;}.icon-vs-bg{fill:#424242;}</style></defs><title>Alert_16x</title><g id="canvas"><path class="icon-canvas-transparent" d="M16,16H0V0H16Z"/></g><g id="outline"><path class="icon-vs-out" d="M15,12.031H10.645a3.16,3.16,0,0,1,.105.75,3.219,3.219,0,1,1-6.437,0,3.11,3.11,0,0,1,.105-.75L0,12V8H1C2.108,8,2.509,6.175,2.649,4.617A4.627,4.627,0,0,1,7.539.031a4.628,4.628,0,0,1,4.894,4.585A5.792,5.792,0,0,0,14,8l1-.016Z"/></g><g id="iconBg"><path class="icon-vs-bg" d="M14,9.031V11H1V9.031c2,0,2.49-2.6,2.646-4.324A3.614,3.614,0,0,1,7.539,1.031h0a3.614,3.614,0,0,1,3.893,3.676C11.592,6.428,12,9.031,14,9.031Zm-8.549,3a2.219,2.219,0,1,0,4.16,0Z"/></g></svg>