<svg xmlns="http://www.w3.org/2000/svg" viewBox="0 0 16 16"><defs><style>.icon-canvas-transparent,.icon-vs-out{fill:#f6f6f6;}.icon-canvas-transparent{opacity:0;}.cls-1{fill:#424242;}.icon-cpp-purple{fill:#9b4f96;}</style></defs><title>CPPPhonePivot_16x</title><g id="canvas"><path class="icon-canvas-transparent" d="M16,0V16H0V0Z"/></g><g id="outline"><path class="icon-vs-out" d="M14,2V14a2,2,0,0,1-2,2H5a1.976,1.976,0,0,1-.573-.094H2.774A2.214,2.214,0,0,1,2.12,16a2.269,2.269,0,0,1-.854-.157,1.95,1.95,0,0,1-.708-.48,2.015,2.015,0,0,1-.429-.715A2.4,2.4,0,0,1,0,13.857,2.558,2.558,0,0,1,.11,13.1a2.121,2.121,0,0,1,.235-.511V10.783l.43-.3a2.378,2.378,0,0,1,.375-.2,4.181,4.181,0,0,1,.428-.153,4.444,4.444,0,0,1,.468-.111,3.159,3.159,0,0,1,.552-.05A2.892,2.892,0,0,1,3,10V8H0V5H3V2A2,2,0,0,1,5,0h7A2,2,0,0,1,14,2Z"/></g><g id="iconBg"><path class="cls-1" d="M9,13v-.139c0,.048-.006.092-.007.139Z"/><path class="cls-1" d="M12,1H5A1,1,0,0,0,4,2V5H5V2h7V14H8.861a3.171,3.171,0,0,1-.383.916c-.02.031-.047.054-.068.084H12a1,1,0,0,0,1-1V2A1,1,0,0,0,12,1Z"/><path class="icon-vs-bg" d="M9,13v-.139c0,.048-.006.092-.007.139Z"/><path class="cls-1" d="M12,1H5A1,1,0,0,0,4,2V5H5V2h7V14H8.861a3.171,3.171,0,0,1-.383.916c-.02.031-.047.054-.068.084H12a1,1,0,0,0,1-1V2A1,1,0,0,0,12,1Z"/></g><g id="colorImportance"><path class="icon-cpp-purple" d="M3.63,11.361a1.068,1.068,0,0,0-.424-.294,1.644,1.644,0,0,0-.608-.1A2.161,2.161,0,0,0,2.229,11a3.487,3.487,0,0,0-.362.085,3.055,3.055,0,0,0-.309.109,1.287,1.287,0,0,0-.213.114v.767a1.93,1.93,0,0,1,.544-.312,1.743,1.743,0,0,1,.627-.118.649.649,0,0,1,.494.186.862.862,0,0,1,.174.6l-1.031.154a1.631,1.631,0,0,0-.525.152,1.091,1.091,0,0,0-.563.66A1.562,1.562,0,0,0,1,13.857a1.388,1.388,0,0,0,.074.463,1.007,1.007,0,0,0,.216.362.97.97,0,0,0,.352.234A1.247,1.247,0,0,0,2.12,15a1.124,1.124,0,0,0,.6-.16,1.316,1.316,0,0,0,.439-.463h.014v.529h.785V12.469a2.211,2.211,0,0,0-.083-.637A1.286,1.286,0,0,0,3.63,11.361Zm-.446,2.02a1.135,1.135,0,0,1-.059.365.9.9,0,0,1-.165.295.8.8,0,0,1-.256.2.758.758,0,0,1-.337.073.661.661,0,0,1-.242-.042.528.528,0,0,1-.186-.113.507.507,0,0,1-.116-.172.583.583,0,0,1-.041-.218.918.918,0,0,1,.028-.233.422.422,0,0,1,.1-.18.557.557,0,0,1,.2-.132,1.381,1.381,0,0,1,.32-.079l.761-.109ZM7.7,11.516A1.191,1.191,0,0,0,7.3,11.1a1.031,1.031,0,0,0-.574-.154A1.042,1.042,0,0,0,6.4,11a.992.992,0,0,0-.279.147,1.12,1.12,0,0,0-.225.221,2.022,2.022,0,0,0-.181.289H5.7V9H5v5.887h.7V14.4H5.71a1.563,1.563,0,0,0,.151.229.989.989,0,0,0,.192.185.864.864,0,0,0,.238.122.933.933,0,0,0,.292.042,1.137,1.137,0,0,0,.609-.16,1.342,1.342,0,0,0,.444-.443,2.145,2.145,0,0,0,.272-.672A3.675,3.675,0,0,0,8,12.861a3.54,3.54,0,0,0-.074-.734A2.037,2.037,0,0,0,7.7,11.516Zm-.476,1.953a1.407,1.407,0,0,1-.168.445.755.755,0,0,1-.264.266.687.687,0,0,1-.35.091.608.608,0,0,1-.3-.076.753.753,0,0,1-.238-.207.988.988,0,0,1-.154-.306,1.257,1.257,0,0,1-.057-.381V12.8a1.683,1.683,0,0,1,.061-.465,1.168,1.168,0,0,1,.168-.359.769.769,0,0,1,.257-.233.682.682,0,0,1,.331-.082.656.656,0,0,1,.327.082.713.713,0,0,1,.244.239,1.2,1.2,0,0,1,.15.376,2.137,2.137,0,0,1,.052.5A2.885,2.885,0,0,1,7.222,13.469ZM9,6V7H1V6Z"/></g></svg>