<svg xmlns="http://www.w3.org/2000/svg" viewBox="0 0 16 16"><defs><style>.icon-canvas-transparent,.icon-vs-out{fill:#f6f6f6}.icon-canvas-transparent{opacity:0}.icon-vs-green{fill:#393}.icon-white{fill:#fff}</style></defs><title>StatusInstalled_16x</title><path class="icon-canvas-transparent" d="M0 0h16v16H0z"/><path class="icon-vs-out" d="M0 8a8 8 0 1 1 8 8 8 8 0 0 1-8-8z"/><path class="icon-vs-green" d="M8 15a7 7 0 1 0-7-7 7 7 0 0 0 7 7zM4.957 7.168L7 9.211V3h2v6.211l2.043-2.043 1.414 1.414L8 13.039 3.543 8.582z"/><path class="icon-white" d="M4.957 7.168L7 9.211V3h2v6.211l2.043-2.043 1.414 1.414L8 13.039 3.543 8.582z"/></svg>