<svg xmlns="http://www.w3.org/2000/svg" viewBox="0 0 16 16"><style>.icon-canvas-transparent{opacity:0;fill:#f6f6f6}.icon-vs-out{fill:#f6f6f6}.icon-vs-bg{fill:#424242}.icon-vs-fg{fill:#f0eff1}</style><path class="icon-canvas-transparent" d="M0 0h16v16H0z" id="canvas"/><path class="icon-vs-out" d="M8.643 4.071l-2.039-2.03-.716-.695L5 2.234V0H2.704A3.5 3.5 0 0 0 0 3.4c0 1.93 1.57 3.5 3.5 3.5H4v.221l-.158.159.158.163v4.186l5 2.5 7-3.5V5.393l-5-2.5-2.357 1.178zM4.235 3.9H3.5a.5.5 0 0 1 0-1h.833l-.547.548.449.452z" id="outline"/><path class="icon-vs-bg" d="M15 6.011v4l-6 3-4-2V8.476l.212.219.718.719 1.964-1.962L9 8.011l4-2-2-1-1.045.522-.279.139.287-.286-.572-.57L11 4.011l4 2z" id="iconBg"/><path class="icon-vs-fg" d="M13 6.011l-4 2-1.106-.559 1.782-1.78.279-.138L11 5.011l2 1z" id="iconFg"/><path class="icon-vs-bg" d="M3.5.9H4v1h-.5c-.827 0-1.5.673-1.5 1.5s.673 1.5 1.5 1.5h3.14L5.198 3.45l.691-.691.009-.009 2.649 2.637L5.944 7.99l-.002-.002L5.931 8l-.688-.71L6.625 5.9H3.5a2.5 2.5 0 1 1 0-5z" id="colorImportance"/></svg>