<svg xmlns="http://www.w3.org/2000/svg" viewBox="0 0 16 16"><defs><style>.icon-canvas-transparent,.icon-vs-out{fill:#f6f6f6;}.icon-canvas-transparent{opacity:0;}.icon-vs-bg{fill:#424242;}.icon-vs-fg{fill:#f0eff1;}</style></defs><title>Paste_16x</title><g id="canvas"><path class="icon-canvas-transparent" d="M16,16H0V0H16Z"/></g><g id="iconBg"><path class="icon-vs-out" d="M6,16V15H1V2H4.171A3,3,0,0,1,9.829,2H13V6h2V16Z"/><path class="icon-vs-bg" d="M12,7V3H9A2,2,0,0,0,5,3H2V14H7v1h7V7ZM5,4H6V3A1,1,0,0,1,8,3V4H9V5H5ZM3,13V4H4V6h6V4h1V7H7v6Zm10,1H8V8h5Z"/></g><g id="iconFg"><path class="icon-vs-fg" d="M5,4H6V3A1,1,0,0,1,8,3V4H9V5H5ZM3,13V4H4V6h6V4h1V7H7v6Zm10,1H8V8h5Z"/></g></svg>