<svg xmlns="http://www.w3.org/2000/svg" viewBox="0 0 16 16"><style>.icon-canvas-transparent{opacity:0;fill:#f6f6f6}.icon-vs-bg{fill:#424242}.icon-white{fill:#fff}.icon-vs-red{fill:#e51400}.st0{fill:#f6f6f6}.st1{fill:#f0eff1}</style><path class="icon-canvas-transparent" d="M16 16H0V0h16v16z" id="canvas"/><path class="st0" d="M11.621 0H3v5.605c-1.78.911-3 2.759-3 4.895s1.22 3.984 3 4.895V16h13V4.379L11.621 0z" id="outline"/><g id="iconFg"><path class="st1" d="M11 2.207V5h2.793z"/><path class="st1" d="M10.063 7.429a4.334 4.334 0 0 1 1.458-.269c.92 0 1.773.289 2.479.777V6h-4V2H5v3.025a5.495 5.495 0 0 1 5.063 2.404z"/><path class="icon-vs-bg" d="M5 2h5v4h4v1.937c.386.267.717.601 1 .975V4.793L11.207 1H4v4.212a5.502 5.502 0 0 1 1-.187V2zm6 .207L13.793 5H11V2.207z"/><path class="icon-vs-bg" d="M7.634 13.5a3.68 3.68 0 0 1-1.251.579c.35-.737.62-1.424.795-2.054l.018-.003c-.018-.162-.049-.32-.049-.487 0-.542.112-1.055.293-1.535-.01-.194-.02-.387-.04-.572.113-.018.234-.049.35-.073.191-.328.408-.64.674-.907-.395.13-.773.227-1.134.283a7.554 7.554 0 0 0-.589-1.725c.741.256 1.37.74 1.813 1.368a4.38 4.38 0 0 1 .627-.5 4.481 4.481 0 0 0-3.649-1.879 4.5 4.5 0 0 0-4.5 4.5 4.74 4.74 0 0 0 .067.743 4.49 4.49 0 0 0 3.696 3.691l.013.002a4.143 4.143 0 0 0 1.164.044 4.466 4.466 0 0 0 2.125-.798 4.337 4.337 0 0 1-.423-.677zM5.021 6.832c.154-.02.311-.033.471-.033.106 0 .21.008.313.016a6.98 6.98 0 0 1 .786 1.997c-.368.025-.729.029-1.095.025-.386-.004-.76-.03-1.119-.071.15-.781.398-1.423.644-1.934zM4.279 9.44c.387.044.789.056 1.209.056h.259c.314 0 .632.012.956-.012.025.219.044.451.046.683.004.372-.044.778-.135 1.208-.376.025-.744.036-1.118.034-.41-.006-.803-.035-1.182-.079a7.722 7.722 0 0 1-.035-1.89zm-.127-2.387c-.186.465-.355 1-.471 1.613a12.764 12.764 0 0 1-1.222-.281 3.708 3.708 0 0 1 1.693-1.332zm-2.356 3.442c0-.525.112-1.025.31-1.481.44.131.932.254 1.479.346a8.394 8.394 0 0 0-.049.811c-.004.342.021.694.063 1.051a12.757 12.757 0 0 1-1.788-.467 2.486 2.486 0 0 1-.015-.26zm.151 1.044c.514.157 1.102.31 1.765.415.132.673.349 1.359.632 2.053a3.703 3.703 0 0 1-2.397-2.468zm3.607 2.649c-.021.001-.041.004-.063.004-.109 0-.217-.008-.324-.018-.322-.717-.57-1.43-.725-2.124a11.327 11.327 0 0 0 1.304.061c.224 0 .45-.006.678-.018a13.596 13.596 0 0 1-.87 2.095z"/></g><path class="icon-vs-red" d="M11.521 8.16a3.376 3.376 0 1 0 .001 6.751 3.376 3.376 0 0 0-.001-6.751zm.5 5.875h-1v-1h1v1zm0-2h-1v-3h1v3z" id="notificationBg"/><path class="icon-white" d="M11.021 9.035h1v3h-1zm0 4h1v1h-1z" id="notificationFg"/></svg>