<svg xmlns="http://www.w3.org/2000/svg" viewBox="0 0 16 16"><defs><style>.icon-canvas-transparent,.icon-vs-out{fill:#f6f6f6;}.icon-canvas-transparent{opacity:0;}.icon-vs-bg{fill:#424242;}.icon-vs-action-blue{fill:#00539c;}</style></defs><title>CloneToDesktop_16x</title><g id="canvas"><path class="icon-canvas-transparent" d="M16,16H0V0H16Z"/></g><g id="outline"><path class="icon-vs-out" d="M16,10v5H0V10A2,2,0,0,1,2,8H6.077L2.749,4.671l2.12-2.12L6,3.678V0H9V3.7l1.148-1.145,2.12,2.118L8.95,8H14A2,2,0,0,1,16,10Z"/></g><g id="iconBg"><path class="icon-vs-bg" d="M11,12H10V11h1Zm2-1H12v1h1Zm2-1v4H1V10A1,1,0,0,1,2,9H14A1,1,0,0,1,15,10Zm-1,0H2v3H14Z"/></g><g id="colorAction"><path class="icon-vs-action-blue" d="M10.148,3.964l.707.707L7.515,8.023,4.163,4.671l.707-.707L7,6.086V1H8V6.1Z"/></g></svg>