<svg xmlns="http://www.w3.org/2000/svg" viewBox="0 0 16 16"><defs><style>.icon-canvas-transparent,.icon-vs-out{fill:#f6f6f6;}.icon-canvas-transparent{opacity:0;}.icon-vs-bg{fill:#424242;}</style></defs><title>Cut_16x</title><g id="canvas"><path class="icon-canvas-transparent" d="M16,0V16H0V0Z"/></g><g id="outline"><path class="icon-vs-out" d="M15,12.5a3.5,3.5,0,1,1-7,0A3.591,3.591,0,0,1,4.5,16a3.5,3.5,0,1,1,0-7,3.208,3.208,0,0,1,.5.04V9a2.977,2.977,0,0,1,.415-1.521C4.274,5.471,3.619,4.3,3.464,3.987A3.531,3.531,0,0,1,3,2.475,2.2,2.2,0,0,1,3.651.928L4.589,0H5.618L8,4.764,10.382,0h1.032l.929.927A2.233,2.233,0,0,1,13,2.5a3.5,3.5,0,0,1-.47,1.489c-.152.3-.773,1.417-1.946,3.491A2.957,2.957,0,0,1,11,9v.041A3.132,3.132,0,0,1,11.5,9,3.546,3.546,0,0,1,15,12.5Z"/></g><g id="iconBg"><path class="icon-vs-bg" d="M11.5,10a2.4,2.4,0,0,0-1.175.328L9.82,9.82A1.971,1.971,0,0,0,10,9a1.993,1.993,0,0,0-.614-1.437c.942-1.663,2.054-3.631,2.25-4.023A2.7,2.7,0,0,0,12,2.484a1.23,1.23,0,0,0-.364-.849L11,1,8,7,5,1l-.642.635A1.215,1.215,0,0,0,4,2.469,2.689,2.689,0,0,0,4.358,3.54c.2.392,1.31,2.361,2.255,4.024A1.978,1.978,0,0,0,6.18,9.82l-.507.508A2.39,2.39,0,0,0,4.5,10,2.57,2.57,0,0,0,2,12.5,2.57,2.57,0,0,0,4.5,15,2.571,2.571,0,0,0,7,12.5a2.383,2.383,0,0,0-.327-1.172l.508-.508a1.956,1.956,0,0,0,1.639,0l.507.508A2.383,2.383,0,0,0,9,12.5,2.571,2.571,0,0,0,11.5,15,2.566,2.566,0,0,0,14,12.5,2.566,2.566,0,0,0,11.5,10ZM4.488,14A1.469,1.469,0,0,1,3,12.523,1.508,1.508,0,0,1,4.488,11,1.531,1.531,0,0,1,6,12.523,1.492,1.492,0,0,1,4.488,14ZM8,10A1,1,0,1,1,9,9,1,1,0,0,1,8,10Zm3.491,4A1.485,1.485,0,0,1,10,12.512,1.5,1.5,0,1,1,11.493,14Z"/></g></svg>