<svg xmlns="http://www.w3.org/2000/svg" viewBox="0 0 16 16"><defs><style>.icon-canvas-transparent,.icon-vs-out{fill:#f6f6f6;}.icon-canvas-transparent{opacity:0;}.icon-vs-bg{fill:#424242;}.icon-vs-action-blue{fill:#00539c;}</style></defs><title>ReplyComment_16x</title><g id="canvas"><path class="icon-canvas-transparent" d="M16,0V16H0V0Z"/></g><g id="outline"><path class="icon-vs-out" d="M16,12.5A3.5,3.5,0,0,1,12.5,16h-1V13.789l-1.229,1.229L6,10.746v-.325L2.775,13H2V10H0V0H13V9.051A3.494,3.494,0,0,1,16,12.5Z"/></g><g id="iconBg"><path class="icon-vs-bg" d="M12,1V7.711l-1-1V2H2V8H4V9.46L5.824,8h2.43l-1,1H6.176L3,11.54V9H1V1Z"/></g><g id="colorAction"><path class="icon-vs-action-blue" d="M15,12.5A2.5,2.5,0,0,1,12.5,15V14a1.5,1.5,0,0,0,0-3H9.082l1.9,1.9-.708.707-3.1-3.1,3.1-3.1.708.708L9.082,10H12.5A2.5,2.5,0,0,1,15,12.5Z"/></g></svg>