<svg xmlns="http://www.w3.org/2000/svg" viewBox="0 0 16 16"><style>.icon-canvas-transparent{opacity:0;fill:#f6f6f6}.icon-vs-out{fill:#f6f6f6}.icon-vs-bg{fill:#424242}.icon-vs-fg{fill:#f0eff1}</style><path class="icon-canvas-transparent" d="M16 16H0V0h16v16z" id="canvas"/><path class="icon-vs-out" d="M16 6.021v9h-4.16c-.579 0-.861.04-.997.075l-.38.904h-.924l-.382-.904c-.135-.035-.417-.075-.998-.075H4V8.937L0 4.849v-.35l1.94-1.94 1.084 1.084V.001H6v3.641l1.084-1.084 2.113 2.113-1.32 1.349H8.5a2.316 2.316 0 0 1 1.502.545A2.308 2.308 0 0 1 11.5 6.02H16z" id="outline"/><path class="icon-vs-bg" d="M11.5 7.021c-.624 0-.984.365-1.5 1-.508-.626-.861-.996-1.5-1H6.899L5 8.962v5.058h3c.549 0 1.778-.025 2 .5.221-.525 1.451-.5 2-.5h3v-7h-3.5zm-2.5 6c-.33-.205-.564 0-1 0H6v-5h2c.566 0 1 .663 1 1v4zm5 0h-2c-.435 0-.67-.205-1 0v-4c0-.385.41-1 1-1h2v5zM7.791 4.68l-.707-.708L5 6.056V1.001h-.976v5.055L1.94 3.972l-.707.708 3.279 3.352L7.791 4.68z" id="iconBg"/><path class="icon-vs-fg" d="M9 13.021c-.33-.205-.564 0-1 0H6v-5h2c.566 0 1 .663 1 1v4zm5-5h-2c-.59 0-1 .615-1 1v4c.33-.205.565 0 1 0h2v-5z" id="iconFg"/></svg>