<svg xmlns="http://www.w3.org/2000/svg" viewBox="0 0 16 16"><defs><style>.icon-canvas-transparent,.icon-vs-out{fill:#f6f6f6;}.icon-canvas-transparent{opacity:0;}.icon-vs-yellow{fill:#fc0;}.icon-vs-bg{fill:#424242;}</style></defs><title>FeedbackSad_16x</title><g id="canvas"><path class="icon-canvas-transparent" d="M16,0V16H0V0Z"/></g><g id="outline"><path class="icon-vs-out" d="M16,8A8,8,0,1,1,8,0,8.009,8.009,0,0,1,16,8Z"/></g><g id="iconFg"><path class="icon-vs-yellow" d="M14,8A6,6,0,1,1,8,2,6,6,0,0,1,14,8Z"/></g><g id="iconBg"><path class="icon-vs-bg" d="M4,6A1,1,0,1,1,5,7,1,1,0,0,1,4,6ZM8,9a5.006,5.006,0,0,0-3.727,1.667l.746.666a4,4,0,0,1,5.962,0l.747-.666A5.008,5.008,0,0,0,8,9Zm7-1A7,7,0,1,1,8,1,7.009,7.009,0,0,1,15,8ZM14,8a6,6,0,1,0-6,6A6.006,6.006,0,0,0,14,8ZM11,5a1,1,0,1,0,1,1A1,1,0,0,0,11,5Z"/></g></svg>