<svg xmlns="http://www.w3.org/2000/svg" viewBox="0 0 16 16"><style>.icon-canvas-transparent{opacity:0;fill:#f6f6f6}.icon-vs-out{fill:#f6f6f6}.icon-vs-bg{fill:#424242}.icon-vs-action-blue{fill:#00539c}</style><path class="icon-canvas-transparent" d="M16 16H0V0h16v16z" id="canvas"/><path class="icon-vs-out" d="M15 2v4h-1v2h1v4h-3v1H8v-.101L4.842 16H4.44l-1.916-1.916L3.608 13H0v-3l3.608-.001-1.084-1.084L4.438 7h.404L8 10.099V9H7V5h1V2h3v1h1V2h3z" id="outline"/><path class="icon-vs-bg" d="M14 3v2H9V3h1v1h3V3h1zm0 8V9H9v2h1v-1h3v1h1zm-1-5H8v2h5V6z" id="iconBg"/><path class="icon-vs-action-blue" d="M4.645 14.791l-.707-.707L6.022 12H1v-1.001h5.022L3.938 8.915l.707-.707 3.354 3.291-3.354 3.292z" id="colorAction"/></svg>