<svg xmlns="http://www.w3.org/2000/svg" viewBox="0 0 16 16"><defs><style>.icon-canvas-transparent,.icon-vs-out{fill:#f6f6f6;}.icon-canvas-transparent{opacity:0;}.icon-vs-bg{fill:#424242;}</style></defs><title>LiveShareSharing_16x</title><g id="canvas"><path class="icon-canvas-transparent" d="M16,0V16H0V0Z"/></g><g id="outline"><path class="icon-vs-out" d="M15.987,8a8,8,0,0,1-3.413,6.539l-.574.4V16H4V14.942l-.574-.4A7.984,7.984,0,1,1,15.987,8Z"/></g><g id="iconBg"><path class="icon-vs-bg" d="M12.488,8a4.449,4.449,0,0,1-1.1,2.9,4.051,4.051,0,0,0-.64-.788A3.454,3.454,0,0,0,11.488,8,3.488,3.488,0,1,0,4.512,8a3.454,3.454,0,0,0,.736,2.117,4.051,4.051,0,0,0-.64.788A4.479,4.479,0,1,1,12.488,8ZM8,10A2,2,0,1,0,6,8a2,2,0,0,0,2,2,3,3,0,0,0-3,3v2h6V13A3,3,0,0,0,8,10ZM8,1.013A6.982,6.982,0,0,0,4,13.721V13a3.946,3.946,0,0,1,.035-.513,6,6,0,1,1,7.93,0A3.946,3.946,0,0,1,12,13v.724A6.982,6.982,0,0,0,8,1.013Z"/></g></svg>