<svg xmlns="http://www.w3.org/2000/svg" viewBox="0 0 16 16"><defs><style>.icon-canvas-transparent,.icon-vs-out{fill:#f6f6f6;}.icon-canvas-transparent{opacity:0;}.icon-vs-bg{fill:#424242;}</style></defs><title>LibraryVirtualMachine_16x</title><g id="canvas"><path class="icon-canvas-transparent" d="M16,16H0V0H16Z"/></g><g id="iconBg"><path class="icon-vs-out" d="M16,14.35V16H0V4H4V2.5A2.5,2.5,0,0,1,6.5,0h4A2.5,2.5,0,0,1,13,2.5V8h1.729Z"/><path class="icon-vs-bg" d="M7,10h3v1H7ZM7,9h3V8H7Zm8.11,6H5V14h8.89l-.8-4H12v3H5V2.5A1.5,1.5,0,0,1,6.5,1h4A1.5,1.5,0,0,1,12,2.5V9h1.91ZM11,2.5a.5.5,0,0,0-.5-.5h-4a.5.5,0,0,0-.5.5V12h5ZM7,4h3V3H7Z"/><path class="icon-vs-bg" d="M1,5V15H4V5Zm2,9H2V13H3Zm0-2H2V11H3ZM3,7H2V6H3Z"/></g></svg>