<svg xmlns="http://www.w3.org/2000/svg" viewBox="0 0 16 16"><style>.icon-canvas-transparent{opacity:0;fill:#f6f6f6}.icon-vs-out{fill:#f6f6f6}.icon-vs-bg{fill:#424242}.icon-vs-action-blue{fill:#00539c}</style><path class="icon-canvas-transparent" d="M16 16H0V0h16v16z" id="canvas"/><path class="icon-vs-out" d="M4.926 14.892L4.805 16H16v-1.459a5.626 5.626 0 0 0-1.977-3.399 4.43 4.43 0 0 0 .917-2.701A4.446 4.446 0 0 0 10.5 4a4.41 4.41 0 0 0-1.09.151A4.504 4.504 0 0 0 6.496.755L6 .58V0H1v2.961A4.437 4.437 0 0 0 .5 5a4.51 4.51 0 0 0 3.004 4.245L4 9.42V10h2.351c.154.408.359.795.626 1.142a5.634 5.634 0 0 0-2.051 3.75z" id="outline"/><path class="icon-vs-bg" d="M15.08 15h-1.013c-.246-1.757-1.744-3.118-3.567-3.118-1.824 0-3.321 1.361-3.568 3.118H5.92a4.62 4.62 0 0 1 2.677-3.696A3.466 3.466 0 0 1 7.439 10h1.199a2.427 2.427 0 0 0 1.862.882c1.346 0 2.441-1.095 2.441-2.441S11.846 6 10.5 6c-.445 0-.857.129-1.217.338.12-.377.191-.768.207-1.169.321-.1.656-.169 1.01-.169a3.439 3.439 0 1 1 1.903 6.304A4.617 4.617 0 0 1 15.08 15z" id="iconBg"/><path class="icon-vs-action-blue" d="M4.169 7.358l-.332.944A3.507 3.507 0 0 1 1.5 5a3.49 3.49 0 0 1 1.726-3H2V1h3v3H4V2.712A2.502 2.502 0 0 0 2.5 5c0 1.059.671 2.007 1.669 2.358zM8.5 5a3.507 3.507 0 0 0-2.337-3.302l-.332.944A2.503 2.503 0 0 1 7.5 5 2.502 2.502 0 0 1 6 7.288V6H5v3h3V8H6.774A3.488 3.488 0 0 0 8.5 5z" id="colorAction"/></svg>