<svg xmlns="http://www.w3.org/2000/svg" viewBox="0 0 16 16"><defs><style>.icon-canvas-transparent,.icon-vs-out{fill:#f6f6f6;}.icon-canvas-transparent{opacity:0;}.icon-vs-bg{fill:#424242;}.icon-vs-fg{fill:#f0eff1;}</style></defs><title>SourceConrolFolder_16x</title><g id="canvas"><path class="icon-canvas-transparent" d="M16,0V16H0V0Z"/></g><g id="outline"><path class="icon-vs-out" d="M16,5v8a2,2,0,0,1-2,2H2a2,2,0,0,1-2-2V3A2,2,0,0,1,2,1H6.5a2.009,2.009,0,0,1,1.6.8L9,3h5A2,2,0,0,1,16,5Z"/></g><g id="iconBg"><path class="icon-vs-bg" d="M14,4H8.5L7.3,2.4A1,1,0,0,0,6.5,2H2A1,1,0,0,0,1,3V13a1,1,0,0,0,1,1H5V8.929a2,2,0,1,1,1,0v2.349A1.978,1.978,0,0,1,7,11h3a1,1,0,0,0,.913-.6,1.989,1.989,0,1,1,1.033.044A2,2,0,0,1,10,12H7a1,1,0,0,0-1,1v1h8a1,1,0,0,0,1-1V5A1,1,0,0,0,14,4ZM2,4V3H6.5l.75,1Zm9.5,5.5a1,1,0,1,1,1-1A1,1,0,0,1,11.5,9.5ZM5.5,8a1,1,0,1,1,1-1A1,1,0,0,1,5.5,8Z"/></g><g id="iconFg"><path class="icon-vs-fg" d="M11.5,6.5a1.994,1.994,0,0,0-.587,3.9A1,1,0,0,1,10,11H7a1.978,1.978,0,0,0-1,.278V8.929a2,2,0,1,0-1,0V14H6V13a1,1,0,0,1,1-1h3a2,2,0,0,0,1.946-1.554A2,2,0,0,0,11.5,6.5ZM5.5,8a1,1,0,1,1,1-1A1,1,0,0,1,5.5,8Zm6,1.5a1,1,0,1,1,1-1A1,1,0,0,1,11.5,9.5Z"/></g></svg>