<svg xmlns="http://www.w3.org/2000/svg" viewBox="0 0 16 16"><style>.icon-canvas-transparent{opacity:0;fill:#f6f6f6}.icon-vs-out{fill:#f6f6f6}.icon-vs-bg{fill:#424242}.icon-vs-fg{fill:#f0eff1}</style><path class="icon-canvas-transparent" d="M16 16H0V0h16v16z" id="canvas"/><path class="icon-vs-out" d="M11.621 0H3v2H0v8h3v6h13V4.379z" id="outline"/><path class="icon-vs-bg" d="M11.207 1H4v1h6v4h4v8H5v-4H4v5h11V4.793L11.207 1zM11 5V2.207L13.793 5H11zm-6.929.992c0 .895-.188 1.344-.565 1.344-.387 0-.58-.436-.58-1.305 0-.922.197-1.383.592-1.383.369 0 .553.448.553 1.344zM1 3v6h7V3H1zm3.605 4.465c-.261.348-.638.521-1.128.521C2.492 7.986 2 7.34 2 6.053c0-.668.133-1.177.399-1.527.267-.35.653-.526 1.159-.526C4.52 4 5 4.654 5 5.965c0 .652-.131 1.152-.395 1.5zM7 8h-.847V4.999a.89.89 0 0 1-.165.116c-.064.037-.131.07-.203.102-.038.015-.079.026-.119.039v-.772c.097-.04.2-.069.291-.117.195-.1.372-.211.529-.332H7V8z" id="iconBg"/><g id="iconFg"><path class="icon-vs-fg" d="M11 2.207V5h2.793z"/><path class="icon-vs-fg" d="M10 6V2H9v8H5v4h9V6z"/><path class="icon-vs-fg" d="M11 2.207V5h2.793z"/><path class="icon-vs-fg" d="M10 6V2H9v8H5v4h9V6z"/></g></svg>