<svg xmlns="http://www.w3.org/2000/svg" viewBox="0 0 16 16"><defs><style>.icon-canvas-transparent,.icon-vs-out{fill:#f6f6f6;}.icon-canvas-transparent{opacity:0;}.icon-vs-bg{fill:#424242;}</style></defs><title>Dictionary_16x</title><g id="canvas"><path class="icon-canvas-transparent" d="M16,16H0V0H16Z"/></g><g id="outline"><path class="icon-vs-out" d="M16,2V16H0V2H2V1H5.728a4.463,4.463,0,0,1,1.544.272A4.409,4.409,0,0,1,8,1.617a4.361,4.361,0,0,1,.724-.345A4.481,4.481,0,0,1,10.272,1H14V2Z"/></g><g id="iconBg"><path class="icon-vs-bg" d="M13,3V2H10.273A3.411,3.411,0,0,0,8,2.844a3.521,3.521,0,0,0-1.072-.633A3.455,3.455,0,0,0,5.727,2H3V3H1V15H15V3Zm-4.5.341a3.068,3.068,0,0,1,.438-.179A3.515,3.515,0,0,1,10,3h2v9H10a5.015,5.015,0,0,0-1.031.12,4.128,4.128,0,0,0-.469.134ZM4,3H6a3.685,3.685,0,0,1,1.062.169,3.185,3.185,0,0,1,.438.178v8.9a3.943,3.943,0,0,0-.469-.137A4.747,4.747,0,0,0,6,12H4ZM14,14H8.3c-.1-.1-.2-.168-.3-.249A3.85,3.85,0,0,0,7.7,14H2V4H3v9H6a3.893,3.893,0,0,1,.672.07,2.419,2.419,0,0,1,.586.2,3.878,3.878,0,0,1,.531.312c.071.049.139.117.208.173.072-.059.142-.13.214-.181a3.717,3.717,0,0,1,.539-.312,2.589,2.589,0,0,1,.586-.2A3.353,3.353,0,0,1,10,13h3V4h1Z"/></g></svg>