<svg xmlns="http://www.w3.org/2000/svg" viewBox="0 0 16 16"><style>.icon-canvas-transparent{opacity:0;fill:#f6f6f6}.icon-vs-out{fill:#f6f6f6}.icon-vs-bg{fill:#424242}.icon-vs-fg{fill:#f0eff1}</style><path class="icon-canvas-transparent" d="M16 16H0V0h16v16z" id="canvas"/><path class="icon-vs-out" d="M10.621 0H2v11H0v5h15V4.379z" id="outline"/><path class="icon-vs-bg" d="M14 4.793V15H8v-1h5V6h-3V5h2.793L10 2.207V5H9V2H4v6H3V1h7.207L14 4.793zM9 8H6V6h3v2zm-1 3H4V9h4v2zm-7 1h6v3H1v-3z" id="iconBg"/><g id="iconFg"><path class="icon-vs-fg" d="M10 2.207V5h2.793zM5 8V5h4V2H4v6zm5-2v3H9v3H8v2h5V6z"/><path class="icon-vs-fg" d="M10 2.207V5h2.793zM5 8V5h4V2H4v6zm5-2v3H9v3H8v2h5V6z"/></g></svg>