<svg xmlns="http://www.w3.org/2000/svg" viewBox="0 0 16 16"><style>.icon-canvas-transparent{opacity:0;fill:#f6f6f6}.icon-vs-out{fill:#f6f6f6}.icon-vs-bg{fill:#424242}</style><path class="icon-canvas-transparent" d="M16 16H0V0h16v16z" id="canvas"/><path class="icon-vs-out" d="M3.914 12H1.382l2-4h-3l4-8h7.032l-4 4h4.5l-8 8zm7.804-5.176L9.604 8.938l1.083 1.083h-3.67v2.976h3.672l-1.084 1.084L11.523 16h.393L16 12.006v-.992l-4.282-4.19z" id="outline"/><path class="icon-vs-bg" d="M5 5h4.5l-6 6H3l2-4H2l3-6h4L5 5zm6.725 3.231l-.707.707 2.084 2.084H8.017v.976h5.085l-2.084 2.084.707.707 3.352-3.279-3.352-3.279z" id="iconBg"/></svg>