<svg xmlns="http://www.w3.org/2000/svg" viewBox="0 0 16 16"><style>.icon-canvas-transparent{opacity:0;fill:#f6f6f6}.icon-vs-out{fill:#f6f6f6}.icon-vs-bg{fill:#424242}.icon-vs-fg{fill:#f0eff1}</style><path class="icon-canvas-transparent" d="M16 16H0V0h16v16z" id="canvas"/><path class="icon-vs-out" d="M12 3V0H3v3.672L1.851 2.527 0 4.378v.537l3 3.012V16h8v-3h5V3h-4zM8 6h-.101L8 5.899V6z" id="outline"/><path class="icon-vs-bg" d="M5 6.063V1H4v5.081l-2.148-2.14-.707.707L4.485 8l3.352-3.352-.707-.707L5 6.063zM6.899 7H10v8H4V8.931l.483.485L5 8.899V14h4V8H5.899l1-1zM10 3V2H6V1h5v2h-1zm5 1v8h-4v-1h3V5h-4v1H9V4h6z" id="iconBg"/><path class="icon-vs-fg" d="M10 3H8v.396l-.868-.869L6 3.655V2h4v1zM5 8.899V14h4V8H5.899L5 8.899zM11 5h-1v1h1v5h3V5h-3z" id="iconFg"/></svg>