<svg xmlns="http://www.w3.org/2000/svg" viewBox="0 0 16 16"><defs><style>.icon-canvas-transparent,.icon-vs-out{fill:#f6f6f6;}.icon-canvas-transparent{opacity:0;}.icon-vs-action-blue{fill:#00539c;}.icon-vs-bg{fill:#424242;}</style></defs><title>StepOver_16x</title><g id="canvas"><path class="icon-canvas-transparent" d="M16,0V16H0V0Z"/></g><g id="outline"><path class="icon-vs-out" d="M16,11.129v.742l-3.9,3.9L9.982,13.646,10.629,13H1V1H5.512A2.495,2.495,0,0,1,9.5,4H11V8.336l1.1-1.1Z"/></g><g id="colorAction"><path class="icon-vs-action-blue" d="M14.957,11.5,12.1,14.354l-.708-.708L13.043,12H2V2H7V3H3v8H13.043L11.4,9.354l.708-.708Z"/></g><g id="iconBg"><path class="icon-vs-bg" d="M6,2.5A1.5,1.5,0,1,1,7.5,4,1.5,1.5,0,0,1,6,2.5ZM10,5v5H5V5ZM9,6H6V9H9Z"/></g></svg>