<svg xmlns="http://www.w3.org/2000/svg" viewBox="0 0 16 16"><style>.icon-canvas-transparent{opacity:0;fill:#f6f6f6}.icon-vs-out{fill:#f6f6f6}.icon-vs-bg{fill:#424242}.icon-vs-fg{fill:#f0eff1}.icon-vs-yellow{fill:#fc0}</style><path class="icon-canvas-transparent" d="M16 0v16H0V0h16z" id="canvas"/><path class="icon-vs-out" d="M16.07 13.985L15.056 16H1V4h1.654a2.89 2.89 0 0 1 .531-1.883A2.894 2.894 0 0 1 5.071.933c.179-.03.345-.043.503-.043 1.286 0 2.032.854 2.429 1.487C8.4 1.744 9.147.89 10.435.89A2.916 2.916 0 0 1 13.352 4H15v7.925l1.07 2.06z" id="outline"/><path class="icon-vs-fg" d="M13 6v2.074L12.442 7h-2.03L8.5 10.633V6H13zM3 14h3.728l.772-1.467V6H3v8z" id="iconFg"/><path class="icon-vs-bg" d="M11.9 5c.225-.264.377-.556.432-.878a1.913 1.913 0 0 0-1.563-2.203c-1.181-.197-1.772.656-2.157 1.423-.076.151-.295.641-.526 1.16l-.083.183-.097-.217a50.5 50.5 0 0 0-.511-1.126c-.386-.767-.971-1.62-2.157-1.423-.503.085-.943.361-1.238.777s-.411.923-.326 1.426c.055.322.206.614.432.878H2v10h5.256l-.536-.984.008-.016H3V6h4.5v6.533l1-1.9V6H13v2.074l1 1.925V5h-2.1zM5.819 5a7.356 7.356 0 0 1-.643-.366c-.305-.209-.473-.431-.515-.679a.908.908 0 0 1 .744-1.05c.33-.057.638-.026 1.095.886.072.143.274.598.492 1.085L7.048 5H5.819zm5.011-.366c-.147.1-.387.232-.645.366H8.958l.041-.091c.223-.5.433-.973.507-1.119.458-.913.764-.942 1.096-.885a.91.91 0 0 1 .744 1.049c-.042.249-.211.471-.516.68z" id="iconBg"/><path class="icon-vs-yellow" d="M11.835 8h-.819l-3.162 6.008.541.992h6.045l.508-1.008L11.835 8zM12 14h-1v-1h1v1zm0-2h-1v-2h1v2z" id="notificationBg"/><g id="notificationFg"><path class="icon-black" d="M12 10v2h-1v-2h1zm-1 4h1v-1h-1v1z"/></g></svg>