<svg xmlns="http://www.w3.org/2000/svg" viewBox="0 0 16 16"><defs><style>.icon-canvas-transparent,.icon-vs-out{fill:#f6f6f6;}.icon-canvas-transparent{opacity:0;}.icon-vs-fg{fill:#f0eff1;}.icon-vs-bg{fill:#424242;}</style></defs><title>BuildSelection_16x</title><g id="canvas"><path class="icon-canvas-transparent" d="M16,0V16H0V0Z"/></g><g id="outline"><path class="icon-vs-out" d="M15,5V16H1V5H4V7H6.553L4.059,4.506,6.178,2.387l.3.3V.021h3V2.708l.31-.308L11.91,4.517,9.44,7H12V5Z"/></g><g id="iconFg"><path class="icon-vs-fg" d="M5,14V12H7v2Zm4,0V12h2v2Z"/></g><g id="iconBg"><path class="icon-vs-bg" d="M10,8h2v2H10ZM7,10H9V8H7Zm6-4v5H3V6H2v9H14V6ZM7,14H5V12H7Zm4,0H9V12h2ZM6,8H4v2H6Zm4.5-3.481-.707-.707-1.308,1.3V1.021h-1V5.094L6.18,3.8l-.707.707L8,7.031Z"/></g></svg>