<svg xmlns="http://www.w3.org/2000/svg" viewBox="0 0 16 16"><style>.icon-canvas-transparent{opacity:0;fill:#f6f6f6}.icon-vs-out{fill:#f6f6f6}.icon-vs-action-blue{fill:#00539c}</style><path class="icon-canvas-transparent" d="M16 0v16H0V0h16z" id="canvas"/><path class="icon-vs-out" d="M5.793.879l2.828 2.828L7.328 5H10.5c3.033 0 5.5 2.467 5.5 5.5 0 3.032-2.467 5.5-5.5 5.5h-1v-4h1c.827 0 1.5-.673 1.5-1.5S11.327 9 10.5 9H7.328l1.293 1.293-2.828 2.828L0 7.328v-.656L5.793.879z" id="outline"/><path class="icon-vs-action-blue" d="M5.793 2.293l1.414 1.414L4.914 6H10.5c2.481 0 4.5 2.019 4.5 4.5S12.981 15 10.5 15v-2c1.378 0 2.5-1.121 2.5-2.5S11.878 8 10.5 8H4.914l2.293 2.293-1.414 1.414L1.086 7l4.707-4.707z" id="iconBg"/></svg>