<svg xmlns="http://www.w3.org/2000/svg" viewBox="0 0 16 16"><style>.icon-canvas-transparent{opacity:0;fill:#f6f6f6}.icon-vs-out{fill:#f6f6f6}.icon-vs-fg{fill:#f0eff1}.icon-cs-green{fill:#388a34}</style><path class="icon-canvas-transparent" d="M0 0h16v16H0z" id="canvas"/><path class="icon-vs-out" d="M11.621 0H3v3H0v13h16V4.379z" id="outline"/><path class="icon-cs-green" d="M11.207 1H4v2h1V2h5v4h4v8h-1v1h2V4.793L11.207 1zM11 5V2.207L13.793 5H11zM4 5H1V4h3v1zm0 2H2v-.978h2V7zm8 7v1H1v-1h11zM1 9V8h11v1H1zm3 1.023V13h3v-3H4v.023zM5 11h1v1H5v-1zm3-1v3h3v-3H8zm2 2H9v-1h1v1z" id="iconBg"/><path class="icon-vs-fg" d="M14 6v8h-1V7H5V2h5v4h4zm-3-4v3h3l-3-3z" id="iconFg"/></svg>