<svg xmlns="http://www.w3.org/2000/svg" viewBox="0 0 16 16"><defs><style>.icon-canvas-transparent,.icon-vs-out{fill:#f6f6f6;}.icon-canvas-transparent{opacity:0;}.icon-vs-bg{fill:#424242;}</style></defs><title>1x_16x</title><g id="canvas"><path class="icon-canvas-transparent" d="M16,16H0V0H16Z"/></g><g id="outline"><path class="icon-vs-out" d="M13,12V10.809L12.077,8.5,13,6.192V5H8V4H6.25l-.266.2c-.111.084-.22.162-.327.228s-.229.14-.348.2-.22.109-.333.155-.205.079-.31.116L4,5.136V7.989L5,7.7V12ZM8,6.193,8.923,8.5,8,10.808Z"/></g><g id="iconBg"><path class="icon-vs-bg" d="M7,5v6H6V6.2a2.847,2.847,0,0,1-.436.259,4.148,4.148,0,0,1-.564.2V5.842c.121-.043.241-.087.355-.134q.212-.087.416-.193c.137-.071.275-.152.415-.239s.261-.174.4-.276Zm5,1H11l-.5,1.25L10,6H9l1,2.5L9,11h1l.5-1.25L11,11h1L11,8.5Z"/></g></svg>