<svg xmlns="http://www.w3.org/2000/svg" viewBox="0 0 16 16"><style>.icon-canvas-transparent{opacity:0;fill:#f6f6f6}.icon-vs-out{fill:#f6f6f6}.icon-vs-bg{fill:#424242}.icon-white{fill:#fff}</style><path class="icon-canvas-transparent" d="M16 0v16H0V0h16z" id="canvas"/><path class="icon-vs-out" d="M12.041 1H3.959L0 7.856v.288L3.959 15h8.082L16 8.144v-.288z" id="outline"/><path class="icon-white" d="M13.773 8l-2.887 5H5.113L2.227 8l2.887-5h5.773l2.886 5z" id="iconFg"/><path class="icon-vs-bg" d="M3.082 6.518L2.226 8l.856 1.482-.866.5L1.072 8l1.144-1.982.866.5zm.31-2.536l.866.5L5.113 3h1.711V2H4.536L3.392 3.982zm.866 7.536l-.866.5L4.536 14h2.289v-1H5.113l-.855-1.482zm9.526-5.5l-.866.5L13.774 8l-.856 1.482.866.5L14.928 8l-1.144-1.982zM10.887 13H9.175v1h2.289l1.145-1.982-.866-.5L10.887 13zM9.175 2v1h1.711l.856 1.482.866-.5L11.464 2H9.175z" id="iconBg"/></svg>