<svg xmlns="http://www.w3.org/2000/svg" viewBox="0 0 16 16"><defs><style>.icon-canvas-transparent,.icon-vs-out{fill:#f6f6f6;}.icon-canvas-transparent{opacity:0;}.icon-vs-bg{fill:#424242;}</style></defs><title>CloudConsole_16x</title><g id="canvas"><path class="icon-canvas-transparent" d="M16,0V16H0V0Z"/></g><g id="outline"><path class="icon-vs-out" d="M16,10H11.837a3.242,3.242,0,0,1-1.712,6H4.5A3.858,3.858,0,0,1,2,9.189V0H16Z"/></g><g id="iconBg"><path class="icon-vs-bg" d="M10.43,10.521A3.181,3.181,0,0,0,4.78,9.264c-.093-.009-.186-.014-.28-.014A2.875,2.875,0,0,0,4.5,15h5.625a2.25,2.25,0,0,0,.3-4.479ZM10.125,14H4.5a1.875,1.875,0,1,1,.771-3.58,2.183,2.183,0,0,1,4.229.768V11.5h.625a1.25,1.25,0,0,1,0,2.5ZM5.4,6.146,6.543,5,5.4,3.854,6.1,3.146,7.957,5,6.1,6.854ZM15,1V9H10.871A4.222,4.222,0,0,0,10,8h4V2H4V8h.641c-.1.085-.212.159-.306.253A3.823,3.823,0,0,0,3,8.563V1ZM10,7H8V6h2Z"/></g></svg>