<svg xmlns="http://www.w3.org/2000/svg" viewBox="0 0 16 16"><defs><style>.icon-canvas-transparent,.icon-vs-out{fill:#f6f6f6;}.icon-canvas-transparent{opacity:0;}.icon-vs-bg{fill:#424242;}.icon-vs-action-green{fill:#388a34;}</style></defs><title>AddFileCollection_16x</title><g id="canvas"><path class="icon-canvas-transparent" d="M16,0V16H0V0Z"/></g><g id="outline"><path class="icon-vs-out" d="M16,2.879V11H15v5H5V14H1l.027-7h1V6H0V2.018H2.019V0h11.1Z"/></g><g id="iconBg"><path class="icon-vs-bg" d="M3,12H5v1H2l.019-5H3ZM12.707,1H7V2h5.293L14,3.707V6.879l1,1V3.293Zm-1,5L14,8.293V15H6V6h5.707ZM13,8.707,11.293,7H7v7h6Z"/></g><g id="colorAction"><path class="icon-vs-action-green" d="M7,3.018V5H5V7H3.019V5H1V3.018H3.019V1H5V3.018Z"/></g></svg>