<svg xmlns="http://www.w3.org/2000/svg" viewBox="0 0 16 16"><defs><style>.icon-canvas-transparent,.icon-vs-out{fill:#f6f6f6;}.icon-canvas-transparent{opacity:0;}.icon-vs-bg{fill:#424242;}</style></defs><title>Attach_16x</title><g id="canvas"><path class="icon-canvas-transparent" d="M16,16H0V0H16Z"/></g><g id="outline"><path class="icon-vs-out" d="M8.5,15.5A4.505,4.505,0,0,1,4,11V4a3.5,3.5,0,0,1,6.371-2H13v9A4.505,4.505,0,0,1,8.5,15.5Z"/></g><g id="iconBg"><path class="icon-vs-bg" d="M12,3v8a3.5,3.5,0,0,1-7,0V4a2.5,2.5,0,0,1,5,0v7a1.5,1.5,0,0,1-3,0V5H8v6a.5.5,0,0,0,1,0V4A1.5,1.5,0,0,0,6,4v7a2.5,2.5,0,0,0,5,0V3Z"/></g></svg>