<svg xmlns="http://www.w3.org/2000/svg" viewBox="0 0 16 16"><defs><style>.icon-canvas-transparent,.icon-vs-out{fill:#f6f6f6;}.icon-canvas-transparent{opacity:0;}.icon-vs-bg{fill:#424242;}</style></defs><title>PrettyCode_16x</title><g id="canvas"><path class="icon-canvas-transparent" d="M16,16H0V0H16Z"/></g><g id="outline"><path class="icon-vs-out" d="M4,4h8V3H10V0h3a1.959,1.959,0,0,1,2,2V6.169a3.955,3.955,0,0,0,.612.616l.388.3v1.83l-.388.3A3.982,3.982,0,0,0,15,9.832V14a1.959,1.959,0,0,1-2,2H10V13H6v3H3a1.959,1.959,0,0,1-2-2V9.831a3.968,3.968,0,0,0-.614-.62L0,8.911V7.089l.386-.3A3.989,3.989,0,0,0,1,6.169V2A1.959,1.959,0,0,1,3,0H6V3H4"/></g><g id="iconBg"><path class="icon-vs-bg" d="M3,6.5V2H5V1H3A.979.979,0,0,0,2,2V6.273a.616.616,0,0,1-.087.349A5.153,5.153,0,0,1,1,7.578v.844a5.1,5.1,0,0,1,.9.932.562.562,0,0,1,.1.334V14a.979.979,0,0,0,1,1H5V14H3V9.5C3,8.137,2.068,8,2.068,8S3,7.955,3,6.5M15,7.574a5.107,5.107,0,0,1-.909-.952A.616.616,0,0,1,14,6.273V2a.979.979,0,0,0-1-1H11V2h2V6.5c0,1.454.988,1.5.988,1.5S13,8.136,13,9.5V14H11v1h2a.979.979,0,0,0,1-1V9.688a.562.562,0,0,1,.105-.334A5.129,5.129,0,0,1,15,8.426ZM11,6H5V5h6Zm0,3H8V8h3Zm0,3H5V11h6Z"/></g></svg>