<svg xmlns="http://www.w3.org/2000/svg" viewBox="0 0 16 16"><style>.icon-canvas-transparent{opacity:0;fill:#f6f6f6}.icon-vs-out{fill:#f6f6f6}.icon-vs-bg{fill:#424242}</style><path class="icon-canvas-transparent" d="M16 16H0V0h16v16z" id="canvas"/><g id="iconBg"><path class="icon-vs-out" d="M13.497 8.918c.118-.022.231-.047.337-.073l.871-.213-.353-2.653-.191.049 1.61-1.609v-.107l-2.07-2.067-.181.181a3.503 3.503 0 0 0-.502-.901C12.425.762 11.55.316 10.487.234a4.653 4.653 0 0 0-.33-.012c-1.816 0-3.065 1.092-3.802 2.197-.489-.871-1.392-1.357-2.611-1.357-.927 0-1.765.234-2.491.695l-.463.295V4.67C.423 5.135.229 5.726.229 6.419c0 .776.278 1.446.802 1.937.513.481 1.196.726 2.029.726.334 0 .648-.045.94-.135h1.934l.007.24.911.056c.233.015.39.019 1.083.021-1.506.815-2.383 2.087-2.383 3.506 0 1.334.884 2.266 2.15 2.266.463 0 .938-.11 1.422-.33l.3.463.367-.23c.004.01.236.842.236.842l.847-.095c3.967-.445 4.559-2.5 4.559-3.685-.001-1.413-.705-2.506-1.936-3.083zM8.053 6.644a24.064 24.064 0 0 1-1.101-.025l-.181-.011v-1.44l1.326.424-.044 1.052zm.804-2.347l.905.979-1.395-.099.165-.461c.053-.147.527-1.4 1.487-1.491L8.857 4.297zm2.538 8.666a8.618 8.618 0 0 0 1.069-1.58c.257.198.268.449.274.636 0 .457-.597.764-1.343.944z"/><path class="icon-vs-bg" d="M5.771 7.947h-.92v-.899h-.023c-.401.689-.99 1.033-1.769 1.033-.573 0-1.021-.151-1.345-.455-.323-.303-.485-.705-.485-1.207 0-1.074.633-1.7 1.898-1.875l1.724-.242c0-.977-.395-1.465-1.185-1.465-.692 0-1.318.236-1.875.708v-.944c.565-.359 1.217-.539 1.954-.539 1.352 0 2.027.715 2.027 2.145v3.74zm-.92-2.89l-1.388.191c-.427.06-.749.166-.966.317-.217.152-.325.421-.325.806 0 .281.1.51.3.688.2.178.467.267.8.267.457 0 .834-.16 1.131-.48.299-.32.448-.726.448-1.216v-.573zm7.29 4.48c.038-.114.066-.237.096-.361l-.676-.171a7.118 7.118 0 0 1-.095.447c-.124-.01-.247-.01-.39-.01-.162 0-.761.01-1.426.219-.01-.447 0-.922.019-1.417 1.084-.028 2.919-.124 3.927-.371l-.086-.646c-.961.247-2.775.371-3.813.399.021-.772.05-1.16.07-1.349l-.697-.048a69.3 69.3 0 0 0-.048 1.416c-.817 0-1.645 0-2.129-.029l.019.627c.314.019.485.019 2.092.019-.01.561-.01 1.103.01 1.597-1.379.551-2.463 1.598-2.463 2.908 0 .704.39 1.266 1.15 1.266.428 0 1.036-.152 1.797-.714.066.181.143.343.229.476l.561-.351a2.137 2.137 0 0 1-.248-.514 7.52 7.52 0 0 0 1.893-2.795c1.017.172 1.758.713 1.807 1.816v.066c0 1.227-1.266 1.91-3.232 2.101.086.151.219.436.256.57 2.377-.267 3.67-1.179 3.67-2.69-.002-1.12-.62-2.167-2.293-2.461zm-4.287 3.86c-.342.019-.656-.171-.656-.731 0-.922.808-1.711 1.844-2.168.039.885.124 1.635.276 2.225-.505.407-1.018.665-1.464.674zm2.024-1.159c-.133-.533-.199-1.189-.218-1.959.713-.256 1.453-.237 1.605-.229a6.221 6.221 0 0 1-1.387 2.188zm4.531-7.873l-.708-.707-.896.895.008-.131c.029-.533-.007-1.54-.584-2.285-.422-.542-1.032-.847-1.815-.907a3.751 3.751 0 0 0-.257-.01c-2.025 0-3.172 1.815-3.52 2.854l.953.306c.117-.328.849-2.16 2.541-2.16.068 0 .138.003.208.009.494.038.854.208 1.097.519.412.526.399 1.344.375 1.672l-.009.114-.795-.86-.735.679 1.993 2.156 2.144-2.144z"/></g></svg>