<svg xmlns="http://www.w3.org/2000/svg" viewBox="0 0 16 16"><defs><style>.icon-canvas-transparent,.icon-vs-out{fill:#f6f6f6;}.icon-canvas-transparent{opacity:0;}.icon-vs-action-blue{fill:#00539c;}.icon-vs-bg{fill:#424242;}</style></defs><title>StepBackOver_16x</title><g id="canvas"><path class="icon-canvas-transparent" d="M16,0V16H0V0Z"/></g><g id="outline"><path class="icon-vs-out" d="M16,4.129v.742l-3.9,3.9L11,7.664V12H9.5a2.494,2.494,0,1,1-3.986,3H1V3h9.629l-.647-.646L12.1.232Z"/></g><g id="colorAction"><path class="icon-vs-action-blue" d="M14.957,4.5,12.1,7.354,11.4,6.646,13.043,5H3v8H7v1H2V4H13.043L11.4,2.354l.708-.708Z"/></g><g id="iconBg"><path class="icon-vs-bg" d="M9,13.5A1.5,1.5,0,1,1,7.5,12,1.5,1.5,0,0,1,9,13.5ZM10,6v5H5V6ZM9,7H6v3H9Z"/></g></svg>