<svg xmlns="http://www.w3.org/2000/svg" viewBox="0 0 16 16"><defs><style>.icon-canvas-transparent,.icon-vs-out{fill:#f6f6f6;}.icon-canvas-transparent{opacity:0;}.icon-vb-blue{fill:#00569c;}</style></defs><title>VBSiteDefinition_16x</title><g id="canvas"><path class="icon-canvas-transparent" d="M16,0V16H0V0Z"/></g><g id="outline"><path class="icon-vs-out" d="M13.66,8H12V1.915L9.661,0H5V8H1v8H8V14H9v2h7V9.914ZM7,9.1,5.661,8H7Z"/></g><g id="iconBg"><path class="icon-vb-blue" d="M13.3,9H10v3H9V7h2V2.388L9.3,1H6V7H8v5H7V10.388L5.3,9H2v6H7V13h3v2h5V10.388ZM6,14H3V10H4.946L6,10.862ZM7,6V2H8.946L10,2.862V6Zm7,8H11V10h1.946L14,10.862Z"/></g></svg>