<svg xmlns="http://www.w3.org/2000/svg" viewBox="0 0 16 16"><defs><style>.icon-canvas-transparent,.icon-vs-out{fill:#f6f6f6;}.icon-canvas-transparent{opacity:0;}.icon-vs-bg{fill:#424242;}.icon-vs-action-orange{fill:#c27d1a;}</style></defs><title>Flower_16x</title><g id="canvas"><path class="icon-canvas-transparent" d="M16,16H0V0H16Z"/></g><g id="outline"><path class="icon-vs-out" d="M13.561,5.021v.958l-.116.219a3.271,3.271,0,0,1-2,1.578,3.406,3.406,0,0,1-.02,1.688,3.172,3.172,0,0,1,.747.339l.208.132.479.83.01.246a3.685,3.685,0,0,1-1.9,3.251,3.928,3.928,0,0,1-1.951.53H9V16H6V14.792H5.986a3.929,3.929,0,0,1-1.949-.528,3.69,3.69,0,0,1-1.9-3.253l.01-.246.479-.83L2.831,9.8a3.172,3.172,0,0,1,.747-.339,3.406,3.406,0,0,1-.02-1.688,3.267,3.267,0,0,1-2-1.578l-.116-.219V5.021L1.555,4.8a3.267,3.267,0,0,1,2-1.578A3.272,3.272,0,0,1,3.923.7L4.055.492,4.889.01,5.144,0A3.387,3.387,0,0,1,7.5.946,3.277,3.277,0,0,1,9.762,0h.268l.3.136.616.356L11.077.7a3.272,3.272,0,0,1,.365,2.524,3.267,3.267,0,0,1,2,1.578Z"/></g><g id="iconBg"><path class="icon-vs-bg" d="M11.634,10.648a2.681,2.681,0,0,0-2.73.042h0a2.92,2.92,0,0,0-.9.841V7H7v4.531a2.92,2.92,0,0,0-.9-.841,2.681,2.681,0,0,0-2.73-.042l-.233.4a2.679,2.679,0,0,0,1.4,2.345h0a2.927,2.927,0,0,0,1.451.4A2.431,2.431,0,0,0,7,13.554V15H8V13.554a2.431,2.431,0,0,0,1.014.238,2.927,2.927,0,0,0,1.451-.4,2.679,2.679,0,0,0,1.4-2.345Zm-6.6,1.882a1.774,1.774,0,0,1-.881-1.158,1.767,1.767,0,0,1,1.442.185,1.776,1.776,0,0,1,.882,1.157A1.776,1.776,0,0,1,5.035,12.53Zm4.93,0a1.769,1.769,0,0,1-1.443.185,1.885,1.885,0,0,1,2.324-1.342A1.77,1.77,0,0,1,9.965,12.529Z"/></g><g id="colorImportance"><path class="icon-vs-action-orange" d="M10.437,4.082a2.646,2.646,0,0,0-.613.078,2.617,2.617,0,0,0,.372-.5,2.38,2.38,0,0,0,.035-2.431L9.829,1A2.382,2.382,0,0,0,7.741,2.248,2.636,2.636,0,0,0,7.5,2.82a2.636,2.636,0,0,0-.241-.572A2.387,2.387,0,0,0,5.171,1l-.4.233A2.38,2.38,0,0,0,4.8,3.665a2.617,2.617,0,0,0,.372.5,2.646,2.646,0,0,0-.613-.078A2.382,2.382,0,0,0,2.439,5.268v.464A2.382,2.382,0,0,0,4.563,6.918,2.627,2.627,0,0,0,5.18,6.84a2.6,2.6,0,0,0-.376.5,2.38,2.38,0,0,0-.035,2.431l.4.233h.077A2.4,2.4,0,0,0,7.259,8.752,2.622,2.622,0,0,0,7.5,8.179a2.622,2.622,0,0,0,.241.573A2.393,2.393,0,0,0,9.752,10h.077l.4-.233A2.38,2.38,0,0,0,10.2,7.335a2.6,2.6,0,0,0-.375-.5,2.672,2.672,0,0,0,.616.078,2.382,2.382,0,0,0,2.124-1.186V5.268A2.382,2.382,0,0,0,10.437,4.082ZM8.607,2.748a1.487,1.487,0,0,1,.9-.718A1.483,1.483,0,0,1,9.33,3.165a1.487,1.487,0,0,1-.9.718A1.483,1.483,0,0,1,8.607,2.748ZM3.494,5.5a1.659,1.659,0,0,1,2.139,0A1.661,1.661,0,0,1,3.494,5.5Zm2.9,2.752a1.487,1.487,0,0,1-.9.718A1.579,1.579,0,0,1,6.566,7.117,1.483,1.483,0,0,1,6.393,8.252Zm.173-4.369a1.487,1.487,0,0,1-.9-.718A1.483,1.483,0,0,1,5.5,2.03a1.487,1.487,0,0,1,.9.718A1.483,1.483,0,0,1,6.566,3.883ZM7.5,6.25a.75.75,0,1,1,.75-.75A.751.751,0,0,1,7.5,6.25Zm2,2.72A1.579,1.579,0,0,1,8.434,7.117,1.579,1.579,0,0,1,9.5,8.97ZM9.367,5.5a1.661,1.661,0,0,1,2.139,0A1.663,1.663,0,0,1,9.367,5.5Z"/></g></svg>