<svg xmlns="http://www.w3.org/2000/svg" viewBox="0 0 16 16"><style>.icon-canvas-transparent{opacity:0;fill:#f6f6f6}.icon-vs-out{fill:#f6f6f6}.icon-vs-fg{fill:#f0eff1}.icon-vs-blue{fill:#1ba1e2}.st0{fill:#424242}</style><path class="icon-canvas-transparent" d="M16 16H0V0h16v16z" id="canvas"/><path class="icon-vs-out" d="M3 13H0v-3l3-.001v-.608l-.476-.476L3 8.438V7c0-1.71 1.935-3 4.5-3 .173 0 .334.02.5.032V.113L8.908.03C9.104.012 9.3 0 9.5 0 13.084 0 16 2.916 16 6.5c0 .199-.012.394-.029.588L15.89 8H12v4c0 1.711-1.935 3-4.5 3a6.766 6.766 0 0 1-1.467-.17L4.841 16h-.4l-1-1H3v-.44l-.476-.476.476-.476V13z" id="outline"/><path class="st0" d="M13 6.5c0 .171-.026.335-.051.5h-1A2.5 2.5 0 0 0 9 4.05v-1c.165-.023.329-.05.5-.05A3.5 3.5 0 0 1 13 6.5zM9.5 1c-.169 0-.335.01-.5.025V2.05c.166-.018.329-.05.5-.05A4.5 4.5 0 0 1 14 6.5c0 .171-.032.333-.051.5h1.025c.015-.165.026-.331.026-.5A5.5 5.5 0 0 0 9.5 1zM3.938 8.915l2.084 2.084H1V12h5.022l-2.084 2.084.707.707 3.354-3.292-3.354-3.291-.707.707z" id="iconBg"/><path class="icon-vs-fg" d="M10 7c0 .472-1.069 1-2.5 1S5 7.472 5 7s1.069-1 2.5-1 2.5.528 2.5 1z" id="iconFg"/><path class="icon-vs-blue" d="M11 7v5c0 1.104-1.567 2-3.5 2-.201 0-.395-.015-.585-.036l2.511-2.465-4.172-4.095C5.65 7.73 6.479 8 7.5 8 8.931 8 10 7.472 10 7S8.931 6 7.5 6 5 6.528 5 7c0 .095.054.192.135.287L4.639 6.8 4 7.438V7c0-1.104 1.567-2 3.5-2s3.5.896 3.5 2z" id="colorImportance"/></svg>