<svg xmlns="http://www.w3.org/2000/svg" viewBox="0 0 16 16"><title>Stylesheet_16x</title><path d="M15 16H2V0h8.621L15 4.379z" fill="#f6f6f6"/><path d="M8.968 11l2.062-2v2zM13 6v8H4V2h5v4zM5 5h1V4H5zm0 2h1V6H5zm0 2h1V8H5zm7-1h-1.295l-5.27 5h1.407l1.186-1h3v1H12zm-2-5.793V5h2.793z" fill="#f0eff1"/><path d="M3 1v14h11V4.793L10.207 1zm10 13H4V2h5v4h4zm-3-9V2.207L12.793 5z" fill="#424242"/><path fill="#424242" d="M5 4h1v1H5zm0 2h1v1H5zm0 2h1v1H5z"/><path d="M10.705 8l-5.27 5h1.407l1.186-1h3v1H12V8zm.323 3h-2.06l2.062-2z" fill="#bd1e2d"/></svg>