<svg xmlns="http://www.w3.org/2000/svg" viewBox="0 0 16 16"><defs><style>.icon-canvas-transparent,.icon-vs-out{fill:#f6f6f6;}.icon-canvas-transparent{opacity:0;}.icon-vs-bg{fill:#424242;}</style></defs><title>StatusSecurityWarningOutline_16x</title><g id="canvas"><path class="icon-canvas-transparent" d="M16,16H0V0H16Z"/></g><g id="outline"><path class="icon-vs-out" d="M15,1.8V6.267a8.082,8.082,0,0,1-.295,2.2,8.86,8.86,0,0,1-.8,1.93,9.842,9.842,0,0,1-1.193,1.68A14.868,14.868,0,0,1,11.271,13.5a18.075,18.075,0,0,1-1.61,1.228q-.822.556-1.653,1.045L7.624,16H7.376l-.384-.226q-.831-.489-1.654-1.045A18.248,18.248,0,0,1,3.731,13.5a14.893,14.893,0,0,1-1.44-1.423A9.84,9.84,0,0,1,1.1,10.4,8.873,8.873,0,0,1,.3,8.47,8.094,8.094,0,0,1,0,6.267V1.8H1c.349,0,.688-.013,1.015-.037a7.229,7.229,0,0,0,.9-.13,4.99,4.99,0,0,0,.823-.255A5.039,5.039,0,0,0,4.546.954,5.707,5.707,0,0,1,5.937.291,5.286,5.286,0,0,1,7.5.066a5.534,5.534,0,0,1,.8.056,4.736,4.736,0,0,1,.761.169,5.081,5.081,0,0,1,.719.287,7.088,7.088,0,0,1,.668.373,5.106,5.106,0,0,0,.817.427,5.031,5.031,0,0,0,.824.255,7.206,7.206,0,0,0,.9.13c.325.024.664.037,1.013.037Z"/></g><g id="iconBg"><path class="icon-vs-bg" d="M12.91,2.759a7.633,7.633,0,0,1-1.029-.149,6.055,6.055,0,0,1-.989-.3A5.987,5.987,0,0,1,9.917,1.8a6.086,6.086,0,0,0-.575-.321,3.946,3.946,0,0,0-.579-.231,3.827,3.827,0,0,0-.606-.135A4.606,4.606,0,0,0,7.5,1.067a4.261,4.261,0,0,0-1.266.179A4.687,4.687,0,0,0,5.083,1.8a5.987,5.987,0,0,1-.975.508,6.055,6.055,0,0,1-.989.3,7.633,7.633,0,0,1-1.029.149C1.738,2.786,1.374,2.8,1,2.8V6.267A7.057,7.057,0,0,0,1.257,8.2a7.8,7.8,0,0,0,.711,1.713,8.9,8.9,0,0,0,1.073,1.51,13.86,13.86,0,0,0,1.341,1.324A16.7,16.7,0,0,0,5.9,13.9q.8.54,1.6,1.013.806-.474,1.6-1.013a16.7,16.7,0,0,0,1.516-1.157,13.86,13.86,0,0,0,1.341-1.324,8.9,8.9,0,0,0,1.073-1.51A7.8,7.8,0,0,0,13.743,8.2,7.057,7.057,0,0,0,14,6.267V2.8C13.626,2.8,13.262,2.786,12.91,2.759ZM13,6.305a5.861,5.861,0,0,1-.221,1.613,7.092,7.092,0,0,1-.605,1.471,8.054,8.054,0,0,1-.913,1.322,12.38,12.38,0,0,1-1.137,1.177,12.917,12.917,0,0,1-1.279,1.021q-.671.469-1.345.859-.675-.389-1.345-.859a12.917,12.917,0,0,1-1.279-1.021,12.38,12.38,0,0,1-1.137-1.177,8.054,8.054,0,0,1-.913-1.322,7.092,7.092,0,0,1-.6-1.471A5.861,5.861,0,0,1,2,6.305V3.753a8.264,8.264,0,0,0,1.887-.317,6.665,6.665,0,0,0,1.736-.8,3.567,3.567,0,0,1,.895-.426,3.613,3.613,0,0,1,1.964,0,3.567,3.567,0,0,1,.9.426,6.665,6.665,0,0,0,1.736.8A8.264,8.264,0,0,0,13,3.753Z"/><path class="icon-vs-bg" d="M8,4v6H7V4ZM7,12H8V11H7Z"/></g></svg>