<svg xmlns="http://www.w3.org/2000/svg" viewBox="0 0 16 16"><defs><style>.icon-canvas-transparent,.icon-vs-out{fill:#f6f6f6;}.icon-canvas-transparent{opacity:0;}.icon-vs-fg{fill:#f0eff1;}.icon-vs-bg{fill:#424242;}</style></defs><title>ConfigurationFile_16x</title><path class="icon-canvas-transparent" d="M16,16H0V0H16Z"/><path class="icon-vs-out" d="M15,4.379V16H2V11.451A3.971,3.971,0,0,1,2,4.556V0h8.621Z"/><path class="icon-vs-fg" d="M12.793,5H10V2.207ZM9,6V2H4V4.241H5.335A3.981,3.981,0,0,1,6,11.451V14h7V6Z"/><path class="icon-vs-bg" d="M10.207,1H3V4.241H4V2H9V6h4v8H6a1.977,1.977,0,0,1-.278,1H14V4.793ZM10,5V2.207L12.793,5ZM5,10.816V14a1,1,0,0,1-2,0V10.816A2.983,2.983,0,0,1,3,5.184V8H5V5.184a2.983,2.983,0,0,1,0,5.632Z"/></svg>