<svg xmlns="http://www.w3.org/2000/svg" viewBox="0 0 16 16"><style>.icon-canvas-transparent{opacity:0;fill:#f6f6f6}.icon-vs-out{fill:#f6f6f6}.icon-vs-bg{fill:#424242}.icon-vs-fg{fill:#f0eff1}</style><path class="icon-canvas-transparent" d="M16 16H0V0h16v16z" id="canvas"/><path class="icon-vs-out" d="M16 9v7H9v-5H7v2H0V6h4V0h9v9h3z" id="outline"/><path class="icon-vs-bg" d="M11 2H6v4H5V1h7v8h-1V2zM1 7h5v5H1V7zm1 4h3V8H2v3zm5-3h3V7H7v1zm3-3H7v1h3V5zm-3 5h2V9H7v1zm3-7H7v1h3V3zm5 7v5h-5v-5h5zm-1 1.009h-2.88v1l1.15.005-1.287 1.287.707.707 1.299-1.299.005 1.158H14v-2.858z" id="iconBg"/><path class="icon-vs-fg" d="M7 8v1h4V2H6v4h1V5h3v1H7v1h3v1H7zm0-4V3h3v1H7zM2 8.002h3v3H2v-3zm12 3.007v2.858h-1.005l-.005-1.158-1.299 1.299-.707-.707 1.287-1.287-1.15-.005v-1H14z" id="iconFg"/></svg>