<svg xmlns="http://www.w3.org/2000/svg" viewBox="0 0 16 16"><defs><style>.icon-canvas-transparent,.icon-vs-out{fill:#f6f6f6;}.icon-canvas-transparent{opacity:0;}.icon-vs-bg{fill:#424242;}</style></defs><title>MoveGlyphBox_16x</title><g id="canvas"><path class="icon-canvas-transparent" d="M16,0V16H0V0Z"/></g><g id="outline"><path class="icon-vs-out" d="M15,0V15H0V0Z"/></g><g id="iconBg"><path class="icon-vs-bg" d="M1,1V14H14V1ZM13,7.5V13H2V2H13Z"/><path class="icon-vs-bg" d="M12.832,7.5l-2.1,2.1L10.021,8.9l.9-.9H8v2.918l.9-.9.708.708-2.1,2.1-2.1-2.1.708-.708.9.9V8H4.082l.9.9L4.271,9.6l-2.1-2.1,2.1-2.1.708.708-.9.9H7V4.082l-.9.9L5.4,4.271l2.1-2.1,2.1,2.1L8.9,4.979l-.9-.9V7h2.918l-.9-.9.708-.708Z"/></g></svg>