<svg xmlns="http://www.w3.org/2000/svg" viewBox="0 0 16 16"><style>.icon-canvas-transparent{opacity:0;fill:#f6f6f6}.icon-vs-out{fill:#f6f6f6}.icon-vs-bg{fill:#424242}.icon-vs-fg{fill:#f0eff1}</style><path class="icon-canvas-transparent" d="M16 16H0V0h16v16z" id="canvas"/><path class="icon-vs-out" d="M15.428 7.499L10.64 12.2l-2.114-2.115L9.609 9H8v7H0V0h8v6h1.61L8.525 4.915 10.64 2.8l4.788 4.699z" id="outline"/><path class="icon-vs-bg" d="M1 1v4h6V1H1zm5 3H2V2h4v2zM1 6h6v4H1V6zm0 5v4h6v-4H1zm5 3H2v-2h4v2zm4.646-3.209l-.707-.707L12.023 8h-4V7l4-.001-2.084-2.084.707-.707L14 7.499l-3.354 3.292z" id="iconBg"/><path class="icon-vs-fg" d="M2 12h4v2H2v-2zM2 2v2h4V2H2z" id="iconFg"/></svg>