<svg xmlns="http://www.w3.org/2000/svg" viewBox="0 0 16 16"><defs><style>.icon-canvas-transparent,.icon-vs-out{fill:#f6f6f6;}.icon-canvas-transparent{opacity:0;}.icon-white{fill:#fff;}.icon-cpp-purple{fill:#9b4f96;}</style></defs><title>CriticalInactiveErrorSquiggle_16x</title><g id="canvas"><path class="icon-canvas-transparent" d="M16,0V16H0V0Z"/></g><g id="outline"><path class="icon-vs-out" d="M15.29,13H16v3H15a2.71,2.71,0,0,1-2.32-1.52l0,0-.07.11A2.19,2.19,0,0,1,10.5,16a5.39,5.39,0,0,1-1.18-.12A8,8,0,0,1,8,16a8,8,0,0,1-1.33-.12,4.16,4.16,0,0,1-1,.12,2.71,2.71,0,0,1-2.3-1.49l0,0A2.72,2.72,0,0,1,1,16H0V13H.73l.15-.25c.09-.15.2-.34.34-.54A8,8,0,1,1,16,8a8,8,0,0,1-1.2,4.21c.14.19.25.38.34.53Z"/></g><g id="iconFg"><path class="icon-white" d="M8,2A6,6,0,0,0,2,8a5.93,5.93,0,0,0,.86,3.06,2.46,2.46,0,0,1,.48,0,2.74,2.74,0,0,1,2.34,1.51A2.72,2.72,0,0,1,8,11H7V9H9v2H8a2.74,2.74,0,0,1,2.34,1.53A2.74,2.74,0,0,1,12.67,11a2.49,2.49,0,0,1,.48,0A5.93,5.93,0,0,0,14,8,6,6,0,0,0,8,2ZM9,7.5H7V3H9Z"/></g><g id="iconBg"><path class="icon-cpp-purple" d="M1.93,11.47A7,7,0,1,1,15,8a7,7,0,0,1-.92,3.46,2.29,2.29,0,0,0-.92-.42A6,6,0,1,0,2,8a6,6,0,0,0,.85,3.06A2.3,2.3,0,0,0,1.93,11.47ZM7,11H9V9H7ZM9,3H7V7.5H9Zm5.28,10.25C14,12.72,13.53,12,12.67,12s-1.29.72-1.59,1.25c-.6,1-.86,1-1.48,0C9.26,12.69,8.85,12,8,12s-1.28.72-1.59,1.24c-.6,1-.87,1-1.46,0C4.64,12.73,4.21,12,3.33,12s-1.29.72-1.6,1.24S1.28,14,1,14v1c.88,0,1.3-.72,1.6-1.25s.46-.74.73-.74.45.24.75.75S4.8,15,5.67,15s1.29-.72,1.6-1.25c.6-1,.85-1,1.47,0A1.72,1.72,0,0,0,10.5,15c1.07,0,1.18-1,1.27-1l.17-.27c.6-1,.87-1,1.48,0,.33.55.73,1.24,1.58,1.24V14C14.75,14,14.58,13.76,14.28,13.25Z"/></g></svg>