<svg xmlns="http://www.w3.org/2000/svg" viewBox="0 0 16 16"><style>.icon-canvas-transparent{opacity:0;fill:#f6f6f6}.icon-vs-out{fill:#f6f6f6}.icon-vs-bg{fill:#424242}.icon-vs-fg{fill:#f0eff1}.icon-vs-action-blue{fill:#00539c}</style><path class="icon-canvas-transparent" d="M16 16H0V0h16v16z" id="canvas"/><path class="icon-vs-out" d="M13.571 5h-5.1l1.492-1.485L6.444 0H5.41L3.843 1.621 4.22 2H3.5C1.57 2 0 3.57 0 5.5S1.57 9 3.5 9H5v3H4v1c0 .52.143 1.039.413 1.503A3.006 3.006 0 0 0 7 16h4.215A2.789 2.789 0 0 0 14 13.214V10h2V7.429C16 6.089 14.91 5 13.571 5zM3.5 6a.5.5 0 0 1 0-1h.735l-.45.452.548.548H3.5zM5 8.143V6.667l.21.21.04.038c-.16.377-.25.792-.25 1.228zM11 12H8V8.143C8 8.065 8.065 8 8.143 8H11v4z" id="outline"/><path class="icon-vs-bg" d="M13.571 6H8.143A2.142 2.142 0 0 0 6 8.143V13H5c0 .366.105.705.277 1 .347.596.985 1 1.723 1h4.215c.986 0 1.785-.8 1.785-1.786V9h2V7.429A1.43 1.43 0 0 0 13.571 6zM12 13.214a.786.786 0 0 1-.785.786H11a1 1 0 0 1-1-1H7V8.143C7 7.513 7.513 7 8.143 7H12v6.214z" id="iconBg"/><path class="icon-vs-fg" d="M8.143 7H12v6.214a.786.786 0 0 1-.785.786H11a1 1 0 0 1-1-1H7V8.143C7 7.513 7.513 7 8.143 7z" id="iconFg"/><path class="icon-vs-action-blue" d="M1 5.5A2.5 2.5 0 0 1 3.5 3h3.125L5.243 1.611 5.931.9l.012.012.001-.001 2.603 2.603L5.898 6.15l-.009-.009-.691-.691L6.64 4H3.5C2.673 4 2 4.673 2 5.5S2.673 7 3.5 7H4v1h-.5A2.5 2.5 0 0 1 1 5.5z" id="colorAction"/></svg>