<svg xmlns="http://www.w3.org/2000/svg" viewBox="0 0 16 16"><style>.icon-canvas-transparent{opacity:0;fill:#f6f6f6}.icon-vs-out{fill:#f6f6f6}.icon-vs-bg{fill:#424242}.icon-vs-fg{fill:#f0eff1}.icon-vs-blue{fill:#1ba1e2}</style><path class="icon-canvas-transparent" d="M16 16H0V0h16v16z" id="canvas"/><path class="icon-vs-out" d="M16 9.041L14.963 8H16V0H7v4.233A8.365 8.365 0 0 0 5 4C2.149 4 0 5.29 0 7v6c0 1.71 2.149 3 5 3s5-1.29 5-3v-2.666l1.68 1.682-1.662-.002v3l2.493.003a2.498 2.498 0 0 0 2.491-2.5v-.225l.083.083.915-.914v-2.42zm-6 1.027V8h2.069L10 10.068z" id="outline"/><path class="icon-vs-fg" d="M11 5h1v1h-1V5zM9 4h1V3H9v1zm4-1v1h1V3h-1zm0 3h1V5h-1v1zm-2-2h1V3h-1v1zM5 5.675c-1.999 0-3.325.798-3.325 1.325S3.001 8.325 5 8.325 8.325 7.527 8.325 7 6.999 5.675 5 5.675zM9 5v.175c.307.246.546.522.714.825H10V5H9z" id="iconFg"/><path class="icon-vs-bg" d="M8 1v3.579c.382.168.716.368 1 .596V5h1v1h-.286c.174.312.286.644.286 1h5V1H8zm2 3H9V3h1v1zm2 2h-1V5h1v1zm0-2h-1V3h1v1zm2 2h-1V5h1v1zm0-2h-1V3h1v1zm1.795 6.252l-.711.711-1.081-1.077v2.632c0 .827-.664 1.5-1.491 1.5l-1.493-.002v-1l1.493.002c.275 0 .5-.225.5-.5l-.009-2.615-1.013 1.008-.709-.709 2.237-2.237 2.277 2.287z" id="iconBg"/><path class="icon-vs-blue" d="M5 5c-2.209 0-4 .895-4 2v6c0 1.106 1.791 2 4 2s4-.894 4-2V7c0-1.105-1.791-2-4-2zm0 3.325c-1.999 0-3.325-.798-3.325-1.325S3.001 5.675 5 5.675 8.325 6.473 8.325 7 6.999 8.325 5 8.325z" id="colorImportance"/></svg>