<svg xmlns="http://www.w3.org/2000/svg" viewBox="0 0 16 16"><defs><style>.icon-canvas-transparent,.icon-vs-out{fill:#f6f6f6;}.icon-canvas-transparent{opacity:0;}.icon-vs-bg{fill:#424242;}</style></defs><title>WebAPI_16x</title><g id="canvas"><path class="icon-canvas-transparent" d="M16,0V16H0V0Z"/></g><g id="outline"><path class="icon-vs-out" d="M9.388,15.872A3.469,3.469,0,0,1,8.5,16c-.056,0-.108-.014-.163-.017-.113,0-.223.017-.337.017a7.959,7.959,0,0,1-3.87-1H4v-.079c-.119-.069-.238-.14-.353-.214A2.434,2.434,0,0,1,2.5,15,2.5,2.5,0,0,1,0,12.5a2.475,2.475,0,0,1,.564-1.562,8,8,0,1,1,8.824,4.934Z"/></g><g id="iconBg"><path class="icon-vs-bg" d="M8.5,10a2.5,2.5,0,0,0-2.45,2H3.908a1.5,1.5,0,1,0,0,1H6.05A2.5,2.5,0,1,0,8.5,10Zm0,4A1.5,1.5,0,1,1,10,12.5,1.5,1.5,0,0,1,8.5,14Zm6.488-6.236A7,7,0,0,0,1,8c0,.2.012.4.03.6.016.179.041.357.071.532l0,.017a6.951,6.951,0,0,0,.286,1.119A2.474,2.474,0,0,1,2.5,10c.044,0,.085.013.128.015-.049-.129-.1-.256-.142-.39a20.425,20.425,0,0,0,2.744.644c.042.21.111.424.162.636A3.52,3.52,0,0,1,6.949,9.371c-.264-.02-.526-.043-.781-.073a12.244,12.244,0,0,1-.123-1.792c0-.387.031-.756.067-1.115a18.549,18.549,0,0,0,1.882.12l.4,0c.489,0,.983-.016,1.488-.055a10.4,10.4,0,0,1,.07,1.047,8.527,8.527,0,0,1-.188,1.74,3.5,3.5,0,0,1,1.425,1.045,13.044,13.044,0,0,0,2.316-.644,5.739,5.739,0,0,1-1.543,2.511A3.22,3.22,0,0,1,12,12.5a3.47,3.47,0,0,1-.327,1.457A6.993,6.993,0,0,0,15,8C15,7.92,14.99,7.843,14.988,7.764ZM2.271,8.4c-.01-.133-.021-.266-.021-.4a5.744,5.744,0,0,1,.482-2.3,19.945,19.945,0,0,0,2.3.539c-.042.406-.072.821-.077,1.258a12.87,12.87,0,0,0,.1,1.637A19.3,19.3,0,0,1,2.271,8.4Zm2.914-3.25a18.852,18.852,0,0,1-1.9-.435A5.768,5.768,0,0,1,5.917,2.645,13.059,13.059,0,0,0,5.185,5.153Zm2.821.268c-.6-.007-1.181-.048-1.739-.11a12.133,12.133,0,0,1,1-3.009A5.694,5.694,0,0,1,8,2.25c.165,0,.327.011.488.024A10.856,10.856,0,0,1,9.709,5.382C9.138,5.421,8.576,5.426,8.006,5.421Zm1.875-2.85A5.757,5.757,0,0,1,12.749,4.76a11.388,11.388,0,0,1-1.951.5A11.7,11.7,0,0,0,9.881,2.571Zm3.85,5.8a11.773,11.773,0,0,1-2.847.863,9.32,9.32,0,0,0,.161-1.743c0-.4-.035-.782-.076-1.156a12.5,12.5,0,0,0,2.316-.6A5.724,5.724,0,0,1,13.75,8C13.75,8.126,13.739,8.25,13.731,8.374Z"/></g></svg>