<svg xmlns="http://www.w3.org/2000/svg" viewBox="0 0 16 16"><style>.icon-canvas-transparent{opacity:0;fill:#f6f6f6}.icon-vs-out{fill:#f6f6f6}.icon-vs-bg{fill:#424242}</style><path class="icon-canvas-transparent" d="M16 16H0V0h16v16z" id="canvas"/><path class="icon-vs-out" d="M16 7.102v.794L11.616 12.2l-2.114-2.115L10.586 9H9v6H6v-1H4v1H1V8H0V3h1V0h3v1h2V0h3v4H8v2H10.587L9.502 4.915 11.616 2.8 16 7.102z" id="outline"/><path class="icon-vs-bg" d="M2 1h.992v1h4.005V1H8v2H2V1zm0 10h6V8H2v3zM1 7h6V4H1v3zm1 7h1.021v-1h3.976v1H8v-2H2v2zm9.623-3.209l-.707-.707L13 8H9V7l4-.001-2.084-2.084.707-.707 3.354 3.291-3.354 3.292z" id="iconBg"/></svg>