<svg xmlns="http://www.w3.org/2000/svg" viewBox="0 0 16 16"><defs><style>.icon-canvas-transparent,.icon-vs-out{fill:#f6f6f6;}.icon-canvas-transparent{opacity:0;}.cls-1{fill:#424242;}</style></defs><title>SettingsFile_16x</title><g id="canvas"><path class="icon-canvas-transparent" d="M16,16H0V0H16Z"/></g><g id="outline"><path class="icon-vs-out" d="M15,4.379V16H2V14.981l-.052-.041a4.993,4.993,0,0,1-.889-.89l-.476-.614.7-.9L.158,12.4l-.1-.768A4.5,4.5,0,0,1,0,11a3.76,3.76,0,0,1,.046-.535l.1-.77L.927,9.5l.354-.044-.7-.9.476-.614a5.054,5.054,0,0,1,.889-.889L2,7.02V0h8.621Z"/></g><g id="iconBg"><path class="cls-1" d="M10.207,1H3V6.924l.459.358L3.6,6.156,4,6.105V2H9V6h4v8H8.98l-.039.05a4.993,4.993,0,0,1-.889.89L7.975,15H14V4.793ZM10,5V2.207L12.793,5Z"/><path class="cls-1" d="M10.207,1H3V6.924l.459.358L3.6,6.156,4,6.105V2H9V6h4v8H8.98l-.039.05a4.993,4.993,0,0,1-.889.89L7.975,15H14V4.793ZM10,5V2.207L12.793,5Z"/><path class="cls-1" d="M8.949,11.5A3.807,3.807,0,0,0,9,11a3.807,3.807,0,0,0-.051-.5l-1.235-.154a2.747,2.747,0,0,0-.331-.795l.767-.985a4,4,0,0,0-.712-.712l-.985.767a2.758,2.758,0,0,0-.8-.331L5.5,7.051A3.983,3.983,0,0,0,5,7a3.983,3.983,0,0,0-.5.051L4.343,8.286a2.758,2.758,0,0,0-.8.331L2.562,7.85a4,4,0,0,0-.712.712l.767.985a2.747,2.747,0,0,0-.331.8L1.051,10.5A3.807,3.807,0,0,0,1,11a3.807,3.807,0,0,0,.051.5l1.235.154a2.747,2.747,0,0,0,.331.8l-.767.985a4,4,0,0,0,.712.712l.985-.767a2.815,2.815,0,0,0,.8.331L4.5,14.949A3.807,3.807,0,0,0,5,15a3.807,3.807,0,0,0,.5-.051l.153-1.235a2.815,2.815,0,0,0,.8-.331l.985.767a4,4,0,0,0,.712-.712l-.767-.985a2.747,2.747,0,0,0,.331-.795ZM5,12a1,1,0,1,1,1-1A1,1,0,0,1,5,12Z"/></g></svg>