<svg xmlns="http://www.w3.org/2000/svg" viewBox="0 0 16 16"><style>.icon-canvas-transparent{opacity:0;fill:#f6f6f6}.icon-vs-out{fill:#f6f6f6}.icon-vs-bg{fill:#424242}.icon-vs-fg{fill:#f0eff1}</style><path class="icon-canvas-transparent" d="M16 16H0V0h16v16z" id="canvas"/><path class="icon-vs-out" d="M14 13h-2v2H2V3h2V1h10v12z" id="outline"/><path class="icon-vs-fg" d="M4 5v8h6V5H4zm4 6H5v-1h3v1zm1-2H5V8h4v1zm0-2H6V6h3v1z" id="iconFg"/><g id="iconBg"><path class="icon-vs-bg" d="M13 2v10h-1V3H5V2h8zM9 6H6v1h3V6zm0 3H5V8h4v1zm-1 2H5v-1h3v1zM3 4v10h8V4H3zm7 9H4V5h6v8z"/></g></svg>