<svg xmlns="http://www.w3.org/2000/svg" viewBox="0 0 16 16"><defs><style>.icon-canvas-transparent,.icon-vs-out{fill:#f6f6f6;}.icon-canvas-transparent{opacity:0;}.icon-vs-bg{fill:#424242;}.icon-asp-html-wpf-blue{fill:#0095d7;}</style></defs><title>DotNetCoreWeb_16x</title><g id="canvas"><path class="icon-canvas-transparent" d="M16,16H0V0H16Z"/></g><g id="outline"><path class="icon-vs-out" d="M9.014,1A6.966,6.966,0,0,0,3.685,3.479l-.575.68a3.927,3.927,0,0,0,0,7.682l.576.681A6.991,6.991,0,1,0,9.014,1Zm-7.2,7A2.111,2.111,0,1,1,3.92,10.115,2.113,2.113,0,0,1,1.809,8Z"/></g><g id="iconBg"><path class="icon-vs-bg" d="M15,8A5.983,5.983,0,0,1,4.446,11.875,3.93,3.93,0,0,0,6.812,10.63a3.409,3.409,0,0,0,2.2.82,3.45,3.45,0,0,0,0-6.9,3.409,3.409,0,0,0-2.2.82A3.93,3.93,0,0,0,4.446,4.125,5.983,5.983,0,0,1,15,8Z"/></g><g id="colorImportance"><path class="icon-asp-html-wpf-blue" d="M6,8A2.24,2.24,0,1,1,3.76,5.755,2.243,2.243,0,0,1,6,8Z"/></g></svg>