<svg xmlns="http://www.w3.org/2000/svg" viewBox="0 0 16 16"><style>.icon-canvas-transparent{opacity:0;fill:#f6f6f6}.icon-vs-out{fill:#f6f6f6}.icon-vs-bg{fill:#424242}.icon-vs-fg{fill:#f0eff1}</style><path class="icon-canvas-transparent" d="M16 16H0V0h16v16z" id="canvas"/><path class="icon-vs-out" d="M4 0v3H0v13h10.992v-4.025H16V0z" id="outline"/><g id="iconBg"><path class="icon-vs-fg" d="M7 5.207L8.793 7H7V5.207zM6 8V5H2v9h7V8H6z"/><path class="icon-vs-bg" d="M15 1v10h-4V6.379L7.621 3H5V1h10zM7.207 4L10 6.793V15H1V4h6.207zM9 8H6V5H2v9h7V8zm-.207-1L7 5.207V7h1.793z"/></g></svg>