<svg xmlns="http://www.w3.org/2000/svg" viewBox="0 0 16 16"><defs><style>.icon-canvas-transparent,.icon-vs-out{fill:#f6f6f6;}.icon-canvas-transparent{opacity:0;}.icon-white{fill:#fff;}.syntax-snappoint-purple{fill:purple;}.icon-vs-red{fill:#e51400;}</style></defs><title>ProductionTracePointOffError_16x</title><g id="canvas"><path class="icon-canvas-transparent" d="M16,0V16H0V0Z"/></g><g id="outline"><path class="icon-vs-out" d="M16,8.371l-.715.715a4.485,4.485,0,0,1-6.2,6.2L8.371,16H7.629L0,8.371V7.629L7.629,0h.742L16,7.629Z"/></g><g id="iconFg"><path class="icon-white" d="M7,11.5A4.505,4.505,0,0,1,11.5,7a4.451,4.451,0,0,1,1.238.2L8,2.457,2.457,8,7.2,12.738A4.451,4.451,0,0,1,7,11.5Z"/></g><g id="iconBg"><path class="syntax-snappoint-purple" d="M8.3,14.657l-.3.3L1.043,8,8,1.043,14.957,8l-.3.3A4.5,4.5,0,0,0,12.738,7.2L8,2.457,2.457,8,7.2,12.738A4.5,4.5,0,0,0,8.3,14.657Z"/></g><g id="notificationBg"><path class="icon-vs-red" d="M11.5,8A3.5,3.5,0,1,0,15,11.5,3.5,3.5,0,0,0,11.5,8Zm1.853,4.647-.706.706L11.5,12.207l-1.147,1.146-.706-.706L10.793,11.5,9.647,10.353l.706-.706L11.5,10.793l1.147-1.146.706.706L12.207,11.5Z"/></g><g id="notificationFg"><path class="icon-white" d="M12.207,11.5l1.146,1.147-.706.706L11.5,12.207l-1.147,1.146-.706-.706L10.793,11.5,9.647,10.353l.706-.706L11.5,10.793l1.147-1.146.706.706Z"/></g></svg>