<svg xmlns="http://www.w3.org/2000/svg" viewBox="0 0 16 16"><style>.icon-canvas-transparent{opacity:0;fill:#f6f6f6}.icon-vs-out{fill:#f6f6f6}.icon-vs-bg{fill:#424242}.icon-vs-fg{fill:#f0eff1}</style><path class="icon-canvas-transparent" d="M16 0v16H0V0h16z" id="canvas"/><path class="icon-vs-out" d="M14.898 5.75v6c0 1.303-.997 2.473-2.676 3.183l-.115.057-.041.009a7.873 7.873 0 0 1-.418.148l-.195.066a5.19 5.19 0 0 1-.266.089 2.522 2.522 0 0 1-.213.053 10.43 10.43 0 0 1-.948.21 10.833 10.833 0 0 1-1.973.178c-.043.001-.091.008-.133.008l-.012-.001h-.01c-.042 0-.09-.006-.133-.008a10.833 10.833 0 0 1-1.973-.178 10.43 10.43 0 0 1-.948-.21 2.522 2.522 0 0 1-.213-.053c-.084-.024-.175-.057-.266-.089l-.195-.066a10.176 10.176 0 0 1-.418-.148l-.041-.009-.115-.057C1.917 14.222.92 13.052.92 11.749v-6c0-.17.019-.347.056-.524l.014-.058.033-.104c.027-.101.063-.219.113-.335l.069-.141c.05-.102.109-.211.179-.318l.07-.099c.08-.111.16-.214.25-.315l.07-.074c.047-.05.141-.139.221-.213l.175-.153c.054-.043.118-.079.175-.12.07-.05.145-.103.23-.161.027-.018.06-.035.088-.053.023-.014.046-.029.07-.042.096-.06.187-.12.296-.18l.803-.471.008.008L6.227 0H9.593l2.387 2.396.009-.009.803.471c.108.06.2.12.296.18l.07.042c.028.018.061.035.088.053.086.058.16.111.228.162.057.041.121.077.175.12l.175.153c.08.074.174.163.221.213l.07.074c.091.101.171.204.25.315l.07.099c.07.107.128.216.179.318l.069.141c.05.117.086.234.113.335l.033.104.013.059c.037.177.056.354.056.524z" id="outline"/><path class="icon-vs-fg" d="M13 7.662V12s-.813 2-5 2-4.947-2.019-4.947-2.019L2.984 7.52s1.348 1.332 4.993 1.332S13 7.662 13 7.662zm-5 .171c1.906 0 3.382-.398 4.22-.895l.025-.018a2.57 2.57 0 0 0 .4-.29c.059-.054.091-.109.135-.164.042-.051.098-.103.127-.154a.645.645 0 0 0 .09-.313.68.68 0 0 0-.081-.288c-.03-.059-.077-.119-.124-.179-.026-.035-.05-.07-.082-.105a2.408 2.408 0 0 0-.268-.244l-.038-.03a3.682 3.682 0 0 0-.354-.232 5.34 5.34 0 0 0-.562-.246l-.797.797-1.149-1.145v3.214h-3V4.345L5.411 5.473l-.827-.828a5.181 5.181 0 0 0-.641.282 2.86 2.86 0 0 0-.673.519c-.007.007-.011.014-.017.021a1.197 1.197 0 0 0-.179.259c-.013.028-.014.055-.023.083-.023.064-.048.13-.048.191 0 .815 1.947 1.832 4.997 1.833z" id="iconFg"/><path class="icon-vs-bg" d="M13.965 5.681c-.006-.029-.018-.057-.026-.085a1.773 1.773 0 0 0-.075-.227c-.012-.028-.029-.056-.043-.084a1.981 1.981 0 0 0-.122-.219c-.016-.024-.035-.047-.051-.07a2.514 2.514 0 0 0-.176-.222l-.051-.053a3.173 3.173 0 0 0-.28-.261 4.01 4.01 0 0 0-.301-.227l-.029-.019a5.018 5.018 0 0 0-.369-.225l-.012-.006c-.051-.03-.11-.055-.165-.083l-.777.776c.201.079.4.158.562.246.129.076.249.153.354.232l.038.03c.104.081.193.162.268.244.032.035.056.07.082.105.047.06.094.12.124.179a.666.666 0 0 1 .081.288c0 .102-.03.207-.09.313-.029.051-.085.102-.127.154-.045.055-.076.109-.135.164a2.57 2.57 0 0 1-.4.29l-.025.018c-.838.496-2.314.893-4.22.894C4.95 7.832 3.003 6.815 3.003 6c0-.061.025-.127.048-.191.009-.028.01-.055.023-.083.041-.085.103-.172.179-.259.006-.007.01-.014.017-.021.159-.175.39-.351.673-.519.184-.101.406-.193.641-.282l-.78-.78c-.08.038-.161.076-.235.117a4.01 4.01 0 0 0-.711.478l-.044.036a3.173 3.173 0 0 0-.236.225l-.051.054a2.542 2.542 0 0 0-.176.221c-.016.024-.035.047-.051.07a2.16 2.16 0 0 0-.122.219c-.013.029-.03.056-.043.084a1.624 1.624 0 0 0-.074.227c-.008.029-.02.056-.026.085A1.55 1.55 0 0 0 2 6v6c0 .918.827 1.738 2.125 2.289l.006.002c.166.07.35.128.531.188.113.038.218.081.336.115.058.017.123.028.182.044a10.818 10.818 0 0 0 1.7.308c.364.034.737.054 1.12.054.355 0 .701-.018 1.04-.048l.079-.006a10.229 10.229 0 0 0 1.882-.351 7.675 7.675 0 0 0 .867-.304l.006-.002c.156-.066.304-.136.446-.21l.064-.035c.117-.063.229-.128.335-.195l.088-.059c.092-.062.18-.125.263-.19l.094-.077c.073-.062.141-.125.205-.189l.089-.092c.057-.063.108-.126.157-.191.026-.034.052-.068.075-.103.043-.065.079-.131.114-.198.018-.036.039-.071.055-.107.031-.071.053-.144.074-.218.009-.033.023-.065.03-.098.024-.109.037-.217.037-.327V6a1.55 1.55 0 0 0-.035-.319zM13 12s-.443 1.071-2.322 1.645c-.459.13-.967.236-1.539.295l-.104.01a10.994 10.994 0 0 1-1.907.015l-.063-.006a10.181 10.181 0 0 1-.767-.094l-.014-.002a8.838 8.838 0 0 1-.63-.131c-.054-.014-.113-.026-.166-.041-.028-.007-.053-.017-.08-.024-1.933-.573-2.355-1.687-2.355-1.687L3 8.538V7.534c.08.076 1.443 1.318 4.977 1.318 3.645 0 5.023-1.19 5.023-1.19V12zM7.542 1.937V7h1V1.919l2.148 2.14.707-.707L8.057 0 4.705 3.352l.707.707 2.13-2.122z" id="iconBg"/></svg>