<svg xmlns="http://www.w3.org/2000/svg" viewBox="0 0 16 16"><defs><style>.icon-canvas-transparent,.icon-vs-out{fill:#f6f6f6;}.icon-canvas-transparent{opacity:0;}.icon-vs-action-blue{fill:#00539c;}.icon-vs-bg{fill:#424242;}</style></defs><title>StepBackOut_16x</title><g id="canvas"><path class="icon-canvas-transparent" d="M16,0V16H0V0Z"/></g><g id="outline"><path class="icon-vs-out" d="M16,3.129v.742l-3.9,3.9-.1-.1V15H3V12H1V2h9.629l-.647-.646L11.336,0h1.535Z"/></g><g id="colorAction"><path class="icon-vs-action-blue" d="M14.957,3.5,12.1,6.354,11.4,5.646,13.043,4H3v6H6.28v1H2V3H13.043L11.4,1.354,12.1.646Z"/></g><g id="iconBg"><path class="icon-vs-bg" d="M11,7v7H4V12H5v1h5V8H5V9H4V7ZM9,10.5A1.5,1.5,0,1,0,7.5,12,1.5,1.5,0,0,0,9,10.5Z"/></g></svg>