<svg xmlns="http://www.w3.org/2000/svg" viewBox="0 0 16 16"><defs><style>.icon-canvas-transparent,.icon-vs-out{fill:#f6f6f6;}.icon-canvas-transparent{opacity:0;}.icon-vs-bg{fill:#424242;}.icon-vs-action-red{fill:#a1260d;}</style></defs><title>UnnestTreeView_16x</title><path class="icon-canvas-transparent" d="M16,0V16H0V0Z"/><path class="icon-vs-out" d="M10,9V4H5V0H0V5H1V8h.586L0,9.586v.828L1.556,11.97,0,13.525v.828L1.646,16h.828L4.03,14.444,5.586,16h.828l2-2H9v2h7V9ZM4,9.465,2.535,8H4Z"/><path class="icon-vs-bg" d="M15,10v5H10V13H7.535L7,12.465v-.99l1-1V12h2V10ZM8,9H9V5H5V6H3V4H4V1H1V4H2V7H5V8.525l1-1,2,2Z"/><path class="icon-vs-action-red" d="M4.99,12l2,2L6,15l-2-2L2,15,1,14l2-2L1,10,2,9l2,2L6,9,7,10Z"/></svg>