<svg xmlns="http://www.w3.org/2000/svg" viewBox="0 0 16 16"><defs><style>.icon-canvas-transparent,.icon-vs-out{fill:#f6f6f6;}.icon-canvas-transparent{opacity:0;}.icon-vs-fg{fill:#f0eff1;}.icon-vs-bg{fill:#424242;}</style></defs><title>GenericContainer_16x</title><g id="canvas"><path class="icon-canvas-transparent" d="M16,0V16H0V0Z"/></g><g id="outline"><path class="icon-vs-out" d="M15,1V11.414L11.414,15H1V4.586L4.586,1Z"/></g><g id="iconFg"><path class="icon-vs-fg" d="M13,3.707v6.879l-2,2V5.707ZM3,13h7V6H3ZM5.207,3l-2,2h7.086l2-2Z"/></g><g id="iconBg"><path class="icon-vs-bg" d="M5,2,2,5v9h9l3-3V2Zm5,11H3V6h7Zm.293-8H3.207l2-2h7.086ZM13,10.586l-2,2V5.707l2-2ZM5,12H4V7H5Zm2,0H6V7H7Zm2,0H8V7H9Z"/></g></svg>