<svg xmlns="http://www.w3.org/2000/svg" viewBox="0 0 16 16"><style>.icon-canvas-transparent{opacity:0;fill:#f6f6f6}.icon-vs-out{fill:#f6f6f6}.icon-vs-bg{fill:#424242}.icon-vs-action-blue{fill:#00539c}</style><path class="icon-canvas-transparent" d="M16 16H0V0h16v16z" id="canvas"/><path class="icon-vs-out" d="M5 0v2.568L.556 2.563.56 13.541h4.087l-1.132 1.132L4.811 16h1.604l1.005-1H16V0H5z" id="outline"/><path class="icon-vs-bg" d="M6 7h6v1H6.347L6 7.654V7zm0-5h6V1H6v1zm0 3h6V4H6v1zm2.425 9H12v-1H9.43l-1.005 1zm.933-3H12v-1H8.355l1.003 1zM13 11h2v-1h-2v1zm0-6h2V4h-2v1zm0-4v1h2V1h-2zm0 13h2v-1h-2v1zm0-6h2V7h-2v1z" id="iconBg"/><path class="icon-vs-action-blue" d="M8.981 12.036l-3.37 3.352-.69-.707 2.14-2.14H1.56l-.003-8.976L5 3.568V4.5H2.551v7.041l4.511.01-2.14-2.148.707-.707 3.352 3.34z" id="colorAction"/></svg>