<svg xmlns="http://www.w3.org/2000/svg" viewBox="0 0 16 16"><defs><style>.icon-canvas-transparent,.icon-vs-out{fill:#f6f6f6;}.icon-canvas-transparent{opacity:0;}.icon-css-red{fill:#bd1e2d;}.icon-vs-bg{fill:#424242;}</style></defs><title>YamlFile_16x</title><g id="canvas"><path class="icon-canvas-transparent" d="M16,0V16H0V0Z"/></g><g id="outline"><path class="icon-vs-out" d="M15,4.379V16H2V10.724L0,6.715V5.6H2V0h8.621Z"/></g><g id="iconBg"><path class="icon-css-red" d="M6.414,6.6H7.891L5.137,11.947V15H3.742V11.977L1.059,6.6H2.646L4.3,10.2q.028.064.176.487h.017a3.289,3.289,0,0,1,.194-.487Zm2.959,3.767a.859.859,0,0,0,.606-.231.729.729,0,0,0,.25-.554.741.741,0,0,0-.25-.562.849.849,0,0,0-.606-.235.833.833,0,0,0-.6.235.748.748,0,0,0-.246.562.735.735,0,0,0,.246.554A.843.843,0,0,0,9.373,10.365Zm0,3.053a.837.837,0,0,0-.6.234.751.751,0,0,0-.246.563.735.735,0,0,0,.246.554.843.843,0,0,0,.6.231.859.859,0,0,0,.606-.231.729.729,0,0,0,.25-.554.745.745,0,0,0-.25-.563A.852.852,0,0,0,9.373,13.418Z"/><path class="icon-vs-bg" d="M10.207,1H3V5.6h.288L4,7.151V2H9V6h4v8H12v1h2V4.793ZM10,5V2.207L12.793,5Z"/></g></svg>