<svg xmlns="http://www.w3.org/2000/svg" viewBox="0 0 16 16"><defs><style>.icon-canvas-transparent,.icon-vs-out{fill:#f6f6f6;}.icon-canvas-transparent{opacity:0;}.icon-vs-red{fill:#e51400;}</style></defs><title>Important_16x</title><g id="canvas"><path class="icon-canvas-transparent" d="M16,16H0V0H16Z"/></g><g id="outline"><path class="icon-vs-out" d="M13.661,6.768c.082.244,1.461,5.816-2.695,7.894l-.862.1H5.377c-1.415,0-2.39-1.7-2.645-2.35a5.574,5.574,0,0,1-.008-4.139c.132-.358.346-.812.585-1.315C3.8,5.937,4.53,4.388,4.395,3.668L3.781.427l2.31,2.355A6.6,6.6,0,0,1,7.615,5.428a3.407,3.407,0,0,0-.188-1.2,9.787,9.787,0,0,0-.765-1.752l-1-1.707,2,.1A6.8,6.8,0,0,1,11.5,6.506l1.158-1.738,1,2"/></g><g id="iconBg"><path class="icon-vs-red" d="M9.229,10.557s1.715-1.715,1.715-3.429A6.09,6.09,0,0,0,7.515,1.985s3.429,3.43,0,6.856A7.581,7.581,0,0,0,5.8,3.7c.27,1.427-1.256,3.9-1.715,5.143a4.578,4.578,0,0,0,0,3.43c.216.549.971,1.713,1.715,1.713H7.515c-1.317,0-2.742-2.395-1.714-3.428-.389.391.582,1.463.856,1.715.5.453,1.84,1.713,2.571,1.713h1.715s-3.427-1.713-1.714-3.427m3.428-3.43c0,1.714-1.713,3.429-1.713,3.429a2.373,2.373,0,0,0,0,3.428c3.428-1.713,1.713-6.857,1.713-6.857"/></g></svg>