<svg xmlns="http://www.w3.org/2000/svg" viewBox="0 0 16 16"><defs><style>.icon-canvas-transparent,.icon-vs-out{fill:#f6f6f6;}.icon-canvas-transparent{opacity:0;}.icon-vs-bg{fill:#424242;}.icon-vs-action-blue{fill:#00539c;}</style></defs><title>OpenWeb_16x</title><g id="canvas"><path class="icon-canvas-transparent" d="M16,0V16H0V0Z"/></g><g id="outline"><path class="icon-vs-out" d="M16,9.5a6.5,6.5,0,0,1-12.976.469A3.491,3.491,0,0,1,3.5,3.018h1l-.9-.9L5.729,0,8.772,3.043A6.728,6.728,0,0,1,9.5,3,6.5,6.5,0,0,1,16,9.5Z"/></g><g id="iconBg"><path class="icon-vs-bg" d="M14.991,9.314A5.484,5.484,0,0,0,9.754,4.025l.492.493L9.768,5c.038,0,.078,0,.116.006a8.568,8.568,0,0,1,.959,2.442c-.449.031-.89.034-1.338.031-.471-.006-.928-.038-1.367-.087A9.423,9.423,0,0,1,8.4,6.363L6.738,8.026c.144.029.279.062.43.088-.033.319-.057.645-.06.989a10.052,10.052,0,0,0,.077,1.285A15.2,15.2,0,0,1,5,9.817c-.007-.105-.016-.21-.016-.317a4.488,4.488,0,0,1,.141-1.07L4.5,7.807v2.211H4.03c.012.126.028.251.049.374l0,.014A5.5,5.5,0,0,0,8.6,14.92l.017,0c.136.023.273.042.413.054.156.015.312.024.472.024.182,0,.361-.01.538-.027A5.5,5.5,0,0,0,15,9.5C15,9.437,14.992,9.376,14.991,9.314Zm-1.76-2.36a8.854,8.854,0,0,1-1.533.39,9.149,9.149,0,0,0-.72-2.109A4.514,4.514,0,0,1,13.231,6.954ZM8.017,8.235a14.53,14.53,0,0,0,1.478.1l.317,0c.384,0,.772-.012,1.169-.043a8.082,8.082,0,0,1,.055.823,6.843,6.843,0,0,1-.164,1.468c-.459.033-.91.039-1.367.036a13.6,13.6,0,0,1-1.444-.1,9.58,9.58,0,0,1-.1-1.408C7.967,8.808,7.988,8.518,8.017,8.235ZM5.168,10.777a15.934,15.934,0,0,0,2.156.506A13.681,13.681,0,0,0,8.1,13.792,4.525,4.525,0,0,1,5.168,10.777Zm4.41,3.237c-.027,0-.052,0-.078,0-.133,0-.266-.009-.4-.02a13.525,13.525,0,0,1-.886-2.6c.411.04.838.067,1.277.072h.317c.273,0,.55-.007.828-.021A16.9,16.9,0,0,1,9.578,14.014Zm1.009-.134a15.653,15.653,0,0,0,.973-2.509,10,10,0,0,0,2.268-.577A4.52,4.52,0,0,1,10.587,13.88ZM14,9.794a9.262,9.262,0,0,1-2.237.678A7.332,7.332,0,0,0,11.892,9.1c0-.315-.027-.615-.059-.909a9.892,9.892,0,0,0,1.82-.474,4.51,4.51,0,0,1,.365,1.78C14.018,9.6,14.009,9.7,14,9.794Z"/></g><g id="colorAction"><path class="icon-vs-action-blue" d="M8.832,4.518l-3.1,3.1-.708-.707,1.9-1.9H3.5a1.5,1.5,0,0,0,0,3v1a2.5,2.5,0,0,1,0-5H6.918l-1.9-1.9.708-.707Z"/></g></svg>