<svg xmlns="http://www.w3.org/2000/svg" viewBox="0 0 16 16"><defs><style>.icon-canvas-transparent,.icon-vs-out{fill:#f6f6f6;}.icon-canvas-transparent{opacity:0;}.icon-vs-fg{fill:#f0eff1;}.icon-vs-bg{fill:#424242;}.icon-vs-action-blue{fill:#00539c;}</style></defs><title>ToolTip_16x</title><g id="canvas"><path class="icon-canvas-transparent" d="M16,16H0V0H16Z"/></g><g id="outline"><path class="icon-vs-out" d="M16,6v9H2V9.717l-1,1.1V0H2.392L8.857,6Z"/></g><g id="iconFg"><path class="icon-vs-fg" d="M6.843,8l.426.965L4.261,10.332,4,9.744V13H14V8ZM12,11H6V10h6Z"/></g><g id="iconBg"><path class="icon-vs-bg" d="M12,11H6V10h6ZM9.935,7H6.4l.441,1H14v5H4V9.744L3.336,8.249,3,8.619V14H15V7Z"/></g><g id="colorAction"><path class="icon-vs-action-blue" d="M4.766,9,3.629,6.442,2,8.231V1L7.387,6H4.869L5.955,8.463Z"/></g></svg>