<svg xmlns="http://www.w3.org/2000/svg" viewBox="0 0 16 16"><style>.icon-canvas-transparent{opacity:0;fill:#f6f6f6}.icon-vs-bg{fill:#424242}.icon-vs-fg{fill:#f0eff1}.icon-vs-action-blue{fill:#00539c}</style><path class="icon-canvas-transparent" d="M16 16H0V0h16v16z" id="canvas"/><path class="icon-vs-fg" d="M16 11.85l-1 1V16H2V0h8.621L15 4.379v5.646l1 1v.825z" id="outline"/><path class="icon-vs-bg" d="M10.439 15H3V1h7.207L14 4.793v4.232l-1-1V6H9V2H4v12h5.607l-.084.084.916.916z" id="icon_x5F_bg"/><path class="icon-vs-fg" d="M13 5h-3V2l3 3zm-2.393 8H7v-3h3.732L9.523 8.791 11.314 7h.66L13 8.025V6H9V2H4v12h5.607l1-1z" id="icon_x5F_fg"/><path class="icon-vs-action-blue" d="M14.999 11.438l-3.354 3.354-.707-.707L13.022 12H8v-1h5.147l-2.209-2.209.707-.707 3.354 3.354z" id="colorAction"/></svg>