<svg xmlns="http://www.w3.org/2000/svg" viewBox="0 0 16 16"><style>.icon-canvas-transparent{opacity:0;fill:#f6f6f6}.icon-vs-out{fill:#f6f6f6}.icon-vs-bg{fill:#424242}.icon-vs-fg{fill:#f0eff1}.icon-vs-action-blue{fill:#00539c}</style><path class="icon-canvas-transparent" d="M16 16H0V0h16v16z" id="canvas"/><path class="icon-vs-out" d="M16 11.917l-1 .982V16H2V9H1V4.573A2.66 2.66 0 0 1 0 2.5C0 1.293.86.283 2 .051V0h8.621L15 4.379v5.72l1 .981v.837z" id="outline"/><path class="icon-vs-bg" d="M9 2v4h4v2.137l1 .981V4.793L10.207 1h-5.72c.221.292.386.628.462 1H9zm1 0l3 3h-3V2zM3 8h1V7H3V6h1V5H3V4c.581-.207 1-.848 1-1.5a1.5 1.5 0 0 0-3 0c0 .652.419 1.293 1 1.5v4h1zM2 2h1v1H2V2zm8.439 13H3V9h1v5h5.607l-.084.084.916.916z" id="iconBg"/><path class="icon-vs-fg" d="M9.607 14H4V9h1V4h-.466C4.829 3.569 5 3.045 5 2.5c0-.171-.018-.338-.051-.5H9v4h4v2.137L11.638 6.8 9.523 8.915l1.085 1.084L7 10v3h3.607l-1 1zM10 2v3h3l-3-3z" id="iconFg"/><path class="icon-vs-action-blue" d="M11.645 14.791l-.707-.707L13.022 12H8v-1.001h5.022l-2.084-2.084.707-.707 3.354 3.291-3.354 3.292z" id="iconAction"/></svg>