<svg xmlns="http://www.w3.org/2000/svg" viewBox="0 0 16 16"><style>.icon-canvas-transparent{opacity:0;fill:#f6f6f6}.icon-vs-out{fill:#f6f6f6}.icon-vs-bg{fill:#424242}.icon-white{fill:#fff}.icon-vs-action-blue{fill:#00539c}</style><path class="icon-canvas-transparent" d="M16 16H0V0h16v16z" id="canvas"/><path class="icon-vs-out" d="M16 9v7H9v-5H8V4.999H6V11H0V0h14v9h2z" id="outline"/><path class="icon-vs-action-blue" d="M13 6v3H9V6h4zM1 10h4V6H1v4zm12-9H1v3h12V1z" id="colorAction"/><path class="icon-vs-bg" d="M15 10v5h-5v-5h5z" id="notificationBg"/><path class="icon-white" d="M14 13.867h-1.005l-.005-1.158-1.299 1.299-.707-.707 1.287-1.287-1.15-.005v-1h2.88v2.858z" id="notificationFg"/></svg>