<svg xmlns="http://www.w3.org/2000/svg" viewBox="0 0 16 16"><style>.icon-canvas-transparent{opacity:0;fill:#f6f6f6}.icon-vs-out{fill:#f6f6f6}.icon-vs-fg{fill:#f0eff1}.icon-cs-green,.st0{fill:#388a34}</style><path class="icon-canvas-transparent" d="M0 0h16v16H0z" id="canvas"/><path class="icon-vs-out" d="M16 4.351L11.621 0H2.018v2.005H0v3.957h2.018v1.987h.871a5.006 5.006 0 0 0-.992 2.973c0 1.184.418 2.268 1.104 3.133v1.843H6c.015.003.029.01.045.013V16h1l.124-.006c.291-.004.568-.042.838-.097H16V4.351z" id="outline"/><g id="iconBg"><path class="icon-cs-green" d="M11.207 1H6v1h4v4h4v8h-2.712a7.896 7.896 0 0 1-1.115 1H15V4.793L11.207 1zM11 5V2.207L13.793 5H11z"/><path class="st0" d="M11.113 12.637H9.806a3.209 3.209 0 0 1-1.002 1.092c-.101.066-.206.121-.311.176-.058.031-.115.063-.175.088-.085.039-.171.068-.258.1-.051.018-.103.039-.157.057a3.819 3.819 0 0 1-.428.096H7.47a3.013 3.013 0 0 1-.464.037 3.287 3.287 0 0 1 0-6.574V9.35l2.465-2.053-2.466-2.056v1.644a4.108 4.108 0 1 0 0 8.218c.013 0 .026-.004.038-.004v.004c.022 0 .043-.006.066-.006 2.362.001 4.004-2.46 4.004-2.46z"/><path id="Foreground_2_" class="st0" d="M7 3.018H5V1H3.018v2.018H1V5h2.018v2H5V5h2z"/></g><g id="iconFg"><path class="icon-vs-fg" d="M10 6V2H6v.018h2v2.751l3.033 2.529-5.028 4.187V8.938A2.285 2.285 0 0 0 5 9.933v2.135a2.278 2.278 0 0 0 2.005 1.213 2.2 2.2 0 0 0 .313-.025l.04-.007c.089-.016.178-.035.266-.062l.111-.042c.073-.026.12-.041.165-.062l.11-.056c.096-.05.172-.088.245-.136.271-.182.503-.436.682-.751l.288-.505h3.759l-1.038 1.555a7.43 7.43 0 0 1-.657.809H14V6h-4z"/><path class="icon-vs-fg" d="M11 2v3h3z"/></g></svg>