<svg xmlns="http://www.w3.org/2000/svg" viewBox="0 0 16 16"><style>.icon-canvas-transparent{opacity:0;fill:#f6f6f6}.icon-vs-out{fill:#f6f6f6}.icon-vs-bg{fill:#424242}.icon-vs-fg{fill:#f0eff1}</style><path class="icon-canvas-transparent" d="M16 16H0V0h16v16z" id="canvas"/><path class="icon-vs-out" d="M15 16H2V0h8.621L15 4.379V16z" id="outline"/><path class="icon-vs-bg" d="M10.207 1H3v14h11V4.793L10.207 1zM10 2.207L12.793 5H10V2.207zM4 2h2v9H4V2zm0 12v-2h2v2H4zm9 0H7v-2h6v2zm-6-3V2h2v4h4v5H7z" id="iconBg"/><g id="iconFg"><path class="icon-vs-fg" d="M7 2v9h6V6H9V2z"/><path class="icon-vs-fg" d="M10 2.207V5h2.793zM4 12h2v2H4zM4 2h2v9H4zm3 10h6v2H7z"/><path class="icon-vs-fg" d="M7 2v9h6V6H9V2z"/><path class="icon-vs-fg" d="M10 2.207V5h2.793zM4 12h2v2H4zM4 2h2v9H4zm3 10h6v2H7z"/></g></svg>