<svg xmlns="http://www.w3.org/2000/svg" viewBox="0 0 16 16"><style>.icon-canvas-transparent{opacity:0;fill:#f6f6f6}.icon-vs-out{fill:#f6f6f6}.icon-vs-bg{fill:#424242}.icon-vs-fg{fill:#f0eff1}</style><path class="icon-canvas-transparent" d="M16 16H0V0h16v16z" id="canvas"/><path class="icon-vs-out" d="M15 16H2V0h8.621L15 4.379V16z" id="outline"/><path class="icon-vs-bg" d="M14 10v5H3v-5h1v4h9v-4h1zM3 7V1h7.207L14 4.793V7h-1V6H9V2H4v5H3zm7-2h2.793L10 2.207V5zM6 8H5v1h1V8zm2 0H7v1h1V8zM4 8H3v1h1V8zm6 0H9v1h1V8zm2 0h-1v1h1V8zm2 0h-1v1h1V8z" id="iconBg"/><g id="iconFg"><path class="icon-vs-fg" d="M10 2.207V5h2.793zM4 10h9v4H4z"/><path class="icon-vs-fg" d="M13 7V6H9V2H4v5z"/><path class="icon-vs-fg" d="M10 2.207V5h2.793zM4 10h9v4H4z"/><path class="icon-vs-fg" d="M13 7V6H9V2H4v5z"/></g></svg>