<svg xmlns="http://www.w3.org/2000/svg" viewBox="0 0 16 16"><style>.icon-canvas-transparent{opacity:0;fill:#f6f6f6}.icon-vs-out{fill:#f6f6f6}.icon-vs-bg{fill:#424242}</style><path class="icon-canvas-transparent" d="M0 0h16v16H0z" id="canvas"/><path class="icon-vs-out" d="M0 4.339L1.661 6H0v3.99h.963L0 10.953v1.388L3.66 16h.828l3.574-3.574L11.636 16h.828L16 12.464v-1.635l-.839-.839H16V6H6.486l2.355-2.355L6.72 1.524 5.511 2.733V0h-3v2.608L1.427 1.524 0 2.951v1.388zM13.487 9.99h.744l-.744.744V9.99zm-3 0v.619l-.619-.619h.619zm-1.549 0l-.876.877-.877-.877h1.753zm-3.427 0h.745l-.745.744V9.99zm-3 0v.619l-.619-.619h.619z" id="outline"/><path class="icon-vs-bg" d="M15.404 11.646L12.05 15l-3.354-3.354.707-.707 2.084 2.084V8.99H4.511v4.159L6.72 10.94l.707.707L4.074 15 .72 11.646l.707-.707 2.084 2.084V8.99H1V7h14v1.99h-2.512v4.159l2.209-2.209.707.706zM7.427 3.645l-.707-.707-2.209 2.209V1h-1v4.022L1.427 2.938l-.707.707 3.354 3.354 3.353-3.354z" id="iconBg"/></svg>