<svg xmlns="http://www.w3.org/2000/svg" viewBox="0 0 16 16"><style>.icon-canvas-transparent{opacity:0;fill:#f6f6f6}.icon-vs-out{fill:#f6f6f6}.icon-vs-bg{fill:#424242}</style><path class="icon-canvas-transparent" d="M16 16H0V0h16v16z" id="canvas"/><path class="icon-vs-out" d="M0 4.3L1.7 6H0v4h1l-1 1v1.4L3.7 16h.8l3.6-3.6 3.6 3.6h.8l3.5-3.5v-1.6l-.8-.9h.8V6H6.5l2.4-2.4-2.2-2.1-1.2 1.2V0h-3v2.6L1.4 1.5 0 3v1.3zM13.5 10h.7l-.7.7V10zm-3 0v.6l-.6-.6h.6zm-1.6 0l-.9.9-.8-.9h1.7zm-3.4 0h.7l-.7.7V10zm-3 0v.6l-.6-.6h.6z" id="outline"/><path class="icon-vs-bg" d="M15.4 11.6L12.1 15l-3.4-3.4.7-.7 2.1 2.1V9h-7v4.2L6.7 11l.7.7L4.1 15 .7 11.6l.7-.7L3.5 13V9H1V7h14v2h-2.5v4.2l2.2-2.2.7.6zm-8-8l-.7-.7-2.2 2.2V1h-1v4L1.4 2.9l-.7.7L4.1 7l3.3-3.4z" id="iconBg"/></svg>