<?xml version="1.0" encoding="iso-8859-1"?>
<!-- Generator: Adobe Illustrator 21.1.0, SVG Export Plug-In . SVG Version: 6.00 Build 0)  -->
<svg version="1.1" xmlns="http://www.w3.org/2000/svg" xmlns:xlink="http://www.w3.org/1999/xlink" x="0px" y="0px"
	 viewBox="0 0 16 16" style="enable-background:new 0 0 16 16;" xml:space="preserve">
<style type="text/css">
	.st0{opacity:0;fill:#F6F6F6;}
	.st1{fill:#424242;}
	.st2{fill:#FFD6D6;}
</style>
<g id="outline">
	<rect class="st0" width="16" height="16"/>
</g>
<g id="icon_x5F_bg">
	<path class="st1" d="M9,3H7v2H3v6h4v2h2l5-5L9,3z M8.586,12H8v-1v-1H7H4V6h3h1V5V4h0.586l4,4L8.586,12z"/>
</g>
<g id="icon_x5F_fg">
	<polyline class="st2" points="8.586,4 12.586,8 8.586,12 8,12 8,11 8,10 7,10 4,10 4,6 7,6 8,6 8,5 8,4 8.586,4 	"/>
</g>
</svg>
