<svg xmlns="http://www.w3.org/2000/svg" viewBox="0 0 16 16"><defs><style>.icon-canvas-transparent,.icon-vs-out{fill:#f6f6f6;}.icon-canvas-transparent{opacity:0;}.icon-cs-green{fill:#388a34;}</style></defs><title>CS_16x</title><g id="canvas"><path class="icon-canvas-transparent" d="M16,0V16H0V0Z"/></g><g id="outline"><path class="icon-vs-out" d="M14,4V3H9v.813l-.642-.247A5.434,5.434,0,0,0,6.416,3.25,4.218,4.218,0,0,0,3.227,4.567,4.664,4.664,0,0,0,2,7.894a4.46,4.46,0,0,0,1.043,3.041A3.949,3.949,0,0,0,6.167,12.25a5,5,0,0,0,2.289-.469L9,11.5V10h5V9h1V4ZM8,8.323l-.526.326a1.89,1.89,0,0,1-1.021.285.806.806,0,0,1-.665-.251,1.3,1.3,0,0,1-.267-.9,1.233,1.233,0,0,1,.3-.961.9.9,0,0,1,.708-.262,1.719,1.719,0,0,1,.937.253L8,7.147Z"/></g><g id="iconBg"><path class="icon-cs-green" d="M6.416,4.25A4.432,4.432,0,0,1,8,4.5V5.968a2.7,2.7,0,0,0-1.467-.406,1.909,1.909,0,0,0-1.422.561,2.275,2.275,0,0,0-.59,1.662A2.259,2.259,0,0,0,5.043,9.35a1.805,1.805,0,0,0,1.41.584A2.884,2.884,0,0,0,8,9.5v1.393a4.037,4.037,0,0,1-1.833.358A2.978,2.978,0,0,1,3.8,10.277,3.48,3.48,0,0,1,3,7.894a3.678,3.678,0,0,1,.953-2.639A3.239,3.239,0,0,1,6.416,4.25ZM13,6V7h1V8H13V9H12V8H11V9H10V8H9V7h1V6H9V5h1V4h1V5h1V4h1V5h1V6ZM12,6H11V7h1Z"/></g></svg>