<svg xmlns="http://www.w3.org/2000/svg" viewBox="0 0 16 16"><style>.icon-canvas-transparent{opacity:0;fill:#f6f6f6}.icon-vs-out{fill:#f6f6f6}.icon-vs-bg{fill:#424242}.icon-vs-fg{fill:#f0eff1}.icon-vs-red{fill:#e51400}.icon-white{fill:#fff}</style><path class="icon-canvas-transparent" d="M16 16H0V0h16v16z" id="canvas"/><path class="icon-vs-out" d="M15.854 8.307l.1-.769A3.79 3.79 0 0 0 16 7c0-.182-.021-.357-.059-.631l-.098-.769-1.124-.141.698-.895-.476-.614a5.037 5.037 0 0 0-.89-.891l-.614-.477-.897.7-.044-.355-.191-.782-.769-.099C11.359 2.021 11.184 2 11 2s-.359.021-.632.059l-.768.099-.14 1.124-.897-.699-.609.472L4.898 0h-.302L3.011 1.584 3.014 0H.01v2.494a2.498 2.498 0 0 0 2.5 2.491h.146l-.082.083.932.932H2v6h5.051c.252 2.244 2.139 4 4.449 4 2.481 0 4.5-2.019 4.5-4.5a4.46 4.46 0 0 0-1.151-2.976l.224-.028.781-.189zM6.105 6h-.214l.246-.245L6.105 6zm.106-.319l.7-.697.371.475-.355.045-.716.177zM7 9v-.495l.559.07L7.76 9H7zm4.992-1.95c-.163-.018-.323-.05-.492-.05-.51 0-.992.104-1.449.261A.994.994 0 0 1 10 7a1 1 0 0 1 2-.004l-.008.054z" id="outline"/><path class="icon-vs-bg" d="M3 7h3v1H3V7zm0 4h4v-1H3v1zm11.949-4.504l-1.235-.154a2.804 2.804 0 0 0-.331-.795l.768-.984a3.972 3.972 0 0 0-.712-.713l-.985.768a2.773 2.773 0 0 0-.795-.33l-.154-1.236C11.337 3.029 11.173 3 11 3s-.337.029-.504.051l-.154 1.236a2.773 2.773 0 0 0-.795.33l-.985-.767a3.972 3.972 0 0 0-.712.713l.768.984c-.148.244-.262.51-.331.795l-1.236.154C7.029 6.664 7 6.828 7 7c0 .174.029.338.051.504l1.235.154c.045.185.114.359.194.527.202-.185.417-.351.649-.496A1.993 1.993 0 0 1 9 7c0-1.104.893-2 2-2s2 .896 2 2c0 .091-.015.179-.027.267.289.101.563.227.821.381l1.155-.144c.022-.166.051-.33.051-.504 0-.172-.029-.336-.051-.504zM4.747 1.263l-.708.709 1.008 1.013-2.537.008a.501.501 0 0 1-.5-.5L2.012 1H1.01v1.493c0 .827.673 1.491 1.5 1.491h2.554L3.987 5.066l.711.711L6.984 3.5 4.747 1.263zM11 6a1 1 0 0 0-1 1c0 .092.029.175.053.259A4.447 4.447 0 0 1 11.5 7c.168 0 .327.031.49.049.001-.017.01-.031.01-.049a1 1 0 0 0-1-1z" id="iconBg"/><path class="icon-vs-fg" d="M9.13 7.689A1.966 1.966 0 0 1 9 7a2 2 0 0 1 4 0c0 .092-.015.179-.027.267a4.51 4.51 0 0 0-.983-.218c.001-.017.01-.031.01-.049a1 1 0 1 0-2 0c0 .092.029.175.053.259a4.544 4.544 0 0 0-.923.43z" id="iconFg"/><path class="icon-vs-red" d="M11.5 8a3.5 3.5 0 1 0 0 7 3.5 3.5 0 0 0 0-7zm1.854 4.646l-.707.707-1.147-1.146-1.146 1.147-.707-.707 1.147-1.146-1.147-1.146.707-.707 1.146 1.147 1.146-1.147.707.707-1.146 1.145 1.147 1.146z" id="notificationBg"/><path class="icon-white" d="M12.207 11.5l1.147 1.146-.707.707-1.147-1.146-1.146 1.147-.707-.707 1.147-1.146-1.147-1.146.707-.707 1.146 1.147 1.146-1.147.707.707-1.146 1.145z" id="notificationFg"/></svg>