<svg xmlns="http://www.w3.org/2000/svg" viewBox="0 0 16 16"><defs><style>.icon-canvas-transparent,.icon-vs-out{fill:#f6f6f6;}.icon-canvas-transparent{opacity:0;}.icon-vs-action-green{fill:#388a34;}</style></defs><title>CSSharedProject_16x</title><g id="canvas"><path class="icon-canvas-transparent" d="M0,0H16V16H0Z"/></g><g id="outline"><path class="icon-vs-out" d="M16,7.63,10.45,0h-.9L8,2.13,6.45,0h-.9L0,7.63v.65L5.61,16h.78L8,13.78,9.61,16h.78L16,8.28ZM8,8,7.94,8,8,7.88,8.06,8Z"/></g><g id="colorAction"><path class="icon-vs-action-green" d="M10,1.08,8,3.83,6,1.08,1,8l5,6.87,2-2.75,2,2.75L15,8ZM6,12.54,2.71,8,6,3.38,7.16,5,5,8l2.16,3ZM6.71,8,8,6.16,9.29,8,8,9.76Zm2.13,3L11,8,8.84,5,10,3.38,13.29,8,10,12.54Z"/></g></svg>
