<svg xmlns="http://www.w3.org/2000/svg" viewBox="0 0 16 16"><defs><style>.icon-canvas-transparent,.icon-vs-out{fill:#f6f6f6;}.icon-canvas-transparent{opacity:0;}.icon-vs-bg{fill:#424242;}.icon-vs-action-blue{fill:#00539c;}</style></defs><title>SkipFile_16x</title><g id="canvas"><path class="icon-canvas-transparent" d="M16,0V16H0V0Z"/></g><g id="outline"><path class="icon-vs-out" d="M15,3H12v.07a8,8,0,0,0-10.31,2l-.61.78L3.44,7.71,4,7v8h8V8.38L11.62,8H15Z"/></g><g id="iconBg"><path class="icon-vs-bg" d="M9.21,7H5v7h6V8.79ZM6,13V8H8.5V9.5H10V13Z"/></g><g id="colorAction"><path class="icon-vs-action-blue" d="M14,4V7H11V6h1.46a6,6,0,0,0-9.19.31l-.79-.62A7,7,0,0,1,13,5.1V4Z"/></g></svg>