<svg xmlns="http://www.w3.org/2000/svg" viewBox="0 0 16 16"><style>.icon-canvas-transparent{opacity:0;fill:#f6f6f6}.icon-vs-out{fill:#f6f6f6}.icon-vs-bg{fill:#424242}.icon-vs-fg{fill:#f0eff1}.icon-vs-action-blue{fill:#00539c}</style><path class="icon-canvas-transparent" d="M15.992 16.004h-16v-16h16v16z" id="canvas"/><path class="icon-vs-out" d="M16 7.066v.978c-.237 2.615-2.259 4.717-4.92 4.975a5.202 5.202 0 0 1-1.331-.037l-.775-.115.443.568-.476.615a5.037 5.037 0 0 1-.89.891l-.614.477-.897-.699-.139 1.123-.77.1C5.359 15.979 5.183 16 5 16s-.359-.021-.536-.046l-.77-.099-.191-.783-.043-.353-.897.698-.615-.477a5.071 5.071 0 0 1-.89-.891l-.475-.614.698-.896L.158 12.4l-.099-.769C.021 11.359 0 11.184 0 11s.021-.359.046-.535l.099-.77.782-.191.354-.044-.698-.895.475-.614c.257-.333.557-.632.89-.891l.106-.082L0 4.915v-.537l1.851-1.851L3 3.672V0h3v3.655l1.132-1.128.414.414.218-.13a5.449 5.449 0 0 1 2.779-.774c2.882 0 5.213 2.19 5.457 5.029z" id="outline"/><path class="icon-vs-bg" d="M8.949 10.496c.022.167.051.331.051.504s-.029.337-.051.504l-1.235.154a2.747 2.747 0 0 1-.331.795l.768.984a3.972 3.972 0 0 1-.712.713l-.985-.768c-.243.148-.51.262-.796.331l-.153 1.235C5.337 14.971 5.173 15 5 15s-.337-.029-.504-.051l-.153-1.235a2.786 2.786 0 0 1-.796-.331l-.985.767a3.972 3.972 0 0 1-.712-.713l.768-.984a2.747 2.747 0 0 1-.331-.795l-1.235-.154C1.029 11.337 1 11.173 1 11s.029-.337.051-.504l1.235-.154c.068-.285.182-.551.331-.795l-.767-.984c.207-.268.445-.506.712-.713l.985.768c.03-.019.063-.031.093-.048l.584.587A1.999 1.999 0 0 0 5 13a2 2 0 0 0 0-4c-.038 0-.074.009-.112.011l.764-.764.005.039c.286.069.553.183.796.331l.985-.767c.267.207.505.445.712.713l-.767.984c.149.244.263.51.331.795l1.235.154zm6.09-3.106a4.501 4.501 0 0 0-4.497-4.352c-.833 0-1.602.237-2.268.633l.588.588c.112-.057.222-.116.339-.162-.046.115-.086.248-.13.372l.18.18-.348.347a7.95 7.95 0 0 0-.172.714c-.16-.028-.29-.068-.44-.101l-.596.596c.295.074.602.145.938.202a8.697 8.697 0 0 0-.05.809c-.001.115.016.235.021.352.117.123.233.249.337.383l.476.614-.579.742c.013.057.03.115.044.173l.745.093c-.044-.158-.1-.318-.135-.475a12.098 12.098 0 0 0 1.306.06c.224 0 .45-.006.678-.018a13.864 13.864 0 0 1-.87 2.098l-.063.003c-.109 0-.217-.007-.324-.016-.094-.209-.167-.416-.248-.623.017.146.029.276.029.398 0 .184-.021.359-.046.535l-.059.458a4.122 4.122 0 0 0 1.087.031 4.504 4.504 0 0 0 4.064-4.482c.001-.052-.005-.101-.007-.152zM5 12a1 1 0 1 0 0-2 1 1 0 0 0 0 2z" id="iconBg"/><path class="icon-vs-fg" d="M5 9c-.038 0-.074.009-.112.011l-.405.405-.259-.26A2.001 2.001 0 0 0 5 13a2 2 0 0 0 0-4zm0 3a1 1 0 1 1 0-2 1 1 0 0 1 0 2zm3.838-2.693c.013.057.03.115.044.173l-.163-.02.119-.153zm1.708-.851a11.203 11.203 0 0 1-1.183-.079 8.147 8.147 0 0 1-.079-1.153c.003-.249.02-.486.043-.718.388.044.792.073 1.211.077l.26.002c.314 0 .632-.01.957-.035.024.219.043.441.045.674.004.371-.044.774-.135 1.203-.375.026-.744.031-1.119.029zm1.797-2.68a7.49 7.49 0 0 0-.59-1.727 3.705 3.705 0 0 1 1.846 1.408 7.354 7.354 0 0 1-1.256.319zm-1.797.106c-.386-.004-.76-.031-1.119-.071.15-.782.398-1.425.644-1.936.155-.02.311-.033.471-.033.106 0 .211.007.314.016.301.522.607 1.188.785 2-.366.024-.728.027-1.095.024zM8.29 5.609l.613-.613a7.95 7.95 0 0 0-.172.714c-.16-.028-.29-.068-.441-.101zm3.94 3.465a8.212 8.212 0 0 0 1.857-.472 3.702 3.702 0 0 1-2.654 2.527c.351-.737.622-1.425.797-2.055zm2.012-1.532c0 .081-.007.161-.012.241a7.64 7.64 0 0 1-1.832.556c.071-.394.107-.769.104-1.122a7.702 7.702 0 0 0-.049-.744 8.108 8.108 0 0 0 1.491-.388c.192.446.298.939.298 1.457zM8.633 6.407a8.697 8.697 0 0 0-.05.809c-.001.115.016.235.021.352a4.917 4.917 0 0 0-.552-.508l-.614-.477-.539.419V7l.795-.795c.295.074.603.144.939.202zm2.843 2.734a13.864 13.864 0 0 1-.87 2.098l-.063.003c-.109 0-.217-.007-.324-.016-.094-.209-.167-.416-.248-.623-.009-.073-.016-.143-.029-.234l-.1-.769-.215-.027c-.044-.158-.1-.318-.135-.475a12.098 12.098 0 0 0 1.306.06c.224.001.45-.006.678-.017z" id="iconFg"/><path class="icon-vs-action-blue" d="M5 6.063V1H4v5.081l-2.148-2.14-.707.707L4.485 8l3.352-3.352-.707-.707L5 6.063z" id="colorAction"/></svg>