<svg xmlns="http://www.w3.org/2000/svg" viewBox="0 0 16 16"><style>.icon-canvas-transparent{opacity:0;fill:#f6f6f6}.icon-vs-out{fill:#f6f6f6}.icon-vs-bg{fill:#424242}.icon-vs-fg{fill:#f0eff1}</style><path class="icon-canvas-transparent" d="M16 16H0V0h16v16z" id="canvas"/><path class="icon-vs-out" d="M11 16v-2h-1v-3.039L7.521 13.44 6 11.918V13H5v3H2v-3H1V6H0V0h16v6h-2v1h1v7h-1v2h-3z" id="outline"/><path class="icon-vs-bg" d="M10.047 9.5l-2.525 2.525-.707-.707 1.296-1.303H5v-1h3.127l-1.3-1.308L7.535 7l2.512 2.5zM5 9V7H4V5h3V1H1v4h2v2H2v5h1v3h1v-3h1V9zM2 4V2h4v2H2zm13 1V1H9v4h3v3h-1v5h1v2h1v-2h1V8h-1V5h2zm-5-1V2h4v2h-4z" id="iconBg"/><path class="icon-vs-fg" d="M2 2h4v2H2V2zm8 0v2h4V2h-4z" id="iconFg"/></svg>