<svg xmlns="http://www.w3.org/2000/svg" viewBox="0 0 16 16"><style>.icon-canvas-transparent{opacity:0;fill:#f6f6f6}.icon-vs-out{fill:#f6f6f6}.icon-vs-bg{fill:#424242}.icon-vs-fg{fill:#f0eff1}.icon-vs-action-blue{fill:#00539c}</style><path class="icon-canvas-transparent" d="M16 16H0V0h16v16z" id="canvas"/><path class="icon-vs-out" d="M9.952 6.398l2.811-2.812-2.12-2.12-1.13 1.128V0h-3v2.611L5.364 1.466 3.245 3.585l2.803 2.813A5.007 5.007 0 0 0 3 11c0 2.757 2.243 5 5 5s5-2.243 5-5a5.007 5.007 0 0 0-3.048-4.602z" id="outline"/><path class="icon-vs-fg" d="M8 8a3 3 0 1 0 0 6 3 3 0 0 0 0-6zm2 4H7V9h1v2h2v1z" id="iconFg"/><path class="icon-vs-bg" d="M8 7a4 4 0 1 0 0 8 4 4 0 0 0 0-8zm0 7a3 3 0 1 1 0-6 3 3 0 0 1 0 6zm0-3h2v1H7V9h1v2z" id="iconBg"/><path class="icon-vs-action-blue" d="M8.513 5.002V.989h-1v4.03l-2.148-2.14-.707.707 3.34 3.352 3.352-3.352-.707-.707-2.13 2.123z" id="colorAction"/></svg>