<svg xmlns="http://www.w3.org/2000/svg" viewBox="0 0 16 16"><defs><style>.icon-canvas-transparent,.icon-vs-out{fill:#f6f6f6;}.icon-canvas-transparent{opacity:0;}.icon-vs-bg{fill:#424242;}</style></defs><title>Synchronize_grey_16x</title><g id="canvas"><path class="icon-canvas-transparent" d="M16,16H0V0H16Z"/></g><g id="outline"><path class="icon-vs-out" d="M15,8a6.96,6.96,0,0,1-.372,2.237l.4.233-.5.865a8.024,8.024,0,0,1-6.927,4A7.92,7.92,0,0,1,4,14.461V16H0V8H1a6.987,6.987,0,0,1,.5-2.6L.571,4.864,1.071,4A7.969,7.969,0,0,1,12,1.088V0h4V8Z"/></g><g id="iconBg"><path class="icon-vs-bg" d="M15,1V7H9V5h3a5,5,0,0,0-8.329.5l-1.731-1A6.983,6.983,0,0,1,13,3.12V1ZM7.6,12.333A5,5,0,0,1,4.214,11H7V9H1v6H3V12.583a6.972,6.972,0,0,0,10.665-1.749l-1.732-1A5.018,5.018,0,0,1,7.6,12.333Z"/></g></svg>