<svg xmlns="http://www.w3.org/2000/svg" viewBox="0 0 16 16"><style>.icon-vs-out{fill:#f6f6f6}.icon-canvas-transparent{opacity:0;fill:#f6f6f6}.icon-vs-bg{fill:#424242}.st0{fill:#f6f6f6}</style><g id="canvas"><path class="icon-canvas-transparent" d="M16 16H0V0h16v16zM33 16H17V0h16v16zM50 16H34V0h16v16z"/></g><g id="outline"><path class="st0" d="M6.909 14.996C3.596 14.695 1 11.842 1 8.5c0-1.289.382-2.488 1.031-3.5H1V3.586L3.586 1h5.462l.043.004C12.404 1.305 15 4.158 15 7.5a6.462 6.462 0 0 1-1.031 3.5H15v1.414L12.414 15l-5.505-.004z"/><path class="icon-vs-out" d="M23.739 14.27v-.726l-.621-.219a5.643 5.643 0 0 1-3.759-5.312c0-.897.221-1.77.626-2.551V1.758h6.256v.726l.621.219a5.64 5.64 0 0 1 3.758 5.311c0 .897-.221 1.771-.626 2.551v3.705h-6.255zm-.626-6.256c0 .545.236 1.05.626 1.399V8.014h-.626zm3.754 0c0-.545-.236-1.05-.626-1.399v1.399h.626zM41 13v-.58l-.496-.175A4.51 4.51 0 0 1 37.5 8c0-.717.177-1.415.5-2.039V3h5v.58l.496.175A4.51 4.51 0 0 1 46.5 8c0 .717-.177 1.415-.5 2.039V13h-5zm-.5-5c0 .436.188.839.5 1.118V8h-.5zm3 0c0-.436-.188-.839-.5-1.118V8h.5z"/></g><g id="iconBg"><path class="icon-vs-bg" d="M23.95 10.965l-.415 1.18a4.386 4.386 0 0 1-2.924-4.131c0-1.601.873-2.99 2.16-3.754h-1.534V3.009h3.754V6.763H23.74V5.151a3.13 3.13 0 0 0-1.877 2.863 3.13 3.13 0 0 0 2.087 2.951zm5.433-2.966a4.386 4.386 0 0 0-2.924-4.131l-.415 1.18a3.133 3.133 0 0 1 2.088 2.951 3.13 3.13 0 0 1-1.877 2.863V9.251h-1.251v3.754h3.754v-1.251h-1.534c1.286-.765 2.159-2.153 2.159-3.755zM41.169 10.358l-.332.943A3.504 3.504 0 0 1 38.5 8c0-1.28.698-2.39 1.726-3H39V4h3v3h-1V5.712A2.502 2.502 0 0 0 39.5 8c0 1.059.671 2.007 1.669 2.358zM45.5 8a3.507 3.507 0 0 0-2.337-3.302l-.332.943A2.505 2.505 0 0 1 44.5 8a2.502 2.502 0 0 1-1.5 2.288V9h-1v3h3v-1h-1.226A3.49 3.49 0 0 0 45.5 8zM8.898 2.989l.169-.986c2.655.457 4.582 2.679 4.582 5.283 0 1.977-1.123 3.78-2.911 4.724h2.265v.987l-3.998-.027V9h1v2.247s.095-.03.177-.079c1.505-.729 2.467-2.224 2.467-3.882 0-2.116-1.577-3.924-3.751-4.297zm-5.5 4.725c0-1.658.962-3.153 2.467-3.882.082-.05.156-.079.156-.079V6h.975V2H3.008v1H5.29c-1.787.945-2.892 2.737-2.892 4.714 0 2.604 1.927 4.826 4.582 5.283l.169-.986c-2.173-.374-3.751-2.181-3.751-4.297z"/></g></svg>