<svg xmlns="http://www.w3.org/2000/svg" viewBox="0 0 16 16"><defs><style>.icon-canvas-transparent,.icon-vs-out{fill:#f6f6f6;}.icon-canvas-transparent{opacity:0;}.icon-js-orange{fill:#f16421;}</style></defs><title>JSXScript_16x</title><path class="icon-canvas-transparent" d="M16,0V16H0V0Z"/><path class="icon-vs-out" d="M16,3.593H12.881l-.644,1.148-.613-1.148H8.6a6.086,6.086,0,0,0-1.2-.1,4.637,4.637,0,0,0-1.117.136A3.539,3.539,0,0,0,5.2,4.091l-.032.021v-.52H1.757V8.554c0,.1,0,.187-.01.256L.113,7.686v4.068l.777.279a3.111,3.111,0,0,0,1.1.175,3.044,3.044,0,0,0,2.1-.78l.412.254a2.489,2.489,0,0,0,.6.268,4.558,4.558,0,0,0,.581.145c.188.037.372.063.56.084a4.75,4.75,0,0,0,.5.03,5.458,5.458,0,0,0,1.062-.1h3.6l.723-1.259.7,1.259H16V10.637L14.244,7.823,16,5ZM9.993,7.973v-.34l.106.176Z"/><path class="icon-js-orange" d="M9.257,9.326A1.648,1.648,0,0,1,8.472,10.8a2.494,2.494,0,0,1-.794.316,4.4,4.4,0,0,1-.918.094,3.752,3.752,0,0,1-.4-.025c-.155-.017-.313-.04-.475-.071A3.9,3.9,0,0,1,5.422,11a1.555,1.555,0,0,1-.381-.164l-.092-.057v-1.6l.326.3a1.4,1.4,0,0,0,.294.2,2.364,2.364,0,0,0,.381.159,2.994,2.994,0,0,0,.41.1,2.108,2.108,0,0,0,.368.036,1.55,1.55,0,0,0,.845-.18A.51.51,0,0,0,7.8,9.339a.474.474,0,0,0-.073-.27.891.891,0,0,0-.242-.241,2.809,2.809,0,0,0-.414-.237c-.169-.082-.35-.166-.541-.253-.223-.119-.422-.233-.6-.35a2.633,2.633,0,0,1-.5-.408,1.769,1.769,0,0,1-.349-.523,1.71,1.71,0,0,1-.13-.688,1.606,1.606,0,0,1,.224-.851A1.832,1.832,0,0,1,5.74,4.93,2.546,2.546,0,0,1,6.522,4.6,3.663,3.663,0,0,1,7.4,4.49a3.48,3.48,0,0,1,1.486.238l.109.053v1.5l-.308-.221a2.064,2.064,0,0,0-1.228-.339,2.2,2.2,0,0,0-.413.039,1.151,1.151,0,0,0-.344.12.667.667,0,0,0-.225.2.426.426,0,0,0-.074.258.509.509,0,0,0,.06.258.723.723,0,0,0,.2.214,2.394,2.394,0,0,0,.37.222c.157.078.336.161.54.25.232.12.438.239.632.365a3.072,3.072,0,0,1,.533.433,2,2,0,0,1,.378.546A1.653,1.653,0,0,1,9.257,9.326Zm-6.5-.772c0,1.235-.469,1.377-.822,1.377A.9.9,0,0,1,1.419,9.8l-.305-.21V11.05l.127.046A2.165,2.165,0,0,0,2,11.208a2.02,2.02,0,0,0,1.58-.67,2.652,2.652,0,0,0,.587-1.822V4.593H2.758Zm10.309-.73,2.008-3.231H13.467s-1.234,2.2-1.25,2.232L11.025,4.593H9.32l1.96,3.235L9.144,11.105h1.7l1.314-2.286,1.278,2.286h1.681Z"/></svg>