<svg xmlns="http://www.w3.org/2000/svg" viewBox="0 0 16 16"><defs><style>.icon-canvas-transparent,.icon-vs-out{fill:#f6f6f6;}.icon-canvas-transparent{opacity:0;}.icon-py-green{fill:#879636;}</style></defs><title>PY_16x</title><g id="canvas"><path class="icon-canvas-transparent" d="M16,0V16H0V0Z"/></g><g id="outline"><path class="icon-vs-out" d="M15,3V4.271L12.375,8.78V12H8.559V8.8L8.047,7.9a3.246,3.246,0,0,1-.718.825A4.31,4.31,0,0,1,4.7,9.585V12H1V3H4.668c.227,0,.437.01.637.028L5.289,3H9.7l.879,1.767L11.461,3Z"/></g><g id="iconBg"><path class="icon-py-green" d="M4.668,4H2v7H3.7V8.588h.812a3.425,3.425,0,0,0,2.191-.651,2.075,2.075,0,0,0,.82-1.707Q7.527,4,4.668,4ZM4.373,7.392H3.7V5.211h.669q1.362,0,1.361,1.079Q5.734,7.393,4.373,7.392ZM14,4,11.375,8.511V11H9.559V8.54L7,4H9.076l1.3,2.611c.023.05.086.24.187.573h.022a2.331,2.331,0,0,1,.175-.553L12.078,4Z"/></g></svg>