<svg xmlns="http://www.w3.org/2000/svg" viewBox="0 0 16 16"><defs><style>.cls-1,.cls-2{fill:#f6f6f6;}.cls-1{opacity:0;}.cls-3{fill:#424242;}.cls-4{fill:#879636;}.cls-5{fill:#f0eff1;}</style></defs><title>PY_ProjectSENode_16x</title><g id="outline"><rect class="cls-1" width="16" height="16"/><path class="cls-2" d="M16,1V15H0V1Z"/></g><g id="icon_bg"><path class="cls-3" d="M5.225,5H3v6H4.42V8.933H5.1a2.8,2.8,0,0,0,1.826-.559,1.8,1.8,0,0,0,.682-1.462Q7.605,5,5.225,5ZM4.979,7.907H4.42V6.038h.559q1.132,0,1.132.925Q6.111,7.908,4.979,7.907Z"/><path class="cls-3" d="M9.529,8.892,7.529,5H9.15l1.016,2.238c.018.043.066.2.144.491h.018a2.133,2.133,0,0,1,.137-.474L11.5,5H13L10.948,8.866V11H9.529Z"/></g><g id="color_importance"><path class="cls-4" d="M1,2V14H15V2ZM14,13H2V3H14Z"/></g><g id="icon_fg"><path class="cls-5" d="M6.111,6.963q0,.945-1.132.944H4.42V6.038h.559Q6.111,6.038,6.111,6.963ZM14,3V13H2V3ZM7.605,6.912Q7.605,5,5.225,5H3v6H4.42V8.933H5.1a2.8,2.8,0,0,0,1.826-.559A1.8,1.8,0,0,0,7.605,6.912ZM13,5H11.5L10.465,7.255a2.133,2.133,0,0,0-.137.474H10.31c-.078-.286-.126-.448-.144-.491L9.15,5H7.529l2,3.892V11h1.419V8.866Z"/></g></svg>