<svg xmlns="http://www.w3.org/2000/svg" viewBox="0 0 16 16"><defs><style>.icon-canvas-transparent,.icon-vs-out{fill:#f6f6f6;}.icon-canvas-transparent{opacity:0;}.icon-vs-fg{fill:#f0eff1;}.icon-vs-bg{fill:#424242;}</style></defs><title>Zoom_16x</title><g id="canvas"><path class="icon-canvas-transparent" d="M0,0H16V16H0Z"/></g><g id="outline"><path class="icon-vs-out" d="M5.833,0a5.84,5.84,0,0,1,5.834,5.833,5.694,5.694,0,0,1-.8,2.912l4.694,4.694a1.5,1.5,0,0,1-2.122,2.122L8.746,10.867a5.688,5.688,0,0,1-2.913.8A5.834,5.834,0,0,1,5.833,0Z"/></g><g id="iconFg"><path class="icon-vs-fg" d="M5.833,2A3.834,3.834,0,1,1,2,5.833,3.838,3.838,0,0,1,5.833,2Z"/></g><g id="iconBg"><path class="icon-vs-bg" d="M1,5.833a4.839,4.839,0,0,0,4.833,4.834,4.783,4.783,0,0,0,3.029-1.1l5.284,5.285a.5.5,0,1,0,.707-.708L9.569,8.862a4.786,4.786,0,0,0,1.1-3.029A4.834,4.834,0,0,0,1,5.833Zm1,0A3.834,3.834,0,1,1,5.833,9.667,3.838,3.838,0,0,1,2,5.833Z"/></g></svg>