<svg xmlns="http://www.w3.org/2000/svg" viewBox="0 0 16 16"><defs><style>.icon-canvas-transparent,.icon-vs-out{fill:#f6f6f6;}.icon-canvas-transparent{opacity:0;}.icon-vs-bg{fill:#424242;}</style></defs><title>RegistersWindow_16x</title><g id="canvas"><path class="icon-canvas-transparent" d="M16,0V16H0V0Z"/></g><g id="outline"><path class="icon-vs-out" d="M16,2V14H0V2Z"/></g><g id="iconBg"><path class="icon-vs-bg" d="M1,3V13H15V3Zm13,9H2V4H14Z"/><path class="icon-vs-bg" d="M6,5H5A1,1,0,0,0,4,6v4a1,1,0,0,0,1,1H6a1,1,0,0,0,1-1V6A1,1,0,0,0,6,5Zm0,5H5V6H6Zm4.438-1.969L11.625,11H10.438L9.844,9.516,9.25,11H8.063L9.25,8.031,8.063,5.063H9.25l.594,1.484.594-1.484h1.187Z"/></g></svg>