<svg xmlns="http://www.w3.org/2000/svg" viewBox="0 0 16 16"><defs><style>.icon-canvas-transparent,.icon-vs-out{fill:#f6f6f6;}.icon-canvas-transparent{opacity:0;}.icon-vs-action-orange{fill:#c27d1a;}.icon-vs-bg{fill:#424242;}.icon-vs-action-green{fill:#388a34;}</style></defs><title>WorkItem_16x</title><g id="canvas"><path class="icon-canvas-transparent" d="M16,0V16H0V0Z"/></g><g id="outline"><path class="icon-vs-out" d="M16,7.586v.535l-2,2V16H2V3H4V2H5.181a3,3,0,0,1,5.658,0H12V3h2V5.879l.146-.147Z"/></g><g id="iconBg"><path class="icon-vs-action-orange" d="M7.879,14l1,1H3V4H5V5H4v9ZM12,14H10.121l-1,1H13V11.121l-1,1ZM11,4V5h1V7.879l1-1V4Z"/><path class="icon-vs-bg" d="M10.01,3a2,2,0,0,0-4,0H5V5h6V3ZM8.02,4a1,1,0,1,1,.99-1A.991.991,0,0,1,8.02,4Z"/></g><g id="colorImportance"><path class="icon-vs-action-green" d="M14.854,7.854,9,13.707,6.146,10.854l.708-.708L9,12.293l5.146-5.147Z"/></g></svg>