<svg xmlns="http://www.w3.org/2000/svg" viewBox="0 0 16 16"><defs><style>.icon-canvas-transparent,.icon-vs-out{fill:#f6f6f6;}.icon-canvas-transparent{opacity:0;}.icon-vs-bg{fill:#424242;}</style></defs><title>WorkItem_grey_16x</title><g id="canvas"><path class="icon-canvas-transparent" d="M16,0V16H0V0Z"/></g><g id="outline"><path class="icon-vs-out" d="M16,7.586,14.146,5.732,14,5.879V3H12V2H10.839A3,3,0,0,0,5.181,2H4V3H2V16H14V10.121l2-2Z"/></g><g id="iconBg"><path class="icon-vs-bg" d="M12,12.121l1-1V15H9.121l1-1H12ZM7.879,14l1,1H3V4H5V3H6.01a2,2,0,0,1,4,0H11V4h2V6.879l-1,1V5H4v9ZM7.01,3A1.008,1.008,0,0,0,8.02,4,1,1,0,1,0,7.01,3Zm7.136,4.146L9,12.293,6.854,10.146l-.708.708L9,13.707l5.854-5.853Z"/></g></svg>