<svg xmlns="http://www.w3.org/2000/svg" viewBox="0 0 16 16"><defs><style>.icon-canvas-transparent,.icon-vs-out{fill:#f6f6f6;}.icon-canvas-transparent{opacity:0;}.icon-vs-bg{fill:#424242;}.vs-control-hyperlink-blue{fill:#0e70c0;}.icon-white{fill:#fff;}</style></defs><title>PowerShellProject_16x</title><g id="canvas"><path class="icon-canvas-transparent" d="M16,0V16H0V0Z"/></g><g id="outline"><path class="icon-vs-out" d="M16,15H9.278a1.346,1.346,0,0,1-1.3,1H1.35a1.332,1.332,0,0,1-1.3-1H0V1H16Z"/></g><g id="iconBg"><path class="icon-vs-bg" d="M1,2v8.484l.615-2.462A1.336,1.336,0,0,1,2,7.388V5H14v8H9.782l-.25,1H15V2Z"/></g><g id="colorImportance"><path class="vs-control-hyperlink-blue" d="M9.893,8.435l-1.575,6.3A.35.35,0,0,1,7.979,15H1.35a.349.349,0,0,1-.339-.435l1.575-6.3A.35.35,0,0,1,2.925,8H9.554A.35.35,0,0,1,9.893,8.435Z"/><path class="icon-white" d="M5.248,11l-2,2a.35.35,0,0,1-.5,0,.35.35,0,0,1,0-.494L4.505,10.75,3.752,10a.35.35,0,0,1,.5-.494l1,1A.35.35,0,0,1,5.248,11ZM6.5,13.15h-2a.35.35,0,0,0,0,.7h2a.35.35,0,1,0,0-.7Z"/></g></svg>