<svg xmlns="http://www.w3.org/2000/svg" viewBox="0 0 16 16"><defs><style>.icon-canvas-transparent,.icon-vs-out{fill:#f6f6f6;}.icon-canvas-transparent{opacity:0;}.cls-1{fill:#424242;}</style></defs><title>MenuItem_grey_16x</title><g id="canvas"><rect class="icon-canvas-transparent" width="16" height="16"/></g><g id="outline"><polygon class="icon-vs-out" points="10 3 10 0 0 0 0 3 0 5 0 16 16 16 16 3 10 3"/></g><g id="iconBg"><path class="cls-1" d="M9,4V1H1V15H15V4ZM2,2H8V4H2ZM14,14H2V11H14ZM3,10V9H13v1ZM14,8H2V5H14Z"/><rect class="cls-1" x="3" y="6" width="7" height="1"/><rect class="cls-1" x="3" y="12" width="8" height="1"/><path class="cls-1" d="M9,4V1H1V15H15V4ZM2,2H8V4H2ZM14,14H2V11H14ZM3,10V9H13v1ZM14,8H2V5H14Z"/><rect class="cls-1" x="3" y="6" width="7" height="1"/><rect class="cls-1" x="3" y="12" width="8" height="1"/><path class="cls-1" d="M1,8v3H15V8Zm12,2H3V9H13Z"/></g></svg>