<svg xmlns="http://www.w3.org/2000/svg" viewBox="0 0 16 16"><defs><style>.icon-canvas-transparent,.icon-vs-out{fill:#f6f6f6;}.icon-canvas-transparent{opacity:0;}.icon-vs-action-blue{fill:#00539c;}</style></defs><title>VB_16x</title><g id="canvas"><path class="icon-canvas-transparent" d="M16,16H0V0H16Z"/></g><g id="outline"><path class="icon-vs-out" d="M15,8.91a2.772,2.772,0,0,1-1.2,2.338A4.584,4.584,0,0,1,11.07,12H7V10.521L6.535,12h-3.1L1,4.151V3H4.312l.711,2.6L5.73,3h5.178a4.953,4.953,0,0,1,2.569.571,2.35,2.35,0,0,1,1.206,2.07,2.308,2.308,0,0,1-.495,1.434A2.447,2.447,0,0,1,15,8.91Z"/></g><g id="colorImportance"><path class="icon-vs-action-blue" d="M6.5,4H8L5.8,11H4.172L2,4H3.549l1.33,4.872a3.644,3.644,0,0,1,.129.7h.027a4.323,4.323,0,0,1,.139-.717ZM14,8.91a1.78,1.78,0,0,1-.785,1.525A3.607,3.607,0,0,1,11.07,11H8V4h2.908a4.049,4.049,0,0,1,2.056.43,1.362,1.362,0,0,1,.281,2.2,2.378,2.378,0,0,1-1.116.591v.019a2.356,2.356,0,0,1,1.361.553A1.446,1.446,0,0,1,14,8.91ZM9.8,6.821h.791a1.457,1.457,0,0,0,.878-.236.766.766,0,0,0,.321-.651c0-.516-.439-.772-1.315-.772H9.8Zm2.306,2.07a.761.761,0,0,0-.347-.66,1.717,1.717,0,0,0-.973-.238H9.8V9.838h.974a1.646,1.646,0,0,0,.979-.254A.806.806,0,0,0,12.105,8.891Z"/></g></svg>