<svg xmlns="http://www.w3.org/2000/svg" viewBox="0 0 16 16"><defs><style>.icon-canvas-transparent,.icon-vs-out{fill:#f6f6f6;}.icon-canvas-transparent{opacity:0;}.icon-vs-bg{fill:#424242;}.icon-vs-fg{fill:#f0eff1;}.icon-vs-action-blue{fill:#00539c;}</style></defs><title>VB_ProjectSENode_16x</title><g id="canvas"><rect class="icon-canvas-transparent" width="16" height="16"/></g><g id="outline"><path class="icon-vs-out" d="M16,1V15H0V1Z"/></g><g id="iconBg"><path class="icon-vs-bg" d="M4.811,11,3,5H4.291L5.4,9.176a3.33,3.33,0,0,1,.108.6H5.53a3.78,3.78,0,0,1,.115-.615L6.746,5H8L6.168,11ZM8,11V5h2.424a3.3,3.3,0,0,1,1.713.368,1.187,1.187,0,0,1,.234,1.887,1.955,1.955,0,0,1-.931.507v.016a1.933,1.933,0,0,1,1.136.474A1.255,1.255,0,0,1,13,9.209a1.543,1.543,0,0,1-.654,1.308A2.948,2.948,0,0,1,10.559,11ZM9.5,7.418h.659a1.185,1.185,0,0,0,.732-.2.667.667,0,0,0,.266-.559q0-.662-1.1-.661H9.5ZM9.5,10h.812a1.34,1.34,0,0,0,.815-.218.7.7,0,0,0,.295-.594.657.657,0,0,0-.29-.565,1.394,1.394,0,0,0-.81-.2H9.5Z"/></g><g id="iconFg"><path class="icon-vs-fg" d="M10.159,7.418H9.5V6h.562q1.1,0,1.1.661a.667.667,0,0,1-.266.559A1.185,1.185,0,0,1,10.159,7.418Zm.163,1H9.5V10h.812a1.34,1.34,0,0,0,.815-.218.7.7,0,0,0,.295-.594.657.657,0,0,0-.29-.565A1.394,1.394,0,0,0,10.322,8.423ZM14,3V13H2V3ZM13,9.209a1.255,1.255,0,0,0-.424-.957,1.933,1.933,0,0,0-1.136-.474V7.762a1.955,1.955,0,0,0,.931-.507,1.187,1.187,0,0,0-.234-1.887A3.3,3.3,0,0,0,10.424,5H6.746l-1.1,4.159a3.78,3.78,0,0,0-.115.615H5.508a3.33,3.33,0,0,0-.108-.6L4.291,5H3l1.811,6H6.168L8,5v6h2.559a2.948,2.948,0,0,0,1.787-.483A1.543,1.543,0,0,0,13,9.209Z"/></g><g id="colorImportance"><path class="icon-vs-action-blue" d="M1,2V14H15V2ZM14,13H2V3H14Z"/></g></svg>