<svg xmlns="http://www.w3.org/2000/svg" viewBox="0 0 16 16"><style>.icon-canvas-transparent{opacity:0;fill:#f6f6f6}.icon-vs-out{fill:#f6f6f6}.icon-vs-bg{fill:#424242}.icon-vs-fg{fill:#f0eff1}</style><path class="icon-canvas-transparent" d="M16 16H0V0h16v16z" id="canvas"/><path class="icon-vs-out" d="M16 4.208V16H0V7.017h3V0h8.832L16 4.208z" id="outline"/><path class="icon-vs-fg" d="M14 5h-3V2l3 3zm-4-3H5V7.017h4.033V14H14V6h-4V2zM7 9H2v5h5V9z" id="iconFg"/><path class="icon-vs-bg" d="M6 10v3H5v-1.293l-1.535 1.535-.707-.707L4.293 11H3v-1h3zm2-2v7H1V8h7zM7 9H2v5h5V9zm4.442-8H4v6.017h1V2h5v4h4v8H9.033v1H15V4.562L11.442 1zM11 5V2l3 3h-3z" id="iconBg"/></svg>