<svg xmlns="http://www.w3.org/2000/svg" viewBox="0 0 16 16"><style>.icon-canvas-transparent{opacity:0;fill:#f6f6f6}.icon-vs-out{fill:#f6f6f6}.icon-vs-bg{fill:#424242}.icon-vs-fg{fill:#f0eff1}.icon-vs-action-blue{fill:#00539c}</style><path class="icon-canvas-transparent" d="M16 16H0V0h16v16z" id="canvas"/><path class="icon-vs-out" d="M12 7V0H0v10h.025v2.512h3.608l-1.084 1.084 2.115 2.114L6 14.399V16h7v-2h2v-2h1V7h-4z" id="outline"/><path class="icon-vs-bg" d="M13 10h2v1h-2v-1zm-4 3h5v-1H9v1zm2-5v1h4V8h-4zm-4 7h5v-1H7v1zm3-6V8H7v.605L7.403 9H10zM8 2H4v4.976L2.976 8H2v1H1V1h10v6h-1V6H9v1H8V2zm1 1h1V2H9v1zm0 2h1V4H9v1zM3 6H2v1h1V6zm0-2H2v1h1V4zm0-2H2v1h1V2zm9 9v-1H9v.568l.44.432H12z" id="iconBg"/><path class="icon-vs-fg" d="M2 2h1v1H2V2zm7 3h1V4H9v1zm0-3v1h1V2H9zm0 5h1V6H9v1zM2 5h1V4H2v1zm0 2h1V6H2v1zm1 1.877l-.451-.451L2.976 8H2v1h1v-.123zM4 7h1.414L6 7.586V7h2V2H4v5z" id="iconFg"/><path class="icon-vs-action-blue" d="M4.671 14.303l-.707-.707 2.084-2.084H1.026V10.51h5.022L3.964 8.426l.707-.707 3.354 3.291-3.354 3.293z" id="colorAction"/></svg>