<svg xmlns="http://www.w3.org/2000/svg" viewBox="0 0 16 16"><defs><style>.icon-canvas-transparent,.icon-vs-out{fill:#f6f6f6;}.icon-canvas-transparent{opacity:0;}.icon-vs-bg{fill:#424242;}.icon-vs-action-blue{fill:#00539c;}</style></defs><title>OpenProject_16x</title><g id="canvas"><path class="icon-canvas-transparent" d="M16,16H0V0H16Z"/></g><g id="outline"><path class="icon-vs-out" d="M16,5.377V14H14v2H4V9H3.5a3.5,3.5,0,0,1,0-7h1l-.9-.9L4.711,0H6.747l2,2h3.874Z"/></g><g id="iconFg"><path class="icon-vs-bg" d="M12.207,3H9.746l.5.5-.5.5h2.047L14,6.207V12H13V7.792L10.207,5H8.746l-1,1H9V9h3v5H6V7.745l-.272.273L5,7.289V15h8V13h2V5.792ZM10,8V6.207L11.793,8Z"/></g><g id="colorAction"><path class="icon-vs-action-blue" d="M8.832,3.5l-3.1,3.1L5.022,5.9,6.919,4H3.5a1.5,1.5,0,0,0,0,3V8a2.5,2.5,0,0,1,0-5H6.918l-1.9-1.9L5.729.4Z"/></g></svg>