<svg xmlns="http://www.w3.org/2000/svg" viewBox="0 0 16 16"><defs><style>.icon-canvas-transparent,.icon-vs-out{fill:#f6f6f6;}.icon-canvas-transparent{opacity:0;}.icon-js-orange{fill:#f16421;}</style></defs><title>JS_16x</title><g id="canvas"><path class="icon-canvas-transparent" d="M16,16H0V0H16Z"/></g><g id="outline"><path class="icon-vs-out" d="M10.018,13a5.685,5.685,0,0,1-2.431-.474L7,12.255v-.341a.055.055,0,0,1-.02.037A3.816,3.816,0,0,1,4.138,13a4.363,4.363,0,0,1-1.479-.246L2,12.517V8.5L3.552,9.525a.805.805,0,0,0,.469.137c.086,0,.007-.013.015-.016A2.329,2.329,0,0,1,4,9.088V4H8v.876c.057-.047.117-.093.179-.138A4.4,4.4,0,0,1,10.8,4a7.747,7.747,0,0,1,2.363.316L14,4.551v3.9l-.445-.168a2.529,2.529,0,0,1,.529,1.7,2.749,2.749,0,0,1-1.022,2.132A4.6,4.6,0,0,1,10.018,13Z"/></g><g id="iconBg"><path class="icon-js-orange" d="M3,10.359a1.81,1.81,0,0,0,1.02.3q1.213,0,1.213-1.574V5H7V9.15a2.88,2.88,0,0,1-.719,2.1A2.865,2.865,0,0,1,4.146,12,3.348,3.348,0,0,1,3,11.812Zm9.47-1.6a5.169,5.169,0,0,0-1.462-.845,4.021,4.021,0,0,1-.932-.491.681.681,0,0,1-.256-.543.571.571,0,0,1,.292-.5A1.425,1.425,0,0,1,10.9,6.2a3.326,3.326,0,0,1,1.766.472V5.26A5.7,5.7,0,0,0,10.8,5a3.416,3.416,0,0,0-2.037.55A1.713,1.713,0,0,0,8,7.011Q8,8.262,9.755,8.993a5.738,5.738,0,0,1,1.061.525.751.751,0,0,1,.364.593.569.569,0,0,1-.245.468,1.446,1.446,0,0,1-.874.222,3.29,3.29,0,0,1-2.029-.69v1.512A4.619,4.619,0,0,0,10.018,12a3.591,3.591,0,0,0,2.356-.651A1.71,1.71,0,0,0,13,9.98,1.611,1.611,0,0,0,12.47,8.762Z"/></g></svg>