<svg xmlns="http://www.w3.org/2000/svg" viewBox="0 0 16 16"><style>.icon-canvas-transparent{opacity:0;fill:#f6f6f6}.icon-vs-out{fill:#f6f6f6}.icon-vs-bg{fill:#424242}.icon-vs-fg{fill:#f0eff1}</style><path class="icon-canvas-transparent" d="M16 16H0V0h16v16z" id="canvas"/><path class="icon-vs-out" d="M9 1v2H7.525l-.441-.441L6 3.643V.001H3.024v3.641L1.94 2.559 0 4.499v.35l1 1.022V12h2v2h1v1h3v-1h1v-2h2v1h3v-1h1v-2h1l1-.01V3h-2V1h-1V0h-3v1H9zM4 9v-.063L4.061 9H4zm3 0H4.963l.979-1H7v1zm6-3v1h-3V5.999L13 6z" id="outline"/><path class="icon-vs-bg" d="M6 12h1v1H6v1H5v-1H4v-1h2zm6-9h1V2h-1V1h-1v1h-1v1h2zm-1 7h-1v1h1v1h1v-1h1v-1h-2zM8.525 4l.672.672-.32.328H14v3h-4v1h5V4H8.525zm-.627 2l-.732.748L6.92 7H8v3H3V7.915l-.014-.014L2 6.893V11h7V6H7.898zm-.107-1.32l-.707-.708L5 6.056V1.001h-.976v5.055L1.94 3.972l-.707.708 3.279 3.352L7.791 4.68z" id="iconBg"/><path class="icon-vs-fg" d="M14 5v3h-4V5h4zM4.5 9.5L3 8v2h5V7H7L4.5 9.5z" id="iconFg"/></svg>