<svg xmlns="http://www.w3.org/2000/svg" viewBox="0 0 16 16"><style>.icon-canvas-transparent{opacity:0;fill:#f6f6f6}.icon-vs-out{fill:#f6f6f6}.icon-vs-bg{fill:#424242}.icon-vs-fg{fill:#f0eff1}.icon-vs-yellow{fill:#fc0}</style><path class="icon-canvas-transparent" d="M16 16H0V0h16v16z" id="canvas"/><path class="icon-vs-out" d="M16 14l-1 2H8l-1-2H1V4H0V0h3a4 4 0 0 1 3.863 3H15v9l1 2z" id="outline"/><path class="icon-vs-bg" d="M3 12h5l-.5 1H2V8.414l1 1V12zm4.414-3H9.5l.5-1H8.414l-1 1zm-2 2H8.5l.5-1H6.414l-1 1zM2.341 5.472l-.707.707 3.352 3.352 3.34-3.352-.707-.707-2.148 2.14.001-3.857c0-.712-.202-1.274-.6-1.672-.394-.394-.948-.593-1.659-.593H1v1h2.222c.184-.003.644 0 .944.301.203.203.307.527.307.964l-.002 3.839-2.13-2.122zM7.621 4l.941 1H13v3l1 2V4H7.621zm2.118 2.178L9 6.92V7h3V6H9.561l.178.178zM4.586 11L4 10.414V11h.586z" id="iconBg"/><path class="icon-vs-fg" d="M13 5v3l-.5-1H12V6H9.561l-1-1H13zM9 7.414L8.414 8H10l.5-1H9v.414zM6.414 10H9l.5-1H7.414l-1 1zm-1.828 1H4v-.586l-1-1V12h5l.5-1H4.586z" id="iconFg"/><path class="icon-vs-yellow" d="M11.891 8.016h-.781l-3.016 6 .515.984h5.766l.484-1-2.968-5.984zM12 14h-1v-1h1v1zm0-2h-1v-2h1v2z" id="notificationBg"/><path class="icon-black" d="M12 10v2h-1v-2h1zm-1 4h1v-1h-1v1z" id="notificationFg"/></svg>