<svg xmlns="http://www.w3.org/2000/svg" viewBox="0 0 16 16"><defs><style>.icon-canvas-transparent,.icon-vs-out{fill:#f6f6f6;}.icon-canvas-transparent{opacity:0;}.icon-vs-bg{fill:#424242;}</style></defs><title>SourceFileGroup_16x</title><g id="canvas"><path class="icon-canvas-transparent" d="M16,0V16H0V0Z"/></g><g id="outline"><path class="icon-vs-out" d="M16,3.379V14H12v2H0V2H4V0h8.621Z"/></g><g id="iconBg"><path class="icon-vs-bg" d="M4,8H7V9H4ZM3,13H7V12H3ZM5,6H3V7H5ZM4,11H8V10H4ZM9,8H8V9H9Zm3.207-7H5V2h6.793L14,4.207V12H12v1h3V3.793Zm-4,2L11,5.793V15H1V3ZM10,7H7V4H2V14h8ZM9.793,6,8,4.207V6Z"/></g></svg>