<svg xmlns="http://www.w3.org/2000/svg" viewBox="0 0 16 16"><defs><style>.icon-canvas-transparent,.icon-vs-out{fill:#f6f6f6;}.icon-canvas-transparent{opacity:0;}.icon-vs-bg{fill:#424242;}.icon-vs-fg{fill:#f0eff1;}.icon-vs-action-green{fill:#388a34;}</style></defs><title>Media_16x</title><g id="canvas"><path class="icon-canvas-transparent" d="M16,16H0V0H16Z"/></g><g id="outline"><path class="icon-vs-out" d="M0,15V2H16V15Z"/></g><g id="iconBg"><path class="icon-vs-bg" d="M1,3V14H15V3ZM14,13H13V12H12v1H4V12H3v1H2V4H3V5H4V4h8V5h1V4h1ZM3,6H4V7H3ZM3,8H4V9H3Zm0,2H4v1H3Zm9,0h1v1H12Zm0-2h1V9H12Zm0-2h1V7H12Z"/></g><g id="iconFg"><path class="icon-vs-fg" d="M13,5H12V4H4V5H3V4H2v9H3V12H4v1h8V12h1v1h1V4H13ZM4,11H3V10H4ZM4,9H3V8H4ZM4,7H3V6H4Zm2,4.435V5.566L10.4,8.5ZM13,11H12V10h1Zm0-2H12V8h1Zm0-2H12V6h1ZM8.6,8.5,7,9.565V7.434Z"/></g><g id="colorImportance"><path class="icon-vs-action-green" d="M6,11.435,10.4,8.5,6,5.566Zm1-4L8.6,8.5,7,9.565Z"/></g></svg>