<svg xmlns="http://www.w3.org/2000/svg" viewBox="0 0 16 16"><defs><style>.icon-canvas-transparent,.icon-vs-out{fill:#f6f6f6;}.icon-canvas-transparent{opacity:0;}.icon-ts-orange{fill:#e04c06;}</style></defs><title>TS_16x</title><g id="canvas"><path class="icon-canvas-transparent" d="M16,0V16H0V0Z"/></g><g id="outline"><path class="icon-vs-out" d="M14.53,8.975a2.706,2.706,0,0,1-.977,2.127,4.471,4.471,0,0,1-3,.888,5.609,5.609,0,0,1-2.409-.473l-.571-.272V7.1l.331.25A2.57,2.57,0,0,1,7.56,6.282H6.569V12H2.986V6.282H1V3H8.565v.889c.055-.046.1-.1.157-.141a4.38,4.38,0,0,1,2.614-.737,6.609,6.609,0,0,1,2.188.315l.67.234v3.9l-.26-.159A2.6,2.6,0,0,1,14.53,8.975Z"/></g><g id="iconBg"><path class="icon-ts-orange" d="M2,4H7.565V5.282h-2V11H3.986V5.282H2ZM13,7.76a5.163,5.163,0,0,0-1.457-.842,4.015,4.015,0,0,1-.931-.49.68.68,0,0,1-.255-.541.571.571,0,0,1,.291-.494,1.433,1.433,0,0,1,.783-.188,3.317,3.317,0,0,1,1.761.471V4.268a5.7,5.7,0,0,0-1.858-.259,3.4,3.4,0,0,0-2.03.549,1.709,1.709,0,0,0-.761,1.456q0,1.248,1.75,1.977a5.8,5.8,0,0,1,1.059.523.752.752,0,0,1,.362.592.566.566,0,0,1-.245.466,1.435,1.435,0,0,1-.87.222,3.284,3.284,0,0,1-2.024-.688v1.507a4.609,4.609,0,0,0,1.98.377,3.578,3.578,0,0,0,2.349-.65,1.708,1.708,0,0,0,.624-1.365A1.6,1.6,0,0,0,13,7.76Z"/></g></svg>