<svg xmlns="http://www.w3.org/2000/svg" viewBox="0 0 16 16"><defs><style>.icon-canvas-transparent,.icon-vs-out{fill:#f6f6f6;}.icon-canvas-transparent{opacity:0;}.icon-ts-orange{fill:#e04c06;}.icon-vs-bg{fill:#424242;}</style></defs><title>TS_ProjectSENode_16x</title><g id="canvas"><path class="icon-canvas-transparent" d="M16,0V16H0V0Z"/></g><g id="outline"><path class="icon-vs-out" d="M16,1V15H0V1Z"/></g><g id="iconBg"><path class="icon-ts-orange" d="M1,1.975V14H15V1.975ZM14,13H2V3H14Z"/><path class="icon-vs-bg" d="M3,4.978H7.787v1.1H6.069V11H4.709V6.082H3Zm9.124,3.245A4.45,4.45,0,0,0,10.87,7.5a3.416,3.416,0,0,1-.8-.422.582.582,0,0,1-.219-.465.49.49,0,0,1,.25-.425,1.219,1.219,0,0,1,.672-.162,2.852,2.852,0,0,1,1.515.405V5.219A4.889,4.889,0,0,0,10.691,5a2.934,2.934,0,0,0-1.747.471A1.471,1.471,0,0,0,8.291,6.72q0,1.074,1.5,1.7a5.053,5.053,0,0,1,.911.451.648.648,0,0,1,.312.509.486.486,0,0,1-.211.4,1.226,1.226,0,0,1-.748.192A2.83,2.83,0,0,1,8.318,9.38v1.3a3.964,3.964,0,0,0,1.7.323,3.06,3.06,0,0,0,2.02-.56,1.461,1.461,0,0,0,.537-1.172A1.38,1.38,0,0,0,12.124,8.223Z"/></g></svg>