<svg xmlns="http://www.w3.org/2000/svg" viewBox="0 0 16 16"><defs><style>.icon-canvas-transparent,.icon-vs-out{fill:#f6f6f6;}.icon-canvas-transparent{opacity:0;}.icon-vs-action-blue{fill:#00539c;}.cls-1{fill:#424242;}</style></defs><title>StepIn_16x</title><g id="canvas"><path class="icon-canvas-transparent" d="M16,0V16H0V0Z"/></g><g id="outline"><path class="icon-vs-out" d="M15,5V16H4V12H1V2H5.512A2.495,2.495,0,0,1,9.5,5Z"/></g><g id="colorAction"><path class="icon-vs-action-blue" d="M11.207,10.5,8.354,13.354l-.708-.708L9.293,11H2V3H7V4H3v6H9.293L7.646,8.354l.708-.708Z"/></g><g id="iconBg"><path class="cls-1" d="M14,6v9H5V12H6v2h7V7H6V9H5V6ZM7.5,5A1.5,1.5,0,1,0,6,3.5,1.5,1.5,0,0,0,7.5,5Z"/></g></svg>