<svg xmlns="http://www.w3.org/2000/svg" viewBox="0 0 16 16"><defs><style>.icon-canvas-transparent-,.icon-vs-out{fill:#f6f6f6}.icon-canvas-transparent-{opacity:0}.icon-vs-fg{fill:#f0eff1}.icon-folder{fill:#dcb67a}.icon-vs-bg{fill:#424242}</style></defs><title>PackageFolderOpen_16x</title><path class="icon-canvas-transparent-" d="M0 0h16v16H0z"/><path class="icon-vs-out" d="M16 6v1.2L13.677 13H9v3H0V2a1.942 1.942 0 0 1 2-2h7.116l1 2H13a1.959 1.959 0 0 1 2 2v2z"/><path class="icon-vs-fg" d="M13 4v3H7.7a2.265 2.265 0 0 0-1.363-.788 2.386 2.386 0 0 0-.38-.031 2.052 2.052 0 0 0-1.457.581 2.051 2.051 0 0 0-1.46-.582 2.384 2.384 0 0 0-.389.033A2.268 2.268 0 0 0 2 6.44V2h6l1 2zM2 14h2v-4H2zm3 0h2v-4H5z"/><path class="icon-folder" d="M14 7V4c0-1-1.236-1-1-1H9.5l-1-2H2a.979.979 0 0 0-1 1v5.447a2.3 2.3 0 0 1 .172-.3A2.263 2.263 0 0 1 2 6.44V2h6l1 2h4v3H7.7c.041.048.087.091.124.143A2.289 2.289 0 0 1 8.2 8H9v4h4l2-5z"/><path class="icon-vs-bg" d="M7.232 8.68A1.286 1.286 0 0 0 6.181 7.2a1.365 1.365 0 0 0-1.44.927c-.037.074-.132.284-.241.527-.109-.243-.2-.453-.24-.525A1.362 1.362 0 0 0 2.819 7.2a1.285 1.285 0 0 0-1.051 1.48 1.166 1.166 0 0 0 .113.32H1v6h7V9h-.881a1.165 1.165 0 0 0 .113-.32zm-4.265-.615c.119-.021.258-.044.508.457.034.067.12.258.218.478h-.546c-.1-.056-.2-.11-.262-.152-.223-.152-.244-.274-.25-.316a.405.405 0 0 1 .332-.467zM4 14H2v-4h2zm1.526-5.48c.249-.5.389-.478.508-.455a.405.405 0 0 1 .333.468c-.007.04-.027.163-.25.314-.063.043-.158.1-.262.153h-.548c.098-.22.184-.411.219-.48zM7 14H5v-4h2z"/></svg>