<svg xmlns="http://www.w3.org/2000/svg" viewBox="0 0 16 16"><style>.icon-canvas-transparent{opacity:0;fill:#f6f6f6}.icon-vs-out{fill:#f6f6f6}.icon-vs-bg{fill:#424242}.icon-vs-fg{fill:#f0eff1}</style><path class="icon-canvas-transparent" d="M16 16H0V0h16v16z" id="canvas"/><path class="icon-vs-out" d="M11.438 3.587L7.739 7.286 12.943 0H0v1.321L4.771 8 0 14.679V16h12.943l-2.857-4H13V9.393l.554.554 2.121-2.122-4.237-4.238zM4.886 13L6 11.441 7.113 13H4.886z" id="outline"/><path class="icon-vs-bg" d="M11 1L6 8 1 1h10zM6 8l5 7H1l5-7zm3.057 6L6 9.721 2.943 14h6.114zm2.381-8.999l2.823 2.823-.707.707L12 6.978V11h-1V6.853L9.384 8.469l-.707-.707 2.761-2.761z" id="iconBg"/><path class="icon-vs-fg" d="M6 9.721L2.943 14h6.114L6 9.721z" id="iconFg"/></svg>