<svg xmlns="http://www.w3.org/2000/svg" viewBox="0 0 16 16"><defs><style>.icon-canvas-transparent,.icon-vs-out{fill:#f6f6f6;}.icon-canvas-transparent{opacity:0;}.icon-vs-bg{fill:#424242;}.icon-vs-action-purple{fill:#652d90;}</style></defs><title>UserControl_16x</title><g id="canvas"><path class="icon-canvas-transparent" d="M16,0V16H0V0Z"/></g><g id="outline"><path class="icon-vs-out" d="M16,11H10.463A5.966,5.966,0,0,1,12,15v1H0V15a5.973,5.973,0,0,1,2.493-4.864A4.226,4.226,0,0,1,5,3.631V0H16Z"/></g><g id="iconBg"><path class="icon-vs-bg" d="M15,1v9H9.586a4.235,4.235,0,0,0,.472-1H14V2H7V3.631A4.229,4.229,0,0,0,6,3.5V1Z"/></g><g id="colorImportance"><path class="icon-vs-action-purple" d="M7.9,10.378a3.25,3.25,0,1,0-3.792,0A5,5,0,0,0,1,15H2a4,4,0,0,1,8,0h1A5,5,0,0,0,7.9,10.378ZM6,10A2.25,2.25,0,1,1,8.25,7.75,2.252,2.252,0,0,1,6,10Z"/></g></svg>