<svg xmlns="http://www.w3.org/2000/svg" viewBox="0 0 16 16"><style>.icon-canvas-transparent{opacity:0;fill:#f6f6f6}.icon-vs-out{fill:#f6f6f6}.icon-vs-bg{fill:#424242}.icon-vs-fg{fill:#f0eff1}.icon-vs-action-blue{fill:#00539c}</style><path class="icon-canvas-transparent" d="M16 16H0V0h16v16z" id="canvas"/><path class="icon-vs-out" d="M16 9v7H9V9.105L5.209 11h-.42L0 8.605V3.369L6.739 0h.523L12 2.369v5.236L9.21 9H16z" id="outline"/><path class="icon-vs-action-blue" d="M1 4v4l4 2 6-3V3L7 1 1 4zm4 1L3 4l4-2 2 1-4 2z" id="colorImportance"/><path class="icon-vs-fg" d="M7 2l2 1-4 2-2-1 4-2z" id="iconFg"/><path class="icon-vs-bg" d="M10 10v5h5v-5h-5zm4 3.867h-1.005l-.005-1.158-1.299 1.299-.707-.707 1.287-1.287-1.15-.005v-1h2.88v2.858z" id="notificationBg"/><path class="icon-vs-fg" d="M14 13.867h-1.005l-.005-1.158-1.299 1.299-.707-.707 1.287-1.287-1.15-.005v-1h2.88v2.858z" id="notificationFg"/></svg>