<svg xmlns="http://www.w3.org/2000/svg" viewBox="0 0 16 16"><defs><style>.icon-canvas-transparent,.icon-vs-out{fill:#f6f6f6}.icon-canvas-transparent{opacity:0}.icon-vs-bg{fill:#424242}.icon-vs-fg{fill:#f0eff1}.icon-py-green{fill:#879636}</style></defs><title>PYInteractiveWindow_16x</title><path class="icon-canvas-transparent" d="M16 16H0V0h16z"/><path class="icon-vs-out" d="M16 15H0V1h16z"/><path class="icon-vs-bg" d="M8 8H3V7h5zm0 2H3V9h5zm-3 2H3v-1h2zm6-4H9V7h2zm1 2H9V9h3zm1 2H6v-1h7z"/><path class="icon-vs-fg" d="M2 5v8h12V5zm7 2h2v1H9zm0 2h3v1H9zM3 7h5v1H3zm0 2h5v1H3zm2 3H3v-1h2zm8 0H6v-1h7z"/><path class="icon-py-green" d="M1 2v12h14V2zm13 11H2V5h12z"/></svg>