<svg xmlns="http://www.w3.org/2000/svg" viewBox="0 0 16 16"><style>.icon-canvas-transparent{opacity:0;fill:#f6f6f6}.icon-vs-out{fill:#f6f6f6}.icon-vs-bg{fill:#424242}.icon-vs-fg{fill:#f0eff1}</style><path class="icon-canvas-transparent" d="M16 16H0V0h16v16z" id="canvas"/><path class="icon-vs-out" d="M10.797 15.011l-.11.111.878.878h2.484L16 14.06v-1.067l-2.076-2.075 1.818-1.333V2.972L10.109 0 5.43 2.367 3.076 0H1.954L0 1.954v2.361l.938.938L1 5.192v9.819h9.797zM4 5.175l.111.11.147-.147v4.491L8.022 12H4V5.175z" id="outline"/><path class="icon-vs-fg" d="M6.339 8.514V4.562L10.2 6.719v4.311L6.339 8.514zm7.669-4.772l-3.681-1.813-3.454 1.754 3.71 2.115 3.425-2.056zm.161 1.002l-2.955 1.802v4.128l2.955-2.129V4.744z" id="iconFg"/><path class="icon-vs-bg" d="M15.119 13.525l-2.313 2.301-.707-.707L13.2 14.01H2V2.79L.94 3.842l-.707-.707L2.514.853l2.301 2.313-.706.707L3 2.773V13l10.182.011-1.052-1.06.707-.707 2.282 2.281zM15 3.449v5.503l-4.383 3.213-5.101-3.213V3.449L10.357 1 15 3.449zm-4.8 7.581V6.719L6.339 4.562v3.951L10.2 11.03zm3.808-7.288l-3.681-1.813-3.454 1.754 3.71 2.115 3.425-2.056zm.161 1.002l-2.955 1.802v4.128l2.955-2.129V4.744z" id="iconBg"/></svg>