<svg xmlns="http://www.w3.org/2000/svg" viewBox="0 0 16 16"><defs><style>.icon-canvas-transparent,.icon-vs-out{fill:#f6f6f6;}.icon-canvas-transparent{opacity:0;}.icon-vs-bg{fill:#424242;}</style></defs><title>PromoteSnapshot_16x</title><path class="icon-canvas-transparent" d="M16,0V16H0V0Z"/><path class="icon-vs-out" d="M16,0V12H11v4H7V13.664l-1.1,1.1L4,12.871V16H0V12H3.129l-1.5-1.5L3.129,9H0V5H2V3H5V0Z"/><path class="icon-vs-bg" d="M14,8h1v3H4.957L6.6,12.646l-.707.707L3.043,10.5,5.9,7.646l.707.707L4.957,10H14ZM1,8H2V7H3V6H1Zm8,6H8v1h2V13H9ZM2,13H1v2H3V14H2Zm9-4h1V4H3V5h8ZM6,1V3H7V2h7V3h1V1Zm4,7V6H8V7H9V8Zm4-1h1V6H14Zm0-2h1V4H14Z"/></svg>