<svg xmlns="http://www.w3.org/2000/svg" viewBox="0 0 16 16"><defs><style>.icon-canvas-transparent,.icon-vs-out{fill:#f6f6f6;}.icon-canvas-transparent{opacity:0;}.icon-vs-bg{fill:#424242;}.icon-vs-action-orange{fill:#c27d1a;}</style></defs><title>NewFileCollection_16x</title><g id="canvas"><path class="icon-canvas-transparent" d="M16,0V16H0V0Z"/></g><g id="outline"><path class="icon-vs-out" d="M16,11H15v5H5V14H1V7.364L.257,6.621.878,6H0V3H.878L.257,2.379,2.379.257,3,.878V0H13.121L16,2.879Z"/></g><g id="iconBg"><path class="icon-vs-bg" d="M3,12H5v1H2V8.363l.379.379L3,8.121V12ZM9,6H8.121l.621.621L8.363,7h2.93L13,8.707V14H7V8.363l-.379.379L6,8.121V15h8V8.293L11.707,6Zm3.707-5H7.364l1,1h3.93L14,3.707V6.879l1,1V3.293Z"/></g><g id="colorAction"><path class="icon-vs-action-orange" d="M8,4H5.707L7.328,2.379l-.707-.708L5,3.292V1H4V3.292L2.379,1.671l-.708.708L3.292,4H1V5H3.292L1.671,6.621l.708.707L4,5.707V8H5V5.707L6.621,7.328l.707-.707L5.707,5H8ZM5,5H4V4H5Z"/></g></svg>