<svg xmlns="http://www.w3.org/2000/svg" viewBox="0 0 16 16"><style>.icon-canvas-transparent{opacity:0;fill:#f6f6f6}.icon-vs-out{fill:#f6f6f6}.icon-vs-bg{fill:#424242}.icon-white{fill:#fff}</style><path class="icon-canvas-transparent" d="M16 16H0V0h16v16z" id="canvas"/><path class="icon-vs-out" d="M0 10.48a5.5 5.5 0 0 1 5.5-5.5c1.106 0 2.134.33 2.997.892A3.852 3.852 0 0 1 8 3.98C8 1.923 9.565.245 11.564.024h.872C14.434.245 16 1.923 16 3.98c0 1.33-.676 2.519-1.739 3.256l.933 5.244h-2.08l-1.081-1.496-.997 1.496h-.416a5.494 5.494 0 0 1-5.06 3.495h-.15A5.497 5.497 0 0 1 0 10.48z" id="outline"/><path class="icon-vs-bg" d="M5.5 5.98a4.5 4.5 0 1 0 0 9 4.5 4.5 0 0 0 0-9zm.014 7.709l-3.352-3.352.707-.707 2.13 2.122V6.98h1v4.789l2.148-2.14.707.707-3.34 3.353zM15 3.98a3 3 0 1 0-4.158 2.767l-.251 1.656c.262.641.409 1.342.409 2.077 0 .061-.007.121-.009.182L12 8.98l1.625 2.5H14l-.842-4.733A3 3 0 0 0 15 3.98zm-3 1.499a1.5 1.5 0 1 1 0-3 1.5 1.5 0 0 1 0 3z" id="iconBg"/><path class="icon-white" d="M8.147 9.629l.707.707-3.34 3.352-3.352-3.352.707-.707 2.13 2.122V6.98h1v4.789l2.148-2.14z" id="iconFg"/></svg>