<svg xmlns="http://www.w3.org/2000/svg" viewBox="0 0 16 16"><defs><style>.icon-canvas-transparent,.icon-vs-out{fill:#f6f6f6;}.icon-canvas-transparent{opacity:0;}.icon-vs-fg{fill:#f0eff1;}.icon-vs-bg{fill:#424242;}.icon-vs-action-orange{fill:#c27d1a;}.icon-vs-red{fill:#e51400;}.icon-white{fill:#fff;}</style></defs><title>BuildErrorList_16x</title><g id="canvas"><path id="_Compound_Path_" data-name="&lt;Compound Path&gt;" class="icon-canvas-transparent" d="M16,16H0V0H16Z"/></g><g id="outline"><path id="_Compound_Path_2" data-name="&lt;Compound Path&gt;" class="icon-vs-out" d="M14,15.24V16H2.01c-.023.021,0-13,0-13H4V2H5.01a3.25,3.25,0,0,1,6,0H12V3h2V7.76a4.5,4.5,0,0,1,0,7.48Z"/></g><g id="iconFg"><path id="_Compound_Path_3" data-name="&lt;Compound Path&gt;" class="icon-vs-fg" d="M7.01,3a1,1,0,1,1,1,1A1,1,0,0,1,7.01,3ZM7,11.5A4.5,4.5,0,0,1,11.5,7a4.576,4.576,0,0,1,.5.05V5H4v9H7.76A4.476,4.476,0,0,1,7,11.5Z"/></g><g id="iconBg"><path class="icon-vs-bg" d="M11,5V3h-.99a2,2,0,0,0-4,0H5V5ZM8.01,2a1,1,0,1,1-1,1A1,1,0,0,1,8.01,2Z"/></g><g id="notificationBg"><path class="icon-vs-action-orange" d="M12,5H11V4h2V7.276a4.485,4.485,0,0,0-1-.225ZM7.762,14H4V5H5V4H3V15H8.706A4.5,4.5,0,0,1,7.762,14Z"/><path class="icon-vs-red" d="M11.5,8A3.5,3.5,0,1,0,15,11.5,3.5,3.5,0,0,0,11.5,8Zm1.853,4.647-.706.706L11.5,12.207l-1.147,1.146-.707-.706L10.793,11.5,9.646,10.353l.707-.707L11.5,10.793l1.147-1.147.706.707L12.207,11.5Z"/></g><g id="notificationFg"><path class="icon-white" d="M12.207,11.5l1.146,1.147-.706.706L11.5,12.207l-1.147,1.146-.707-.706L10.793,11.5,9.646,10.353l.707-.707L11.5,10.793l1.147-1.147.706.707Z"/></g></svg>