<svg xmlns="http://www.w3.org/2000/svg" viewBox="0 0 16 16"><defs><style>.icon-canvas-transparent,.icon-vs-out{fill:#f6f6f6;}.icon-canvas-transparent{opacity:0;}.icon-vs-bg{fill:#424242;}</style></defs><title>CloakOrHide_16x</title><g id="canvas"><path class="icon-canvas-transparent" d="M16,0V16H0V0Z"/></g><g id="outline"><path class="icon-vs-out" d="M16,10H12.121l2.647,2.646-2.122,2.122-3.1-3.1A3.94,3.94,0,0,1,4.556,10H0V9A7.967,7.967,0,0,1,1.811,3.932L.232,2.354,2.354.232,4.124,2A8,8,0,0,1,16,9Z"/></g><g id="iconBg"><path class="icon-vs-bg" d="M8.141,6.014l-.9-.9A2.961,2.961,0,0,1,8,5a3,3,0,0,1,3,3,2.961,2.961,0,0,1-.11.763l-.9-.9A1.99,1.99,0,0,0,8.141,6.014ZM8,2a6.948,6.948,0,0,0-3.128.745l.748.748A6,6,0,0,1,14,9h1A7,7,0,0,0,8,2Zm2.441,7.734,2.913,2.912-.708.708L9.721,10.428A2.948,2.948,0,0,1,8,11,3,3,0,0,1,5,8a2.948,2.948,0,0,1,.572-1.721L3.916,4.623A5.964,5.964,0,0,0,2,9H1A6.962,6.962,0,0,1,3.208,3.915L1.646,2.354l.708-.708L3.981,3.274l0,0L4.7,3.99l0,0L6.266,5.559l0,0,.725.725,0,0L9.717,9.01l0,0,.725.725ZM9.012,9.719,6.281,6.988A1.955,1.955,0,0,0,6,8a2,2,0,0,0,2,2A1.955,1.955,0,0,0,9.012,9.719Z"/></g></svg>