<svg xmlns="http://www.w3.org/2000/svg" viewBox="0 0 16 16"><defs><style>.icon-canvas-transparent,.icon-vs-out{fill:#f6f6f6;}.icon-canvas-transparent{opacity:0;}.icon-vs-bg{fill:#424242;}</style></defs><title>AlignMiddle_16x</title><path class="icon-canvas-transparent" d="M16,0V16H0V0Z"/><polygon class="icon-vs-out" points="16 10 13 10 13 14 9 14 9 10 7 10 7 15 3 15 3 10 0 10 0 7 3 7 3 2 7 2 7 7 9 7 9 3 13 3 13 7 16 7 16 10"/><path class="icon-vs-bg" d="M6,8h4V4h2V8h3V9H12v4H10V9H6v5H4V9H1V8H4V3H6Z"/></svg>