<svg xmlns="http://www.w3.org/2000/svg" viewBox="0 0 16 16"><defs><style>.icon-vs-out{fill:#f6f6f6;}.icon-vs-bg{fill:#424242;}</style></defs><title>RazorComponents_16x</title><g id="outline"><path class="icon-vs-out" d="M14.62,1.179A4.816,4.816,0,0,0,11.318,0a4.731,4.731,0,0,0-3.5,1.4A4.783,4.783,0,0,0,6.436,4.893c0,.037.008.07.009.107H0V16H11V9.53c.065,0,.124.016.19.016a6.1,6.1,0,0,0,2.4-.418l.61-.258V7.584a2.932,2.932,0,0,0,1.015-.816A3.746,3.746,0,0,0,16,4.346,4.056,4.056,0,0,0,14.62,1.179ZM7,9V7.2a4.306,4.306,0,0,0,.77,1.056A4.328,4.328,0,0,0,8.847,9Z"/></g><g id="iconBg"><path class="icon-vs-bg" d="M6,10V6H1v9h9V10ZM5,14H2V11H5Zm0-4H2V7H5Zm4,4H6V11H9Z"/><path class="icon-vs-bg" d="M13.956,1.927A3.824,3.824,0,0,0,11.319,1,3.756,3.756,0,0,0,8.528,2.106,3.8,3.8,0,0,0,7.436,4.892,3.533,3.533,0,0,0,8.468,7.536a3.729,3.729,0,0,0,2.722,1.01,5.156,5.156,0,0,0,2.006-.34V7.5a4.342,4.342,0,0,1-1.886.376,3,3,0,0,1-2.227-.831A2.966,2.966,0,0,1,8.257,4.86a3.206,3.206,0,0,1,.859-2.286,2.844,2.844,0,0,1,2.166-.913,2.912,2.912,0,0,1,2.132.755,2.61,2.61,0,0,1,.769,1.949A2.672,2.672,0,0,1,13.9,5.68a.827.827,0,0,1-.716.507q-.472,0-.472-.909,0-.046.215-2.47h-.762q-.054.4-.069.528h-.013a.8.8,0,0,0-.326-.424.978.978,0,0,0-.574-.177,1.624,1.624,0,0,0-1.361.684A2.77,2.77,0,0,0,9.3,5.136,1.9,1.9,0,0,0,9.68,6.377a1.217,1.217,0,0,0,.992.462,1.279,1.279,0,0,0,1.294-.987h.023q0,.987,1.06.987a1.723,1.723,0,0,0,1.384-.7A2.76,2.76,0,0,0,15,4.346,3.083,3.083,0,0,0,13.956,1.927ZM11.7,5.666a.892.892,0,0,1-.8.521.659.659,0,0,1-.558-.287,1.306,1.306,0,0,1-.208-.783,2.291,2.291,0,0,1,.309-1.234.93.93,0,0,1,.815-.5q.735,0,.734.9A2.8,2.8,0,0,1,11.7,5.666Z"/></g></svg>