<svg xmlns="http://www.w3.org/2000/svg" viewBox="0 0 16 16"><style>.icon-canvas-transparent{opacity:0;fill:#f6f6f6}.icon-vs-out{fill:#f6f6f6}.icon-vs-bg{fill:#424242}</style><path class="icon-canvas-transparent" d="M16 16H0V0h16v16z" id="canvas"/><path class="icon-vs-out" d="M16 9.565h-2.608l1.084 1.085-1.85 1.85.145.145L9.415 16H6.591l-3.355-3.355.141-.142-1.853-1.853 1.084-1.085H0v-3h2.733L1.524 5.357 3.381 3.5l-.146-.146L6.589 0h2.828l3.354 3.354-.148.149 1.854 1.854-1.209 1.209H16v2.999z" id="outline"/><path class="icon-vs-bg" d="M6.999 8.003l-3.354 3.354-.707-.707 2.084-2.084H1v-1h4.147L2.938 5.357l.707-.707 3.354 3.353zm2.002 0l3.354 3.354.707-.707-2.084-2.084H15v-1h-4.147l2.209-2.209-.707-.707-3.354 3.353zM4.65 3.354l.707.707 2.209-2.209v4.147h1V1.977l2.084 2.084.707-.707L8.003 0 4.65 3.354zm6.707 9.291l-.707-.707-2.209 2.209V10h-1v4.022l-2.084-2.084-.707.707 3.354 3.354 3.353-3.354z" id="iconBg"/></svg>