<svg xmlns="http://www.w3.org/2000/svg" viewBox="0 0 16 16"><defs><style>.icon-canvas-transparent,.icon-vs-out{fill:#f6f6f6;}.icon-canvas-transparent{opacity:0;}.icon-vs-bg{fill:#424242;}</style></defs><title>LinesToFile_16x</title><g id="canvas"><path class="icon-canvas-transparent" d="M16,0V16H0V0Z"/></g><g id="outline"><path class="icon-vs-out" d="M13.621,0H8V9H0v7H9V14h4V11.621l.147.147L14.914,10H16V2.379Z"/></g><g id="iconBg"><path class="icon-vs-bg" d="M11.5,7.293l2.354,2.353-.708.707L12,9.207V13H8V12h3V9.207L9.854,10.353l-.708-.707Zm3.5-4.5V9H14V4H12V2H10V8H9V1h4.207ZM13.793,3,13,2.207V3ZM1,13H7V12H1Zm0,2H7V14H1Zm0-4H7V10H1Z"/></g></svg>