<svg xmlns="http://www.w3.org/2000/svg" viewBox="0 0 16 16"><style>.icon-canvas-transparent{opacity:0;fill:#f6f6f6}.icon-vs-out{fill:#f6f6f6}.icon-vs-bg{fill:#424242}.icon-vs-action-blue{fill:#00539c}</style><path class="icon-canvas-transparent" d="M16 16H0V0h16v16z" id="canvas"/><path class="icon-vs-out" d="M16 7.58l-1.869 1.869L13 8.322V14h-3V8.304L8.851 9.449 7.63 8.228 7 9.277V14H3V9.277l-3-5V3h10.767l-.424.707 1.142-1.146L16 7.078v.502z" id="outline"/><path class="icon-vs-bg" d="M9 4L6 9v4H4V9L1 4h8z" id="iconBg"/><path class="icon-vs-action-blue" d="M8.852 8.036l-.707-.707 3.34-3.352 3.352 3.352-.707.707L12 5.914V13h-1V5.896l-2.148 2.14z" id="colorAction"/></svg>