<svg xmlns="http://www.w3.org/2000/svg" viewBox="0 0 16 16"><defs><style>.icon-canvas-transparent,.icon-vs-out{fill:#f6f6f6;}.icon-canvas-transparent{opacity:0;}.icon-vs-bg{fill:#424242;}</style></defs><title>GitPullRequest_16x</title><g id="canvas"><path class="icon-canvas-transparent" d="M16,0V16H0V0Z"/></g><g id="outline"><path class="icon-vs-out" d="M14,9.865V6.5a3.506,3.506,0,0,0-2.81-3.432l.965-.964L10.052,0h-.035L6.742,3.274A3.25,3.25,0,1,0,2,6.385v3.48A3.251,3.251,0,1,0,6.75,12.75,3.232,3.232,0,0,0,5,9.865V6.385A3.211,3.211,0,0,0,6.252,5.236l3.782,3.782L11,8.052V9.865a3.25,3.25,0,1,0,3,0ZM3.5,13a.25.25,0,1,1,.25-.25A.25.25,0,0,1,3.5,13Z"/></g><g id="iconBg"><path class="icon-vs-bg" d="M5.75,3.5A2.25,2.25,0,1,0,3,5.693v4.864a2.25,2.25,0,1,0,1,0V5.693A2.253,2.253,0,0,0,5.75,3.5Zm-1,9.25A1.25,1.25,0,1,1,3.5,11.5,1.252,1.252,0,0,1,4.75,12.75Zm-1.25-8A1.25,1.25,0,1,1,4.75,3.5,1.252,1.252,0,0,1,3.5,4.75ZM13,10.557V6.5A2.5,2.5,0,0,0,10.5,4H8.845l1.9-1.9L10.034,1.4,6.93,4.5l3.1,3.1.707-.708L8.845,5H10.5A1.5,1.5,0,0,1,12,6.5v4.057a2.25,2.25,0,1,0,1,0ZM12.5,14a1.25,1.25,0,1,1,1.25-1.25A1.252,1.252,0,0,1,12.5,14Z"/></g></svg>