<svg xmlns="http://www.w3.org/2000/svg" viewBox="0 0 16 16"><defs><style>.icon-canvas-transparent,.icon-vs-out{fill:#f6f6f6;}.icon-canvas-transparent{opacity:0;}.icon-vs-bg{fill:#424242;}</style></defs><title>MyMoviesTV_16x</title><g id="canvas"><path class="icon-canvas-transparent" d="M16,16H0V0H16Z"/></g><g id="outline"><path class="icon-vs-out" d="M16,4.516V13a2,2,0,0,1-2,2H3a2,2,0,0,1-2-2V5.821L.431,2.59,15.119,0h.086Z"/></g><g id="iconBg"><path class="icon-vs-bg" d="M4.128,6,14.911,4.1l-.52-2.955L1.589,3.4,2.047,6H2v7a1,1,0,0,0,1,1H14a1,1,0,0,0,1-1V6ZM13.58,2.3l.173.985-.492.087.024-.035-1.124-.787Zm-3.447.608-.025.035,1.124.787-1.418.25.025-.035L8.716,3.16Zm-3.447.608-.025.035,1.123.787-1.417.25.025-.035L5.268,3.768ZM2.92,5.2l-.173-.985.492-.087-.024.035,1.124.787ZM3,13V7H14v6Z"/></g></svg>