<svg xmlns="http://www.w3.org/2000/svg" viewBox="0 0 16 16"><defs><style>.icon-canvas-transparent,.icon-vs-out{fill:#f6f6f6;}.icon-canvas-transparent{opacity:0;}.icon-vs-fg{fill:#f0eff1;}.cls-1{fill:#c27d1a;}.icon-vs-bg{fill:#424242;}</style></defs><title>TaskList_16x</title><g id="canvas"><path id="_Compound_Path_" data-name="&lt;Compound Path&gt;" class="icon-canvas-transparent" d="M16,16H0V0H16Z"/></g><g id="outline"><path id="_Compound_Path_2" data-name="&lt;Compound Path&gt;" class="icon-vs-out" d="M2.01,16c-.023.021,0-13,0-13H4V2H5.01a3.25,3.25,0,0,1,6,0h1V3H14V16Z"/></g><g id="iconFg"><path id="_Compound_Path_3" data-name="&lt;Compound Path&gt;" class="icon-vs-fg" d="M6.969,2.984A1.023,1.023,0,0,1,8.01,2a1,1,0,0,1,1,1,1.026,1.026,0,0,1-1,1.031A1.077,1.077,0,0,1,6.969,2.984ZM12,5v9H4V5ZM11,9H5v1h6Zm0-2H5V8h6Z"/></g><g id="iconBg"><path class="cls-1" d="M13,4V15H3V4H5V5H4v9h8V5H11V4Z"/><path class="icon-vs-bg" d="M11,5V3h-.99a2,2,0,0,0-4,0H5V5ZM8.01,2a1,1,0,1,1-1,1A1,1,0,0,1,8.01,2ZM11,9v1H5V9ZM5,7h6V8H5Z"/></g></svg>