<svg xmlns="http://www.w3.org/2000/svg" viewBox="0 0 16 16"><defs><style>.icon-canvas-transparent,.icon-vs-out{fill:#f6f6f6;}.icon-canvas-transparent{opacity:0;}.icon-vs-bg{fill:#424242;}</style></defs><title>MoveGlyph_16x</title><g id="canvas"><path class="icon-canvas-transparent" d="M16,0V16H0V0Z"/></g><g id="outline"><path class="icon-vs-out" d="M16,7.629v.742L8.371,16H7.629L0,8.371V7.629L7.629,0h.742Z"/></g><g id="iconBg"><path class="icon-vs-bg" d="M5.854,4.6,5.146,3.9,8,1.043,10.854,3.9l-.708.708L8.5,2.957V6h-1V2.957ZM6,8.5v-1H2.957L4.6,5.854,3.9,5.146,1.043,8,3.9,10.854l.708-.708L2.957,8.5Zm2.5,4.543V10h-1v3.043L5.854,11.4l-.708.708L8,14.957,10.854,12.1l-.708-.708Zm3.6-7.9-.708.708L13.043,7.5H10v1h3.043L11.4,10.146l.708.708L14.957,8Z"/></g></svg>