<svg xmlns="http://www.w3.org/2000/svg" viewBox="0 0 16 16"><style>.icon-vs-out{fill:#f6f6f6}.icon-vs-bg{fill:#424242}.icon-vs-fg{fill:#f0eff1}.icon-vs-action-green{fill:#388a34}.icon-canvas-transparent_x0020_{opacity:0;fill:#f6f6f6}</style><path class="icon-canvas-transparent_x0020_" d="M16 16H0V0h16v16z" id="canvas"/><path class="icon-vs-out" d="M10.585 0H2.983h.005v2.018H.964V6h1v4.622L0 12.586v.828l1.964 1.964V16h13V4.379z" id="outline"/><path class="icon-vs-bg" d="M3.013 10l.005-2H4v2h-.987zM14 4.793V15h-3.586l1-1H13V6H9V2H7V1h3.207L14 4.793zM12.793 5L10 2.207V5h2.793zM11 13l-2 2v-1l1-1-1-1v-1l2 2zM1 13l2 2v-1l-1-1 1-1v-1l-2 2zm5-2a2 2 0 1 0 .001 4.001A2 2 0 0 0 6 11z" id="iconBg"/><g id="iconFg"><path class="icon-vs-fg" d="M6.964 2h2v.018h-2zm3 .207V5h2.793zm3 3.793h-6v2h-3v2H4v.78c.532-.479 1.229-.78 2-.78s1.468.301 2 .78V10h1.414l3 3-1 1h1.55V6z"/><path class="icon-vs-fg" d="M6.964 2h2v.018h-2zm3 .207V5h2.793zm3 3.793h-6v2h-3v2H4v.78c.532-.479 1.229-.78 2-.78s1.468.301 2 .78V10h1.414l3 3-1 1h1.55V6z"/></g><path class="icon-vs-action-green" d="M7.964 3.018h-2V1H3.983v2.018H1.964V5h2.019v2h1.981V5h2V3.018z" id="colorAction"/></svg>