<svg xmlns="http://www.w3.org/2000/svg" viewBox="0 0 16 16"><defs><style>.icon-canvas-transparent,.icon-vs-out{fill:#f6f6f6;}.icon-canvas-transparent{opacity:0;}.icon-vs-bg{fill:#424242;}.vs-control-hyperlink-blue{fill:#0e70c0;}.icon-white{fill:#fff;}</style></defs><title>PowerShellFile_16x</title><g id="canvas"><path class="icon-canvas-transparent" d="M16,16H0V0H16Z"/></g><g id="outline"><path class="icon-vs-out" d="M15,16H2V0h8.621L15,4.379Z"/></g><g id="iconBg"><path class="icon-vs-out" d="M10.864,8.675l-1.576,6.3A1.348,1.348,0,0,1,7.979,16H1.35A1.35,1.35,0,0,1,.041,14.323l1.574-6.3A1.35,1.35,0,0,1,2.925,7H9.554a1.351,1.351,0,0,1,1.31,1.675Z"/><path class="icon-vs-bg" d="M10.207,1H3V7H4V2H9V6h4v8H9.533l-.245.978c0,.008-.008.014-.01.022H14V4.793ZM10,5V2.207L12.793,5Z"/></g><g id="colorImportance"><path class="vs-control-hyperlink-blue" d="M9.893,8.435l-1.575,6.3A.35.35,0,0,1,7.979,15H1.35a.349.349,0,0,1-.339-.435l1.575-6.3A.35.35,0,0,1,2.925,8H9.554A.35.35,0,0,1,9.893,8.435Z"/><path class="icon-white" d="M5.248,11l-2,2a.35.35,0,0,1-.5,0,.35.35,0,0,1,0-.494L4.505,10.75,3.752,10a.35.35,0,0,1,.5-.494l1,1A.35.35,0,0,1,5.248,11ZM6.5,13.15h-2a.35.35,0,0,0,0,.7h2a.35.35,0,1,0,0-.7Z"/></g></svg>