<svg xmlns="http://www.w3.org/2000/svg" viewBox="0 0 16 16"><defs><style>.icon-canvas-transparent,.icon-vs-out{fill:#f6f6f6;}.icon-canvas-transparent{opacity:0;}.icon-vs-bg{fill:#424242;}.icon-vs-yellow{fill:#fc0;}</style></defs><title>FileWarning_16x</title><g id="canvas"><path class="icon-canvas-transparent" d="M16,0V16H0V0Z"/></g><g id="outline"><path class="icon-vs-out" d="M16,13.985,15.031,16h-7L7,14.016,7.006,14H2a1.959,1.959,0,0,1-2-2V2A1.959,1.959,0,0,1,2,0H8.061L12,3.556V7h.538Z"/></g><g id="iconBg"><path class="icon-vs-bg" d="M11,4V7h-.481L10,8.035V5H7V2H2V12H8.01l-.5,1H1.965A.956.956,0,0,1,1,12V2a.956.956,0,0,1,.964-1H7.641Z"/></g><g id="notificationBg"><path class="icon-vs-yellow" d="M11.918,8h-.781L8.121,14.008,8.637,15H14.4l.485-1.008Zm.109,6h-1V13h1Zm0-2h-1V10h1Z"/></g><g id="notificationFg"><path d="M12,10v2H11V10Zm-1,4h1V13H11Z"/></g></svg>