<svg xmlns="http://www.w3.org/2000/svg" viewBox="0 0 16 16"><style>.icon-canvas-transparent{opacity:0;fill:#f6f6f6}.icon-vs-out{fill:#f6f6f6}.icon-vs-bg{fill:#424242}.icon-vs-fg_x0020_{fill:#f0eff1}</style><path class="icon-canvas-transparent" d="M16 16H0V0h16v16z" id="canvas"/><path class="icon-vs-out" d="M15 16H2V0h8.621L15 4.379V16z" id="outline"/><path class="icon-vs-bg" d="M3 1v14h11V4.793L10.207 1H3zm10 13H4V2h5v4h4v8zm-3-9V2.207L12.793 5H10zM6 5H5V4h1v1zm0-2H5V2h1v1zm0 4H5V6h1v1zm0 2H5V8h1v1zm0 2H5v-1h1v1zm0 2H5v-1h1v1zm4-2H9v-1h1v1zm2 0h-1v-1h1v1zm-4 0H7v-1h1v1z" id="iconBg"/><g id="iconFg"><path class="icon-vs-fg_x0020_" d="M9 6V2H6v1H5V2H4v12h9V6H9zm-3 7H5v-1h1v1zm0-2H5v-1h1v1zm0-2H5V8h1v1zm0-2H5V6h1v1zm0-2H5V4h1v1zm2 6H7v-1h1v1zm2 0H9v-1h1v1zm2 0h-1v-1h1v1z"/><path class="icon-vs-fg_x0020_" d="M10 2.207V5h2.793z"/><path class="icon-vs-fg_x0020_" d="M9 6V2H6v1H5V2H4v12h9V6H9zm-3 7H5v-1h1v1zm0-2H5v-1h1v1zm0-2H5V8h1v1zm0-2H5V6h1v1zm0-2H5V4h1v1zm2 6H7v-1h1v1zm2 0H9v-1h1v1zm2 0h-1v-1h1v1z"/><path class="icon-vs-fg_x0020_" d="M10 2.207V5h2.793z"/></g></svg>