<svg xmlns="http://www.w3.org/2000/svg" viewBox="0 0 16 16"><style>.icon-canvas-transparent{opacity:0;fill:#f6f6f6}.icon-vs-out{fill:#f6f6f6}.icon-vs-bg{fill:#424242}</style><path class="icon-canvas-transparent" d="M16 16H0V0h16v16z" id="canvas"/><path class="icon-vs-out" d="M16 7h-3.586l.586.586v.828L12.414 9H16v7H9v-4H0V4h9V0h7v7z" id="outline"/><path class="icon-vs-bg" d="M11.999 8.02l-3.354 3.292-.707-.707 2.084-2.084H6v-1l4.022-.001-2.084-2.084.707-.707 3.354 3.291zM10 1v5h5V1h-5zm0 14h5v-5h-5v5zM5 6.522l2-.001L6.96 5H1v6h5.96L7 9.521H5V6.522z" id="iconBg"/></svg>