<svg xmlns="http://www.w3.org/2000/svg" viewBox="0 0 16 16"><style>.icon-canvas-transparent{opacity:0;fill:#f6f6f6}.icon-vs-out{fill:#f6f6f6}.icon-vs-bg{fill:#424242}.icon-vs-fg{fill:#f0eff1}.icon-vs-action-blue{fill:#00539c}</style><path class="icon-canvas-transparent" d="M16 16H0V0h16v16z" id="canvas"/><path class="icon-vs-out" d="M12.837 9.83L16 12.992v1.067L14.049 16h-2.484l-.878-.878.11-.111L1 15V5.192l-.062.061L0 4.315V1.954L1.954 0h1.122l3.151 3.168-2.116 2.118L4 5.175v4.722L5.327 8.57l.506-2.025L11.63.75c.456-.455 1.115-.715 1.811-.715.694 0 1.354.26 1.809.712.998.999.999 2.622.005 3.622l-5.799 5.798-1.979.495-1.348 1.349h4.652l-.062-.063 2.118-2.118z" id="outline"/><path class="icon-vs-bg" d="M12.837 11.244l2.282 2.281-2.313 2.301-.707-.707L13.2 14.01H9.404L3 14H2V2.79L.94 3.842l-.707-.707L2.514.853l2.301 2.313-.706.707L3 2.773v9.538l1.855-1.855-.138.554.274.274.601-.15-1.877 1.877h9.467l-1.052-1.06.707-.707z" id="iconBg"/><path class="icon-vs-fg" d="M12.524 4.234L8.431 8.327l-1.057.263.264-1.057 4.094-4.093.792.794zm1.312-2.105c-.188-.187-.605-.187-.793 0l-.605.604.793.793.605-.604a.562.562 0 0 0 0-.793z" id="iconFg"/><path class="icon-vs-action-blue" d="M5.999 9.965l2.943-.736 5.602-5.601a1.566 1.566 0 0 0-.001-2.207c-.564-.562-1.643-.562-2.207 0l-5.601 5.6-.736 2.944zm7.837-7.043l-.605.604-.793-.793.605-.604c.188-.188.605-.187.793 0a.562.562 0 0 1 0 .793zM7.374 8.59l.264-1.057 4.094-4.093.793.793-4.094 4.094-1.057.263z" id="colorAction"/></svg>