<svg xmlns="http://www.w3.org/2000/svg" viewBox="0 0 16 16"><style>.icon-canvas-transparent{opacity:0;fill:#f6f6f6}.icon-vs-out{fill:#f6f6f6}.icon-vs-bg{fill:#424242}.icon-vs-fg{fill:#f0eff1}</style><path class="icon-canvas-transparent" d="M16 16H0V0h16v16z" id="canvas"/><path class="icon-vs-out" d="M11.621 0H3v4H0v3h1v1H0v3h3v5h13V4.379z" id="outline"/><path class="icon-vs-bg" d="M11.207 1H4v3h1V2h5v4h4v8H5v-3H4v4h11V4.793L11.207 1zM11 5V2.207L13.793 5H11zM5 6H1V5h4v1zm0 2H2.333V7H5v1zm0 2H1V9h4v1z" id="iconBg"/><path class="icon-vs-fg" d="M11 2.207L13.793 5H11V2.207zM10 2H5v12h9V6h-4V2z" id="iconFg"/></svg>