<svg xmlns="http://www.w3.org/2000/svg" viewBox="0 0 16 16"><style>.icon-canvas-transparent{opacity:0;fill:#f6f6f6}.icon-vs-out{fill:#f6f6f6}.icon-vs-blue{fill:#1ba1e2}.icon-white{fill:#fff}</style><path class="icon-canvas-transparent" d="M16 16H0V0h16v16z" id="canvas"/><path class="icon-vs-out" d="M0 8a8 8 0 1 1 16 0A8 8 0 0 1 0 8z" id="outline"/><path class="icon-vs-blue" d="M8 1a7 7 0 1 0 .001 14.001A7 7 0 0 0 8 1zm0 13L2.418 8.29l1.414-1.414L7 10.044V3h2v7.044l3.168-3.168 1.414 1.414L8 14z" id="notificationBg"/><path class="icon-white" d="M8 14L2.418 8.29l1.414-1.414L7 10.044V3h2v7.044l3.168-3.168 1.414 1.414L8 14z" id="notificationFg"/></svg>