<svg xmlns="http://www.w3.org/2000/svg" viewBox="0 0 16 16"><defs><style>.icon-canvas-transparent,.icon-vs-out{fill:#f6f6f6;}.icon-canvas-transparent{opacity:0;}.icon-vs-bg{fill:#424242;}.icon-vs-fg{fill:#f0eff1;}</style></defs><title>FlowSwitch_16x</title><g id="canvas"><path class="icon-canvas-transparent" d="M16,16H0V0H16Z"/></g><g id="outline"><path class="icon-vs-out" d="M16,8.414l-4,4-2-2-2,2-2-2-2,2-4-4v-.83l4-4,2,2,2-2,2,2,2-2,4,4Z"/></g><g id="iconBg"><path class="icon-vs-bg" d="M15,8l-3,3L10.707,9.707,11.414,9,12,9.586,13.586,8,12,6.414,11.414,7l-.707-.707L12,5ZM7,8,4,11,1,8,4,5ZM4,9.586,5.586,8,4,6.414,2.414,8ZM8,5,6.707,6.293,7.414,7,8,6.414,9.586,8,8,9.586,7.414,9l-.707.707L8,11l3-3Z"/></g><g id="iconFg"><path class="icon-vs-fg" d="M13.586,8,12,9.586,11.414,9l1-1-1-1L12,6.414ZM7.414,7l1,1-1,1L8,9.586,9.586,8,8,6.414Zm-5,1L4,9.586,5.586,8,4,6.414Z"/></g></svg>