<svg xmlns="http://www.w3.org/2000/svg" viewBox="0 0 16 16"><style>.icon-vs-bg{fill:#424242}.icon-vs-fg{fill:#f0eff1}.icon-vs-out{fill:#f6f6f6}.icon-canvas-transparent{opacity:0;fill:#f6f6f6}</style><path class="icon-canvas-transparent" d="M16 16H0V0h16v16z" id="canvas"/><path class="icon-vs-out" d="M15.003 5.918L15 12c0 .171-.02.35-.058.53l-.012.056-.035.114a2.63 2.63 0 0 1-.119.342l-.071.145a3.012 3.012 0 0 1-.297.473 3.977 3.977 0 0 1-.207.252l-.123.127a4.431 4.431 0 0 1-.264.244l-.136.109a4.7 4.7 0 0 1-.313.228l-.11.073c-.126.08-.259.156-.396.23l-.106.057a7.384 7.384 0 0 1-.483.228l-.094.037a8.769 8.769 0 0 1-.849.296c-.689.201-1.385.331-2.112.4L8.431 16H8c-.415 0-.819-.021-1.212-.059-.316-.029-.62-.074-.917-.127a10.378 10.378 0 0 1-.949-.21 2.626 2.626 0 0 1-.213-.053c-.085-.024-.176-.057-.267-.09l-.193-.066a8.048 8.048 0 0 1-.431-.152l-.04-.01-.102-.051C1.997 14.473 1 13.303 1 12V6c0-.17.019-.347.056-.524l.012-.058.034-.105c.025-.097.063-.216.113-.335l.065-.134c.056-.112.114-.219.182-.324l.076-.106c.072-.101.153-.206.245-.308l.069-.073c.095-.1.197-.198.309-.294a5.43 5.43 0 0 1 .435-.332l.122-.078.668-.395.019.017c.02-.017.048-.031.069-.048l1.377-1.377.62.617c.17-.033.345-.064.529-.092V0h3v1.946c.224.016.433.041.644.067l.487-.486.691.691c.411.098.793.209 1.1.343l.014-.014.639.305c1.566.75 2.428 1.838 2.428 3.066z" id="outline"/><path class="icon-vs-fg" d="M3.087 6.293A.638.638 0 0 1 3.003 6c0-.061.025-.127.048-.191.009-.028.01-.055.023-.083.041-.085.103-.172.179-.259.006-.007.01-.014.017-.021a2.94 2.94 0 0 1 .713-.544L6.85 7.78c-.016-.002-.03-.005-.046-.006a10.85 10.85 0 0 1-.807-.105c-.154-.026-.291-.06-.434-.092-.126-.028-.257-.053-.374-.085-.131-.034-.249-.074-.369-.112-.113-.037-.226-.073-.329-.113a4.85 4.85 0 0 1-.295-.125 4.363 4.363 0 0 1-.503-.267 2.47 2.47 0 0 1-.225-.163c-.052-.041-.105-.082-.148-.123a1.357 1.357 0 0 1-.159-.194c-.024-.034-.056-.068-.074-.102zm6.061 1.479c1.347-.123 2.413-.443 3.072-.834l.025-.018a2.57 2.57 0 0 0 .4-.29c.059-.054.091-.109.135-.164.042-.051.098-.103.127-.154a.657.657 0 0 0 .078-.27c.001-.011.009-.022.009-.033a.46.46 0 0 0-.002-.036v-.001c-.009-.286-.242-.58-.654-.869a4.644 4.644 0 0 0-.473-.288 4.683 4.683 0 0 0-.509-.274L8.08 7.819 6.854 7.78A12.6 12.6 0 0 0 8 7.833c.407 0 .784-.026 1.148-.061zm-1.171 1.08c-3.645 0-4.993-1.332-4.993-1.332l.069 4.461S3.813 14 8 14s5-2 5-2V7.662s-1.378 1.19-5.023 1.19z" id="iconFg"/><path class="icon-vs-bg" d="M12.144 3.755l-.787.787c.188.088.36.18.509.274.716.385 1.132.788 1.132 1.175L12.995 6h.003c0 .102-.03.207-.09.313-.029.051-.085.102-.127.154-.045.055-.076.109-.135.164a2.57 2.57 0 0 1-.4.29l-.025.018c-.659.391-1.725.712-3.072.834-.365.034-.742.06-1.149.06a12.6 12.6 0 0 1-1.146-.053H6.85c-.016-.002-.03-.005-.046-.006a10.85 10.85 0 0 1-.807-.105c-.154-.026-.291-.06-.434-.092-.126-.028-.257-.053-.374-.085-.131-.034-.249-.074-.369-.112-.113-.037-.226-.073-.329-.113a4.85 4.85 0 0 1-.295-.125 4.363 4.363 0 0 1-.503-.267 2.47 2.47 0 0 1-.225-.163c-.052-.041-.105-.082-.148-.123a1.357 1.357 0 0 1-.159-.194c-.024-.034-.056-.068-.074-.102A.638.638 0 0 1 3.003 6c0-.061.025-.127.048-.191.009-.028.01-.055.023-.083.041-.085.103-.172.179-.259.006-.007.01-.014.017-.021a2.94 2.94 0 0 1 .713-.544l-.727-.73c-.022.014-.047.027-.068.042a4.01 4.01 0 0 0-.33.246l-.044.036a3.173 3.173 0 0 0-.236.225l-.051.054a2.542 2.542 0 0 0-.176.221c-.016.024-.035.047-.051.07a2.16 2.16 0 0 0-.122.219c-.013.029-.03.056-.043.084a1.624 1.624 0 0 0-.074.227c-.008.029-.02.056-.026.085A1.55 1.55 0 0 0 2 6v6c0 .918.827 1.738 2.125 2.289l.006.002c.166.07.35.128.531.188.113.038.218.081.336.115.058.017.123.028.182.044a10.818 10.818 0 0 0 1.7.308c.364.034.737.054 1.12.054.339 0 .668-.019.991-.046L9 14.918v.036l.04-.002.079-.006a10.229 10.229 0 0 0 1.882-.351 7.675 7.675 0 0 0 .867-.304l.006-.002c.156-.066.304-.136.446-.21l.064-.035c.117-.063.229-.128.335-.195l.088-.059c.092-.062.18-.125.263-.19l.094-.077c.073-.062.141-.125.205-.189l.089-.092c.057-.063.108-.126.157-.191.026-.034.052-.068.075-.103.043-.065.079-.131.114-.198.018-.036.039-.071.055-.107.031-.071.053-.144.074-.218.009-.033.023-.065.03-.098.024-.109.037-.217.037-.327V6.598l.003.001v-.681c0-.852-.718-1.617-1.859-2.163zM13 12s-.443 1.071-2.322 1.645a9.132 9.132 0 0 1-1.43.279c-.038.004-.07.012-.109.016l-.104.01a10.994 10.994 0 0 1-1.907.015l-.063-.006a10.181 10.181 0 0 1-.767-.094l-.014-.002a8.838 8.838 0 0 1-.63-.131c-.054-.014-.113-.026-.166-.041-.028-.007-.053-.017-.08-.024-1.933-.573-2.355-1.687-2.355-1.687L3 8.538V7.534c.08.076 1.443 1.318 4.977 1.318.382 0 .877-.012 1.226-.036l.008-.028C11.917 8.561 13 7.662 13 7.662V12zM8 5.063V0H7v5.081l-2.148-2.14-.707.707L7.485 7l3.352-3.352-.707-.707L8 5.063z" id="iconBg"/></svg>