<svg xmlns="http://www.w3.org/2000/svg" viewBox="0 0 16 16"><style>.icon-canvas-transparent{opacity:0;fill:#f6f6f6}.icon-vs-out{fill:#f6f6f6}.icon-vs-bg{fill:#424242}.icon-vs-fg{fill:#f0eff1}.icon-vs-action-blue{fill:#00539c}</style><path class="icon-canvas-transparent" d="M16 16H0V0h16v16z" id="canvas"/><path class="icon-vs-out" d="M16 9v7H9v-5H0V3h3V0h9v8H9v1h7z" id="outline"/><path class="icon-vs-bg" d="M1 4h3v.999H2V9h5V7h1v3H1V4zm3-3v3h1V1.999h5V6H8v1h3V1H4zm6 9v5h5v-5h-5z" id="iconBg"/><path class="icon-vs-fg" d="M5 2h5v4H8V4H5V2zM2 9h5V5H2v4zm9.12 2.009v1l1.15.005-1.287 1.287.707.707 1.299-1.299.005 1.158H14v-2.858h-2.88z" id="notificationFg"/><path class="icon-vs-action-blue" d="M8 7H4V4h4v3z" id="colorImportance"/></svg>