<svg xmlns="http://www.w3.org/2000/svg" viewBox="0 0 16 16"><defs><style>.icon-canvas-transparent,.icon-vs-out{fill:#f6f6f6;}.icon-canvas-transparent{opacity:0;}.icon-vs-bg{fill:#424242;}.icon-asp-html-wpf-blue{fill:#0095d7;}</style></defs><title>LocalIISSite_16x</title><g id="canvas"><path class="icon-canvas-transparent" d="M16,16H0V0H16Z"/></g><g id="outline"><path class="icon-vs-out" d="M16,2V16H6v-.025c-.165.015-.331.025-.5.025a5.5,5.5,0,0,1,0-11c.169,0,.335.01.5.025V2A2,2,0,0,1,8,0h6A2,2,0,0,1,16,2Z"/></g><g id="iconBg"><path class="icon-vs-bg" d="M10.787,12H13v1H10.4A5.409,5.409,0,0,0,10.787,12ZM13,10H10.975c.015.165.025.331.025.5s-.01.335-.025.5H13Zm1-9H8A1,1,0,0,0,7,2V5.212a5.484,5.484,0,0,1,1,.393V2h6V14H9.742a5.487,5.487,0,0,1-1.086,1H15V2A1,1,0,0,0,14,1ZM13,3H9V4h4Z"/></g><g id="colorImportance"><path class="icon-asp-html-wpf-blue" d="M5.5,6A4.5,4.5,0,1,0,10,10.5,4.5,4.5,0,0,0,5.5,6ZM7,7.35A3.487,3.487,0,0,1,8.65,9H7Zm-3,6.3A3.487,3.487,0,0,1,2.35,12H4ZM4,11H2.05A3.443,3.443,0,0,1,2,10.5a3.443,3.443,0,0,1,.05-.5H4ZM4,9H2.35A3.487,3.487,0,0,1,4,7.35Zm2,4.949A3.443,3.443,0,0,1,5.5,14a3.443,3.443,0,0,1-.5-.051V12H6ZM6,11H5V10H6ZM6,9H5V7.05A3.588,3.588,0,0,1,5.5,7a3.588,3.588,0,0,1,.5.05Zm1,4.65V12H8.65A3.487,3.487,0,0,1,7,13.65ZM7,11V10H8.95a3.443,3.443,0,0,1,.05.5,3.443,3.443,0,0,1-.05.5Z"/></g></svg>