<svg xmlns="http://www.w3.org/2000/svg" viewBox="0 0 16 16"><defs><style>.icon-canvas-transparent,.icon-vs-out{fill:#f6f6f6}.icon-canvas-transparent{opacity:0}.icon-vs-fg{fill:#f0eff1}.icon-vs-bg{fill:#424242}.icon-cpp-purple{fill:#9b4f96}</style></defs><title>CPPXMLProject_16x</title><path class="icon-canvas-transparent" d="M16 16H0V0h16z"/><path class="icon-vs-out" d="M16 1v14h-4.8l-1 1H2.586l-1-1H0V1z"/><path class="icon-vs-fg" d="M13.2 13l.8-.8v.8zM2 5v4.8L3.8 8h6.4l3.8 3.8V5z"/><path class="icon-vs-bg" d="M15 2v12h-2.8l1-1h.8V5H2v4.8l-1 1V2z"/><path class="icon-cpp-purple" d="M4.77 9.854L2.624 12l2.146 2.146-.707.707L1.209 12l2.854-2.854zm.565 4.961l.929.371 2.4-6-.929-.371zm4.6-5.668l-.707.707L11.377 12 9.23 14.146l.707.707L12.791 12z"/></svg>