<svg xmlns="http://www.w3.org/2000/svg" viewBox="0 0 16 16"><style>.icon-canvas-transparent{opacity:0;fill:#f6f6f6}.icon-vs-out{fill:#f6f6f6}.icon-vs-bg{fill:#424242}.icon-vs-fg{fill:#f0eff1}.icon-cs-green{fill:#388a34}</style><path class="icon-canvas-transparent" d="M0 0h16v16H0z" id="canvas"/><path class="icon-vs-out" d="M11.621 0H3v4.834l-.047-.037-.615.477c-.401.312-.76.671-1.067 1.067l-.474.615L1.82 8.269l-1.652.207-.115.9A4.593 4.593 0 0 0 0 10c0 .215.025.421.054.627l.114.9 1.651.205-1.022 1.312.474.614c.304.394.663.753 1.066 1.067l.615.479.048-.037V16h13V4.379L11.621 0z" id="outline"/><g id="iconBg"><path class="icon-vs-bg" d="M7.732 14.181L7.63 15h1.155zM11.207 1H4v4.612l.268.208.206-1.653L5 4.101V2h5v3.573c.151.136.293.278.428.427H14v8h-3.572a6.053 6.053 0 0 1-.765.726L9.312 15H15V4.793L11.207 1zM11 5V2.207L13.793 5H11z"/><path class="icon-vs-bg" d="M7.732 14.181L7.63 15h1.155zM11.207 1H4v4.612l.268.208.206-1.653L5 4.101V2h5v3.573c.151.136.293.278.428.427H14v8h-3.572a6.053 6.053 0 0 1-.765.726L9.312 15H15V4.793L11.207 1zM11 5V2.207L13.793 5H11z"/></g><path class="icon-vs-fg" d="M5 10a1 1 0 0 1 2 0 1.001 1.001 0 0 1-2 0zm5.428-4c.102.113.208.222.3.341l.475.614-1.022 1.313 1.65.207.115.9c.029.207.054.412.054.625 0 .215-.025.421-.054.627l-.115.9-1.65.205 1.022 1.312-.474.614c-.092.119-.199.229-.301.342H14V6h-3.572zM5.383 4.053C5.586 4.025 5.789 4 6 4s.414.025.617.053l.909.114.206 1.653 1.316-1.023.613.477c.12.093.227.198.339.299V2H5v2.101l.383-.048zM11 2v3h3l-3-3z" id="iconFg"/><path class="icon-cs-green" d="M10.936 10.631c.027-.209.064-.414.064-.631 0-.215-.037-.42-.064-.629l-1.543-.193a3.474 3.474 0 0 0-.414-.994l.959-1.231a5.032 5.032 0 0 0-.89-.89l-1.232.959a3.45 3.45 0 0 0-.994-.414L6.63 5.064C6.421 5.038 6.216 5 6 5s-.421.038-.63.064l-.192 1.544a3.45 3.45 0 0 0-.994.414l-1.232-.959a4.993 4.993 0 0 0-.889.89l.959 1.231a3.476 3.476 0 0 0-.415.994l-1.544.193C1.037 9.58 1 9.785 1 10c0 .217.037.422.063.631l1.544.191c.086.357.228.689.414.994l-.959 1.231c.258.334.557.631.89.891l1.231-.959c.305.186.638.328.994.414l.192 1.545c.21.025.415.062.631.062s.421-.037.63-.063l.192-1.545c.356-.086.689-.229.994-.414l1.231.959c.333-.26.632-.557.89-.891l-.959-1.231c.187-.305.328-.637.414-.994l1.544-.19zM6 12a2 2 0 1 1 0-4 2 2 0 0 1 0 4zm1-2a1 1 0 1 1-1.998.002A1 1 0 0 1 7 10z" id="colorImportance"/></svg>