<svg xmlns="http://www.w3.org/2000/svg" viewBox="0 0 16 16"><defs><style>.icon-canvas-transparent,.icon-vs-out{fill:#f6f6f6;}.icon-canvas-transparent{opacity:0;}.icon-vs-fg{fill:#f0eff1;}.icon-vs-bg{fill:#424242;}.icon-vs-action-orange{fill:#c27d1a;}.icon-vs-blue{fill:#1ba1e2;}</style></defs><title>SystemResources_16x</title><g id="canvas"><path class="icon-canvas-transparent" d="M16,16H0V0H16Z"/></g><g id="outline"><path class="icon-vs-out" d="M16,2V16H0V5H6V2A2,2,0,0,1,8,0h6A2,2,0,0,1,16,2Z"/></g><g id="iconFg"><path class="icon-vs-fg" d="M8,2V5h4v5h1v1H12v1h1v1H12v1h2V2Zm5,2H9V3h4ZM2,7v5l2-2,2.5,2,2-1L10,12V7Zm5,3A1,1,0,1,1,8,9,1,1,0,0,1,7,10Z"/></g><g id="iconBg"><path class="icon-vs-bg" d="M13,13H12V12h1Zm0-3H12v1h1Zm0-7H9V4h4Zm1-2H8A1,1,0,0,0,7,2V5H8V2h6V14H12v1h3V2A1,1,0,0,0,14,1Z"/><path class="icon-vs-action-orange" d="M8,9A1,1,0,1,1,7,8,1,1,0,0,1,8,9Z"/><path class="icon-vs-blue" d="M11,15H1V13l3-3,2.5,2,2-1L11,12.667Z"/><path class="icon-vs-bg" d="M2,12,1,13V6H11v6.667L8.5,11,10,12V7H2Z"/></g></svg>