<svg xmlns="http://www.w3.org/2000/svg" viewBox="0 0 16 16"><style>.icon-canvas-transparent{opacity:0;fill:#f6f6f6}.icon-vs-out{fill:#f6f6f6}.icon-vs-bg{fill:#424242}</style><path class="icon-canvas-transparent" d="M16 16H0V0h16v16z" id="canvas"/><path class="icon-vs-out" d="M3.608 13l-1.084 1.084L4.44 16h.4l4.585-4.501L6.88 9h.586l.572-.054.297-.443c.064-.087.126-.176.186-.284.083-.155.167-.331.249-.531.073.152.173.291.298.411.279.267.647.409 1.063.409.293 0 .576-.062.846-.186.243-.113.491-.302.778-.589.031-.03.067-.068.107-.111.158.25.351.45.578.601.293.189.636.285 1.021.285.393 0 .773-.125 1.125-.367.37-.249.717-.63 1.06-1.166L16 6.423v-.456l-1.632-.929-.157.212a20.515 20.515 0 0 1-.105-.305c.152.031.294.046.43.046A1.451 1.451 0 0 0 16 3.513c0-.535-.237-.877-.426-1.061-.193-.193-.539-.424-1.088-.424a1.884 1.884 0 0 0-1.304.519l-.342-.519h-.748a1.6 1.6 0 0 0 .061-.447c0-.472-.199-.895-.559-1.189C11.276.128 10.862 0 10.329 0 9.67 0 9.064.191 8.533.565c-.491.342-.925.858-1.325 1.569l-.71-.009-.734 2.521h.663l-.589 2.24c-.099.371-.174.637-.23.814l-.012.04-.957-.94-2.115 2.115 1.084 1.084L0 10v3h3.608zm5.974-8.048l1.001-.196c.068-.014.134-.033.195-.057.05.143.108.326.178.56-.117.141-.231.273-.301.352a1.57 1.57 0 0 0-1.274.108l.201-.767z" id="outline"/><path class="icon-vs-bg" d="M4.645 14.791l-.707-.707L6.022 12H1v-1.001h5.022L3.938 8.915l.707-.707 3.354 3.291-3.354 3.292zM13.946 3.89c.048 0 .136.017.258.05.126.033.236.05.331.05a.448.448 0 0 0 .332-.133.462.462 0 0 0 .133-.344.47.47 0 0 0-.133-.354c-.088-.088-.215-.131-.381-.131a.878.878 0 0 0-.416.103c-.131.069-.296.216-.497.444-.149.169-.372.465-.667.889a4.27 4.27 0 0 0-.604-1.435H10.39v.746c.117-.023.527-.353.607-.353.156 0 .285.066.387.197.164.205.389.825.676 1.863a18.81 18.81 0 0 1-.736.88c-.138.145-.252.24-.343.284a.503.503 0 0 1-.233.052c-.066 0-.175-.034-.324-.105a.68.68 0 0 0-.274-.07.517.517 0 0 0-.378.145.485.485 0 0 0-.148.367.45.45 0 0 0 .137.342.518.518 0 0 0 .372.131 1 1 0 0 0 .423-.092c.131-.061.297-.192.496-.392.2-.199.748-.819 1.1-1.253.135.414.394 1.018.494 1.205.098.188.213.323.34.407a.865.865 0 0 0 .479.125.993.993 0 0 0 .567-.197c.251-.168.511-.461.774-.874l-.161-.092c-.181.244-.316.397-.4.459a.364.364 0 0 1-.204.057c-.093 0-.184-.057-.274-.171-.153-.192-.5-1.027-.755-1.902.229-.392.42-.646.576-.766a.573.573 0 0 1 .358-.132zM6.563 8h.903c.059-.087.122-.16.176-.259.233-.429.474-1.121.72-2.074l.526-2.021h.635l.158-.512h-.653c.186-.737.432-1.278.739-1.618.186-.213.366-.319.545-.319a.12.12 0 0 1 .087.03.101.101 0 0 1 .035.079c0 .029-.025.085-.076.167a.45.45 0 0 0-.073.231c0 .102.038.19.117.262a.417.417 0 0 0 .297.109.428.428 0 0 0 .323-.134.488.488 0 0 0 .132-.36.515.515 0 0 0-.196-.419c-.132-.108-.341-.162-.629-.162-.45 0-.858.128-1.224.385-.367.256-.715.68-1.044 1.272-.115.205-.223.336-.325.394-.102.058-.265.087-.49.084l-.149.511h.627l-.92 3.496A21.67 21.67 0 0 1 6.563 8z" id="iconBg"/></svg>