<svg xmlns="http://www.w3.org/2000/svg" viewBox="0 0 16 16"><defs><style>.icon-canvas-transparent,.icon-vs-out{fill:#f6f6f6;}.icon-canvas-transparent{opacity:0;}.icon-vs-bg{fill:#424242;}.icon-vs-blue{fill:#1ba1e2;}</style></defs><title>SQLFile_16x</title><g id="canvas"><rect class="icon-canvas-transparent" width="16" height="16"/></g><g id="outline"><path class="icon-vs-out" d="M16,4.208V16H3v-.06c-1.871-.214-3-1.041-3-2.273V8.333C0,7.1,1.129,6.274,3,6.06V0h8.832Z"/></g><g id="iconBg"><path class="icon-vs-bg" d="M8,11h5v1H8Zm7-6.438V15H7.417a1.81,1.81,0,0,0,.537-1H14V6H10V2H5V6.06A8.728,8.728,0,0,0,4,6V1h7.442ZM13.793,5,11,2.207V5ZM13,9H8v1h5ZM9,5H6V6H9Zm4,3V7H7.417a1.817,1.817,0,0,1,.537,1Z"/><path class="icon-vs-blue" d="M4,7C2.507,7,1,7.412,1,8.333v5.334C1,14.588,2.507,15,4,15s3-.412,3-1.333V8.333C7,7.412,5.493,7,4,7ZM4,9.25c-1.243,0-2.25-.336-2.25-.75S2.757,7.75,4,7.75s2.25.336,2.25.75S5.243,9.25,4,9.25Z"/></g></svg>