<svg xmlns="http://www.w3.org/2000/svg" viewBox="0 0 16 16"><defs><style>.icon-canvas-transparent,.icon-vs-out{fill:#f6f6f6;}.icon-canvas-transparent{opacity:0;}.icon-white{fill:#fff;}.syntax-snappoint-purple{fill:purple;}.icon-vs-green{fill:#393;}</style></defs><title>ProductionSnapshotPointOK_16x</title><g id="canvas"><path class="icon-canvas-transparent" d="M16,0V16H0V0Z"/></g><g id="outline"><path class="icon-vs-out" d="M16,7.856,12.041,1H3.959L0,7.856v.288L3.959,15H8.7a4.474,4.474,0,0,0,6.666-5.763L16,8.144Z"/></g><g id="iconFg"><path class="icon-white" d="M7,11.5a4.471,4.471,0,0,1,6.468-4.029L10.887,3H5.113L2.227,8l2.886,5H7.276A4.445,4.445,0,0,1,7,11.5Z"/></g><g id="iconBg"><path class="syntax-snappoint-purple" d="M7.276,13H5.113L2.227,8,5.113,3h5.774l2.581,4.471a4.518,4.518,0,0,1,1.251.891L14.928,8,11.465,2H4.535L1.072,8l3.463,6H7.76A4.466,4.466,0,0,1,7.276,13Z"/></g><g id="notificationBg"><path class="icon-vs-green" d="M11.5,8A3.5,3.5,0,1,0,15,11.5,3.5,3.5,0,0,0,11.5,8Zm-.75,5.707L8.9,11.853l.708-.706,1.146,1.146L13.4,9.646l.706.707Z"/></g><g id="notificationFg"><path class="icon-white" d="M14.1,10.353,10.75,13.707,8.9,11.853l.708-.706,1.146,1.146L13.4,9.646Z"/></g></svg>