<svg xmlns="http://www.w3.org/2000/svg" viewBox="0 0 16 16"><style>.icon-canvas-transparent{opacity:0;fill:#f6f6f6}.icon-vs-out{fill:#f6f6f6}.icon-vs-bg{fill:#424242}.icon-vs-fg{fill:#f0eff1}</style><path class="icon-canvas-transparent" d="M16 16H0V0h16v16z" id="canvas"/><path class="icon-vs-out" d="M10.621 0H.971v16H15V4.379z" id="outline"/><path class="icon-vs-bg" d="M2.983 7.664V2H9v3.636c.391.081.753.2 1.068.364H13v1.568l1 1V4.793L10.207 1H1.971v7.676l1.012-1.012zM10 2.207L12.793 5H10V2.207zm4 8.269V15H1.971v-4.633l1.012 1.012V14H13v-2.524l1-1zM2.54 9.522l2-2v1l-1 1 1 1v1l-2-2zm9 2v-1l1-1-1-1v-1l2 2-2 2zm-3.561-5c-1.219 0-2.439.672-2.439 1.5v3c0 .828 1.221 1.5 2.439 1.5 1.381 0 2.5-.672 2.5-1.5v-3c0-.829-1.119-1.5-2.5-1.5zm0 2.424c-1.084 0-1.925-.497-1.925-.925s.841-.925 1.925-.925 1.925.497 1.925.925-.841.925-1.925.925z" id="iconBg"/><g id="iconFg"><path class="icon-vs-fg" d="M10.54 6.292v-.039h1.145L13 7.568V6h-2.932c.169.088.329.183.472.292zM10 2.207V5h2.793zm1.5 10.769h-.96v-.224c-.629.477-1.526.77-2.561.77-.873 0-1.775-.272-2.439-.751v.276h-.889l-1.68-1.68V14H13v-2.524l-1.5 1.5zM4.391 6.257H5.54v.016c.664-.478 1.566-.751 2.439-.751.362 0 .698.047 1.021.114V2H2.971v5.676l1.42-1.419z"/><path class="icon-vs-fg" d="M10.54 6.292v-.039h1.145L13 7.568V6h-2.932c.169.088.329.183.472.292zM10 2.207V5h2.793zm1.5 10.769h-.96v-.224c-.629.477-1.526.77-2.561.77-.873 0-1.775-.272-2.439-.751v.276h-.889l-1.68-1.68V14H13v-2.524l-1.5 1.5zM4.391 6.257H5.54v.016c.664-.478 1.566-.751 2.439-.751.362 0 .698.047 1.021.114V2H2.971v5.676l1.42-1.419z"/></g></svg>