<svg xmlns="http://www.w3.org/2000/svg" viewBox="0 0 16 16"><style>.icon-canvas-transparent{opacity:0;fill:#f6f6f6}.icon-vs-out{fill:#f6f6f6}.icon-vs-bg{fill:#424242}.icon-vs-fg{fill:#f0eff1}</style><path class="icon-canvas-transparent" d="M16 16H0V0h16v16z" id="canvas"/><path class="icon-vs-out" d="M16 2.379L13.621 0H8v3.379L7.621 3H0v13h11v-1h4V9h1V2.379zM12 12h-1V9h1v3z" id="outline"/><path class="icon-vs-bg" d="M15 2.793V8h-4V7h3V3l-1-1h-3v3.379l-1-1V1h4.207L15 2.793zM7.207 4L10 6.793V15H1V4h6.207zM9 8H6V5H2v9h7V8zm-.207-1L7 5.207V7h1.793zM14 9h-1v1h1V9zm0 2h-1v1h1v-1zm0 2h-1v1h1v-1zm-2 0h-1v1h1v-1z" id="iconBg"/><path class="icon-vs-fg" d="M14 3v4h-3v-.621l-1-1V2h3l1 1zM7 7h1.793L7 5.207V7zM6 8h3v6H2V5h4v3z" id="iconFg"/></svg>