<svg xmlns="http://www.w3.org/2000/svg" viewBox="0 0 16 16"><style>.icon-canvas-transparent{opacity:0;fill:#f6f6f6}.icon-vs-out{fill:#f6f6f6}.icon-vs-bg{fill:#424242}.icon-vs-fg{fill:#f0eff1}.icon-vs-blue{fill:#1ba1e2}</style><path class="icon-canvas-transparent" d="M16 16H0V0h16v16z" id="canvas"/><path class="icon-vs-out" d="M12 2v1.014c-1.499-1.43-6.457-1.305-8 .004V2H1v6h.676C1.253 8.413 1 8.926 1 9.5v3C1 13.926 2.505 15 4.5 15S8 13.926 8 12.5V14h7V2h-3z" id="outline"/><path class="icon-vs-bg" d="M9 13h5V8H9v5zm1-4h3v1h-3V9zm0 2h3v1h-3v-1zm4-8v4h-4V6h2.472A5.484 5.484 0 0 0 8.24 4h-.479a5.486 5.486 0 0 0-4.233 2H6v1H2V3h1v2.085A6.473 6.473 0 0 1 7.761 3H8v.01c2 .039 3.843.826 5 2.075V3h1z" id="iconBg"/><path class="icon-vs-fg" d="M13 9v1h-3V9h3zm-3 3h3v-1h-3v1zM4.5 8.575c-1.084 0-1.925.497-1.925.925s.841.925 1.925.925 1.925-.497 1.925-.925-.841-.925-1.925-.925z" id="iconFg"/><path class="icon-vs-blue" d="M4.5 8C3.119 8 2 8.672 2 9.5v3c0 .828 1.119 1.5 2.5 1.5S7 13.328 7 12.5v-3C7 8.672 5.881 8 4.5 8zm0 2.425c-1.084 0-1.925-.497-1.925-.925s.841-.925 1.925-.925 1.925.497 1.925.925-.841.925-1.925.925z" id="colorImportance"/></svg>