<svg xmlns="http://www.w3.org/2000/svg" viewBox="0 0 16 16"><style>.icon-canvas-transparent{opacity:0;fill:#f6f6f6}.icon-vs-out{fill:#f6f6f6}.icon-vs-bg{fill:#424242}.icon-vs-fg{fill:#f0eff1}</style><path class="icon-canvas-transparent" d="M0 0h16v16H0z" id="canvas"/><path class="icon-vs-out" d="M10.623 0H2.001v11.05C.861 11.282 0 12.292 0 13.5s.861 2.218 2.001 2.45V16h13V4.379L10.623 0z" id="outline"/><path class="icon-vs-bg" d="M10.208 1H3.001v10.06a2.49 2.49 0 0 1 1 .459V2h5v4h4v8H8.949a2.48 2.48 0 0 1-.462 1h5.514V4.793L10.208 1zm-.207 4V2.207L12.794 5h-2.793zM6.5 12c-.652 0-1.202.419-1.408 1H3.908A1.495 1.495 0 0 0 1 13.5a1.495 1.495 0 1 0 2.908.5h1.184A1.495 1.495 0 0 0 8 13.5 1.5 1.5 0 0 0 6.5 12zm0 2a.5.5 0 1 1 0-1 .5.5 0 0 1 0 1z" id="iconBg"/><path class="icon-vs-fg" d="M9.001 6V2h-5v9.519c.183.139.353.295.493.481h.013c.463-.617 1.198-1 1.994-1a2.503 2.503 0 0 1 2.448 3h4.052V6h-4z" id="iconFg"/></svg>