<svg xmlns="http://www.w3.org/2000/svg" viewBox="0 0 16 16"><style>.icon-canvas-transparent{opacity:0;fill:#f6f6f6}.icon-vs-out{fill:#f6f6f6}.icon-vs-bg{fill:#424242}.icon-vs-fg{fill:#f0eff1}.icon-vs-action-blue{fill:#00539c}</style><path class="icon-canvas-transparent" d="M16 16H0V0h16v16z" id="canvas"/><path class="icon-vs-out" d="M7.862 6.58l.695-.717-.887-.886h2.333v-1.5c0-1.85-1.448-3.355-3.268-3.477h-.464c-1.82.122-3.268 1.626-3.268 3.477v.72l-.379-.377-1.416 1.368-.719.719L4.518 9.94l3.344-3.36zM6.003 3.477a.5.5 0 0 1 1 0v.833l-.548-.548-.452.45v-.735zM12.5 8a3.515 3.515 0 0 0-3.162 2h-.844A2.5 2.5 0 0 0 6.5 9C5.122 9 4 10.121 4 11.5S5.122 14 6.5 14a2.5 2.5 0 0 0 1.994-1h.844a3.515 3.515 0 0 0 3.162 2c1.93 0 3.5-1.57 3.5-3.5S14.43 8 12.5 8zm0 4c-.275 0-.5-.225-.5-.5s.225-.5.5-.5.5.225.5.5-.225.5-.5.5z" id="outline"/><path class="icon-vs-bg" d="M15 11.5a2.5 2.5 0 0 1-4.95.5H7.908A1.495 1.495 0 0 1 5 11.5a1.495 1.495 0 1 1 2.908-.5h2.142a2.5 2.5 0 0 1 4.95.5zm-1 0a1.5 1.5 0 1 0-3.001.001A1.5 1.5 0 0 0 14 11.5z" id="iconBg"/><path class="icon-vs-fg" d="M14 11.5a1.5 1.5 0 1 1-3 0 1.5 1.5 0 0 1 3 0z" id="iconFg"/><path class="icon-vs-action-blue" d="M9.003 3.477v.5h-1v-.5c0-.827-.673-1.5-1.5-1.5s-1.5.673-1.5 1.5v3.14l1.45-1.442.691.691.009.009-2.636 2.648L1.913 5.92l.001-.001-.011-.012.71-.687 1.389 1.382V3.477a2.5 2.5 0 1 1 5.001 0z" id="colorAction"/></svg>