<svg xmlns="http://www.w3.org/2000/svg" viewBox="0 0 16 16"><style>.icon-canvas-transparent{opacity:0;fill:#f6f6f6}.icon-vs-out{fill:#f6f6f6}.icon-vs-bg{fill:#424242}</style><g id="iconBg"><path class="icon-canvas-transparent" d="M16 0v16H0V0h16z"/><path class="icon-vs-out" d="M14.95 12.375c0 1.251-1.018 2.27-2.269 2.27s-2.27-1.019-2.27-2.27c0-.334.072-.656.21-.951l-.713-1.243-.319.53a2.097 2.097 0 0 1-1.94 2.883A2.096 2.096 0 0 1 5.556 11.5c0-.998.702-1.835 1.638-2.044l.217-.36-2.432.202a2.062 2.062 0 0 1-1.748.972c-.026 0-.051-.007-.077-.008.355.211.595.571.595 1.019v.969h1.013c.684 0 1.219.535 1.219 1.219v1.27c0 .72-.524 1.262-1.219 1.262H1.219A1.207 1.207 0 0 1 0 14.781v-3.5c0-.684.535-1.219 1.219-1.219H2.34a2.09 2.09 0 0 1-1.202-1.887c0-1.154.939-2.094 2.094-2.094.516 0 1.006.197 1.382.538l2.837-.235-.59-.84a2.36 2.36 0 0 1-2.355-2.356c0-1.299 1.057-2.356 2.356-2.356s2.356 1.057 2.356 2.356c0 .276-.051.549-.146.808l.674.958a2.622 2.622 0 0 1 2.842 2.609c0 .449-.118.887-.336 1.274l.739 1.29a2.272 2.272 0 0 1 1.959 2.248zM14.781.044h-3.544c-.694 0-1.219.543-1.219 1.263v1.269c0 .684.535 1.219 1.219 1.219h1.013v.969c0 .695.543 1.219 1.263 1.219h1.269A1.208 1.208 0 0 0 16 4.763v-3.5c0-.684-.535-1.219-1.219-1.219z"/><path class="icon-vs-bg" d="M13.95 12.375a1.269 1.269 0 1 1-2.538 0c0-.357.15-.677.387-.907l-1.354-2.366a1.599 1.599 0 0 1-.476.079c-.198 0-.386-.041-.561-.106l-.992 1.646a1.094 1.094 0 1 1-.766-.315c.044 0 .081.02.123.025l1.044-1.732a1.612 1.612 0 0 1-.397-.69l-4.131.343c-.087.517-.516.917-1.058.917a1.094 1.094 0 0 1 0-2.188c.414 0 .761.238.947.577l4.197-.348a1.61 1.61 0 0 1 .38-.809L7.32 4.459a1.335 1.335 0 0 1-.458.085 1.356 1.356 0 1 1 1.356-1.356c0 .333-.125.635-.324.871l1.423 2.024a1.62 1.62 0 0 1 2.27 1.48c0 .475-.208.898-.534 1.194l1.374 2.401c.084-.018.163-.051.253-.051.702 0 1.27.568 1.27 1.268zm.831-11.331h-3.544c-.131 0-.219.088-.219.263v1.269c0 .131.088.219.219.219h2.013v1.969c0 .131.088.219.263.219h1.269a.208.208 0 0 0 .218-.22v-3.5c0-.131-.088-.219-.219-.219zM4.763 13.25H2.75v-1.969c0-.131-.088-.219-.263-.219H1.219c-.131.001-.219.088-.219.22v3.5c0 .131.088.218.219.218h3.544c.131 0 .219-.087.219-.263v-1.269c-.001-.13-.088-.218-.219-.218z"/></g></svg>