<svg xmlns="http://www.w3.org/2000/svg" viewBox="0 0 16 16"><style>.icon-canvas-transparent{opacity:0;fill:#f6f6f6}.icon-vs-out{fill:#f6f6f6}.icon-vs-bg{fill:#424242}.icon-vs-fg{fill:#f0eff1}.icon-vs-action-blue{fill:#00539c}</style><path class="icon-canvas-transparent" d="M16 16H0V0h16v16z" id="canvas"/><path class="icon-vs-out" d="M15 4.208V16H2v-3H0v-3h2V9H1V4.573A2.66 2.66 0 0 1 0 2.5C0 1.293.86.283 2 .051V0h8.832L15 4.208z" id="outline"/><path class="icon-vs-bg" d="M10.442 1H4.487c.221.292.386.628.462 1H9v4h4v8H6.878L5.86 15H14V4.562L10.442 1zM10 5V2.207L12.793 5H10zM3 4c.581-.207 1-.848 1-1.5a1.5 1.5 0 0 0-3 0c0 .652.419 1.293 1 1.5v4h2V7H3V6h1V5H3V4zM2 3V2h1v1H2z" id="iconBg"/><path class="icon-vs-fg" d="M9 6h4v8H6.878l2.547-2.501L5 7.155V4h-.466C4.829 3.569 5 3.045 5 2.5c0-.171-.018-.338-.051-.5H9v4zm1-4v3h3l-3-3z" id="iconFg"/><path class="icon-vs-action-blue" d="M4.645 14.791l-.707-.707L6.022 12H1v-1.001h5.022L3.938 8.915l.707-.707 3.354 3.291-3.354 3.292z" id="colorAction"/></svg>