<svg xmlns="http://www.w3.org/2000/svg" viewBox="0 0 16 16"><style>.icon-canvas-transparent{opacity:0;fill:#f6f6f6}.icon-vs-out{fill:#f6f6f6}.icon-vs-bg{fill:#424242}.icon-vs-fg{fill:#f0eff1}.st0{fill:#424242}</style><path class="icon-canvas-transparent" d="M16 16H0V0h16v16z" id="canvas"/><path class="icon-vs-out" d="M11.621 0H3v5.605c-1.78.911-3 2.759-3 4.895s1.22 3.984 3 4.895V16h13V4.379L11.621 0z" id="outline"/><path class="icon-vs-bg" d="M11.207 1H4v5.276c-1.744.619-3 2.267-3 4.224 0 1.957 1.256 3.605 3 4.224V15h11V4.793L11.207 1zM11 2.207L13.793 5H11V2.207zM8.953 10c.025.164.047.329.047.5s-.027.335-.051.5H7v2h.737c-.44.451-1.013.831-1.737.955V7.051c.758.11 1.43.47 1.951.982H7V10h1.953zM2 10.5c0-1.391.822-2.585 2-3.149v6.298A3.495 3.495 0 0 1 2 10.5zM14 14H8.297C9.327 13.175 10 11.922 10 10.5A4.5 4.5 0 0 0 5.5 6c-.171 0-.334.032-.5.05V2h5v4h4v8zm-3.025-3H13v1h-2.212c.091-.323.156-.656.187-1zM6 5.025V5h3v1h-.344A5.461 5.461 0 0 0 6 5.025zM13 7v1h-2.605a5.508 5.508 0 0 0-.652-1H13zm-2.212 2H13v1h-2.025a5.502 5.502 0 0 0-.187-1z" id="iconBg"/><g id="iconFg"><path class="icon-vs-fg" d="M6.765 5.152l-.06-.015.06.015zm.689.212l-.096-.035.096.035zM13.793 5H11V2.207L13.793 5zM10 6V2H5v3.025C5.165 5.01 5.331 5 5.5 5c.169 0 .335.01.5.025V5h3v1h-.344a5.52 5.52 0 0 1 1.087 1H13v1h-2.605c.162.317.294.651.393 1H13v1h-2.025c.015.165.025.331.025.5 0 .236-.032.463-.061.691.008-.065.03-.126.036-.191H13v1h-2.212c.017-.061.02-.128.036-.19A5.484 5.484 0 0 1 9.744 14H14V6h-4zm.823 5.81zM8.656 6zm-1.298-.671zm-.653-.192zM9.743 7zm1.232 3z"/><path class="icon-vs-fg" d="M6.765 5.152l-.06-.015.06.015zm.689.212l-.096-.035.096.035zM13.793 5H11V2.207L13.793 5zM10 6V2H5v3.025C5.165 5.01 5.331 5 5.5 5c.169 0 .335.01.5.025V5h3v1h-.344a5.52 5.52 0 0 1 1.087 1H13v1h-2.605c.162.317.294.651.393 1H13v1h-2.025c.015.165.025.331.025.5 0 .236-.032.463-.061.691.008-.065.03-.126.036-.191H13v1h-2.212c.017-.061.02-.128.036-.19A5.484 5.484 0 0 1 9.744 14H14V6h-4z"/><path class="st0" d="M10.823 11.81zM8.656 6zm-1.298-.671zm-.653-.192zM9.743 7zm1.232 3z"/></g></svg>