<svg xmlns="http://www.w3.org/2000/svg" viewBox="0 0 16 16"><defs><style>.cls-1,.cls-2{fill:#f6f6f6;}.cls-1{opacity:0;}.cls-3{fill:#424242;}.cls-4{fill:#f0eff1;}</style></defs><title>DialogGroup_16x</title><g id="outline"><rect class="cls-1" width="16" height="16"/><path class="cls-2" d="M16,1V11H14v2H12v2H1V5H3V3H5V1Z"/></g><g id="icon_bg"><path class="cls-3" d="M2,6v8h9V6Zm8,7H3V8h7Z"/><polygon class="cls-3" points="13 4 13 12 12 12 12 5 4 5 4 4 13 4"/><polygon class="cls-3" points="15 2 15 10 14 10 14 3 6 3 6 2 15 2"/><rect class="cls-3" x="4" y="9" width="4" height="1"/><rect class="cls-3" x="4" y="11" width="3" height="1"/></g><g id="icon_fg"><path class="cls-4" d="M3,13h7V8H3ZM4,9H8v1H4Zm0,2H7v1H4Z"/></g></svg>