<svg xmlns="http://www.w3.org/2000/svg" viewBox="0 0 16 16"><style>.icon-canvas-transparent{opacity:0;fill:#f6f6f6}.icon-vs-out{fill:#f6f6f6}.icon-vs-bg{fill:#424242}.icon-white{fill:#fff}.icon-office-excel{fill:#217346}</style><path class="icon-canvas-transparent" d="M16 16H0V0h16v16z" id="canvas"/><path class="icon-vs-out" d="M3.5 9H5v5.274l11 1.668V0h-.065L7.693 1.247 6.444 0H5.41L3.843 1.621 4.22 2H3.5C1.57 2 0 3.57 0 5.5S1.57 9 3.5 9zm0-4h.735l-.45.452.548.548H3.5a.5.5 0 0 1 0-1z" id="outline"/><path class="icon-office-excel" d="M15 1.153v13.626l-9-1.363V7h.413l1.494-1.485 1.23 2.515-1.822 3.41 1.526.091 1.024-2.232c.021-.053.039-.094.054-.141.015-.049.025-.067.037-.109.012-.039.021-.027.029-.06.013-.034.016.011.023.011h.017c.013 0 .023.012.035.061.008.049.02-.009.033.03a1.052 1.052 0 0 0 .056.181l1.068 2.386 1.727.1-1.986-3.762 1.932-3.701-1.627.091-.987 2.177c-.022.068-.044.122-.063.183-.021.062-.036.091-.055.145-.017.051-.03.048-.041.093-.013.042-.024.016-.032.016h-.018c-.011 0-.026-.01-.041-.064-.013-.053-.026-.004-.042-.054-.012-.049-.03-.097-.045-.144-.019-.047-.034-.091-.053-.134l-.853-2.081-.138.008 1.019-1.013-1.379-1.387L15 1.153z" id="iconBg"/><path class="icon-white" d="M12.944 11.763l-1.727-.097-1.067-2.38c-.012-.021-.021-.033-.029-.063-.01-.03-.02-.039-.027-.08-.014-.039-.025-.032-.033-.081-.013-.049-.023-.062-.036-.062h-.017c-.007 0-.011-.045-.022-.011-.008.034-.018-.03-.029.009-.012.042-.023.085-.038.134a1.786 1.786 0 0 1-.053.155l-1.024 2.238-1.526-.088 1.822-3.409-1.23-2.515.989-.985.137-.011.854 2.075c.017.043.032.074.051.121.015.047.033.069.045.119.017.05.029.052.043.104.015.054.03.064.041.064h.018c.008 0 .019.026.031-.016.011-.044.024.009.041-.042.019-.054.033-.109.055-.17l.063-.195.987-2.183L12.89 4.3 10.958 8l1.986 3.763z" id="iconFg"/><path class="icon-vs-bg" d="M1 5.5A2.5 2.5 0 0 1 3.5 3h3.125L5.243 1.611 5.931.9l.012.012.001-.001 2.603 2.603L5.898 6.15l-.009-.009-.691-.691L6.64 4H3.5C2.673 4 2 4.673 2 5.5S2.673 7 3.5 7H4v1h-.5A2.5 2.5 0 0 1 1 5.5z" id="notificationFg"/></svg>