<svg xmlns="http://www.w3.org/2000/svg" viewBox="0 0 16 16"><style>.icon-canvas-transparent{opacity:0;fill:#f6f6f6}.icon-vs-out{fill:#f6f6f6}.icon-vs-bg{fill:#424242}.icon-vs-fg{fill:#f0eff1}</style><path class="icon-canvas-transparent" d="M16 16H0V0h16v16z" id="canvas"/><path class="icon-vs-out" d="M15 16H2V0h8.621L15 4.379V16z" id="outline"/><path class="icon-vs-bg" d="M10.207 1H3v14h11V4.793L10.207 1zM13 14H4V2h5v2h1V2.207L12.793 5H10v1h3v8zm-2.644-6.707L12.063 9l-1.707 1.707L9.648 10l1-1-1-1 .708-.707zM9 10H7l.021-5.003L9 5v5zm.014 3.028L7 13v-2l2.014.019v2.009zm-3.281-2.37L4.026 8.951l1.707-1.707.707.707-1 1 1 1-.707.707z" id="iconBg"/><path class="icon-vs-fg" d="M10 6V5h2.793L10 2.207V4H9V2H4v12h9V6h-3zM7.021 4.997L9 5v5H7l.021-5.003zM6.44 9.951l-.707.707-1.707-1.707 1.707-1.707.707.707-1 1 1 1zm2.574 3.077L7 13v-2l2.014.019v2.009zm1.342-2.321L9.648 10l1-1-1-1 .707-.707L12.063 9l-1.707 1.707z" id="iconFg"/></svg>