<svg xmlns="http://www.w3.org/2000/svg" viewBox="0 0 16 16"><style>.st0{opacity:0}.st0,.st1{fill:#f6f6f6}.st2{fill:none}.st3{fill:#424242}.st4{fill:#f0eff1}.st5{fill:#e51400}.st6{fill:#fff}</style><g id="outline"><path class="st0" d="M0 0h16v16H0z"/><path class="st1" d="M16 12c0-.659-.163-1.279-.447-1.828L14.781 7H14V0H5v3H2v7h-.781L0 15v1h13v-.132A4.004 4.004 0 0 0 15.868 13l.132-.994V12z"/><path class="st2" d="M5 6h3v1H5zM5 8h3v1H5z"/></g><g id="icon_x5F_bg"><path class="st3" d="M5 8h3v1H5zM6 1v2h1V2h5v5.05c.347.039.682.112 1 .225V1H6zM5 6h3v1H5z"/><path class="st3" d="M3 11H2l-1 4h7.703a4.49 4.49 0 0 1-1.428-2H4V5h5v2.76a4.512 4.512 0 0 1 1-.485V4H3v7z"/></g><g id="icon_x5F_fg"><path class="st4" d="M11 7.05c.166-.018.329-.05.5-.05s.334.032.5.05V2H7v1h4v4.05z"/><path class="st4" d="M7.05 12H7v-1h.05a4.476 4.476 0 0 1 .709-2H5V8h3v.703a4.522 4.522 0 0 1 1-.943V5H4v8h3.275a4.472 4.472 0 0 1-.225-1zM5 6h3v1H5V6z"/></g><path class="st5" d="M11.499 8.001a3.5 3.5 0 0 0 0 7 3.5 3.5 0 1 0 0-7m1.855 4.645l-.707.707-1.148-1.146-1.145 1.146-.707-.707 1.147-1.145-1.147-1.147.707-.707 1.145 1.146 1.148-1.146.707.707-1.147 1.147 1.147 1.145z" id="not_x5F_bg"/><path class="st6" d="M13.354 10.354l-.708-.708-1.147 1.147-1.145-1.147-.708.708 1.147 1.145-1.147 1.147.708.708 1.145-1.147 1.147 1.147.708-.708-1.147-1.147z" id="not_x5F_fg"/></svg>