<svg xmlns="http://www.w3.org/2000/svg" viewBox="0 0 16 16"><style>.icon-canvas-transparent{opacity:0;fill:#f6f6f6}.icon-vs-out{fill:#f6f6f6}.icon-white{fill:#fff}.icon-vs-bg{fill:#424242}</style><path class="icon-canvas-transparent" d="M16 0v16H0V0h16z" id="canvas"/><path class="icon-vs-out" d="M16 8.371L8.371 16h-.742L0 8.371v-.742L7.629 0h.742L16 7.629v.742z" id="outline"/><path transform="rotate(-45.001 8 8)" class="icon-white" d="M4.081 4.081h7.839v7.839H4.081z" id="iconFg"/><path class="icon-vs-bg" d="M8.707 3.164L8 2.457l-.707.707-.707-.707L8 1.043l1.414 1.414-.707.707zm-2.594 1.18l-.707-.707-1.77 1.77.707.707 1.77-1.77zM3.164 8.707L2.457 8l.707-.707-.707-.707L1.043 8l1.414 1.414.707-.707zm2.949 2.949l-1.77-1.77-.707.707 1.77 1.77.707-.707zm3.301 1.887l-.707-.707-.707.707-.707-.707-.707.707L8 14.957l1.414-1.414zm2.949-2.949l-.707-.707-1.77 1.77.707.707 1.77-1.77zM14.957 8l-1.414-1.414-.707.707.707.707-.707.707.707.707L14.957 8zm-2.594-2.594l-1.77-1.77-.706.708 1.77 1.77.706-.708z" id="iconBg"/></svg>