<svg xmlns="http://www.w3.org/2000/svg" viewBox="0 0 16 16"><style>.icon-canvas-transparent{opacity:0;fill:#f6f6f6}.icon-vs-out{fill:#f6f6f6}.icon-vs-bg{fill:#424242}.icon-white{fill:#fff}</style><path class="icon-canvas-transparent" d="M16 16H0V0h16v16z" id="canvas"/><path class="icon-vs-out" d="M15.937 9.313l-1.786-1.785-1.149 1.145V2.977h-3v5.678L9 7.656V0H0v9h1v3h1.586L1 13.586V16h7v-3H6.449l1.013-1H8v-.576l.247-.28 3.271 3.272 4.419-4.435v-.668zM3.877 5L4.5 3.442 5.123 5H3.877z" id="outline"/><path class="icon-vs-bg" d="M2 10h5v1h-.048l.048.051L4.013 14H7v1H2v-1l3-3H2v-1zm2.518-6.75L3.818 5h1.4l-.7-1.75zM1 1h7v7H1V1zm1 6h1l.399-1H5.6L6 7h1L5 2H4L2 7zm12.154 1.968l-2.148 2.14V4.004h-1v7.086l-2.13-2.122-.707.707 3.352 3.352 3.34-3.352-.707-.707z" id="iconBg"/><path class="icon-white" d="M6.018 7h1l-2-5h-1l-2 5h1l.399-1h2.201l.4 1zm-2.2-2l.7-1.75.7 1.75h-1.4z" id="iconFg"/></svg>