<svg xmlns="http://www.w3.org/2000/svg" viewBox="0 0 16 16"><defs><style>.icon-canvas-transparent,.icon-vs-out{fill:#f6f6f6;}.icon-canvas-transparent{opacity:0;}.icon-vs-bg{fill:#424242;}.icon-vs-action-green{fill:#388a34;}</style></defs><title>AddLocalServer_16x</title><g id="canvas"><path class="icon-canvas-transparent" d="M16,16H0V0H16Z"/></g><g id="outline"><path class="icon-vs-out" d="M16,2V16H6V8H2.019V6H0V2.018H2.019V0H6V2A2,2,0,0,1,8,0h6A2,2,0,0,1,16,2Z"/></g><g id="iconBg"><rect class="icon-vs-bg" x="9" y="12" width="4" height="1"/><rect class="icon-vs-bg" x="9" y="10" width="4" height="1"/><path class="icon-vs-bg" d="M14,1H8A1,1,0,0,0,7,2v.018H8V2h6V14H8V6H7v9h8V2A1,1,0,0,0,14,1Z"/><rect class="icon-vs-bg" x="9" y="3" width="4" height="1"/></g><g id="colorAction"><path class="icon-vs-action-green" d="M7,3.018V5H5V7H3.019V5H1V3.018H3.019V1H5V3.018Z"/></g></svg>