<svg xmlns="http://www.w3.org/2000/svg" viewBox="0 0 16 16"><style>.icon-canvas-transparent{opacity:0;fill:#f6f6f6}.icon-vs-out{fill:#f6f6f6}.icon-vs-bg{fill:#424242}.icon-vs-fg{fill:#f0eff1}.icon-vs-action-orange{fill:#c27d1a}</style><path class="icon-canvas-transparent" d="M16 16H0V0h16v16z" id="canvas"/><path class="icon-vs-out" d="M9.5 4v1.414L2.914 12H.382l2-4H0V6.764L3.382 0H9v1.414L6.414 4H9.5zM16 9H9v7h7V9z" id="outline"/><path class="icon-vs-bg" d="M10 10v5h5v-5h-5zm4 3.867h-1.005l-.005-1.158-1.299 1.299-.707-.707 1.287-1.287-1.15-.005v-1h2.88v2.858z" id="iconBg"/><path class="icon-vs-fg" d="M14 13.867h-1.005l-.005-1.158-1.299 1.299-.707-.707 1.287-1.287-1.15-.005v-1h2.88v2.858z" id="iconFg"/><path class="icon-vs-action-orange" d="M8.518 5l-6 6H2l2.018-4H1l3-6h4L4 5h4.518z" id="colorAction"/></svg>