<svg xmlns="http://www.w3.org/2000/svg" viewBox="0 0 16 16"><style>.icon-canvas-transparent{opacity:0;fill:#f6f6f6}.icon-vs-out{fill:#f6f6f6}.icon-vs-fg{fill:#f0eff1}.icon-vs-blue{fill:#1ba1e2}.icon-white{fill:#fff}.icon-vs-bg_x0020_{fill:#424242}</style><path class="icon-canvas-transparent" d="M16 16H0V0h16v16z" id="canvas"/><path class="icon-vs-out" d="M16 11.5c0-1.953-1.258-3.602-3-4.224V4.379L8.622 0H.002L0 16h13v-.276c1.742-.622 3-2.271 3-4.224z" id="outline"/><path class="icon-vs-bg_x0020_" d="M7.276 13H3v-1h4.051c.039.347.112.681.225 1zm0-3H3v1h4.051c.039-.347.112-.681.225-1zm1.43-2H3v1h4.762c.257-.384.584-.712.944-1zM1 15l.017-13H1V1h7.207L12 4.793v2.258c-.166-.019-.329-.051-.5-.051s-.334.032-.5.051V6H7V2H2v12h5.762c.258.384.584.712.945 1H1zM8 5h2.793L8 2.207V5zM6 6H3v1h3V6zm0-2H3v1h3V4z" id="iconBg"/><path class="icon-vs-fg" d="M7.276 13H3v-1h4.051c-.019-.166-.051-.329-.051-.5s.032-.334.051-.5H3v-1h4.276c.126-.353.28-.693.485-1H3V8h5.706A4.445 4.445 0 0 1 11 7.051V6H7V2H2v12h5.762a4.493 4.493 0 0 1-.486-1zM3 4h3v1H3V4zm0 2h3v1H3V6z" id="iconFg"/><path class="icon-vs-blue" d="M11.5 8a3.5 3.5 0 1 0 0 7 3.5 3.5 0 0 0 0-7zm.5 6h-1v-1h1v1zm1-3c0 .551-.449 1-1 1v.5h-1V12c0-.551.449-1 1-1v-1c-.08-.044-.252-.102-.5-.102s-.42.058-.5.102v1h-1v-1c0-.58.631-1 1.5-1s1.5.42 1.5 1v1z" id="notificationBg"/><path class="icon-white" d="M12 12.5h-1V12c0-.551.449-1 1-1v-1c-.08-.044-.252-.102-.5-.102s-.42.058-.5.102v1h-1v-1c0-.58.631-1 1.5-1s1.5.42 1.5 1v1c0 .551-.449 1-1 1v.5zm0 .5h-1v1h1v-1z" id="notificationFg"/></svg>