<svg xmlns="http://www.w3.org/2000/svg" viewBox="0 0 16 16"><style>.icon-canvas-transparent{opacity:0;fill:#f6f6f6}.icon-vs-out{fill:#f6f6f6}.icon-vs-bg{fill:#424242}</style><path class="icon-canvas-transparent" d="M0 0h16v16H0z" id="canvas"/><path class="icon-vs-out" d="M2 16V0h8.621L15 4.379V16H2z" id="outline"/><path class="icon-vs-bg" d="M12 12H8v-1h4v1zM7.608 9H6.594l-.431.834a1.353 1.353 0 0 0-.07.148L6.086 10h-.107l-.004-.008C5.952 9.942 5.478 9 5.478 9H4.405l.952 1.506L4.344 12h1.063s.479-.894.499-.942c.016-.039.08-.013.115-.021l.007.018c.022.047.508.945.508.945h1.066l-.984-1.547L7.608 9zM14 4.793V15H3V1h7.207L14 4.793zM10 5h2.793L10 2.207V5zm3 1H9V2H4v12h9V6z" id="iconBg"/></svg>