<svg xmlns="http://www.w3.org/2000/svg" viewBox="0 0 16 16"><defs><style>.icon-canvas-transparent,.icon-vs-out{fill:#f6f6f6;}.icon-canvas-transparent{opacity:0;}.icon-vs-bg{fill:#424242;}</style></defs><title>Team_16x</title><g id="canvas"><path class="icon-canvas-transparent" d="M16,16H0V0H16Z"/></g><g id="outline"><path class="icon-vs-out" d="M7,16V15a2,2,0,0,0-4,0v1H0V15a4.938,4.938,0,0,1,1.706-3.745A3.99,3.99,0,0,1,7.467,5.862a4,4,0,1,1,6.827.392A4.944,4.944,0,0,1,16,10v1H13V10a2,2,0,0,0-2-2A2.365,2.365,0,0,0,9,9.324v.1l-.016.054-.059.3A3.958,3.958,0,0,1,8.3,11.257,4.939,4.939,0,0,1,10,15v1Z"/></g><g id="iconBg"><path class="icon-vs-bg" d="M12.754,6.423a3,3,0,1,0-3.506,0A4.018,4.018,0,0,0,7.716,7.746a2.994,2.994,0,1,0-4.47,3.677A3.99,3.99,0,0,0,1,15H2a3,3,0,0,1,6,0H9a3.99,3.99,0,0,0-2.246-3.577A3,3,0,0,0,7.941,9.584L8,9.282A3.167,3.167,0,0,1,11,7a3,3,0,0,1,3,3h1A3.99,3.99,0,0,0,12.754,6.423ZM5,11A2,2,0,1,1,7,9,2,2,0,0,1,5,11Zm6-5a2,2,0,1,1,2-2A2,2,0,0,1,11,6Z"/></g></svg>