<svg xmlns="http://www.w3.org/2000/svg" viewBox="0 0 16 16"><defs><style>.icon-canvas-transparent,.icon-vs-out{fill:#f6f6f6;}.icon-canvas-transparent{opacity:0;}.icon-vs-bg{fill:#424242;}</style></defs><title>Taxi_16x</title><g id="canvas"><path class="icon-canvas-transparent" d="M16,16H0V0H16Z"/></g><g id="outline"><path class="icon-vs-out" d="M16,8h-.653L16,9.826V14a2,2,0,0,1-2,2H13a2,2,0,0,1-1.731-1H4.731A2,2,0,0,1,3,16H2a2,2,0,0,1-2-2L.031,9.649.631,8H0V5H1.723l.129-.354A2.512,2.512,0,0,1,3.525,3.1l.495-.989A1.988,1.988,0,0,1,5.809,1h4.382a1.987,1.987,0,0,1,1.788,1.1l.5.991a2.513,2.513,0,0,1,1.673,1.55L14.275,5H16Z"/></g><g id="iconBg"><path class="icon-vs-bg" d="M4.375,10A.875.875,0,1,1,3.5,9.125.875.875,0,0,1,4.375,10Zm9,0a.875.875,0,1,0-.875.875A.875.875,0,0,0,13.375,10Zm1.332-3-.574.574L15,10v4a1,1,0,0,1-1,1H13a1,1,0,0,1-1-1H4a1,1,0,0,1-1,1H2a1,1,0,0,1-1-1l.03-4.171.825-2.267L1.293,7H1V6h.707l.525.525.559-1.538A1.5,1.5,0,0,1,4.19,4l.724-1.449A1,1,0,0,1,5.809,2h4.382a1,1,0,0,1,.895.552L11.81,4a1.5,1.5,0,0,1,1.4.985l.552,1.545L14.293,6H15V7Zm-8.9-4-.5,1h5.382l-.5-1ZM3.73,5.329,3.123,7h9.754L12.27,5.329A.5.5,0,0,0,11.8,5H4.2A.5.5,0,0,0,3.73,5.329ZM11,13v-.382L10.191,11H5.809L5,12.618V13Zm1-.618V13h2V10.088L13.241,8H2.759L2,10.088V13H4v-.618L5.191,10h5.618Z"/></g></svg>