<svg xmlns="http://www.w3.org/2000/svg" viewBox="0 0 16 16"><defs><style>.icon-canvas-transparent,.icon-vs-out{fill:#f6f6f6;}.icon-canvas-transparent{opacity:0;}.icon-vs-bg{fill:#424242;}</style></defs><title>ViewSnapshots_16x</title><path class="icon-canvas-transparent" d="M16,0V16H0V0Z"/><path class="icon-vs-out" d="M3,13H4v3H0V12H3ZM5,0V3H2V6H0v4H3V9H4V7H5V6H6V9H7v1h3v1H9v1H7v1H6v3h4V14h3V11h3V0Z"/><path class="icon-vs-bg" d="M1,7H3V8H2V9H1Zm1,6H1v2H3V14H2Zm6,1H7v1H9V13H8ZM7,8H8V9H9V7H7ZM3,6H4V5h7v7H10v1h2V4H3ZM6,1V3H7V2h7V9H13v1h2V1Z"/></svg>