<svg xmlns="http://www.w3.org/2000/svg" viewBox="0 0 16 16"><style>.icon-canvas-transparent{opacity:0;fill:#f6f6f6}.icon-vs-out{fill:#f6f6f6}.icon-vs-bg{fill:#424242}.icon-vs-fg{fill:#f0eff1}.icon-vs-yellow{fill:#fc0}</style><path class="icon-canvas-transparent" d="M16 16H0V0h16v16z" id="canvas"/><path class="icon-vs-out" d="M.01 0v2.494a2.498 2.498 0 0 0 2.5 2.491h.146l-.082.083.932.932H2v6h5.988L6.97 14.025 8.004 16h6.998l.971-2.005-1.64-3.306.319-.336c.103-.095.202-.192.288-.304l.477-.614-.698-.895.354-.044.781-.19.1-.768A3.79 3.79 0 0 0 16 7c0-.182-.021-.357-.059-.631l-.098-.769-1.124-.141.698-.895-.476-.614a5.037 5.037 0 0 0-.89-.891l-.614-.477-.897.7-.044-.355-.191-.782-.769-.099C11.359 2.021 11.184 2 11 2s-.359.021-.632.059l-.768.099-.14 1.124-.897-.699-.609.472L4.898 0h-.302L3.011 1.584 3.014 0H.01zM8 10.98l.36.279-.36.717v-.996zM7 8.9v-.395l.281.035L7 8.9zm-.09-3.916l.371.475-.354.045-.716.177.699-.697zm-.773.771L6.105 6h-.214l.246-.245z" id="outline"/><path class="icon-vs-bg" d="M12 7h-1.5l-.291.583A.974.974 0 0 1 10 7a1 1 0 1 1 2 0zm2.949.504c.022-.166.051-.33.051-.504 0-.172-.029-.336-.051-.504l-1.235-.154a2.804 2.804 0 0 0-.331-.795l.768-.984a3.972 3.972 0 0 0-.712-.713l-.985.768a2.773 2.773 0 0 0-.795-.33l-.154-1.236C11.337 3.029 11.173 3 11 3s-.337.029-.504.051l-.154 1.236a2.773 2.773 0 0 0-.795.33l-.985-.767a3.972 3.972 0 0 0-.712.713l.768.984c-.148.244-.262.51-.331.795l-1.236.154C7.029 6.664 7 6.828 7 7c0 .174.029.338.051.504l1.235.154c.069.285.183.551.331.795L8 9.244v.344c.174.201.351.399.562.563l.595-.464.576-1.151A1.986 1.986 0 0 1 9 7c0-1.104.893-2 2-2s2 .896 2 2c0 .255-.052.497-.14.722l1.002 2.004c.094-.099.204-.18.288-.288l-.768-.984c.148-.244.262-.51.331-.795l1.236-.155zM3 8h3V7H3v1zm0 3h4v-1H3v1zm.987-5.934l.711.711L6.984 3.5 4.747 1.263l-.708.709 1.008 1.013-2.537.008a.501.501 0 0 1-.5-.5L2.012 1H1.01v1.493c0 .827.673 1.491 1.5 1.491h2.554L3.987 5.066z" id="iconBg"/><path class="icon-vs-fg" d="M9 7a2 2 0 0 1 4 0c0 .255-.053.497-.14.721L12.5 7H12a1 1 0 1 0-2 0c0 .222.086.417.209.583l-.477.952A1.987 1.987 0 0 1 9 7z" id="iconFg"/><path class="icon-vs-yellow" d="M11.891 8.016h-.781l-3.016 6 .515.984h5.766l.484-1-2.968-5.984zM12 14h-1v-1h1v1zm0-2h-1v-2h1v2z" id="notificationBg"/><path class="icon-black" d="M12 12h-1v-2h1v2zm0 1h-1v1h1v-1z" id="notificationFg"/></svg>