<svg xmlns="http://www.w3.org/2000/svg" viewBox="0 0 16 16"><defs><style>.icon-canvas-transparent,.icon-vs-out{fill:#f6f6f6;}.icon-canvas-transparent{opacity:0;}.icon-vs-bg{fill:#424242;}.icon-cpp-purple{fill:#9b4f96;}</style></defs><title>CPPPhoneHub_16x</title><g id="canvas"><path class="icon-canvas-transparent" d="M16,0V16H0V0Z"/></g><g id="outline"><path class="icon-vs-out" d="M14,2V14a2,2,0,0,1-2,2H0V6H3V2A2,2,0,0,1,5,0h7A2,2,0,0,1,14,2Z"/></g><g id="iconBg"><path class="icon-vs-bg" d="M13,2V14a1,1,0,0,1-1,1H10V14h2V2H5V6H4V2A1,1,0,0,1,5,1h7A1,1,0,0,1,13,2Z"/></g><g id="colorImportance"><path class="icon-cpp-purple" d="M1,7v8H9V7Zm7,7H2V9H8ZM7,11H5V10H7ZM4,11H3V10H4Zm3,2H5V12H7ZM4,13H3V12H4Z"/></g></svg>