<svg xmlns="http://www.w3.org/2000/svg" viewBox="0 0 16 16"><style>.icon-canvas-transparent{opacity:0;fill:#f6f6f6}.icon-vs-out{fill:#f6f6f6}.icon-vs-bg{fill:#424242}.icon-vs-fg{fill:#f0eff1}.icon-vs-action-blue{fill:#00539c}</style><path class="icon-canvas-transparent" d="M16 16H0V0h16v16z" id="canvas"/><path class="icon-vs-out" d="M14.881 11.445L8.668 16h-.487l-7.157-4.51V5.515H0V2.539h3.665L2.581 1.455 4.035 0h1.333l.842.824L7.839 0h.486l6.556 3.458v7.987z" id="outline"/><path class="icon-vs-fg" d="M13 5.365v5.144L8.973 13.41V8L13 5.365zM8.006 2.056l-.354.18 1.831 1.792-2.414 2.36 1.259.718 4.476-2.687-4.798-2.363zM4.694 8.712L2.992 7.01v3.341l4.947 3.226v.023l.014-.012.013.012v-.023l.04-.026V7.966L6.383 7.06 4.694 8.712zM2.992 5.515v.673l.673-.673h-.673z" id="iconFg"/><path class="icon-vs-bg" d="M8.078 1l-1.105.559.545.545.191.187.298-.151 4.642 2.287L8.328 7.02l-1.203-.686-.798.78 1.604.896v5.472L3.067 10.31V5.515H2.025v5.424l6.376 4.018 5.48-4.018V4.062L8.078 1zm4.847 9.471l-3.877 2.793V8.041l3.877-2.537v4.967z" id="iconBg"/><path class="icon-vs-action-blue" d="M8.053 4.027L4.701 7.306l-.707-.707 2.084-2.084H.993v-.976h5.085L3.994 1.455l.707-.707 3.352 3.279z" id="colorAction"/></svg>