<svg xmlns="http://www.w3.org/2000/svg" viewBox="0 0 16 16"><style>.icon-canvas-transparent{opacity:0;fill:#f6f6f6}.icon-vs-out{fill:#f6f6f6}.icon-vs-bg{fill:#424242}.icon-vs-fg{fill:#f0eff1}.icon-cs-green{fill:#388a34}.st0{fill:#f6f6f6}</style><path class="icon-canvas-transparent" d="M0 0h16v16H0z" id="canvas"/><g id="outline"><path class="icon-vs-out" d="M13 7V4.379L8.621 0H0v16h12v-4h4V7z"/><path class="st0" d="M0 13V8"/></g><path class="icon-vs-bg" d="M7 14H2V2h5v4h4v1h1V4.793L8.207 1H1v14h6v-1zM8 2.207L10.793 5H8V2.207zM5 9H3V7h2v2zm2 0H6V7h1v2zm-2 3H3v-2h2v2z" id="iconBg"/><g id="iconFg"><path class="icon-vs-fg" d="M7 12V9H6V7h5V6H7V2H2v12h5v-2zm-2 0H3v-2h2v2zm0-3H3V7h2v2z"/><path class="icon-vs-fg" d="M8 2v3h3z"/></g><g id="colorImportance"><path class="icon-cs-green" d="M8 8h3v3H8zm4 0h3v3h-3zm-4 4h3v3H8z"/><path class="icon-cs-green" d="M8 8h3v3H8zm4 0h3v3h-3zm-4 4h3v3H8z"/></g></svg>