<svg xmlns="http://www.w3.org/2000/svg" viewBox="0 0 16 16"><style>.icon-canvas-transparent{opacity:0;fill:#f6f6f6}.icon-vs-out{fill:#f6f6f6}.icon-vs-bg{fill:#424242}.icon-vs-fg{fill:#f0eff1}</style><path class="icon-canvas-transparent" d="M16 16H0V0h16v16z" id="canvas"/><path class="icon-vs-out" d="M9 11h-.438l1.178 1.178L5.931 16h-1.89L.22 12.179l2.12-2.12 1.133 1.129V9.756a.949.949 0 0 0-.028-.26l-.012.001c-.026 0-.079-.008-.161-.008H0v-3h3.207c.988 0 1.784.298 2.373.886.584.584.893 1.407.893 2.38v1.447L7 10.677V4h1c0-1.978.416-4 3.5-4 .833 0 1.885.096 2.623.845.797.808.892 2.047.877 3.155h1v7H9z" id="outline"/><path class="icon-vs-bg" d="M4.471 13.594l.001-3.839c0-.437-.104-.761-.307-.964-.3-.301-.76-.304-.943-.301H1v-1H3.213c.711 0 1.266.2 1.66.594.397.397.6.96.6 1.672l-.001 3.857 2.148-2.14.707.707-3.34 3.352-3.352-3.352.707-.707 2.129 2.121zM14 5V4c.032-2.32-.567-3-2.5-3S9 1.765 9 4v1H8v5h7V5h-1zm-2 4h-1V6h1v3zm1-4.5V5h-3v-.5c0-1.104-.234-2.418 1.568-2.418C13.203 2.082 13 3.396 13 4.5z" id="iconBg"/><path class="icon-vs-fg" d="M12 9h-1V6h1v3z" id="iconFg"/></svg>