<svg xmlns="http://www.w3.org/2000/svg" viewBox="0 0 16 16"><defs><style>.icon-canvas-transparent,.icon-vs-out{fill:#f6f6f6;}.icon-canvas-transparent{opacity:0;}.icon-vs-fg{fill:#f0eff1;}.icon-vs-bg{fill:#424242;}</style></defs><title>CameraOutline_16x</title><g id="canvas"><path class="icon-canvas-transparent" d="M16,16H0V0H16Z"/></g><g id="outline"><path class="icon-vs-out" d="M0,15V3H3.871l1-1h6.242l1,1H16V15Z"/></g><g id="iconFg"><path class="icon-vs-fg" d="M10,9A2,2,0,1,1,8,7,2,2,0,0,1,10,9Zm4-4v8H2V5H4.7l1-1h4.585l1,1ZM4.992,6.492a.492.492,0,1,0-.492.491A.492.492,0,0,0,4.992,6.492ZM11,9a3,3,0,1,0-3,3A3,3,0,0,0,11,9Z"/></g><g id="iconBg"><path class="icon-vs-bg" d="M15,14H1V4H4.285l1-1H10.7l1,1H15ZM2,13H14V5H11.285l-1-1H5.7l-1,1H2Zm6-1a3,3,0,1,1,3-3A3,3,0,0,1,8,12ZM8,7a2,2,0,1,0,2,2A2,2,0,0,0,8,7ZM4.5,6a.492.492,0,1,0,.492.492A.492.492,0,0,0,4.5,6Z"/></g></svg>