<svg xmlns="http://www.w3.org/2000/svg" viewBox="0 0 16 16"><defs><style>.icon-canvas-transparent,.icon-vs-out{fill:#f6f6f6;}.icon-canvas-transparent{opacity:0;}.icon-vs-fg{fill:#f0eff1;}.icon-vs-bg{fill:#424242;}</style></defs><title>Camera_16x</title><g id="canvas"><path class="icon-canvas-transparent" d="M16,16H0V0H16Z"/></g><g id="outline"><path class="icon-vs-out" d="M0,15V3H3.871l1-1h6.243l1,1H16V15Z"/></g><g id="iconFg"><path class="icon-vs-fg" d="M4.992,5.992A.992.992,0,1,0,4,6.983.992.992,0,0,0,4.992,5.992ZM8,6a3,3,0,1,0,3,3A3,3,0,0,0,8,6Zm0,5a2,2,0,1,1,2-2A2,2,0,0,1,8,11Z"/></g><g id="iconBg"><path class="icon-vs-bg" d="M10,9A2,2,0,1,1,8,7,2,2,0,0,1,10,9Zm5-5V14H1V4H4.285l1-1H10.7l1,1ZM4.992,5.992A.992.992,0,1,0,4,6.983.992.992,0,0,0,4.992,5.992ZM11,9a3,3,0,1,0-3,3A3,3,0,0,0,11,9Z"/></g></svg>