<svg xmlns="http://www.w3.org/2000/svg" viewBox="0 0 16 16"><defs><style>.icon-canvas-transparent,.icon-vs-out{fill:#f6f6f6;}.icon-canvas-transparent{opacity:0;}.icon-vs-bg{fill:#424242;}.icon-vs-fg{fill:#f0eff1;}</style></defs><title>Camera_Overlay_16x</title><g id="canvas"><path class="icon-canvas-transparent" d="M16,16H0V0H16Z"/></g><g id="outline"><path class="icon-vs-out" d="M6,16V9H7.586l1-1h4.828l1,1H16v7Z"/></g><g id="iconBg"><path class="icon-vs-bg" d="M12.25,12A1.25,1.25,0,1,1,11,10.75,1.251,1.251,0,0,1,12.25,12ZM15,10v5H7V10H8L9,9h4l1,1Zm-2,2a2,2,0,1,0-2,2A2,2,0,0,0,13,12Z"/></g><g id="iconFg"><path class="icon-vs-fg" d="M11,10.75A1.25,1.25,0,1,1,9.75,12,1.251,1.251,0,0,1,11,10.75M11,10a2,2,0,1,0,2,2,2,2,0,0,0-2-2Z"/></g></svg>