<svg xmlns="http://www.w3.org/2000/svg" viewBox="0 0 16 16"><defs><style>.icon-canvas-transparent,.icon-vs-out{fill:#f6f6f6;}.icon-canvas-transparent{opacity:0;}.icon-vs-bg{fill:#424242;}</style></defs><title>EditCode_16x</title><g id="canvas"><path class="icon-canvas-transparent" d="M16,16H0V0H16Z"/></g><g id="outline"><path class="icon-vs-out" d="M13.523,5.572a2.916,2.916,0,0,0,.015-.3,2.755,2.755,0,0,0-.181-.868,2.235,2.235,0,0,0-.536-.8A2.413,2.413,0,0,0,11.1,2.916h0a2.6,2.6,0,0,0-.867.169,2.281,2.281,0,0,0-.818.528L4.142,8.891,3.7,8.453l2.4-2.4L4.051,4,0,8.039v.829l3.314,3.314L3,13.458l4.558-1.137,4.3-4.31.443.444-2.4,2.4,2.05,2.05L16,8.869V8.038Z"/></g><g id="iconBg"><path class="icon-vs-bg" d="M2.291,8.454,3.745,9.908l-.263,1.028L1,8.454,4.05,5.411l.638.639ZM15,8.454,11.95,11.5l-.638-.638,2.4-2.4L12.652,7.4c.123-.123.235-.236.334-.34a2.361,2.361,0,0,0,.269-.341ZM11.121,3.915a1.423,1.423,0,0,1,.553.106,1.459,1.459,0,0,1,.454.3,1.258,1.258,0,0,1,.3.447,1.739,1.739,0,0,1,.113.553,1.418,1.418,0,0,1-.106.539,1.379,1.379,0,0,1-.3.461l-5.085,5.1-2.674.667.666-2.674,5.086-5.092a1.29,1.29,0,0,1,.461-.3A1.64,1.64,0,0,1,11.121,3.915Zm.361,1.766a.49.49,0,0,0,.149-.362.463.463,0,0,0-.142-.354.533.533,0,0,0-.368-.142.646.646,0,0,0-.192.028.363.363,0,0,0-.163.106L5.858,9.879l-.241.958.957-.241Z"/></g></svg>