<svg xmlns="http://www.w3.org/2000/svg" viewBox="0 0 16 16"><style>.icon-canvas-transparent{opacity:0;fill:#f6f6f6}.icon-vs-out{fill:#f6f6f6}.icon-vs-bg{fill:#424242}.icon-vs-fg{fill:#f0eff1}.icon-vs-action-blue{fill:#00539c}</style><path class="icon-canvas-transparent" d="M16 16H0V0h16v16z" id="canvas"/><path class="icon-vs-out" d="M16 0v15h-3.141l-1.018 1h-.401l-.999-1H0V0h16z" id="outline"/><path class="icon-vs-bg" d="M5 10h2l2-.001V4H5v6zm1-5h2v4H6V5zm9-2H1V1h14v2zM7 13v1H1v-2h6v1zm3-9h4v5.118l-.421-.413-.578-.568L13 8.136V5h-2v2.438l-.749.749-.251.251V4z" id="iconBg"/><path class="icon-vs-fg" d="M7 12H1V3h14v7.1l-1-.981V4h-4v4.438l-.472.472-.005.005 1.084 1.084H9V4H5v6h3.203H7v2zm6-7h-2v2.438l.638-.638.203.2h.001l1.019 1v.001l.139.136V5zM8 9V5H6v4h2z" id="iconFg"/><path class="icon-vs-action-blue" d="M11.645 14.791l-.707-.707L13.022 12H8v-1.001h5.022l-2.084-2.084.707-.707 3.354 3.291-3.354 3.292z" id="colorAction"/></svg>