<svg xmlns="http://www.w3.org/2000/svg" viewBox="0 0 16 16"><defs><style>.icon-canvas-transparent,.icon-vs-out{fill:#f6f6f6;}.icon-canvas-transparent{opacity:0;}.icon-white{fill:#fff;}.syntax-snappoint-purple{fill:purple;}</style></defs><title>ProductionTracePointAdvancedOff_16x</title><g id="canvas"><path class="icon-canvas-transparent" d="M16,0V16H0V0Z"/></g><g id="outline"><path class="icon-vs-out" d="M16,8.371,8.371,16H7.629L0,8.371V7.629L7.629,0h.742L16,7.629Z"/></g><g id="iconFg"><path class="icon-white" d="M8,2.457,2.457,8,8,13.543,13.543,8ZM9,9v2H7V9H5V7H7V5H9V7h2V9Z"/></g><g id="iconBg"><path class="syntax-snappoint-purple" d="M8,1.043,1.043,8,8,14.957,14.957,8ZM2.457,8,8,2.457,13.543,8,8,13.543ZM11,7V9H9v2H7V9H5V7H7V5H9V7Z"/></g></svg>