<svg xmlns="http://www.w3.org/2000/svg" viewBox="0 0 16 16"><style>.icon-canvas-transparent{opacity:0;fill:#f6f6f6}.icon-vs-out{fill:#f6f6f6}.icon-vs-bg{fill:#424242}.icon-vs-fg{fill:#f0eff1}</style><path class="icon-canvas-transparent" d="M16 16H0V0h16v16z" id="canvas"/><path class="icon-vs-out" d="M15 16H2V0h9l4 4v12z" id="outline"/><path class="icon-vs-bg" d="M7 3H6V2h1v1zm0 1H6v1h1V4zm0 2H6v1h1V6zm3.5-5L14 4.542V15H3V1h7.5zM13 6H9V2H4v12h9V6zm-.207-1L10 2.207V5h2.793zM7 8H6v1h1V8zm0 2H6v1h1v-1zm0 2H6v1h1v-1zm-3-1h1v-1H4v1zm5-1H8v1h1v-1zm2 0h-1v1h1v-1zm2 0h-1v1h1v-1z" id="iconBg"/><g id="iconFg"><path class="icon-vs-fg" d="M10 2.042V5h3z"/><path class="icon-vs-fg" d="M13 10V6H9V2H7v1H6V2H4v8h1v1H4v3h9v-3h-1v-1h1zm-6 3H6v-1h1v1zm0-2H6v-1h1v1zm0-2H6V8h1v1zm0-2H6V6h1v1zm0-2H6V4h1v1zm2 6H8v-1h1v1zm2 0h-1v-1h1v1z"/><path class="icon-vs-fg" d="M10 2.042V5h3z"/><path class="icon-vs-fg" d="M13 10V6H9V2H7v1H6V2H4v8h1v1H4v3h9v-3h-1v-1h1zm-6 3H6v-1h1v1zm0-2H6v-1h1v1zm0-2H6V8h1v1zm0-2H6V6h1v1zm0-2H6V4h1v1zm2 6H8v-1h1v1zm2 0h-1v-1h1v1z"/></g></svg>