<svg xmlns="http://www.w3.org/2000/svg" viewBox="0 0 16 16"><defs><style>.icon-canvas-transparent,.icon-vs-out{fill:#f6f6f6;}.icon-canvas-transparent{opacity:0;}.icon-vs-blue{fill:#1ba1e2;}</style></defs><title>Ice_16x</title><g id="canvas"><path class="icon-canvas-transparent" d="M16,16H0V0H16Z"/></g><g id="outline"><path class="icon-vs-out" d="M14.393,13.571,13.625,14.9l-3.7.992L8.6,15.126l-.991-3.7L8.375,10.1l3.7-.992,1.33.768ZM8.268,8.232,6.8,6.767l4.624,1.239,1.33-.768,1.25-4.663-.768-1.331L8.574-.006,7.244.762,5.994,5.425l.727,1.261L5.268,5.232H3.732l-3,3V9.768l3,3H5.268l3-3Z"/></g><g id="iconBg"><path class="icon-vs-blue" d="M4.146,6.232,1.732,8.646v.708l2.414,2.414h.708L7.268,9.354V8.646L4.854,6.232ZM4.5,10.707,2.793,9,4.5,7.293,6.207,9Zm7.4-4.128,1.036-3.863L12.579,2.1,8.715,1.067,8.1,1.421,7.067,5.284l.354.613,3.864,1.036ZM8.163,5.061l.776-2.9,2.9.776-.776,2.9Zm4.38,5.472-.612-.353-2.9.776-.354.613.777,2.9.612.353,2.9-.776.354-.613Zm-2.25,3.192-.518-1.932,1.932-.518.518,1.932Z"/></g></svg>