<svg xmlns="http://www.w3.org/2000/svg" viewBox="0 0 16 16"><style>.icon-vs-out{fill:#f6f6f6}.icon-vs-bg{fill:#424242}.icon-vs-fg{fill:#f0eff1}.icon-folder{fill:#dcb67a}.icon-canvas-transparent_x0020_{opacity:0;fill:#f6f6f6}</style><path class="icon-canvas-transparent_x0020_" d="M.16 0h16v16h-16V0z" id="canvas"/><path class="icon-vs-out" d="M13.496 2.167H10.61l-1-2H1.5C.673.167 0 .84 0 1.667V16h9v-3h4.496c.827 0 1.5-.673 1.5-1.5V3.667c0-.828-.673-1.5-1.5-1.5z" id="outline"/><path class="icon-vs-fg" d="M8.874 3H2V2h6.374l.5 1zM2 14h2v-4H2v4zm3 0h2v-4H5v4z" id="iconBg"/><g id="iconFg"><path class="icon-folder" d="M13.496 3H9.992l-1-2H1.5a.5.5 0 0 0-.5.5v5.947c.052-.103.104-.207.172-.304a2.27 2.27 0 0 1 1.869-.962c.564 0 1.052.195 1.46.582a2.047 2.047 0 0 1 1.459-.582 2.277 2.277 0 0 1 1.867.962c.186.262.313.553.376.857H9v4h4.496a.5.5 0 0 0 .5-.5v-8a.5.5 0 0 0-.5-.5zM2 3V2h6.374l.5 1H2z"/><path class="icon-vs-bg" d="M7.232 8.68a1.286 1.286 0 0 0-1.051-1.481c-.908-.148-1.292.633-1.44.927-.037.074-.132.284-.241.527a22.24 22.24 0 0 0-.24-.525c-.148-.296-.53-1.077-1.441-.929a1.285 1.285 0 0 0-1.051 1.48c.019.114.062.219.113.321H1v6h7V9h-.881a1.14 1.14 0 0 0 .113-.32zm-4.265-.615c.119-.021.258-.044.508.457.035.067.12.258.219.478h-.547c-.104-.056-.2-.11-.262-.152-.223-.152-.244-.274-.25-.316a.404.404 0 0 1 .332-.467zM4 14H2v-4h2v4zm1.526-5.48c.249-.499.389-.478.508-.455.221.037.37.247.333.468-.007.04-.027.163-.25.314A3.257 3.257 0 0 1 5.854 9h-.547c.098-.22.184-.411.219-.48zM7 14H5v-4h2v4z"/></g></svg>