<svg xmlns="http://www.w3.org/2000/svg" viewBox="0 0 16 16"><defs><style>.cls-1,.icon-canvas-transparent{fill:#f6f6f6;}.icon-canvas-transparent{opacity:0;}.icon-vs-fg{fill:#f0eff1;}.icon-vs-bg{fill:#424242;}.icon-vs-green{fill:#393;}.icon-white{fill:#fff;}</style></defs><title>GenericContainerRunning_16x</title><g id="canvas"><path class="icon-canvas-transparent" d="M16,0V16H0V0Z"/></g><g id="outline"><path class="cls-1" d="M16,11.5A4.477,4.477,0,0,1,8.7,15H1V4.586L4.586,1H15V8.7A4.46,4.46,0,0,1,16,11.5Z"/></g><g id="iconFg"><path class="icon-vs-fg" d="M13,3.707V7.276A4.445,4.445,0,0,0,11.5,7a4.576,4.576,0,0,0-.5.05V5.707ZM5.207,3l-2,2h7.086l2-2ZM3,13H7.276A4.42,4.42,0,0,1,10,7.276V6H3Z"/></g><g id="iconBg"><path class="icon-vs-bg" d="M5,2,2,5v9H7.76a4.423,4.423,0,0,1-.484-1H3V6h7V7.276a4.431,4.431,0,0,1,1-.226V5.707l2-2V7.276a4.423,4.423,0,0,1,1,.484V2Zm5.293,3H3.207l2-2h7.086ZM8,7H9v.76A4.5,4.5,0,0,0,8,8.7ZM6,12V7H7v5ZM4,12V7H5v5Z"/></g><g id="notificationBg"><path class="icon-vs-green" d="M11.5,8A3.5,3.5,0,1,0,15,11.5,3.5,3.5,0,0,0,11.5,8Zm-1.125,5.5v-4l3,2Z"/></g><g id="notificationFg"><path class="icon-white" d="M13.375,11.5l-3,2v-4Z"/></g></svg>