<svg xmlns="http://www.w3.org/2000/svg" viewBox="0 0 16 16"><defs><style>.icon-canvas-transparent,.icon-vs-out{fill:#f6f6f6;}.icon-canvas-transparent{opacity:0;}.icon-vs-bg{fill:#424242;}</style></defs><title>MarkupXML_16x</title><path class="icon-canvas-transparent" d="M16,0V16H0V0Z"/><path class="icon-vs-out" d="M16,7.585v.828l-4.425,4.426L9.736,11H8.725L7.8,13.92,4.426,12.84,0,8.413V7.585L4.425,3.159,6.719,5.453,8.3,1.581l3.093.977.186.6Z"/><path class="icon-vs-bg" d="M5.3,5.453,2.759,8,5.3,10.544l-.88.881L1,8,4.425,4.573Zm6.27-.88-.881.88L13.241,8l-2.546,2.545.881.881L15,8ZM5.964,12.29l1.187.375L10.136,3.21,8.95,2.836Z"/></svg>