<svg xmlns="http://www.w3.org/2000/svg" viewBox="0 0 16 16"><defs><style>.icon-canvas-transparent,.icon-vs-out{fill:#f6f6f6;}.icon-canvas-transparent{opacity:0;}.icon-disabled-grey{fill:#848484;}</style></defs><title>Time_disabled_16x</title><g id="canvas"><path class="icon-canvas-transparent" d="M16,0V16H0V0Z"/></g><g id="outline"><path class="icon-vs-out" d="M8,16a8,8,0,1,1,8-8A8.009,8.009,0,0,1,8,16Z"/></g><g id="iconBg"><path class="icon-disabled-grey" d="M8,8h3V9H7V4H8Zm7,0A7,7,0,1,1,8,1,7.009,7.009,0,0,1,15,8ZM14,8a6,6,0,1,0-6,6A6.006,6.006,0,0,0,14,8Z"/></g></svg>