<svg xmlns="http://www.w3.org/2000/svg" viewBox="0 0 16 16"><defs><style>.icon-canvas-transparent,.icon-vs-out{fill:#f6f6f6;}.icon-canvas-transparent{opacity:0;}.icon-vs-bg{fill:#424242;}.icon-vs-action-red{fill:#a1260d;}</style></defs><title>SketchflowRemoveScreen_16x</title><g id="canvas"><path class="icon-canvas-transparent" d="M16,16H0V0H16Z"/></g><g id="outline"><path class="icon-vs-out" d="M16,1V15H0V5.586L1.556,4.03,0,2.475l-.037-.148V1.683L1.646,0h.829L4.03,1.556,5.586,0h.828L7.439,1.025,8.414,1Z"/></g><g id="iconBg"><path class="icon-vs-bg" d="M15,2V14H1V7.414l1,1V13H14V3H7.535l.879-1Z"/><polygon class="icon-vs-action-red" points="7.061 2.06 6 1 4.03 2.97 2.061 1 1 2.06 2.97 4.03 1 6 2.061 7.06 4.03 5.091 6 7.06 7.061 6 5.091 4.03 7.061 2.06"/></g></svg>