<svg xmlns="http://www.w3.org/2000/svg" width="16" height="16"><style type="text/css">.icon-canvas-transparent{opacity:0;fill:#F6F6F6;} .icon-vs-out{fill:#F6F6F6;} .icon-vs-bg{fill:#424242;}</style><path class="icon-canvas-transparent" d="M16 16h-16v-16h16v16z" id="canvas"/><path class="icon-vs-out" d="M16 2v9h-4v3h-12v-10.988l9-.012v-1h7z" id="outline"/><path class="icon-vs-bg" d="M10 3v4.289l-3 2.525-1.993-2.211-3.007.887v-3.49h7v-1l-8 .01v8.99h10v-9h3v1.603l-.916-1.041-1.084 1.51v1.443l1.064-1.537.936.794v2.228h-2v1h3v-7h-5zm0 9h-8v-2.164l3-.814 2 2.313 3-2.425v3.09z" id="iconBg"/></svg>