<svg xmlns="http://www.w3.org/2000/svg" viewBox="0 0 16 16"><style>.icon-canvas-transparent{opacity:0;fill:#f6f6f6}.icon-vs-out{fill:#f6f6f6}.icon-vs-bg{fill:#424242}.icon-vs-fg{fill:#f0eff1}.icon-vs-action-blue{fill:#00539c}</style><path class="icon-canvas-transparent" d="M16 0v16H0V0h16z" id="canvas"/><path class="icon-vs-out" d="M15 4.379V16H2l.012-9.065L0 4.915v-.537l1.851-1.851.166.166L2.02 0h8.601L15 4.379z" id="outline"/><path class="icon-vs-bg" d="M10.207 1H6v1h3v4h4v8H4V8.931L3 7.927V15h11V4.793L10.207 1zM10 5V2.207L12.793 5H10z" id="iconBg"/><path class="icon-vs-fg" d="M7.132 2.527L6 3.655V2h3v2.396L7.132 2.527zM10 2.207V5h2.793L10 2.207zM9 6V4.899L4.483 9.416l-.479-.481-.004.02V14h9V6H9z" id="iconFg"/><path class="icon-vs-action-blue" d="M5 6.063V1H4v5.081l-2.148-2.14-.707.707L4.485 8l3.352-3.352-.707-.707L5 6.063z" id="colorAction"/></svg>