<svg xmlns="http://www.w3.org/2000/svg" viewBox="0 0 16 16"><style>.icon-canvas-transparent{opacity:0;fill:#f6f6f6}.icon-vs-out{fill:#f6f6f6}.icon-vs-bg{fill:#424242}.icon-vs-fg{fill:#f0eff1}.icon-vb-blue{fill:#00569c}</style><path class="icon-canvas-transparent" d="M16 16H0V0h16v16z" id="canvas"/><path class="icon-vs-out" d="M10.621 0H2v16h13V4.379z" id="outline"/><g id="iconBg"><path class="icon-vs-bg" d="M4 4.586V2h5v4h4v7.586l1 1V4.793L10.207 1H3v2.586l1 1zm6-2.379L12.793 5H10V2.207zM4 14V9.414l-1-1V15h6.586l-1-1z"/><path class="icon-vs-bg" d="M4 4.586V2h5v4h4v7.586l1 1V4.793L10.207 1H3v2.586l1 1zm6-2.379L12.793 5H10V2.207zM4 14V9.414l-1-1V15h6.586l-1-1z"/></g><g id="iconFg"><path class="icon-vs-fg" d="M10 2.207V5h2.793z"/><path class="icon-vs-fg" d="M13 13.586V6H9V2H4v2.586zM4 9.414V14h4.586z"/><path class="icon-vs-fg" d="M10 2.207V5h2.793z"/><path class="icon-vs-fg" d="M13 13.586V6H9V2H4v2.586zM4 9.414V14h4.586z"/></g><path class="icon-vb-blue" d="M3 5v2l7.712 7.79h2.181L3 5z" id="colorImportance"/></svg>