<svg xmlns="http://www.w3.org/2000/svg" viewBox="0 0 16 16"><style>.icon-vs-out{fill:#f6f6f6}.icon-vs-bg{fill:#424242}.icon-vs-action-blue{fill:#00539c}</style><path class="icon-vs-out" d="M16 0v16H0V0h16z" id="outline"/><path class="icon-vs-bg" d="M12 13H4v-2.385L6.616 8 4 5.397V3h8v10zM11 1v1h3v3h1V1h-4zM2 5V2h3V1H1v4h1zm0 6H1v4h4v-1H2v-3zm12 3h-3v1h4v-4h-1v3z" id="iconBg"/><path class="icon-vs-action-blue" d="M5.2 8.001l-2.525 2.525-.707-.706 1.296-1.303H1v-1h2.281l-1.3-1.308.707-.707L5.2 8.001z" id="colorAction"/></svg>