<svg xmlns="http://www.w3.org/2000/svg" viewBox="0 0 16 16"><style>.icon-canvas-transparent{opacity:0;fill:#f6f6f6}.icon-vs-out{fill:#f6f6f6}.icon-vs-bg{fill:#424242}.icon-vs-fg{fill:#f0eff1}</style><path class="icon-canvas-transparent" d="M16 16H0V0h16v16z" id="canvas"/><path class="icon-vs-out" d="M8 0H6v1.103L4.892 0H4.48L2.563 1.917 2.646 2h-.155A2.495 2.495 0 0 0 0 4.491V16h10v-6h6V0H8zM6 7" id="outline"/><path class="icon-vs-bg" d="M6 10h3v5H1V7h5v3zm1-9v1.1l1 .996V2h6v6H8V3.873l-1 1V9h8V1H7zm-.026 2.485L4.688 1.208l-.711.711L5.054 3H2.491C1.668 3 1 3.668 1 4.491V6h1.002L2 4.491a.5.5 0 0 1 .501-.5L5.037 4 4.028 5.013l.709.709 2.237-2.237z" id="iconBg"/><path class="icon-vs-fg" d="M14 2v6H8V2h6z" id="iconFg"/></svg>