<svg xmlns="http://www.w3.org/2000/svg" viewBox="0 0 16 16"><defs><style>.icon-canvas-transparent,.icon-vs-out{fill:#f6f6f6;}.icon-canvas-transparent{opacity:0;}.icon-vs-bg{fill:#424242;}</style></defs><title>WebURL_16x</title><g id="canvas"><path class="icon-canvas-transparent" d="M16,16H0V0H16Z"/></g><g id="outline"><path class="icon-vs-out" d="M9.979,13.262A2.766,2.766,0,0,1,6.922,16h-4A2.7,2.7,0,0,1,0,13,2.739,2.739,0,0,1,2.683,10.03a6.173,6.173,0,0,1-.592-1.789c-.028-.173-.051-.308-.065-.468S2,7.428,2,7.245a6.247,6.247,0,0,1,12.49-.2c.007.1.01.157.01.213A6.222,6.222,0,0,1,9.979,13.262Z"/></g><g id="iconBg"><path class="icon-vs-bg" d="M13.491,7.078A5.247,5.247,0,0,0,3,7.255c0,.154.009.3.022.453s.032.268.053.4l0,.014A5.179,5.179,0,0,0,3.8,10H4.936a4.29,4.29,0,0,1-.821-1.526,14.893,14.893,0,0,0,2.058.483c.067.344.161.693.265,1.043h.638c.077,0,.145.013.219.017-.1-.318-.2-.634-.269-.947.393.039.8.065,1.22.069.1,0,.2,0,.3,0,.261,0,.524-.008.79-.022a13.6,13.6,0,0,1-.5,1.34,2.291,2.291,0,0,1,.617.605,14.482,14.482,0,0,0,.767-2.023,9.543,9.543,0,0,0,2.164-.55,4.311,4.311,0,0,1-2.761,2.84,3.021,3.021,0,0,1,.305.885A5.241,5.241,0,0,0,13.5,7.255C13.5,7.2,13.492,7.137,13.491,7.078ZM7.7,2.982a4.137,4.137,0,0,1,.549-.039c.124,0,.245.008.366.018a8.115,8.115,0,0,1,.915,2.331c-.427.029-.849.033-1.277.029a12.7,12.7,0,0,1-1.3-.083A9.12,9.12,0,0,1,7.7,2.982ZM3.953,7.558c-.008-.1-.015-.2-.015-.3A4.3,4.3,0,0,1,4.3,5.529a15.106,15.106,0,0,0,1.725.4c-.032.3-.054.615-.057.943A9.706,9.706,0,0,0,6.04,8.1,14.71,14.71,0,0,1,3.953,7.558ZM6.139,5.121a14.216,14.216,0,0,1-1.427-.328A4.32,4.32,0,0,1,6.688,3.239,9.847,9.847,0,0,0,6.139,5.121ZM9.56,8.287c-.439.031-.869.037-1.306.034a12.921,12.921,0,0,1-1.378-.092,9.118,9.118,0,0,1-.093-1.345c0-.289.024-.566.051-.836a13.551,13.551,0,0,0,1.412.09c.1,0,.2,0,.3,0,.366,0,.737-.012,1.116-.04.028.254.049.513.053.785A6.585,6.585,0,0,1,9.56,8.287Zm.1-5.1a4.307,4.307,0,0,1,2.151,1.641,8.534,8.534,0,0,1-1.462.372A8.718,8.718,0,0,0,9.66,3.184Zm2.889,4.352a8.851,8.851,0,0,1-2.136.647,6.9,6.9,0,0,0,.12-1.307,8.345,8.345,0,0,0-.056-.867,9.445,9.445,0,0,0,1.737-.452,4.288,4.288,0,0,1,.348,1.7C12.562,7.35,12.555,7.442,12.549,7.536ZM9.02,13A1.8,1.8,0,0,1,7,15H4.816a5.7,5.7,0,0,0-.531-1.012c-.286-.638.175-1.114.463-.926A3.754,3.754,0,0,1,5.582,14H7.244c.776,0,.776-.625.776-1,0-1-.625-1-1-1l-.537-1h.664C8.272,11,9.02,11.5,9.02,13ZM1.025,13A1.8,1.8,0,0,1,3.05,11H5.229a5.7,5.7,0,0,0,.531,1.012c.286.638-.175,1.114-.463.926A3.754,3.754,0,0,1,4.463,12H2.8c-.776,0-.776.625-.776,1,0,1,.625,1,1,1l.512,1H2.9C1.772,15,1.025,14.5,1.025,13Z"/></g></svg>