<svg xmlns="http://www.w3.org/2000/svg" viewBox="0 0 16 16"><style>.icon-canvas-transparent{opacity:0;fill:#f6f6f6}.icon-vs-out{fill:#f6f6f6}.icon-vs-bg{fill:#424242}.icon-vs-fg{fill:#f0eff1}</style><path class="icon-canvas-transparent" d="M16 16H0V0h16v16z" id="canvas"/><path class="icon-vs-out" d="M10.551 4.949V.361H4.646v3h.872L3.586 5.293l1.138 1.138L0 3.057V16h1.321l8.08-5.771 6.6 4.715V1.057l-5.45 3.892z" id="outline"/><path class="icon-vs-bg" d="M1 15l7-5-7-5v10zm1-8.057L6.279 10 2 13.057V6.943zM15 3v10L8 8l7-5zM9.551 1.361v3.993h-1V3.156L5.707 6 5 5.293l2.932-2.932H5.646v-1h3.905z" id="iconBg"/><path class="icon-vs-fg" d="M6.279 10L2 13.057V6.943L6.279 10z" id="iconFg"/></svg>