<svg xmlns="http://www.w3.org/2000/svg" viewBox="0 0 16 16"><defs><style>.icon-canvas-transparent,.icon-vs-out{fill:#f6f6f6;}.icon-canvas-transparent{opacity:0;}.icon-vs-fg{fill:#f0eff1;}.icon-vs-bg{fill:#424242;}</style></defs><title>TableToFile_16x</title><g id="canvas"><path class="icon-canvas-transparent" d="M16,0V16H0V0Z"/></g><g id="outline"><path class="icon-vs-out" d="M13.621,0H8V8H0v8H9V14h4V11.621l.147.147L14.914,10H16V2.379ZM9,11v-.086L9.086,11Z"/></g><g id="iconFg"><path class="icon-vs-fg" d="M2,11H3v1H2Zm2,1H5V11H4Zm2,0H7V11H6ZM2,14H3V13H2Zm2,0H5V13H4Zm2,0H7V13H6ZM12,4V2H10V8h.793l.707-.707L12.207,8H14V4Zm1-1.793V3h.793Z"/></g><g id="iconBg"><path class="icon-vs-bg" d="M13.207,1H9V8h1V2h2V4h2V9h1V2.793ZM13,3V2.207L13.793,3ZM9.146,9.646l.708.707L11,9.207V12H8V9H1v6H8V13h4V9.207l1.147,1.146.706-.707L11.5,7.293ZM3,14H2V13H3Zm0-2H2V11H3Zm2,2H4V13H5Zm0-2H4V11H5Zm2,2H6V13H7Zm0-2H6V11H7Z"/></g></svg>