<svg xmlns="http://www.w3.org/2000/svg" viewBox="0 0 16 16"><defs><style>.icon-canvas-transparent,.icon-vs-out{fill:#f6f6f6;}.icon-canvas-transparent{opacity:0;}.icon-vs-bg{fill:#424242;}.icon-vs-blue{fill:#1ba1e2;}.icon-vs-action-orange{fill:#c27d1a;}</style></defs><title>PhotoCollection_16x</title><g id="canvas"><path class="icon-canvas-transparent" d="M16,16H0V0H16Z"/></g><g id="outline"><path class="icon-vs-out" d="M16,3V15H2V13H0V1H14V3Z"/></g><g id="iconBg"><path class="icon-vs-bg" d="M13,4V2H1V12H3v2H15V4ZM2,3H12v7.293l-3-3-2,2-3-3-2,2Zm9.293,8H8.707l-1-1L9,8.707ZM2,11V9.707l2-2L7.293,11H2Zm12,2H4V12h9V5h1Z"/></g><g id="colorImportance"><path class="icon-vs-blue" d="M11.293,11H8.707l-1-1L9,8.707ZM2,9.707V11H7.293L4,7.707Z"/><path class="icon-vs-action-orange" d="M11,5a1,1,0,1,1-1-1A1,1,0,0,1,11,5Z"/></g></svg>