<svg xmlns="http://www.w3.org/2000/svg" viewBox="0 0 16 16"><defs><style>.icon-canvas-transparent,.icon-vs-out{fill:#f6f6f6;}.icon-canvas-transparent{opacity:0;}.icon-vs-bg{fill:#424242;}.icon-cs-green{fill:#388a34;}</style></defs><title>CSWPFWeb_16x</title><g id="canvas"><path class="icon-canvas-transparent" d="M16,0V16H0V0Z"/></g><g id="outline"><path class="icon-vs-out" d="M16,8a8,8,0,0,1-6.43,7.844L9.414,16H2.586L0,13.414v-.828l.9-.9A8,8,0,1,1,16,8Z"/></g><g id="iconBg"><path class="icon-vs-bg" d="M14.988,7.764A7,7,0,0,0,1,8c0,.2.012.4.03.6.016.179.041.357.071.532l0,.017a6.886,6.886,0,0,0,.562,1.768L2.586,10h.037c-.047-.125-.1-.246-.137-.375.431.132.9.258,1.4.375H9.414l1,1c.067-.2.153-.421.208-.618a12.743,12.743,0,0,0,2.886-.735,5.721,5.721,0,0,1-1.757,2.69l.249.249v.828l-.823.823A7,7,0,0,0,15,8C15,7.92,14.99,7.843,14.988,7.764ZM7.268,2.3A5.694,5.694,0,0,1,8,2.25c.165,0,.327.011.488.024A10.856,10.856,0,0,1,9.709,5.382c-.571.039-1.133.044-1.7.039-.6-.007-1.181-.048-1.739-.11A12.133,12.133,0,0,1,7.268,2.3Zm-5,6.1c-.01-.133-.021-.266-.021-.4a5.744,5.744,0,0,1,.482-2.3,19.945,19.945,0,0,0,2.3.539c-.042.406-.072.821-.077,1.258a12.87,12.87,0,0,0,.1,1.637A19.3,19.3,0,0,1,2.271,8.4Zm2.914-3.25a18.852,18.852,0,0,1-1.9-.435A5.761,5.761,0,0,1,5.917,2.645,13.059,13.059,0,0,0,5.185,5.153ZM9.746,9.375c-.584.041-1.158.049-1.74.046A17.427,17.427,0,0,1,6.168,9.3a12.244,12.244,0,0,1-.123-1.792c0-.387.031-.756.067-1.115a18.549,18.549,0,0,0,1.882.12l.4,0c.489,0,.983-.016,1.488-.055a10.4,10.4,0,0,1,.07,1.047A8.673,8.673,0,0,1,9.746,9.375Zm.135-6.8A5.757,5.757,0,0,1,12.749,4.76a11.411,11.411,0,0,1-1.951.5A11.7,11.7,0,0,0,9.881,2.571Zm3.85,5.8a11.773,11.773,0,0,1-2.847.863,9.32,9.32,0,0,0,.161-1.743c0-.4-.035-.782-.076-1.156a12.5,12.5,0,0,0,2.316-.6A5.724,5.724,0,0,1,13.75,8C13.75,8.126,13.739,8.25,13.731,8.374Z"/></g><g id="colorImportance"><path class="icon-cs-green" d="M1,13l2-2v1L2,13l1,1v1Zm8-2v1l1,1L9,14v1l2-2ZM4,15H8V11H4Z"/></g></svg>