<svg xmlns="http://www.w3.org/2000/svg" viewBox="0 0 16 16"><style>.icon-canvas-transparent{opacity:0;fill:#f6f6f6}.icon-vs-out{fill:#f6f6f6}.icon-vs-bg{fill:#424242}.icon-vs-action-blue{fill:#00539c}</style><path class="icon-canvas-transparent" d="M16 16H0V0h16v16z" id="canvas"/><path class="icon-vs-out" d="M16 7.414L7.414 16H4.386l2.985-6H3.382l.686-1.372-1.544-1.544L3.608 6H0V3h3.733L2.524 1.791 4.315 0h.667l2.253 2.294L8.382 0H16v1.414L11.414 6H16v1.414z" id="outline"/><path class="icon-vs-bg" d="M9 7h6l-8 8H6l2.985-6H5l.155-.31 4.278-4.157-1.457-1.485L9 1h6L9 7z" id="iconBg"/><path class="icon-vs-action-blue" d="M8.016 4.516L4.645 7.791l-.707-.707L6.022 5H1V4h5.147L3.938 1.791l.707-.707 3.371 3.432z" id="colorAction"/></svg>