<svg xmlns="http://www.w3.org/2000/svg" viewBox="0 0 16 16"><style>.icon-canvas-transparent{opacity:0;fill:#f6f6f6}.icon-vs-out{fill:#f6f6f6}.icon-vs-bg{fill:#424242}.icon-vs-fg{fill:#f0eff1}</style><path class="icon-canvas-transparent" d="M16 16H0V0h16v16z" id="canvas"/><path class="icon-vs-out" d="M16 9v7H9v-5H0V3h3V0h9v8H9v1h7z" id="outline"/><path class="icon-vs-bg" d="M11 1H4v3H1v6h7V7h3V1zM7 9H2V5h5v4zm3-3H8V4H5V2h5v4zm5 4v5h-5v-5h5z" id="iconBg"/><path class="icon-vs-fg" d="M5 2h5v4H8V4H5V2zM2 9h5V5H2v4zm9.12 2.009v1l1.15.005-1.287 1.287.707.707 1.299-1.299.005 1.158H14v-2.858h-2.88z" id="iconFg"/></svg>