<svg xmlns="http://www.w3.org/2000/svg" viewBox="0 0 16 16"><style>.icon-canvas-transparent{opacity:0;fill:#f6f6f6}.icon-vs-out{fill:#f6f6f6}.icon-vs-bg{fill:#424242}.icon-vs-fg{fill:#f0eff1}.icon-vs-action-blue{fill:#00539c}</style><path class="icon-canvas-transparent" d="M16 16H0V0h16v16z" id="canvas"/><path class="icon-vs-out" d="M16 10.414l-2 2-3.765-3.764a4.474 4.474 0 0 1-4.228-.408v2.471l1.229-1.159 2.109 2.108L4.909 16h-.843L0 11.841v-.384l1.923-1.923 1.084 1.084V7.009h1.759A4.478 4.478 0 0 1 4 4.5C4 2.019 6.019 0 8.5 0S13 2.019 13 4.5c0 .599-.119 1.188-.35 1.735L16 9.586v.828z" id="outline"/><path class="icon-vs-bg" d="M11.422 6.421A3.485 3.485 0 0 0 12 4.5 3.5 3.5 0 1 0 8.5 8c.711 0 1.369-.215 1.922-.578L14 11l1-1-3.578-3.579zM8.5 7a2.5 2.5 0 1 1 0-5 2.5 2.5 0 0 1 0 5z" id="iconBg"/><path class="icon-vs-fg" d="M8.5 2a2.5 2.5 0 1 1 0 5 2.5 2.5 0 0 1 0-5z" id="iconFg"/><path class="icon-vs-action-blue" d="M4.494 15.007l-3.278-3.354.707-.707 2.084 2.084V8.009h1v5.022l2.209-2.084.707.707-3.429 3.353z" id="colorAction"/></svg>