<svg xmlns="http://www.w3.org/2000/svg" viewBox="0 0 16 16"><style>.icon-canvas-transparent{opacity:0;fill:#f6f6f6}.icon-vs-bg{fill:#424242}.st0{fill:#f6f6f6}.st1{fill:#f0eff1}.st2{fill:#fc0}</style><path class="icon-canvas-transparent" d="M16 16H0V0h16v16z" id="canvas"/><path class="st0" d="M11.621 0H3v2H0v8h3v6h13V4.379z" id="outline"/><g id="iconBg"><path class="icon-vs-bg" d="M9 2h1v4h4v4.018l1 2.016V4.793L11.207 1H4v1h5zm2 .207L13.793 5H11V2.207z"/><path class="icon-vs-bg" d="M8 3H1v6h7V3zM4.605 7.465c-.261.348-.638.521-1.128.521C2.492 7.986 2 7.34 2 6.053c0-.668.133-1.177.399-1.527.267-.35.653-.526 1.159-.526C4.52 4 5 4.654 5 5.965c0 .652-.131 1.152-.395 1.5zM7 8h-.847V4.999a.89.89 0 0 1-.165.116c-.064.037-.131.07-.203.102-.038.015-.079.026-.119.039v-.772c.097-.04.2-.069.291-.117.195-.1.372-.211.529-.332H7V8zm-.03 6.025L6.982 14H5v-4H4v5h3.48z"/><path class="icon-vs-bg" d="M3.518 4.648c-.395 0-.592.461-.592 1.383 0 .869.193 1.305.58 1.305.377 0 .565-.449.565-1.344 0-.896-.184-1.344-.553-1.344z"/></g><path class="st1" d="M13.793 5H11V2.207L13.793 5zm-3.3 2.016h2.018L14 10.018V6h-4V2H9v7.986l1.493-2.97zM8.993 10H5v4h1.982l2.011-4z" id="iconFg"/><path class="st2" d="M11.891 8.016h-.781l-3.016 6 .515.984h5.766l.484-1-2.968-5.984zM12 14h-1v-1h1v1zm0-2h-1v-2h1v2z" id="notificationBg"/><path class="icon-black" d="M12 12h-1v-2h1v2zm0 1h-1v1h1v-1z" id="notificationFg"/></svg>