<svg xmlns="http://www.w3.org/2000/svg" viewBox="0 0 16 16"><style>.icon-canvas-transparent{opacity:0;fill:#f6f6f6}.icon-vs-out{fill:#f6f6f6}.icon-vs-bg{fill:#424242}.icon-vs-fg,.st0{fill:#f0eff1}</style><path class="icon-canvas-transparent" d="M16 16H0V0h16v16z" id="canvas"/><path class="icon-vs-out" d="M15 16H2V0h8.922L15 4.379V16z" id="outline"/><g id="iconBg"><path class="icon-vs-bg" d="M3 1v14h11V4.624L10.287 1H3zm10 13H4V2h5v4h4v8zm-3-9V2.207L12.793 5H10z"/><path class="icon-vs-bg" d="M6 6H5V5h1v1zm2-1H7v1h1V5zm3 2h-1v1h1V7zm0 4h-1v1h1v-1zm0-2h-1v1h1V9zm-3.905-.016L6.464 7l-.632 1.984H4l1.443 1.199L5 12l1.464-1L8 12l-.517-1.816L9 8.984H7.095z"/></g><g id="iconFg"><path class="st0" d="M10 2.207V5h2.793z"/><path class="icon-vs-fg" d="M9 6V2H4v6.984h1.832L6.464 7l.631 1.984H9l-1.517 1.199L8 12l-1.536-1L5 12l.443-1.816L4 8.984V14h9V6H9zM6 6H5V5h1v1zm2 0H7V5h1v1zm3 6h-1v-1h1v1zm0-2h-1V9h1v1zm0-2h-1V7h1v1z"/></g></svg>