<svg xmlns="http://www.w3.org/2000/svg" viewBox="0 0 16 16"><defs><style>.icon-canvas-transparent,.icon-vs-out{fill:#f6f6f6;}.icon-canvas-transparent{opacity:0;}.icon-vs-bg{fill:#424242;}.icon-vs-green{fill:#393;}</style></defs><title>History_16x</title><g id="canvas"><path class="icon-canvas-transparent" d="M16,16H0V0H16Z"/></g><g id="outline"><path class="icon-vs-out" d="M16,8a8,8,0,0,1-8,8l-.06,0c-.021,0-.04,0-.061,0-.062,0-.121-.014-.184-.015-.256-.01-.51-.031-.759-.064A8.007,8.007,0,0,1,.175,10.133L0,9.5V1H3v.68A7.891,7.891,0,0,1,6.935.079Q7.31.03,7.7.015C7.758.014,7.817,0,7.879,0c.021,0,.04,0,.061,0L8,0A8,8,0,0,1,16,8Z"/></g><g id="iconBg"><path class="icon-vs-bg" d="M10.37,10.664l-.74.672L7,8.443V4H8V8.057l2.37,2.607Z"/><path class="icon-vs-green" d="M14.88,8A7,7,0,0,1,1.139,9.866L2.1,9.6A6.017,6.017,0,1,0,2.7,5H5V6H1V2H2V4.25A6.98,6.98,0,0,1,14.88,8Z"/></g></svg>