<svg xmlns="http://www.w3.org/2000/svg" viewBox="0 0 16 16"><defs><style>.icon-canvas-transparent,.icon-vs-out{fill:#f6f6f6;}.icon-canvas-transparent{opacity:0;}.icon-vs-bg{fill:#424242;}</style></defs><title>SyncArrowVertical_16x</title><g id="canvas"><path class="icon-canvas-transparent" d="M16,0V16H0V0Z"/></g><g id="outline"><path class="icon-vs-out" d="M.8,5.358,5.5.57,9,4.137V3h3V9.609l1.084-1.084L15.2,10.64l-4.7,4.787L7,11.861V13H4V6.389L2.913,7.473ZM7,9.441l.916-.916L9,9.609V6.557l-.916.916L7,6.388Z"/></g><g id="iconBg"><path class="icon-vs-bg" d="M10.5,14,7.206,10.646l.707-.707L10,12.023V4h1v8.025l2.084-2.084.707.707ZM5.5,2,8.789,5.352l-.707.707L6,3.975V12H5V3.975L2.913,6.059l-.707-.707Z"/></g></svg>