<svg xmlns="http://www.w3.org/2000/svg" viewBox="0 0 16 16"><style>.icon-canvas-transparent{opacity:0;fill:#f6f6f6}.icon-vs-out{fill:#f6f6f6}.icon-vs-bg{fill:#424242}.icon-vs-fg{fill:#f0eff1}.icon-vs-blue{fill:#1ba1e2}</style><path class="icon-canvas-transparent" d="M16 16H0V0h16v16z" id="canvas"/><path class="icon-vs-out" d="M15.992 3v6c0 1.036-.797 1.912-2.054 2.447l-.033.015.037.041L9.446 16H4.579L.081 11.518 4.6 7h.498l.894.894V7H6V5h-.008V3c0-1.71 2.149-3 5-3s5 1.29 5 3z" id="outline"/><path class="icon-vs-bg" d="M12.535 11.505l-3.352 3.352-.707-.707 2.122-2.13H6.512v-.018H3.424l2.14 2.148-.707.707-3.352-3.34 3.352-3.352.707.707-2.122 2.13h4.086v.018h3.088l-2.14-2.148.707-.707 3.352 3.34z" id="iconBg"/><path class="icon-vs-fg" d="M14.374 3c0 .708-1.371 1.281-3.374 1.281S7.72 3.708 7.72 3 8.997 1.691 11 1.691s3.374.601 3.374 1.309z" id="iconFg"/><path class="icon-vs-blue" d="M11 1c-2.209 0-4 .896-4 2v5.938L8.934 7h.497l3.696 3.682.049-.007C14.271 10.318 15 9.703 15 9V3c0-1.104-1.791-2-4-2zm0 3.281c-2.003 0-3.28-.573-3.28-1.281S8.997 1.691 11 1.691s3.374.601 3.374 1.309S13.003 4.281 11 4.281z" id="colorImportance"/></svg>