<svg xmlns="http://www.w3.org/2000/svg" viewBox="0 0 16 16"><defs><style>.icon-canvas-transparent,.icon-vs-out{fill:#f6f6f6;}.icon-canvas-transparent{opacity:0;}.icon-vs-bg{fill:#424242;}</style></defs><title>PageLock_16x</title><g id="canvas"><path class="icon-canvas-transparent" d="M16,16H0V0H16Z"/></g><g id="outline"><path class="icon-vs-out" d="M16,9v7H1V0H9.621L14,4.379v2.4A2.985,2.985,0,0,1,15,9Z"/></g><g id="iconBg"><path class="icon-vs-bg" d="M9.207,1H2V15H8V14H3V2H8V6h4a2.966,2.966,0,0,1,1,.184V4.793ZM9,5V2.207L11.793,5Z"/><path class="icon-vs-bg" d="M14,10V9a2,2,0,0,0-4,0v1H9v5h6V10ZM11,9a1,1,0,0,1,2,0v1H11Zm3,5H10V11h4Z"/></g></svg>