<svg xmlns="http://www.w3.org/2000/svg" viewBox="0 0 16 16"><style>.icon-canvas-transparent{opacity:0;fill:#f6f6f6}.icon-vs-out{fill:#f6f6f6}.icon-vs-bg{fill:#424242}.icon-vs-fg{fill:#f0eff1}.st0{fill:none}</style><path class="icon-canvas-transparent" d="M0 0h16v16H0z" id="canvas"/><path class="icon-vs-out" d="M11.621 0H3v6.972H0V16h16V4.379z" id="outline"/><g id="iconBg"><path class="st0" d="M11 2.207V5h2.793z"/><path class="icon-vs-bg" d="M11.207 1H4v5.972h1V2h5v4h4v8H8.955v1H15V4.793L11.207 1zM11 5V2.207L13.793 5H11zM1 14h1v1H1zm2 0h1v1H3zm-2-2h1v1H1z"/><path class="icon-vs-bg" d="M5 8h1v1H5zM3 8h1v1H3zm2 6h1v1H5zm-4-4h1v1H1zm0-2h1v1H1zm6 6h1v1H7zm0-2h1v1H7zm0-2h1v1H7zm0-2h1v1H7zm-1.5 2l-1 1-1-1h-1L4 11.5 2.5 13h1l1-1 1 1h1L5 11.5 6.5 10z"/></g><path class="icon-vs-fg" d="M14 6v8H8.955V6.972H5V2h5v4h4zm-3-4v3h3l-3-3zM7 9v5H2V9h5zm-2 2.5L6.5 10h-1l-1 1-1-1h-1L4 11.5 2.5 13h1l1-1 1 1h1L5 11.5z" id="iconFg"/></svg>