<svg xmlns="http://www.w3.org/2000/svg" viewBox="0 0 16 16"><defs><style>.icon-canvas-transparent,.icon-vs-out{fill:#f6f6f6;}.icon-canvas-transparent{opacity:0;}.icon-vs-bg{fill:#424242;}.icon-vs-action-red{fill:#a1260d;}</style></defs><title>DeleteDimensionTranslation_16x</title><g id="canvas"><path class="icon-canvas-transparent" d="M16,16H0V0H16Z"/></g><g id="outline"><path class="icon-vs-out" d="M16,13.086v.828L13.914,16H9.586l1-1H8.953a5.482,5.482,0,0,1-1.845,1H3.945a5.526,5.526,0,0,1-2.914-2.079c-.089-.128-.166-.255-.24-.385-.064-.107-.129-.227-.191-.35a5.483,5.483,0,0,1-.266-.628,6.555,6.555,0,0,1-.191-.712L.1,11.762l0-.165c-.017-.114-.033-.227-.043-.341-.014-.153-.023-.31-.023-.474A5.463,5.463,0,0,1,1.086,7.56L0,6.475v-.95L1.5,4.03,0,2.535V1.586L1.586,0h.828L3.97,1.556,5.525,0h.829l2.06,2.061L6.444,4.03l1.7,1.7L9.879,4H8.586l3-3H15V4.415l-3,3V6.122L10.194,7.928c.042.069.092.132.131.2l.057.1a3.173,3.173,0,0,1,.185.357l.023.052.033.1a5.381,5.381,0,0,1,.384,2c0,.089-.017.173-.022.261h2.929Z"/></g><g id="iconBg"><path class="icon-vs-bg" d="M9.019,6.275,12.293,3H11l1-1h2V4L13,5V3.708L9.726,6.982A5.556,5.556,0,0,0,9.019,6.275ZM13.5,12H12l1,1H10.515a5.5,5.5,0,0,1-.589,1H13l-1,1h1.5L15,13.5Zm-3.493-1.26a4.493,4.493,0,0,1-8.161,2.6c-.069-.1-.13-.2-.19-.3s-.112-.2-.163-.3a4.379,4.379,0,0,1-.212-.5c-.007-.022-.013-.045-.02-.066a4.519,4.519,0,0,1-.161-.646l0-.012c-.018-.113-.035-.227-.045-.342s-.02-.256-.02-.389A4.476,4.476,0,0,1,1.8,8.273l.2.2L3.863,6.611c.053-.021.109-.031.163-.05l.9.9a7.47,7.47,0,0,0-.5,1.6,10.887,10.887,0,0,0,1.119.071c.367,0,.728,0,1.095-.026a6.6,6.6,0,0,0-.314-1l.535-.535a7.24,7.24,0,0,1,.478,1.457A7.1,7.1,0,0,0,8.586,8.7a3.692,3.692,0,0,0-1.581-1.29l.6-.6A4.546,4.546,0,0,1,9.451,8.615c.065.121.141.234.2.361.013.03.019.064.031.094A4.458,4.458,0,0,1,10.007,10.74Zm-5.729-.275a7.731,7.731,0,0,0,.078,1.153,11.689,11.689,0,0,0,1.181.078c.374,0,.743-.009,1.119-.035a5.655,5.655,0,0,0,.134-1.207,6.314,6.314,0,0,0-.046-.683c-.324.023-.641.011-.956.011H5.53a10.981,10.981,0,0,1-1.209-.054C4.3,9.958,4.28,10.218,4.278,10.465ZM2.5,8.673a12.5,12.5,0,0,0,1.223.28,8.546,8.546,0,0,1,.471-1.612A3.7,3.7,0,0,0,2.5,8.673Zm-.649,2.369a12.62,12.62,0,0,0,1.788.467,8.572,8.572,0,0,1-.063-1.051c0-.281.022-.548.049-.809A12.7,12.7,0,0,1,2.147,9.3a3.692,3.692,0,0,0-.31,1.479C1.837,10.87,1.844,10.956,1.851,11.042Zm2.534,3.252a11.122,11.122,0,0,1-.632-2.052,13.008,13.008,0,0,1-1.764-.415A3.7,3.7,0,0,0,4.385,14.294Zm1.211.182a13.563,13.563,0,0,0,.87-2.1c-.227.012-.454.018-.678.018-.085,0-.173,0-.258,0-.36,0-.709-.026-1.045-.059a11.079,11.079,0,0,0,.724,2.125c.108.01.215.018.324.018C5.555,14.48,5.574,14.476,5.6,14.476Zm3.479-2.635a8.223,8.223,0,0,1-1.856.473,12.992,12.992,0,0,1-.795,2.053A3.7,3.7,0,0,0,9.075,11.841Zm.154-1.059a3.692,3.692,0,0,0-.3-1.455,8.179,8.179,0,0,1-1.489.389c.025.24.047.484.049.742a6.023,6.023,0,0,1-.1,1.119,7.545,7.545,0,0,0,1.831-.554C9.221,10.943,9.229,10.862,9.229,10.782Z"/></g><g id="colorAction"><path class="icon-vs-action-red" d="M5.03,4.03,7,6,5.939,7.06,3.97,5.091,2,7.06.939,6l1.97-1.97L.939,2.06,2,1,3.97,2.97,5.939,1,7,2.06Z"/></g></svg>