<svg xmlns="http://www.w3.org/2000/svg" viewBox="0 0 16 16"><style>.icon-canvas-transparent{opacity:0;fill:#f6f6f6}.icon-vs-out{fill:#f6f6f6}.icon-vs-bg{fill:#424242}.icon-vs-action-blue{fill:#00539c}</style><path class="icon-canvas-transparent" d="M16 16H0V0h16v16z" id="canvas"/><path class="icon-vs-out" d="M13.327 13.984h.146c1.379 0 2.5-1.117 2.5-2.491V9H16V5h-1V3h-1V0H9v3H8v.103L4.885 0h-.398L2.563 1.924l.083.083H2.5A2.499 2.499 0 0 0 0 4.498v2.494h3.003l-.002-1.585L4.594 7H2v3H1v2H0v4h9v-2.088L11.096 16h.382l1.933-1.933-.084-.083zM8 3.88V5H7v2H4.879L8 3.88zM8.086 12H8v-2H7V9h4.085l-2.999 3zm3.302-3h1.583l.002 1.585L11.388 9z" id="outline"/><path class="icon-vs-bg" d="M7 13h1v2H5v-2h1v-1H3v1h1v2H1v-2h1v-2h2v-1H3V8h3v2H5v1h2v2zm7-7V4h-2V3h1V1h-3v2h1v1H9v2H8v2h3V6h-1V5h3v1h-1v2h3V6h-1z" id="iconBg"/><path class="icon-vs-action-blue" d="M11.237 10.263l.709.709-1.008 1.013 2.537.009c.275 0 .5-.225.5-.5L13.972 10h1.002v1.493c0 .827-.673 1.491-1.5 1.491H10.92l1.077 1.081-.711.711L9 12.5l2.237-2.237zm-6.5-4.534l-.709-.709 1.008-1.013L2.5 3.998c-.275 0-.5.225-.5.5l.002 1.493H1V4.498c0-.827.673-1.491 1.5-1.491h2.554L3.977 1.926l.711-.711 2.286 2.277-2.237 2.237z" id="colorAction"/></svg>