<svg xmlns="http://www.w3.org/2000/svg" viewBox="0 0 16 16"><style>.icon-canvas-transparent{opacity:0;fill:#f6f6f6}.icon-vs-out{fill:#f6f6f6}.icon-vs-bg{fill:#424242}.icon-vs-fg{fill:#f0eff1}.icon-white{fill:#fff}.icon-vs-red{fill:#e51400}</style><path class="icon-canvas-transparent" d="M0 0h16v16H0z" id="canvas"/><path class="icon-vs-out" d="M12.621 0H5v3H0v13h11v-.051c.166.019.329.051.5.051 1.953 0 3.602-1.258 4.224-3H16V3.379L12.621 0z" id="outline"/><g id="iconBg"><path class="icon-vs-bg" d="M7.762 14H2V5h4v3h2.706A4.492 4.492 0 0 1 10 7.276v-.483L7.207 4H1v11h7.706a4.504 4.504 0 0 1-.944-1zM7 5.207L8.793 7H7V5.207zM7 2h4v3h3v2.762c.384.258.712.584 1 .945V3.793L12.207 1H6v2h1V2zm5 .207L13.793 4H12V2.207z"/><path class="icon-vs-bg" d="M7.762 14H2V5h4v3h2.706A4.492 4.492 0 0 1 10 7.276v-.483L7.207 4H1v11h7.706a4.504 4.504 0 0 1-.944-1zM7 5.207L8.793 7H7V5.207zM7 2h4v3h3v2.762c.384.258.712.584 1 .945V3.793L12.207 1H6v2h1V2zm5 .207L13.793 4H12V2.207z"/></g><g id="iconFg"><path class="icon-vs-fg" d="M12 2.207V4h1.793z"/><path class="icon-vs-fg" d="M11 6.379v.672c.166-.019.329-.051.5-.051.925 0 1.784.282 2.5.762V5h-3V2H7v1h.621L11 6.379zM7 5.207V7h1.793z"/><path class="icon-vs-fg" d="M7 11.5c0-1.421.675-2.675 1.706-3.5H6V5H2v9h5.762A4.474 4.474 0 0 1 7 11.5zM12 2.207V4h1.793z"/><path class="icon-vs-fg" d="M11 6.379v.672c.166-.019.329-.051.5-.051.925 0 1.784.282 2.5.762V5h-3V2H7v1h.621L11 6.379zM7 5.207V7h1.793z"/><path class="icon-vs-fg" d="M7 11.5c0-1.421.675-2.675 1.706-3.5H6V5H2v9h5.762A4.474 4.474 0 0 1 7 11.5z"/></g><path class="icon-vs-red" d="M11.5 8a3.5 3.5 0 1 0 0 7 3.5 3.5 0 0 0 0-7zm1.854 4.646l-.707.707-1.147-1.146-1.146 1.147-.707-.707 1.147-1.146-1.147-1.146.707-.707 1.146 1.147 1.146-1.147.707.707-1.146 1.145 1.147 1.146z" id="notificationBg"/><path class="icon-white" d="M13.354 10.354l-.708-.708-1.146 1.147-1.146-1.147-.708.708 1.147 1.146-1.147 1.146.708.708 1.146-1.147 1.146 1.147.708-.708-1.147-1.146z" id="notificationFg"/></svg>