<svg xmlns="http://www.w3.org/2000/svg" viewBox="0 0 16 16"><defs><style>.icon-canvas-transparent,.icon-vs-out{fill:#f6f6f6;}.icon-canvas-transparent{opacity:0;}.icon-vs-red{fill:#e51400;}.icon-vs-green{fill:#393;}.icon-vs-bg{fill:#424242;}</style></defs><title>Diff_16x</title><g id="canvas"><path class="icon-canvas-transparent" d="M16,0V16H0V0Z"/></g><g id="outline"><path class="icon-vs-out" d="M6,16V15H0V2H6V0H9V2h6V15H9v1Z"/></g><g id="iconFg"><path class="icon-vs-red" d="M6,4V7H2V4ZM2,10H6V9H2Zm0,3H6V12H2Z"/><path class="icon-vs-green" d="M9,10h4v2H9ZM9,7V9h4V7Z"/></g><g id="iconBg"><path class="icon-vs-bg" d="M7,1H8V15H7ZM1,14H6V13H2V4H6V3H1ZM9,3V4h4v9H9v1h5V3Z"/></g></svg>