<svg xmlns="http://www.w3.org/2000/svg" viewBox="0 0 16 16"><defs><style>.icon-canvas-transparent,.icon-vs-out{fill:#f6f6f6;}.icon-canvas-transparent{opacity:0;}.icon-vs-bg{fill:#424242;}</style></defs><title>Environment_16x</title><g id="canvas"><path class="icon-canvas-transparent" d="M16,16H0V0H16Z"/></g><g id="outline"><path class="icon-vs-out" d="M16,14.35V16H1V14.352L2.271,8H4V2.5A2.5,2.5,0,0,1,6.5,0h4A2.5,2.5,0,0,1,13,2.5V8h1.729Z"/></g><g id="iconBg"><path class="icon-vs-bg" d="M7,3h3V4H7ZM7,9h3V8H7Zm0,2h3V10H7Zm8.11,4H1.89l1.2-6H5V2.5A1.5,1.5,0,0,1,6.5,1h4A1.5,1.5,0,0,1,12,2.5V9h1.91ZM6,12h5V2.5a.5.5,0,0,0-.5-.5h-4a.5.5,0,0,0-.5.5Zm7.89,2-.8-4H12v3H5V10H3.91l-.8,4Z"/></g></svg>