<svg xmlns="http://www.w3.org/2000/svg" viewBox="0 0 16 16"><style>.icon-canvas-transparent{opacity:0;fill:#f6f6f6}.icon-vs-out{fill:#f6f6f6}.icon-vs-fg{fill:#f0eff1}.icon-folder{fill:#dcb67a}.icon-vs-bg{fill:#424242}</style><path class="icon-canvas-transparent" d="M0 0h16v16H0V0z" id="canvas"/><path class="icon-vs-out" d="M15 9V7c0-1.299-1.03-2-2-2h-2.884L10 4.768V2.123L7.983 0H2v3c-.995 0-2 .697-2 2v9c0 .617.227 1.102.57 1.435C1.14 15.978 2 16 2 16h11.677L16 10.196V9h-1z" id="outline"/><g id="iconBg"><path class="icon-folder" d="M14 10V7c0-1-1.236-1-1-1h-3v1h3v3H4l-2 5h11l2-5h-1zM2 9V4S1 4 1 5v9c0 .97.94.984.997.984H2V9z"/><g><path class="icon-folder" d="M14 10V7c0-1-1.236-1-1-1h-3v1h3v3H4l-2 5h11l2-5h-1zM2 9V4S1 4 1 5v9c0 .97.94.984.997.984H2V9z"/></g><path class="icon-vs-bg" d="M3 1v7h6l-.016-5.412-1.466-1.574L3 1zm5 6H4V2l3.017-.02L8 3v4z"/></g><g id="iconFg"><path class="icon-vs-fg" d="M4 2h3.017L8 3v4H4z"/></g></svg>
