<svg xmlns="http://www.w3.org/2000/svg" viewBox="0 0 16 16"><defs><style>.icon-canvas-transparent,.icon-vs-out{fill:#f6f6f6;}.icon-canvas-transparent{opacity:0;}.icon-vs-bg{fill:#424242;}</style></defs><title>Tag_16x</title><g id="canvas"><path class="icon-canvas-transparent" d="M16,16H0V0H16Z"/></g><g id="outline"><path class="icon-vs-out" d="M16,8a4.974,4.974,0,0,1-6.289,4.823l-.561-.149-2.7,2.7L0,8.918V8.176L7.176,1H14V4A4.994,4.994,0,0,1,16,8Z"/></g><g id="iconBg"><path class="icon-vs-bg" d="M12.918,7.492,6.453,13.957l-5.41-5.41L7.59,2H13V3.43a4.923,4.923,0,0,0-1-.32V3H8L2.457,8.547l4,4L12,7v-.72A2,2,0,0,1,12.918,7.492ZM11,4a.5.5,0,0,0,0,1,3,3,0,0,1,0,6c-.055,0-.109-.009-.163-.012l-.869.868A4,4,0,1,0,11,4Z"/></g></svg>