<svg xmlns="http://www.w3.org/2000/svg" viewBox="0 0 16 16"><defs><style>.icon-canvas-transparent,.icon-vs-out{fill:#f6f6f6;}.icon-canvas-transparent{opacity:0;}.icon-vs-action-blue{fill:#00539c;}.icon-vs-bg{fill:#424242;}</style></defs><title>StepBackIn_16x</title><g id="canvas"><path class="icon-canvas-transparent" d="M16,0V16H0V0Z"/></g><g id="outline"><path class="icon-vs-out" d="M15,12H9.5a2.494,2.494,0,1,1-3.986,3H1V5H4V1H15Z"/></g><g id="colorAction"><path class="icon-vs-action-blue" d="M11.207,6.5,8.354,9.354l-.708-.708L9.293,7H3v6H7v1H2V6H9.293L7.646,4.354l.708-.708Z"/></g><g id="iconBg"><path class="icon-vs-bg" d="M14,2v9H5V8H6v2h7V3H6V5H5V2ZM7.5,12A1.5,1.5,0,1,0,9,13.5,1.5,1.5,0,0,0,7.5,12Z"/></g></svg>