<svg xmlns="http://www.w3.org/2000/svg" viewBox="0 0 16 16"><defs><style>.icon-canvas-transparent,.icon-vs-out{fill:#f6f6f6;}.icon-canvas-transparent{opacity:0;}.icon-vs-bg{fill:#424242;}</style></defs><title>Link_16x</title><g id="canvas"><path class="icon-canvas-transparent" d="M16,0V16H0V0Z"/></g><g id="outline"><path class="icon-vs-out" d="M16,10a4,4,0,0,1-4,4H7a4.008,4.008,0,0,1-3.9-3.089l-.416-.145A3.993,3.993,0,0,1,4,3H9a4.009,4.009,0,0,1,3.9,3.089l.416.146A4,4,0,0,1,16,10Z"/></g><g id="iconBg"><path class="icon-vs-bg" d="M15,10a3,3,0,0,1-3,3H7A3,3,0,0,1,7,7h3A1,1,0,0,1,9,8H7a2,2,0,0,0,0,4h5a2,2,0,0,0,.8-3.828,3.984,3.984,0,0,0,.177-.993A2.993,2.993,0,0,1,15,10ZM2,7A2,2,0,0,1,4,5H9A2,2,0,0,1,9,9H7a1,1,0,0,0-1,1H9A3,3,0,0,0,9,4H4a2.992,2.992,0,0,0-.982,5.821A3.984,3.984,0,0,1,3.2,8.828,2,2,0,0,1,2,7Z"/></g></svg>