<svg xmlns="http://www.w3.org/2000/svg" viewBox="0 0 16 16"><defs><style>.icon-canvas-transparent,.icon-vs-out{fill:#f6f6f6;}.icon-canvas-transparent{opacity:0;}.icon-vs-bg{fill:#424242;}</style></defs><title>ExtensionManagerManifest_16x</title><g id="canvas"><path class="icon-canvas-transparent" d="M16,0V16H0V0Z"/></g><g id="outline"><path class="icon-vs-out" d="M16,0V11H12v5H2.372A3.763,3.763,0,0,1,0,12.5v-5A3.5,3.5,0,0,1,3.5,4,3.433,3.433,0,0,1,5,4.355V0Z"/></g><g id="iconBg"><path class="icon-vs-bg" d="M9,4h3V7H9ZM8,7V3h2V1H6V5.083A3.5,3.5,0,0,1,6.949,7Zm3-6V3h1V2h2V4H13V5h2V1Zm2,7H12v2h3V6H13ZM6,8h5v7H3.372v-.013A2.494,2.494,0,0,1,1,12.5v-5a2.5,2.5,0,0,1,5,0ZM6,9v4H5l-.021-.711a1.493,1.493,0,0,0-2.958,0A1.639,1.639,0,0,0,2,12.5,1.5,1.5,0,0,0,3.5,14h0l.007-.007V14H10V9Zm3,3H7v1H9Zm0-2H7v1H9Z"/></g></svg>