<svg xmlns="http://www.w3.org/2000/svg" viewBox="0 0 16 16"><style>.icon-canvas-transparent{opacity:0;fill:#f6f6f6}.icon-vs-out{fill:#f6f6f6}.icon-vs-bg{fill:#424242}.icon-vs-fg{fill:#f0eff1}</style><path class="icon-canvas-transparent" d="M16 16H0V0h16v16z" id="canvas"/><path class="icon-vs-out" d="M8.982.919a7.021 7.021 0 0 0-6.734 5.032L.882 4.59 0 5.472V7.95L3.038 11H0v3h1v2h5v-2h.289A3.567 3.567 0 0 0 9.5 16a3.494 3.494 0 0 0 2.937-1.61l1.37-1.422a6.905 6.905 0 0 0 2.191-5.063c0-3.852-3.147-6.986-7.016-6.986zM9.5 13c-.275 0-.5-.225-.5-.5s.225-.5.5-.5.5.225.5.5-.225.5-.5.5zm2.543-2.89A3.483 3.483 0 0 0 9.5 9a3.567 3.567 0 0 0-3.211 2H3.994l4.289-4.29-1.8-1.799a3.861 3.861 0 0 1 2.368-.869h.139c2.104.026 3.808 1.735 3.808 3.833 0 .829-.283 1.619-.755 2.235z" id="outline"/><path class="icon-vs-fg" d="M10.103 3.198c-.064-.016-.123-.044-.188-.057-.109-.023-.225-.02-.337-.034-.212-.028-.422-.064-.641-.064h-.005c-.458 0-.893.083-1.314.199-2.037.57-3.538 2.408-3.548 4.613 0 .072.018.139.022.211l2.07-2.062.707.706-2.556 2.555A4.75 4.75 0 0 0 5.307 11h.982A3.567 3.567 0 0 1 9.5 9c.221 0 .434.026.643.065.074.014.145.036.217.055.128.033.255.07.377.117a3.52 3.52 0 0 1 .526.257c.099.058.196.116.288.183.042.031.08.066.12.099.393.314.714.706.943 1.158.313-.36.585-.754.779-1.194.009-.021.021-.041.029-.062.118-.277.21-.567.274-.868l.004-.013c.063-.304.095-.62.096-.942-.01-2.256-1.584-4.137-3.693-4.657zm2.137 5.257H8.545V3.859h.924v3.676h2.772v.92z" id="iconFg"/><path class="icon-vs-bg" d="M9.5 10c-1.209 0-2.269.859-2.5 2H1v1h1v2h1v-2h1v2h1v-2h2c.231 1.141 1.291 2 2.5 2a2.5 2.5 0 1 0 0-5zm0 4a1.5 1.5 0 1 1 .001-3.001A1.5 1.5 0 0 1 9.5 14zm2.74-5.545H8.545V3.859h.924v3.676h2.772v.92zm2.758-.55a5.952 5.952 0 0 1-1.878 4.337l-.132.137a3.47 3.47 0 0 0-.36-1.418l.071-.059c.677-.831 1.099-1.875 1.099-3.026 0-2.665-2.178-4.833-4.857-4.833h-.005l-.009-.001c-2.683 0-4.859 2.165-4.859 4.834 0 .045.012.087.014.132l-.002.069 2.081-2.074.708.707-3.352 3.352L.176 6.71l.707-.707L2.978 8.09c-.003-.062-.009-.123-.009-.185 0-3.306 2.691-5.985 6.014-5.985 3.322 0 6.015 2.679 6.015 5.985z" id="iconBg"/></svg>