<svg xmlns="http://www.w3.org/2000/svg" viewBox="0 0 16 16"><defs><style>.icon-canvas-transparent,.icon-vs-out{fill:#f6f6f6;}.icon-canvas-transparent{opacity:0;}.icon-vs-bg{fill:#424242;}.brand-vside{fill:#865fc5;}</style></defs><title>SmartFilter_16x</title><g id="canvas"><path class="icon-canvas-transparent" d="M16,0V16H0V0Z"/></g><g id="outline"><path class="icon-vs-out" d="M16,5V7.414l-4,4V16H9V11.414l-4-4V5h6.143A2.144,2.144,0,0,0,9,2.857V2.143A2.144,2.144,0,0,0,11.143,0h.714A2.144,2.144,0,0,0,14,2.143v.714A2.144,2.144,0,0,0,11.857,5ZM3,7H4A3,3,0,0,1,7,4V3A3,3,0,0,1,4,0H3A3,3,0,0,1,0,3V4A3,3,0,0,1,3,7ZM4.929,9H4.071A2.571,2.571,0,0,1,1.5,11.571v.858A2.571,2.571,0,0,1,4.071,15h.858A2.571,2.571,0,0,1,7.5,12.429v-.858A2.571,2.571,0,0,1,4.929,9Z"/></g><g id="iconBg"><path class="icon-vs-bg" d="M15,6V7l-4,4v4H10V11L6,7V6Z"/></g><g id="colorImportance"><path class="brand-vside" d="M2.812,4.188a5.425,5.425,0,0,0-1.758-.622.067.067,0,0,1,0-.132,5.425,5.425,0,0,0,1.758-.622,5.425,5.425,0,0,0,.622-1.758.067.067,0,0,1,.132,0,5.425,5.425,0,0,0,.622,1.758,5.425,5.425,0,0,0,1.758.622.067.067,0,0,1,0,.132,5.425,5.425,0,0,0-1.758.622,5.425,5.425,0,0,0-.622,1.758.067.067,0,0,1-.132,0A5.425,5.425,0,0,0,2.812,4.188ZM5.05,11.45a4.345,4.345,0,0,1-.5-1.407.054.054,0,0,0-.106,0,4.345,4.345,0,0,1-.5,1.407,4.345,4.345,0,0,1-1.407.5.054.054,0,0,0,0,.106,4.345,4.345,0,0,1,1.407.5,4.345,4.345,0,0,1,.5,1.407.054.054,0,0,0,.106,0,4.345,4.345,0,0,1,.5-1.407,4.345,4.345,0,0,1,1.407-.5.054.054,0,0,0,0-.106A4.345,4.345,0,0,1,5.05,11.45Zm7.918-8.99a3.232,3.232,0,0,1-1.055-.373,3.232,3.232,0,0,1-.373-1.055.041.041,0,0,0-.08,0,3.232,3.232,0,0,1-.373,1.055,3.232,3.232,0,0,1-1.055.373.041.041,0,0,0,0,.08,3.232,3.232,0,0,1,1.055.373,3.232,3.232,0,0,1,.373,1.055.041.041,0,0,0,.08,0,3.232,3.232,0,0,1,.373-1.055,3.232,3.232,0,0,1,1.055-.373A.041.041,0,0,0,12.968,2.46Z"/></g></svg>