<svg xmlns="http://www.w3.org/2000/svg" viewBox="0 0 16 16"><style>.icon-canvas-transparent{opacity:0;fill:#f6f6f6}.icon-vs-out{fill:#f6f6f6}.icon-vs-bg{fill:#424242}.icon-vs-fg{fill:#f0eff1}.icon-vs-action-blue{fill:#00539c}</style><path class="icon-canvas-transparent" d="M16 16H0V0h16v16z" id="canvas"/><path class="icon-vs-out" d="M15 8v7H2V8h5V6.304L5.851 7.449 3.732 5.331 8.484.561l4.767 4.768-2.12 2.12L10 6.322V8h5z" id="outline"/><path class="icon-vs-bg" d="M3 9h1v1H3V9zm2 1h1V9H5v1zm2 0h1V9H7v1zm2 0h1V9H9v1zm2 0h1V9h-1v1zm-8 2h1v-1H3v1zm10 0h1v-1h-1v1zM3 14h1v-1H3v1zm2 0h1v-1H5v1zm2 0h1v-1H7v1zm2 0h1v-1H9v1zm2 0h1v-1h-1v1zm2-5v1h1V9h-1zm0 5h1v-1h-1v1z" id="iconBg"/><path class="icon-vs-fg" d="M13 10v3H4v-3h9z" id="iconFg"/><path class="icon-vs-action-blue" d="M8.485 1.977l3.352 3.352-.707.707L9 3.914V8H8V3.896l-2.148 2.14-.707-.707 3.34-3.352z" id="colorAction"/></svg>