<svg xmlns="http://www.w3.org/2000/svg" viewBox="0 0 16 16"><style>.icon-canvas-transparent{opacity:0;fill:#f6f6f6}.icon-vs-out{fill:#f6f6f6}.icon-vs-bg{fill:#424242}</style><path class="icon-canvas-transparent" d="M16 16H0V0h16v16z" id="canvas"/><path class="icon-vs-out" d="M16 15.175l-.188-.007c-1.401-.05-2.694-.386-3.823-.987V16H8.046V7.59L6.355 9.271 6 8.928V10h2v4H6v2H2v-2H0v-4h2V8h3.041L3.538 6.547l.739-.744 5.769-5.77L16 6.016v1.16l-.104.11-2.086 2.087-1.821-1.811v1.014c.213.628 1.09 2.532 3.903 2.659l.108.004v3.936z" id="outline"/><path class="icon-vs-bg" d="M5 11h2v2H5v2H3v-2H1v-2h2V9h2v2zm5.99-2.273V5.156l2.819 2.804 1.344-1.344.017-.017-5.125-5.149-5.06 5.06.003.003-.024.022 1.381 1.336 2.701-2.685V15h1.944v-2.757c1.083 1.023 2.658 1.848 4.858 1.926v-1.935c-3.724-.168-4.705-2.971-4.858-3.507z" id="iconBg"/></svg>