<svg xmlns="http://www.w3.org/2000/svg" viewBox="0 0 16 16"><defs><style>.icon-canvas-transparent,.icon-vs-out{fill:#f6f6f6;}.icon-canvas-transparent{opacity:0;}.icon-vs-fg{fill:#f0eff1;}.icon-vs-bg{fill:#424242;}</style></defs><title>Home_16x</title><g id="canvas"><path class="icon-canvas-transparent" d="M16,16H0V0H16Z"/></g><g id="outline"><path class="icon-vs-out" d="M16,7.879V9.414l-1,1V16H1V10.414l-1-1V7.879L7.879,0h.242Z"/></g><g id="iconFg"><path class="icon-vs-fg" d="M13,14H10V9H6v5H3V7.707l5-5,5,5Z"/></g><g id="iconBg"><path class="icon-vs-bg" d="M.646,8.646l.708.708L2,8.707V15H7V10H9v5h5V8.707l.647.647.706-.708L8,1.293ZM13,14H10V9H6v5H3V7.707l5-5,5,5Z"/></g></svg>