<svg xmlns="http://www.w3.org/2000/svg" viewBox="0 0 16 16"><defs><style>.icon-canvas-transparent{fill:#f6f6f6;opacity:0;}.icon-vs-blue{fill:#1ba1e2;}</style></defs><title>StatusInfoTip_noHalo_16x</title><g id="canvas"><path class="icon-canvas-transparent" d="M16,0V16H0V0Z"/></g><g id="iconBg"><path class="icon-vs-blue" d="M7,6H8v5H7Zm8,1.5a7.429,7.429,0,0,1-.266,2A7.485,7.485,0,0,1,9.5,14.734a7.633,7.633,0,0,1-3.992,0A7.485,7.485,0,0,1,.266,9.5a7.633,7.633,0,0,1,0-3.992A7.485,7.485,0,0,1,5.5.266,7.633,7.633,0,0,1,9.5.266,7.485,7.485,0,0,1,14.734,5.5,7.429,7.429,0,0,1,15,7.5Zm-1,0a6.323,6.323,0,0,0-.234-1.723,6.641,6.641,0,0,0-.656-1.555,6.5,6.5,0,0,0-2.332-2.332,6.641,6.641,0,0,0-1.555-.656,6.462,6.462,0,0,0-3.449,0,6.658,6.658,0,0,0-1.551.656A6.5,6.5,0,0,0,1.891,4.223a6.641,6.641,0,0,0-.656,1.555,6.448,6.448,0,0,0,0,3.445,6.641,6.641,0,0,0,.656,1.555,6.5,6.5,0,0,0,2.332,2.332,6.658,6.658,0,0,0,1.551.656,6.462,6.462,0,0,0,3.449,0,6.641,6.641,0,0,0,1.555-.656,6.5,6.5,0,0,0,2.332-2.332,6.658,6.658,0,0,0,.656-1.551A6.31,6.31,0,0,0,14,7.5ZM7,5H8V4H7Z"/></g></svg>