<svg xmlns="http://www.w3.org/2000/svg" viewBox="0 0 16 16"><defs><style>.icon-canvas-transparent,.icon-vs-out{fill:#f6f6f6;}.icon-canvas-transparent{opacity:0;}.icon-white{fill:#fff;}.icon-vs-blue{fill:#1ba1e2;}</style></defs><title>StatusInformationOutline_16x</title><g id="canvas"><path class="icon-canvas-transparent" d="M16,0V16H0V0Z"/></g><g id="outline"><path class="icon-vs-out" d="M16,8A8,8,0,1,1,8,0,8,8,0,0,1,16,8Z"/></g><g id="iconFg"><path class="icon-white" d="M14,8A6,6,0,1,1,8,2,6,6,0,0,1,14,8Z"/></g><g id="iconBg"><path class="icon-vs-blue" d="M8,1a7,7,0,1,0,7,7A7.008,7.008,0,0,0,8,1ZM8,14a6,6,0,1,1,6-6A6.006,6.006,0,0,1,8,14ZM7.5,4h1v6h-1Zm0,7h1v1h-1Z"/></g></svg>