<svg xmlns="http://www.w3.org/2000/svg" viewBox="0 0 16 16"><style>.icon-canvas-transparent{opacity:0;fill:#f6f6f6}.icon-vs-out{fill:#f6f6f6}.icon-vs-bg{fill:#424242}.icon-vs-fg{fill:#f0eff1}</style><path class="icon-canvas-transparent" d="M16 0v16H0V0h16z" id="canvas"/><path class="icon-vs-out" d="M16 12.5c0 1.93-1.57 3.5-3.5 3.5S9 14.43 9 12.5c0-1.369.805-2.592 2-3.161V5H6.662A3.516 3.516 0 0 1 3.5 7C1.57 7 0 5.43 0 3.5S1.57 0 3.5 0c1.369 0 2.592.805 3.162 2H14v7.339c1.195.569 2 1.792 2 3.161z" id="outline"/><path class="icon-vs-bg" d="M13 10.051V3H5.949A2.503 2.503 0 0 0 3.5 1C2.122 1 1 2.122 1 3.5S2.122 6 3.5 6c1.207 0 2.217-.86 2.449-2H12v6.051c-1.14.232-2 1.242-2 2.449 0 1.379 1.121 2.5 2.5 2.5s2.5-1.121 2.5-2.5c0-1.208-.86-2.217-2-2.449zM3.5 5C2.673 5 2 4.327 2 3.5S2.673 2 3.5 2 5 2.673 5 3.5 4.327 5 3.5 5zm9 9c-.827 0-1.5-.673-1.5-1.5s.673-1.5 1.5-1.5 1.5.673 1.5 1.5-.673 1.5-1.5 1.5z" id="iconBg"/><g id="iconFg"><path class="icon-vs-fg" d="M5 3.5C5 4.327 4.327 5 3.5 5S2 4.327 2 3.5 2.673 2 3.5 2 5 2.673 5 3.5zm7.5 7.5c-.827 0-1.5.673-1.5 1.5s.673 1.5 1.5 1.5 1.5-.673 1.5-1.5-.673-1.5-1.5-1.5z"/></g></svg>