<svg xmlns="http://www.w3.org/2000/svg" viewBox="0 0 16 16"><style>.icon-canvas-transparent{opacity:0;fill:#f6f6f6}.icon-vs-bg{fill:#424242}.icon-vs-red{fill:#e51400}.icon-white{fill:#fff}.st0{fill:#f6f6f6}</style><path class="icon-canvas-transparent" d="M0 0h16v16H0z" id="canvas"/><path class="st0" d="M16 11.5c0-1.953-1.258-3.602-3-4.224V4.379L8.621 0H0v16h13v-.276c1.742-.622 3-2.271 3-4.224z" id="outline"/><g id="iconBg"><path class="icon-vs-bg" d="M7.762 14H2V2h5v4h4v1.051c.166-.019.329-.051.5-.051s.334.032.5.051V4.793L8.207 1H1v14h7.706a4.504 4.504 0 0 1-.944-1zM8 2.207L10.793 5H8V2.207z"/><path class="icon-vs-bg" d="M4.594 9l-.431.834a1.353 1.353 0 0 0-.07.148L4.086 10h-.107l-.004-.008C3.952 9.942 3.478 9 3.478 9H2.405l.952 1.506L2.344 12h1.063s.479-.895.499-.942c.016-.039.08-.013.115-.021l.007.018c.022.047.508.945.508.945h1.066l-.984-1.547L5.608 9H4.594zM6 11v1h1.051c-.019-.166-.051-.329-.051-.5s.032-.334.051-.5H6z"/></g><path class="icon-vs-red" d="M11.5 8a3.5 3.5 0 1 0 0 7 3.5 3.5 0 0 0 0-7zm1.854 4.646l-.707.707-1.147-1.146-1.146 1.147-.707-.707 1.147-1.146-1.147-1.146.707-.707 1.146 1.147 1.146-1.147.707.707-1.146 1.145 1.147 1.146z" id="notificationBg"/><path class="icon-white" d="M12.207 11.5l1.147 1.146-.707.707-1.147-1.146-1.146 1.147-.707-.707 1.147-1.146-1.147-1.146.707-.707 1.146 1.147 1.146-1.147.707.707-1.146 1.145z" id="notificationFg"/></svg>