<svg xmlns="http://www.w3.org/2000/svg" viewBox="0 0 16 16"><defs><style>.icon-canvas-transparent,.icon-vs-out{fill:#f6f6f6;}.icon-canvas-transparent{opacity:0;}.icon-vs-bg{fill:#424242;}.icon-cpp-purple{fill:#9b4f96;}</style></defs><title>CPPPhoneWeb_16x</title><g id="canvas"><path class="icon-canvas-transparent" d="M16,0V16H0V0Z"/></g><g id="outline"><path class="icon-vs-out" d="M14,2V14a2,2,0,0,1-2,2H5a1.984,1.984,0,0,1-.822-.181A5.462,5.462,0,0,1,.1,11.518l-.033-.083v-.121c-.018-.112-.033-.226-.043-.34C.009,10.82,0,10.662,0,10.5A5.5,5.5,0,0,1,3,5.607V2A2,2,0,0,1,5,0h7A2,2,0,0,1,14,2Z"/></g><g id="iconBg"><path class="icon-vs-bg" d="M13,2V14a1,1,0,0,1-1,1H8.644A5.432,5.432,0,0,0,9.73,14H12V2H5V5.025a5.5,5.5,0,0,0-1,.188V2A1,1,0,0,1,5,1h7A1,1,0,0,1,13,2Z"/></g><g id="colorImportance"><path class="icon-cpp-purple" d="M9.992,10.348A4.5,4.5,0,0,0,1,10.5c0,.132.008.26.02.389s.026.228.045.34l0,.013a4.491,4.491,0,0,0,3.7,3.692h.012c.113.02.225.036.339.045S5.37,15,5.5,15c.148,0,.295-.009.439-.022A4.5,4.5,0,0,0,10,10.5C10,10.447,9.992,10.4,9.992,10.348ZM8.553,8.416A7.23,7.23,0,0,1,7.3,8.735,7.571,7.571,0,0,0,6.709,7.01,3.7,3.7,0,0,1,8.553,8.416ZM5.029,6.837A3.652,3.652,0,0,1,5.5,6.8c.106,0,.21.008.313.015a7.021,7.021,0,0,1,.786,2c-.368.026-.729.03-1.1.026a10.6,10.6,0,0,1-1.119-.071A7.817,7.817,0,0,1,5.029,6.837ZM4.287,9.444A10.752,10.752,0,0,0,5.5,9.5h.259c.314,0,.632.012.956-.012a6.561,6.561,0,0,1,.046.683,5.605,5.605,0,0,1-.135,1.208c-.376.025-.744.037-1.118.035a11.723,11.723,0,0,1-1.182-.079,7.858,7.858,0,0,1-.078-1.153C4.246,9.935,4.263,9.675,4.287,9.444ZM4.161,7.058A8.473,8.473,0,0,0,3.69,8.67a12.369,12.369,0,0,1-1.223-.28A3.7,3.7,0,0,1,4.161,7.058ZM1.8,10.5a3.7,3.7,0,0,1,.31-1.48,12.5,12.5,0,0,0,1.478.345c-.027.262-.047.529-.05.811a8.6,8.6,0,0,0,.063,1.051,12.757,12.757,0,0,1-1.788-.467C1.811,10.674,1.8,10.588,1.8,10.5Zm.151,1.044a12.988,12.988,0,0,0,1.765.415,11.149,11.149,0,0,0,.631,2.053A3.706,3.706,0,0,1,1.955,11.544Zm3.608,2.648c-.022,0-.042,0-.063,0-.109,0-.217-.008-.324-.017a11.031,11.031,0,0,1-.725-2.124c.336.033.686.056,1.045.058.086,0,.174,0,.259,0q.336,0,.678-.017A13.791,13.791,0,0,1,5.563,14.192Zm.828-.108a13.061,13.061,0,0,0,.8-2.054,8.2,8.2,0,0,0,1.855-.471A3.7,3.7,0,0,1,6.391,14.084ZM9.185,10.74a7.551,7.551,0,0,1-1.831.555,6.039,6.039,0,0,0,.1-1.119c0-.259-.024-.5-.05-.743A8.232,8.232,0,0,0,8.9,9.045,3.682,3.682,0,0,1,9.2,10.5C9.2,10.58,9.188,10.66,9.185,10.74Z"/></g></svg>