<svg xmlns="http://www.w3.org/2000/svg" viewBox="0 0 16 16"><defs><style>.icon-canvas-transparent,.icon-vs-out{fill:#f6f6f6;}.icon-canvas-transparent{opacity:0;}.icon-vs-bg{fill:#424242;}.icon-asp-html-wpf-blue{fill:#0095d7;}</style></defs><title>WPFPage_16x</title><g id="canvas"><path class="icon-canvas-transparent" d="M16,16H0V0H16Z"/></g><g id="outline"><polygon class="icon-vs-out" points="10.958 0 2 0 2 9.621 0 11.586 0 12.414 2 14.276 2 16 15 16 15 4.165 10.958 0"/></g><g id="iconBg"><path class="icon-vs-bg" d="M10.543,1H3V9H4V2H9V6h4v8H10.435l-.99,1H14V4.579ZM10,5V2.207L12.793,5Zm1,7L9,14V13l1-1L9,11V10ZM3,10v1L2,12l1,1v1L1,12Z"/></g><g id="colorImportance"><path class="icon-asp-html-wpf-blue" d="M8,10v4H4V10Z"/></g></svg>