<svg xmlns="http://www.w3.org/2000/svg" viewBox="0 0 16 16"><defs><style>.icon-canvas-transparent,.icon-vs-out{fill:#f6f6f6;}.icon-canvas-transparent{opacity:0;}.icon-vs-bg{fill:#424242;}.cls-1{fill:#dcb67a;}</style></defs><title>ShareSnapshot_16x</title><g id="canvas"><path class="icon-canvas-transparent" d="M16,0V16H0V0Z"/></g><g id="outline"><path class="icon-vs-out" d="M16,7v9H4V9H0V0H11V6h1.442l.714,1Z"/></g><g id="iconBg"><path class="icon-vs-bg" d="M8.5,11.5A1.5,1.5,0,1,1,10,13,1.5,1.5,0,0,1,8.5,11.5ZM12.642,8l-.714-1H11V9H10a2.5,2.5,0,1,1-2.5,2.5A2.5,2.5,0,0,1,10,9H7v1H6V9H5v6H15V8Z"/></g><g id="colorImportance"><polygon class="cls-1" points="5.824 4 9.574 1 1.426 1 5.176 4 5.824 4"/><polygon class="cls-1" points="6.176 5 4.824 5 1 1.941 1 8 10 8 10 1.941 6.176 5"/><polygon class="cls-1" points="5.824 4 9.574 1 1.426 1 5.176 4 5.824 4"/><polygon class="cls-1" points="6.176 5 4.824 5 1 1.941 1 8 10 8 10 1.941 6.176 5"/></g></svg>