<svg xmlns="http://www.w3.org/2000/svg" viewBox="0 0 16 16"><defs><style>.icon-canvas-transparent,.icon-vs-out{fill:#f6f6f6;}.icon-canvas-transparent{opacity:0;}.icon-vs-bg{fill:#424242;}.icon-vs-action-purple{fill:#652d90;}</style></defs><title>PieBarChart_16x</title><g id="canvas"><path class="icon-canvas-transparent" d="M16,16H0V0H16Z"/></g><g id="outline"><path class="icon-vs-out" d="M16,8a8.017,8.017,0,1,1-4-6.921V0h3V4.13A7.956,7.956,0,0,1,16,8Z"/></g><g id="iconBg"><path class="icon-vs-bg" d="M8,8V.985l-.538.041a7,7,0,1,0,7.512,7.512L15.015,8Zm0,6A6,6,0,0,1,7,2.09V9h6.91A6.023,6.023,0,0,1,8,14Z"/></g><g id="colorImportance"><path class="icon-vs-action-purple" d="M9,5h1V7H9Zm2,2h1V3H11Zm2-6V7h1V1Z"/></g></svg>