<svg xmlns="http://www.w3.org/2000/svg" viewBox="0 0 16 16"><defs><style>.icon-canvas-transparent,.icon-vs-out{fill:#f6f6f6;}.icon-canvas-transparent{opacity:0;}.icon-folder{fill:#dcb67a;}.icon-vs-action-green{fill:#388a34;}.cls-1{fill:#f0eff1;}</style></defs><title>AddFolder_16x</title><g id="canvas"><path class="icon-canvas-transparent" d="M16,16H0V0H16Z"/></g><g id="outline"><path class="icon-vs-out" d="M16,6.5v7A1.5,1.5,0,0,1,14.5,15H3.5A1.5,1.5,0,0,1,2,13.5V6H0V2H2V0H6V2H8V3h2.618l1,2H14.5A1.5,1.5,0,0,1,16,6.5Z"/></g><g id="iconBg"><path class="icon-folder" d="M15,6.5v7a.5.5,0,0,1-.5.5H3.5a.5.5,0,0,1-.5-.5V8H6V6H9.5L9,5H8V4h2l1,2h3.5A.5.5,0,0,1,15,6.5Z"/></g><g id="iconFg"><path class="icon-vs-action-green" d="M7,5H5V7H3V5H1V3H3V1H5V3H7Z"/></g><g id="colorAction"><polygon class="cls-1" points="9 5 8 5 8 6 9.5 6 9 5"/></g></svg>