<svg xmlns="http://www.w3.org/2000/svg" viewBox="0 0 16 16"><defs><style>.icon-canvas-transparent,.icon-vs-out{fill:#f6f6f6;}.icon-canvas-transparent{opacity:0;}.icon-vs-bg{fill:#424242;}.icon-vs-fg{fill:#f0eff1;}</style></defs><title>StatusRunOutline_grey_16x</title><path class="icon-canvas-transparent" d="M16,16H0V0H16Z"/><path class="icon-vs-out" d="M0,8a8,8,0,1,1,8,8A8,8,0,0,1,0,8Z"/><path class="icon-vs-bg" d="M7.986,1.935A6.052,6.052,0,1,1,1.935,7.986,6.058,6.058,0,0,1,7.986,1.935m0-1a7.052,7.052,0,1,0,7.052,7.051A7.051,7.051,0,0,0,7.986.935ZM6,12l5.951-4L6,4Z"/><path class="icon-vs-fg" d="M8,2a6,6,0,1,0,6,6A6,6,0,0,0,8,2ZM6,12V4l5.951,4Z"/></svg>