<svg xmlns="http://www.w3.org/2000/svg" viewBox="0 0 16 16"><defs><style>.icon-canvas-transparent,.icon-vs-out{fill:#f6f6f6;}.icon-canvas-transparent{opacity:0;}.icon-vs-bg{fill:#424242;}</style></defs><title>Effects_16x</title><g id="canvas"><path class="icon-canvas-transparent" d="M16,0V16H0V0Z"/></g><g id="outline"><path class="icon-vs-out" d="M15.118,9.229l-.538.871a4.828,4.828,0,0,1-1.287,1.465,2.256,2.256,0,0,1-1.306.44,2.074,2.074,0,0,1-1.177-.335,2.383,2.383,0,0,1-.778-.922c-.017-.035-.039-.078-.061-.128-.164.187-.3.341-.4.435a3.445,3.445,0,0,1-.931.728,2.233,2.233,0,0,1-.981.222,1.631,1.631,0,0,1-1.191-.47A1.583,1.583,0,0,1,6,10.373,1.66,1.66,0,0,1,7.685,8.69a1.847,1.847,0,0,1,.734.165L8.473,8.8c.057-.064.34-.4.6-.717-.178-.632-.311-1.03-.405-1.279A1.436,1.436,0,0,1,8.2,7L7,7.24V6.846H6.827L6.335,8.792a14.018,14.018,0,0,1-1.022,2.992,4.417,4.417,0,0,1-1.392,1.634A3.437,3.437,0,0,1,1.964,14,2.1,2.1,0,0,1,.6,13.584a1.543,1.543,0,0,1-.079-2.379A1.717,1.717,0,0,1,1.7,10.773a1.789,1.789,0,0,1,.52.075c.042-.158.092-.35.153-.582l.873-3.42H2.4L3.16,4.154s.842.008.869.007c.019-.03.041-.067.068-.115A5.854,5.854,0,0,1,5.746,2.013a3.637,3.637,0,0,1,2.173-.7,2.19,2.19,0,0,1,1.463.456,1.7,1.7,0,0,1,.606,1.321,1.69,1.69,0,0,1-.263.933h1.3l.295.463c.084.132.163.266.238.4a3,3,0,0,1,.731-.606,2.123,2.123,0,0,1,1.022-.261,1.663,1.663,0,0,1,1.216,2.8,1.592,1.592,0,0,1-1.152.484,2.6,2.6,0,0,1-.682-.1,2.948,2.948,0,0,0-.215.3c.134.43.273.817.393,1.125l.36-.506Z"/></g><g id="iconBg"><path class="icon-vs-bg" d="M11.4,7.37a11.379,11.379,0,0,0,.98,2.542.471.471,0,0,0,.356.228A.457.457,0,0,0,13,10.065a3.161,3.161,0,0,0,.521-.615l.209.123a3.9,3.9,0,0,1-1,1.169,1.28,1.28,0,0,1-.738.263,1.1,1.1,0,0,1-.622-.167,1.4,1.4,0,0,1-.441-.543,14.391,14.391,0,0,1-.64-1.61c-.456.581-1.168,1.407-1.427,1.674a2.6,2.6,0,0,1-.646.524,1.258,1.258,0,0,1-.548.122.648.648,0,0,1-.482-.176A.606.606,0,0,1,7,10.373a.66.66,0,0,1,.683-.684.871.871,0,0,1,.358.094,1.146,1.146,0,0,0,.418.141.656.656,0,0,0,.3-.07,1.786,1.786,0,0,0,.444-.38c.109-.121.665-.782.957-1.176A9.732,9.732,0,0,0,9.29,5.809a.608.608,0,0,0-.5-.263c-.1,0-.637.441-.789.472v-1h2.483a5.856,5.856,0,0,1,.784,1.917,14.385,14.385,0,0,1,.866-1.187,2.739,2.739,0,0,1,.644-.593,1.132,1.132,0,0,1,.541-.137.667.667,0,0,1,.495.175.649.649,0,0,1,.172.473.634.634,0,0,1-.172.46.578.578,0,0,1-.431.178,1.637,1.637,0,0,1-.429-.068,1.53,1.53,0,0,0-.336-.066.745.745,0,0,0-.468.175A3.677,3.677,0,0,0,11.4,7.37ZM6.229,5.163A5.2,5.2,0,0,1,7.188,3,.983.983,0,0,1,7.9,2.574a.16.16,0,0,1,.114.041.137.137,0,0,1,.043.1.579.579,0,0,1-.1.222.624.624,0,0,0-.1.309.463.463,0,0,0,.153.351.528.528,0,0,0,.384.146.554.554,0,0,0,.42-.178.669.669,0,0,0,.171-.483.7.7,0,0,0-.255-.56,1.246,1.246,0,0,0-.814-.217,2.647,2.647,0,0,0-1.589.515,4.946,4.946,0,0,0-1.356,1.7,1.366,1.366,0,0,1-.422.525,1.28,1.28,0,0,1-.637.112l-.192.683h.812l-1.193,4.67q-.3,1.15-.4,1.419a1.679,1.679,0,0,1-.462.667.423.423,0,0,1-.3.111.131.131,0,0,1-.083-.029l-.029-.04c0-.021.029-.06.087-.121a.381.381,0,0,0,.088-.277.452.452,0,0,0-.139-.34.559.559,0,0,0-.4-.133.725.725,0,0,0-.509.174A.544.544,0,0,0,1,12.363a.561.561,0,0,0,.233.447,1.155,1.155,0,0,0,.731.19,2.446,2.446,0,0,0,1.4-.412A3.431,3.431,0,0,0,4.43,11.316a13.308,13.308,0,0,0,.935-2.77l.684-2.7h.825l.2-.683Z"/></g></svg>