<svg xmlns="http://www.w3.org/2000/svg" viewBox="0 0 16 16"><defs><style>.cls-1,.cls-11,.cls-13,.cls-15,.cls-17,.cls-19,.cls-3,.cls-5,.cls-7,.cls-9,.icon-canvas-transparent{fill:#f6f6f6;}.icon-canvas-transparent{opacity:0;}.cls-1,.cls-2{opacity:0.1;}.cls-10,.cls-12,.cls-14,.cls-16,.cls-18,.cls-2,.cls-20,.cls-4,.cls-6,.cls-8{fill:#007acc;}.cls-3,.cls-4{opacity:0.2;}.cls-5,.cls-6{opacity:0.3;}.cls-7,.cls-8{opacity:0.4;}.cls-10,.cls-9{opacity:0.5;}.cls-11,.cls-12{opacity:0.6;}.cls-13,.cls-14{opacity:0.7;}.cls-15,.cls-16{opacity:0.8;}.cls-17,.cls-18{opacity:0.9;}</style></defs><title>Loading_16x</title><g id="canvas"><path class="icon-canvas-transparent" d="M16,0V16H0V0Z"/></g><g id="iconBg"><path class="cls-1" d="M10.155,2.138A2.165,2.165,0,1,1,9.506.615,2.167,2.167,0,0,1,10.155,2.138Z"/><path class="cls-2" d="M9.16,2.148A1.169,1.169,0,1,1,7.979.991,1.169,1.169,0,0,1,9.16,2.148Z"/><path class="cls-3" d="M13.2,4.529a2.164,2.164,0,1,1-.5-3.019,2.165,2.165,0,0,1,.5,3.019Z"/><path class="cls-4" d="M12.389,3.95a1.169,1.169,0,1,1-.272-1.63A1.169,1.169,0,0,1,12.389,3.95Z"/><path class="cls-5" d="M14.839,7.952a2.165,2.165,0,0,1-2.546-3.5,2.2,2.2,0,0,1,.593-.3,2.165,2.165,0,0,1,1.953,3.807Z"/><path class="cls-6" d="M13.933,7.31a1.169,1.169,0,1,1,.743-1.477A1.169,1.169,0,0,1,13.933,7.31Z"/><path class="cls-7" d="M15.616,10.485a2.164,2.164,0,1,1-1.4-2.724A2.151,2.151,0,0,1,15.616,10.485Z"/><path class="cls-8" d="M14.669,10.18a1.169,1.169,0,1,1-.754-1.471A1.169,1.169,0,0,1,14.669,10.18Z"/><path class="cls-9" d="M12.685,14.491a2.165,2.165,0,1,1,.478-3.023A2.168,2.168,0,0,1,12.685,14.491Z"/><path class="cls-10" d="M12.1,13.685a1.169,1.169,0,1,1,.258-1.632A1.169,1.169,0,0,1,12.1,13.685Z"/><path class="cls-11" d="M10.274,13.78A2.163,2.163,0,1,1,8.06,11.667,2.167,2.167,0,0,1,10.274,13.78Z"/><path class="cls-12" d="M9.279,13.8a1.169,1.169,0,1,1-1.2-1.141A1.169,1.169,0,0,1,9.279,13.8Z"/><path class="cls-13" d="M6.426,14A2.163,2.163,0,1,1,2.874,11.53a2.14,2.14,0,0,1,.5-.515A2.164,2.164,0,0,1,6.426,14Z"/><path class="cls-14" d="M5.609,13.433a1.169,1.169,0,1,1-.292-1.627A1.168,1.168,0,0,1,5.609,13.433Z"/><path class="cls-15" d="M3.756,11.614a2.166,2.166,0,0,1-2.219.195,2.165,2.165,0,0,1-.326-3.7,2.183,2.183,0,0,1,.567-.294,2.164,2.164,0,0,1,1.978,3.8Z"/><path class="cls-16" d="M2.865,10.968a1.169,1.169,0,1,1,.724-1.486A1.168,1.168,0,0,1,2.865,10.968Z"/><path class="cls-17" d="M4.516,6.879a2.165,2.165,0,0,1-2.708,1.43,2.164,2.164,0,0,1-.634-3.817A2.165,2.165,0,0,1,4.516,6.879Z"/><path class="cls-18" d="M3.564,6.586a1.169,1.169,0,1,1-.773-1.461A1.17,1.17,0,0,1,3.564,6.586Z"/><path class="cls-19" d="M5.848,5.031a2.178,2.178,0,0,1-3.03-.441,2.163,2.163,0,0,1,.44-3.027l.022-.017A2.165,2.165,0,0,1,5.848,5.031Z"/><path class="cls-20" d="M5.252,4.233A1.169,1.169,0,1,1,5.49,2.6,1.168,1.168,0,0,1,5.252,4.233Z"/></g></svg>