<svg xmlns="http://www.w3.org/2000/svg" viewBox="0 0 16 16"><defs><style>.icon-canvas-transparent,.icon-vs-out{fill:#f6f6f6;}.icon-canvas-transparent{opacity:0;}.icon-vs-fg{fill:#f0eff1;}.icon-vs-bg{fill:#424242;}</style></defs><title>XMLProject_16x</title><path class="icon-canvas-transparent" d="M16,16H0V0H16Z"/><path class="icon-vs-out" d="M16,1V15H11.2l-1,1H2.586l-1-1H0V1Z"/><path class="icon-vs-fg" d="M13.2,13l.8-.8V13ZM2,5V9.8L3.8,8H10.2L14,11.8V5Z"/><path class="icon-vs-bg" d="M15,2V14H12.2l1-1H14V5H2V9.8l-1,1V2ZM4.063,9.146,1.209,12l2.854,2.853.707-.707L2.624,12,4.77,9.854Zm1.272,5.668.929.371,2.4-6-.929-.371Zm4.6-5.668-.707.707L11.377,12,9.23,14.146l.707.707L12.791,12Z"/></svg>