<svg xmlns="http://www.w3.org/2000/svg" viewBox="0 0 16 16"><defs><style>.icon-canvas-transparent,.icon-vs-out{fill:#f6f6f6;}.icon-canvas-transparent{opacity:0;}.icon-vs-fg{fill:#f0eff1;}.icon-vs-bg{fill:#424242;}.icon-asp-html-wpf-blue{fill:#0095d7;}</style></defs><title>ClickOnce_16x</title><path class="icon-canvas-transparent" d="M16,0V16H0V0Z"/><path class="icon-vs-out" d="M16,8H14.218L16,9.781v.436L14.12,12.1l-.143-.143A2.453,2.453,0,0,1,11.563,14H9.053v.774l-.432.3A5.462,5.462,0,0,1,6.158,16H4.8A5.495,5.495,0,0,1,5.38,5.056L6,5V0H16Z"/><path class="icon-vs-fg" d="M14,3V6H8.559A5.559,5.559,0,0,0,8,5.67V3Z"/><path class="icon-vs-bg" d="M12.529,7.726,14.8,10l-.684.684L13.012,9.576V11.55A1.452,1.452,0,0,1,11.562,13H9.012v-.966h2.551a.468.468,0,0,0,.465-.483V9.576l-1.09,1.109L10.254,10ZM7,1V5.273a5.484,5.484,0,0,1,1,.4V3h6V6H8.559A5.561,5.561,0,0,1,9.666,7H15V1Z"/><path class="icon-asp-html-wpf-blue" d="M8.052,13.14a3.633,3.633,0,0,1-1.333.84,6.609,6.609,0,0,0,.778-1.8c.191-.017.368-.046.555-.067V11.3c-.127.015-.259.03-.4.044A6.188,6.188,0,0,0,7.56,9.424c.628.06,1.134.133,1.471.188l0,.02L9.7,8.968A4.5,4.5,0,1,0,8.052,14.25ZM6.83,11.405a21.018,21.018,0,0,1-2.725,0,5.355,5.355,0,0,1,.1-2.046,21.04,21.04,0,0,1,2.533,0A5.362,5.362,0,0,1,6.83,11.405Zm1.832-2.68c-.431-.062-.877-.113-1.332-.151A8.036,8.036,0,0,0,6.657,7.1,3.64,3.64,0,0,1,8.662,8.725ZM5.226,7.1A.322.322,0,0,1,5.457,7h.008a.235.235,0,0,1,.166.055,5.326,5.326,0,0,1,.836,1.459c-.673-.029-1.345-.03-2,0A4.915,4.915,0,0,1,5.226,7.1Zm-.968.036a8.226,8.226,0,0,0-.652,1.441c-.4.036-.818.087-1.239.154A3.661,3.661,0,0,1,4.258,7.137ZM1.878,10.55A3.616,3.616,0,0,1,2,9.623c.447-.083.91-.149,1.378-.2a6.183,6.183,0,0,0-.093,1.911c-.455-.05-.912-.118-1.358-.2A3.547,3.547,0,0,1,1.878,10.55Zm.309,1.46c.413.069.834.125,1.252.167a6.575,6.575,0,0,0,.755,1.762A3.672,3.672,0,0,1,2.187,12.01ZM5.724,14a.379.379,0,0,1-.261.139.4.4,0,0,1-.26-.157,6.249,6.249,0,0,1-.9-1.744c.442.025.823.036,1.16.036.384,0,.769-.01,1.172-.031A4.5,4.5,0,0,1,5.724,14Z"/></svg>