<svg xmlns="http://www.w3.org/2000/svg" viewBox="0 0 16 16"><style>.icon-canvas-transparent{opacity:0;fill:#f6f6f6}.icon-vs-out{fill:#f6f6f6}.icon-vs-bg{fill:#424242}</style><path class="icon-canvas-transparent" d="M16 16H0V0h16v16z" id="canvas"/><path class="icon-vs-out" d="M11.069 10l1.639-1.638L10.389 6H12V0H4v6h1.626L3.308 8.362 4.947 10H0v6h16v-6h-4.931z" id="outline"/><path class="icon-vs-bg" d="M8 5H5V1h6v4H8zM1 15h6v-4H1v4zm8-4v4h6v-4H9zm2.299-2.645L8.007 5.001 4.716 8.355l.707.707 2.084-2.084L7.508 11h1V6.978l2.084 2.084.707-.707z" id="iconBg"/></svg>