<svg xmlns="http://www.w3.org/2000/svg" viewBox="0 0 16 16"><style>.icon-canvas-transparent{opacity:0;fill:#f6f6f6}.icon-vs-out{fill:#f6f6f6}.icon-vs-bg{fill:#424242}.icon-vs-action-blue{fill:#00539c}.st0{fill:#f0eff1;stroke:#424242;stroke-width:.15;stroke-miterlimit:10}</style><path class="icon-canvas-transparent" d="M16 16H0V0h16v16z" id="canvas"/><path class="icon-vs-out" d="M1.524 7.084L2.608 6H0V3h2.733L1.524 1.791 3.315 0h.667l4.166 4.241 1.919-.971L15.7 6.242v6.613L11.409 16H9.138l-4.923-3.101V8.632l-.58.564-2.111-2.112z" id="outline"/><path class="st0" d="M13.838 7.131l-3.58 2.149-3.869-2.206L10 5.24l3.838 1.891zm-7.85 4.746l3.959 2.58v.02l.01-.01.012.01v-.02l.031-.022V9.969l-4.012-2.24v4.148zm4.901-1.951v4.315l3.105-2.237V8.031l-3.105 1.895z" id="iconFg"/><path class="icon-vs-bg" d="M10.057 4.396L5.215 6.845v5.503l5.102 3.213 4.383-3.213V6.845l-4.643-2.449zM10 5.24l3.838 1.891-3.58 2.149-3.869-2.206L10 5.24zm0 9.196l-.031.021v.02l-.012-.01-.01.01v-.02l-3.959-2.58V7.729L10 9.969v4.467zm3.994-2.432l-3.105 2.237V9.926l3.105-1.895v3.973z" id="iconBg"/><path class="icon-vs-action-blue" d="M7.016 4.516L3.645 7.791l-.707-.707L5.022 5H0V4h5.147L2.938 1.791l.707-.707 3.371 3.432z" id="colorAction"/></svg>