<svg xmlns="http://www.w3.org/2000/svg" viewBox="0 0 16 16"><defs><style>.icon-canvas-transparent,.icon-vs-out{fill:#f6f6f6;}.icon-canvas-transparent{opacity:0;}.icon-vs-bg{fill:#424242;}.icon-vs-action-green{fill:#388a34;}</style></defs><title>AddComment_16x</title><g id="canvas"><path class="icon-canvas-transparent" d="M16,16H0V0H16Z"/></g><g id="outline"><path class="icon-vs-out" d="M16,3V13H9.575L6.243,16H5V13H3V8H2V6H0V2H2V0H6V2H8V3Z"/></g><g id="iconBg"><polygon class="icon-vs-bg" points="8 4 8 5 14 5 14 11 8.808 11 7 12.627 7 11 5 11 5 8 4 8 4 12 6 12 6 14.873 9.192 12 15 12 15 4 8 4"/></g><g id="colorAction"><path class="icon-vs-action-green" d="M7,3V5H5V7H3V5H1V3H3V1H5V3Z"/></g></svg>