<svg xmlns="http://www.w3.org/2000/svg" viewBox="0 0 16 16"><defs><style>.icon-canvas-transparent,.icon-vs-out{fill:#f6f6f6;}.icon-canvas-transparent{opacity:0;}.icon-vs-bg{fill:#424242;}.icon-vs-action-orange{fill:#c27d1a;}</style></defs><title>NewIoTEdgeModule_16x</title><g id="canvas"><path class="icon-canvas-transparent" d="M16,0V16H0V0Z"/></g><g id="outline"><path class="icon-vs-out" d="M16,7.133V13l-4.708,3H9.708L5,13V9H3V8.121l-.621.621L.258,6.621.879,6H0V3H.879L.258,2.379,2.379.257,3,.878V0H6V.878L6.621.257,8.742,2.379,8.121,3H9V4.588l1.5-.955Z"/></g><g id="colorAction"><path class="icon-vs-bg" d="M10,10.843V15L6,12.455V8.3Zm1,0V15l4-2.545V8.3Zm-.5-6.025L8.324,6.2l.418.418L7.376,7.987,10.5,9.975,14.552,7.4Z"/><path class="icon-vs-action-orange" d="M8,4H5.707L7.328,2.379l-.707-.708L5,3.292V1H4V3.292L2.379,1.671l-.708.708L3.292,4H1V5H3.292L1.671,6.621l.708.707L4,5.707V8H5V5.707L6.621,7.328l.707-.707L5.707,5H8ZM5,5H4V4H5Z"/></g></svg>