<svg xmlns="http://www.w3.org/2000/svg" viewBox="0 0 16 16"><style>.icon-canvas-transparent{opacity:0;fill:#f6f6f6}.icon-vs-out{fill:#f6f6f6}.icon-vs-fg{fill:#f0eff1}.icon-white{fill:#fff}.icon-folder{fill:#dcb67a}.icon-vs-red{fill:#e51400}</style><path class="icon-canvas-transparent" d="M16 16H0V0h16v16z" id="canvas"/><path class="icon-vs-out" d="M16 2.5V12c0 .482-.232 1.407-.587 1.682C14.644 15.059 13.189 16 11.5 16a4.494 4.494 0 0 1-3.74-2H2.504c-.827 0-1.5-.673-1.5-1.5v-8c0-.827.673-1.5 1.5-1.5H5.39l1-2h8.11c.827 0 1.5.673 1.5 1.5z" id="outline"/><path class="icon-folder" d="M7 11.5A4.5 4.5 0 0 1 11.5 7c1.423 0 2.676.673 3.5 1.703V2.5a.5.5 0 0 0-.5-.5H7.008l-1 2H2.504a.5.5 0 0 0-.5.5v8a.5.5 0 0 0 .5.5h4.771A4.473 4.473 0 0 1 7 11.5zM8.008 3H14.004v1H7.508l.5-1z" id="iconBg"/><path class="icon-vs-fg" d="M14 3v1H7.5L8 3h6z" id="iconFg"/><path class="icon-vs-red" d="M11.502 7.995c-1.934 0-3.5 1.566-3.5 3.5s1.566 3.5 3.5 3.5 3.5-1.566 3.5-3.5-1.567-3.5-3.5-3.5zm.443 5.97h-.865l-1.868-1.86.671-.67 1.131 1.131V9.048h.997v3.517l1.131-1.131.671.67-1.868 1.861z" id="notificationBg"/><path class="icon-white" d="M11.081 13.965l-1.868-1.86.671-.67 1.131 1.131V9.048h.997v3.517l1.131-1.131.671.67-1.868 1.86h-.865z" id="notificationFg"/></svg>