<svg xmlns="http://www.w3.org/2000/svg" viewBox="0 0 16 16"><defs><style>.icon-canvas-transparent,.icon-vs-out{fill:#f6f6f6;}.icon-canvas-transparent{opacity:0;}.icon-vs-bg{fill:#424242;}</style></defs><title>Dislike_16x</title><g id="canvas"><path class="icon-canvas-transparent" d="M16.024,0V16h-16V0Z"/></g><g id="outline"><path class="icon-vs-out" d="M16.024,2v8h-3.85l-.225-.005a2.931,2.931,0,0,0-.361.018,1.671,1.671,0,0,0-.254.214L7.083,14.471a2.617,2.617,0,0,1-.557.429,1.831,1.831,0,0,1-.908.225,2.04,2.04,0,0,1-.824-.17,2.108,2.108,0,0,1-.652-.44,2.145,2.145,0,0,1-.451-.665,2.057,2.057,0,0,1-.167-.819,5.435,5.435,0,0,1,.152-1.295A5.75,5.75,0,0,1,3.91,11H2.333a2.292,2.292,0,0,1-.907-.185,2.38,2.38,0,0,1-.735-.491A2.326,2.326,0,0,1,0,8.667a2.275,2.275,0,0,1,.125-.753L1.9,2.593a2.39,2.39,0,0,1,.337-.648,2.34,2.34,0,0,1,.512-.506,2.37,2.37,0,0,1,.63-.321A2.305,2.305,0,0,1,4.111,1H7.587a8.825,8.825,0,0,1,2.7.408c.053.015.226.087.43.175A5.1,5.1,0,0,0,11.962,2Z"/></g><g id="iconBg"><path class="icon-vs-bg" d="M11.962,3a7.694,7.694,0,0,1-2.056-.669A8.431,8.431,0,0,0,7.587,2H4.111a1.318,1.318,0,0,0-.413.065,1.393,1.393,0,0,0-.365.185,1.282,1.282,0,0,0-.291.288,1.406,1.406,0,0,0-.195.372L1.069,8.243A1.3,1.3,0,0,0,1,8.667a1.306,1.306,0,0,0,.393.944,1.379,1.379,0,0,0,.426.285,1.3,1.3,0,0,0,.514.1H5.372s-.066.18-.13.382a4.892,4.892,0,0,1-.232.6,4.977,4.977,0,0,0-.363.995,4.427,4.427,0,0,0-.123,1.056,1.057,1.057,0,0,0,.086.424,1.1,1.1,0,0,0,.236.349,1.128,1.128,0,0,0,.348.236,1.06,1.06,0,0,0,.424.085.84.84,0,0,0,.417-.1,1.621,1.621,0,0,0,.342-.266l4.252-4.245a1.734,1.734,0,0,1,.708-.479A4.436,4.436,0,0,1,12.174,9h2.85V3Zm2.062,5h-1.85A2.954,2.954,0,0,0,11,8.2a3.273,3.273,0,0,0-.526.313,2.872,2.872,0,0,0-.468.383S5.746,13.25,5.618,13.25a.279.279,0,0,1-.157-.062c-.123-.078-.029-.739.038-1.015a3.906,3.906,0,0,1,.29-.81,5.223,5.223,0,0,0,.253-.622,4.207,4.207,0,0,0,.146-.588,4.7,4.7,0,0,0,.069-.605C6.268,9.341,6.274,9,6.274,9H2.35a.434.434,0,0,1-.428-.429c0-.022,1.712-5.213,1.734-5.276a.434.434,0,0,1,.161-.215A.424.424,0,0,1,4.065,3H7.587a7.14,7.14,0,0,1,2.026.2c1.381.521,1.341.721,2.417.8h1.994Z"/></g></svg>