<svg xmlns="http://www.w3.org/2000/svg" viewBox="0 0 16 16"><defs><style>.icon-canvas-transparent,.icon-vs-out{fill:#f6f6f6}.icon-canvas-transparent{opacity:0}.icon-folder{fill:#dcb67a}.icon-vs-red{fill:#e51400}</style></defs><title>NegativeMessage_16x</title><path class="icon-canvas-transparent" d="M16 16H0V0h16z"/><path class="icon-vs-out" d="M16 2v12.475L14.475 16h-.949l-2-2-2 2h-.94L7 14.414V14H0V2z"/><path class="icon-folder" d="M14 11.53l1-1v1.99zm-3.269-3.274l.8.8L13.586 7h.828l.586.586v-3.6zM7.013 10L1 3.987V13h6.586l1.47-1.47L7.525 10zM2.135 3l5.256 5.256L8.646 7h.828l.2.2 4.2-4.2z"/><path class="icon-vs-red" d="M12.591 11.53l2.47 2.47L14 15.061l-2.47-2.47-2.47 2.47L8 14l2.47-2.47L8 9.061 9.061 8l2.47 2.47L14 8l1.061 1.061z"/></svg>