<svg xmlns="http://www.w3.org/2000/svg" viewBox="0 0 16 16"><defs><style>.icon-canvas-transparent,.icon-vs-out{fill:#f6f6f6;}.icon-canvas-transparent{opacity:0;}.icon-vs-bg{fill:#424242;}.icon-cs-green{fill:#388a34;}</style></defs><title>CSWebApplication_16x</title><g id="canvas"><path class="icon-canvas-transparent" d="M16,0V16H0V0Z"/></g><g id="outline"><path class="icon-vs-out" d="M16,1V15H8.656l-.02.013A5.9,5.9,0,0,1,8,15.4l-.112.053a5.508,5.508,0,0,1-.66.271l-.052.018a5.231,5.231,0,0,1-.729.175c-.056.01-.113.019-.17.027A5.6,5.6,0,0,1,5.5,16a5.624,5.624,0,0,1-.773-.06c-.057-.008-.112-.017-.168-.027a5.225,5.225,0,0,1-.731-.175l-.047-.017a5.242,5.242,0,0,1-.667-.273L3.007,15.4a5.436,5.436,0,0,1-.645-.385L2.344,15H0V1Z"/></g><g id="iconBg"><path class="icon-vs-bg" d="M15,2V14H9.739a5.623,5.623,0,0,0,.649-.989L10.394,13H14V5H2V6.261A5.551,5.551,0,0,0,1,7.348V2Z"/></g><g id="colorAction"><path class="icon-cs-green" d="M10.019,10.391a4.5,4.5,0,0,0-8.992.152c0,.132.008.26.019.389s.027.228.046.34l0,.013a4.491,4.491,0,0,0,3.7,3.692H4.8c.113.02.225.036.339.045s.256.02.386.02c.148,0,.295-.009.439-.022a4.5,4.5,0,0,0,4.061-4.478C10.027,10.49,10.019,10.441,10.019,10.391ZM8.58,8.459a7.141,7.141,0,0,1-1.255.319,7.571,7.571,0,0,0-.589-1.725A3.707,3.707,0,0,1,8.58,8.459ZM5.056,6.88a3.652,3.652,0,0,1,.471-.033c.106,0,.21.007.312.015a6.951,6.951,0,0,1,.786,2c-.367.026-.728.03-1.094.026a10.851,10.851,0,0,1-1.119-.071A7.8,7.8,0,0,1,5.056,6.88ZM4.314,9.487a10.752,10.752,0,0,0,1.209.056h.259c.314,0,.632.012.956-.012a6.561,6.561,0,0,1,.046.683,5.605,5.605,0,0,1-.135,1.208c-.376.025-.744.037-1.118.035-.41-.006-.825-.035-1.2-.079a7.654,7.654,0,0,1-.056-1.153C4.272,9.978,4.29,9.718,4.314,9.487ZM4.188,7.1a8.4,8.4,0,0,0-.471,1.612,12.369,12.369,0,0,1-1.223-.28A3.7,3.7,0,0,1,4.188,7.1ZM1.831,10.543a3.683,3.683,0,0,1,.31-1.48,12.5,12.5,0,0,0,1.478.345c-.027.262-.047.529-.05.811a8.385,8.385,0,0,0,.063,1.05A12.63,12.63,0,0,1,1.844,10.8C1.837,10.717,1.831,10.631,1.831,10.543Zm.151,1.044A12.988,12.988,0,0,0,3.747,12a11.073,11.073,0,0,0,.631,2.053A3.706,3.706,0,0,1,1.982,11.587Zm3.607,2.648c-.021,0-.041,0-.062,0-.11,0-.217-.008-.324-.017A11.031,11.031,0,0,1,4.478,12.1c.336.033.686.056,1.045.058.086,0,.174,0,.259,0,.223,0,.45-.006.677-.017A13.589,13.589,0,0,1,5.589,14.235Zm.828-.108a12.867,12.867,0,0,0,.8-2.054A8.2,8.2,0,0,0,9.068,11.6,3.7,3.7,0,0,1,6.417,14.127Zm2.794-3.344a7.538,7.538,0,0,1-1.831.555,5.959,5.959,0,0,0,.105-1.119c0-.259-.025-.5-.05-.743a8.232,8.232,0,0,0,1.489-.388,3.682,3.682,0,0,1,.3,1.455C9.223,10.623,9.215,10.7,9.211,10.783Z"/></g></svg>