<svg xmlns="http://www.w3.org/2000/svg" viewBox="0 0 16 16"><style>.icon-canvas-transparent{opacity:0;fill:#f6f6f6}.icon-vs-out{fill:#f6f6f6}.icon-vs-bg{fill:#424242}.icon-vs-fg{fill:#f0eff1}.icon-vs-yellowa{fill:#fc0}</style><path class="icon-canvas-transparent" d="M0 0h16v16H0z" id="canvas"/><path class="icon-vs-out" d="M13 8.002V4.379L8.621 0H0v16h15.002l.971-2.005z" id="outline"/><g id="iconBg"><path class="icon-vs-bg" d="M6.97 14.025L6.982 14H2V2h5v4h4v1.016h.345c.052-.005.102-.016.155-.016s.103.011.155.016H12V4.793L8.207 1H1v14h6.48l-.51-.975zM8 2.207L10.793 5H8V2.207z"/><path class="icon-vs-bg" d="M4.594 9l-.431.834a1.353 1.353 0 0 0-.07.148L4.086 10h-.107l-.004-.008C3.952 9.942 3.478 9 3.478 9H2.405l.952 1.506L2.344 12h1.063s.479-.895.499-.942c.016-.039.08-.013.115-.021l.007.018c.022.047.508.945.508.945h1.066l-.984-1.547L5.608 9H4.594zm3.896 2H6v1h1.988z"/></g><path class="icon-vs-fg" d="M11 5H8V2l3 3zm0 1l-4 8H2V2h5v4h4zm-6.382 4.453L5.608 9H4.594l-.431.834a1.353 1.353 0 0 0-.07.148L4.086 10h-.107l-.004-.008C3.952 9.942 3.478 9 3.478 9H2.405l.952 1.506L2.344 12h1.063s.479-.895.499-.942c.016-.039.08-.013.115-.021l.007.018c.022.047.508.945.508.945h1.066l-.984-1.547zM8.49 11H6v1h1.988l.502-1z" id="iconFg"/><path class="icon-vs-yellowa" d="M11.891 8.016h-.781l-3.016 6 .515.984h5.766l.484-1-2.968-5.984zM12 14h-1v-1h1v1zm0-2h-1v-2h1v2z" id="notificationBg"/><path class="icon-black" d="M12 12h-1v-2h1v2zm0 1h-1v1h1v-1z" id="notificationFg"/></svg>