<svg xmlns="http://www.w3.org/2000/svg" viewBox="0 0 16 16"><defs><style>.icon-canvas-transparent,.icon-vs-out{fill:#f6f6f6;}.icon-canvas-transparent{opacity:0;}.icon-vs-bg{fill:#424242;}.icon-vs-action-purple{fill:#652d90;}</style></defs><title>LocalMethod_16x</title><g id="canvas"><path class="icon-canvas-transparent" d="M16,0V16H0V0Z"/></g><g id="outline"><path class="icon-vs-out" d="M12,3V4.614L8,2.3,4,4.614V3H0V13H4V11.541l4,2.31,4-2.31V13h4V3Z"/></g><g id="iconBg"><path class="icon-vs-bg" d="M2,5v6H3v1H1V4H3V5Zm11,6v1h2V4H13V5h1v6Z"/><path class="icon-vs-action-purple" d="M8,3.459,4,5.768v4.619L8,12.7l4-2.309V5.768Zm-.5,7.794L5,9.809V6.856L7.5,8.3ZM5.558,6.023,8,4.613l2.442,1.41L8,7.433ZM11,9.809,8.5,11.253V8.3L11,6.856Z"/></g></svg>