<svg xmlns="http://www.w3.org/2000/svg" viewBox="0 0 16 16"><defs><style>.icon-canvas-transparent,.icon-vs-out{fill:#f6f6f6;}.icon-canvas-transparent{opacity:0;}.icon-vs-bg{fill:#424242;}</style></defs><title>FormInstance_16x</title><g id="canvas"><path class="icon-canvas-transparent" d="M16,0V16H0V0Z"/></g><g id="outline"><path class="icon-vs-out" d="M16,0V12H12v4H0V4H4V0Z"/></g><g id="iconBg"><path class="icon-vs-bg" d="M5,10H9v1H5Zm2,3H9V12H7ZM4,8H3V9H4ZM5,9H9V8H5ZM4,10H3v1H4Zm0,3H6V12H4Zm9-9H12V5h1ZM12,9h1V8H12ZM5,1V4H6V3h8v7H12v1h3V1Zm7,6h1V6H12ZM1,5H11V15H1Zm1,9h8V7H2Z"/></g></svg>