<svg xmlns="http://www.w3.org/2000/svg" viewBox="0 0 16 16"><style>.icon-vs-out{fill:#f6f6f6}.icon-vs-bg{fill:#424242}.icon-vs-fg{fill:#f0eff1}.icon-canvas-transparent{opacity:0;fill:#f6f6f6}</style><path class="icon-canvas-transparent" d="M16 0v16H0V0h16z" id="canvas"/><path class="icon-vs-out" d="M16 0v14h-3v2H0V3h2V0h14z" id="outline"/><path class="icon-vs-fg" d="M2 10h4v4H2v-4zm0-1h4V5H2v4zm10-7H4v2h8v8h2V2h-2zM7 14h4v-4H7v4zm0-5h4V5H7v4z" id="iconFg"/><g id="iconBg"><path class="icon-vs-bg" d="M3 1v3H1v11h11v-2h3V1H3zm3 13H2v-4h4v4zm0-5H2V5h4v4zm5 5H7v-4h4v4zm0-5H7V5h4v4zm3 3h-2V4H4V2h10v10z"/></g></svg>