<svg xmlns="http://www.w3.org/2000/svg" viewBox="0 0 16 16"><style>.icon-canvas-transparent{opacity:0;fill:#f6f6f6}.icon-vs-out{fill:#f6f6f6}.icon-vs-bg{fill:#424242}.icon-vs-fg{fill:#f0eff1}.icon-asp-html-wpf-blue{fill:#0095d7}</style><path class="icon-canvas-transparent" d="M16 16H0V0h16v16z" id="canvas"/><path class="icon-vs-out" d="M15 4.174L10.93 0H2v10.56L.048 12.622l-.071 1.097L2 15.248V16h.995l.026.019h6.015l.02-.019H15z" id="outline"/><path class="icon-vs-bg" d="M10.516 1H3v8.968h1V2h5v4h4v8h-1.897l-1.024 1H14V4.588L10.516 1zM10 5V2.207L12.793 5H10zm-2 5V9H6V5h2v1H7v2h1V7l2 1.5L8 10zm3 3l-2 2v-1l1-1-1-1v-1l2 2zm-8-2v1l-1 1 1 1v1l-2-2 2-2z" id="iconBg"/><path class="icon-vs-fg" d="M12.982 5H10V2.051L12.982 5zM9 6V2H4v7.968h4V9H6V5h2v1H7v2h1V7l2 1.5-1.958 1.468h.888l3.149 3.079-.976.953H13V6H9z" id="iconFg"/><path class="icon-asp-html-wpf-blue" d="M4 11h4v4H4z" id="colorImportance"/></svg>