<svg xmlns="http://www.w3.org/2000/svg" viewBox="0 0 16 16"><style>.icon-canvas-transparent{opacity:0;fill:#f6f6f6}.icon-vs-out{fill:#f6f6f6}.icon-vs-bg{fill:#424242}</style><path class="icon-canvas-transparent" d="M16 16H0V0h16v16z" id="canvas"/><path class="icon-vs-out" d="M15 2v12H3V8h.44l-.916-.916L3.608 6H0V3h3.733L2.524 1.791 4.315 0h.66l4.438 4.438L8.85 5H10V2h5z" id="outline"/><path class="icon-vs-bg" d="M4 9h10v1H4V9zm0 4h10v-1H4v1zm7-10v1h3V3h-3zM7 7h7V6H8L7 7zm-2.355.791l3.354-3.354-3.354-3.353-.707.707L6.147 4H1v1h5.022L3.938 7.084l.707.707z" id="iconBg"/></svg>