<svg xmlns="http://www.w3.org/2000/svg" viewBox="0 0 16 16"><style>.icon-canvas-transparent{opacity:0;fill:#f6f6f6}.icon-vs-out{fill:#f6f6f6}.icon-vs-fg{fill:#f0eff1}.st0{fill:#424242}</style><path class="icon-canvas-transparent" d="M16 16H0V0h16v16z" id="canvas"/><path class="icon-vs-out" d="M10.621 0H2v9.835l-.237.812H2v1.622l-.219.83a1.653 1.653 0 0 0-.24-.017c-.515 0-.858.208-1.055.382A1.398 1.398 0 0 0 0 14.523c0 .439.201.838.558 1.118.3.238.698.359 1.185.359.088 0 .172-.011.257-.017V16h13V4.379L10.621 0z" id="outline"/><path class="st0" d="M10.207 1H3v7.132l.208.003c.249-.443.513-.801.792-1.096V2h5v4h4v8h-2.23c-.061.05-.123.101-.185.143a1.955 1.955 0 0 1-1.121.364c-.387 0-.73-.096-1.022-.284A1.876 1.876 0 0 1 8.174 14h-.719a2.365 2.365 0 0 1-.472.319 2.012 2.012 0 0 1-.851.188c-.526 0-.868-.222-1.063-.407-.03-.029-.043-.068-.07-.1h-.377c-.033.071-.066.155-.1.218-.165.3-.35.558-.55.782H14V4.793L10.207 1zM10 5V2.207L12.793 5H10zM5.682 9.135l-.159.511H4.89l-.527 2.02c-.246.955-.487 1.646-.72 2.075-.235.427-.508.745-.822.95A1.914 1.914 0 0 1 1.743 15c-.256 0-.443-.047-.563-.142-.12-.094-.18-.206-.18-.335 0-.119.049-.223.147-.31a.567.567 0 0 1 .394-.132c.134 0 .237.033.309.102a.33.33 0 0 1 .109.254c0 .092-.023.162-.068.207-.046.045-.068.074-.068.089l.022.03c.02.016.04.023.064.023a.335.335 0 0 0 .229-.084c.159-.138.279-.305.355-.499.055-.134.159-.487.312-1.061l.919-3.496h-.627l.149-.512c.225.003.388-.025.49-.084.102-.058.21-.189.324-.393.33-.593.678-1.018 1.045-1.273A2.087 2.087 0 0 1 6.329 7c.287 0 .497.054.628.162a.513.513 0 0 1 .196.42c0 .15-.044.271-.132.359a.429.429 0 0 1-.323.135.423.423 0 0 1-.297-.109.345.345 0 0 1-.117-.263c0-.073.025-.15.073-.231.051-.082.076-.138.076-.166a.103.103 0 0 0-.035-.08.124.124 0 0 0-.087-.029c-.178 0-.359.105-.545.318-.306.34-.552.88-.738 1.619h.654zm5.186.024a.474.474 0 0 1 .132.355.453.453 0 0 1-.464.477 1.33 1.33 0 0 1-.331-.051 1.197 1.197 0 0 0-.258-.049.584.584 0 0 0-.361.131c-.155.119-.348.374-.575.766.255.875.601 1.711.754 1.901.091.115.183.173.274.173a.36.36 0 0 0 .204-.058c.086-.062.22-.216.401-.459l.161.091c-.265.414-.524.707-.775.875a.984.984 0 0 1-.566.196.865.865 0 0 1-.479-.124 1.075 1.075 0 0 1-.34-.406 10.726 10.726 0 0 1-.494-1.206 21.284 21.284 0 0 1-1.099 1.253c-.2.2-.365.33-.497.393a.996.996 0 0 1-.423.091.518.518 0 0 1-.371-.13.453.453 0 0 1-.138-.342c0-.15.048-.272.147-.367a.522.522 0 0 1 .379-.146.69.69 0 0 1 .274.069c.149.072.259.106.324.106a.484.484 0 0 0 .234-.054c.089-.043.204-.137.342-.283.084-.09.512-.585.737-.88-.288-1.038-.514-1.658-.676-1.862a.472.472 0 0 0-.388-.197c-.08 0-.49.33-.607.353v-.747h1.912c.289.435.489.913.606 1.435.294-.424.517-.719.666-.889.201-.226.367-.375.497-.443a.896.896 0 0 1 .416-.103c.166 0 .294.043.382.131z" id="iconBg"/><g id="iconFg"><path class="icon-vs-fg" d="M10 2.207V5h2.793zM4.622 14H5a1.496 1.496 0 0 1-.228-.324c-.051.12-.101.218-.15.324zm2.335-2.742a12.829 12.829 0 0 0-.178-.56 1.133 1.133 0 0 1-.2.059l-.995.191-.211.808a1.51 1.51 0 0 1 .777-.233c.167 0 .333.028.506.087.07-.081.184-.213.301-.352z"/><path class="icon-vs-fg" d="M9 6V2H4v5.039c.172-.181.348-.345.534-.474A3.061 3.061 0 0 1 6.329 6c.526 0 .952.132 1.266.392.358.292.559.716.559 1.19 0 .16-.041.304-.082.446h.77l.342.519a1.881 1.881 0 0 1 1.302-.519c.55 0 .896.23 1.089.424.19.185.425.527.425 1.062 0 .406-.146.769-.421 1.047-.278.278-.647.43-1.043.43-.136 0-.277-.016-.43-.047.036.108.071.212.106.309l.156-.21 1.849 1.041-.569.891c-.286.448-.576.782-.878 1.026H13V6H9zm-1.136 7.622c-.04.043-.076.08-.106.11-.108.107-.205.187-.303.268h.719a2.114 2.114 0 0 1-.31-.378z"/><path class="icon-vs-fg" d="M10 2.207V5h2.793zM4.622 14H5a1.496 1.496 0 0 1-.228-.324c-.051.12-.101.218-.15.324zm2.335-2.742a12.829 12.829 0 0 0-.178-.56 1.133 1.133 0 0 1-.2.059l-.995.191-.211.808a1.51 1.51 0 0 1 .777-.233c.167 0 .333.028.506.087.07-.081.184-.213.301-.352z"/><path class="icon-vs-fg" d="M9 6V2H4v5.039c.172-.181.348-.345.534-.474A3.061 3.061 0 0 1 6.329 6c.526 0 .952.132 1.266.392.358.292.559.716.559 1.19 0 .16-.041.304-.082.446h.77l.342.519a1.881 1.881 0 0 1 1.302-.519c.55 0 .896.23 1.089.424.19.185.425.527.425 1.062 0 .406-.146.769-.421 1.047-.278.278-.647.43-1.043.43-.136 0-.277-.016-.43-.047.036.108.071.212.106.309l.156-.21 1.849 1.041-.569.891c-.286.448-.576.782-.878 1.026H13V6H9zm-1.136 7.622c-.04.043-.076.08-.106.11-.108.107-.205.187-.303.268h.719a2.114 2.114 0 0 1-.31-.378z"/></g></svg>