<svg xmlns="http://www.w3.org/2000/svg" viewBox="0 0 16 16"><defs><style>.icon-canvas-transparent,.icon-vs-out{fill:#f6f6f6;}.icon-canvas-transparent{opacity:0;}.icon-white{fill:#fff;}.syntax-snappoint-purple{fill:purple;}.icon-vs-action-blue{fill:#00539c;}</style></defs><title>ProductionSnapshotPointAdvancedAlert_16x</title><g id="canvas"><path class="icon-canvas-transparent" d="M16,0V16H0V0Z"/></g><g id="outline"><path class="icon-vs-out" d="M16,8.144l-.894,1.548.894.894v1.828L12.414,16H10.586l-1-1H3.959L0,8.144V7.856L3.959,1h8.082L16,7.856Z"/></g><g id="iconFg"><polygon class="icon-white" points="10.887 3 5.113 3 2.227 8 5.113 13 7.586 13 7 12.414 7 11 7 10.586 7 9 5 9 5 7 7 7 7 5 9 5 9 7 10.586 7 11 7 12.414 7 13.642 8.228 13.773 8 10.887 3"/></g><g id="iconBg"><path class="syntax-snappoint-purple" d="M14.928,8l-.554.96-.732-.732L13.773,8,10.887,3H5.113L2.227,8l2.886,5H7.586l1,1H4.535L1.072,8,4.535,2h6.93ZM10.586,7H9V5H7V7H5V9H7v1.586Z"/></g><g id="notificationBg"><path class="icon-vs-action-blue" d="M12,8H11L8,11v1l3,3h1l3-3V11Zm0,6H11V13h1Zm0-2H11V9h1Z"/></g><g id="notificationFg"><path class="icon-white" d="M12,12H11V9h1Zm0,1H11v1h1Z"/></g></svg>