<svg xmlns="http://www.w3.org/2000/svg" viewBox="0 0 16 16"><defs><style>.icon-canvas-transparent,.icon-vs-out{fill:#f6f6f6;}.icon-canvas-transparent{opacity:0;}.icon-vs-bg{fill:#424242;}.icon-vs-fg{fill:#f0eff1;}.icon-vs-blue{fill:#1ba1e2;}</style></defs><title>DatabaseApplication_16x</title><g id="canvas"><path class="icon-canvas-transparent" d="M16,16H0V0H16Z"/></g><g id="outline"><path class="icon-vs-out" d="M16,14H9.714C9.055,15.185,7.257,16,5,16S.945,15.185.286,14H0V0H16Z"/></g><g id="iconBg"><path class="icon-vs-bg" d="M15,1V13H10V12h4V4H2v.579a4.455,4.455,0,0,0-1,.6V1Z"/></g><g id="iconFg"><path class="icon-vs-fg" d="M2,4H5a7.519,7.519,0,0,0-3,.579ZM5,4c2.851,0,5,1.29,5,3v5h4V4ZM5,5.675c-2,0-3.325.8-3.325,1.325S3,8.325,5,8.325,8.325,7.527,8.325,7,7,5.675,5,5.675Z"/></g><g id="colorImportance"><path class="icon-vs-blue" d="M5,5C2.791,5,1,5.9,1,7v6c0,1.1,1.791,2,4,2s4-.9,4-2V7C9,5.9,7.209,5,5,5ZM5,8.325c-2,0-3.325-.8-3.325-1.325S3,5.675,5,5.675,8.325,6.473,8.325,7,7,8.325,5,8.325Z"/></g></svg>