<svg xmlns="http://www.w3.org/2000/svg" viewBox="0 0 16 16"><style>.icon-canvas-transparent{opacity:0;fill:#f6f6f6}.icon-vs-out{fill:#f6f6f6}.icon-vs-bg{fill:#424242}.icon-vs-fg{fill:#f0eff1}.icon-vs-green{fill:#393}.icon-vs-red{fill:#e51400}.icon-vs-action-blue{fill:#00539c}.st0{fill:#f6f6f6}.st1{fill:none}</style><path class="icon-canvas-transparent" d="M16 16H0V0h16v16z" id="canvas"/><path class="icon-vs-out" d="M15 16H2V0h8.621L15 4.379V16z" id="outline"/><path class="icon-vs-bg" d="M3 1v14h11V4.793L10.207 1H3zm10 13H4V2h5v4h4v8zm-3-9V2.207L12.793 5H10z" id="iconBg"/><g id="iconFg"><path class="icon-vs-fg" d="M9 6V2H4v12h9V6H9z"/><path class="icon-vs-fg" d="M10 2.207V5h2.793z"/><path class="icon-vs-fg" d="M9 6V2H4v12h9V6H9z"/><path class="icon-vs-fg" d="M10 2.207V5h2.793z"/><circle class="st0" cx="5.484" cy="10.482" r="5.5"/><path class="st1" d="M8.812 10.676v-.003H4.916L2.943 7.255l-.003.002 1.973 3.417-1.966 3.406 1.966-3.404z"/></g><g id="colorImportance"><path class="icon-vs-green" d="M.9 10.484c0 1.523.794 2.948 2.087 3.776l2.175-3.767-2.182-3.78A4.5 4.5 0 0 0 .9 10.484z"/><path class="icon-vs-action-blue" d="M5.404 14.988a4.51 4.51 0 0 0 4.494-4.243H5.593l-2.172 3.761a4.38 4.38 0 0 0 1.983.482z"/><path class="icon-vs-red" d="M5.404 5.98c-.682 0-1.35.163-1.987.484l2.181 3.777H9.9A4.507 4.507 0 0 0 5.404 5.98z"/></g></svg>