<svg xmlns="http://www.w3.org/2000/svg" viewBox="0 0 16 16"><defs><style>.icon-canvas-transparent,.icon-vs-out{fill:#f6f6f6;}.icon-canvas-transparent{opacity:0;}.icon-vs-bg{fill:#424242;}.icon-vs-action-blue{fill:#00539c;}</style></defs><title>StoreVirtualMachine_16x</title><g id="canvas"><path class="icon-canvas-transparent" d="M16,16H0V0H16Z"/></g><g id="outline"><path class="icon-vs-out" d="M16,14.35V16H1V14.352L2.271,8H2.086L0,5.914V0H10.5A2.5,2.5,0,0,1,13,2.5V8h1.729Z"/></g><g id="iconBg"><path class="icon-vs-bg" d="M10,11H7V10h3Zm0-3H7V9h3Zm5.11,7H1.89l1.2-6H5V8H6v4h5V2.5a.5.5,0,0,0-.5-.5H8V1h2.5A1.5,1.5,0,0,1,12,2.5V9h1.91Zm-1.22-1-.8-4H12v3H5V10H3.91l-.8,4ZM10,3H8V4h2Z"/><path class="icon-vs-action-blue" d="M1,1V5.5L2.5,7H3V5H6V7H7V1ZM6,4H2V2H6ZM4,6H5V7H4Z"/></g></svg>