<svg xmlns="http://www.w3.org/2000/svg" viewBox="0 0 16 16"><style>.icon-canvas-transparent{opacity:0;fill:#f6f6f6}.icon-vs-out{fill:#f6f6f6}.icon-vs-bg{fill:#424242}.icon-vs-fg{fill:#f0eff1}</style><path class="icon-canvas-transparent" d="M16 16H0V0h16v16z" id="canvas"/><path class="icon-vs-out" d="M16 0v12H9.562l.178.178L5.931 16h-1.89L.22 12.179 2 10.398v-.909H0v-3h2V0h14z" id="outline"/><path class="icon-vs-bg" d="M15 1v10H8.562l-.942-.941-.944.941h-.204v-1H14V3H4v3.569a4.163 4.163 0 0 0-.793-.079H3V1h12zM9 5H6v2.927c.014.023.023.049.036.073H9V5zm1 4h2V7h-2v2zm2-5h-2v2h2V4zm-7.529 9.594l.001-3.839c0-.437-.104-.761-.307-.964-.3-.301-.76-.304-.943-.301H1v-1H3.213c.711 0 1.266.2 1.66.594.397.397.6.96.6 1.672l-.001 3.857 2.148-2.14.707.707-3.34 3.352-3.352-3.352.707-.707 2.129 2.121z" id="iconBg"/><path class="icon-vs-fg" d="M4 3v3.569c.627.121 1.159.387 1.58.807.164.164.3.351.42.551V5h3v3H6.037c.28.498.436 1.088.436 1.756V10H14V3H4zm8 6h-2V7h2v2zm0-3h-2V4h2v2z" id="iconFg"/></svg>