<svg xmlns="http://www.w3.org/2000/svg" viewBox="0 0 16 16"><defs><style>.icon-canvas-transparent,.icon-vs-out{fill:#f6f6f6;}.icon-canvas-transparent{opacity:0;}.icon-vs-bg{fill:#424242;}</style></defs><title>SyncArrow_16x</title><g id="canvas"><path id="_Compound_Path_" data-name="&lt;Compound Path&gt;" class="icon-canvas-transparent" d="M16,16H0V0H16Z"/></g><g id="outline"><path class="icon-vs-out" d="M8.527,13.087,9.611,12H3V9H4.139L.573,5.5,5.36.8,7.475,2.918,6.391,4H13V7H11.863l3.567,3.5-4.788,4.7ZM9.612,9,8.527,7.918,9.443,7H6.391L7.475,8.087,6.559,9Z"/></g><g id="iconBg"><path class="icon-vs-bg" d="M5.354,2.211l.707.707L3.977,5H12V6H3.977L6.061,8.087l-.707.707L2,5.5Zm5.294,11.583-.707-.707L12.025,11H4V10h8.025L9.941,7.918l.707-.707L14,10.5Z"/></g></svg>