<svg xmlns="http://www.w3.org/2000/svg" viewBox="0 0 16 16"><style>.icon-canvas-transparent{opacity:0;fill:#f6f6f6}.st0{fill:#262626}.st1{fill:#c5c5c5}</style><path class="icon-canvas-transparent" d="M16 16H0V0h16v16z" id="outline"/><path class="st0" d="M11.899 7H13V4H6.328l1.145-1.149L5.354.732.584 5.483 4.101 9H3v3h6.672l-1.145 1.148 2.119 2.119 4.77-4.752L11.899 7zM6.604 9l.868-.868L6.345 7h3.051l-.869.869L9.655 9H6.604z" id="icon_x5F_bg"/><path class="st1" d="M5.352 8.837L2 5.485l3.352-3.34.707.707L3.919 5H12v1H3.937l2.122 2.13-.707.707zm5.296-1.674l-.707.707L12.063 10H4v1h8.081l-2.14 2.148.707.707L14 10.515l-3.352-3.352z" id="iconFg"/></svg>