<svg xmlns="http://www.w3.org/2000/svg" viewBox="0 0 16 16"><style>.icon-canvas-transparent{opacity:0;fill:#f6f6f6}.icon-vs-out{fill:#f6f6f6}.icon-vs-bg{fill:#424242}.icon-vs-fg{fill:#f0eff1}</style><path class="icon-canvas-transparent" d="M16 16H0V0h16v16z" id="canvas"/><path class="icon-vs-out" d="M2 11h3.099L3.75 12.354l2.118 2.119 1.149-1.145V16h3.001v-2.654l1.13 1.127 2.121-2.12L11.916 11H14V0H2z" id="outline"/><path class="icon-vs-fg" d="M12 9h-2V6h2v3zm0-5h-2v1h2V4zM6 6H4v3h2V6zm3-2H7v1h2V4zM6 4H4v1h2V4zm2.501 3.584l.499.5V6H7v3h.091l1.41-1.416z" id="iconFg"/><path class="icon-vs-bg" d="M8.502 9l3.352 3.352-.707.707-2.13-2.122v4.086h-1v-4.104l-2.148 2.14-.707-.707L8.502 9zm-2.916 1h.508l.996-1H7V6h2v2.084L10.916 10H13V1H3v9H5.586zM10 4h2v1h-2V4zm0 4V6h2v3h-2V8zM7 4h2v1H7V4zM4 4h2v1H4V4zm0 2h2v3H4V6z" id="iconBg"/></svg>