<svg xmlns="http://www.w3.org/2000/svg" viewBox="0 0 16 16"><defs><style>.icon-canvas-transparent,.icon-vs-out{fill:#f6f6f6;}.icon-canvas-transparent{opacity:0;}.graph-yellow{fill:#fcb714;}.icon-vs-bg{fill:#424242;}</style></defs><title>DislikeFilled_16x</title><g id="canvas"><path class="icon-canvas-transparent" d="M16,0V16H0V0Z"/></g><g id="outline"><path class="icon-vs-out" d="M16,2v8H12.149l-.224-.005a2.947,2.947,0,0,0-.362.018,1.729,1.729,0,0,0-.253.214L7.059,14.471A2.642,2.642,0,0,1,6.5,14.9a1.833,1.833,0,0,1-.908.225,2.036,2.036,0,0,1-.824-.17,2.112,2.112,0,0,1-.653-.44,2.142,2.142,0,0,1-.45-.665,2.057,2.057,0,0,1-.167-.819,5.487,5.487,0,0,1,.151-1.295A5.92,5.92,0,0,1,3.886,11H2.309a2.293,2.293,0,0,1-.908-.185,2.387,2.387,0,0,1-.734-.491A2.3,2.3,0,0,1-.024,8.667,2.279,2.279,0,0,1,.1,7.914L1.875,2.593a2.362,2.362,0,0,1,.337-.648,2.277,2.277,0,0,1,.512-.506,2.37,2.37,0,0,1,.63-.321A2.305,2.305,0,0,1,4.087,1H7.563a8.829,8.829,0,0,1,2.7.408c.052.015.225.087.429.175A5.119,5.119,0,0,0,11.938,2Z"/></g><g id="iconFg"><path class="graph-yellow" d="M14,4V8H12.149a2.958,2.958,0,0,0-1.173.2,3.308,3.308,0,0,0-.525.313,2.922,2.922,0,0,0-.469.383S5.722,13.25,5.594,13.25a.273.273,0,0,1-.157-.062c-.123-.078-.029-.739.038-1.015a3.906,3.906,0,0,1,.29-.81,5.223,5.223,0,0,0,.253-.622,4.207,4.207,0,0,0,.146-.588,4.7,4.7,0,0,0,.068-.605C6.244,9.341,6.25,9,6.25,9H2.326a.414.414,0,0,1-.3-.127.408.408,0,0,1-.128-.3C1.9,8.549,3.61,3.358,3.632,3.3a.432.432,0,0,1,.16-.215A.426.426,0,0,1,4.04,3H7.563a7.131,7.131,0,0,1,2.025.2c1.382.521,1.341.721,2.418.8Z"/></g><g id="iconBg"><path class="icon-vs-bg" d="M11.938,3a7.694,7.694,0,0,1-2.056-.669A8.435,8.435,0,0,0,7.563,2H4.087a1.318,1.318,0,0,0-.413.065,1.393,1.393,0,0,0-.365.185,1.307,1.307,0,0,0-.292.288,1.433,1.433,0,0,0-.194.372L1.045,8.243a1.318,1.318,0,0,0,.324,1.368A1.367,1.367,0,0,0,1.8,9.9a1.3,1.3,0,0,0,.514.1H5.348s-.067.18-.13.382a4.9,4.9,0,0,1-.233.6,5.035,5.035,0,0,0-.362.995A4.427,4.427,0,0,0,4.5,13.031a1.04,1.04,0,0,0,.086.424,1.112,1.112,0,0,0,.235.349,1.144,1.144,0,0,0,.349.236,1.056,1.056,0,0,0,.424.085.843.843,0,0,0,.417-.1,1.646,1.646,0,0,0,.342-.266L10.6,9.518a1.736,1.736,0,0,1,.709-.479A4.426,4.426,0,0,1,12.149,9H15V3ZM14,8H12.149a2.958,2.958,0,0,0-1.173.2,3.308,3.308,0,0,0-.525.313,2.922,2.922,0,0,0-.469.383S5.722,13.25,5.594,13.25a.273.273,0,0,1-.157-.062c-.123-.078-.029-.739.038-1.015a3.906,3.906,0,0,1,.29-.81,5.223,5.223,0,0,0,.253-.622,4.207,4.207,0,0,0,.146-.588,4.7,4.7,0,0,0,.068-.605C6.244,9.341,6.25,9,6.25,9H2.326a.414.414,0,0,1-.3-.127.408.408,0,0,1-.128-.3C1.9,8.549,3.61,3.358,3.632,3.3a.432.432,0,0,1,.16-.215A.426.426,0,0,1,4.04,3H7.563a7.131,7.131,0,0,1,2.025.2c1.382.521,1.341.721,2.418.8H14Z"/></g></svg>