<svg xmlns="http://www.w3.org/2000/svg" viewBox="0 0 16 16"><defs><style>.icon-canvas-transparent,.icon-vs-out{fill:#f6f6f6;}.icon-canvas-transparent{opacity:0;}.icon-vs-bg{fill:#424242;}</style></defs><title>Commit_16x</title><g id="canvas"><path class="icon-canvas-transparent" d="M16,0V16H0V0Z"/></g><g id="outline"><path class="icon-vs-out" d="M9,4.273V1H6V4.273a4.478,4.478,0,0,0,0,8.454V16H9V12.727A4.478,4.478,0,0,0,9,4.273Z"/></g><g id="iconBg"><path class="icon-vs-bg" d="M8,5.051V2H7V5.051a3.483,3.483,0,0,0,0,6.9V15H8V11.949a3.483,3.483,0,0,0,0-6.9ZM7.5,11A2.5,2.5,0,1,1,10,8.5,2.5,2.5,0,0,1,7.5,11Z"/></g></svg>