<svg xmlns="http://www.w3.org/2000/svg" viewBox="0 0 16 16"><defs><style>.icon-canvas-transparent,.icon-vs-out{fill:#f6f6f6;}.icon-canvas-transparent{opacity:0;}.icon-vs-bg{fill:#424242;}.icon-vs-action-red{fill:#a1260d;}</style></defs><title>DeleteProperty_16x</title><g id="canvas"><path class="icon-canvas-transparent" d="M16,16H0V0H16Z"/></g><g id="outline"><path class="icon-vs-out" d="M16,8.463A4.56,4.56,0,0,1,11.5,13a5.6,5.6,0,0,1-1.222-.123L7.839,15.32A2.4,2.4,0,0,1,6.225,16c-.016,0-.037,0-.054-.005a.172.172,0,0,1-.024,0,2.079,2.079,0,0,1-1.49-.658,2.054,2.054,0,0,1-.652-1.463C4,13.847,4,13.807,4,13.774s.01-.045.011-.07a1.93,1.93,0,0,1,.034-.23,2.551,2.551,0,0,1,.637-1.312L7.17,9.743A4.88,4.88,0,0,1,7,8.505a4.447,4.447,0,0,1,.218-1.312L5.939,8.475,3.97,6.505,2,8.475l-2-2v-.95L1.5,4.03,0,2.535V1.586L1.586,0h.828L3.97,1.556,5.525,0h.829l2.06,2.061L6.444,4.03,8.06,5.646a4.505,4.505,0,0,1,2.554-1.538c.095-.021.191-.036.289-.051s.192-.019.29-.026c.115-.009.226-.031.344-.031a3.448,3.448,0,0,1,.531.049A4.746,4.746,0,0,1,13,4.226v.043a3.406,3.406,0,0,1,.368.13A4.558,4.558,0,0,1,15.6,6.631,7.728,7.728,0,0,1,15.958,8h0c0,.02,0,.036,0,.055A3.067,3.067,0,0,1,16,8.463Z"/></g><g id="iconBg"><path class="icon-vs-bg" d="M14.987,8.505A3.492,3.492,0,0,1,11.5,12a3.737,3.737,0,0,1-1.5-.261L7.13,14.615a1.234,1.234,0,1,1-1.745-1.746l2.938-2.851A3.878,3.878,0,0,1,8,8.505,3.491,3.491,0,0,1,11.5,5.014a3.767,3.767,0,0,1,1.5.269l-2.373,2.35,1.746,1.746,2.346-2.361A3.716,3.716,0,0,1,14.987,8.505Z"/></g><g id="colorAction"><path class="icon-vs-action-red" d="M5.03,4.03,7,6,5.939,7.06,3.97,5.091,2,7.06.939,6l1.97-1.97L.939,2.06,2,1,3.97,2.97,5.939,1,7,2.06Z"/></g></svg>