<svg xmlns="http://www.w3.org/2000/svg" viewBox="0 0 16 16"><style>.icon-canvas-transparent{opacity:0;fill:#f6f6f6}.icon-vs-out{fill:#f6f6f6}.icon-vs-bg{fill:#424242}</style><path class="icon-canvas-transparent" d="M16 16H0V0h16v16z" id="canvas"/><path class="icon-vs-out" d="M9 1c-2 0-3.909.864-5.231 2.36l-.045.051-.065-.064L1.545 5.46l1.084 1.084h-2.63V9.52h2.63l-1.083 1.084 2.113 2.113.097-.095.085.092A7.006 7.006 0 0 0 9 15c3.859 0 7-3.141 7-7 0-3.86-3.141-7-7-7zm0 11a3.967 3.967 0 0 1-3.002-1.39l-.047-.06-.038-.038 2.536-2.48-2.56-2.503.026-.029.148-.175C6.84 4.471 7.883 4 9 4c2.206 0 4 1.794 4 4s-1.794 4-4 4z" id="outline"/><path class="icon-vs-bg" d="M15 8a6 6 0 0 1-6 6 5.97 5.97 0 0 1-4.422-1.962 2.36 2.36 0 0 1-.108-.115l.728-.712a.076.076 0 0 1 .011.014C6.126 12.302 7.474 13 9 13a5 5 0 0 0 5-5 5 5 0 0 0-5-5c-1.465 0-2.763.648-3.677 1.653-.053.056-.098.119-.15.176l-.734-.719.069-.077A5.978 5.978 0 0 1 9 2a6 6 0 0 1 6 6zm-7.982.032l-3.352 3.279-.707-.707L5.043 8.52H.999v-.976h4.044L2.959 5.46l.707-.707 3.352 3.279z" id="iconBg"/></svg>