<svg xmlns="http://www.w3.org/2000/svg" viewBox="0 0 16 16"><style>.icon-canvas-transparent{opacity:0;fill:#f6f6f6}.icon-vs-out{fill:#f6f6f6}.icon-vs-fg{fill:#f0eff1}.icon-cs-green_x0020_{fill:#388a34}</style><path class="icon-canvas-transparent" d="M0 0h16v16H0z" id="canvas"/><path class="icon-vs-out" d="M16 4.351L11.621 0H3v1.576L1.414 0H0v9.433l3-3.031V7.79a5.022 5.022 0 0 0-1.104 3.132c0 1.184.418 2.268 1.104 3.133v1.843h2.999c.015.003.029.01.045.013V16h1l.124-.006c.291-.004.568-.042.838-.097H16V4.351z" id="outline"/><path class="icon-cs-green_x0020_" d="M4 5.426l1-1.017v1.898c-.358.155-.69.352-1 .58V5.426zm11-.633V15h-4.827a7.953 7.953 0 0 0 1.115-1H14V6h-4V2H5v1.586l-1-1V1h7.207L15 4.793zM13.793 5L11 2.207V5h2.793zm-2.68 7.637H9.806a3.209 3.209 0 0 1-1.002 1.092c-.101.066-.206.121-.311.176-.058.031-.115.063-.175.088-.085.039-.171.068-.258.1-.051.018-.103.039-.157.057a3.819 3.819 0 0 1-.428.096H7.47a3.013 3.013 0 0 1-.464.037 3.287 3.287 0 0 1 0-6.574V9.35l2.465-2.053-2.466-2.056v1.644a4.108 4.108 0 1 0 0 8.218c.013 0 .026-.004.038-.004v.004c.022 0 .043-.006.066-.006 2.362.001 4.004-2.46 4.004-2.46zM1 1l3 3-3 3.051V1z" id="iconBg"/><path class="icon-vs-fg" d="M14 6v8h-2.712a7.29 7.29 0 0 0 .657-.809l1.038-1.555H9.225l-.288.505a2.206 2.206 0 0 1-.682.751c-.072.048-.148.086-.245.136l-.11.056c-.045.021-.091.035-.165.062l-.111.042a2.497 2.497 0 0 1-.266.062l-.04.007a2.064 2.064 0 0 1-.313.025c-.87 0-1.619-.495-2.005-1.213V9.933c.227-.427.57-.783 1.005-.995v2.546l5.028-4.187-5.028-4.192v2.877A5.133 5.133 0 0 0 5 6.308V4.409l.408-.415L5 3.586V2h5v4h4zm-3-4v3h3l-3-3z" id="iconFg"/></svg>