<svg xmlns="http://www.w3.org/2000/svg" viewBox="0 0 16 16"><defs><style>.icon-canvas-transparent,.icon-vs-out{fill:#f6f6f6;}.icon-canvas-transparent{opacity:0;}.icon-vs-fg{fill:#f0eff1;}.icon-vs-bg{fill:#424242;}.icon-vs-action-blue{fill:#00539c;}</style></defs><title>RestoreFromRecycleBin_16x</title><path class="icon-canvas-transparent" d="M16,0V16H0V0Z"/><path class="icon-vs-out" d="M14,5v8.5A2.5,2.5,0,0,1,11.5,16h-6A2.5,2.5,0,0,1,3,13.5V8.121L1.354,9.768,0,8.414V6.879L1.683,5.2l-.7-.7L4.5.982l.7.7L6.879,0H8.414L9.768,1.354,7.121,4H12V5Z"/><path class="icon-vs-fg" d="M12,6v7.5a.5.5,0,0,1-.5.5h-6a.5.5,0,0,1-.5-.5V6Z"/><path class="icon-vs-bg" d="M13,6v7.5A1.5,1.5,0,0,1,11.5,15h-6A1.5,1.5,0,0,1,4,13.5V5H9V6H5v7.5a.5.5,0,0,0,.5.5h6a.5.5,0,0,0,.5-.5V6Zm-2,7V7H10v6ZM7,13V7H6v6Zm2,0V7H8v6Z"/><path class="icon-vs-bg" d="M8.354,1.354l-7,7L.646,7.646,3.1,5.2l-.7-.7L4.5,2.4l.7.7L7.646.646Z"/><path class="icon-vs-out" d="M16,0V6H10V4.269A2,2,0,0,0,9,6V7H6V6a5,5,0,0,1,7-4.581V0Z"/><path class="icon-vs-action-blue" d="M15,1V5H11V4h2.212A2.961,2.961,0,0,0,11,3,3,3,0,0,0,8,6H7a4,4,0,0,1,4-4,3.961,3.961,0,0,1,3,1.363V1Z"/></svg>