<svg xmlns="http://www.w3.org/2000/svg" viewBox="0 0 16 16"><defs><style>.icon-canvas-transparent,.icon-vs-out{fill:#f6f6f6;}.icon-canvas-transparent{opacity:0;}.icon-vs-bg{fill:#424242;}.icon-vs-action-red{fill:#a1260d;}</style></defs><title>DeleteListItem_16x</title><g id="canvas"><path class="icon-canvas-transparent" d="M16,16H0V0H16Z"/></g><g id="outline"><path class="icon-vs-out" d="M8,5l-.293.293L6.444,4.03l1.97-1.969L6.354,0H5.525L3.97,1.556,2.414,0H1.586L0,1.586v.949l1.5,1.5L.232,5.293,0,5.061V16H16V5Z"/></g><g id="iconBg"><path class="icon-vs-bg" d="M12,11H4V10h8ZM8.414,6l-1,1H14v7H2V8.475l-1-1V15H15V6Z"/><polygon class="icon-vs-action-red" points="5.03 4.03 7 6 5.939 7.06 3.97 5.091 2 7.06 0.939 6 2.909 4.03 0.939 2.06 2 1 3.97 2.97 5.939 1 7 2.06 5.03 4.03"/></g></svg>