<svg xmlns="http://www.w3.org/2000/svg" viewBox="0 0 16 16"><defs><style>.icon-canvas-transparent,.icon-vs-out{fill:#f6f6f6;}.icon-canvas-transparent{opacity:0;}.icon-vs-bg{fill:#424242;}.icon-vs-fg{fill:#f0eff1;}</style></defs><title>CleanData_16x</title><g id="canvas"><path class="icon-canvas-transparent" d="M16,0V16H0V0Z"/></g><g id="outline"><path class="icon-vs-out" d="M9.11,16l3.3-4.532.054.054.7-.876a5.492,5.492,0,0,0,.471-6.118l1.93-1.93A1.492,1.492,0,0,0,16,1.539v0A1.484,1.484,0,0,0,14.856.085h-.71a1.493,1.493,0,0,0-.706.392l-1.93,1.93a5.433,5.433,0,0,0-6.117.47l-.876.7.092.093L0,7.022v.536L8.441,16Zm-4-8.988,3.953,3.954-.594.817L4.293,7.608Z"/></g><g id="iconBg"><path class="icon-vs-bg" d="M1.224,7.368l7.484,7.485,2.98-4.093L5.316,4.389Zm7.365,5.95-5.83-5.83L5.213,5.7l5.162,5.163ZM14.854,1.891,12.346,4.4a4.5,4.5,0,0,1,.033,5.624L6.015,3.659a4.5,4.5,0,0,1,5.624.033l2.508-2.508a.5.5,0,0,1,.707.707Z"/></g><g id="iconFg"><path class="icon-vs-fg" d="M10.375,10.863,8.589,13.318l-5.83-5.83L5.213,5.7Z"/></g></svg>