<svg xmlns="http://www.w3.org/2000/svg" viewBox="0 0 16 16"><style>.icon-canvas-transparent{opacity:0;fill:#f6f6f6}.icon-vs-out{fill:#f6f6f6}.icon-vs-bg{fill:#424242}.icon-vs-action-green{fill:#388a34}</style><path class="icon-canvas-transparent" d="M16 16H0V0h16v16z" id="canvas"/><path class="icon-vs-out" d="M1.376 9l5.143-4.5L1.376 0H0v9h1.376zM5 16V7h2.075l1.888-1.888.045.045v-.695h3.011v.695l.046-.045L13.951 7H16v9H5z" id="outline"/><path class="icon-vs-bg" d="M15 8v7H6V8h1v6h7V8h1zm-6 2H8v1h1v-1zm4 1v-1h-1v1h1zm-2-1h-1v1h1v-1zm1 2h-1v1h1v-1zm-3 1h1v-1H9v1zm3.766-5.771l-.704-.703-1.044 1.04V5.462h-1.011v2.103l-1.044-1.04-.703.704 1.747 1.754v.009l.502.502.004-.004.004.004.502-.502v-.01l1.747-1.753z" id="iconBg"/><path class="icon-vs-action-green" d="M1 8V1l4 3.5L1 8z" id="colorAction"/></svg>