<svg xmlns="http://www.w3.org/2000/svg" xmlns:xlink="http://www.w3.org/1999/xlink" viewBox="0 0 16 16"><defs><style>.icon-canvas-transparent,.icon-vs-out{fill:#f6f6f6;}.icon-canvas-transparent{opacity:0;}.icon-vs-bg{fill:#424242;}.a{fill:url(#a);}</style><radialGradient id="a" cx="8.084" cy="7.205" r="6.901" gradientTransform="translate(1.143 3.136) scale(0.857 0.565)" gradientUnits="userSpaceOnUse"><stop offset="0" stop-color="#fff" stop-opacity="0.15"/><stop offset="1" stop-color="#f6f6f6" stop-opacity="0.65"/></radialGradient></defs><title>AcrylicBrush_16x</title><path class="icon-canvas-transparent" d="M16,0V16H0V0Z"/><path class="icon-vs-out" d="M16,1V14H0V1Z"/><path class="icon-vs-bg" d="M1,2V13H15V2ZM14,12H2V3H14Z"/><path d="M4,3H3V4H4ZM4,5H3V6H4ZM4,7H3V8H4ZM3,9v1H4V9Zm0,3H4V11H3ZM6,3H5V4H6ZM6,6V5H5V6ZM5,7V8H6V7ZM5,9v1H6V9Zm0,3H6V11H5ZM8,3H7V4H8ZM8,6V5H7V6ZM7,7V8H8V7ZM7,9v1H8V9Zm0,3H8V11H7Zm3-9H9V4h1Zm0,3V5H9V6ZM9,7V8h1V7ZM9,9v1h1V9Zm0,3h1V11H9Zm3-9H11V4h1Zm0,3V5H11V6ZM11,8h1V7H11Zm0,1v1h1V9Zm0,3h1V11H11Zm3-9H13V4h1ZM13,5V6h1V5Zm0,3h1V7H13Zm0,2h1V9H13Zm0,2h1V11H13Zm0-7V4H12V5ZM12,7h1V6H12Zm0,2h1V8H12Zm0,1v1h1V10ZM11,5V4H10V5Zm0,2V6H10V7ZM10,8V9h1V8Zm0,2v1h1V10ZM9,5V4H8V5ZM9,7V6H8V7ZM8,8V9H9V8Zm0,2v1H9V10ZM7,5V4H6V5ZM7,7V6H6V7ZM6,8V9H7V8Zm0,2v1H7V10ZM5,5V4H4V5ZM5,6H4V7H5ZM4,8V9H5V8Zm0,2v1H5V10ZM3,4H2V5H3ZM3,6H2V7H3ZM3,8H2V9H3ZM2,10v1H3V10Z"/><path class="a" d="M14,3v9H2V3Z"/></svg>