<svg xmlns="http://www.w3.org/2000/svg" viewBox="0 0 16 16"><style>.icon-canvas-transparent{opacity:0;fill:#f6f6f6}.icon-vs-out{fill:#f6f6f6}.icon-vs-bg{fill:#424242}.icon-vs-fg{fill:#f0eff1}</style><path class="icon-canvas-transparent" d="M16 16H0V0h16v16z" id="canvas"/><path class="icon-vs-out" d="M16 0H7v4H0v12h11v-.984l1.511.002a2.498 2.498 0 0 0 2.491-2.5v-.225l.083.083.915-.915v-2.42L14.963 8H16V0zm-5 12.016v-.68l.68.681-.68-.001zm0-2.948V8h1.069L11 9.068z" id="outline"/><path class="icon-vs-bg" d="M1 5v10h9V5H1zm8 9H2V6h7v8zm-2-4h1v3H7v-3zm-2 1h1v2H5v-2zm-1 2H3v-1h1v1zm4-5H3V7h5v1zm-2 2H3V9h3v1zm2-9v3h1V3h1v1h1V3h1v1h-1v1h1v1h-1v1h4V1H8zm6 5h-1V5h1v1zm0-2h-1V3h1v1zm1.795 6.252l-.711.711-1.081-1.077v2.632c0 .827-.664 1.5-1.491 1.5l-1.493-.002v-1l1.493.002c.275 0 .5-.225.5-.5l-.009-2.615-1.013 1.008-.709-.709 2.237-2.237 2.277 2.287z" id="iconBg"/><path class="icon-vs-fg" d="M9 3h1v1H9V3zm2 3h1V5h-1v1zm2-3v1h1V3h-1zm0 3h1V5h-1v1zm-2-2h1V3h-1v1zM2 6h7v8H2V6zm4 5H5v2h1v-2zm2-1H7v3h1v-3zM3 8h5V7H3v1zm0 2h3V9H3v1zm0 3h1v-1H3v1z" id="iconFg"/></svg>