<svg xmlns="http://www.w3.org/2000/svg" viewBox="0 0 16 16"><defs><style>.icon-canvas-transparent,.icon-vs-out{fill:#f6f6f6;}.icon-canvas-transparent{opacity:0;}.icon-vs-action-blue{fill:#00539c;}</style></defs><title>Open_16x</title><path class="icon-canvas-transparent" d="M16,0V16H0V0Z"/><path class="icon-vs-out" d="M16,6.672v.656l-5.793,5.793L7.379,10.293,8.672,9H5.5a1.5,1.5,0,0,0,0,3h1v4h-1a5.5,5.5,0,0,1,0-11H8.672L7.379,3.707,10.207.879Z"/><path class="icon-vs-action-blue" d="M14.914,7l-4.707,4.707L8.793,10.293,11.086,8H5.5a2.5,2.5,0,0,0,0,5v2a4.5,4.5,0,0,1,0-9h5.586L8.793,3.707l1.414-1.414Z"/></svg>