<svg xmlns="http://www.w3.org/2000/svg" viewBox="0 0 16 16"><defs><style>.icon-canvas-transparent,.icon-vs-out{fill:#f6f6f6;}.icon-canvas-transparent{opacity:0;}.icon-vs-bg{fill:#424242;}</style></defs><title>LocalRegisters_16x</title><g id="canvas"><path class="icon-canvas-transparent" d="M16,0V16H0V0Z"/></g><g id="outline"><path class="icon-vs-out" d="M16,3V13H0V3Z"/></g><g id="iconBg"><path class="icon-vs-bg" d="M15,4v8H13V11h1V5H13V4ZM1,12H3V11H2V5H3V4H1ZM7,6v4a1,1,0,0,1-1,1H5a1,1,0,0,1-1-1V6A1,1,0,0,1,5,5H6A1,1,0,0,1,7,6ZM6,6H5v4H6Zm4.438-.937L9.844,6.547,9.25,5.063H8.063L9.25,8.031,8.063,11H9.25l.594-1.484L10.438,11h1.187L10.438,8.031l1.187-2.968Z"/></g></svg>