<svg xmlns="http://www.w3.org/2000/svg" viewBox="0 0 16 16"><defs><style>.icon-canvas-transparent,.icon-vs-out{fill:#f6f6f6;}.icon-canvas-transparent{opacity:0;}.icon-vs-fg{fill:#f0eff1;}.icon-vs-bg{fill:#424242;}</style></defs><title>Utterance_16x</title><g id="canvas"><path class="icon-canvas-transparent" d="M16,16H0V0H16Z"/></g><g id="outline"><path class="icon-vs-out" d="M16,6.36a9.884,9.884,0,0,1-2,5.961l-.754,1.007L8.9,9.371c-.05.071-.091.148-.146.216A5.484,5.484,0,0,1,11,14v1H0V14A5.484,5.484,0,0,1,2.248,9.587,4.125,4.125,0,0,1,1.333,7,4.155,4.155,0,0,1,8.359,3.984L12.6,0h1.1l.3.4A9.879,9.879,0,0,1,16,6.36Z"/></g><g id="iconFg"><path class="icon-vs-fg" d="M3.333,7A2.167,2.167,0,1,1,5.5,9.167,2.169,2.169,0,0,1,3.333,7ZM5.5,10.5A3.5,3.5,0,0,1,9,13.986H2A3.5,3.5,0,0,1,5.5,10.5Z"/></g><g id="iconBg"><path class="icon-vs-bg" d="M11.551,2.32,11,2.93a5.735,5.735,0,0,1,1.211,3.43A5.743,5.743,0,0,1,11,9.792l.551.609A7.658,7.658,0,0,0,12,9.727,6.386,6.386,0,0,0,13,6.36a6.4,6.4,0,0,0-1-3.4A7.549,7.549,0,0,0,11.551,2.32ZM10.1,3.481l-.532.625A4.32,4.32,0,0,1,10.25,6.36a4.317,4.317,0,0,1-.683,2.254l.532.624A5.243,5.243,0,0,0,11,6.36,5.254,5.254,0,0,0,10.1,3.481Zm3.234,6.578A7.827,7.827,0,0,1,12.68,11.1l.52.617A8.882,8.882,0,0,0,13.2,1l-.52.616a8.009,8.009,0,0,1,1.071,1.967l.005.016c.078.211.148.424.208.643.011.04.017.081.028.121.048.186.094.372.128.564.017.088.025.179.037.269.022.145.046.289.06.437.021.239.033.482.033.727a7.876,7.876,0,0,1-.1,1.228c0,.038-.008.076-.015.114a7.9,7.9,0,0,1-.287,1.146c-.011.031-.02.061-.031.091a7.865,7.865,0,0,1-.474,1.106ZM6.994,9.775a3.167,3.167,0,1,0-2.988,0A4.491,4.491,0,0,0,1,14H2a3.5,3.5,0,0,1,7,0h1A4.491,4.491,0,0,0,6.994,9.775ZM3.333,7A2.167,2.167,0,1,1,5.5,9.167,2.169,2.169,0,0,1,3.333,7Z"/></g></svg>