<svg xmlns="http://www.w3.org/2000/svg" viewBox="0 0 16 16"><defs><style>.icon-canvas-transparent,.icon-vs-out{fill:#f6f6f6;}.icon-canvas-transparent{opacity:0;}.icon-vs-bg{fill:#424242;}</style></defs><title>FlagGroup_16x</title><g id="canvas"><path class="icon-canvas-transparent" d="M16,16H0V0H16Z"/></g><g id="outline"><path class="icon-vs-out" d="M11,1V0H5V6H2V16H5V12H7v1h4V7h3V1ZM8,7V6h2V7Z"/></g><g id="iconBg"><polygon class="icon-vs-out" points="2 16 2 6 8 6 8 7 11 7 11 13 7 13 7 12 5 12 5 16 2 16"/><path class="icon-vs-bg" d="M6,1h4V5H7V6H6Zm5,1V6h2V2ZM3,15H4V11H7V7H3Zm5-3h2V8H8Z"/></g></svg>