<svg xmlns="http://www.w3.org/2000/svg" viewBox="0 0 16 16"><style>.icon-canvas-transparent{opacity:0;fill:#f6f6f6}.icon-vs-out{fill:#f6f6f6}.icon-vs-bg{fill:#424242}.icon-vs-fg{fill:#f0eff1}.icon-vs-action-red{fill:#a1260d}</style><path class="icon-canvas-transparent" d="M16 16H0V0h16v16z" id="canvas"/><path class="icon-vs-out" d="M11.621 0H3v.586L2.414 0h-.828L0 1.586v.949L1.495 4.03 0 5.525v.95l2 2 1-1V16h13V4.379z" id="outline"/><path class="icon-vs-bg" d="M11.207 1H7.354l1 1H10v4h4v8H5V7.535l-1-1V15h11V4.793L11.207 1zM11 5V2.207L13.793 5H11zM6 8.414V9H5V8h.465l.475.475.06-.061zM7 12h1v1H7v-1zm1-9.525V3h-.525L8 2.475zM8 5h-.586L7 4.586V4h1v1zm-1 5h1v1H7v-1zm7-2v1h-1V8h1zM7 8h1v1H7V8zm4 0h1v1h-1V8zM9 8h1v1H9V8zM8 6.414V7h-.586L8 6.414z" id="iconBg"/><g id="iconFg"><path class="icon-vs-fg" d="M5 7.535V8h.465z"/><path class="icon-vs-fg" d="M14 8V6h-4V2H8.354l.061.061L8 2.475V3h-.525l-1.03 1.03.555.556V4h1v1h-.586l1 1L8 6.414V7h-.586L6 8.414V9H5v5h9V9h-1V8h1zm-6 5H7v-1h1v1zm0-2H7v-1h1v1zm0-2H7V8h1v1zm2 0H9V8h1v1zm2 0h-1V8h1v1z"/><path class="icon-vs-fg" d="M5 7.535V8h.465z"/><path class="icon-vs-fg" d="M14 8V6h-4V2H8.354l.061.061L8 2.475V3h-.525l-1.03 1.03.555.556V4h1v1h-.586l1 1L8 6.414V7h-.586L6 8.414V9H5v5h9V9h-1V8h1zm-6 5H7v-1h1v1zm0-2H7v-1h1v1zm0-2H7V8h1v1zm2 0H9V8h1v1zm2 0h-1V8h1v1z"/></g><path class="icon-vs-action-red" d="M5.03 4.03L7 6 5.939 7.061l-1.97-1.97L2 7.061.939 6l1.97-1.97-1.97-1.97L2 1l1.97 1.97L5.939 1 7 2.06 5.03 4.03z" id="colorAction"/></svg>