<svg xmlns="http://www.w3.org/2000/svg" viewBox="0 0 16 16"><style>.icon-canvas-transparent{opacity:0;fill:#f6f6f6}.icon-vs-out{fill:#f6f6f6}.icon-vs-bg{fill:#424242}.icon-vs-fg{fill:#f0eff1}.icon-vs-action-blue{fill:#00539c}</style><path class="icon-canvas-transparent" d="M16 16H0V0h16v16z" id="canvas"/><path class="icon-vs-out" d="M15 1v15H1V7h1.077L0 4.915v-.537l1.851-1.851L3 3.672V0h3v1h9z" id="outline"/><path class="icon-vs-bg" d="M8.714 5.191l-.003-.003L8.899 5H11v2H6.906l1.808-1.809zM6 2v1h7v11H4V8.931L3.073 8H2v1h1v1H2v1h1v1H2v1h1v1H2v1h12V2H6z" id="iconBg"/><path class="icon-vs-fg" d="M6.658 3L6 3.655V3h.658zm.946 0l1.647 1.647L8.899 5H11v2H6.906l-2 2h-.007l-.416.416L4.069 9H4v5h9V3H7.604z" id="iconFg"/><path class="icon-vs-action-blue" d="M5 6.063V1H4v5.081l-2.148-2.14-.707.707L4.485 8l3.352-3.352-.707-.707L5 6.063z" id="colorAction"/></svg>