<svg xmlns="http://www.w3.org/2000/svg" viewBox="0 0 16 16"><defs><style>.icon-canvas-transparent,.icon-vs-out{fill:#f6f6f6;}.icon-canvas-transparent{opacity:0;}.icon-vs-bg{fill:#424242;}.icon-vs-action-red{fill:#a1260d;}</style></defs><title>NoResults_16x</title><g id="canvas"><path class="icon-canvas-transparent" d="M16,16H0V0H16Z"/></g><g id="outline"><path class="icon-vs-out" d="M16,10.535,14.505,12.03,16,13.525v.95L14.475,16H1V0H9.621L14,4.379V7.586l2,2Z"/></g><g id="iconBg"><path class="icon-vs-bg" d="M3,14V2H8V6h4V9.525l.03.031.97-.97V4.793L9.207,1H2V15H8.586l-1-1ZM9,2.207,11.793,5H9Z"/></g><g id="colorAction"><path class="icon-vs-action-red" d="M13.091,12.03,15.06,14,14,15.06l-1.97-1.969L10.06,15.06,9,14l1.97-1.97L9,10.06,10.06,9l1.97,1.97L14,9l1.06,1.06Z"/></g></svg>