<svg xmlns="http://www.w3.org/2000/svg" viewBox="0 0 16 16"><style>.icon-canvas-transparent{opacity:0;fill:#f6f6f6}.icon-vs-out{fill:#f6f6f6}.icon-vs-bg{fill:#424242}.icon-vs-fg{fill:#f0eff1}.icon-vs-action-blue{fill:#00539c}</style><path class="icon-canvas-transparent" d="M16 16H0V0h16v16z" id="canvas"/><path class="icon-vs-out" d="M7.488 2l-2-2H4.469L2.857 1.612l.896.896H0v3h3V14h12V2H7.488z" id="outline"/><path class="icon-vs-bg" d="M8.488 3l1 1H13v5l-1.5-1-2 1L7 7 6 8 5 9v-.496l-.021.022L4 7.547V13h10V3H8.488zM13 12H5v-1l2-2 2.5 2 2-1 1.5 1v1zM9 6a1 1 0 1 1 2 0 1 1 0 0 1-2 0z" id="iconBg"/><path class="icon-vs-fg" d="M9.488 4l.008.008L5 8.504V9l1.997-1.997.001-.006L7 7l-.003.003L9.5 9l2-1L13 9V4H9.488zM10 7a1 1 0 1 1 0-2 1 1 0 0 1 0 2zm1.5 3l1.5 1v1H5v-1l2-2 2.5 2 2-1z" id="iconFg"/><path class="icon-vs-action-blue" d="M8.082 4.008L4.979 7.112l-.708-.707 1.896-1.896H1v-1h5.168L4.271 1.612l.707-.707 3.104 3.103z" id="colorAction"/></svg>