<svg xmlns="http://www.w3.org/2000/svg" viewBox="0 0 16 16"><style>.icon-canvas-transparent{opacity:0;fill:#f6f6f6}.icon-vs-out{fill:#f6f6f6}.icon-vs-bg{fill:#424242}.icon-vs-fg{fill:#f0eff1}.icon-asp-html-wpf-blue{fill:#0095d7}</style><path class="icon-canvas-transparent" d="M16 16H0V0h16v16z" id="canvas"/><path class="icon-vs-out" d="M11.621 0H3v10h-.414L0 12.586v.828L2.586 16H16V4.379z" id="outline"/><path class="icon-vs-bg" d="M11.207 1H4v9.815a3.035 3.035 0 0 1 1-.618V2h5v4h4v8h-2.586l-1 1H15V4.793L11.207 1zM11 5V2.207L13.793 5H11z" id="iconBg"/><g id="iconFg"><path class="icon-vs-fg" d="M10 6V2H5v8.197A2.933 2.933 0 0 1 6.042 10 2.97 2.97 0 0 1 8 10.746V10h1.414l3 3-1 1H14V6h-4z"/><path class="icon-vs-fg" d="M11 2.207V5h2.793z"/><path class="icon-vs-fg" d="M10 6V2H5v8.197A2.933 2.933 0 0 1 6.042 10 2.97 2.97 0 0 1 8 10.746V10h1.414l3 3-1 1H14V6h-4z"/><path class="icon-vs-fg" d="M11 2.207V5h2.793z"/><g><path class="icon-vs-bg" d="M9 11v1l1 1-1 1v1l2-2-2-2zm-6 4v-1l-1-1 1-1v-1l-2 2 2 2z"/></g></g><circle class="icon-asp-html-wpf-blue" cx="6.042" cy="13" r="2" id="colorImportance"/></svg>