<svg xmlns="http://www.w3.org/2000/svg" viewBox="0 0 16 16"><defs><style>.icon-canvas-transparent,.icon-vs-out{fill:#f6f6f6;}.icon-canvas-transparent{opacity:0;}.icon-white{fill:#fff;}.syntax-snappoint-purple{fill:purple;}.icon-vs-action-blue{fill:#00539c;}</style></defs><title>ProductionSnapshotPointAlert_16x</title><g id="canvas"><path class="icon-canvas-transparent" d="M16,0V16H0V0Z"/></g><g id="outline"><polygon class="icon-vs-out" points="16 7.856 12.041 1 3.959 1 0 7.856 0 8.144 3.959 15 9.5 15 10.5 16 12.5 16 16 12.5 16 10.5 15.138 9.637 16 8.144 16 7.856"/></g><g id="iconFg"><polygon class="icon-white" points="7 12.5 7 10.5 10.5 7 12.5 7 13.673 8.173 13.773 8 10.887 3 5.113 3 2.227 8 5.113 13 7.5 13 7 12.5"/></g><g id="iconBg"><polygon class="syntax-snappoint-purple" points="7.5 13 5.113 13 2.227 8 5.113 3 10.887 3 13.773 8 13.673 8.173 14.405 8.905 14.928 8 11.465 2 4.535 2 1.072 8 4.535 14 8.5 14 7.5 13"/></g><g id="notificationBg"><path class="icon-vs-action-blue" d="M12,8H11L8,11v1l3,3h1l3-3V11Zm0,6H11V13h1Zm0-2H11V9h1Z"/></g><g id="notificationFg"><path class="icon-white" d="M12,12H11V9h1Zm0,1H11v1h1Z"/></g></svg>