<svg xmlns="http://www.w3.org/2000/svg" viewBox="0 0 16 16"><defs><style>.icon-canvas-transparent,.icon-vs-out{fill:#f6f6f6;}.icon-canvas-transparent{opacity:0;}.icon-vs-bg{fill:#424242;}.cls-1{fill:#f0eff1;}.icon-vs-action-blue{fill:#00539c;}</style></defs><title>VBRazorFile_16x</title><g id="canvas"><path class="icon-canvas-transparent" d="M16,16H0V0H16Z"/></g><g id="outline"><path class="icon-vs-out" d="M15,16H2V0h8.621L15,4.379Z"/></g><g id="iconBg"><path class="icon-vs-bg" d="M3,1V15H14V4.793L10.207,1ZM13,14H4V2H9V6h4ZM10,5V2.207L12.793,5Z"/></g><g id="colorImportance"><path class="cls-1" d="M8.445,9.076a.479.479,0,0,0-.186-.131A.6.6,0,0,0,8.032,8.9a.615.615,0,0,0-.387.128,1.037,1.037,0,0,0-.278.328A1.73,1.73,0,0,0,7.2,9.81a2.354,2.354,0,0,0-.053.486,1.31,1.31,0,0,0,.047.365.813.813,0,0,0,.132.26.553.553,0,0,0,.193.154.517.517,0,0,0,.229.053.647.647,0,0,0,.381-.117.943.943,0,0,0,.272-.322,1.653,1.653,0,0,0,.164-.479,3.262,3.262,0,0,0,.053-.593A1.018,1.018,0,0,0,8.571,9.3.587.587,0,0,0,8.445,9.076Z"/><polygon class="cls-1" points="10 2.207 10 5 12.793 5 10 2.207"/><path class="cls-1" d="M9,6V2H4V14h9V6ZM10.861,10.5a2.1,2.1,0,0,1-.362.644,1.536,1.536,0,0,1-.509.39,1.33,1.33,0,0,1-.575.132.767.767,0,0,1-.591-.22.827.827,0,0,1-.206-.594H8.6a1.189,1.189,0,0,1-.158.345,1.068,1.068,0,0,1-.232.254.946.946,0,0,1-.288.155,1.015,1.015,0,0,1-.333.054,1.074,1.074,0,0,1-.426-.086.935.935,0,0,1-.356-.254,1.3,1.3,0,0,1-.241-.431,1.853,1.853,0,0,1-.089-.6,2.418,2.418,0,0,1,.113-.755,1.844,1.844,0,0,1,.31-.6,1.451,1.451,0,0,1,.481-.4A1.306,1.306,0,0,1,8,8.38a.882.882,0,0,1,.246.032.774.774,0,0,1,.206.094.624.624,0,0,1,.155.143.546.546,0,0,1,.091.188h.013l.036-.4h.612c0,.047-.007.124-.017.23s-.021.227-.032.364-.027.281-.038.431-.027.295-.038.429-.021.253-.027.354-.012.174-.012.217a1.706,1.706,0,0,0,.027.328.59.59,0,0,0,.072.2.241.241,0,0,0,.11.105.365.365,0,0,0,.143.03.527.527,0,0,0,.3-.1.873.873,0,0,0,.257-.289,1.762,1.762,0,0,0,.178-.463,2.514,2.514,0,0,0,.069-.617,2.564,2.564,0,0,0-.051-.493,2.165,2.165,0,0,0-.164-.489,2.113,2.113,0,0,0-.292-.444,1.781,1.781,0,0,0-.429-.364,2.217,2.217,0,0,0-.58-.246,2.749,2.749,0,0,0-.749-.091,2.345,2.345,0,0,0-1.741.739,2.508,2.508,0,0,0-.506.816A2.8,2.8,0,0,0,5.658,10.1a2.723,2.723,0,0,0,.162.955,2.1,2.1,0,0,0,.472.749,2.163,2.163,0,0,0,.75.487,2.716,2.716,0,0,0,1.005.176,4.017,4.017,0,0,0,.468-.023,3.489,3.489,0,0,0,.4-.059,2.98,2.98,0,0,0,.348-.1c.107-.038.211-.08.308-.122v.568a2.4,2.4,0,0,1-.251.094,2.849,2.849,0,0,1-.341.083c-.131.024-.279.045-.443.061S8.19,13,7.989,13a3.455,3.455,0,0,1-1.2-.2,2.757,2.757,0,0,1-.945-.58,2.638,2.638,0,0,1-.618-.908A3.039,3.039,0,0,1,5,10.126a3.4,3.4,0,0,1,.1-.832,3.19,3.19,0,0,1,.285-.746,2.836,2.836,0,0,1,.457-.632,2.8,2.8,0,0,1,.615-.49,3.111,3.111,0,0,1,.756-.315A3.379,3.379,0,0,1,8.1,7a3.458,3.458,0,0,1,1.127.18,2.8,2.8,0,0,1,.922.514,2.463,2.463,0,0,1,.627.817A2.54,2.54,0,0,1,11,9.6,2.652,2.652,0,0,1,10.861,10.5Z"/><path class="cls-1" d="M8.445,9.076a.479.479,0,0,0-.186-.131A.6.6,0,0,0,8.032,8.9a.615.615,0,0,0-.387.128,1.037,1.037,0,0,0-.278.328A1.73,1.73,0,0,0,7.2,9.81a2.354,2.354,0,0,0-.053.486,1.31,1.31,0,0,0,.047.365.813.813,0,0,0,.132.26.553.553,0,0,0,.193.154.517.517,0,0,0,.229.053.647.647,0,0,0,.381-.117.943.943,0,0,0,.272-.322,1.653,1.653,0,0,0,.164-.479,3.262,3.262,0,0,0,.053-.593A1.018,1.018,0,0,0,8.571,9.3.587.587,0,0,0,8.445,9.076Z"/><polygon class="cls-1" points="10 2.207 10 5 12.793 5 10 2.207"/><path class="cls-1" d="M9,6V2H4V14h9V6ZM10.861,10.5a2.1,2.1,0,0,1-.362.644,1.536,1.536,0,0,1-.509.39,1.33,1.33,0,0,1-.575.132.767.767,0,0,1-.591-.22.827.827,0,0,1-.206-.594H8.6a1.189,1.189,0,0,1-.158.345,1.068,1.068,0,0,1-.232.254.946.946,0,0,1-.288.155,1.015,1.015,0,0,1-.333.054,1.074,1.074,0,0,1-.426-.086.935.935,0,0,1-.356-.254,1.3,1.3,0,0,1-.241-.431,1.853,1.853,0,0,1-.089-.6,2.418,2.418,0,0,1,.113-.755,1.844,1.844,0,0,1,.31-.6,1.451,1.451,0,0,1,.481-.4A1.306,1.306,0,0,1,8,8.38a.882.882,0,0,1,.246.032.774.774,0,0,1,.206.094.624.624,0,0,1,.155.143.546.546,0,0,1,.091.188h.013l.036-.4h.612c0,.047-.007.124-.017.23s-.021.227-.032.364-.027.281-.038.431-.027.295-.038.429-.021.253-.027.354-.012.174-.012.217a1.706,1.706,0,0,0,.027.328.59.59,0,0,0,.072.2.241.241,0,0,0,.11.105.365.365,0,0,0,.143.03.527.527,0,0,0,.3-.1.873.873,0,0,0,.257-.289,1.762,1.762,0,0,0,.178-.463,2.514,2.514,0,0,0,.069-.617,2.564,2.564,0,0,0-.051-.493,2.165,2.165,0,0,0-.164-.489,2.113,2.113,0,0,0-.292-.444,1.781,1.781,0,0,0-.429-.364,2.217,2.217,0,0,0-.58-.246,2.749,2.749,0,0,0-.749-.091,2.345,2.345,0,0,0-1.741.739,2.508,2.508,0,0,0-.506.816A2.8,2.8,0,0,0,5.658,10.1a2.723,2.723,0,0,0,.162.955,2.1,2.1,0,0,0,.472.749,2.163,2.163,0,0,0,.75.487,2.716,2.716,0,0,0,1.005.176,4.017,4.017,0,0,0,.468-.023,3.489,3.489,0,0,0,.4-.059,2.98,2.98,0,0,0,.348-.1c.107-.038.211-.08.308-.122v.568a2.4,2.4,0,0,1-.251.094,2.849,2.849,0,0,1-.341.083c-.131.024-.279.045-.443.061S8.19,13,7.989,13a3.455,3.455,0,0,1-1.2-.2,2.757,2.757,0,0,1-.945-.58,2.638,2.638,0,0,1-.618-.908A3.039,3.039,0,0,1,5,10.126a3.4,3.4,0,0,1,.1-.832,3.19,3.19,0,0,1,.285-.746,2.836,2.836,0,0,1,.457-.632,2.8,2.8,0,0,1,.615-.49,3.111,3.111,0,0,1,.756-.315A3.379,3.379,0,0,1,8.1,7a3.458,3.458,0,0,1,1.127.18,2.8,2.8,0,0,1,.922.514,2.463,2.463,0,0,1,.627.817A2.54,2.54,0,0,1,11,9.6,2.652,2.652,0,0,1,10.861,10.5Z"/><path class="cls-1" d="M10.771,8.511a2.452,2.452,0,0,0-.627-.817,2.8,2.8,0,0,0-.922-.514A3.458,3.458,0,0,0,8.1,7a3.379,3.379,0,0,0-.883.111,3.072,3.072,0,0,0-.756.315,2.8,2.8,0,0,0-.615.49,2.836,2.836,0,0,0-.457.632,3.19,3.19,0,0,0-.285.746,3.4,3.4,0,0,0-.1.832,3.039,3.039,0,0,0,.221,1.184,2.638,2.638,0,0,0,.618.908,2.757,2.757,0,0,0,.945.58,3.455,3.455,0,0,0,1.205.2c.2,0,.385-.007.549-.023s.312-.037.443-.061a2.849,2.849,0,0,0,.341-.083,2.4,2.4,0,0,0,.251-.094v-.568c-.1.042-.2.084-.308.122a2.98,2.98,0,0,1-.348.1,3.489,3.489,0,0,1-.4.059,4.017,4.017,0,0,1-.468.023,2.716,2.716,0,0,1-1.005-.176,2.177,2.177,0,0,1-.751-.487,2.107,2.107,0,0,1-.471-.749,2.723,2.723,0,0,1-.162-.955,2.8,2.8,0,0,1,.181-1.016,2.508,2.508,0,0,1,.506-.816,2.358,2.358,0,0,1,.77-.543,2.39,2.39,0,0,1,.971-.2,2.749,2.749,0,0,1,.749.091,2.217,2.217,0,0,1,.58.246,1.781,1.781,0,0,1,.429.364,2.113,2.113,0,0,1,.292.444,2.165,2.165,0,0,1,.164.489,2.564,2.564,0,0,1,.051.493,2.514,2.514,0,0,1-.069.617,1.727,1.727,0,0,1-.179.463.86.86,0,0,1-.256.289.527.527,0,0,1-.3.1A.365.365,0,0,1,9.4,11.1a.241.241,0,0,1-.11-.105.59.59,0,0,1-.072-.2,1.706,1.706,0,0,1-.027-.328c0-.043.006-.113.012-.217s.018-.221.027-.354.024-.277.038-.429.025-.3.038-.431.022-.258.032-.364.015-.183.017-.23H8.744l-.036.4H8.7A.546.546,0,0,0,8.6,8.649a.624.624,0,0,0-.155-.143.774.774,0,0,0-.206-.094A.887.887,0,0,0,8,8.38a1.306,1.306,0,0,0-.615.144,1.451,1.451,0,0,0-.481.4,1.844,1.844,0,0,0-.31.6,2.418,2.418,0,0,0-.113.755,1.853,1.853,0,0,0,.089.6,1.3,1.3,0,0,0,.241.431.935.935,0,0,0,.356.254,1.074,1.074,0,0,0,.426.086,1.015,1.015,0,0,0,.333-.054.946.946,0,0,0,.288-.155,1.068,1.068,0,0,0,.232-.254,1.189,1.189,0,0,0,.158-.345h.017a.827.827,0,0,0,.206.594.767.767,0,0,0,.591.22,1.33,1.33,0,0,0,.575-.132,1.536,1.536,0,0,0,.509-.39,2.08,2.08,0,0,0,.362-.644A2.652,2.652,0,0,0,11,9.6,2.543,2.543,0,0,0,10.771,8.511Zm-2.206,1.7a1.653,1.653,0,0,1-.164.479.943.943,0,0,1-.272.322.647.647,0,0,1-.381.117.517.517,0,0,1-.229-.053.553.553,0,0,1-.193-.154.813.813,0,0,1-.132-.26,1.31,1.31,0,0,1-.047-.365A2.354,2.354,0,0,1,7.2,9.81a1.7,1.7,0,0,1,.167-.451,1.037,1.037,0,0,1,.278-.328A.615.615,0,0,1,8.032,8.9a.6.6,0,0,1,.227.042.479.479,0,0,1,.186.131.587.587,0,0,1,.126.219,1.018,1.018,0,0,1,.047.322A3.262,3.262,0,0,1,8.565,10.21Z"/><path class="icon-vs-action-blue" d="M10.771,8.511a2.452,2.452,0,0,0-.627-.817,2.8,2.8,0,0,0-.922-.514A3.458,3.458,0,0,0,8.1,7a3.379,3.379,0,0,0-.883.111,3.072,3.072,0,0,0-.756.315,2.8,2.8,0,0,0-.615.49,2.836,2.836,0,0,0-.457.632,3.19,3.19,0,0,0-.285.746,3.4,3.4,0,0,0-.1.832,3.039,3.039,0,0,0,.221,1.184,2.638,2.638,0,0,0,.618.908,2.757,2.757,0,0,0,.945.58,3.455,3.455,0,0,0,1.205.2c.2,0,.385-.007.549-.023s.312-.037.443-.061a2.849,2.849,0,0,0,.341-.083,2.4,2.4,0,0,0,.251-.094v-.568c-.1.042-.2.084-.308.122a2.98,2.98,0,0,1-.348.1,3.489,3.489,0,0,1-.4.059,4.017,4.017,0,0,1-.468.023,2.716,2.716,0,0,1-1.005-.176,2.177,2.177,0,0,1-.751-.487,2.107,2.107,0,0,1-.471-.749,2.723,2.723,0,0,1-.162-.955,2.8,2.8,0,0,1,.181-1.016,2.508,2.508,0,0,1,.506-.816,2.358,2.358,0,0,1,.77-.543,2.39,2.39,0,0,1,.971-.2,2.749,2.749,0,0,1,.749.091,2.217,2.217,0,0,1,.58.246,1.781,1.781,0,0,1,.429.364,2.113,2.113,0,0,1,.292.444,2.165,2.165,0,0,1,.164.489,2.564,2.564,0,0,1,.051.493,2.514,2.514,0,0,1-.069.617,1.727,1.727,0,0,1-.179.463.86.86,0,0,1-.256.289.527.527,0,0,1-.3.1A.365.365,0,0,1,9.4,11.1a.241.241,0,0,1-.11-.105.59.59,0,0,1-.072-.2,1.706,1.706,0,0,1-.027-.328c0-.043.006-.113.012-.217s.018-.221.027-.354.024-.277.038-.429.025-.3.038-.431.022-.258.032-.364.015-.183.017-.23H8.744l-.036.4H8.7A.546.546,0,0,0,8.6,8.649a.624.624,0,0,0-.155-.143.774.774,0,0,0-.206-.094A.887.887,0,0,0,8,8.38a1.306,1.306,0,0,0-.615.144,1.451,1.451,0,0,0-.481.4,1.844,1.844,0,0,0-.31.6,2.418,2.418,0,0,0-.113.755,1.853,1.853,0,0,0,.089.6,1.3,1.3,0,0,0,.241.431.935.935,0,0,0,.356.254,1.074,1.074,0,0,0,.426.086,1.015,1.015,0,0,0,.333-.054.946.946,0,0,0,.288-.155,1.068,1.068,0,0,0,.232-.254,1.189,1.189,0,0,0,.158-.345h.017a.827.827,0,0,0,.206.594.767.767,0,0,0,.591.22,1.33,1.33,0,0,0,.575-.132,1.536,1.536,0,0,0,.509-.39,2.08,2.08,0,0,0,.362-.644A2.652,2.652,0,0,0,11,9.6,2.543,2.543,0,0,0,10.771,8.511Zm-2.206,1.7a1.653,1.653,0,0,1-.164.479.943.943,0,0,1-.272.322.647.647,0,0,1-.381.117.517.517,0,0,1-.229-.053.553.553,0,0,1-.193-.154.813.813,0,0,1-.132-.26,1.31,1.31,0,0,1-.047-.365A2.354,2.354,0,0,1,7.2,9.81a1.7,1.7,0,0,1,.167-.451,1.037,1.037,0,0,1,.278-.328A.615.615,0,0,1,8.032,8.9a.6.6,0,0,1,.227.042.479.479,0,0,1,.186.131.587.587,0,0,1,.126.219,1.018,1.018,0,0,1,.047.322A3.262,3.262,0,0,1,8.565,10.21Z"/></g></svg>