<svg xmlns="http://www.w3.org/2000/svg" viewBox="0 0 16 16"><style>.icon-canvas-transparent{opacity:0;fill:#f6f6f6}.icon-vs-out{fill:#f6f6f6}.icon-vs-bg{fill:#424242}.icon-vs-fg{fill:#f0eff1}</style><path class="icon-canvas-transparent" d="M16 16H0V0h16v16z" id="canvas"/><path class="icon-vs-out" d="M16 16H0V0h16v16z" id="outline"/><path class="icon-vs-fg" d="M2 2h9.894l-.884.888V2.74H8.004v5.263H9V12H4V8h4V6H3v7h7V8.002h3.23V5.006h-.09l.86-.862V14H2V2z" id="iconFg"/><path class="icon-vs-bg" d="M10 8H9v4H4V8h4V6H3v7h7V8zM1 1v14h14V1H1zm13 13H2V2h12v12zm-3.263-8.003l1.493.005v1H9.003V3.74h1.009l.005 1.562 2.135-2.145.71.71-2.125 2.13z" id="iconBg"/></svg>