<svg xmlns="http://www.w3.org/2000/svg" viewBox="0 0 16 16"><style>.icon-canvas-transparent{opacity:0;fill:#f6f6f6}.icon-vs-out{fill:#f6f6f6}.icon-vs-bg{fill:#424242}.icon-vs-fg{fill:#f0eff1}.icon-vs-blue{fill:#1ba1e2}</style><path class="icon-canvas-transparent" d="M16 16H0V0h16v16z" id="canvas"/><path class="icon-vs-out" d="M16 0v13.5c0 1.426-1.505 2.5-3.5 2.5S9 14.926 9 13.5V12H2V0h14z" id="outline"/><path class="icon-vs-bg" d="M5 8.207l1.446-1.446L7.601 8.3a.485.485 0 0 0 .42.2.5.5 0 0 0 .403-.234L11.028 4.9 13 7.66v.374c-.164-.016-.327-.034-.5-.034-1.19 0-2.198.388-2.824 1H5v-.793zM6.899 5.7l1.063 1.417 2.614-3.382a.5.5 0 0 1 .831-.026L13 5.94V3H5v3.793l1.146-1.146a.494.494 0 0 1 .39-.145c.145.01.277.082.363.198zM3 1v10h6v-.5c0-.172.024-.339.066-.5H4V2h10v6.232c.375.121.716.282 1 .485V1H3z" id="iconBg"/><path class="icon-vs-fg" d="M5 8.207l1.446-1.446L7.601 8.3a.485.485 0 0 0 .42.2.5.5 0 0 0 .403-.234L11.028 4.9 13 7.66v.374a4.7 4.7 0 0 1 1 .199V2H4v8h5.066c.099-.375.314-.711.61-1H5v-.793zM5 3h8v2.94l-1.593-2.23a.498.498 0 0 0-.831.026L7.962 7.117 6.899 5.7a.497.497 0 0 0-.753-.054L5 6.793V3zm9.425 7.5c0 .428-.841.925-1.925.925s-1.925-.497-1.925-.925.841-.925 1.925-.925 1.925.497 1.925.925z" id="iconFg"/><path class="icon-vs-blue" d="M12.5 9c-1.381 0-2.5.672-2.5 1.5v3c0 .828 1.119 1.5 2.5 1.5s2.5-.672 2.5-1.5v-3c0-.828-1.119-1.5-2.5-1.5zm0 2.425c-1.084 0-1.925-.497-1.925-.925s.841-.925 1.925-.925 1.925.497 1.925.925-.841.925-1.925.925z" id="colorImportance"/></svg>