<svg xmlns="http://www.w3.org/2000/svg" viewBox="0 0 16 16"><style>.icon-canvas-transparent{opacity:0;fill:#f6f6f6}.icon-vs-out{fill:#f6f6f6}.icon-vs-bg{fill:#424242}.icon-vs-fg{fill:#f0eff1}.icon-white{fill:#fff}.icon-vs-red{fill:#e51400}.st0{fill:none}</style><path class="icon-canvas-transparent" d="M0 0h16v16H0z" id="canvas"/><path class="icon-vs-out" d="M16 11.5c0-1.953-1.258-3.602-3-4.224V4.379L8.621 0H0v16h13v-.276c1.742-.622 3-2.271 3-4.224z" id="outline"/><path class="icon-vs-bg" d="M7.762 14H2V2h5v4h4v1.051c.166-.019.329-.051.5-.051s.334.032.5.051V4.793L8.207 1H1v14h7.706a4.504 4.504 0 0 1-.944-1zM8 2.207L10.793 5H8V2.207z" id="iconBg"/><path class="icon-vs-fg" d="M7.762 14H2V2h5v4h4v1.051C8.756 7.303 7 9.19 7 11.5c0 .925.282 1.784.762 2.5zM8 2.183V5h2.841L8 2.183z" id="iconFg"/><path class="icon-vs-red" d="M11.5 8a3.5 3.5 0 1 0 0 7 3.5 3.5 0 0 0 0-7zm1.854 4.646l-.707.707-1.147-1.146-1.146 1.147-.707-.707 1.147-1.146-1.147-1.146.707-.707 1.146 1.147 1.146-1.147.707.707-1.146 1.145 1.147 1.146z" id="notificationBg"/><g id="notificationFg"><path class="st0" d="M11 2.207V5h2.793z"/><path class="icon-white" d="M13.354 10.354l-.708-.708-1.146 1.147-1.146-1.147-.708.708 1.147 1.146-1.147 1.146.708.708 1.146-1.147 1.146 1.147.708-.708-1.147-1.146z"/></g></svg>