<svg xmlns="http://www.w3.org/2000/svg" viewBox="0 0 16 16"><style>.icon-canvas-transparent{opacity:0;fill:#f6f6f6}.icon-vs-out{fill:#f6f6f6}.icon-vs-bg{fill:#424242}.icon-vs-fg{fill:#f0eff1}</style><g id="canvas"><path class="icon-canvas-transparent" d="M16 16H0V0h16v16z"/><path class="icon-canvas-transparent" d="M16 16H0V0h16v16z"/></g><path class="icon-vs-out" d="M15 16H2V0h8.621L15 4.379V16z" id="outline"/><path class="icon-vs-bg" d="M3 1v14h11V4.793L10.207 1H3zm10 13H4V2h5v4h4v8zm-3-9V2.207L12.793 5H10zm-3.066 7c-1 0-1.5-.702-1.5-2.106 0-.729.135-1.283.406-1.666.27-.381.662-.573 1.176-.573.977 0 1.465.714 1.465 2.142 0 .711-.133 1.256-.4 1.635S7.432 12 6.934 12zm.041-3.639c-.4 0-.601.503-.601 1.509 0 .947.196 1.421.589 1.421.383 0 .574-.488.574-1.465s-.187-1.465-.562-1.465zM11 7.632v4.295h-.923V8.675a1.06 1.06 0 0 1-.18.127 1.906 1.906 0 0 1-.713.239v-.779a3.906 3.906 0 0 0 1.257-.63H11z" id="iconBg"/><g id="iconFg"><path class="icon-vs-fg" d="M6.975 8.361c-.4 0-.601.503-.601 1.509 0 .947.196 1.421.589 1.421.383 0 .574-.488.574-1.465s-.187-1.465-.562-1.465z"/><path class="icon-vs-fg" d="M9 6V2H4v12h9V6H9zm-.919 5.432c-.267.379-.649.568-1.147.568-1 0-1.5-.702-1.5-2.106 0-.729.135-1.283.406-1.666.27-.381.662-.573 1.176-.573.977 0 1.465.714 1.465 2.142-.001.711-.134 1.256-.4 1.635zm2.919.495h-.923V8.675a1.06 1.06 0 0 1-.18.127 1.906 1.906 0 0 1-.713.239v-.779a3.906 3.906 0 0 0 1.257-.63H11v4.295z"/><path class="icon-vs-fg" d="M6.975 8.361c-.4 0-.601.503-.601 1.509 0 .947.196 1.421.589 1.421.383 0 .574-.488.574-1.465s-.187-1.465-.562-1.465z"/><path class="icon-vs-fg" d="M9 6V2H4v12h9V6H9zm-.919 5.432c-.267.379-.649.568-1.147.568-1 0-1.5-.702-1.5-2.106 0-.729.135-1.283.406-1.666.27-.381.662-.573 1.176-.573.977 0 1.465.714 1.465 2.142-.001.711-.134 1.256-.4 1.635zm2.919.495h-.923V8.675a1.06 1.06 0 0 1-.18.127 1.906 1.906 0 0 1-.713.239v-.779a3.906 3.906 0 0 0 1.257-.63H11v4.295z"/></g></svg>