<svg xmlns="http://www.w3.org/2000/svg" viewBox="0 0 16 16"><defs><style>.icon-canvas-transparent,.icon-vs-out{fill:#f6f6f6;}.icon-canvas-transparent{opacity:0;}.icon-vs-bg{fill:#424242;}.icon-vs-action-blue{fill:#00539c;}</style></defs><title>DebugSelection_16x</title><g id="canvas"><path class="icon-canvas-transparent" d="M16,0V16H0V0Z"/></g><g id="outline"><path class="icon-vs-out" d="M15,1V16H2V7.5L1.333,8H0V0H1.333L2.667,1Z"/></g><g id="iconBg"><path class="icon-vs-bg" d="M14,2V15H3V6.75L4,6v8h9V3H5.333L4,2ZM7,7V5H6V4h5V5H10V7l2,3.5L11,12H6L5,10.5Zm.032,2H9.968l-.8-1.445L9,7.3V5H8V7.3l-.168.252Z"/></g><g id="colorAction"><path class="icon-vs-action-blue" d="M5,4,1,7V1Z"/></g></svg>