<svg xmlns="http://www.w3.org/2000/svg" viewBox="0 0 16 16"><style>.icon-canvas-transparent{opacity:0;fill:#f6f6f6}.icon-vs-out{fill:#f6f6f6}.icon-vs-bg{fill:#424242}.icon-vs-fg{fill:#f0eff1}.st0{fill:#424242}</style><path class="icon-canvas-transparent" d="M16 16H0V0h16v16z" id="canvas"/><path class="icon-vs-out" d="M15 16H2V0h8.621L15 4.379V16z" id="outline"/><g id="iconBg"><path class="st0" d="M10 9h1v1h-1z"/><path class="icon-vs-bg" d="M3 1v14h11V4.793L10.207 1H3zm10 13H4V2h5v4h4v8zm-3-9V2.207L12.793 5H10zM7 8H5V7h2v1zm4-1H8v1h3V7zM9 9H6v1h3V9zm1 2H6v2h4v-2z"/></g><path class="icon-vs-fg" d="M12.793 5H10V2.207L12.793 5zM13 6v8H4V2h5v4h4zM5 8h2V7H5v1zm1 1v1h3V9H6zm4 2H6v2h4v-2zm1-2h-1v1h1V9zm0-2H8v1h3V7z" id="iconFg"/></svg>