<svg xmlns="http://www.w3.org/2000/svg" viewBox="0 0 16 16"><style>.icon-canvas-transparent{opacity:0;fill:#f6f6f6}.icon-vs-out{fill:#f6f6f6}.icon-vs-bg{fill:#424242}.icon-vs-action-blue{fill:#00539c}</style><path class="icon-canvas-transparent" d="M16 16H0V0h16v16z" id="canvas"/><path class="icon-vs-out" d="M16 8a3 3 0 0 1-.413 1.503l-.289.497H14v2h-2v1h1v3H6v-6H4.702l-.289-.497A3 3 0 0 1 4 8c0-.16.023-.314.047-.467l-.69.69L0 4.927V2.119L2.159 0h2.374l.939.939-1.084 1.084h3.608V5H13c1.654 0 3 1.346 3 3z" id="outline"/><path class="icon-vs-bg" d="M7 10h6v1H7v-1zm0 2v1h4v-1H7zm0 3h5v-1H7v1zm6-9H7a2 2 0 0 0-2 2c0 .366.105.705.277 1H8V7h4v2h2.723c.171-.295.277-.634.277-1a2 2 0 0 0-2-2z" id="iconBg"/><path class="icon-vs-action-blue" d="M6.996 3.023v1.001H1.974l2.084 2.084-.707.707L0 3.526V3.52L3.351.232l.707.707-2.084 2.084h5.022z" id="colorAction"/></svg>