<svg xmlns="http://www.w3.org/2000/svg" viewBox="0 0 16 16"><style>.icon-canvas-transparent{opacity:0;fill:#f6f6f6}.icon-vs-out{fill:#f6f6f6}.icon-vs-bg{fill:#424242}.icon-vs-fg{fill:#f0eff1}.icon-vs-action-blue{fill:#00539c}</style><path class="icon-canvas-transparent" d="M16 16H0V0h16v16z" id="canvas"/><path class="icon-vs-out" d="M4.563 13H1V4h2.532l-.298-.298 2.12-2.12L6.485 2.71V.031h3v2.696l1.148-1.145 2.119 2.119-.298.299H15v9h-3.572l-2.989 3h-.877l-2.999-3z" id="outline"/><path class="icon-vs-bg" d="M14 5v7h-1.576l.329-.331-.67-.669H13V6h-2.538l.996-1H14zM3.234 11.671l.67-.671H3V6h2.532l-1-1H2v7h1.563l-.329-.329z" id="iconBg"/><path class="icon-vs-fg" d="M3.904 11H3V6h2.532l1.999 2H6.485v2.679L5.354 9.551 3.904 11zm6.558-5L8.47 8h1.016v2.695l1.148-1.145 1.45 1.45H13V6h-2.538z" id="iconFg"/><path class="icon-vs-action-blue" d="M10.633 10.964l.707.707L8 15.023l-3.352-3.352.707-.707 2.13 2.122V9h1v4.104l2.148-2.14zm.707-7.262l-.707-.707-2.148 2.14V1.031h-1v4.086l-2.13-2.122-.707.707L8 7.055l3.34-3.353z" id="colorAction"/></svg>