<svg xmlns="http://www.w3.org/2000/svg" viewBox="0 0 16 16"><defs><style>.icon-canvas-transparent,.icon-vs-out{fill:#f6f6f6;}.icon-canvas-transparent{opacity:0;}.icon-vs-bg{fill:#424242;}</style></defs><title>Rectangularscreenshot_16x</title><g id="canvas"><path class="icon-canvas-transparent" d="M16,16H0V0H16Z"/></g><g id="outline"><path class="icon-vs-out" d="M16,13H12v3H0V7H1V0H16Z"/></g><g id="iconBg"><path class="icon-vs-bg" d="M7.5,11.5A1.5,1.5,0,1,1,6,10,1.5,1.5,0,0,1,7.5,11.5ZM8.642,8H11v7H1V8H3.346L4.06,7H7.928ZM3,9H2v1H3Zm5.5,2.5A2.5,2.5,0,1,0,6,14,2.5,2.5,0,0,0,8.5,11.5ZM5,1H4V2H5ZM7,1H6V2H7ZM9,1H8V2H9ZM3,1H2V2H3ZM3,5H2V6H3ZM3,3H2V4H3Zm11,7h1V9H14Zm0-4h1V5H14Zm0-2h1V3H14Zm0,4h1V7H14Zm0-7V2h1V1ZM10,2h1V1H10Zm4,10h1V11H14Zm-2,0h1V11H12ZM12,2h1V1H12Z"/></g></svg>