<svg xmlns="http://www.w3.org/2000/svg" viewBox="0 0 16 16"><defs><style>.icon-canvas-transparent,.icon-vs-out{fill:#f6f6f6;}.icon-canvas-transparent{opacity:0;}.icon-vs-red{fill:#e51400;}.icon-white{fill:#fff;}</style></defs><title>StatusSecurityCritical_16x</title><path class="icon-canvas-transparent" d="M16,0V16H0V0Z"/><path class="icon-vs-out" d="M8.275,15.922,8,16l-.275-.078C1.608,14.172.7,7.34,1.072,3.971l.06-.534L8,0l6.868,3.437.059.534C15.3,7.34,14.392,14.172,8.275,15.922Z"/><path class="icon-vs-red" d="M13.951,4,8,1,2.049,4S1.058,13,8,15C14.942,13,13.951,4,13.951,4Zm-2.582,6.131-1.238,1.238L8,9.238,5.869,11.369,4.631,10.131,6.762,8,4.631,5.869,5.869,4.631,8,6.762l2.131-2.131,1.238,1.237L9.238,8Z"/><path class="icon-white" d="M9.238,8l2.131,2.131-1.238,1.238L8,9.238,5.869,11.369,4.631,10.131,6.762,8,4.631,5.869,5.869,4.631,8,6.762l2.131-2.131,1.238,1.237Z"/></svg>