<svg xmlns="http://www.w3.org/2000/svg" viewBox="0 0 16 16"><style>.icon-canvas-transparent{opacity:0;fill:#f6f6f6}.icon-vs-out{fill:#f6f6f6}.icon-vs-bg{fill:#424242}.icon-vs-fg{fill:#f0eff1}</style><path class="icon-canvas-transparent" d="M16 16H0V0h16v16z" id="canvas"/><g id="iconBg"><path class="icon-vs-out" d="M1.999 16l.017-13.071L2 2V0h8.621L15 4.379V16H1.999zM12 13V7H8V3H5v10h7z"/><path class="icon-vs-bg" d="M5 12h1v1H5v-1zm4 0h1v1H9v-1zm-2 0h1v1H7v-1zm4 0h1v1h-1v-1zm-4-2h1v1H7v-1zm4 0h1v1h-1v-1zm-2 0h1v1H9v-1zm-4 0h1v1H5v-1zm2-6H6v3L5 6v1.5L6.5 9 8 7.5V6L7 7V4zm3.207-3H3v1h.017L3 15h11V4.793L10.207 1zM10 2.207L12.793 5H10V2.207zM13 14H4V2h5v4h4v8z"/></g><path class="icon-vs-fg" d="M9 6V2H4v12h9V6H9zm-3 7H5v-1h1v1zm0-2H5v-1h1v1zm2 2H7v-1h1v1zm0-2H7v-1h1v1zm0-3.5L6.5 9 5 7.5V6l1 1V4h1v3l1-1v1.5zm2 5.5H9v-1h1v1zm0-2H9v-1h1v1zm2 2h-1v-1h1v1zm0-2h-1v-1h1v1zm1-6h-3V2l3 3z" id="iconFg"/></svg>