<svg xmlns="http://www.w3.org/2000/svg" viewBox="0 0 16 16"><defs><style>.icon-canvas-transparent,.icon-vs-out{fill:#f6f6f6;}.icon-canvas-transparent{opacity:0;}.icon-vs-bg{fill:#424242;}.icon-vs-action-blue{fill:#00569c;}</style></defs><title>Repair_16x</title><g id="canvas"><path class="icon-canvas-transparent" d="M16,0V16H0V0Z"/></g><g id="outline"><path class="icon-vs-out" d="M15.984,12.7A3.295,3.295,0,0,1,12.7,15.984h-.015a3.276,3.276,0,0,1-2.144-.792l-.006.006-.882-.866.008-.008L6.086,10.75h0l-1.3-1.3.65-.648-.651-.65L5.436,7.5,3.791,5.855,2.506,5.712,0,1.953V1.236L1.236,0h.717L5.712,2.506l.143,1.285L7.5,5.436l.651-.65.649.65.649-.65,1.3,1.3h0l3.574,3.577.008-.008.866.883-.006,0A3.271,3.271,0,0,1,15.984,12.7Z"/></g><g id="iconBg"><path class="icon-vs-bg" d="M10.1,6.85,6.85,10.1l-.65-.65.65-.65-.65-.65L6.85,7.5,4.25,4.9,3.08,4.77,1,1.65,1.65,1,4.77,3.08,4.9,4.25l2.6,2.6.65-.65.65.65.65-.65Z"/><path class="icon-vs-action-blue" d="M14.984,12.7a2.3,2.3,0,0,1-3.909,1.629l3.25-3.25A2.3,2.3,0,0,1,14.984,12.7Zm-1.2-2.16L10.75,7.5,9.589,8.661,12.624,11.7ZM8.661,9.589,7.5,10.75l3.036,3.035L11.7,12.624Z"/></g></svg>