<svg xmlns="http://www.w3.org/2000/svg" viewBox="0 0 16 16"><style>.icon-canvas-transparent{opacity:0;fill:#f6f6f6}.icon-vs-out{fill:#f6f6f6}.icon-vs-bg{fill:#424242}.icon-vs-fg{fill:#f0eff1}</style><path class="icon-canvas-transparent" d="M16 16H0V0h16v16z" id="canvas"/><path class="icon-vs-out" d="M15 16H1V0h9.621L15 4.379V16z" id="outline"/><path class="icon-vs-bg" d="M2 1v14h12V4.793L10.207 1H2zm11 13H3V2h6v4h4v8zm-3-9V2.207L12.793 5H10zM4 7h2v2H4V7zm0-4h2v2H4V3zm3 8h2v2H7v-2zm-3 0h2v2H4v-2zm6 0h2v2h-2v-2zM7 7h2v2H7V7z" id="iconBg"/><g id="iconFg"><path class="icon-vs-fg" d="M10 2.207V5h2.793z"/><path class="icon-vs-fg" d="M9 6V2H3v12h10V6H9zm-3 7H4v-2h2v2zm0-4H4V7h2v2zm0-4H4V3h2v2zm3 8H7v-2h2v2zm0-4H7V7h2v2zm3 4h-2v-2h2v2z"/><path class="icon-vs-fg" d="M10 2.207V5h2.793z"/><path class="icon-vs-fg" d="M9 6V2H3v12h10V6H9zm-3 7H4v-2h2v2zm0-4H4V7h2v2zm0-4H4V3h2v2zm3 8H7v-2h2v2zm0-4H7V7h2v2zm3 4h-2v-2h2v2z"/></g></svg>