<svg xmlns="http://www.w3.org/2000/svg" viewBox="0 0 16 16"><defs><style>.icon-canvas-transparent,.icon-vs-out{fill:#f6f6f6;}.icon-canvas-transparent{opacity:0;}.icon-vs-bg{fill:#424242;}.icon-vs-action-red{fill:#a1260d;}</style></defs><title>DeleteVariables_16x</title><g id="canvas"><path class="icon-canvas-transparent" d="M0,0H16V16H0Z"/></g><g id="outline"><path class="icon-vs-out" d="M16,11.159v.261l-.42.68A4.827,4.827,0,0,1,14.3,13.563a2.257,2.257,0,0,1-1.308.442,2.068,2.068,0,0,1-1.178-.337,2.373,2.373,0,0,1-.777-.92c-.017-.035-.039-.078-.061-.128-.163.186-.3.339-.395.435a3.469,3.469,0,0,1-.932.729,2.24,2.24,0,0,1-.981.221,1.627,1.627,0,0,1-1.192-.472A1.579,1.579,0,0,1,7,12.373a1.66,1.66,0,0,1,1.683-1.684,1.824,1.824,0,0,1,.733.166c.018-.017.036-.037.056-.058.056-.063.338-.4.6-.716-.178-.632-.311-1.03-.405-1.279A1.436,1.436,0,0,1,9.2,9L8,9.239V8.846H7.827l-.493,1.946a13.971,13.971,0,0,1-1.021,2.992,4.42,4.42,0,0,1-1.391,1.633A3.438,3.438,0,0,1,2.964,16,2.1,2.1,0,0,1,1.6,15.584a1.543,1.543,0,0,1-.079-2.379A1.713,1.713,0,0,1,2.7,12.773a1.742,1.742,0,0,1,.519.076c.043-.159.093-.351.154-.583l.874-3.42H3.4l.653-2.317L4.03,6.505,2.061,8.475,0,6.414V5.586L1.556,4.03,0,2.475V1.646L1.646,0h.829L4.03,1.556,5.586,0h.828L8.475,2.061,6.505,4.03l.093.093.08-.059.1-.071A3.6,3.6,0,0,1,8.919,3.31a2.19,2.19,0,0,1,1.463.456,1.768,1.768,0,0,1,.347,2.254h1.3l.295.463c.084.132.163.266.237.4a3.022,3.022,0,0,1,.732-.606,2.123,2.123,0,0,1,1.022-.261,1.663,1.663,0,0,1,1.216,2.8,1.593,1.593,0,0,1-1.152.485,2.6,2.6,0,0,1-.682-.1,2.948,2.948,0,0,0-.215.3c.134.431.273.817.393,1.125l.36-.506Z"/></g><g id="iconBg"><path class="icon-vs-bg" d="M7.33,4.825A2.647,2.647,0,0,1,8.919,4.31a1.245,1.245,0,0,1,.814.217.7.7,0,0,1,.255.56.669.669,0,0,1-.171.483.554.554,0,0,1-.419.178A.529.529,0,0,1,9.013,5.6a.463.463,0,0,1-.153-.351.624.624,0,0,1,.1-.309.585.585,0,0,0,.1-.222.137.137,0,0,0-.043-.1A.158.158,0,0,0,8.9,4.574.983.983,0,0,0,8.188,5a2.874,2.874,0,0,0-.3.417l-.578-.578ZM4.865,7.34l-.142.506h.648Zm8.283,1.007a.74.74,0,0,1,.467-.175,1.53,1.53,0,0,1,.336.066,1.637,1.637,0,0,0,.429.068.582.582,0,0,0,.432-.178.637.637,0,0,0,.171-.46.652.652,0,0,0-.171-.473.671.671,0,0,0-.5-.175,1.132,1.132,0,0,0-.541.137,2.739,2.739,0,0,0-.644.593q-.291.341-.866,1.187a5.856,5.856,0,0,0-.784-1.917H9v1c.152-.031.685-.472.789-.472a.608.608,0,0,1,.5.263,9.713,9.713,0,0,1,.877,2.49c-.292.393-.848,1.053-.957,1.175a1.756,1.756,0,0,1-.444.379.644.644,0,0,1-.3.071,1.146,1.146,0,0,1-.418-.141.868.868,0,0,0-.358-.093A.659.659,0,0,0,8,12.373a.6.6,0,0,0,.179.456.648.648,0,0,0,.482.176,1.255,1.255,0,0,0,.548-.122,2.6,2.6,0,0,0,.646-.524c.259-.267.971-1.093,1.427-1.674a14.391,14.391,0,0,0,.64,1.61,1.4,1.4,0,0,0,.441.543,1.1,1.1,0,0,0,.622.167,1.28,1.28,0,0,0,.738-.263,3.9,3.9,0,0,0,1-1.169l-.21-.123a3.131,3.131,0,0,1-.52.615.457.457,0,0,1-.263.075.471.471,0,0,1-.356-.228A11.379,11.379,0,0,1,12.4,9.37,3.655,3.655,0,0,1,13.148,8.347ZM7.312,7.163,6,8.475l-.5-.5-1.16,4.54q-.3,1.15-.4,1.419a1.679,1.679,0,0,1-.462.667.423.423,0,0,1-.3.111.131.131,0,0,1-.083-.029l-.029-.04c0-.021.029-.06.087-.121a.381.381,0,0,0,.088-.277.452.452,0,0,0-.139-.34.559.559,0,0,0-.4-.133.725.725,0,0,0-.509.174A.541.541,0,0,0,2,14.363a.561.561,0,0,0,.233.447,1.155,1.155,0,0,0,.731.19,2.446,2.446,0,0,0,1.4-.412A3.439,3.439,0,0,0,5.43,13.316a13.316,13.316,0,0,0,.935-2.769l.684-2.7h.825l.2-.683Z"/></g><g id="colorAction"><path class="icon-vs-action-red" d="M5.091,4.03,7.061,6,6,7.06,4.03,5.091,2.061,7.06,1,6,2.97,4.03,1,2.06,2.061,1,4.03,2.97,6,1,7.061,2.06Z"/></g></svg>