<svg xmlns="http://www.w3.org/2000/svg" viewBox="0 0 16 16"><defs><style>.icon-canvas-transparent,.icon-vs-out{fill:#f6f6f6;}.icon-canvas-transparent{opacity:0;}.icon-vs-bg{fill:#424242;}.icon-vs-red{fill:#e51400;}.icon-white{fill:#fff;}</style></defs><title>XMLSchemaError_16x</title><path class="icon-canvas-transparent" d="M16,16H0V0H16Z"/><path class="icon-vs-out" d="M15.949,11A4.49,4.49,0,0,0,11.5,7c-.033,0-.063.009-.1.01L14.414,4,11,.586,9.086,2.5l1.5,1.5-1,1H7.415l-1-1,1.5-1.5L6,.586,2.586,4,6,7.414l1-1V8H3v3H1v5H8V14.294a4.521,4.521,0,0,0,1,.945V16h7V11Z"/><path class="icon-vs-bg" d="M6,6,4,4,6,2l.5.5L5,4,6.5,5.5ZM8,8.708a4.52,4.52,0,0,1,1-.945V6H8ZM10.5,2.5,12,4,10.5,5.5,11,6l2-2L11,2ZM4,12H2v3H7V12H5V10H7.276a4.488,4.488,0,0,1,.485-1H4Zm10.294,3H15v-.705A4.509,4.509,0,0,1,14.294,15Z"/><path class="icon-vs-red" d="M11.5,8A3.5,3.5,0,1,0,15,11.5,3.5,3.5,0,0,0,11.5,8Zm1.854,4.647-.707.707L11.5,12.207l-1.146,1.146-.707-.707L10.793,11.5,9.646,10.354l.707-.707L11.5,10.793l1.146-1.147.707.707L12.207,11.5Z"/><path class="icon-white" d="M12.207,11.5l1.146,1.146-.707.707L11.5,12.207l-1.146,1.146-.707-.707L10.793,11.5,9.646,10.354l.707-.707L11.5,10.793l1.146-1.147.707.707Z"/></svg>