<svg xmlns="http://www.w3.org/2000/svg" viewBox="0 0 16 16"><defs><style>.icon-canvas-transparent,.icon-vs-out{fill:#f6f6f6;}.icon-canvas-transparent{opacity:0;}.cls-1{fill:#424242;}.cls-2{fill:#00539c;}</style></defs><title>SyncContent_16x</title><g id="canvas"><path class="icon-canvas-transparent" d="M16,16H0V0H16Z"/></g><g id="outline"><polygon class="icon-vs-out" points="10.621 0 2 0 2 8.991 1.49 8.991 1.49 11.503 0.013 13.051 0.013 13.937 2 15.981 2 16 15 16 15 4.379 10.621 0"/></g><g id="iconBg"><rect class="cls-1" x="4" y="7" width="1" height="1"/><rect class="cls-1" x="6" y="7" width="1" height="1"/><rect class="cls-1" x="8" y="7" width="1" height="1"/><rect class="cls-1" x="10" y="7" width="1" height="1"/><rect class="cls-1" x="10" y="9" width="1" height="1"/><rect class="cls-1" x="10" y="11" width="1" height="1"/><rect class="cls-1" x="10" y="13" width="1" height="1"/><path class="cls-1" d="M10.207,1H3V8.991H4V8.914L3.989,8.9,4,8.894V2H9V6h4v8H7.491v.991H4.9l0,.005,0,0H14V4.793ZM10,5V2.207L12.793,5ZM5,8H4V7H5ZM7,8H6V7H7ZM9,8H8V7H9Zm2,0H10V7h1Zm0,2H10V9h1Zm0,2H10V11h1Zm0,2H10V13h1Z"/></g><g id="colorAction"><polygon class="cls-2" points="2.985 11.384 3.49 11.991 2.49 12.991 6.491 12.991 6.491 13.991 2.49 13.991 3.49 14.991 2.95 15.524 0.974 13.491 2.985 11.384"/><polygon class="cls-2" points="6.099 12.516 7.973 10.491 6.134 8.482 5.491 8.991 6.491 9.991 2.49 9.991 2.49 10.991 6.491 10.991 5.491 11.991 6.099 12.516"/><polygon class="cls-2" points="2.985 11.384 3.49 11.991 2.49 12.991 6.491 12.991 6.491 13.991 2.49 13.991 3.49 14.991 2.95 15.524 0.974 13.491 2.985 11.384"/><polygon class="cls-2" points="6.099 12.516 7.973 10.491 6.134 8.482 5.491 8.991 6.491 9.991 2.49 9.991 2.49 10.991 6.491 10.991 5.491 11.991 6.099 12.516"/></g></svg>