<svg xmlns="http://www.w3.org/2000/svg" viewBox="0 0 16 16"><style>.icon-canvas-transparent{opacity:0;fill:#f6f6f6}.icon-vs-out{fill:#f6f6f6}.icon-vs-bg{fill:#424242}.icon-vs-fg{fill:#f0eff1}</style><path class="icon-canvas-transparent" d="M16 0v16H0V0h16z" id="canvas"/><path class="icon-vs-out" d="M15.742 2.682a3.86 3.86 0 0 0-.853-1.466A3.727 3.727 0 0 0 13.433.28c-.54-.195-1.17-.293-1.873-.293a6.79 6.79 0 0 0-1.089.091c-.353.058-.688.131-1.015.217-.331.09-.627.188-.89.293a4.19 4.19 0 0 0-.706.346l-.461.295v3.696c-.079-.007-.161-.019-.236-.019-.647 0-1.203.241-1.662.721a2.218 2.218 0 0 0-1.663-.721 2.451 2.451 0 0 0-2.015 1.037A2.46 2.46 0 0 0 1.395 7H0v9h11v-4.75a3.98 3.98 0 0 0 1.086-.291V11H16V4.461a5.75 5.75 0 0 0-.258-1.779z" id="outline"/><path class="icon-vs-fg" d="M2 9h3v5H2V9zm4 0v5h3V9H6z" id="iconFg"/><g id="iconBg"><path class="icon-vs-bg" d="M15 4.461V10h-1.914V8.872h-.102c-.3.469-.67.827-1.106 1.072a2.836 2.836 0 0 1-.878.296V8.723c.304-.003.58-.057.825-.167.253-.113.468-.267.646-.461.181-.193.319-.421.417-.681.099-.261.149-.542.149-.843v-.798l-1.92.251c-.33.041-.6.101-.809.183-.206.081-.37.182-.488.303a.985.985 0 0 0-.237.399 2.472 2.472 0 0 0-.975-1.533c.152-.109.321-.207.508-.294.368-.171.81-.288 1.325-.352l2.597-.356c0-.637-.146-1.099-.44-1.385-.293-.287-.707-.43-1.245-.43-.538 0-1.065.09-1.581.269-.515.179-.973.42-1.372.721V1.777c.127-.081.308-.168.538-.26.232-.093.492-.178.782-.257.29-.077.593-.143.912-.195.318-.052.629-.078.929-.078.592 0 1.102.078 1.533.234a2.71 2.71 0 0 1 1.068.682c.28.298.49.662.63 1.09.139.428.208.918.208 1.468zM8.475 8H10v7H1V8h1.525a1.338 1.338 0 0 1-.136-.388 1.463 1.463 0 0 1 1.197-1.685c1.037-.169 1.473.721 1.641 1.058.041.082.149.321.273.598.124-.277.232-.516.274-.6.168-.335.605-1.224 1.64-1.056a1.464 1.464 0 0 1 1.197 1.687A1.336 1.336 0 0 1 8.475 8zm-5.1-.555c.008.047.031.187.285.36.08.054.204.123.339.195h.593a21.326 21.326 0 0 0-.259-.566c-.285-.571-.443-.545-.579-.521a.461.461 0 0 0-.379.532zM5 9H2v5h3V9zm1.409-1h.593a4.23 4.23 0 0 0 .339-.196c.253-.172.276-.312.284-.357a.462.462 0 0 0-.379-.533c-.135-.025-.294-.05-.578.518-.041.08-.142.307-.259.568zM6 9v5h3V9H6z"/></g></svg>