<svg xmlns="http://www.w3.org/2000/svg" viewBox="0 0 16 16"><defs><style>.icon-canvas-transparent,.icon-vs-out{fill:#f6f6f6;}.icon-canvas-transparent{opacity:0;}.icon-vs-blue{fill:#1ba1e2;}</style></defs><title>PublishAllWebsites_16x</title><g id="canvas"><path class="icon-canvas-transparent" d="M16,16H0V0H16Z"/></g><g id="outline"><path class="icon-vs-out" d="M7,15A7,7,0,1,1,11.767,2.887l.444.415.2-.2L16,6.576V11.46L13.877,9.311A7.012,7.012,0,0,1,7,15Z"/></g><g id="iconBg"><path class="icon-vs-blue" d="M12.431,4.512l-2.4,2.482L10,9l2-1.995v1.46a5.017,5.017,0,0,1-3.55,4.3,11.776,11.776,0,0,0,.518-1.386l.065-4.793L10.06,5.523c-.268.08-.534.165-.807.225a11.943,11.943,0,0,0-.79-2.5,5.016,5.016,0,0,1,1.914,1.1l.707-.73A5.991,5.991,0,1,0,13,8V7l2,2.024V7ZM8.409,9.38a10.894,10.894,0,0,1-2.818,0A10.564,10.564,0,0,1,5.5,8a10.482,10.482,0,0,1,.072-1.093A11.648,11.648,0,0,0,7,7a11.677,11.677,0,0,0,1.429-.093A10.481,10.481,0,0,1,8.5,8,10.579,10.579,0,0,1,8.409,9.38ZM7.238,3.023A10.535,10.535,0,0,1,8.269,5.915a10.667,10.667,0,0,1-2.538,0A10.54,10.54,0,0,1,6.762,3.024C6.842,3.02,6.918,3,7,3S7.157,3.019,7.238,3.023Zm-1.7.22a11.869,11.869,0,0,0-.793,2.505,10.45,10.45,0,0,1-1.844-.6A5.006,5.006,0,0,1,5.54,3.243ZM4.577,9.186a10.311,10.311,0,0,1-2.553-.947C2.02,8.158,2,8.082,2,8a4.956,4.956,0,0,1,.411-1.976,11.481,11.481,0,0,0,2.172.714A11.542,11.542,0,0,0,4.5,8,11.727,11.727,0,0,0,4.577,9.186Zm-2.334.275a11.9,11.9,0,0,0,2.5.792,11.858,11.858,0,0,0,.792,2.5A4.987,4.987,0,0,1,2.243,9.461Zm4.529,3.516A10.554,10.554,0,0,1,5.8,10.421,11.5,11.5,0,0,0,7,10.5a11.477,11.477,0,0,0,1.2-.079,10.523,10.523,0,0,1-.976,2.557c-.077,0-.149.022-.226.022S6.849,12.98,6.772,12.977Z"/></g></svg>