<svg xmlns="http://www.w3.org/2000/svg" viewBox="0 0 16 16"><defs><style>.icon-canvas-transparent,.icon-vs-out{fill:#f6f6f6;}.icon-canvas-transparent{opacity:0;}.icon-vs-bg{fill:#424242;}</style></defs><title>DynamicPhone_16x</title><g id="canvas"><path class="icon-canvas-transparent" d="M16,0V16H0V0Z"/></g><g id="outline"><path class="icon-vs-out" d="M14,2V14a2,2,0,0,1-2,2H5a1.97,1.97,0,0,1-.916-.233L3.852,16H3.066L0,12.934v-.868l3-3V2A2,2,0,0,1,5,0h7A2,2,0,0,1,14,2Z"/></g><g id="iconBg"><path class="icon-vs-bg" d="M10.02,12.5,7.541,14.979l-.707-.708L8.105,13H2.9l1.271,1.271-.707.708L.98,12.5l2.479-2.479.707.708L2.9,12h5.21L6.834,10.729l.707-.708ZM12,1H5A1,1,0,0,0,4,2V9H5V2h7V14H10v1h2a1,1,0,0,0,1-1V2A1,1,0,0,0,12,1Z"/></g></svg>