<svg xmlns="http://www.w3.org/2000/svg" viewBox="0 0 16 16"><style>.icon-canvas-transparent{opacity:0;fill:#f6f6f6}.icon-vs-out{fill:#f6f6f6}.icon-vs-bg{fill:#424242}.icon-white{fill:#fff}.icon-vs-red{fill:#e51400}.icon-vs-action-blue{fill:#00539c}</style><path class="icon-canvas-transparent" d="M16 16H0V0h16v16z" id="canvas"/><path class="icon-vs-out" d="M15.251 8.608l-.142.231c.553.747.891 1.662.891 2.661 0 2.481-2.019 4.5-4.5 4.5-1.914 0-3.542-1.206-4.191-2.895l-.602.602c-.123.123-.786.737-1.744.737-.425 0-1.061-.128-1.67-.737-1.252-1.252-.686-2.728 0-3.414l2.911-2.911c-.011-.037-.02-.076-.03-.114l-2.16 2.208L0 5.374V4.016l1.441-1.441 1.084 1.084V0h2.976v3.658l1.084-1.084.422.422.24-.275A4.994 4.994 0 0 1 11 1c.703 0 1.394.151 2.052.448l1.319.596L11.414 5l.586.586 2.957-2.957.595 1.319C15.85 4.606 16 5.297 16 6c0 .91-.259 1.812-.749 2.608z" id="outline"/><path class="icon-vs-bg" d="M15 6c0 .767-.227 1.476-.601 2.084A4.46 4.46 0 0 0 11.5 7 4.5 4.5 0 0 0 7 11.5c0 .155.03.303.046.454L6 13s-1 1-2 0 0-2 0-2l3.359-3.359a4.145 4.145 0 0 1-.251-.749L8 6V3.38A3.974 3.974 0 0 1 11 2c.586 0 1.139.133 1.641.359L10 5l2 2 2.641-2.641C14.867 4.861 15 5.414 15 6z" id="iconBg"/><path class="icon-vs-action-blue" d="M7.292 4.695l-.707-.707-2.084 2.084V1h-.976v5.072L1.441 3.988l-.707.707 3.279 3.352 3.279-3.352z" id="colorAction"/><path class="icon-vs-red" d="M11.5 8a3.5 3.5 0 1 0 0 7 3.5 3.5 0 0 0 0-7zm1.854 4.646l-.707.707-1.147-1.146-1.146 1.147-.707-.707 1.147-1.146-1.147-1.146.707-.707 1.146 1.147 1.146-1.147.707.707-1.146 1.145 1.147 1.146z" id="notificationBg"/><path class="icon-white" d="M12.207 11.5l1.147 1.146-.707.707-1.147-1.146-1.146 1.147-.707-.707 1.147-1.146-1.147-1.146.707-.707 1.146 1.147 1.146-1.147.707.707-1.146 1.145z" id="notificationFg"/></svg>