<svg xmlns="http://www.w3.org/2000/svg" viewBox="0 0 16 16" enable-background="new 0 0 16 16"><style type="text/css">.icon-canvas-transparent{opacity:0;fill:#F6F6F6;} .icon-vs-out{fill:#F6F6F6;} .icon-vs-bg{fill:#424242;} .icon-vs-fg{fill:#F0EFF1;}</style><path class="icon-canvas-transparent" d="M16 16h-16v-16h16v16z" id="canvas"/><path class="icon-vs-out" d="M4 16c-1.103 0-2-.897-2-2v-9h-1v-3h3c0-1.103.897-2 2-2h3c1.103 0 2 .897 2 2h3v3h-1v9c0 1.103-.897 2-2 2h-7z" id="outline"/><path class="icon-vs-fg" d="M4 4v10h7v-10h-7zm2 8h-1v-6h1v6zm2 0h-1v-6h1v6zm2 0h-1v-6h1v6z" id="iconFg"/><path class="icon-vs-bg" d="M6 12h-1v-6h1v6zm2-6h-1v6h1v-6zm2 0h-1v6h1v-6zm3-3v1h-1v10c0 .552-.448 1-1 1h-7c-.552 0-1-.448-1-1v-10h-1v-1h3v-1c0-.552.448-1 1-1h3c.552 0 1 .448 1 1v1h3zm-7 0h3v-1h-3v1zm5 1h-7v10h7v-10z" id="iconBg"/></svg>