<svg xmlns="http://www.w3.org/2000/svg" viewBox="0 0 16 16"><style>.icon-canvas-transparent{opacity:0;fill:#f6f6f6}.icon-vs-out{fill:#f6f6f6}.icon-vs-fg{fill:#f0eff1}.icon-vs-bg{fill:#424242}</style><path class="icon-canvas-transparent" d="M0 0h16v16H0z" id="canvas"/><path class="icon-vs-out" d="M11.621 0H3v8H0v8h16V4.379z" id="outline"/><path class="icon-vs-bg" d="M11.444 1H4v7h1V2h5v4h4v8H8v1h7V4.624L11.444 1zM11 5V2.207L13.793 5H11zm-9.3 6.275l-.7.933V9h6v2.869L5.826 9.813c-.135-.233-.518-.233-.652 0l-1.717 3.005L2.3 11.275a.374.374 0 0 0-.6 0zm2.126 2.411a.377.377 0 0 1-.303.189.391.391 0 0 1-.323-.15l-1.2-1.6-1 1.333V15h6v-1.619l-1.5-2.625-1.674 2.93z" id="iconBg"/><path class="icon-vs-fg" d="M14 6v8H8V8H5V2h5v4h4zm-3-4v3h3l-3-3z" id="iconFg"/></svg>