<svg xmlns="http://www.w3.org/2000/svg" viewBox="0 0 16 16"><defs><style>.icon-canvas-transparent,.icon-vs-out{fill:#f6f6f6;}.icon-canvas-transparent{opacity:0;}.cls-1{fill:#424242;}.icon-vs-action-blue{fill:#00539c;}</style></defs><title>FTPSites_16x</title><g id="canvas"><path class="icon-canvas-transparent" d="M16,0V16H0V0Z"/></g><g id="outline"><path class="icon-vs-out" d="M16,4.619V8a6.222,6.222,0,0,1-5.4,4.509c-.205.019-.407.03-.612.03-.183,0-.363-.011-.542-.027-.127-.012-.255-.028-.382-.047l-.1-.016c-.061-.01-.123-.03-.184-.042l.093.093L5.371,16H4.836L2.982,14.146,3.129,14H0V11H.629L0,10.371V8.629l2.9-2.9.855.855c-.006-.1-.015-.2-.015-.3A6.245,6.245,0,0,1,16,4.619Z"/></g><g id="iconBg"><path class="cls-1" d="M15.227,6.111a5.247,5.247,0,0,0-10.491.178c0,.152.009.3.023.453.012.135.031.268.053.4v.013A4.869,4.869,0,0,0,5.046,8H6.054a3.909,3.909,0,0,1-.2-.492,15.03,15.03,0,0,0,2.057.482,12.953,12.953,0,0,0,.737,2.4A4.271,4.271,0,0,1,8,10.107v1.02a5.252,5.252,0,0,0,1.126.336l.015,0c.13.021.261.039.395.051.149.013.3.023.45.023.174,0,.345-.01.514-.025a5.251,5.251,0,0,0,4.736-5.225C15.236,6.229,15.229,6.17,15.227,6.111ZM13.548,3.859a8.63,8.63,0,0,1-1.463.371A8.718,8.718,0,0,0,11.4,2.217,4.316,4.316,0,0,1,13.548,3.859ZM9.438,2.016a4.122,4.122,0,0,1,.548-.039c.124,0,.245.007.366.017a8.172,8.172,0,0,1,.916,2.33c-.428.03-.85.033-1.278.03a12.665,12.665,0,0,1-1.3-.083A9.015,9.015,0,0,1,9.438,2.016ZM5.689,6.592c-.007-.1-.015-.2-.015-.3a4.314,4.314,0,0,1,.361-1.726,15.563,15.563,0,0,0,1.726.4c-.032.3-.055.615-.058.943a9.88,9.88,0,0,0,.073,1.227A14.755,14.755,0,0,1,5.689,6.592ZM7.875,4.154a14.216,14.216,0,0,1-1.427-.328A4.323,4.323,0,0,1,8.424,2.273,9.886,9.886,0,0,0,7.875,4.154Zm.737,3.108A9.249,9.249,0,0,1,8.52,5.918c0-.289.023-.566.05-.836a14.123,14.123,0,0,0,1.412.09c.1,0,.2,0,.3,0,.366,0,.737-.012,1.116-.041.029.254.049.513.053.785a6.578,6.578,0,0,1-.157,1.4c-.439.032-.868.037-1.306.034A12.7,12.7,0,0,1,8.612,7.262ZM10.06,10.6c-.025,0-.048,0-.074,0-.127,0-.254-.008-.378-.02A12.835,12.835,0,0,1,8.763,8.1c.392.039.8.064,1.219.068.1,0,.2,0,.3,0,.261,0,.525-.008.79-.022A15.908,15.908,0,0,1,10.06,10.6Zm.964-.127a15.049,15.049,0,0,0,.929-2.4,9.5,9.5,0,0,0,2.164-.551A4.317,4.317,0,0,1,11.024,10.471Zm3.261-3.9a8.8,8.8,0,0,1-2.136.649,6.914,6.914,0,0,0,.12-1.307,8.028,8.028,0,0,0-.056-.867A9.533,9.533,0,0,0,13.95,4.59a4.294,4.294,0,0,1,.349,1.7C14.3,6.383,14.291,6.477,14.285,6.568Z"/></g><g id="colorAction"><path class="icon-vs-action-blue" d="M5.1,10.146l-.708.708L5.543,12H1v1H5.543L4.4,14.146l.708.708L7.457,12.5Zm-1.5,1L2.457,10H7V9H2.457L3.6,7.854,2.9,7.146.543,9.5,2.9,11.854Z"/></g></svg>