<svg xmlns="http://www.w3.org/2000/svg" viewBox="0 0 16 16"><style>.icon-canvas-transparent{opacity:0;fill:#f6f6f6}.icon-vs-out{fill:#f6f6f6}.icon-vs-bg{fill:#424242}.icon-vs-fg{fill:#f0eff1}</style><path class="icon-canvas-transparent" d="M16 16H0V0h16v16z" id="canvas"/><path class="icon-vs-out" d="M16 7.25C16 9.317 14.339 11 12.298 11H9v5H0V8h.306A4.636 4.636 0 0 1 0 6.375C0 3.825 2.046 1.75 4.562 1.75l.105.001A4.945 4.945 0 0 1 8.43 0c2.223 0 4.161 1.508 4.783 3.614C14.826 4.023 16 5.49 16 7.25z" id="outline"/><path class="icon-vs-fg" d="M14.018 7.25c0 .966-.77 1.75-1.719 1.75H9V8h-.797a2.265 2.265 0 0 0-.375-.856 2.272 2.272 0 0 0-1.868-.963c-.563 0-1.051.195-1.459.582a2.05 2.05 0 0 0-1.46-.582c-.121 0-.248.01-.389.033-.236.04-.456.125-.663.232-.001-.024-.007-.046-.007-.07 0-1.45 1.154-2.625 2.579-2.625.379 0 .736.088 1.06.238C6.051 2.829 7.141 2 8.43 2c1.662 0 3.009 1.371 3.009 3.063V5.5h.86c.949 0 1.719.783 1.719 1.75zM2 14h2v-4H2v4zm3 0h2v-4H5v4z" id="iconFg"/><g id="iconBg"><path class="icon-vs-bg" d="M15 7.25C15 8.766 13.788 10 12.298 10H9V9h3.298c.95 0 1.719-.784 1.719-1.75 0-.967-.77-1.75-1.719-1.75h-.86v-.437C11.439 3.371 10.091 2 8.43 2c-1.289 0-2.379.829-2.808 1.988a2.52 2.52 0 0 0-1.061-.238c-1.424 0-2.579 1.175-2.579 2.625 0 .024.006.046.007.07a2.258 2.258 0 0 0-.817.699c-.023.032-.036.067-.057.1A3.663 3.663 0 0 1 1 6.375C1 4.376 2.598 2.75 4.561 2.75c.19 0 .38.016.567.047C5.859 1.695 7.096 1 8.43 1c2.014 0 3.684 1.526 3.953 3.501C13.834 4.547 15 5.763 15 7.25zM7.119 9H8v6H1V9h.881a1.136 1.136 0 0 1-.113-.321 1.285 1.285 0 0 1 1.051-1.48c.911-.148 1.293.633 1.441.929.036.072.131.282.24.525.109-.243.204-.453.241-.527.147-.294.532-1.074 1.44-.927A1.286 1.286 0 0 1 7.232 8.68a1.14 1.14 0 0 1-.113.32zm-4.485-.468c.007.041.027.164.25.316.063.042.159.096.263.152h.547c-.099-.22-.184-.411-.219-.478-.25-.501-.389-.478-.508-.457a.405.405 0 0 0-.333.467zM4 10H2v4h2v-4zm1.307-1h.547c.104-.056.2-.11.262-.153.222-.151.243-.274.25-.314a.406.406 0 0 0-.333-.468c-.118-.022-.258-.044-.507.455-.035.069-.121.26-.219.48zM7 10H5v4h2v-4z"/></g></svg>