<svg xmlns="http://www.w3.org/2000/svg" viewBox="0 0 16 16"><defs><style>.icon-canvas-transparent,.icon-vs-out{fill:#f6f6f6;}.icon-canvas-transparent{opacity:0;}.icon-vs-bg{fill:#424242;}</style></defs><title>LikeDislike_16x</title><g id="canvas"><path class="icon-canvas-transparent" d="M16,16H0V0H16Z"/></g><g id="outline"><path class="icon-vs-out" d="M15.8,10.248a2.334,2.334,0,0,0-1.354-1.169l-.15-.051-1.1-.013.078-.623a2.007,2.007,0,0,0-1.99-2.251A1.932,1.932,0,0,0,11,6.162V0H3.278A2.045,2.045,0,0,0,1.43,1.156C1.011,2.044.141,4.149.118,4.208A1.977,1.977,0,0,0,.2,5.749,2.328,2.328,0,0,0,1.555,6.92l.151.051,1.1.014-.078.623A2,2,0,0,0,4.713,9.857,1.949,1.949,0,0,0,5,9.837V16h7.722a2.043,2.043,0,0,0,1.848-1.157c.4-.844,1.241-2.87,1.313-3.051A1.99,1.99,0,0,0,15.8,10.248ZM8,9H6.357L8,7H9.643Z"/></g><g id="iconBg"><path class="icon-vs-bg" d="M14.9,10.684a1.329,1.329,0,0,0-.775-.658L12.066,10l.217-1.732a1,1,0,0,0-1.763-.761L8.489,9.983A.067.067,0,0,1,8.445,10H6v5h6.722a1.039,1.039,0,0,0,.944-.584c.394-.834,1.232-2.855,1.276-2.964A.984.984,0,0,0,14.9,10.684ZM12.722,14H7V11H8.445a1.106,1.106,0,0,0,.753-.316l2.093-2.54L10.934,11h2.929c.087.044.133.091.147.092C14,11.112,13.145,13.177,12.722,14ZM7.555,6H10V1H3.278a1.041,1.041,0,0,0-.944.583C1.94,2.417,1.1,4.44,1.058,4.547a.988.988,0,0,0,.044.768,1.326,1.326,0,0,0,.775.658L3.934,6,3.717,7.732a.994.994,0,0,0,.6,1.043,1,1,0,0,0,.4.083.991.991,0,0,0,.767-.365L7.511,6.016A.065.065,0,0,1,7.555,6ZM4.709,7.856,5.066,5H2.136c-.087-.044-.126-.1-.146-.092C2,4.887,2.855,2.823,3.278,2H9V5H7.555a1.1,1.1,0,0,0-.753.316Z"/></g></svg>