<svg xmlns="http://www.w3.org/2000/svg" viewBox="0 0 16 16"><defs><style>.icon-canvas-transparent,.icon-vs-out{fill:#f6f6f6;}.icon-canvas-transparent{opacity:0;}.icon-vs-action-blue{fill:#00539c;}</style></defs><title>Import_16x</title><g id="canvas"><path class="icon-canvas-transparent" d="M0,16V0H16V16Z"/></g><g id="outline"><path class="icon-vs-out" d="M10.207,15.121,7.379,12.293,8.672,11H5.5a5.5,5.5,0,0,1,0-11h1V4h-1a1.5,1.5,0,0,0,0,3H8.672L7.379,5.707l2.828-2.828L16,8.672v.656Z"/></g><g id="iconBg"><path class="icon-vs-action-blue" d="M10.207,13.707,8.793,12.293,11.086,10H5.5a4.5,4.5,0,0,1,0-9V3a2.5,2.5,0,0,0,0,5h5.586L8.793,5.707l1.414-1.414L14.914,9Z"/></g></svg>