<svg xmlns="http://www.w3.org/2000/svg" viewBox="0 0 16 16"><defs><style>.icon-canvas-transparent,.icon-vs-out{fill:#f6f6f6;}.icon-canvas-transparent{opacity:0;}.icon-vs-bg{fill:#424242;}.icon-cpp-purple{fill:#9b4f96;}</style></defs><title>CPPPhoneLibrary_16x</title><g id="canvas"><path class="icon-canvas-transparent" d="M16,0V16H0V0Z"/></g><g id="outline"><path class="icon-vs-out" d="M14,2V14a2,2,0,0,1-2,2H2V5H3V2A2,2,0,0,1,5,0h7A2,2,0,0,1,14,2Z"/></g><g id="iconBg"><path class="icon-vs-bg" d="M13,2V14a1,1,0,0,1-1,1H8V14h4V2H5V5H4V2A1,1,0,0,1,5,1h7A1,1,0,0,1,13,2ZM8,12v1H9V12Z"/></g><g id="colorImportance"><path class="icon-cpp-purple" d="M3,6v9H7V6Zm3,8H4V13H6Zm0-2H4V11H6ZM6,9H4V7H6Z"/></g></svg>