<svg xmlns="http://www.w3.org/2000/svg" viewBox="0 0 16 16"><style>.icon-canvas-transparent{opacity:0;fill:#f6f6f6}.icon-vs-out{fill:#f6f6f6}.icon-vs-bg{fill:#424242}.icon-vs-fg{fill:#f0eff1}</style><path class="icon-canvas-transparent" d="M0 0h16v16H0z" id="canvas"/><path class="icon-vs-out" d="M11 15.016l1.511.002a2.499 2.499 0 0 0 2.492-2.5v-.224l.082.082.915-.915v-2.42L14.963 8H16V0H7v5H3.571A3.575 3.575 0 0 0 0 8.572V16h11v-.984zM11 8h1.069L11 9.068V8zm0 3.336l.68.681-.68-.001v-.68z" id="outline"/><path class="icon-vs-bg" d="M11.989 10.911l-.709-.709 2.237-2.237 2.277 2.286-.711.711-1.081-1.077v2.632c0 .827-.664 1.5-1.491 1.5l-1.493-.002v-1l1.493.002c.275 0 .5-.225.5-.5l-.009-2.615-1.013 1.009zM8 1v4h4v1h-1v1h4V1H8zm2 3H9V3h1v1zm2 0h-1V3h1v1zm2 2h-1V5h1v1zm0-2h-1V3h1v1zM1 8.572V15h9V6H3.571A2.571 2.571 0 0 0 1 8.572zM9 14H2V8.572C2 7.508 2.508 7 3.571 7H9v7zm-4.625-1l.337-1H6.287l.337 1H7.75L6.063 8H4.938L3.25 13h1.125zM5.5 9.936l.465 1.55h-.93l.465-1.55z" id="iconBg"/><path class="icon-vs-fg" d="M9 3h1v1H9V3zm2 3h1V5h-1v1zm2-3v1h1V3h-1zm0 3h1V5h-1v1zm-2-2h1V3h-1v1zM3.571 7H9v7H2V8.572C2 7.508 2.508 7 3.571 7zm1.367 1L3.25 13h1.125l.337-1H6.287l.337 1H7.75L6.063 8H4.938zM5.5 9.936l-.465 1.55h.93L5.5 9.936z" id="iconFg"/></svg>