<svg xmlns="http://www.w3.org/2000/svg" viewBox="0 0 16 16"><style>.icon-canvas-transparent{opacity:0;fill:#f6f6f6}.icon-vs-out{fill:#f6f6f6}.icon-vs-bg{fill:#424242}.icon-vs-fg{fill:#f0eff1}</style><path class="icon-canvas-transparent" d="M16 16H0V0h16v16z" id="canvas"/><path class="icon-vs-out" d="M16 0v15H7v-.543L5.462 16h-.95L.219 11.709l2.12-2.12 1.133 1.129V9.285a.949.949 0 0 0-.028-.26l-.011.001c-.026 0-.079-.007-.161-.007H0v-3h3.207c.988 0 1.784.298 2.373.886.584.585.893 1.408.893 2.38v1.448L7 10.207V0h9z" id="outline"/><path class="icon-vs-bg" d="M13 5h-3V4h3v1zm-3 2h3V6h-3v1zm0 2h3V8h-3v1zm0 3h3v-2h-3v2zM8 1v8.968l1 1V3h5v10H9v-.55l-1 1.003V14h7V1H8zm-.381 10.002l-2.148 2.14.001-3.857c0-.712-.202-1.274-.6-1.672-.395-.394-.949-.594-1.66-.594H1v1h2.222c.184-.003.644 0 .944.301.203.203.307.527.307.964l-.001 3.839-2.13-2.122-.707.707 3.352 3.352 3.34-3.352-.708-.706z" id="iconBg"/><path class="icon-vs-fg" d="M9 3v10h5V3H9zm4 9h-3v-2h3v2zm0-3h-3V8h3v1zm0-2h-3V6h3v1zm0-2h-3V4h3v1z" id="iconFg"/></svg>