<svg xmlns="http://www.w3.org/2000/svg" viewBox="0 0 16 16"><defs><style>.icon-canvas-transparent,.icon-vs-out{fill:#f6f6f6;}.icon-canvas-transparent{opacity:0;}.icon-vs-bg{fill:#424242;}.icon-vs-action-blue{fill:#00539c;}</style></defs><title>PenPalette_16x</title><g id="canvas"><path class="icon-canvas-transparent" d="M16,16H0V0H16Z"/></g><g id="outline"><path class="icon-vs-out" d="M16.006,13.588a1.565,1.565,0,0,1-.378,1.019,3.734,3.734,0,0,1-.675.614,4.257,4.257,0,0,1-.759.425,4.317,4.317,0,0,1-.823.262,4.119,4.119,0,0,1-.852.092,4.04,4.04,0,0,1-1.7-.362,4.392,4.392,0,0,1-1.363-.979,1.411,1.411,0,0,0-.4-.294.909.909,0,0,0-.407-.085.961.961,0,0,0-.406.086,1.266,1.266,0,0,0-.393.285l-.882.876a1.552,1.552,0,0,1-2.636-.783L4,14.913a2.077,2.077,0,0,1-.347.139l-.1.16a1.434,1.434,0,0,1-.541.56A1.554,1.554,0,0,1,.65,14.447a1.66,1.66,0,0,1,.125-.611c.039-.1.089-.217.147-.335l0-.008a2.221,2.221,0,0,1-.061-.516V11.868a1.529,1.529,0,0,1,.177-.718L2.62,7.993A1.716,1.716,0,0,1,2.4,7.81a1.547,1.547,0,0,1-.46-1.1,1.6,1.6,0,0,1,.145-.651L3.711,2.8a2,2,0,0,1,.658-.764,1.85,1.85,0,0,1,1.058-.32,2.121,2.121,0,0,1,.319.024l.015-.029a1.462,1.462,0,0,1,.6-.644,1.59,1.59,0,0,1,.208-.1A2.858,2.858,0,0,1,6.733.725,1.863,1.863,0,0,1,7.318.219,1.843,1.843,0,0,1,8.221,0a1.981,1.981,0,0,1,.926.227l.618.308a1.99,1.99,0,0,1,.757.651,1.836,1.836,0,0,1,.326,1.065,2.016,2.016,0,0,1-.148.765,1.513,1.513,0,0,1,.061.423,1.48,1.48,0,0,1-.06.417,1.611,1.611,0,0,1-.079.223l-3.745,7.5a3.987,3.987,0,0,1,.423-.186,3.925,3.925,0,0,1,1.35-.217,4.041,4.041,0,0,1,1.7.362,4.372,4.372,0,0,1,1.362.979,1.416,1.416,0,0,0,.4.294.944.944,0,0,0,.408.084.86.86,0,0,0,.376-.07,1.869,1.869,0,0,0,.462-.341,1.692,1.692,0,0,1,.463-.315,1.476,1.476,0,0,1,.633-.134,1.547,1.547,0,0,1,1.085.443A1.528,1.528,0,0,1,16.006,13.588Z"/></g><g id="iconBg"><path class="icon-vs-bg" d="M9.578,3.032c.048-.1.1-.2.152-.3a1.022,1.022,0,0,0,.118-.484.841.841,0,0,0-.147-.5,1,1,0,0,0-.385-.325l-.629-.316A1,1,0,0,0,8.221,1a.87.87,0,0,0-.416.092.9.9,0,0,0-.277.239,1.9,1.9,0,0,0-.187.306l-.112.228a.726.726,0,0,0-.083,0,.569.569,0,0,0-.286.076.5.5,0,0,0-.206.227l-.422.843c-.1-.051-.2-.1-.3-.158a1.05,1.05,0,0,0-.5-.129.847.847,0,0,0-.492.146,1,1,0,0,0-.329.386L3,6.466a.6.6,0,0,0-.058.245.557.557,0,0,0,.553.552.552.552,0,0,0,.288-.081.531.531,0,0,0,.2-.222L5.523,3.886l.216.106L1.927,11.615a.538.538,0,0,0-.062.253v1.109a1.176,1.176,0,0,0,.158.591c-.018.034-.041.073-.066.119-.047.077-.092.162-.137.254s-.081.176-.114.26a.686.686,0,0,0-.055.246A.557.557,0,0,0,2.2,15a.545.545,0,0,0,.289-.082.526.526,0,0,0,.2-.221l.334-.557a1.132,1.132,0,0,0,.519-.121l1.159-.582a.5.5,0,0,0,.246-.245L9.7,3.683a.8.8,0,0,0,.038-.11.46.46,0,0,0,.019-.133.531.531,0,0,0-.078-.278A.61.61,0,0,0,9.578,3.032ZM4.083,12.511l-.332.176-.469.239c-.071.034-.133.063-.187.084l-.124-.033-.014-.953L7.4,3.155l1.07.534ZM8.6,2.517l-.365-.181.086-.169.363.18Z"/></g><g id="colorImportance"><path class="icon-vs-action-blue" d="M15.006,13.588a.568.568,0,0,1-.143.375,2.627,2.627,0,0,1-.487.44,3.208,3.208,0,0,1-.579.324,3.28,3.28,0,0,1-.634.2,3.1,3.1,0,0,1-.644.07,3.035,3.035,0,0,1-1.28-.271,3.413,3.413,0,0,1-1.058-.76,2.373,2.373,0,0,0-.7-.508,1.9,1.9,0,0,0-.833-.18,1.937,1.937,0,0,0-.831.18,2.243,2.243,0,0,0-.7.507l-.791.781-.084.088a.551.551,0,1,1-.779-.779c.242-.241.469-.473.684-.7a5.287,5.287,0,0,1,.688-.6,3.087,3.087,0,0,1,.8-.422,2.944,2.944,0,0,1,1.016-.16,3.046,3.046,0,0,1,1.279.271,3.421,3.421,0,0,1,1.059.761,2.378,2.378,0,0,0,.7.507,1.909,1.909,0,0,0,.834.181,1.816,1.816,0,0,0,.831-.179,2.9,2.9,0,0,0,.7-.512.647.647,0,0,1,.18-.124.5.5,0,0,1,.221-.045.543.543,0,0,1,.388.159A.53.53,0,0,1,15.006,13.588Z"/></g></svg>