<svg xmlns="http://www.w3.org/2000/svg" viewBox="0 0 16 16"><defs><style>.icon-canvas-transparent,.icon-vs-out{fill:#f6f6f6;}.icon-canvas-transparent{opacity:0;}.icon-white{fill:#fff;}.syntax-snappoint-purple{fill:purple;}</style></defs><title>ProductionSnapshotPointAdvancedOff_16x</title><g id="canvas"><path class="icon-canvas-transparent" d="M16,0V16H0V0Z"/></g><g id="outline"><path class="icon-vs-out" d="M16,7.856v.288L12.041,15H3.959L0,8.144V7.856L3.959,1h8.082Z"/></g><g id="iconFg"><path class="icon-white" d="M10.887,3H5.113L2.227,8l2.886,5h5.774l2.886-5ZM9,9v2H7V9H5V7H7V5H9V7h2V9Z"/></g><g id="iconBg"><path class="syntax-snappoint-purple" d="M11.465,2H4.535L1.072,8l3.463,6h6.93l3.463-6Zm-.578,11H5.113L2.227,8,5.113,3h5.774l2.886,5ZM11,7V9H9v2H7V9H5V7H7V5H9V7Z"/></g></svg>