<svg xmlns="http://www.w3.org/2000/svg" viewBox="0 0 16 16"><defs><style>.icon-canvas-transparent,.icon-vs-out{fill:#f6f6f6;}.icon-canvas-transparent{opacity:0;}.icon-vs-bg{fill:#424242;}</style></defs><title>MultiFileConnection_16x</title><g id="canvas"><path class="icon-canvas-transparent" d="M16,16H0V0H16Z"/></g><g id="outline"><path class="icon-vs-out" d="M3,16V13H5V12H4V10H2V0H8.621L13,4.379V12H11v1h2v3Z"/></g><g id="iconBg"><path class="icon-vs-bg" d="M4,9H3V1H8.207l1,1H4Zm5,2v2h1v1h2v1H4V14H6V13H7V11H5V3h5.207L12,4.793V11Zm1-6h.793L10,4.207Zm1,5V6H9V4H6v6Z"/></g></svg>