<svg xmlns="http://www.w3.org/2000/svg" viewBox="0 0 16 16"><defs><style>.icon-vs-out{fill:#f6f6f6;}.icon-vs-bg{fill:#424242;}.icon-vs-red{fill:#e51400;}</style></defs><title>DisconnectVertualMachine_16x</title><g id="outline"><path class="icon-vs-out" d="M15,11H10.164l.729.729L10.621,12H15v3H10.164l-1,1H8.379L7.5,15.121,6.621,16H5.836l-1-1H0V12H4.379l-.272-.271L4.836,11H0V1H15Z"/></g><g id="iconBg"><path class="icon-vs-bg" d="M1,2v8H7v1H8V10h6V2ZM13,9H2V3H13Zm-3,4h4v1H10ZM1,13H5v1H1Z"/></g><g id="notificationBg"><path class="icon-vs-red" d="M8.207,13l1.272,1.271-.708.708L7.5,13.707,6.229,14.979l-.708-.708L6.793,13,5.521,11.729l.708-.708L7.5,12.293l1.271-1.272.708.708Z"/></g></svg>