<svg xmlns="http://www.w3.org/2000/svg" viewBox="0 0 16 16"><defs><style>.icon-canvas-transparent,.icon-vs-out{fill:#f6f6f6;}.icon-canvas-transparent{opacity:0;}.icon-vs-yellow{fill:#fc0;}</style></defs><title>StatusSecurityWarning_16x</title><g id="canvas"><path class="icon-canvas-transparent" d="M16,16H0V0H16Z"/></g><g id="outline"><path class="icon-vs-out" d="M7.725,15.922C1.608,14.172.7,7.339,1.072,3.971l.06-.534L8,0l6.868,3.437.06.534c.374,3.368-.536,10.2-6.653,11.951L8,16Z"/></g><g id="iconBg"><path class="icon-vs-yellow" d="M13.951,4,8,1,2.049,4S1.058,13,8,15C14.942,13,13.951,4,13.951,4ZM9,12H7V10H9ZM9,9H7V4H9Z"/></g><g id="iconFg"><path d="M7,4H9V9H7Zm0,8H9V10H7Z"/></g></svg>