<svg xmlns="http://www.w3.org/2000/svg" viewBox="0 0 16 16"><style>.icon-canvas-transparent{opacity:0;fill:#f6f6f6}.icon-vs-out{fill:#f6f6f6}.icon-vs-bg{fill:#424242}.icon-vs-fg{fill:#f0eff1}</style><path class="icon-canvas-transparent" d="M16 16H0V0h16v16z" id="canvas"/><path class="icon-vs-out" d="M15.424 11.959A2 2 0 0 1 13.668 13H7.911l-3.055 3h-.412l-1.911-1.911 1.084-1.084H.009v-3l3.608-.001-1.084-1.085 2.114-2.115.499.489L7 4.707V4H6V1h7v3h-1v.706l3.351 5.212c.396.617.423 1.398.073 2.041z" id="outline"/><path class="icon-vs-bg" d="M4.654 8.212l3.354 3.291-3.354 3.292-.707-.707 2.084-2.084H1.009v-1.001h5.022L3.947 8.919l.707-.707zM13.668 12H8.929l.506-.497-3.479-3.414L8 5V3H7V2h5v1h-1v2l3.51 5.459A1 1 0 0 1 13.668 12zm-1.944-4L10 5.291V3H9v2.291L7.276 8h4.448z" id="iconBg"/><path class="icon-vs-fg" d="M10 3v2.291L11.724 8H7.276L9 5.291V3h1z" id="iconFg"/></svg>