<svg xmlns="http://www.w3.org/2000/svg" viewBox="0 0 16 16"><defs><style>.icon-canvas-transparent,.icon-vs-out{fill:#f6f6f6;}.icon-canvas-transparent{opacity:0;}.icon-vs-bg{fill:#424242;}.icon-vs-action-blue{fill:#00539c;}</style></defs><title>AssignToUser_16x</title><path class="icon-canvas-transparent" d="M16,0V16H0V0Z"/><path class="icon-vs-out" d="M16,12.5v1H13v-1A3.5,3.5,0,0,0,9.5,9a3.459,3.459,0,0,0-1.437.317L10.246,11.5,5.729,16.018,3.607,13.9l.4-.4H3V13H0V10H3.518a6.433,6.433,0,0,1,.324-.662L3.607,9.1,5.729,6.982l.09.091a4.5,4.5,0,1,1,7.327.057A6.544,6.544,0,0,1,16,12.5Z"/><path class="icon-vs-bg" d="M11.485,7.377a3.5,3.5,0,1,0-3.97,0A5.452,5.452,0,0,0,6.6,7.85l.732.733A4.446,4.446,0,0,1,9.5,8,4.505,4.505,0,0,1,14,12.5h1A5.5,5.5,0,0,0,11.485,7.377ZM9.5,7A2.5,2.5,0,1,1,12,4.5,2.5,2.5,0,0,1,9.5,7Z"/><path class="icon-vs-action-blue" d="M8.832,11.5l-3.1,3.1L5.021,13.9l1.9-1.9H1V11H6.918l-1.9-1.9L5.729,8.4Z"/></svg>