<svg xmlns="http://www.w3.org/2000/svg" viewBox="0 0 16 16"><style>.icon-canvas-transparent{opacity:0;fill:#f6f6f6}.icon-vs-out{fill:#f6f6f6}.icon-vs-bg{fill:#424242}.icon-vs-fg{fill:#f0eff1}.icon-vs-action-orange{fill:#c27d1a}</style><path class="icon-canvas-transparent" d="M16 0v16H0V0h16z" id="canvas"/><path class="icon-vs-out" d="M16 2v9c0 1.103-.897 2-2 2h-1.586l-3 3h-.828l-2-2H4v-3.586l-1.5 1.5-2.5-2.5V7.586l4-4 3 3V2c0-1.103.897-2 2-2h5c1.103 0 2 .897 2 2z" id="outline"/><path class="icon-vs-fg" d="M14 2v9H9V2h5z" id="iconFg"/><path class="icon-vs-bg" d="M12 10h-1V9h1v1zm2-9H9c-.551 0-1 .449-1 1v4.586L8.586 6H9V2h5v9h-2.586l1 1H14a1 1 0 0 0 1-1V2c0-.551-.448-1-1-1z" id="iconBg"/><g id="colorImportance"><path class="icon-vs-action-orange" d="M11.5 12.5L9 15l-1.5-1.5.5-.5H5V9H4l-1.5 1.5-2-2L4 5l2 2-1 1h3l1-1 1.5 1.5L8 11 6.5 9.5 7 9H6v3h3l1-1 1.5 1.5z"/></g></svg>