<svg xmlns="http://www.w3.org/2000/svg" viewBox="0 0 16 16"><style>.icon-canvas-transparent{opacity:0;fill:#f6f6f6}.icon-vs-out{fill:#f6f6f6}.icon-vs-bg{fill:#424242}.icon-vs-action-blue{fill:#00539c}</style><path class="icon-canvas-transparent" d="M16 16H0V0h16v16z" id="canvas"/><path class="icon-vs-out" d="M11 10v3h4v3H3V8.446L.486 5.93l.719-.718 1.416-1.369L3 4.22V3.5C3 1.57 4.57 0 6.5 0S10 1.57 10 3.5V5H8v.334l.553.554-.553.57V7h8v3h-5z" id="outline"/><path class="icon-vs-bg" d="M15 8v1H7V8h8zm-5 5v-3H4v3h6zm-6 2h10v-1H4v1z" id="iconBg"/><path class="icon-vs-action-blue" d="M9 3.5V4H8v-.5C8 2.673 7.327 2 6.5 2S5 2.673 5 3.5v3.14l1.45-1.442.691.691.009.009-2.636 2.649-2.603-2.603.001-.001-.012-.012.71-.687L4 6.625V3.5a2.5 2.5 0 1 1 5 0z" id="colorAction"/></svg>