<svg xmlns="http://www.w3.org/2000/svg" viewBox="0 0 16 16"><defs><style>.icon-canvas-transparent,.icon-vs-out{fill:#f6f6f6;}.icon-canvas-transparent{opacity:0;}.icon-vs-bg{fill:#424242;}.icon-vs-red{fill:#e51400;}</style></defs><title>Health_16x</title><g id="canvas"><path class="icon-canvas-transparent" d="M16,16H0V0H16Z"/></g><g id="outline"><path class="icon-vs-out" d="M16,5.75a4.728,4.728,0,0,1-1.331,3.29C14.654,9.059,8,15.6,8,15.6s-5.3-5.212-6-5.91l-.014.012L1.331,9.04A4.745,4.745,0,0,1,4.75,1,5.006,5.006,0,0,1,8,2.5,5.006,5.006,0,0,1,11.25,1,4.756,4.756,0,0,1,16,5.75Z"/></g><g id="iconBg"><path class="icon-vs-bg" d="M13.683,7a2.747,2.747,0,0,1-.452.65L12.877,8H11.293L10.5,7.207,8,9.707,4.976,6.683,3.713,8H3.124l-.352-.347A2.743,2.743,0,0,1,2.318,7h.969L4.96,5.253,8,8.293l2.5-2.5L11.707,7Z"/><path class="icon-vs-red" d="M15,5.75A3.755,3.755,0,0,0,11.25,2C9.855,2,8.617,3.211,8,3.938,7.383,3.211,6.145,2,4.75,2a3.745,3.745,0,0,0-2.7,6.347l.006,0c.229.239,1.194,1.188,5.591,5.514L8,14.2l.351-.345c5.356-5.268,5.6-5.51,5.6-5.51h0A3.728,3.728,0,0,0,15,5.75Zm-1.77,1.9c-.1.1-4.022,3.96-5.23,5.149C6.8,11.616,2.912,7.793,2.771,7.651A2.744,2.744,0,0,1,4.75,3C5.931,3,7.2,4.468,7.588,5.033l.412.6.412-.6C8.8,4.468,10.069,3,11.25,3a2.744,2.744,0,0,1,1.98,4.65Z"/></g></svg>