<svg xmlns="http://www.w3.org/2000/svg" viewBox="0 0 16 16"><defs><style>.icon-canvas-transparent,.icon-vs-out{fill:#f6f6f6;}.icon-canvas-transparent{opacity:0;}.icon-vs-bg{fill:#424242;}</style></defs><title>CallTo_16x</title><g id="canvas"><path class="icon-canvas-transparent" d="M16,16H0V0H16Z"/></g><g id="outline"><path class="icon-vs-out" d="M3.727,9.006H1.016v-3H3.709L2.4,4.692l2.12-2.12L8,6.052V3.5A3.489,3.489,0,0,1,13.6.713l.361.273V15.014l-.361.273A3.465,3.465,0,0,1,11.5,16,3.5,3.5,0,0,1,8,12.5V8.986L4.527,12.447,2.408,10.328Z"/></g><g id="iconBg"><path class="icon-vs-bg" d="M11,10.051V11h2v3.489A2.489,2.489,0,0,1,9,12.5v-9a2.489,2.489,0,0,1,4-1.989V5H11v5.051ZM3.813,4.693,6.118,7.005h-4.1v1H6.135L3.821,10.327l.707.707L8.055,7.52,4.52,3.986Z"/></g></svg>