<svg xmlns="http://www.w3.org/2000/svg" viewBox="0 0 16 16"><style>.icon-canvas-transparent{opacity:0;fill:#f6f6f6}.icon-vs-out{fill:#f6f6f6}.icon-vs-bg{fill:#424242}</style><path class="icon-canvas-transparent" d="M16 16H0V0h16v16z" id="canvas"/><path class="icon-vs-out" d="M16 4h-5.086l.086.086v.01l1.445 1.445L11 6.986v2.057l1.443 1.443L10.937 12H16v4H1v-4h5.086L6 11.914v-.032l-1.408-1.408L6 9.067V6.936L4.594 5.53 6 4.116v-.03L6.086 4H1V0h15v4z" id="outline"/><path class="icon-vs-bg" d="M10.324 9.781l.707.707L8.532 13l-2.525-2.525.707-.707 1.303 1.296.004-6.128-1.307 1.3-.708-.708 2.5-2.512 2.525 2.525-.707.707-1.303-1.295-.004 6.128 1.307-1.3zM15 1H2v2h13V1zm0 14H2v-2h13v2z" id="iconBg"/></svg>