<svg xmlns="http://www.w3.org/2000/svg" viewBox="0 0 16 16"><defs><style>.icon-canvas-transparent,.icon-vs-out{fill:#f6f6f6;}.icon-canvas-transparent{opacity:0;}.icon-vs-bg{fill:#424242;}.icon-vs-action-blue{fill:#00539c;}</style></defs><title>EditComment_16x</title><g id="canvas"><path class="icon-canvas-transparent" d="M16,0V16H0V0Z"/></g><g id="outline"><path class="icon-vs-out" d="M15.255,9.369l-5.8,5.8L6.125,16H4.72l1.114-4.455L7.379,10H6.526L2.775,13H2V10H0V0H13V5.076a2.814,2.814,0,0,1,.441-.041,2.526,2.526,0,0,1,1.814,4.334Z"/></g><g id="iconBg"><path class="icon-vs-bg" d="M12,1V5.453a2.308,2.308,0,0,0-.369.3L11,6.381V2H2V8H4V9.46L5.824,8H9.38l-1,1h-2.2L3,11.54V9H1V1Z"/></g><g id="colorAction"><path class="icon-vs-action-blue" d="M14.545,6.456a1.655,1.655,0,0,0-2.207,0l-5.6,5.6L6,15l2.944-.736,5.6-5.6A1.564,1.564,0,0,0,14.545,6.456ZM8.433,13.362l-1.057.263.264-1.056,4.111-4.111.793.793Zm5.4-5.4-.587.587-.793-.793.587-.587a.631.631,0,0,1,.793,0A.562.562,0,0,1,13.838,7.957Z"/></g></svg>