<svg xmlns="http://www.w3.org/2000/svg" viewBox="0 0 16 16"><defs><style>.cls-1,.icon-canvas-transparent{fill:#f6f6f6;}.icon-canvas-transparent{opacity:0;}.icon-vs-bg{fill:#424242;}.icon-cpp-purple{fill:#9b4f96;}</style></defs><title>CPPPhoneTest_16x</title><g id="canvas"><path class="icon-canvas-transparent" d="M16,0V16H0V0Z"/></g><g id="outline"><path class="cls-1" d="M14,2V14a2,2,0,0,1-2,2H1.766a1.976,1.976,0,0,1-1.74-1.015c-.012-.02-.015-.043-.026-.063V13.089c.02-.039.029-.081.051-.118L2,9.723V9H1V6H3V2A2,2,0,0,1,5,0h7A2,2,0,0,1,14,2Z"/></g><g id="iconBg"><path class="icon-vs-bg" d="M9,13H8.961c-.005-.009-.007-.02-.012-.029L8.366,12H9ZM12,1H5A1,1,0,0,0,4,2V6H5V2h7V14H9.234a1.981,1.981,0,0,1-.26.985L8.963,15H12a1,1,0,0,0,1-1V2A1,1,0,0,0,12,1Z"/></g><g id="colorImportance"><path class="icon-cpp-purple" d="M8.091,13.485,6,10V8H7V7H2V8H3v2L.909,13.485A1,1,0,0,0,1.766,15H7.234A1,1,0,0,0,8.091,13.485ZM3.032,12,4,10.3V8H5v2.3L5.968,12Z"/></g></svg>