<svg xmlns="http://www.w3.org/2000/svg" viewBox="0 0 16 16"><style>.icon-canvas-transparent{opacity:0;fill:#f6f6f6}.icon-vs-out{fill:#f6f6f6}.icon-vs-bg{fill:#424242}.icon-vs-fg{fill:#f0eff1}.icon-folder{fill:#dcb67a}</style><path class="icon-canvas-transparent" d="M16 16H0V0h16v16z" id="canvas"/><path class="icon-vs-out" d="M16 14.27c-.367.442-.914.73-1.532.73H9a1.998 1.998 0 0 1-1.848-1.236L5.914 15H2.086L0 12.914v-.828l.193-.193A2.1 2.1 0 0 1 0 11V2C0 .697 1.005 0 2 0h7.116l1 2H13c.97 0 2 .701 2 2v1h.233v1H16v1.196l-1.074 2.682L16 11.667v2.603z" id="outline"/><path class="icon-folder" d="M8.233 7.031V8h1v.723L7.51 11.596 5.914 10H2.812L4 7.031h4.233zM2 10.086V2.031h6l1 2h4V5h1v-.969c0-1-1.236-1-1-1H9.5l-1-2H2s-1 0-1 1v9c0 .018.005.031.006.049L2 10.086zM14.233 8v.723l.054.09.325-.813h-.379z" id="iconBg"/><path class="icon-vs-fg" d="M2 10.086V2.031h6l1 2h4V5H8.233v2.031H4L2.812 10h-.726L2 10.086zm10.233-.783V7h-1v2.303L10.265 11h2.918v-.032l-.95-1.665z" id="iconFg"/><path class="icon-vs-bg" d="M7 12.5L5.5 14h-1l.979-1H2.512l.988 1h-1L1 12.5 2.5 11h1l-.988 1h2.967L4.5 11h1L7 12.5zM13.233 9V7h1V6h-5v1h1v2l-2.091 3.486A1 1 0 0 0 8.999 14h5.468a1 1 0 0 0 .858-1.514L13.233 9zm-2.968 2l.968-1.697V7h1v2.303L13.201 11h-2.936z" id="notificationFg"/></svg>