<svg xmlns="http://www.w3.org/2000/svg" viewBox="0 0 16 16"><style>.icon-vs-out{fill:#f6f6f6}.icon-vs-bg{fill:#424242}.icon-vs-fg{fill:#f0eff1}.icon-canvas-transparent_x0020_{opacity:0;fill:#f6f6f6}</style><path class="icon-canvas-transparent_x0020_" d="M0 0h16v16H0z" id="canvas"/><path class="icon-vs-out" d="M16 4.379V16H3v-.924l-.438.341-.614-.477a5.071 5.071 0 0 1-.89-.891l-.475-.614.698-.896L.158 12.4l-.099-.769A4.419 4.419 0 0 1 0 11c0-.182.021-.356.045-.533l.099-.769.783-.194.354-.044-.698-.895.475-.614c.257-.333.557-.632.89-.891l.614-.477.438.341V0h8.621L16 4.379z" id="outline"/><g id="iconBg"><path class="icon-vs-bg" d="M7.714 10.342a2.804 2.804 0 0 0-.331-.795l.767-.984a3.972 3.972 0 0 0-.712-.713l-.985.767a2.773 2.773 0 0 0-.795-.33l-.154-1.236C5.337 7.029 5.173 7 5 7s-.337.029-.504.051l-.154 1.236a2.773 2.773 0 0 0-.795.33l-.985-.767a3.972 3.972 0 0 0-.712.713l.768.984c-.148.244-.262.51-.331.795l-1.235.154C1.029 10.664 1 10.828 1 11c0 .174.029.338.051.504l1.235.154c.069.285.183.551.331.795l-.767.985c.207.268.445.506.712.713l.985-.768c.244.148.51.262.795.332l.154 1.234c.167.022.331.051.504.051s.337-.029.504-.051l.154-1.234c.285-.07.551-.184.795-.332l.985.768c.267-.207.505-.445.712-.713l-.768-.984c.148-.244.262-.51.331-.795l1.235-.154C8.971 11.338 9 11.174 9 11c0-.172-.029-.336-.051-.504l-1.235-.154zM5 13c-1.107 0-2-.896-2-2s.893-2 2-2 2 .896 2 2-.893 2-2 2zm1-2a1 1 0 1 1-2 0 1 1 0 1 1 2 0z"/><path class="icon-vs-bg" d="M5 10v2a1.001 1.001 0 0 1 0-2zm10-5.207V15H7.975l.077-.06c.333-.259.632-.559.89-.891L8.98 14H14V6h-4V2H5v4c-.183 0-.359.021-.631.059L4 6.106V1h7.207L15 4.793zM13.793 5L11 2.207V5h2.793zM13 11h-3v1h3v-1z"/></g><g id="iconFg"><path class="icon-vs-fg" d="M11 2v3h3z"/><path class="icon-vs-fg" d="M10 2H5v4a3.8 3.8 0 0 1 .536.046l.769.099.192.782.044.355.897-.699.614.477c.333.259.632.559.89.891l.476.614-.699.895 1.124.14.099.77c.037.274.058.448.058.63h3v1h-3v-1c0 .185-.021.362-.046.538l-.1.769-.781.189-.354.044.698.896L8.98 14H14V6h-4V2z"/></g></svg>