<svg xmlns="http://www.w3.org/2000/svg" viewBox="0 0 16 16"><style>.icon-canvas-transparent{opacity:0;fill:#f6f6f6}.icon-vs-out{fill:#f6f6f6}.icon-vs-bg{fill:#424242}.icon-vs-action-blue{fill:#00539c}</style><path class="icon-canvas-transparent" d="M16 16H0V0h16v16z" id="canvas"/><path class="icon-vs-out" d="M0 5.374V4.016l1.441-1.441 1.084 1.084V0h2.976v3.658l1.084-1.084L8.02 4.009A4.953 4.953 0 0 1 11 3c.703 0 1.394.151 2.052.448l1.319.596L11.414 7l.586.586 2.957-2.957.595 1.319C15.85 6.606 16 7.297 16 8c0 2.757-2.243 5-5 5-.47 0-.934-.067-1.386-.2l-2.907 2.907a2.562 2.562 0 0 1-.362.293H3.654a2.653 2.653 0 0 1-.361-.293c-1.252-1.252-.686-2.728 0-3.414L6.2 9.386A4.906 4.906 0 0 1 6 8c0-.212.037-.413.063-.618l-2.05 2.095L0 5.374z" id="outline"/><path class="icon-vs-bg" d="M15 8a4 4 0 0 1-4 4 3.984 3.984 0 0 1-1.641-.359L6 15s-1 1-2 0 0-2 0-2l3.359-3.359A3.984 3.984 0 0 1 7 8a4 4 0 0 1 4-4c.586 0 1.139.133 1.641.359L10 7l2 2 2.641-2.641C14.867 6.861 15 7.414 15 8z" id="iconFg"/><path class="icon-vs-action-blue" d="M7.292 4.695l-.707-.707-2.084 2.084V1h-.976v5.072L1.441 3.988l-.707.707 3.279 3.352 3.279-3.352z" id="colorAction"/></svg>