<svg xmlns="http://www.w3.org/2000/svg" viewBox="0 0 16 16"><defs><style>.icon-canvas-transparent,.icon-vs-out{fill:#f6f6f6;}.icon-canvas-transparent{opacity:0;}.icon-vs-bg{fill:#424242;}.icon-vs-action-orange{fill:#c27d1a;}</style></defs><title>SuggestedContacts_16x</title><g id="canvas"><path class="icon-canvas-transparent" d="M16,16H0V0H16Z"/></g><g id="outline"><polygon class="icon-vs-out" points="8 3 7.98 3 8 2.984 8 2 5.023 2 4.381 0 2.979 0 2.336 2 0 2 0 3.487 1.482 4.649 0.408 8 1.592 8 3.68 6.368 5.767 8 6.951 8 6.31 6 8 6 8 15 16 15 16 3 8 3"/></g><g id="iconBg"><path class="icon-vs-bg" d="M15,4V5H7V4ZM9,8h6V7H9Zm0,3h6V10H9Zm0,3h6V13H9Z"/></g><g id="colorImportance"><path class="icon-vs-action-orange" d="M4.712,4.292,5.4,6.445,3.68,5.1,1.957,6.445l.69-2.153L1,3H3.064L3.68,1.086,4.3,3H6.359Z"/></g></svg>