<svg xmlns="http://www.w3.org/2000/svg" viewBox="0 0 16 16"><defs><style>.icon-canvas-transparent,.icon-vs-out{fill:#f6f6f6;}.icon-canvas-transparent{opacity:0;}.icon-vs-bg{fill:#424242;}.icon-vs-action-blue{fill:#00539c;}</style></defs><title>ExportFile_16x</title><g id="canvas"><path class="icon-canvas-transparent" d="M16,16H0V0H16Z"/></g><g id="outline"><path class="icon-vs-out" d="M15,4.379V16H2V8.649a3.479,3.479,0,0,1,0-6.3V0h8.621Z"/></g><g id="iconBg"><path class="icon-vs-bg" d="M10.207,1H7.445l1,1H9v.553H9l.963.962L9,4.474H9V6h4v8H4V9H3.5A3.443,3.443,0,0,1,3,8.949V15H14V4.793ZM10,5V2.207L12.793,5Z"/></g><g id="colorAction"><path class="icon-vs-action-blue" d="M1,5.5A2.5,2.5,0,0,1,3.5,3H6.625L5.243,1.611,5.931.9l.011.012h0l2.6,2.6L5.9,6.15l-.009-.009L5.2,5.45,6.64,4H3.5a1.5,1.5,0,0,0,0,3H4V8H3.5A2.5,2.5,0,0,1,1,5.5Z"/></g></svg>