<svg xmlns="http://www.w3.org/2000/svg" viewBox="0 0 16 16"><defs><style>.icon-canvas-transparent,.icon-vs-out{fill:#f6f6f6;}.icon-canvas-transparent{opacity:0;}.icon-vs-bg{fill:#424242;}.icon-vs-action-green{fill:#388a34;}</style></defs><title>StartGraphicDiagnostics_16x</title><g id="canvas"><path class="icon-canvas-transparent" d="M16,0V16H0V0Z"/></g><g id="outline"><path class="icon-vs-out" d="M16,4V16H0V0H1.277l5,3h4.836l1,1Z"/></g><g id="iconBg"><path class="icon-vs-bg" d="M10,10A2,2,0,1,1,8,8,2,2,0,0,1,10,10Zm5-5V15H1V8.166L3.015,6.957c0,.012-.007.022-.007.035A.992.992,0,1,0,4.43,6.108L7.944,4H10.7l1,1Zm-4,5a3,3,0,1,0-3,3A3,3,0,0,0,11,10Z"/></g><g id="colorAction"><path id="_Compound_Path_" data-name="&lt;Compound Path&gt;" class="icon-vs-action-green" d="M1,1,6,4,1,7Z"/></g></svg>