<svg xmlns="http://www.w3.org/2000/svg" viewBox="0 0 16 16"><defs><style>.icon-canvas-transparent,.icon-vs-out{fill:#f6f6f6;}.icon-canvas-transparent{opacity:0;}.icon-vs-bg{fill:#424242;}</style></defs><title>GitStash_16x</title><g id="canvas"><path class="icon-canvas-transparent" d="M16,0V16H0V0Z"/></g><g id="outline"><path class="icon-vs-out" d="M15,7v9H0V7H3v6H6V10.727A4.478,4.478,0,0,1,6,2.273V0H9V2.273a4.478,4.478,0,0,1,0,8.454V13h3V7Z"/></g><g id="iconBg"><path class="icon-vs-bg" d="M7,9.949V12H8V9.949a3.483,3.483,0,0,0,0-6.9V1H7V3.051a3.483,3.483,0,0,0,0,6.9ZM7.5,4A2.5,2.5,0,1,1,5,6.5,2.5,2.5,0,0,1,7.5,4ZM14,8v7H1V8H2v6H13V8Z"/></g></svg>