<svg xmlns="http://www.w3.org/2000/svg" viewBox="0 0 16 16"><style>.icon-canvas-transparent{opacity:0;fill:#f6f6f6}.icon-vs-out{fill:#f6f6f6}.icon-vs-bg{fill:#424242}.icon-vs-fg{fill:#f0eff1}</style><path class="icon-canvas-transparent" d="M16 16H0V0h16v16z" id="canvas"/><path class="icon-vs-out" d="M8.277 8.573L16 3.057V16h-1.321L8 11.229 1.321 16H0V3.057l4 2.857V3h2.733l-.616-.616L8.238.263l4.174 4.175-4.135 4.135z" id="outline"/><path class="icon-vs-bg" d="M1 15l7-5-7-5v10zm1-8.057L6.279 10 2 13.057V6.943zM15 5v10l-7-5 7-5zm-4.001-.562L8.175 7.261l-.707-.707L9.022 5H5V4h4.147L7.531 2.384l.707-.707 2.761 2.761z" id="iconBg"/><path class="icon-vs-fg" d="M6.279 10L2 13.057V6.943L6.279 10z" id="iconFg"/></svg>