<svg xmlns="http://www.w3.org/2000/svg" viewBox="0 0 16 16"><defs><style>.icon-canvas-transparent,.icon-vs-out{fill:#f6f6f6;}.icon-canvas-transparent{opacity:0;}.icon-vs-bg{fill:#424242;}</style></defs><title>UserGroup_16x</title><g id="canvas"><path class="icon-vs-out" d="M16,8H11.133a3.38,3.38,0,0,1-.046,3.05A5,5,0,0,1,13,14.974v1H3v-1A5,5,0,0,1,4.913,11.05,3.38,3.38,0,0,1,4.867,8H0V7A3.9,3.9,0,0,1,1.235,4.161a2.8,2.8,0,0,1-.159-.927,2.845,2.845,0,0,1,5.69,0,2.8,2.8,0,0,1-.159.927A3.908,3.908,0,0,1,7.7,6.03C7.8,6.021,7.9,6,8,6s.2.021.3.03a3.908,3.908,0,0,1,1.1-1.869,2.8,2.8,0,0,1-.159-.927,2.845,2.845,0,1,1,5.69,0,2.8,2.8,0,0,1-.159.927A3.9,3.9,0,0,1,16,7Z"/></g><g id="outline"><path class="icon-canvas-transparent" d="M16,16H0V0H16Z"/></g><g id="iconBg"><path class="icon-vs-bg" d="M13.461,4.443a1.824,1.824,0,0,0,.463-1.209,1.845,1.845,0,1,0-3.69,0A1.828,1.828,0,0,0,10.7,4.443a2.938,2.938,0,0,0-1.435,1.8,3.486,3.486,0,0,1,.918.546A1.916,1.916,0,0,1,14,7h1A2.911,2.911,0,0,0,13.461,4.443Zm-1.382-.364a.845.845,0,1,1,.845-.845A.846.846,0,0,1,12.079,4.079ZM9.623,11.325a2.474,2.474,0,1,0-3.246,0A4,4,0,0,0,4,14.974H5a3,3,0,0,1,6,0h1A4,4,0,0,0,9.623,11.325ZM8,10.947A1.474,1.474,0,1,1,9.474,9.474,1.476,1.476,0,0,1,8,10.947ZM5.821,6.791a3.486,3.486,0,0,1,.918-.546A2.938,2.938,0,0,0,5.3,4.443a1.828,1.828,0,0,0,.462-1.209,1.845,1.845,0,0,0-3.69,0,1.824,1.824,0,0,0,.463,1.209A2.911,2.911,0,0,0,1,7H2a1.916,1.916,0,0,1,3.821-.209Zm-1.9-2.712a.845.845,0,1,1,.845-.845A.846.846,0,0,1,3.921,4.079Z"/></g></svg>