<svg xmlns="http://www.w3.org/2000/svg" viewBox="0 0 16 16"><style>.icon-vs-out{fill:#f6f6f6}.icon-vs-bg{fill:#424242}.icon-vs-fg{fill:#f0eff1}.icon-vs-action-blue{fill:#00539c}.st0{fill:none}</style><path class="st0" d="M16 16H0V0h16v16z" id="canvas"/><path class="icon-vs-out" d="M14 5H9.034L9 2.083 6.781 0H0v11h.01v1.509A2.498 2.498 0 0 0 2.51 15h.146l-.082.082.918.918h2.414l1.11-1.106V16H16V7l-2-2zM3.011 11.599L3.012 11h.598l-.599.599zm4.004.533L5.883 11h1.132v1.132z" id="outline"/><path class="icon-vs-bg" d="M10 14h1v1h-1v-1zM8 7h1V6H8v1zm0 8h1v-1H8v1zm0-6h1V8H8v1zm0 4h1v-1H8v1zm0-2h1v-1H8v1zm0-4h1V6H8v1zm0 8h1v-1H8v1zm0-6h1V8H8v1zm0 4h1v-1H8v1zm0-2h1v-1H8v1zm2-4h1V6h-1v1zm4 4h1v-1h-1v1zm-2 4h1v-1h-1v1zm2-2h1v-1h-1v1zm0-5v1h1V8h-1zm0 7h1v-1h-1v1zm-2-8h1V6h-1v1zM7 9H2V2h3l2 1.748V5h1V3.089L5.752 1.007 1 1v9h6V9z" id="iconBg"/><path class="icon-vs-fg" d="M7 3.748V9H2V2h3l2 1.748z" id="iconFg"/><path class="icon-vs-action-blue" d="M6.984 13.515l-2.286 2.277-.711-.711L5.064 14H2.51c-.827 0-1.5-.664-1.5-1.491v-1.493h1.002l-.002 1.492c0 .275.225.5.5.5L5.047 13l-1.008-1.013.709-.709 2.236 2.237z" id="colorAction"/></svg>