<svg xmlns="http://www.w3.org/2000/svg" viewBox="0 0 16 16"><defs><style>.icon-canvas-transparent,.icon-vs-out{fill:#f6f6f6;}.icon-canvas-transparent{opacity:0;}.icon-vs-bg{fill:#424242;}</style></defs><title>Merge_16x</title><g id="canvas"><path class="icon-canvas-transparent" d="M16,0V16H0V0Z"/></g><g id="outline"><path class="icon-vs-out" d="M15.75,9.5a3.249,3.249,0,0,1-6.138,1.487,5.92,5.92,0,0,1-1.629-.337A3.252,3.252,0,1,1,4,9.869V6.131a3.254,3.254,0,1,1,3.2-.115A2.98,2.98,0,0,0,9.631,7.977,3.249,3.249,0,0,1,15.75,9.5Z"/></g><g id="iconBg"><path class="icon-vs-bg" d="M12.5,7.25A2.252,2.252,0,0,0,10.31,9H10A3.992,3.992,0,0,1,6.043,5.426,2.242,2.242,0,1,0,5,5.44v5.121a2.25,2.25,0,1,0,1,0V7.969A4.982,4.982,0,0,0,10,10h.311A2.248,2.248,0,1,0,12.5,7.25Zm-8.25-4A1.25,1.25,0,1,1,5.5,4.5,1.252,1.252,0,0,1,4.25,3.25Zm2.5,9.5A1.25,1.25,0,1,1,5.5,11.5,1.252,1.252,0,0,1,6.75,12.75Zm5.75-2A1.25,1.25,0,1,1,13.75,9.5,1.252,1.252,0,0,1,12.5,10.75Z"/></g></svg>