<svg xmlns="http://www.w3.org/2000/svg" viewBox="0 0 16 16"><defs><style>.icon-canvas-transparent,.icon-vs-out{fill:#f6f6f6;}.icon-canvas-transparent{opacity:0;}.icon-vs-bg{fill:#424242;}.icon-vs-fg{fill:#f0eff1;}</style></defs><title>CategorizedView_16x</title><g id="canvas"><path class="icon-canvas-transparent" d="M16,16H0V0H16Z"/></g><g id="iconBg"><path class="icon-vs-out" d="M13,11v2h3v3H0V9H6V7H0V0H13V2h3v9Z"/><path class="icon-vs-bg" d="M1,6H6V1H1ZM2,3H3V2H4V3H5V4H4V5H3V4H2ZM1,15H6V10H1Zm1-3H3V11H4v1H5v1H4v1H3V13H2ZM7,1h5V2H7Zm8,3H13V3h2Zm0,2H13V5h2Zm0,2H13V7h2Zm0,2H13V9h2Zm-2,4h2v1H13ZM7,3h5V4H7ZM7,5h5V6H7ZM7,7h5V8H7ZM7,9h5v1H7Zm0,3h5v1H7Zm0,2h5v1H7Z"/></g><g id="iconFg"><path class="icon-vs-fg" d="M3,4H2V3H3V2H4V3H5V4H4V5H3ZM3,14H4V13H5V12H4V11H3v1H2v1H3Z"/></g></svg>