<svg xmlns="http://www.w3.org/2000/svg" viewBox="0 0 16 16"><defs><style>.icon-canvas-transparent,.icon-vs-out{fill:#f6f6f6}.icon-canvas-transparent{opacity:0}.icon-folder{fill:#dcb67a}.icon-vs-fg{fill:#f0eff1}.icon-vs-bg{fill:#424242}</style></defs><title>PrivateQueue_16x</title><path class="icon-canvas-transparent" d="M0 0h16v16H0z"/><path class="icon-vs-out" d="M16 1v15H8v-1H0V4.981h2V3h2V1z"/><path class="icon-folder" d="M3 5h9v1a2.965 2.965 0 0 1 1 .184V4H3zm2-3v1h9v3.78A2.982 2.982 0 0 1 15 9V2zm1 8l3.839-3.071a3 3 0 0 1 .594-.475L11 6H1zm-.5 1L1 7v7h7V9.667L6.5 11z"/><path class="icon-vs-fg" d="M11 9a1 1 0 0 1 2 0v1h-2zm3 5h-4v-3h4z"/><path class="icon-vs-bg" d="M14 10V9a2 2 0 0 0-4 0v1H9v5h6v-5zm-3-1a1 1 0 0 1 2 0v1h-2zm3 5h-4v-3h4z"/></svg>