<svg xmlns="http://www.w3.org/2000/svg" viewBox="0 0 16 16"><style>.icon-canvas-transparent{opacity:0;fill:#f6f6f6}.icon-vs-out{fill:#f6f6f6}.icon-fs-purple{fill:#682878}.st0{fill:#f0eff1}</style><path class="icon-canvas-transparent" d="M0 0h16v16H0z" id="canvas"/><path class="icon-vs-out" d="M2 16V0h8.621L15 4.379V16H2z" id="outline"/><path class="icon-fs-purple" d="M12 12H8v-1h4v1zM7.608 9H6.594l-.431.834a1.353 1.353 0 0 0-.07.148L6.086 10h-.107l-.004-.008C5.952 9.942 5.478 9 5.478 9H4.405l.952 1.506L4.344 12h1.063s.479-.894.499-.942c.016-.039.08-.013.115-.021l.007.018c.022.047.508.945.508.945h1.066l-.984-1.547L7.608 9zM14 4.793V15H3V1h7.207L14 4.793zM10 5h2.793L10 2.207V5zm3 1H9V2H4v12h9V6z" id="iconBg"/><g id="iconFg"><path class="st0" d="M9 2H4v12h9V6H9V2zM7.602 12H6.536s-.485-.898-.508-.946l-.007-.018c-.036.009-.1-.018-.115.021-.02.048-.499.943-.499.943H4.344l1.013-1.494L4.405 9h1.073s.474.942.497.992l.004.008h.107l.007-.018c.021-.053.045-.102.07-.148L6.594 9h1.014l-.99 1.453L7.602 12zM12 11v1H8v-1h4z"/><path class="st0" d="M12.793 5L10 2.207V5z"/><path class="st0" d="M9 2H4v12h9V6H9V2zM7.602 12H6.536s-.485-.898-.508-.946l-.007-.018c-.036.009-.1-.018-.115.021-.02.048-.499.943-.499.943H4.344l1.013-1.494L4.405 9h1.073s.474.942.497.992l.004.008h.107l.007-.018c.021-.053.045-.102.07-.148L6.594 9h1.014l-.99 1.453L7.602 12zM12 11v1H8v-1h4z"/><path class="st0" d="M12.793 5L10 2.207V5z"/></g></svg>