<svg xmlns="http://www.w3.org/2000/svg" viewBox="0 0 16 16"><defs><style>.icon-canvas-transparent,.icon-vs-out{fill:#f6f6f6;}.icon-canvas-transparent{opacity:0;}.icon-vs-bg{fill:#424242;}</style></defs><title>Rocket_16x</title><g id="canvas"><path class="icon-canvas-transparent" d="M16,0V16H0V0Z"/></g><g id="outline"><path class="icon-vs-out" d="M15.99,1.085V1.5A14.005,14.005,0,0,1,12,10.729v4.185L10.915,16H7.3l-.721-.3-.907-.907-.244-.233L5,14.13V16H0V11H1.87l-.66-.66,0-.011L.3,9.421,0,8.7V5.086L1.086,4H5.269a14.064,14.064,0,0,1,9.219-4H14.9Z"/></g><g id="iconBg"><path class="icon-vs-bg" d="M2,14H4v1H1V12H2Zm9-3.657V14.5l-.5.5h-3l-.353-.146-1-1H6.137l-4-4V9.843l-.989-.989L1,8.5v-3L1.5,5H5.655C7.836,2.983,10.891,1,14.489,1l.5.5C14.994,5.111,13.019,8.165,11,10.343ZM2,8.293l.418.418A24.023,24.023,0,0,1,4.648,6H2Zm4.555,4.563c1.434-.987,7.1-5.228,7.421-10.84C8.377,2.355,4.126,8,3.134,9.437ZM10,14V11.351A23.537,23.537,0,0,1,7.28,13.574L7.7,14ZM8.441,7.562a1.5,1.5,0,0,0,2.444-1.637,1.473,1.473,0,0,0-.326-.487A1.5,1.5,0,1,0,8.441,7.562Z"/></g></svg>