<svg xmlns="http://www.w3.org/2000/svg" viewBox="0 0 16 16"><defs><style>.icon-canvas-transparent,.icon-vs-out{fill:#f6f6f6;}.icon-canvas-transparent{opacity:0;}.icon-white{fill:#fff;}.syntax-snappoint-purple{fill:purple;}.icon-vs-green{fill:#393;}</style></defs><title>ProductionSnapshotPointAdvancedOK_16x</title><g id="canvas"><path class="icon-canvas-transparent" d="M16,0V16H0V0Z"/></g><g id="outline"><path class="icon-vs-out" d="M16,8.144l-.632,1.1A4.443,4.443,0,0,1,16,11.5,4.505,4.505,0,0,1,11.5,16a4.458,4.458,0,0,1-2.794-1H3.959L0,8.144V7.856L3.959,1h8.082L16,7.856Z"/></g><g id="iconFg"><path class="icon-white" d="M13.469,7.473A4.452,4.452,0,0,0,11.5,7a4.342,4.342,0,0,0-.5.051V7H9V5H7V7H5V9H7v2h.051A4.342,4.342,0,0,0,7,11.5,4.445,4.445,0,0,0,7.276,13H5.113L2.227,8,5.113,3h5.774Z"/></g><g id="iconBg"><path class="syntax-snappoint-purple" d="M14.928,8l-.21.364a4.53,4.53,0,0,0-1.249-.891L10.887,3H5.113L2.227,8l2.886,5H7.276a4.493,4.493,0,0,0,.486,1H4.535L1.072,8,4.535,2h6.93ZM9,5H7V7H5V9H7v2h.051A4.474,4.474,0,0,1,11,7.051V7H9Z"/></g><g id="notificationBg"><path class="icon-vs-green" d="M11.5,8A3.5,3.5,0,1,0,15,11.5,3.5,3.5,0,0,0,11.5,8Zm-.75,5.707L8.9,11.853l.708-.706,1.146,1.146L13.4,9.646l.706.707Z"/></g><g id="notificationFg"><path class="icon-white" d="M14.1,10.353,10.75,13.707,8.9,11.853l.708-.706,1.146,1.146L13.4,9.646Z"/></g></svg>