<svg xmlns="http://www.w3.org/2000/svg" viewBox="0 0 16 16"><defs><style>.icon-canvas-transparent,.icon-vs-out{fill:#f6f6f6;}.icon-canvas-transparent{opacity:0;}.icon-vs-bg{fill:#424242;}</style></defs><title>ShowVisualAids_16x</title><g id="canvas"><path class="icon-canvas-transparent" d="M16,0V16H0V0Z"/></g><g id="outline"><path class="icon-vs-out" d="M15,1V15H1V1Z"/></g><g id="iconBg"><path class="icon-vs-bg" d="M3,9H2V8H3Zm0,1H2v1H3ZM3,6H2V7H3ZM3,4H2V5H3ZM3,2H2V3H3ZM5,2H4V3H5ZM7,2H6V3H7ZM9,2H8V3H9Zm2,0H10V3h1Zm2,11H5v1h9V5H13Zm.646-11.354-12,12,.708.707,12-12Z"/></g></svg>