<svg xmlns="http://www.w3.org/2000/svg" viewBox="0 0 16 16"><defs><style>.icon-canvas-transparent,.icon-vs-out{fill:#f6f6f6;}.icon-canvas-transparent{opacity:0;}.icon-vs-bg{fill:#424242;}</style></defs><title>Cycling_16x</title><g id="canvas"><path class="icon-canvas-transparent" d="M16,16H0V0H16Z"/></g><g id="outline"><path class="icon-vs-out" d="M16,11.5a3.5,3.5,0,0,1-5.979,2.469,2.5,2.5,0,0,1-4.042,0,3.5,3.5,0,1,1-1.538-5.84,2.5,2.5,0,0,1,.731-1.836L8.024,3.365A2.82,2.82,0,0,1,8,3a3,3,0,1,1,5.215,2.021,2.015,2.015,0,0,1,1.224.557A1.949,1.949,0,0,1,15,7a2.5,2.5,0,0,1-.566,1.584A3.5,3.5,0,0,1,16,11.5Z"/></g><g id="iconBg"><path class="icon-vs-bg" d="M12.5,9A2.5,2.5,0,1,0,15,11.5,2.5,2.5,0,0,0,12.5,9Zm0,4A1.5,1.5,0,1,1,14,11.5,1.5,1.5,0,0,1,12.5,13ZM10.28,8.5H12.5A1.5,1.5,0,0,0,14,7a.965.965,0,0,0-.266-.713A1.452,1.452,0,0,0,12.629,6H11.74l-.8-1.007c.022,0,.043.007.065.007A2,2,0,1,0,9,3a1.962,1.962,0,0,0,.124.67L5.879,7a1.5,1.5,0,0,0,0,2.121c.142.142.437.422.621.595V12.5a1.5,1.5,0,0,0,3,0V8.293l-.308-.308L9.5,7.652ZM11,2a1,1,0,1,1-1,1A1,1,0,0,1,11,2ZM7.808,8.015l.692.692V12.5a.5.5,0,0,1-1,0V9.283l-.158-.148s-.548-.513-.756-.721a.5.5,0,0,1,0-.712L9.463,4.754,11.26,7h1.377a3.525,3.525,0,0,1,.363.01.5.5,0,0,1-.5.491H10.72L9.5,6.176ZM3.5,9A2.5,2.5,0,1,0,6,11.5,2.5,2.5,0,0,0,3.5,9Zm0,4A1.5,1.5,0,1,1,5,11.5,1.5,1.5,0,0,1,3.5,13Z"/></g></svg>