<svg xmlns="http://www.w3.org/2000/svg" viewBox="0 0 16 16"><style>.icon-canvas-transparent{opacity:0;fill:#f6f6f6}.icon-vs-out{fill:#f6f6f6}.icon-vs-bg{fill:#424242}.icon-vs-action-blue{fill:#00539c}</style><path class="icon-canvas-transparent" d="M16 16H0V0h16v16z" id="canvas"/><path class="icon-vs-out" d="M16 9.4l-1.846-1.846-1.148 1.145V3.004h-2.242L10.767 3H0v1.277l3 5V14h4V9.92l4.521 4.523L16 9.948V9.4zm-5.994-.718L8.874 7.555 7 9.429v-.152l3.006-5.01v4.415z" id="outline"/><path class="icon-vs-bg" d="M9 4L6 9v4H4V9L1 4h8z" id="iconBg"/><path class="icon-vs-action-blue" d="M14.151 8.968l.707.707-3.34 3.352-3.352-3.352.707-.707 2.13 2.122V4.004h1v7.104l2.148-2.14z" id="colorAction"/></svg>