<svg xmlns="http://www.w3.org/2000/svg" viewBox="0 0 16 16"><defs><style>.icon-canvas-transparent,.icon-vs-out{fill:#f6f6f6;}.icon-canvas-transparent{opacity:0;}.icon-vs-bg{fill:#424242;}.icon-vs-fg{fill:#f0eff1;}</style></defs><title>ApplicationBehaviorSettings_16x</title><g id="canvas"><path class="icon-canvas-transparent" d="M16,16H0V0H16Z"/></g><g id="outline"><path class="icon-vs-out" d="M16,1H0V15H2.025l.537.417L3.1,15h.4l.009.072.191.783.769.1A3.954,3.954,0,0,0,5,16a4.639,4.639,0,0,0,.631-.059l.77-.1.1-.842h.4l.536.417L7.975,15H16Z"/></g><g id="iconBg"><path class="icon-vs-bg" d="M1,9.1l.281.361L1,9.495Zm.281,3.441L1,12.505v.4ZM1,2V8.025l.059-.076a5.054,5.054,0,0,1,.889-.889L2,7.02V5H14v8H9.077l.34.435L8.98,14H15V2ZM1,13.974V14h.02ZM5,10a1,1,0,1,0,1,1A1,1,0,0,0,5,10Zm3.949,1.5A3.807,3.807,0,0,0,9,11a3.807,3.807,0,0,0-.051-.5l-1.235-.154a2.747,2.747,0,0,0-.331-.795l.767-.985a4,4,0,0,0-.712-.712l-.985.767a2.758,2.758,0,0,0-.8-.331L5.5,7.051A3.983,3.983,0,0,0,5,7a3.983,3.983,0,0,0-.5.051L4.343,8.286a2.758,2.758,0,0,0-.8.331L2.562,7.85a4,4,0,0,0-.712.712l.767.985a2.747,2.747,0,0,0-.331.8L1.051,10.5A3.807,3.807,0,0,0,1,11a3.807,3.807,0,0,0,.051.5l1.235.154a2.747,2.747,0,0,0,.331.8l-.767.985a4,4,0,0,0,.712.712l.985-.767a2.786,2.786,0,0,0,.8.331L4.5,14.949A3.807,3.807,0,0,0,5,15a3.807,3.807,0,0,0,.5-.051l.153-1.235a2.786,2.786,0,0,0,.8-.331l.985.767a4,4,0,0,0,.712-.712l-.767-.985a2.747,2.747,0,0,0,.331-.795ZM5,13a2,2,0,1,1,2-2A2,2,0,0,1,5,13Z"/></g><g id="iconFg"><path class="icon-vs-fg" d="M14,5v8H9.077l-.358-.46.354-.044.782-.191.1-.77A3.76,3.76,0,0,0,10,11a4.5,4.5,0,0,0-.059-.632l-.1-.768L8.719,9.46l.7-.9-.476-.614a5.054,5.054,0,0,0-.889-.889l-.614-.477-.9.7L6.4,6.156l-.874-.111A3.782,3.782,0,0,0,5,6a3.782,3.782,0,0,0-.526.045L3.6,6.156,3.459,7.282l-.9-.7L2,7.02V5ZM7,11A2,2,0,1,1,5,9,2,2,0,0,1,7,11ZM6,11a1,1,0,1,0-1,1A1,1,0,0,0,6,11Z"/></g></svg>