<svg xmlns="http://www.w3.org/2000/svg" viewBox="0 0 16 16"><style>.icon-canvas-transparent{opacity:0;fill:#f6f6f6}.icon-vs-out{fill:#f6f6f6}.icon-vs-bg{fill:#424242}.icon-vs-fg{fill:#f0eff1}</style><path class="icon-canvas-transparent" d="M16 16H0V0h16v16z" id="canvas"/><path class="icon-vs-out" d="M15.941 10.369l-.098-.769-1.124-.14.698-.895-.476-.614a5.037 5.037 0 0 0-.89-.891l-.614-.477-.897.699-.044-.355-.191-.782-.769-.099C11.359 6.021 11.184 6 11 6s-.359.021-.632.059l-.768.099-.14 1.124-.897-.699-.615.477a4.935 4.935 0 0 0-.448.396V6H6.042L8 4.049v-.796L4.747 0 3.011 1.736 3.013.15H.01v2.494a2.498 2.498 0 0 0 2.5 2.491h.146l-.082.083.782.782H.5v9h7v-.455c.142.14.291.273.448.396l.614.477.896-.698.045.354.192.782.768.099c.178.023.353.045.537.045s.359-.022.632-.059l.769-.1.141-1.123.896.698.614-.477c.333-.259.632-.559.89-.891l.476-.614-.698-.896.354-.044.781-.19.1-.768c.024-.174.045-.351.045-.536 0-.182-.021-.356-.059-.631zm-9.014-.865l-.427.105V9h.423l.358.46-.354.044z" id="outline"/><path class="icon-vs-bg" d="M14.949 11.504c.022-.166.051-.33.051-.504 0-.172-.029-.336-.051-.504l-1.235-.154a2.804 2.804 0 0 0-.331-.795l.768-.984a3.972 3.972 0 0 0-.712-.713l-.985.768a2.773 2.773 0 0 0-.795-.33l-.154-1.236C11.337 7.029 11.173 7 11 7s-.337.029-.504.051l-.154 1.236a2.773 2.773 0 0 0-.795.33l-.985-.767a3.972 3.972 0 0 0-.712.713l.768.984c-.148.244-.262.51-.331.795l-1.235.154C7.029 10.664 7 10.828 7 11c0 .174.029.338.051.504l1.235.154c.069.285.183.551.331.795l-.767.985c.207.268.445.506.712.713l.985-.768c.244.148.51.262.795.332l.154 1.234c.167.022.331.051.504.051s.337-.029.504-.051l.154-1.234c.285-.07.551-.184.795-.332l.985.768c.267-.207.505-.445.712-.713l-.768-.984c.148-.244.262-.51.331-.795l1.236-.155zM11 13c-1.107 0-2-.896-2-2s.893-2 2-2 2 .896 2 2-.893 2-2 2zm1-2a1 1 0 1 1-2 0 1 1 0 1 1 2 0zM1.5 7h5v1h-5V7zm4 4h-4v-1h4v1zm-4 2h5v1h-5v-1zm5.484-9.5L4.698 5.777l-.711-.711 1.077-1.081H2.51c-.827 0-1.5-.664-1.5-1.491V1h1.002L2.01 2.493c0 .275.225.5.5.5l2.537-.009-1.008-1.012.709-.709L6.984 3.5z" id="iconBg"/><path class="icon-vs-fg" d="M11 9a2 2 0 1 0 .001 4.001A2 2 0 0 0 11 9zm0 3a1 1 0 1 1 0-2 1 1 0 1 1 0 2z" id="iconFg"/></svg>