<svg xmlns="http://www.w3.org/2000/svg" viewBox="0 0 16 16"><defs><style>.icon-canvas-transparent,.icon-vs-out{fill:#f6f6f6;}.icon-canvas-transparent{opacity:0;}.icon-vs-bg{fill:#424242;}</style></defs><title>ShowAllFiles_16x</title><g id="canvas"><path class="icon-canvas-transparent" d="M16,0V16H0V0Z"/></g><g id="outline"><path class="icon-vs-out" d="M16,3.379V12H13v4H3V12H0V0H12.621Z"/></g><g id="iconBg"><path class="icon-vs-bg" d="M4,5V15h8V7.793L9.207,5Zm7,9H5V6H8.793L11,8.207ZM2,10H3v1H1V1H6V2.207L5.793,2H2ZM15,3.793V11H13V10h1V4.207L11.793,2H8V4H7V1h5.207ZM6,8H9V9H6Zm0,2h4v1H6Zm0,2h4v1H6Z"/></g></svg>