<svg xmlns="http://www.w3.org/2000/svg" viewBox="0 0 16 16"><style>.icon-canvas-transparent{opacity:0;fill:#f6f6f6}.icon-vs-out{fill:#f6f6f6}.icon-vs-bg{fill:#424242}.icon-vs-action-blue{fill:#00539c}</style><path class="icon-canvas-transparent" d="M16 16H0V0h16v16z" id="canvas"/><path class="icon-vs-out" d="M16 0v15h-6V7H6V5.925l-3.365 3.27L.524 7.084 1.608 6H0V3h1.733L.524 1.791 2.315 0h.667L6 3.073V0h10z" id="outline"/><path class="icon-vs-bg" d="M15 1H7v1h8V1zm0 6h-4v1h4V7zm0-4H7v1h8V3zm0 2H7v1h8V5zm0 4h-4v1h4V9zm0 2h-4v1h4v-1zm0 2h-4v1h4v-1z" id="iconBg"/><path class="icon-vs-action-blue" d="M6.016 4.516L2.645 7.791l-.707-.707L4.022 5H0V4h4.147L1.938 1.791l.707-.707 3.371 3.432z" id="colorAction"/></svg>