<svg xmlns="http://www.w3.org/2000/svg" viewBox="0 0 16 16"><defs><style>.icon-canvas-transparent,.icon-vs-out{fill:#f6f6f6;}.icon-canvas-transparent{opacity:0;}.icon-vs-bg{fill:#424242;}.icon-vs-red{fill:#e51400;}</style></defs><title>AnomalyDetection_16x</title><g id="canvas"><path class="icon-canvas-transparent" d="M16,16H0V0H16Z"/></g><g id="outline"><path class="icon-vs-out" d="M16,8.5A4.505,4.505,0,0,1,11.5,13a4.444,4.444,0,0,1-1.928-.451L6.561,15.561A1.495,1.495,0,0,1,4.091,14H0V1H15V5.706A4.455,4.455,0,0,1,16,8.5Z"/></g><g id="iconBg"><path class="icon-vs-bg" d="M14,2V4.762a4.493,4.493,0,0,0-1-.486V3H2v9H5.879l-1,1H1V2ZM3,5H8.706c.1-.079.189-.168.294-.238V4H3ZM3,7H7.276a4.493,4.493,0,0,1,.486-1H3ZM3,8V9H7.051A4.342,4.342,0,0,1,7,8.5,4.342,4.342,0,0,1,7.051,8Z"/><path class="icon-vs-bg" d="M11.5,5A3.5,3.5,0,0,0,8,8.5a3.462,3.462,0,0,0,.717,2.1.671.671,0,0,0-.071.047l-3.5,3.5a.5.5,0,0,0,.708.708l3.5-3.5a.671.671,0,0,0,.047-.071A3.462,3.462,0,0,0,11.5,12a3.5,3.5,0,0,0,0-7Zm0,6A2.5,2.5,0,1,1,14,8.5,2.5,2.5,0,0,1,11.5,11Z"/></g><g id="colorImportance"><path class="icon-vs-red" d="M12,7V9H11V7Zm-1,4h1V10H11Z"/></g></svg>