<svg xmlns="http://www.w3.org/2000/svg" viewBox="0 0 16 16"><style>.icon-canvas-transparent{opacity:0;fill:#f6f6f6}.icon-vs-out{fill:#f6f6f6}.icon-vs-bg{fill:#424242}.icon-vs-fg{fill:#f0eff1}.icon-vs-blue{fill:#1ba1e2}</style><path class="icon-canvas-transparent" d="M16 16H0V0h16v16z" id="canvas"/><path class="icon-vs-out" d="M16 0v16H4v-.041L.22 12.178 2 10.398v-.909H0v-3h2V0h14z" id="outline"/><path class="icon-vs-bg" d="M4.471 13.594l.001-3.839c0-.437-.104-.761-.307-.964-.3-.301-.76-.304-.943-.301H1v-1H3.213c.711 0 1.266.2 1.66.594.397.397.6.96.6 1.672l-.001 3.857 2.148-2.14.707.707-3.34 3.352-3.352-3.352.707-.707 2.129 2.121zM3 1v5.49h.207c.282 0 .543.031.793.079V2h10v12H7.924l-.996 1H15V1H3z" id="iconBg"/><path class="icon-vs-blue" d="M9 3c-2.209 0-4 .896-4 2v1.94c.209.123.406.263.58.436.584.584.893 1.407.893 2.38v1.447l1.148-1.145 2.119 2.119-.815.818c.025.002.049.005.075.005 2.209 0 4-.896 4-2V5c0-1.104-1.791-2-4-2zm0 3.289c-2.003 0-3.216-.581-3.216-1.289S6.997 3.642 9 3.642s3.243.65 3.243 1.358S11.003 6.289 9 6.289z" id="colorImportance"/><path class="icon-vs-fg" d="M9 6.289c-2.003 0-3.216-.581-3.216-1.289S6.997 3.642 9 3.642s3.243.65 3.243 1.358S11.003 6.289 9 6.289zM4 2v4.569c.369.071.702.196 1 .371V5c0-1.104 1.791-2 4-2s4 .896 4 2v6c0 1.104-1.791 2-4 2-.026 0-.05-.003-.076-.004l-1 1.004H14V2H4z" id="iconFg"/></svg>