<svg xmlns="http://www.w3.org/2000/svg" viewBox="0 0 16 16"><defs><style>.icon-canvas-transparent,.icon-vs-out{fill:#f6f6f6;}.icon-canvas-transparent{opacity:0;}.icon-vs-fg{fill:#f0eff1;}.icon-vs-bg{fill:#424242;}</style></defs><title>StorageContainer_16x</title><g id="canvas"><path class="icon-canvas-transparent" d="M16,0V16H0V0Z"/></g><g id="outline"><path class="icon-vs-out" d="M15,1V11.414L11.414,15H1V4.586L4.586,1Z"/></g><g id="iconFg"><path class="icon-vs-fg" d="M5,5H3.414L5,3.414Zm6,.707v6.879l2-2V3.707ZM3,6h7v7H3ZM4,8H8V7H4Zm0,2H6V9H4ZM6,3V5h4.293l2-2Z"/></g><g id="iconBg"><path class="icon-vs-bg" d="M5,2,2,5v9h9l3-3V2ZM5,3.414V5H3.414ZM10,13H3V6h7Zm.293-8H6V3h6.293ZM13,10.586l-2,2V5.707l2-2ZM6,10H4V9H6ZM8,8H4V7H8Z"/></g></svg>