<svg xmlns="http://www.w3.org/2000/svg" viewBox="0 0 16 16"><defs><style>.icon-canvas-transparent,.icon-vs-out{fill:#f6f6f6;}.icon-canvas-transparent{opacity:0;}.icon-cpp-purple{fill:#9b4f96;}.icon-vs-bg{fill:#424242;}</style></defs><title>FS_ProjectSENode_16x</title><g id="canvas"><path class="icon-canvas-transparent" d="M16,0V16H0V0Z"/></g><g id="outline"><path class="icon-vs-out" d="M16,1V15H0V1Z"/></g><g id="iconBg"><path class="icon-cpp-purple" d="M1,2V14H15V2ZM14,13H2V3H14Z"/><path class="icon-vs-bg" d="M13,7V6H12V5H11V6H10V5H9V6H8V7H9V8H8V9H9v1h1V9h1v1h1V9h1V8H12V7ZM11,8H10V7h1ZM3,5H7V6.1H4.559V7.572H6.8v1.1H4.559V11H3Z"/></g></svg>