<svg xmlns="http://www.w3.org/2000/svg" viewBox="0 0 16 16"><defs><style>.icon-canvas-transparent,.icon-vs-out{fill:#f6f6f6}.icon-canvas-transparent{opacity:0}.icon-vs-green{fill:#393}.icon-vs-blue{fill:#1ba1e2}.icon-white{fill:#fff}</style></defs><title>ShieldVerified_16x</title><path class="icon-canvas-transparent" d="M16 0v16H0V0z"/><path class="icon-vs-out" d="M16 11.5a4.5 4.5 0 0 1-4.5 4.5 4.443 4.443 0 0 1-2.042-.513 8.987 8.987 0 0 1-1.183.435L8 16l-.275-.078C1.608 14.172.7 7.339 1.072 3.971l.06-.534L8 0l6.868 3.437.059.534a14.509 14.509 0 0 1-.237 4.361A4.484 4.484 0 0 1 16 11.5z"/><path class="icon-vs-green" d="M13.8 7.652A4.452 4.452 0 0 0 11.5 7a4.484 4.484 0 0 0-3.014 7.818c-.164.059-.312.132-.486.182C1.058 13 2.049 4 2.049 4L8 1l5.951 3a15.266 15.266 0 0 1-.151 3.652z"/><path class="icon-vs-blue" d="M11.5 8a3.5 3.5 0 1 0 3.5 3.5A3.5 3.5 0 0 0 11.5 8zm-.75 5.707L8.9 11.853l.707-.707 1.146 1.146L13.4 9.646l.707.707z"/><path class="icon-white" d="M14.1 10.353l-3.35 3.354-1.85-1.854.707-.707 1.146 1.146L13.4 9.646z"/></svg>