<svg xmlns="http://www.w3.org/2000/svg" viewBox="0 0 16 16"><style>.icon-canvas-transparent{opacity:0;fill:#f6f6f6}.icon-vs-out{fill:#f6f6f6}.icon-vs-bg{fill:#424242}.icon-vs-fg{fill:#f0eff1}</style><path class="icon-canvas-transparent" d="M16 16H0V0h16v16z" id="canvas"/><path class="icon-vs-out" d="M16 8.85l-2.355 2.355L12 9.561V11H5V9.85l-1.355 1.355-2.121-2.121L1.608 9H0V6h1.733l-.209-.209L3.645 3.67 5 5.025V4h7v1.314l1.645-1.645L16 6.025V8.85z" id="outline"/><path class="icon-vs-bg" d="M3.645 5.084l2.354 2.354-2.354 2.353-.707-.707L4.022 8H1V7h3.147L2.938 5.791l.707-.707zm12.354 2.354l-2.354 2.354-.707-.707L14.022 8H11v2H6V5h5v2h3.147l-1.209-1.209.707-.707 2.354 2.354zM10 6H7v3h3V6z" id="iconBg"/><path class="icon-vs-fg" d="M10 6v3H7V6h3z" id="iconFg"/></svg>