<svg xmlns="http://www.w3.org/2000/svg" viewBox="0 0 16 16"><style>.icon-canvas-transparent{opacity:0;fill:#f6f6f6}.icon-vs-out{fill:#f6f6f6}.icon-vs-bg{fill:#424242}.icon-vs-fg{fill:#f0eff1}.icon-vs-action-blue{fill:#00539c}</style><path class="icon-canvas-transparent" d="M16 16H0V0h16v16z" id="canvas"/><path class="icon-vs-out" d="M13 6v10H3V6h2.652L3.245 3.585l2.119-2.119 1.149 1.145V-.011h3v2.604l1.131-1.127 2.12 2.12L10.35 6H13z" id="outline"/><path class="icon-vs-fg" d="M8 8a3 3 0 1 0 0 6 3 3 0 0 0 0-6zm2 4H7V9h1v2h2v1z" id="iconFg"/><path class="icon-vs-bg" d="M8 7H4v8h8V7H8zm0 7a3 3 0 1 1 0-6 3 3 0 0 1 0 6zm0-3h2v1H7V9h1v2z" id="iconBg"/><path class="icon-vs-action-blue" d="M11.35 3.586L7.998 6.939l-3.34-3.352.707-.707 2.148 2.14V.99h1v4.012l2.13-2.122.707.706z" id="colorAction"/></svg>