<svg xmlns="http://www.w3.org/2000/svg" viewBox="0 0 16 16"><style>.icon-canvas-transparent{opacity:0;fill:#f6f6f6}.icon-vs-out{fill:#f6f6f6}.icon-vs-bg{fill:#424242}</style><path class="icon-canvas-transparent" d="M16 16H0V0h16v16z" id="canvas"/><path class="icon-vs-out" d="M10.018 13.408V16h-3v-2.609l-1.149 1.145-2.119-2.12L7.154 9H4V0h9v9H9.853l3.415 3.415-2.12 2.12-1.13-1.127z" id="outline"/><path class="icon-vs-bg" d="M8 4H5V1h3v3zm1-3v3h3V1H9zM8 5H5v3h3V5zm1 3h3V5H9v3zm-3.838 4.415l.707.707 2.148-2.14V15h1v-4l2.13 2.122.707-.707-3.352-3.352-3.34 3.352z" id="iconBg"/></svg>