<svg xmlns="http://www.w3.org/2000/svg" viewBox="0 0 16 16"><style>.icon-canvas-transparent{opacity:0;fill:#f6f6f6}.icon-vs-out{fill:#f6f6f6}.icon-vs-bg{fill:#424242}.icon-vs-fg{fill:#f0eff1}.icon-vs-action-blue{fill:#00539c}</style><path class="icon-canvas-transparent" d="M16 16H0V0h16v16z" id="canvas"/><path class="icon-vs-out" d="M16 0v16H6V6.847l-.519-.518V10H2.505V6.329L1.421 7.413 0 5.992v-1.4L3.993.51 6 2.561V0h10z" id="outline"/><path class="icon-vs-bg" d="M7 1v2.583l1 1.022V3h6v3H8v-.022l-1 1V15h8V1H7zm7 13H8v-3h6v3zm0-4H8V7h6v3z" id="iconBg"/><path class="icon-vs-fg" d="M14 6H8V3h6v3zm0 1H8v3h6V7zm0 4H8v3h6v-3z" id="iconFg"/><path class="icon-vs-action-blue" d="M3.993 1.94l3.279 3.352-.707.707-2.084-2.084V9h-.976V3.915L1.421 5.999l-.707-.707L3.993 1.94z" id="colorAction"/></svg>