<svg xmlns="http://www.w3.org/2000/svg" viewBox="0 0 16 16"><defs><style>.icon-canvas-transparent,.icon-vs-out{fill:#f6f6f6;}.icon-canvas-transparent{opacity:0;}.icon-vs-bg{fill:#424242;}.icon-vs-fg{fill:#f0eff1;}</style></defs><title>ChildWindowTemplate_16x</title><g id="canvas"><path class="icon-canvas-transparent" d="M16,16H0V0H16Z"/></g><g id="outline"><path class="icon-vs-out" d="M16,15H12v1H0V6H1V0H16Z"/></g><g id="iconBg"><path class="icon-vs-bg" d="M3,2H2V1H3ZM5,3H4V4H5ZM3,3H2V4H3ZM1,7H11v8H1Zm1,7h8V9H2ZM3,5H2V6H3ZM9,3H8V4H9ZM9,1H8V2H9ZM7,3H6V4H7ZM7,1H6V2H7ZM5,1H4V2H5Zm7,1h1V1H12Zm2,8h1V9H14Zm0-2h1V7H14Zm0-2h1V5H14Zm0-5V2h1V1Zm0,3h1V3H14Zm0,8h1V11H14Zm-2,2h1V13H12ZM10,2h1V1H10Zm0,2h1V3H10Zm4,10h1V13H14ZM12,4h1V3H12Z"/></g><g id="iconFg"><path class="icon-vs-fg" d="M10,14H2V9h8Z"/></g></svg>