<svg xmlns="http://www.w3.org/2000/svg" viewBox="0 0 16 16"><style>.icon-canvas-transparent{opacity:0;fill:#f6f6f6}.icon-vs-out{fill:#f6f6f6}.icon-vs-bg{fill:#424242}.icon-vs-fg{fill:#f0eff1}.icon-vs-action-blue{fill:#00539c}</style><path class="icon-canvas-transparent" d="M16 16H0V0h16v16z" id="canvas"/><path class="icon-vs-out" d="M5 0L3.506-.002a2.498 2.498 0 0 0-2.491 2.5v.225L.932 2.64 0 3.572v2.385L1.039 7H0v9h9v-4h7V0H5z" id="outline"/><path class="icon-vs-bg" d="M5 10.25a.75.75 0 1 1 1.5 0 .75.75 0 0 1-1.5 0zM5 1v6h1V2h8v5l-1.5-1-2 1L8 5 6 7h3v.8L10.5 9l2-1L14 9v1H9v1h6V1H5zM1 8h7v7H1V8zm1 4.5L3.5 11 7 13.5V9H2v3.5zM2 14h3.5l-2-1.5L2 14zm9-9a1 1 0 1 0 0-2 1 1 0 1 0 0 2z" id="iconBg"/><path class="icon-vs-fg" d="M3.5 12.5l2 1.5H2l1.5-1.5zm7-3.5L9 7.8V10h5V9l-1.5-1-2 1zM2 9h5v4.5L3.5 11 2 12.5V9zm3 1.25a.75.75 0 1 0 1.5 0 .75.75 0 0 0-1.5 0zM14 2v5l-1.5-1-2 1L8 5 6 7V2h8zm-2 2a1 1 0 1 0-2 0 1 1 0 1 0 2 0z" id="iconFg"/><path class="icon-vs-action-blue" d="M4.028 4.105l.709.709L2.5 7.05.223 4.764l.711-.711L2.015 5.13V2.498c0-.827.664-1.5 1.491-1.5L5 1v1l-1.493-.002c-.275 0-.5.225-.5.5l.009 2.615 1.012-1.008z" id="colorAction"/></svg>