<svg xmlns="http://www.w3.org/2000/svg" viewBox="0 0 16 16"><style>.icon-canvas-transparent{opacity:0;fill:#f6f6f6}.icon-vs-out{fill:#f6f6f6}.icon-vs-bg{fill:#424242}.icon-vs-fg{fill:#f0eff1}</style><path class="icon-canvas-transparent" d="M16 16H0V0h16v16z" id="canvas"/><path class="icon-vs-out" d="M11.621 0H3v7H0v9h16V4.379z" id="outline"/><g id="iconBg"><path class="icon-vs-bg" d="M11.207 1H4v6h1V2h5v4h4v8H9v1h6V4.793L11.207 1zM11 5V2.207L13.793 5H11z"/><path class="icon-vs-bg" d="M4.691 10.359a.95.95 0 1 1 1.9.002.95.95 0 0 1-1.9-.002zM8 8v7H1V8h7zm-2.5 6l-2-1.5L2 14h3.5zM7 9H2v3.5L3.5 11 7 13.5V9z"/></g><g id="iconFg"><path class="icon-vs-fg" d="M2.031 9.031v3.438L3.5 11l3.469 2.477V9.031H2.031zm3.61 2.278z"/><path class="icon-vs-fg" d="M3.5 12.5l-1.469 1.469h3.427z"/><path class="icon-vs-fg" d="M2.031 9.031v3.438L3.5 11l3.469 2.477V9.031H2.031zm3.61 2.278z"/><path class="icon-vs-fg" d="M3.5 12.5l-1.469 1.469h3.427z"/><g><path class="icon-vs-fg" d="M11 2.207V5h2.793z"/><path class="icon-vs-fg" d="M10 6V2H5v5h4v7h5V6z"/><path class="icon-vs-fg" d="M11 2.207V5h2.793z"/><path class="icon-vs-fg" d="M10 6V2H5v5h4v7h5V6z"/></g></g></svg>