<svg xmlns="http://www.w3.org/2000/svg" viewBox="0 0 16 16"><defs><style>.icon-canvas-transparent,.icon-vs-out{fill:#f6f6f6;}.icon-canvas-transparent{opacity:0;}.icon-vs-bg{fill:#424242;}</style></defs><title>Rebase_16x</title><g id="canvas"><path class="icon-canvas-transparent" d="M16,0V16H0V0Z"/></g><g id="outline"><path class="icon-vs-out" d="M12.283,2.088l.235-.234L10.664,0h-.535L6.747,3.381c0-.043,0-.087,0-.131A3.25,3.25,0,1,0,2.165,6.213L0,8.379v.535l1.854,1.854L2,10.621V16H15V5.5A3.507,3.507,0,0,0,12.283,2.088ZM12,13H5V10.621l.146.147L7.268,8.646,4.835,6.213A3.26,3.26,0,0,0,6.731,3.6L10.4,7.268l1.6-1.6Z"/></g><g id="iconBg"><path class="icon-vs-bg" d="M3.5,5.5A2.25,2.25,0,1,0,1.25,3.25,2.253,2.253,0,0,0,3.5,5.5ZM3.5,2A1.25,1.25,0,1,1,2.25,3.25,1.252,1.252,0,0,1,3.5,2ZM14,5.5V7H13V5.5A1.5,1.5,0,0,0,11.5,4H9.957L11.1,5.146l-.708.708L8.043,3.5,10.4,1.146l.708.708L9.957,3H11.5A2.5,2.5,0,0,1,14,5.5ZM5,14H6v1H5Zm2,0H8v1H7Zm2,0h1v1H9Zm2,0h1v1H11Zm2,0h1v1H13Zm0-2h1v1H13Zm0-2h1v1H13Zm0-2h1V9H13ZM4,8.207V15H3V8.207L1.854,9.354l-.708-.708L3.5,6.293,5.854,8.646l-.708.708Z"/></g></svg>