<svg xmlns="http://www.w3.org/2000/svg" viewBox="0 0 16 16"><style>.icon-canvas-transparent{opacity:0;fill:#f6f6f6}.icon-vs-out{fill:#f6f6f6}.icon-vs-bg{fill:#424242}.icon-vs-fg{fill:#f0eff1}</style><path class="icon-canvas-transparent" d="M16 16H0V0h16v16z" id="canvas"/><path class="icon-vs-out" d="M16 9.041L14.963 8H16V0H7v5H3.571A3.575 3.575 0 0 0 0 8.572V16h11v-.984l1.511.002a2.499 2.499 0 0 0 2.492-2.5v-.224l.082.082.915-.915v-2.42zm-5 2.975v-.68l.68.681-.68-.001zm0-2.948V8h1.069L11 9.068z" id="outline"/><path class="icon-vs-fg" d="M9 3h1v1H9V3zM3.571 7H9v7H2V8.572C2 7.508 2.508 7 3.571 7zm.679 1H3l1.875 2.5L3 13h2.5v-.5h-.875l.875-1.167L6.75 13H8l-1.875-2.5L8 8H6.75L5.5 9.667 4.25 8zM11 6h1V5h-1v1zm2 0h1V5h-1v1zm0-3v1h1V3h-1zm-2 1h1V3h-1v1z" id="iconFg"/><path class="icon-vs-bg" d="M11 6v1h4V1H8v4h4v1h-1zm-1-2H9V3h1v1zm3-1h1v1h-1V3zm0 2h1v1h-1V5zm-2-1V3h1v1h-1zM1 8.572V15h9V6H3.571A2.571 2.571 0 0 0 1 8.572zM9 14H2V8.572C2 7.508 2.508 7 3.571 7H9v7zm6.795-3.748l-.711.711-1.081-1.077v2.632c0 .827-.664 1.5-1.491 1.5l-1.493-.002v-1l1.493.002c.275 0 .5-.225.5-.5l-.009-2.615-1.013 1.008-.709-.709 2.237-2.237 2.277 2.287zM3 8h1.25L5.5 9.667 6.75 8H8l-1.875 2.5L8 13H6.75L5.5 11.333 4.625 12.5H5.5v.5H3l1.875-2.5L3 8z" id="iconBg"/></svg>