<svg xmlns="http://www.w3.org/2000/svg" viewBox="0 0 16 16"><defs><style>.icon-canvas-transparent,.icon-vs-out{fill:#f6f6f6;}.icon-canvas-transparent{opacity:0;}.icon-vs-bg{fill:#424242;}.icon-vs-action-red{fill:#a1260d;}</style></defs><title>DeleteComment_16x</title><g id="canvas"><path class="icon-canvas-transparent" d="M16,0V16H0V0Z"/></g><g id="iconBg"><path class="icon-vs-out" d="M13.621,11.5l2.147,2.146-2.122,2.122L11.5,13.621,9.354,15.768,7.232,13.646,9.379,11.5,7.879,10H6.526L2,13.62V10H0V0H13V7.879l.646-.647,2.122,2.122Z"/><path class="icon-vs-bg" d="M12,1V8.879L11.879,9h-.758l-1-1H11V2H2V8H4V9.46L5.824,8H8.586l-1,1H6.176L3,11.54V9H1V1Z"/></g><g id="colorAction"><path class="icon-vs-action-red" d="M12.207,11.5l2.147,2.146-.708.708L11.5,12.207,9.354,14.354l-.708-.708L10.793,11.5,8.646,9.354l.708-.708L11.5,10.793l2.146-2.147.708.708Z"/></g></svg>