<svg xmlns="http://www.w3.org/2000/svg" viewBox="0 0 16 16"><style>.icon-canvas-transparent{opacity:0;fill:#f6f6f6}.icon-vs-out{fill:#f6f6f6}.icon-vs-bg{fill:#424242}</style><path class="icon-canvas-transparent" d="M16 16H0V0h16v16z" id="canvas"/><path class="icon-vs-out" d="M16 15H1V0h15v15z" id="outline"/><path class="icon-vs-bg" d="M3 3H2V1h3v1H3v1zm11 0h1V1h-3v1h2v1zm0 10h-2v1h3v-2h-1v1zM3 12H2v2h3v-1H3v-1zm8-11H6v1h5V1zm0 12H6v1h5v-1zM3 4H2v3h1V4zm0 4H2v3h1V8zm12-4h-1v3h1V4zm0 4h-1v3h1V8zm-4.981-1.275l-.69-.689 1.975-1.975.086-.085H9.72V3H13v3.279h-.978V4.72l-2.003 2.005zm-.298 4.297V12H13V8.72h-.976v1.669l-.085-.086-1.975-1.974-.689.69 2.006 2.004h-1.56zm-4.743-.742V8.72H4V12h3.28v-.976H5.612l.085-.085 1.974-1.975-.69-.689-2.003 2.005zm2.301-6.302V3H4v3.28h.976V4.612l.085.085 1.975 1.974.689-.69L5.72 3.978h1.559z" id="iconBg"/></svg>