<svg xmlns="http://www.w3.org/2000/svg" viewBox="0 0 16 16"><defs><style>.icon-canvas-transparent,.icon-vs-out{fill:#f6f6f6;}.icon-canvas-transparent{opacity:0;}.icon-vs-bg{fill:#424242;}</style></defs><title>Phone_16x</title><g id="canvas"><path class="icon-canvas-transparent" d="M16,0V16H0V0Z"/></g><g id="outline"><path class="icon-vs-out" d="M14,2V14a2,2,0,0,1-2,2H5a2,2,0,0,1-2-2V2A2,2,0,0,1,5,0h7A2,2,0,0,1,14,2Z"/></g><g id="iconBg"><path class="icon-vs-bg" d="M12,1H5A1,1,0,0,0,4,2V14a1,1,0,0,0,1,1h7a1,1,0,0,0,1-1V2A1,1,0,0,0,12,1Zm0,13H5V2h7V14ZM8,12H9v1H8Z"/></g></svg>