<svg xmlns="http://www.w3.org/2000/svg" viewBox="0 0 16 16"><style>.icon-canvas-transparent{opacity:0;fill:#f6f6f6}.icon-vs-out{fill:#f6f6f6}.icon-vs-bg{fill:#424242}.icon-vs-fg{fill:#f0eff1}</style><path class="icon-canvas-transparent" d="M16 0v16H0V0h16z" id="canvas"/><path class="icon-vs-out" d="M15.371 9.242a3.2 3.2 0 0 0-.496-1.715v-.99l.023-.693c0-.213-.051-.481-.079-.612l-.039-.144a2.637 2.637 0 0 0-.128-.378l-.058-.115a3.024 3.024 0 0 0-.183-.326l-.075-.104a3.243 3.243 0 0 0-.232-.294l-.084-.091a4.297 4.297 0 0 0-.361-.338 5.222 5.222 0 0 0-.413-.308 5.828 5.828 0 0 0-.453-.275l-.803-.471-.01.008L9.593 0H6.268L3.707 2.562l-.4.18a5.428 5.428 0 0 0-1.136.674l-.174.153c-.08.074-.174.163-.221.213l-.07.074a3.648 3.648 0 0 0-.251.315l-.07.099c-.07.107-.128.216-.179.318l-.069.14c-.05.117-.086.234-.113.335l-.034.104-.012.059a2.574 2.574 0 0 0-.056.524v6c0 1.303.997 2.473 2.676 3.183l.115.057.041.009c.134.053.276.101.418.148l.195.066c.09.032.181.064.266.089.057.018.118.032.213.053.305.082.621.154.948.21.297.053.601.098.917.127.393.037.797.059 1.212.059.238 0 .501-.02.756-.043l-.019.075h3.109l.388-1.163.388 1.163h3.109l-1.101-4.402c.52-.584.818-1.345.818-2.139z" id="outline"/><path class="icon-vs-fg" d="M13.388 9.477a1.108 1.108 0 1 1-2.216 0 1.108 1.108 0 0 1 2.216 0zm-4.24-.098c0 .788.305 1.53.819 2.112L9.36 13.92l-.114.011.001-.006c-.035.004-.066.011-.101.015l-.126.012a11.064 11.064 0 0 1-1.892.013l-.035-.003-.028-.003a10.09 10.09 0 0 1-.766-.094h-.002l-.013-.002a8.694 8.694 0 0 1-.629-.131c-.055-.014-.114-.026-.167-.041-.028-.007-.052-.016-.079-.024h-.001a5.533 5.533 0 0 1-.616-.223l-.069-.029a4.304 4.304 0 0 1-.891-.521l-.034-.026a2.995 2.995 0 0 1-.5-.494l-.019-.025a2.018 2.018 0 0 1-.209-.331l-.017-.038L3 8.538V7.534c.008.008.023.021.062.053.032.027.084.064.149.111.019.013.029.022.051.036.078.054.179.114.297.18l.054.031c.125.068.274.138.441.211l.07.032c.168.07.363.138.573.206.04.013.07.026.111.038.207.062.444.118.692.171.061.013.111.029.174.041.25.048.532.084.822.117.081.009.148.024.232.032.383.036.797.057 1.248.057.382 0 .877-.012 1.226-.036a3.15 3.15 0 0 0-.054.535l.001.014c.001.007-.001.011-.001.016zM6.542 4.345L5.411 5.473l-.796-.796c-.426.148-.787.32-1.048.516l-.007.004a1.766 1.766 0 0 0-.196.171 1.218 1.218 0 0 0-.182.214c-.01.016-.023.03-.031.046a.742.742 0 0 0-.125.376c0 .812 1.488 1.49 3.516 1.712V4.345zm5.738 1.931c.22 0 .436.023.644.065.025-.044.046-.089.065-.134a.614.614 0 0 0 .054-.232c0-.514-.601-.974-1.554-1.301l-.798.798-1.149-1.144v3.39c.023-.003.043-.008.066-.01a3.211 3.211 0 0 1 2.672-1.432z" id="iconFg"/><path class="icon-vs-bg" d="M11.552 4.699l-.066-.021.787-.787c.056.032.114.067.158.091l.012.006c.13.072.253.147.369.225l.029.019a4.01 4.01 0 0 1 .345.263c.085.073.163.148.236.225l.051.053c.065.072.122.146.176.222.017.023.036.046.051.07.047.072.085.145.122.219.014.028.031.055.043.084.032.074.054.15.075.227.008.029.02.056.026.085.022.105.058.305.058.413l-.018.507L14 6.598v.156a3.181 3.181 0 0 0-1.064-.439 1.33 1.33 0 0 0 .052-.108.614.614 0 0 0 .054-.232c0-.385-.352-.736-.923-1.027l-.001.001c-.041-.022-.074-.046-.118-.066a4.856 4.856 0 0 0-.419-.173l-.029-.011zm2.03 6.574l.935 3.738h-1.108l-1.108-3.324-1.108 3.324h-1.108l.934-3.738a2.207 2.207 0 0 1-.934-1.802 2.216 2.216 0 1 1 4.432 0c0 .745-.37 1.401-.935 1.802zm-.194-1.796a1.108 1.108 0 1 0-2.216 0 1.108 1.108 0 0 0 2.216 0zm-5.846-7.54V7h1V1.919l2.148 2.14.707-.707L8.057 0 4.705 3.352l.707.707 2.13-2.122zm.526 5.86c-.024 0-.045.003-.069.003-.51 0-.994-.034-1.456-.086v.002l-.058-.008a10.524 10.524 0 0 1-.463-.066 9.576 9.576 0 0 1-.372-.064l-.235-.05a8.502 8.502 0 0 1-.567-.145l-.005-.001c-1.101-.327-1.817-.819-1.817-1.378a.74.74 0 0 1 .124-.376c.008-.016.022-.031.031-.046a1.876 1.876 0 0 1 .379-.385l.007-.005c.261-.195.622-.368 1.048-.516l.013.014-.786-.787c-.378.17-.68.355-.918.542l-.019.015-.044.036c-.022.019-.04.039-.062.059a5.304 5.304 0 0 0-.174.166l-.051.054a2.542 2.542 0 0 0-.176.221c-.016.024-.035.047-.051.07a2.16 2.16 0 0 0-.122.219c-.013.029-.03.056-.043.084a1.767 1.767 0 0 0-.074.227c-.008.029-.02.056-.026.085A1.55 1.55 0 0 0 2.047 6v6c0 .918.827 1.738 2.125 2.289l.006.002c.166.07.35.128.531.188.113.038.218.081.336.115.058.017.123.028.182.044a10.818 10.818 0 0 0 1.7.308c.364.034.737.054 1.12.054.337 0 .732-.047 1.061-.077l.25-.999-.172.016-.104.01a10.994 10.994 0 0 1-1.907.015c-.022-.002-.586-.06-.829-.1l-.014-.002a8.838 8.838 0 0 1-.63-.131c-.054-.014-.113-.026-.166-.041-.028-.007-.053-.017-.08-.024-1.933-.573-2.355-1.687-2.355-1.687l-.054-3.442V7.534c.08.076 1.443 1.318 4.977 1.318.392 0 .814-.009 1.161-.033.033-.154.081-.3.138-.443.047-.125.103-.244.165-.361.041-.102.074-.209.132-.301a12.94 12.94 0 0 1-1.483.086c-.024 0-.046-.003-.069-.003z" id="iconBg"/></svg>