<svg xmlns="http://www.w3.org/2000/svg" viewBox="0 0 16 16"><defs><style>.icon-canvas-transparent,.icon-vs-out{fill:#f6f6f6;}.icon-canvas-transparent{opacity:0;}.icon-vs-bg{fill:#424242;}</style></defs><title>ItemListView_16x</title><g id="canvas"><path class="icon-canvas-transparent" d="M16,0V16H0V0Z"/></g><g id="outline"><path class="icon-vs-out" d="M15,0V8H10v8H0V0Z"/></g><g id="iconBg"><path class="icon-vs-bg" d="M1,1H4V4H1ZM6,4H9V1H6Zm5-3V4h3V1ZM1,12H4V9H1Zm5,0H9V9H6ZM1,7H4V6H1ZM6,7H9V6H6Zm5,0h3V6H11ZM1,15H4V14H1Zm5,0H9V14H6Z"/></g></svg>