<svg xmlns="http://www.w3.org/2000/svg" viewBox="0 0 16 16"><style>.icon-canvas-transparent{opacity:0;fill:#f6f6f6}.icon-vs-out{fill:#f6f6f6}.icon-hyperlink-blue{fill:#0e70c0}</style><path class="icon-canvas-transparent" d="M16 16H0V0h16v16z" id="canvas"/><path class="icon-vs-out" d="M16 8A8 8 0 1 1 0 8a8 8 0 0 1 16 0z" id="outline"/><path class="icon-hyperlink-blue" d="M7.974 1.07a6.93 6.93 0 1 0 0 13.86 6.93 6.93 0 0 0 0-13.86zm0 12.87c-3.275 0-5.94-2.665-5.94-5.94s2.665-5.94 5.94-5.94c3.276 0 5.941 2.665 5.941 5.94s-2.665 5.94-5.941 5.94zm3.577-5.922l-3.854 3.79-.711-.711 2.591-2.591H4V7.53h5.577L7.084 5.037l.712-.712 3.755 3.693z" id="iconBg"/></svg>