<svg xmlns="http://www.w3.org/2000/svg" viewBox="0 0 16 16"><style>.icon-canvas-transparent{opacity:0;fill:#f6f6f6}.icon-vs-out{fill:#f6f6f6}.icon-vs-fg{fill:#f0eff1}.icon-disabled-grey{fill:#848484}</style><path class="icon-canvas-transparent" d="M16 16H0V0h16v16z" id="canvas"/><path class="icon-vs-out" d="M15 8A7 7 0 1 1 1 8a7 7 0 0 1 14 0z" id="outline"/><path class="icon-disabled-grey" d="M8 2C4.755 2 2 4.756 2 8c0 3.247 2.755 6 6 6s6-2.753 6-6c0-3.244-2.755-6-6-6zm-.303 9.808l-.711-.711 2.591-2.591H4V7.53h5.577L7.084 5.037l.712-.712 3.756 3.693-3.855 3.79z" id="iconBg"/><path class="icon-vs-fg" d="M11.551 8.018l-3.854 3.79-.711-.711 2.591-2.591H4V7.53h5.577L7.084 5.037l.712-.712 3.755 3.693z" id="iconFg"/></svg>