<svg xmlns="http://www.w3.org/2000/svg" viewBox="0 0 16 16"><defs><style>.icon-canvas-transparent,.icon-vs-out{fill:#f6f6f6;}.icon-canvas-transparent{opacity:0;}.icon-vs-action-blue{fill:#00539c;}.icon-vs-fg{fill:#f0eff1;}</style></defs><title>Forward_16x</title><g id="canvas"><path id="_Compound_Path_" data-name="&lt;Compound Path&gt;" class="icon-canvas-transparent" d="M16,16H0V0H16Z"/></g><g id="outline"><path id="_Compound_Path_2" data-name="&lt;Compound Path&gt;" class="icon-vs-out" d="M15,8A7,7,0,1,1,8,1,7,7,0,0,1,15,8Z"/></g><g id="iconBg"><path class="icon-vs-action-blue" d="M8,2A6.091,6.091,0,0,0,2,8a6.089,6.089,0,0,0,6,6,6.089,6.089,0,0,0,6-6A6.091,6.091,0,0,0,8,2Zm-.3,9.808L6.986,11.1,9.577,8.506H4V7.53H9.577L7.084,5.037,7.8,4.325l3.755,3.693Z"/></g><g id="iconFg"><path class="icon-vs-fg" d="M11.551,8.018,7.7,11.808,6.986,11.1,9.577,8.506H4V7.53H9.577L7.084,5.037,7.8,4.325Z"/></g></svg>