<svg xmlns="http://www.w3.org/2000/svg" viewBox="0 0 16 16"><defs><style>.icon-canvas-transparent,.icon-vs-out{fill:#f6f6f6;}.icon-canvas-transparent{opacity:0;}.icon-vs-bg{fill:#424242;}</style></defs><title>BlankPhone_16x</title><g id="canvas"><path class="icon-canvas-transparent" d="M16,0V16H0V0Z"/></g><g id="outline"><path class="icon-vs-out" d="M14,2V14a2,2,0,0,1-2,2H5a2,2,0,0,1-2-2V2A2,2,0,0,1,5,0h7A2,2,0,0,1,14,2Z"/></g><g id="iconBg"><path class="icon-vs-bg" d="M13,2V14a1,1,0,0,1-.607.919L11.475,14H12V2H5V7.525l-.263-.262L4,6.586V2A1,1,0,0,1,5,1h7A1,1,0,0,1,13,2ZM5,14V12.475l-1-1V14a1,1,0,0,0,1,1H7.525l-1-1ZM4,8v2.061L8.939,15H11l.03-.03-7-7Z"/></g></svg>