<svg xmlns="http://www.w3.org/2000/svg" viewBox="0 0 16 16"><style>.icon-canvas-transparent{opacity:0;fill:#f6f6f6}.icon-vs-out{fill:#f6f6f6}.icon-vs-bg{fill:#424242}.icon-vs-fg{fill:#f0eff1}</style><path class="icon-canvas-transparent" d="M16 0v16H0V0h16z" id="canvas"/><path class="icon-vs-out" d="M4 0v6.415a2.06 2.06 0 0 0-.959-.234 2.27 2.27 0 0 0-1.869.963C.987 7.404.86 7.695.797 8H0v8h12v-1h3v-3h1V0H4z" id="outline"/><path class="icon-vs-fg" d="M2 10h2v4H2v-4zm3 4h2v-4H5v4zM6 2v4.184a2.277 2.277 0 0 1 1.828.959c.185.262.312.553.375.857H9v2h5V2H6z" id="iconFg"/><g id="iconBg"><path class="icon-vs-bg" d="M9.908 5H11v1.092A1.496 1.496 0 0 0 11.5 9a1.496 1.496 0 1 0 .5-2.908V4H9.908A1.496 1.496 0 0 0 7 4.5a1.496 1.496 0 1 0 2.908.5zM11.5 7a.5.5 0 1 1 0 1 .5.5 0 0 1 0-1zm-3-2a.5.5 0 1 1 0-1 .5.5 0 0 1 0 1zm2.5 6v1h1v1h2v1h-3v1H9v-5h5V2H6v4.184l-.04-.003c-.351 0-.669.085-.96.235V1h10v10h-4zM7.232 8.68a1.286 1.286 0 0 0-1.051-1.481c-.908-.148-1.292.633-1.44.927-.037.074-.132.284-.241.527a22.24 22.24 0 0 0-.24-.525c-.148-.296-.53-1.077-1.441-.929a1.285 1.285 0 0 0-1.051 1.48c.019.114.062.219.113.321H1v6h7V9h-.881a1.14 1.14 0 0 0 .113-.32zm-4.265-.615c.119-.021.258-.044.508.457.035.067.12.258.219.478h-.547c-.104-.056-.2-.11-.262-.152-.223-.152-.244-.274-.25-.316a.404.404 0 0 1 .332-.467zM4 14H2v-4h2v4zm1.526-5.48c.249-.499.389-.478.508-.455.221.037.37.247.333.468-.007.04-.027.163-.25.314A3.257 3.257 0 0 1 5.854 9h-.547c.098-.22.184-.411.219-.48zM7 14H5v-4h2v4z"/></g></svg>