<svg xmlns="http://www.w3.org/2000/svg" viewBox="0 0 16 16"><style>.icon-canvas-transparent{opacity:0;fill:#f6f6f6}.icon-vs-out{fill:#f6f6f6}.icon-vs-bg{fill:#424242}.icon-vs-fg{fill:#f0eff1}.icon-vs-action-blue{fill:#00539c}</style><path class="icon-canvas-transparent" d="M16 16H0V0h16v16z" id="canvas"/><path class="icon-vs-out" d="M7.964 5a3.518 3.518 0 0 1-.271 1H16v4H6v1h10v4H6v1H0V1h3v.349C3.499 1.088 3.929 1 4.502 1c.526 0 1.035.122 1.498.342V1h10v4H7.964z" id="outline"/><path class="icon-vs-bg" d="M1 15h4v-4H1v4zm1-3h2v2H2v-2zm1.716-2.16L5 8.735V10H1V6H3.586l-1.13 1H2v2h.877l.839.84zM7 7h8v2H7V7zm0 5h8v2H7v-2zm8-10v2H8V2h7z" id="iconBg"/><path class="icon-vs-fg" d="M4 7H2v2h2V7zm0 5H2v2h2v-2z" id="iconFg"/><path class="icon-vs-action-blue" d="M4.502 2c-.592 0-.924.097-1.616.594L2 3.361V2H1v3h3V4H2.76l.773-.644c.319-.207.614-.356.969-.356a1.502 1.502 0 0 1 .969 2.645L3.062 7.757l.688.687 2.377-2.046A2.5 2.5 0 0 0 4.502 2z" id="colorAction"/></svg>