<svg xmlns="http://www.w3.org/2000/svg" viewBox="0 0 16 16"><style>.icon-canvas-transparent{opacity:0;fill:#f6f6f6}.icon-vs-out{fill:#f6f6f6}.icon-vs-bg{fill:#424242}.icon-vs-yellow{fill:#fc0}.icon-vs-action-blue{fill:#00539c}</style><path class="icon-canvas-transparent" d="M16 16H0V0h16v16z" id="canvas"/><path class="icon-vs-out" d="M15.552 3.948C15.85 4.606 16 5.297 16 6a4.976 4.976 0 0 1-1.828 3.841l-.184.152 1.985 4.002L15.002 16H8.004L6.97 14.025l.587-1.168-.85.849c-.123.123-.786.737-1.744.737-.425 0-1.061-.128-1.67-.737-1.252-1.252-.686-2.728 0-3.414l2.911-2.911c-.011-.037-.02-.076-.03-.114l-2.16 2.208L0 5.374V4.016l1.441-1.441 1.084 1.084V0h2.976v3.658l1.084-1.084.422.422.24-.275A4.994 4.994 0 0 1 11 1c.703 0 1.394.151 2.052.448l1.319.596L11.414 5l.586.586 2.957-2.957.595 1.319z" id="outline"/><path class="icon-vs-bg" d="M15 6a3.971 3.971 0 0 1-1.465 3.07L12.5 7H12l2.641-2.641C14.867 4.861 15 5.414 15 6zm-2.359-3.641A3.984 3.984 0 0 0 11 2a3.974 3.974 0 0 0-3 1.38V6l-.892.892c.061.259.144.511.251.749L4 11s-1 1 0 2 2 0 2 0l3-3 1.5-3H12l-2-2 2.641-2.641z" id="iconBg"/><path class="icon-vs-action-blue" d="M7.292 4.695l-.707-.707-2.084 2.084V1h-.976v5.072L1.441 3.988l-.707.707 3.279 3.352 3.279-3.352z" id="colorAction"/><path class="icon-vs-yellow" d="M11.891 8.016h-.781l-3.016 6 .515.984h5.766l.484-1-2.968-5.984zM12 14h-1v-1h1v1zm0-2h-1v-2h1v2z" id="notificationBg"/><path class="icon-black" d="M12 12h-1v-2h1v2zm0 1h-1v1h1v-1z" id="notificationFg"/></svg>