<svg xmlns="http://www.w3.org/2000/svg" viewBox="0 0 16 16"><defs><style>.icon-canvas-transparent,.icon-vs-out{fill:#f6f6f6;}.icon-canvas-transparent{opacity:0;}.icon-vs-fg{fill:#f0eff1;}.icon-vs-bg{fill:#424242;}.icon-folder{fill:#dcb67a;}.icon-vs-action-blue{fill:#00539c;}</style></defs><title>SolutionFolderSwitch_16x</title><g id="canvas"><path class="icon-canvas-transparent" d="M16,16H0V0H16Z"/></g><g id="outline"><path class="icon-vs-out" d="M9.382,0l-1,2H7.36l-2-2H3.824l-1,1H1V5H0V15H11v-.9l1.671,1.671L14.439,14H16V0Z"/></g><g id="iconFg"><path class="icon-vs-fg" d="M14.011,1.991v1h-3.5l.5-1ZM9,8H2v5H9Z"/></g><g id="iconBg"><path class="icon-vs-bg" d="M1,6v8h9V6Zm8,7H2V8H9Z"/><path class="icon-folder" d="M15,1H10L8.995,3,6,2.991V5h5V9h4.011ZM14,3H10.5L11,2h3Z"/></g><g id="colorAction"><path class="icon-vs-action-blue" d="M4.591.646l-.707.708L4.531,2H2V5H3V3H4.579l-.646.646.707.708,1.829-1.83ZM15,13H12.731l.647.647-.707.706-1.878-1.877,1.829-1.829.707.706L12.683,12H14V10h1Z"/></g></svg>