<svg xmlns="http://www.w3.org/2000/svg" viewBox="0 0 16 16"><defs><style>.icon-canvas-transparent,.icon-vs-out{fill:#f6f6f6;}.icon-canvas-transparent{opacity:0;}.icon-vs-bg{fill:#424242;}</style></defs><title>Cloud_16x</title><g id="canvas"><path id="canvas-2" data-name="canvas" class="icon-canvas-transparent" d="M16,16H0V0H16Z"/></g><g id="outline"><path id="outline-2" data-name="outline" class="icon-vs-out" d="M4.562,13a4.625,4.625,0,0,1,0-9.25h.1A4.945,4.945,0,0,1,8.43,2a5.024,5.024,0,0,1,4.783,3.614A3.757,3.757,0,0,1,12.3,13Z"/></g><g id="iconBg"><path id="iconBg-2" data-name="iconBg" class="icon-vs-bg" d="M8.43,4a3.036,3.036,0,0,1,3.009,3.063V7.5h.86a1.75,1.75,0,0,1,0,3.5H4.561a2.625,2.625,0,0,1,0-5.25,2.513,2.513,0,0,1,1.06.238A3.007,3.007,0,0,1,8.43,4m0-1a3.987,3.987,0,0,0-3.3,1.8,3.461,3.461,0,0,0-.567-.047,3.626,3.626,0,0,0,0,7.25H12.3a2.751,2.751,0,0,0,.085-5.5A4.021,4.021,0,0,0,8.43,3Z"/></g></svg>