<svg xmlns="http://www.w3.org/2000/svg" viewBox="0 0 16 16"><style>.icon-canvas-transparent{opacity:0;fill:#f6f6f6}.icon-vs-out{fill:#f6f6f6}.icon-vs-bg{fill:#424242}.icon-vs-fg{fill:#f0eff1}</style><path class="icon-canvas-transparent" d="M16 16H0V0h16v16z" id="canvas"/><path class="icon-vs-out" d="M16 8.481l-3 2.944V16H0V0h8.832L13 4.208v.449l3 2.944v.88z" id="outline"/><path class="icon-vs-fg" d="M9.546 10.626l1.083-1.083H7.022v-3l3.608-.001L10.089 6H7V2H2v12h9v-1.92l-1.454-1.454zM3 5h3v1H3V5zm4 4H3V7h4v2zm3.003-4H8V2.207l2.398 2.398-.395.395z" id="iconFg"/><path class="icon-vs-bg" d="M12 12.407V15H1V1h7.442l2.778 2.782-.823.823L8 2.207V5h2.003l-.457.457.543.543H7V2H2v12h9v-1.92l.66.66.34-.333zm3.021-4.366L11.667 4.75l-.707.707 2.084 2.084H8.022v1.001h5.022l-2.084 2.084.707.707 3.354-3.292zM6 5H3v1h3V5zM3 7v2h4V7H3zm0 4h3v-.979L3 10v1z" id="iconBg"/></svg>