<svg xmlns="http://www.w3.org/2000/svg" viewBox="0 0 16 16"><defs><style>.icon-canvas-transparent,.icon-vs-out{fill:#f6f6f6;}.icon-canvas-transparent{opacity:0;}.icon-vs-action-blue{fill:#00539c;}.icon-vs-fg{fill:#f0eff1;}</style></defs><title>Backward_16x</title><g id="canvas"><path id="_Compound_Path_" data-name="&lt;Compound Path&gt;" class="icon-canvas-transparent" d="M0,0H16V16H0Z"/></g><g id="outline"><path id="_Compound_Path_2" data-name="&lt;Compound Path&gt;" class="icon-vs-out" d="M8,1A7,7,0,1,1,1,8,7,7,0,0,1,8,1Z"/></g><g id="iconBg"><path class="icon-vs-action-blue" d="M2,8a6.089,6.089,0,0,0,6,6,6.089,6.089,0,0,0,6-6A6.091,6.091,0,0,0,8,2,6.091,6.091,0,0,0,2,8Zm2.449.018L8.2,4.325l.712.712L6.423,7.53H12v.976H6.423L9.014,11.1l-.711.711Z"/></g><g id="iconFg"><path class="icon-vs-fg" d="M8.2,4.325l.712.712L6.423,7.53H12v.976H6.423L9.014,11.1l-.711.711L4.449,8.018Z"/></g></svg>