<svg xmlns="http://www.w3.org/2000/svg" viewBox="0 0 16 16"><style>.icon-canvas-transparent{opacity:0;fill:#f6f6f6}.icon-vs-out{fill:#f6f6f6}.icon-vs-bg{fill:#424242}.icon-vs-fg{fill:#f0eff1}.icon-vs-yellow{fill:#fc0}</style><path class="icon-canvas-transparent" d="M16 0v16H0V0h16z" id="canvas"/><path class="icon-vs-out" d="M15.973 13.995L15.002 16H1V0h13v10.018l1.973 3.977z" id="outline"/><path class="icon-vs-bg" d="M2 1v4h11V1H2zm10 3h-2V3h2v1zM2 6h11v2.002l-.489-.986h-2.018L8.993 10H2V6zm6.49 5l-1.52 3.025.51.975H2v-4h6.49z" id="iconBg"/><path class="icon-vs-fg" d="M12 3v1h-2V3h2z" id="iconFg"/><path class="icon-vs-yellow" d="M11.891 8.016h-.781l-3.016 6 .515.984h5.766l.484-1-2.968-5.984zM12 14h-1v-1h1v1zm0-2h-1v-2h1v2z" id="notificationBg"/><g id="notificationFg"><path class="icon-black" d="M12 10v2h-1v-2h1zm-1 4h1v-1h-1v1z"/></g></svg>