<svg xmlns="http://www.w3.org/2000/svg" viewBox="0 0 16 16"><defs><style>.icon-canvas-transparent,.icon-vs-out{fill:#f6f6f6;}.icon-canvas-transparent{opacity:0;}.icon-vs-fg{fill:#f0eff1;}.icon-vs-action-green{fill:#388a34;}</style></defs><title>Connect_16x</title><g id="canvas"><path class="icon-canvas-transparent" d="M16,0V16H0V0Z"/></g><g id="outline"><path class="icon-vs-out" d="M13,3V8a5,5,0,0,1-3.5,4.75V16h-3V12.75A5,5,0,0,1,3,8V3H5V0h6V3Z"/></g><g id="iconFg"><path class="icon-vs-fg" d="M11,5V8A3,3,0,0,1,5,8V5Z"/></g><g id="iconBg"><path class="icon-vs-action-green" d="M10,4V1H9V4H7V1H6V4H4V8a3.993,3.993,0,0,0,3.5,3.95V15h1V11.95A3.993,3.993,0,0,0,12,8V4ZM8,11A3,3,0,0,1,5,8V5h6V8A3,3,0,0,1,8,11Z"/></g></svg>