<svg xmlns="http://www.w3.org/2000/svg" viewBox="0 0 16 16"><style>.icon-canvas-transparent{opacity:0;fill:#f6f6f6}.icon-vs-bg{fill:#424242}.icon-vs-out{fill:#f6f6f6}</style><path class="icon-canvas-transparent" d="M16 0v16H0V0h16z" id="canvas"/><path class="icon-vs-out" d="M16 2v1.65L13.729 15H0v-1.648L2.271 2H16z" id="outline"/><g id="iconBg"><path class="icon-vs-bg" d="M3.09 3L.89 14h12.02l2.2-11H3.09zm9 10H2.11l1.8-9h9.98l-1.8 9zM9 6H5V5h4v1zM8 9H4V8h4v1zm-5 2h4v1H3v-1zm10.015-6.235l-1.932 1.932-1.099-1.098.531-.53.567.568 1.402-1.401.531.529zm-1.53 2.303l.529.53-1.931 1.932-1.098-1.098.531-.53.567.568 1.402-1.402zm-1.001 2.999l.531.531-1.932 1.932-1.098-1.098.53-.531.568.568 1.401-1.402z"/></g></svg>