<svg xmlns="http://www.w3.org/2000/svg" viewBox="0 0 16 16"><style>.icon-canvas-transparent{opacity:0;fill:#f6f6f6}.icon-white{fill:#fff}</style><path class="icon-canvas-transparent" d="M16 0v16H0V0h16z" id="canvas"/><path class="icon-white" d="M3 3L0 14h13l3-11H3zm9.273 10h-11l2.455-9h11l-2.455 9zM4.682 6h5l-.273 1h-5l.273-1zm-.546 2h5l-.272 1h-5l.272-1zm-.545 2h5l-.273 1h-5l.273-1zm7.479-2.979l-.614-.844.45-.354.357.49 1.472-1.157.257.353-1.922 1.512zm1.12.135l.257.353-1.922 1.511-.614-.843.45-.354.357.49 1.472-1.157z" id="iconBg"/></svg>