<svg xmlns="http://www.w3.org/2000/svg" viewBox="0 0 16 16"><style>.icon-vs-out{fill:#f6f6f6}.icon-vs-bg{fill:#424242}.icon-vs-fg{fill:#f0eff1}.icon-cpp-purple{fill:#9b4f96}.icon-canvas-transparent{opacity:0;fill:#f6f6f6}</style><path class="icon-canvas-transparent" d="M0 0h16v16H0z" id="canvas"/><path class="icon-vs-out" d="M11.621 0H3v8H0v8h16V4.379z" id="outline"/><g id="iconBg"><path class="icon-cpp-purple" d="M11.207 1H4v7h1V2h5v4h4v9h1V4.793L11.207 1zM11 5V2.207L13.793 5H11z"/><path class="icon-vs-bg" d="M1 9v6h11.969V9H1zm3 5l-.25-1h-.5L3 14H2l1-4h1l1 4H4zm4.639-3h-1v3h-.967v-3H5.639v-1h3v1zm3.338 3H9.969v-4h1.008v3h1v1z"/><path class="icon-vs-bg" d="M3.531 11.027l-.236 1.188h.424z"/><path class="icon-vs-bg" d="M1 9v6h11.969V9H1zm3 5l-.25-1h-.5L3 14H2l1-4h1l1 4H4zm4.639-3h-1v3h-.967v-3H5.639v-1h3v1zm3.338 3H9.969v-4h1.008v3h1v1z"/><path class="icon-vs-bg" d="M3.531 11.027l-.236 1.188h.424z"/></g><path class="icon-vs-fg" d="M14 6v2H5V2h5v4h4zm-3-4v3h3l-3-3z" id="iconFg"/></svg>