<svg xmlns="http://www.w3.org/2000/svg" viewBox="0 0 16 16"><style>.icon-canvas-transparent{opacity:0;fill:#f6f6f6}.icon-vs-out{fill:#f6f6f6}.icon-vs-bg{fill:#424242}.icon-vs-fg{fill:#f0eff1}</style><path class="icon-canvas-transparent" d="M16 0v16H0V0h16z" id="canvas"/><path class="icon-vs-out" d="M16 12.5c0 1.93-1.57 3.5-3.5 3.5S9 14.43 9 12.5c0-1.369.805-2.592 2-3.161V5H6.662a3.504 3.504 0 0 1-.95 1.203c.082-.009.163-.022.248-.022a2.277 2.277 0 0 1 1.867.962c.186.262.313.553.376.857H9v8H0V8h.797a2.278 2.278 0 0 1 1.006-1.458A3.488 3.488 0 0 1 0 3.5C0 1.57 1.57 0 3.5 0c1.369 0 2.592.805 3.162 2H14v7.339c1.195.569 2 1.792 2 3.161z" id="outline"/><path class="icon-vs-fg" d="M2 10h2v4H2v-4zm3 4h2v-4H5v4zM3.5 2C2.673 2 2 2.673 2 3.5S2.673 5 3.5 5 5 4.327 5 3.5 4.327 2 3.5 2zm9 9c-.827 0-1.5.673-1.5 1.5s.673 1.5 1.5 1.5 1.5-.673 1.5-1.5-.673-1.5-1.5-1.5z" id="iconFg"/><g id="iconBg"><path class="icon-vs-bg" d="M13 10.05V3H5.949A2.503 2.503 0 0 0 3.5 1C2.122 1 1 2.122 1 3.5S2.122 6 3.5 6c1.207 0 2.217-.86 2.449-2H12v6.05c-1.14.232-2 1.242-2 2.45 0 1.379 1.121 2.5 2.5 2.5s2.5-1.121 2.5-2.5c0-1.208-.86-2.217-2-2.45zM3.5 5C2.673 5 2 4.327 2 3.5S2.673 2 3.5 2 5 2.673 5 3.5 4.327 5 3.5 5zm9 9c-.827 0-1.5-.673-1.5-1.5s.673-1.5 1.5-1.5 1.5.673 1.5 1.5-.673 1.5-1.5 1.5zM7.232 8.68a1.286 1.286 0 0 0-1.051-1.481c-.908-.148-1.292.633-1.44.927-.037.074-.132.284-.241.527a22.24 22.24 0 0 0-.24-.525c-.148-.296-.53-1.077-1.441-.929a1.285 1.285 0 0 0-1.051 1.48c.019.114.062.219.113.321H1v6h7V9h-.881a1.14 1.14 0 0 0 .113-.32zm-4.265-.615c.119-.021.258-.044.508.457.035.067.12.258.219.478h-.547c-.104-.056-.2-.11-.262-.152-.223-.152-.244-.274-.25-.316a.404.404 0 0 1 .332-.467zM4 14H2v-4h2v4zm1.526-5.48c.249-.499.389-.478.508-.455.221.037.37.247.333.468-.007.04-.027.163-.25.314A3.257 3.257 0 0 1 5.854 9h-.547c.098-.22.184-.411.219-.48zM7 14H5v-4h2v4z"/></g></svg>