<svg xmlns="http://www.w3.org/2000/svg" viewBox="0 0 16 16"><title>InterfaceFile_16x</title><path d="M16 4.195V16H3v-1.06a2.451 2.451 0 0 1-.5.06 2.5 2.5 0 0 1 0-5 2.451 2.451 0 0 1 .5.06V0h8.822z" fill="#f6f6f6"/><path d="M14 6v8h-2.351A3.459 3.459 0 0 0 12 12.5 3.5 3.5 0 0 0 5.338 11H5V2h5v4zm-3-3.793V5h2.793z" fill="#f0eff1"/><path d="M11.407 1H4v9.519a2.5 2.5 0 0 1 .493.481H5V2h5v4h4v8h-2.351a3.506 3.506 0 0 1-.707 1H15V4.608zM11 5V2.207L13.793 5zm-2.5 5a2.5 2.5 0 0 0-2.449 2H3.908a1.5 1.5 0 1 0 0 1h2.143A2.5 2.5 0 1 0 8.5 10zm0 4a1.5 1.5 0 1 1 1.5-1.5A1.5 1.5 0 0 1 8.5 14z" fill="#424242"/></svg>