<svg xmlns="http://www.w3.org/2000/svg" viewBox="0 0 16 16"><defs><style>.icon-canvas-transparent,.icon-vs-out{fill:#f6f6f6;}.icon-canvas-transparent{opacity:0;}.icon-vs-bg{fill:#424242;}</style></defs><title>Fork_16x</title><g id="canvas"><path class="icon-canvas-transparent" d="M16,0V16H0V0Z"/></g><g id="outline"><path class="icon-vs-out" d="M3.5,15.75A3.249,3.249,0,0,1,2,9.619V6.131A3.249,3.249,0,1,1,6.75,3.25,3.226,3.226,0,0,1,5,6.131V9.623A3.278,3.278,0,0,1,6.377,11H11V6.133a3.25,3.25,0,1,1,3,0V14H6.381A3.226,3.226,0,0,1,3.5,15.75Z"/></g><g id="iconBg"><path class="icon-vs-bg" d="M12.5,1a2.25,2.25,0,1,0,2.25,2.25A2.253,2.253,0,0,0,12.5,1Zm0,3.5a1.25,1.25,0,1,1,1.25-1.25A1.252,1.252,0,0,1,12.5,4.5ZM4,10.311V5.44a2.25,2.25,0,1,0-1,0v4.871A2.247,2.247,0,1,0,5.689,13H7V12H5.689A2.25,2.25,0,0,0,4,10.311ZM2.25,3.25A1.25,1.25,0,1,1,3.5,4.5,1.252,1.252,0,0,1,2.25,3.25ZM3.5,13.75A1.25,1.25,0,1,1,4.75,12.5,1.252,1.252,0,0,1,3.5,13.75ZM8,12H9v1H8Zm2,0h1v1H10Zm2,0h1v1H12Zm0-2h1v1H12Zm0-2h1V9H12Zm0-2h1V7H12Z"/></g></svg>