<svg xmlns="http://www.w3.org/2000/svg" viewBox="0 0 16 16"><defs><style>.icon-canvas-transparent,.icon-vs-out{fill:#f6f6f6;}.icon-canvas-transparent{opacity:0;}.icon-vs-bg{fill:#424242;}.icon-vs-action-blue{fill:#00539c;}</style></defs><title>CloudUpload_16x</title><g id="canvas"><path class="icon-canvas-transparent" d="M16,0V16H0V0Z"/></g><g id="outline"><path class="icon-vs-out" d="M13.212,4.614A5.025,5.025,0,0,0,8.43,1,4.948,4.948,0,0,0,4.666,2.751h-.1a4.625,4.625,0,0,0,0,9.25H6v2H9V12h3.3a3.757,3.757,0,0,0,.914-7.386Z"/></g><g id="iconBg"><path class="icon-vs-bg" d="M15,8.25A2.73,2.73,0,0,1,12.3,11H9V10h3.3a1.75,1.75,0,0,0,0-3.5h-.859V6.063A3.037,3.037,0,0,0,8.43,3,3.005,3.005,0,0,0,5.622,4.988,2.521,2.521,0,0,0,4.561,4.75a2.625,2.625,0,0,0,0,5.25H6v1H4.561a3.626,3.626,0,0,1,0-7.25,3.461,3.461,0,0,1,.567.047,3.963,3.963,0,0,1,7.255,1.7A2.732,2.732,0,0,1,15,8.25Z"/><polygon class="icon-vs-action-blue" points="9.854 8.146 7.5 5.793 5.146 8.146 5.854 8.854 7 7.707 7 13 8 13 8 7.707 9.146 8.854 9.854 8.146"/></g></svg>