<svg xmlns="http://www.w3.org/2000/svg" viewBox="0 0 16 16"><defs><style>.icon-canvas-transparent,.icon-vs-out{fill:#f6f6f6;}.icon-canvas-transparent{opacity:0;}.icon-vs-bg{fill:#424242;}.icon-vs-action-green{fill:#388a34;}</style></defs><title>CreateVirtualEnvironment_16x</title><g id="canvas"><path class="icon-canvas-transparent" d="M16,0V16H0V0Z"/></g><g id="outline"><path class="icon-vs-out" d="M16,15.072V16H1v-.93L2.9,9H4V8H2V6H0V2H2V0h9a2,2,0,0,1,2,2V9h1.1Z"/></g><g id="iconBg"><path class="icon-vs-bg" d="M8,12H7V11H8Zm2-3H7v1h3Zm0,3V11H9v1ZM10,1H9V2h1Zm1,0V2h1A1,1,0,0,0,11,1Zm1,2H11V4h1Zm0,2H11V6h1Zm0,2H11V8h1ZM11,9v1h1V9ZM6,12V11H5v1Zm4-5H7V8h3Zm3.367,3H12v1h.633l.937,3H3.43l.938-3H5V10H3.632L2.07,15H14.93ZM11,12h1V11H11ZM8,4h2V3H8ZM8,1H7V2H8ZM6,9H5v1H6Z"/><path class="icon-vs-action-green" d="M7,3V5H5V7H3V5H1V3H3V1H5V3Z"/></g></svg>