<svg xmlns="http://www.w3.org/2000/svg" viewBox="0 0 16 16"><style>.icon-canvas-transparent{opacity:0;fill:#f6f6f6}.icon-vs-out{fill:#f6f6f6}.icon-vs-bg{fill:#424242}.icon-vs-fg{fill:#f0eff1}</style><path class="icon-canvas-transparent" d="M16 16H0V0h16v16z" id="canvas"/><path class="icon-vs-out" d="M16 0H7v4H0v11.994h10v-.979l1.717.002a2.498 2.498 0 0 0 2.491-2.5v-.224l.082.082 1.71-1.71v-.827L14.168 8H16V0zm-6 12.016v-.886l.885.886H10zm0-2.742V8h1.274L10 9.274z" id="outline"/><path class="icon-vs-fg" d="M9 3h1v1H9V3zm2 3h1V5h-1v1zm-9-.005V14h6V7.741L6.237 6 2 5.995zM11 4h1V3h-1v1zm2 2h1V5h-1v1zm0-3v1h1V3h-1zM9 5.221V6h1V5H9v.221z" id="iconFg"/><path class="icon-vs-bg" d="M12.723 7.966L15 10.252l-.711.711-1.081-1.077v2.632c0 .827-.664 1.5-1.491 1.5l-1.493-.002v-1l1.493.002c.275 0 .5-.225.5-.5l-.009-2.615-1.013 1.008-.709-.709 2.237-2.236zM15 1v6h-5v-.098L9.082 6H10V5H9v.919l-1-.983V1h7zm-5 2H9v1h1V3zm2 2h-1v1h1V5zm0-2h-1v1h1V3zm2 2h-1v1h1V5zm0-2h-1v1h1V3zM6.638 5L9 7.322v7.672H1V5h5.638zM8 7.741L6.237 6H2v8h6V7.741z" id="iconBg"/></svg>