<svg xmlns="http://www.w3.org/2000/svg" viewBox="0 0 16 16"><style>.icon-canvas-transparent{opacity:0;fill:#f6f6f6}.icon-vs-out{fill:#f6f6f6}.icon-vs-bg{fill:#424242}</style><path class="icon-canvas-transparent" d="M16 0v16H0V0h16z" id="canvas"/><path class="icon-vs-out" d="M16 8c0 4.411-3.589 8-8 8s-8-3.589-8-8 3.589-8 8-8 8 3.589 8 8z" id="outline"/><g id="iconBg"><path class="icon-vs-bg" d="M8 1C4.14 1 1 4.14 1 8c0 3.859 3.14 7 7 7 3.859 0 7-3.141 7-7 0-3.86-3.141-7-7-7zM2.5 8c0-3.033 2.467-5.5 5.5-5.5 1.246 0 2.393.422 3.316 1.123l-7.693 7.693A5.465 5.465 0 0 1 2.5 8zM8 13.5a5.47 5.47 0 0 1-3.317-1.123l7.694-7.694A5.47 5.47 0 0 1 13.5 8c0 3.032-2.468 5.5-5.5 5.5z"/></g></svg>