<svg xmlns="http://www.w3.org/2000/svg" viewBox="0 0 16 16"><style>.icon-canvas-transparent{opacity:0;fill:#f6f6f6}.icon-vs-out{fill:#f6f6f6}.icon-vs-bg{fill:#424242}.icon-vs-fg{fill:#f0eff1}</style><path class="icon-canvas-transparent" d="M16 16H.001V2H9.25V0H16l-.001 2H16v14z" id="canvas"/><path class="icon-vs-out" d="M16 16H0V0h16v16z" id="outline"/><path class="icon-vs-bg" d="M15.001 6.774V15h-14V3H9.25v.031h1.533L7.814 6H2.001v8h12V6.774h1zM10.25 1.031v1h2.947L8.264 6.965h1.414l4.315-4.315v3.124h1V1.031H10.25z" id="iconBg"/><path class="icon-vs-fg" d="M14.001 6.774V14h-12V6l5.826-.013L5.85 7.965h4.242l1.987-1.986.915-.002v.798h1.007z" id="iconFg"/></svg>