<svg xmlns="http://www.w3.org/2000/svg" viewBox="0 0 16 16"><style>.icon-canvas-transparent{opacity:0;fill:#f6f6f6}.icon-vs-out{fill:#f6f6f6}.icon-vs-bg{fill:#424242}.icon-vs-action-blue{fill:#00539c}</style><path class="icon-canvas-transparent" d="M16 16H0V0h16v16z" id="canvas"/><path class="icon-vs-out" d="M13 5H7c-.017 0-.033.005-.05.005l1.51-1.482L4.87 0H2.496l-.939.939 1.084 1.084L0 2.025v3h2.641L1.557 6.108l2.115 2.115.339-.333C4.01 7.927 4 7.962 4 8a3 3 0 0 0 .413 1.503l.289.497H6v6h7v-3h-1v-1h2v-2h1.298l.289-.497A3 3 0 0 0 16 8c0-1.654-1.346-3-3-3zm-2 4H9V8h2v1z" id="outline"/><path class="icon-vs-bg" d="M13 11H7v-1h6v1zm-2 1H7v1h4v-1zm1 2H7v1h5v-1zm1-8H7a2 2 0 0 0-2 2c0 .366.105.705.277 1H8V7h4v2h2.723c.171-.295.277-.634.277-1a2 2 0 0 0-2-2z" id="iconBg"/><path class="icon-vs-action-blue" d="M3.678 6.816l-.707-.708 2.084-2.084H.033V3.023h5.022L2.971.939l.707-.707 3.354 3.291-3.354 3.293z" id="colorAction"/></svg>