<svg xmlns="http://www.w3.org/2000/svg" viewBox="0 0 16 16"><defs><style>.icon-canvas-transparent,.icon-vs-out{fill:#f6f6f6;}.icon-canvas-transparent{opacity:0;}.icon-folder{fill:#dcb67a;}.icon-vs-bg{fill:#424242;}</style></defs><title>SnapshotFileShare_16x</title><path class="icon-canvas-transparent" d="M16,0V16H0V0Z"/><path class="icon-vs-out" d="M16,6V0H10V2.794l-.393-.785H6V0H0V6H2.985v.8l.021.335A3.13,3.13,0,0,0,1.375,9.875c0,.043.011.083.013.125H0v6H6V13H7.875a2.733,2.733,0,0,0,2.1-1H13v1H10v3h6V10H13.979V6ZM13,4l-2.394.007L10.1,3H13Z"/><path class="icon-folder" d="M9.989,5.009l-1-2h-5L3.984,6.8c.025,0,.049-.014.074-.018A3.3,3.3,0,0,1,9.139,7.809a2.773,2.773,0,0,1,1.486,2.441,2.713,2.713,0,0,1-.117.75h2.471V5Zm-5,0v-1h3l.5,1Z"/><path class="icon-vs-bg" d="M6.188,8A1.313,1.313,0,0,1,7.5,9.313V9.5h.375a.75.75,0,0,1,0,1.5H4.5a1.125,1.125,0,1,1,.463-2.148A1.31,1.31,0,0,1,6.188,8m0-1a2.317,2.317,0,0,0-1.7.75A2.125,2.125,0,0,0,4.5,12H7.875a1.75,1.75,0,0,0,.5-3.426A2.317,2.317,0,0,0,6.188,7Z"/><path class="icon-vs-bg" d="M1,1H5V2H2V5H1ZM11,1V2h3V5h1V1Zm3,13H11v1h4V11H14ZM2,11H1v4H5V14H2Z"/></svg>