<svg xmlns="http://www.w3.org/2000/svg" viewBox="0 0 16 16"><style>.icon-canvas-transparent{opacity:0;fill:#f6f6f6}.icon-vs-out{fill:#f6f6f6}.icon-vs-bg{fill:#424242}.icon-vs-fg{fill:#f0eff1}</style><path class="icon-canvas-transparent" d="M16 0v16H0V0h16z" id="canvas"/><path class="icon-vs-out" d="M16 16h-3.326l-.282-.847-.064.029-.273.818H8.73l.008-.034C8.495 15.981 8.255 16 8 16c-.415 0-.819-.021-1.212-.059-.316-.029-.62-.074-.917-.127a10.378 10.378 0 0 1-.949-.21 2.626 2.626 0 0 1-.213-.053c-.085-.024-.176-.057-.267-.09l-.193-.066a8.048 8.048 0 0 1-.431-.152l-.038-.009-.101-.05C1.997 14.473 1 13.303 1 12V6c0-.17.019-.347.056-.524l.012-.057.034-.106c.025-.097.063-.216.113-.335l.065-.134c.056-.112.114-.219.182-.324l.076-.106a3.3 3.3 0 0 1 .245-.308l.069-.073c.095-.1.197-.198.309-.294a5.43 5.43 0 0 1 1.293-.815L4.85 1.528l1.133 1.129H6V0h3v2.655l1.131-1.127.922.922c.432.051.734.186.854.207.469.188.716.267.97.432l.038.019c.168.092.315.182.455.276.169.115.295.21.413.308.164.139.266.238.361.338l.084.09c.077.085.158.189.233.295l.075.104c.07.107.128.216.183.326l.059.115c.059.14.095.257.127.377l.039.144c.036.168.056.346.056.519v1.349c.426.559.688 1.248.688 2.003 0 .731-.254 1.428-.688 1.999v.651L16 16z" id="outline"/><path class="icon-vs-bg" d="M12.144 3.755c1.141.546 1.859 1.311 1.859 2.163V6.6a3.254 3.254 0 0 0-.472-.237c-.068-.028-.142-.043-.212-.066-.107-.034-.209-.075-.319-.097V6h-.005l.003-.009c0-.387-.416-.79-1.132-1.175a4.683 4.683 0 0 0-.509-.274l.787-.787zM7.977 8.852c.382 0 .877-.012 1.226-.036.066-.392.206-.756.4-1.087l-.204.021a12.202 12.202 0 0 1-2.549.03c-.016-.002-.03-.005-.046-.006a10.85 10.85 0 0 1-.807-.105c-.154-.026-.291-.06-.434-.092-.126-.028-.257-.053-.374-.085-.131-.034-.249-.074-.369-.112-.113-.037-.226-.073-.329-.113a4.85 4.85 0 0 1-.295-.125 4.363 4.363 0 0 1-.503-.267 2.47 2.47 0 0 1-.225-.163c-.052-.041-.105-.082-.148-.123a1.357 1.357 0 0 1-.159-.194c-.024-.034-.056-.068-.074-.102A.638.638 0 0 1 3.003 6c0-.061.025-.127.048-.191.009-.028.01-.055.023-.083.041-.085.103-.172.179-.259.006-.007.01-.014.017-.021a2.94 2.94 0 0 1 .713-.544l-.727-.73c-.022.014-.047.027-.068.042a4.01 4.01 0 0 0-.33.246l-.044.036a3.173 3.173 0 0 0-.236.225l-.051.054a2.542 2.542 0 0 0-.176.221c-.016.024-.035.047-.051.07a2.16 2.16 0 0 0-.122.219c-.013.029-.03.056-.043.084a1.624 1.624 0 0 0-.074.227c-.008.029-.02.056-.026.085A1.55 1.55 0 0 0 2 6v6c0 .918.827 1.738 2.125 2.289l.006.002c.166.07.35.128.531.188.113.038.218.081.336.115.058.017.123.028.182.044a10.818 10.818 0 0 0 1.7.308c.364.034.737.054 1.12.054.339 0 .668-.019.991-.046l.257-1.03c-.038.004-.07.012-.109.016l-.104.01a10.994 10.994 0 0 1-1.907.015l-.063-.006a10.181 10.181 0 0 1-.767-.094l-.014-.002a8.838 8.838 0 0 1-.63-.131c-.054-.014-.113-.026-.166-.041-.028-.007-.053-.017-.08-.024-1.933-.573-2.355-1.687-2.355-1.687L3 8.538V7.534c.08.076 1.443 1.318 4.977 1.318zm5.668 2.302l.935 3.738h-1.108l-1.108-3.324-1.108 3.324h-1.108l.934-3.738a2.207 2.207 0 0 1-.934-1.802 2.216 2.216 0 1 1 4.432 0c0 .745-.37 1.401-.935 1.802zm-.173-1.802a1.108 1.108 0 1 0-2.216 0 1.108 1.108 0 0 0 2.216 0zM8 5.063V0H7v5.081l-2.148-2.14-.707.707L7.485 7l3.352-3.352-.707-.707L8 5.063z" id="iconBg"/><path class="icon-vs-fg" d="M13.472 9.352a1.108 1.108 0 1 1-2.216 0 1.108 1.108 0 0 1 2.216 0zm-4.09 4.565C8.968 13.969 8.51 14 8 14c-4.187 0-4.947-2.019-4.947-2.019L2.984 7.52s1.348 1.332 4.993 1.332c.444 0 .852-.019 1.23-.05a3.136 3.136 0 0 0-.059.577c0 .794.298 1.583.819 2.166l-.585 2.372zM3.051 5.809c-.023.064-.048.13-.048.191 0 .707 1.468 1.564 3.847 1.78L3.999 4.918c-.391.221-.667.447-.831.672-.032.045-.072.091-.094.136-.013.028-.014.055-.023.083zM12.997 6h-.003l.003-.009c0-.387-.416-.79-1.132-1.175a4.683 4.683 0 0 0-.509-.274l-3.289 3.29a16.452 16.452 0 0 0 1.536-.102c-.014.024-.023.053-.037.078.548-.991 1.588-1.672 2.798-1.672.218 0 .43.022.636.064v-.179h-.003c.002-.007-.001-.014 0-.021zm.534.363c-.107-.042-.219-.072-.331-.102.039.013.079.024.118.036.07.023.144.038.213.066z" id="iconFg"/></svg>