<svg xmlns="http://www.w3.org/2000/svg" viewBox="0 0 16 16"><defs><style>.icon-canvas-transparent,.icon-vs-out{fill:#f6f6f6;}.icon-canvas-transparent{opacity:0;}.icon-vs-action-blue{fill:#00539c;}.vs-control-glyph-grey{fill:#717171;}.icon-vs-bg{fill:#424242;}</style></defs><title>DeveloperMode_16x</title><g id="canvas"><path class="icon-canvas-transparent" d="M16,0V16H0V0Z"/></g><g id="outline"><path class="icon-vs-out" d="M16,4.668,14.216,2.884A4.723,4.723,0,0,0,11.657.835L11.615.817,11.571.8A5.559,5.559,0,0,0,9.842.53a6.837,6.837,0,0,0-2.807.646L6.4,1.46a3.485,3.485,0,0,0-1.4-.812L4.97.639C4.876.612,4.782.587,4.685.568,4.643.56,4.6.555,4.557.548,4.488.537,4.42.525,4.349.518A3.356,3.356,0,0,0,4,.5,3.5,3.5,0,0,0,2.2,7H0v9H16V7H14.486L16,5.486ZM8.649,4.427,8.581,4.5H8.086l-.336.336-.3-.3A3.441,3.441,0,0,0,7.5,4a3.611,3.611,0,0,0-.031-.444l.248-.046a4.766,4.766,0,0,1,.861-.091,1.253,1.253,0,0,1,.621.109l-.031.022.061.016A2.2,2.2,0,0,1,8.649,4.427ZM11,7V6.914l.47-.471a1.419,1.419,0,0,1,.215-.153L12.4,7Z"/></g><g id="iconBg"><path class="icon-vs-action-blue" d="M15,8v7H1V8H4.586l-1,1H2v2.5H4v1H5v-1h6v1h1v-1h2V9H11.914l-1-1Z"/><path class="vs-control-glyph-grey" d="M15,5.077,13.441,6.631l-.872-.872.283-.282c-.884-.859-2.062.233-2.062.233L10,6.5V7L6.5,10.5h-3l5-5H9l.384-.384-.006,0c1.714-1.829.339-2.439.339-2.439h0a3.368,3.368,0,0,0-2.184-.146l-.087-.44a5.163,5.163,0,0,1,3.815-.333c1.3.56,2.037,1.156,2.14,1.877s.4.82.4.82l.038.037.282-.282Z"/><path class="icon-vs-bg" d="M12,10.5H9L4.844,6.344A2.48,2.48,0,0,1,1.813,2.813L3.5,4.5l1-1L2.813,1.813A2.471,2.471,0,0,1,4,1.5,2.478,2.478,0,0,1,6.344,4.844L7.75,6.25l1.5,1.5Z"/></g></svg>