<svg xmlns="http://www.w3.org/2000/svg" viewBox="0 0 16 16"><defs><style>.icon-canvas-transparent,.icon-vs-out{fill:#f6f6f6;}.icon-canvas-transparent{opacity:0;}.icon-vs-bg{fill:#424242;}</style></defs><title>PhoneDarkTheme_16x</title><g id="canvas"><path class="icon-canvas-transparent" d="M16,0V16H0V0Z"/></g><g id="outline"><path class="icon-vs-out" d="M14,2V14a2,2,0,0,1-2,2H5A5,5,0,0,1,3,6.424V2A2,2,0,0,1,5,0h7A2,2,0,0,1,14,2Z"/></g><g id="iconBg"><path class="icon-vs-bg" d="M13,2V14a1,1,0,0,1-1,1H7.969a5.012,5.012,0,0,0,1-1H12V2H5V6a5,5,0,0,0-1,.1V2A1,1,0,0,1,5,1h7A1,1,0,0,1,13,2ZM9,11A4,4,0,1,1,5,7,4,4,0,0,1,9,11ZM7.667,11A2.637,2.637,0,0,0,4.332,8.428a2.653,2.653,0,0,1,0,5.144A2.693,2.693,0,0,0,5,13.666,2.665,2.665,0,0,0,7.667,11Z"/></g></svg>