<svg xmlns="http://www.w3.org/2000/svg" viewBox="0 0 16 16"><style>.icon-canvas-transparent{opacity:0;fill:#f6f6f6}.icon-vs-out{fill:#f6f6f6}.icon-vs-bg{fill:#424242}.icon-vs-fg{fill:#f0eff1}.icon-vs-action-blue{fill:#00539c}</style><path class="icon-canvas-transparent" d="M16 16H0V0h16v16z" id="canvas"/><path class="icon-vs-out" d="M16 9.983l-4.467 4.483-.533-.533V16H1V0h10v3.027h2.018v5.695l1.148-1.145L16 9.412v.571z" id="outline"/><path class="icon-vs-bg" d="M9 11.933V14H3v-3h5.067l-1-1H3V7h6v.692l1 .997V1H2v14h8v-2.067l-1-1zM3 3h6v3H3V3z" id="iconBg"/><path class="icon-vs-fg" d="M7.068 10H3V7h6v.692l-.114-.114-2.12 2.12.302.302zM9 3H3v3h6V3zm-.933 8H3v3h6v-2.067L8.067 11z" id="iconFg"/><path class="icon-vs-action-blue" d="M14.165 8.991l.707.707-3.34 3.352L8.18 9.698l.707-.707 2.13 2.122V4.027h1v7.104l2.148-2.14z" id="colorAction"/></svg>