<svg xmlns="http://www.w3.org/2000/svg" viewBox="0 0 16 16"><style>.icon-canvas-transparent{opacity:0;fill:#f6f6f6}.icon-vs-out{fill:#f6f6f6}.icon-vs-bg{fill:#424242}.icon-vs-fg{fill:#f0eff1}</style><path class="icon-canvas-transparent" d="M16 16H0V0h16v16z" id="canvas"/><path class="icon-vs-out" d="M15 16H2V0h8.621L15 4.379V16z" id="outline"/><path class="icon-vs-bg" d="M5 10H4V9h1v1zm2-1H6v1h1V9zm2 0H8v1h1V9zm0 2H8v1h1v-1zm0 2H8v1h1v-1zm5-8.207V15H9v-1h4V6H9V2H4v7H3V1h7.207L14 4.793zM12.793 5L10 2.207V5h2.793zM4 14v-4H3v5h5v-1H4zm1-5H4v1h1V9zm2 0H6v1h1V9zm2 0H8v1h1V9zm0 2H8v1h1v-1zm0 2H8v1h1v-1zM5 9H4v1h1V9z" id="iconBg"/><g id="iconFg"><path class="icon-vs-fg" d="M10 2.207V5h2.793z"/><path class="icon-vs-fg" d="M9 6V2H4v7h1v1H4v4h4v-1h1v1h4V6H9zm-2 4H6V9h1v1zm2 2H8v-1h1v1zm0-2H8V9h1v1z"/><path class="icon-vs-fg" d="M10 2.207V5h2.793z"/><path class="icon-vs-fg" d="M9 6V2H4v7h1v1H4v4h4v-1h1v1h4V6H9zm-2 4H6V9h1v1zm2 2H8v-1h1v1zm0-2H8V9h1v1z"/></g></svg>