<svg xmlns="http://www.w3.org/2000/svg" viewBox="0 0 16 16"><defs><style>.icon-canvas-transparent,.icon-vs-out{fill:#f6f6f6;}.icon-canvas-transparent{opacity:0;}.icon-disabled-grey{fill:#848484;}.icon-vs-yellow{fill:#fc0;}</style></defs><title>Lightbulb_16x</title><g id="canvas"><path class="icon-canvas-transparent" d="M16,0V16H0V0Z"/></g><g id="outline"><path class="icon-vs-out" d="M14,6a5.943,5.943,0,0,1-2.413,4.8A1.329,1.329,0,0,0,11,11.843v2.571L9.414,16H6.586L5,14.414V12a1.471,1.471,0,0,0-.572-1.185A6,6,0,0,1,6.717.134,6.283,6.283,0,0,1,8,0,6.006,6.006,0,0,1,14,6Z"/></g><g id="iconBg"><path class="icon-disabled-grey" d="M6,14h4L9,15H7Zm0-2v1h4V12Z"/><path class="icon-vs-yellow" d="M8,7.5A1.5,1.5,0,1,1,9.5,6,1.5,1.5,0,0,1,8,7.5ZM6.922,1.113a5,5,0,0,0-1.9,8.9A2.467,2.467,0,0,1,6,12H7.5V8.449a2.5,2.5,0,1,1,1,0V12H10v-.157A2.319,2.319,0,0,1,10.989,10,5,5,0,0,0,6.922,1.113Z"/></g></svg>