<svg xmlns="http://www.w3.org/2000/svg" viewBox="0 0 16 16"><style>.icon-canvas-transparent{opacity:0;fill:#f6f6f6}.icon-vs-out{fill:#f6f6f6}.icon-vs-bg{fill:#424242}.icon-vs-fg{fill:#f0eff1}</style><path class="icon-canvas-transparent" d="M16 16H0V0h16v16z" id="canvas"/><path class="icon-vs-out" d="M16 1v6h-1v1h-3v1h1v6h-1v1H1v-1H0V9h1V8h3V7H3V1h1V0h11v1h1z" id="outline"/><path class="icon-vs-bg" d="M12 10v4h-1v1h-1v-1H9v1H8v-1H7v1H6v-1H5v1H4v-1H3v1H2v-1H1v-4h1V9h1v1h1V9h1v.169l-.896.896.943.935H2v2h9v-2H9.966l.946-.938L10 9.149V9h1v1h1zm2-8V1h-1v1h-1V1h-1v1h-1V1H9v1H8V1H7v1H6V1H5v1H4v4h.136l-.032-.033L5.08 5H5V3h9v2H9.94l.972.963-.037.037H11v1h1V6h1v1h1V6h1V2h-1zM5.521 5.971l.707.707.789-.789v4.256l-.789-.79-.707.707 1.986 1.967 1.989-1.971-.708-.706-.789.789V5.885l.789.789.707-.707L7.51 4 5.521 5.971z" id="iconBg"/><path class="icon-vs-fg" d="M5.086 5H5V3h2.086l-2 2zm2.828-2l2 2H14V3H7.914zM2 11v2h5.086l-2-2H2zm7.914 0l-2 2H11v-2H9.914z" id="iconFg"/></svg>