<svg xmlns="http://www.w3.org/2000/svg" viewBox="0 0 16 16"><defs><style>.icon-canvas-transparent,.icon-vs-out{fill:#f6f6f6;}.icon-canvas-transparent{opacity:0;}.icon-vs-action-blue{fill:#00539c;}.icon-vs-bg{fill:#424242;}</style></defs><title>StepOut_16x</title><g id="canvas"><path class="icon-canvas-transparent" d="M16,0V16H0V0Z"/></g><g id="outline"><path class="icon-vs-out" d="M16,12.129v.742L12.871,16H11.336L9.982,14.646,10.629,14H1V4H3V1h9V8.336l.1-.1Z"/></g><g id="colorAction"><path class="icon-vs-action-blue" d="M14.957,12.5,12.1,15.354l-.708-.708L13.043,13H2V5H6.28V6H3v6H13.043L11.4,10.354l.708-.708Z"/></g><g id="iconBg"><path class="icon-vs-bg" d="M11,2V9H4V7H5V8h5V3H5V4H4V2ZM9,5.5A1.5,1.5,0,1,0,7.5,7,1.5,1.5,0,0,0,9,5.5Z"/></g></svg>