<svg xmlns="http://www.w3.org/2000/svg" viewBox="0 0 16 16"><defs><style>.icon-canvas-transparent,.icon-vs-out{fill:#f6f6f6;}.icon-canvas-transparent{opacity:0;}.icon-vs-bg{fill:#424242;}</style></defs><title>ZoomToWidth_16x</title><g id="canvas"><path class="icon-canvas-transparent" d="M16,0V16H0V0Z"/></g><g id="outline"><path class="icon-vs-out" d="M15,3H12V6h-.257A4.5,4.5,0,0,0,3.257,6H3V3H0v9H3V9h.257A4.508,4.508,0,0,0,7.5,12a4.4,4.4,0,0,0,1.933-.446l3.006,3.007a1.5,1.5,0,0,0,2.122-2.122L14.121,12H15ZM12,9.879l-.446-.446c.068-.142.13-.287.183-.433H12Z"/></g><g id="iconBg"><path class="icon-vs-bg" d="M2,7H3V8H2v3H1V4H2ZM13,4V7H12V8h1v3h1V4Zm.854,9.146a.5.5,0,0,1-.708.708l-3.5-3.5a.671.671,0,0,1-.047-.071A3.462,3.462,0,0,1,7.5,11,3.5,3.5,0,1,1,11,7.5a3.462,3.462,0,0,1-.717,2.1.671.671,0,0,1,.071.047ZM10,7.5A2.5,2.5,0,1,0,7.5,10,2.5,2.5,0,0,0,10,7.5Z"/></g></svg>