<svg xmlns="http://www.w3.org/2000/svg" viewBox="0 0 16 16"><style>.icon-canvas-transparent{opacity:0;fill:#f6f6f6}.icon-vs-out{fill:#f6f6f6}.icon-vs-bg{fill:#424242}.icon-vs-fg{fill:#f0eff1}</style><path class="icon-canvas-transparent" d="M16 16H0V0h16v16z" id="canvas"/><path class="icon-vs-out" d="M11.621 0H3v5.605c-1.78.911-3 2.759-3 4.895s1.22 3.984 3 4.895V16h13V4.379L11.621 0z" id="outline"/><g id="iconFg"><path class="icon-vs-fg" d="M11 2.207V5h2.793z"/><path class="icon-vs-fg" d="M10 6V2H5v3.025A5.5 5.5 0 0 1 9.743 14H14V6h-4z"/><path class="icon-vs-fg" d="M11 2.207V5h2.793z"/><path class="icon-vs-fg" d="M10 6V2H5v3.025A5.5 5.5 0 0 1 9.743 14H14V6h-4z"/><path class="icon-vs-bg" d="M11.207 1H4v4.212a5.502 5.502 0 0 1 1-.187V2h5v4h4v8H9.743a5.515 5.515 0 0 1-1.086 1H15V4.793L11.207 1zM11 5V2.207L13.793 5H11zm-1.008 5.495c0-.053-.008-.102-.008-.152a4.496 4.496 0 1 0-8.925.895 4.49 4.49 0 0 0 3.696 3.691l.013.002a4.283 4.283 0 0 0 1.164.043 4.503 4.503 0 0 0 4.06-4.479zM7.4 9.428a8.07 8.07 0 0 0 1.489-.388c.19.445.299.938.299 1.455 0 .08-.008.16-.012.24a7.481 7.481 0 0 1-1.831.555c.07-.393.108-.768.104-1.119a7.337 7.337 0 0 0-.049-.743zm1.145-1.016a7.23 7.23 0 0 1-1.255.319 7.554 7.554 0 0 0-.589-1.725c.757.261 1.4.758 1.844 1.406zm-3.053 5.78c-.109 0-.217-.008-.324-.018-.322-.717-.57-1.43-.725-2.124a11.327 11.327 0 0 0 1.304.061c.224 0 .45-.006.678-.018a13.596 13.596 0 0 1-.87 2.095c-.022.001-.042.004-.063.004zm.004-2.783c-.41-.006-.803-.035-1.182-.079a7.722 7.722 0 0 1-.035-1.89c.387.044.789.056 1.209.056h.259c.314 0 .632.012.956-.012.025.219.044.451.046.683.004.372-.044.778-.135 1.208-.376.025-.744.036-1.118.034zm-.004-4.61c.106 0 .21.008.313.016a6.98 6.98 0 0 1 .786 1.997c-.368.025-.729.029-1.095.025-.386-.004-.76-.03-1.119-.071a7.76 7.76 0 0 1 .645-1.934c.154-.019.31-.033.47-.033zm-1.34.254c-.186.465-.355 1-.471 1.613-.443-.079-.85-.175-1.223-.281a3.716 3.716 0 0 1 1.694-1.332zm-2.356 3.442c0-.525.112-1.025.31-1.481.44.131.932.254 1.479.346a8.394 8.394 0 0 0-.049.811c-.004.342.021.694.063 1.051a12.757 12.757 0 0 1-1.788-.467 2.792 2.792 0 0 1-.015-.26zm.151 1.044c.514.157 1.102.31 1.765.415.132.673.349 1.359.632 2.053a3.703 3.703 0 0 1-2.397-2.468zm4.436 2.54c.35-.737.62-1.424.795-2.054a8.144 8.144 0 0 0 1.855-.472 3.7 3.7 0 0 1-2.65 2.526z"/></g></svg>