<svg xmlns="http://www.w3.org/2000/svg" viewBox="0 0 16 16"><style>.icon-canvas-transparent{opacity:0;fill:#f6f6f6}.icon-vs-out{fill:#f6f6f6}.icon-vs-bg{fill:#424242}.icon-vs-action-blue{fill:#00539c}</style><path class="icon-canvas-transparent" d="M16 16H0V0h16v16z" id="canvas"/><path class="icon-vs-out" d="M0 12h6v2h10v-3h-3.433l.909-.909-1.084-1.084H16v-3l-3.608-.001 1.084-1.084L12.555 4H16V1H6v3H2v4H0v4z" id="outline"/><path class="icon-vs-bg" d="M7 11H1V9h6v2zm0-6H3v2h4V5zm0 8h8v-1H7v1zM7 2v1h8V2H7z" id="iconBg"/><path class="icon-vs-action-blue" d="M11.355 4.215l.707.707-2.084 2.084H15v1.001H9.978l2.084 2.084-.707.707-3.354-3.291 3.354-3.292z" id="colorAction"/></svg>