<svg xmlns="http://www.w3.org/2000/svg" viewBox="0 0 16 16"><defs><style>.icon-canvas-transparent,.icon-vs-out{fill:#f6f6f6;}.icon-canvas-transparent{opacity:0;}.icon-vs-bg{fill:#424242;}.icon-vs-action-blue{fill:#00539c;}</style></defs><title>CopyLongTextToClipboard_16x</title><g id="canvas"><path class="icon-canvas-transparent" d="M16,16H0V0H16Z"/></g><g id="outline"><path class="icon-vs-out" d="M16,10v3H14v3H2.01c-.023.021,0-13,0-13H4V2H5.01a3.25,3.25,0,0,1,6,0h1V3H14v7Z"/></g><g id="iconBg"><path class="icon-vs-bg" d="M9.078,9H5V8h5.081ZM5,13H8.1l-1-1H5Zm1-3H5v1H7.071l1-1Zm7-6V8.378l-1-1V5H4v9H9.1l1,1H3V4H5V3H6.01a2,2,0,0,1,4,0H11V4ZM9.01,3a1,1,0,1,0-.99,1A1,1,0,0,0,9.01,3ZM5,7h6V6H5Z"/></g><g id="colorAction"><path class="icon-vs-action-blue" d="M15,12H9.937l2.122,2.13-.707.707L8,11.485l3.352-3.34.707.707L9.919,11H15Z"/></g></svg>