<svg xmlns="http://www.w3.org/2000/svg" viewBox="0 0 16 16"><style>.icon-canvas-transparent{opacity:0;fill:#f6f6f6}.icon-vs-out{fill:#f6f6f6}.icon-vs-bg{fill:#424242}.icon-vs-fg{fill:#f0eff1}.icon-vs-yellow{fill:#fc0}</style><path class="icon-canvas-transparent" d="M16 16H0V0h16v16z" id="canvas"/><path class="icon-vs-out" d="M15.961 13.985L15 12.046V4.379L10.621 0H2v3.556C.81 4.25 0 5.526 0 7c0 1.339.662 2.563 1.737 3.299L.941 15H2v1h13v-.014l.961-2.001z" id="outline"/><path class="icon-vs-bg" d="M4 14l-1 1h2.149l-.813-1zm3.471 1h-.253l-.157-.789.41.789zM9 2H4v1c-.347 0-.678.058-1 .142V1h7.207L14 4.793v5.235L13 8.01V6H9V2zm1 3h2.793L10 2.207V5zM5.158 9.767L6 14h-.375L4 12l-1.5 2h-.375l.717-4.233a3 3 0 1 1 2.316 0zM5.5 6.999A1.5 1.5 0 1 0 2.499 7 1.5 1.5 0 0 0 5.5 7z" id="iconBg"/><path class="icon-vs-yellow" d="M11.88 8h-.781l-3.016 6.008.516.992h5.766l.484-1.008L11.88 8zm.109 6.006h-1v-1h1v1zm0-2h-1v-2h1v2z" id="notificationBg"/><g id="notificationFg"><path class="icon-vs-fg" d="M6.281 10.286l.724 3.64L10.481 7H12.5l.5 1.009V6H9V2H4v1c2.206 0 4 1.794 4 4a3.988 3.988 0 0 1-1.719 3.286z"/><g class="icon-black"><g class="icon-black"><path class="icon-black" d="M11 10h1v2h-1zm0 3h1v1h-1z"/></g><g class="icon-black"><path class="icon-black" d="M11 10h1v2h-1zm0 3h1v1h-1z"/></g></g></g></svg>