<svg xmlns="http://www.w3.org/2000/svg" viewBox="0 0 16 16"><style>.icon-canvas-transparent{opacity:0;fill:#f6f6f6}.icon-vs-out{fill:#f6f6f6}.icon-vs-bg{fill:#424242}.icon-vs-fg{fill:#f0eff1}</style><path class="icon-canvas-transparent" d="M16 16H0V0h16v16z" id="canvas"/><path class="icon-vs-out" d="M16 16H0V0h16v16z" id="outline"/><path class="icon-vs-fg" d="M14 7.279V14H2V2h11.766l-.014.017H8.777v2.997h.091L7.735 6.149 7.586 6H3v7h7V8.414l-.14-.14 1.138-1.144.001.149H14z" id="iconFg"/><path class="icon-vs-bg" d="M7.586 6H3v7h7V8.414L7.586 6zM9 12H4V8h5v4zM1 1v14h14V1H1zm13 13H2V2h12v12zm-2.73-9.978l-1.493-.006v-1h3.227v3.263h-1.009l-.005-1.562-2.136 2.145-.71-.71 2.126-2.13z" id="iconBg"/></svg>