<svg xmlns="http://www.w3.org/2000/svg" width="16" height="16" viewBox="0 0 16 16"><style>.icon-canvas-transparent{opacity:0;fill:#f6f6f6}.icon-vs-out{fill:#f6f6f6}.icon-vs-action-blue{fill:#00539c}</style><path class="icon-canvas-transparent" d="M16 16H0V0h16v16z" id="canvas"/><path class="icon-vs-out" d="M15 8.91c0 .966-.416 1.774-1.203 2.338-.691.498-1.609.752-2.727.752H7v-1.479L6.535 12h-3.1L1 4.151V3h3.313l.711 2.602L5.73 3h5.178c1.084 0 1.924.187 2.568.571.777.465 1.206 1.199 1.206 2.069 0 .527-.171 1.017-.495 1.435.532.492.813 1.125.813 1.835z" id="outline"/><path class="icon-vs-action-blue" d="M6.495 4H8l-2.199 7H4.172L2 4h1.549l1.33 4.872c.072.263.115.496.129.698h.027c.021-.218.066-.458.139-.718L6.495 4zM14 8.91c0 .642-.262 1.15-.785 1.525-.524.378-1.238.565-2.145.565H8V4h2.908c.891 0 1.576.144 2.056.43.48.286.719.69.719 1.211 0 .377-.146.707-.438.99-.292.283-.663.48-1.116.591v.02c.566.062 1.022.246 1.361.553.34.305.51.677.51 1.115zM9.799 6.821h.791c.371 0 .664-.079.878-.236a.766.766 0 0 0 .321-.651c0-.516-.439-.771-1.315-.771h-.675v1.658zm2.307 2.07a.758.758 0 0 0-.348-.659c-.232-.158-.557-.238-.973-.238h-.986v1.845h.975c.418 0 .742-.084.979-.254a.812.812 0 0 0 .353-.694z" id="colorImportance"/></svg>