<svg xmlns="http://www.w3.org/2000/svg" viewBox="0 0 16 16"><style>.icon-canvas-transparent{opacity:0;fill:#f6f6f6}.icon-vs-out{fill:#f6f6f6}.icon-vs-bg{fill:#424242}.icon-vs-fg{fill:#f0eff1}</style><path class="icon-canvas-transparent" d="M16 16H0V0h16v16z" id="canvas"/><path class="icon-vs-out" d="M16 5.586V14H0V1h11.414L16 5.586z" id="outline"/><path class="icon-vs-fg" d="M10.586 3H2v9h12V6.414L10.586 3zM8.5 9H5.375l1.382 1.389-.688.711-.012-.012-.001.001-2.603-2.603L6.102 5.85l.009.009.691.691L5.36 8H8.5c.827 0 1.5-.673 1.5-1.5S9.327 5 8.5 5H8V4h.5a2.5 2.5 0 1 1 0 5z" id="iconFg"/><path class="icon-vs-bg" d="M14 5l-2-2-1-1H1v11h14V6l-1-1zm0 7H2V3h8.586L14 6.414V12zm-3-5.5A2.5 2.5 0 0 1 8.5 9H5.375l1.382 1.389-.688.711-.012-.012-.001.001-2.603-2.603L6.102 5.85l.009.009.691.691L5.36 8H8.5c.827 0 1.5-.673 1.5-1.5S9.327 5 8.5 5H8V4h.5A2.5 2.5 0 0 1 11 6.5z" id="iconBg"/></svg>