<svg xmlns="http://www.w3.org/2000/svg" viewBox="0 0 16 16"><defs><style>.icon-canvas-transparent,.icon-vs-out{fill:#f6f6f6;}.icon-canvas-transparent{opacity:0;}.icon-vs-bg{fill:#424242;}</style></defs><title>SnapshotFile_16x</title><path class="icon-canvas-transparent" d="M16,0V16H0V0Z"/><path class="icon-vs-out" d="M16,6V0H10V2.379L9.621,2H6V0H0V6H3v4H0v6H6V14h4v2h6V10H13V6ZM10.621,3H13V5.379Z"/><path class="icon-vs-bg" d="M1,1H5V2H2V5H1ZM2,11H1v4H5V14H2Zm12,3H11v1h4V11H14ZM11,1V2h3V5h1V1Z"/><path class="icon-vs-bg" d="M9.207,3H4V13h8V5.793ZM9,4.207,10.793,6H9ZM11,12H5V4H8V7h3Z"/></svg>