<svg xmlns="http://www.w3.org/2000/svg" viewBox="0 0 16 16"><style>.icon-canvas-transparent{opacity:0;fill:#f6f6f6}.icon-vs-out{fill:#f6f6f6}.icon-vs-bg{fill:#424242}.icon-vs-fg{fill:#f0eff1}</style><path class="icon-canvas-transparent" d="M16 16H0V0h16v16z" id="canvas"/><path class="icon-vs-out" d="M15 4.379V16H0V7h2V0h8.621L15 4.379z" id="outline"/><path class="icon-vs-fg" d="M7 9v5H2V9h5zm3-7v3h3l-3-3zM9 2H4v5h5v7h4V6H9V2z" id="iconFg"/><path class="icon-vs-bg" d="M10.207 1H3v6h1V2h5v4h4v8H9v1h5V4.793L10.207 1zM10 5V2l3 3h-3zM1 8v7h7V8H1zm6.039 6.054H1.978V8.993h5.061v5.061zM3 10v1h1.293L3.01 12.283l.707.707L5 11.707V13h1v-3H3z" id="iconBg"/></svg>