<svg xmlns="http://www.w3.org/2000/svg" viewBox="0 0 16 16"><style>.icon-canvas-transparent{opacity:0;fill:#f6f6f6}.icon-vs-out{fill:#f6f6f6}.icon-vs-bg{fill:#424242}.icon-vs-fg{fill:#f0eff1}.icon-vs-action-blue{fill:#00539c}</style><path class="icon-canvas-transparent" d="M16 16H0V0h16v16z" id="canvas"/><path class="icon-vs-out" d="M15.937 5.891a5.881 5.881 0 0 0-5.9-5.709 5.916 5.916 0 0 0-5.909 5.909 6.033 6.033 0 0 0 .071.883v.028H2.985v3.641L1.901 9.559 0 11.459v.43L4.022 16h.902l4.024-4.113c.029.005.057.016.086.021l.128.021a5.418 5.418 0 0 0 1.45.042 5.886 5.886 0 0 0 5.334-5.881c0-.054-.003-.109-.009-.199zm-9.976 4.752v-.281c.048.046.102.085.152.129l-.152.152z" id="outline"/><path class="icon-vs-fg" d="M14.036 6.091c0 .087-.008.174-.013.26a8.21 8.21 0 0 1-1.982.601c.077-.426.117-.831.113-1.212a8.57 8.57 0 0 0-.053-.803 8.86 8.86 0 0 0 1.611-.42 3.98 3.98 0 0 1 .324 1.574zm-3.724 1.747c-.093 0-.186 0-.28-.002a11.736 11.736 0 0 1-1.13-.063c.166.751.435 1.523.784 2.298.116.011.232.019.351.019.023 0 .045-.003.068-.004.413-.823.729-1.577.941-2.267a13.97 13.97 0 0 1-.734.019zm-.271-.758c.405.002.803-.012 1.21-.039.098-.465.149-.906.145-1.307a6.882 6.882 0 0 0-.049-.742c-.351.025-.695.008-1.035.008h-.28c-.454 0-.89-.009-1.308-.055a8.584 8.584 0 0 0-.047.802c-.004.406.026.823.085 1.248.41.046.835.079 1.279.085zM7.918 5.739c.003-.305.024-.592.053-.876a13.84 13.84 0 0 1-1.599-.373 3.997 3.997 0 0 0-.335 1.601c0 .095.007.188.015.281.541.182 1.187.369 1.935.505a9.023 9.023 0 0 1-.069-1.138zM6.201 7.22a4.007 4.007 0 0 0 2.592 2.67c-.306-.75-.54-1.492-.683-2.22a13.926 13.926 0 0 1-1.909-.45zM11 9.969a4.006 4.006 0 0 0 2.868-2.733 8.741 8.741 0 0 1-2.007.51c-.19.683-.482 1.425-.861 2.223zm2.386-6.135A4.037 4.037 0 0 0 11.374 2.3c.257.537.492 1.16.642 1.882a7.898 7.898 0 0 0 1.37-.348zm-2.132.437a7.596 7.596 0 0 0-.858-2.179 4.23 4.23 0 0 0-.341-.017c-.174 0-.346.015-.513.036a8.554 8.554 0 0 0-.703 2.11c.392.045.8.073 1.22.077.4.004.794 0 1.195-.027zm-2.66-1.919a4.04 4.04 0 0 0-1.848 1.453c.406.115.85.22 1.334.306a9.3 9.3 0 0 1 .514-1.759z" id="iconFg"/><path class="icon-vs-bg" d="M14.946 6.091c0-.057-.009-.111-.009-.167a4.905 4.905 0 1 0-9.789.591 4.557 4.557 0 0 0 .052.386 4.898 4.898 0 0 0 4.032 4.027l.014.002a4.6 4.6 0 0 0 .79.07 4.912 4.912 0 0 0 4.91-4.909zm-2.828-1.165a8.896 8.896 0 0 0 1.625-.424c.208.487.326 1.023.326 1.588 0 .087-.009.175-.013.262a8.198 8.198 0 0 1-1.998.605c.077-.428.118-.837.114-1.222a8.407 8.407 0 0 0-.054-.809zm1.249-1.108a7.888 7.888 0 0 1-1.369.348 8.242 8.242 0 0 0-.642-1.882 4.033 4.033 0 0 1 2.011 1.534zm-3.331 6.306c-.119 0-.237-.009-.353-.019a11.996 11.996 0 0 1-.791-2.318c.367.036.748.062 1.14.064.094.002.19.002.282.002.244 0 .491-.006.739-.019-.214.696-.532 1.456-.949 2.285-.023.001-.044.005-.068.005zm.005-3.036a12.638 12.638 0 0 1-1.29-.086 8.61 8.61 0 0 1-.086-1.258 8.67 8.67 0 0 1 .047-.805c.423.048.862.061 1.32.061h.282c.343 0 .689.013 1.043-.013.028.239.048.493.05.745.004.406-.048.849-.147 1.318-.41.028-.811.04-1.219.038zm-.005-5.03c.116 0 .229.009.341.017.329.569.663 1.294.858 2.179-.401.028-.795.032-1.194.028a11.956 11.956 0 0 1-1.221-.077 8.512 8.512 0 0 1 .703-2.11c.168-.022.339-.037.513-.037zm-1.461.277a9.289 9.289 0 0 0-.514 1.76 13.627 13.627 0 0 1-1.333-.306 4.04 4.04 0 0 1 1.847-1.454zM6.004 6.091c0-.574.122-1.119.338-1.615.48.142 1.016.276 1.613.377-.03.286-.051.576-.054.884-.005.373.023.758.068 1.147a13.854 13.854 0 0 1-1.95-.51 3.287 3.287 0 0 1-.015-.283zm.165 1.139c.56.172 1.201.338 1.925.453.144.734.38 1.483.689 2.24A4.044 4.044 0 0 1 6.169 7.23zm4.839 2.771c.381-.804.677-1.553.867-2.241a8.907 8.907 0 0 0 2.024-.515 4.035 4.035 0 0 1-2.891 2.756z" id="iconBg"/><path class="icon-vs-action-blue" d="M7.752 11.68l-.707-.707-2.084 2.084V8.001h-.976v5.055l-2.084-2.084-.707.708 3.279 3.352 3.279-3.352z" id="colorAction"/></svg>