<svg xmlns="http://www.w3.org/2000/svg" viewBox="0 0 16 16"><defs><style>.icon-canvas-transparent,.icon-vs-out{fill:#f6f6f6;}.icon-canvas-transparent{opacity:0;}.icon-vs-bg{fill:#424242;}.icon-vs-action-blue{fill:#00539c;}</style></defs><title>UncommentCode_16x</title><g id="canvas"><path class="icon-canvas-transparent" d="M0,0H16V16H0Z"/></g><g id="outline"><path class="icon-vs-out" d="M7.708,3h6.35V14h-10V11h3V10h-1V8h-.2l-2.1,1.808L2.446,8.5l-.788-.787L3.608,6H.059V1.6h0V1h3v.349A2.973,2.973,0,0,1,4.561,1h0a3.516,3.516,0,0,1,.651.071c.067.013.133.027.2.044a3.459,3.459,0,0,1,.526.177c.076.032.147.072.221.109a3.658,3.658,0,0,1,.37.222c.079.054.155.109.23.169a3.6,3.6,0,0,1,.337.317c.038.04.084.071.12.113.067.078.116.167.175.25.033.046.067.091.1.138a3.407,3.407,0,0,1,.212.376Z"/></g><g id="iconBg"><path class="icon-vs-bg" d="M8,10h5v1H8ZM5,13h8V12H5ZM8,4V5h5V4ZM7.752,7H13V6H8ZM7,9h6V8H7Z"/></g><g id="colorAction"><path class="icon-vs-action-blue" d="M4.5,2a2.34,2.34,0,0,0-1.616.594L2,3.361V2H1V5H4V4H2.76l.773-.644A1.756,1.756,0,0,1,4.5,3a1.5,1.5,0,0,1,.969,2.645L3.062,7.757l.688.687L6.127,6.4A2.5,2.5,0,0,0,4.5,2Z"/></g></svg>