<svg xmlns="http://www.w3.org/2000/svg" viewBox="0 0 16 16"><style>.icon-canvas-transparent{opacity:0;fill:#f6f6f6}.icon-vs-out{fill:#f6f6f6}.icon-vs-bg{fill:#424242}.icon-vs-fg{fill:#f0eff1}.icon-vs-action-blue{fill:#00539c}</style><path class="icon-canvas-transparent" d="M16 16H0V0h16v16z" id="canvas"/><path class="icon-vs-out" d="M3.5 9h.715v3.899L9.138 16h2.271l4.29-3.146V6.242L10.066 3.27l-.231.117L6.444 0H5.41L3.843 1.621 4.22 2H3.5C1.57 2 0 3.57 0 5.5S1.57 9 3.5 9zm6.509-2.474l1.43.704-1.195.717-1.43-.815 1.195-.606zM3.5 5h.715v.021l-.429.431.429.43V6H3.5a.5.5 0 0 1 0-1z" id="outline"/><path class="icon-vs-bg" d="M10.057 4.396L8.068 5.401 5.915 7.544l-.7-.663v5.467l5.102 3.213 4.383-3.213V6.845l-4.643-2.449zM10 14.435l-.031.021v.02l-.012-.01-.01.01v-.02l-3.959-2.58V7.729L10 9.969v4.466zM6.84 7.038l3.162-1.63 3.523 1.735-3.135 1.919-3.55-2.024zm7.154 4.966l-3.105 2.237V9.926l3.105-1.895v3.973z" id="iconBg"/><path class="icon-vs-fg" d="M10 14.436l-.031.021v.02l-.012-.01-.01.01v-.02l-3.959-2.58V7.729L10 9.969v4.467zm3.994-6.405l-3.105 1.895v4.315l3.105-2.237V8.031zm-3.992-2.623l3.523 1.735-3.135 1.919-3.55-2.024 3.162-1.63z" id="iconFg"/><path class="icon-vs-action-blue" d="M1 5.5A2.5 2.5 0 0 1 3.5 3h3.125L5.243 1.611 5.931.9l.012.012.001-.001 2.603 2.603L5.898 6.15l-.009-.009-.691-.691L6.64 4H3.5C2.673 4 2 4.673 2 5.5S2.673 7 3.5 7H4v1h-.5A2.5 2.5 0 0 1 1 5.5z" id="colorAction"/></svg>