<svg xmlns="http://www.w3.org/2000/svg" viewBox="0 0 16 16"><defs><style>.icon-canvas-transparent,.icon-vs-out{fill:#f6f6f6;}.icon-canvas-transparent{opacity:0;}.icon-vs-bg{fill:#424242;}.icon-vs-action-green{fill:#388a34;}</style></defs><title>CSTestProject_16x</title><g id="canvas"><path class="icon-canvas-transparent" d="M16,16H0V0H16Z"/></g><g id="outline"><path class="icon-vs-out" d="M16,14H12.66a1.978,1.978,0,0,1-1.992,2H2.332A1.98,1.98,0,0,1,.34,14H0V0H16Z"/></g><g id="iconBg"><path class="icon-vs-bg" d="M15,1V13H12.389c-.015-.026-.022-.056-.038-.082L11.76,12H14V4H2v6.817L1,12.373V1Z"/></g><g id="colorImportance"><path class="icon-vs-action-green" d="M11.51,13.459,8,8V6H9V5H4V6H5V8L1.49,13.459A1,1,0,0,0,2.332,15h8.336A1,1,0,0,0,11.51,13.459ZM4.276,11,6,8.291V6H7V8.291L8.724,11Z"/></g></svg>