<svg xmlns="http://www.w3.org/2000/svg" viewBox="0 0 16 16"><style>.icon-canvas-transparent{opacity:0;fill:#f6f6f6}.icon-vs-out{fill:#f6f6f6}.icon-vs-fg{fill:#f0eff1}.icon-vb-blue{fill:#00569c}</style><path class="icon-canvas-transparent" d="M16 16H0V0h16v16z" id="canvas"/><path class="icon-vs-out" d="M16 4.379L11.621 0H2.018v2.018H0V6h2.018v2h.85a5.082 5.082 0 0 0-.971 2.992c0 1.132.437 2.269 1.104 3.177V16h2.876c.056.004.112.013.167.013.103 0 .199-.009.3-.013H16V4.379z" id="outline"/><path class="icon-vb-blue" d="M11.207 1H6v1h4v4h4v8h-2.77c-.328.313-.773.67-1.338 1H15V4.793L11.207 1zM11 5V2.207L13.793 5H11zM7.109 15.098c-.022 0-.043.006-.066.006V15.1c-.012 0-.025.004-.038.004a4.11 4.11 0 0 1 0-8.218V5.241L9.47 7.296 7.005 9.35V7.707a3.288 3.288 0 0 0 0 6.574c.155 0 .31-.014.464-.037h.005c.143-.023.287-.055.428-.096.054-.017.105-.039.157-.057.087-.031.173-.061.258-.1.06-.025.117-.057.175-.088.105-.055.21-.109.311-.176a3.209 3.209 0 0 0 1.002-1.092h1.308c0 .002-1.642 2.463-4.004 2.463zM7 3.018H5V1H3.018v2.018H1V5h2.018v2H5V5h2V3.018z" id="iconBg"/><g id="iconFg"><path class="icon-vs-fg" d="M11 2.207V5h2.793z"/><path class="icon-vs-fg" d="M10 6V2H6v.018h2v2.751l3.033 2.528-5.028 4.187V8.938A2.285 2.285 0 0 0 5 9.933v2.135a2.278 2.278 0 0 0 2.005 1.213 2.2 2.2 0 0 0 .313-.025l.041-.007c.088-.016.177-.036.265-.062l.111-.042c.073-.025.12-.041.165-.062l.109-.056c.096-.05.172-.088.245-.136.271-.182.503-.436.682-.751l.288-.505h3.759l-1.038 1.555a5.53 5.53 0 0 1-.715.809H14V6h-4z"/><path class="icon-vs-fg" d="M11 2.207V5h2.793z"/><path class="icon-vs-fg" d="M10 6V2H6v.018h2v2.751l3.033 2.528-5.028 4.187V8.938A2.285 2.285 0 0 0 5 9.933v2.135a2.278 2.278 0 0 0 2.005 1.213 2.2 2.2 0 0 0 .313-.025l.041-.007c.088-.016.177-.036.265-.062l.111-.042c.073-.025.12-.041.165-.062l.109-.056c.096-.05.172-.088.245-.136.271-.182.503-.436.682-.751l.288-.505h3.759l-1.038 1.555a5.53 5.53 0 0 1-.715.809H14V6h-4z"/></g></svg>