<svg xmlns="http://www.w3.org/2000/svg" viewBox="0 0 16 16"><style>.icon-vs-bg{fill:#424242}.icon-vs-out{fill:#f6f6f6}.icon-vs-fg{fill:#f0eff1}.icon-canvas-transparent{opacity:0;fill:#f6f6f6}</style><path class="icon-canvas-transparent" d="M16 16H0V0h16v16z" id="canvas"/><path class="icon-vs-out" d="M16 2v9h-5.975v4.994H.037V4.005H5V2h2.065L8.962.104l.045.045V0h3.011v.149l.046-.045L13.96 2H16z" id="outline"/><path class="icon-vs-fg" d="M6.237 6L2 5.995V14h6V7.741L6.237 6zM3 8h3v1H3V8zm4 5H3v-1h4v1zm0-2H3v-1h4v1z" id="iconFg"/><path class="icon-vs-bg" d="M11 6h-1V5h1v1zm1 0h1V5h-1v1zm0 1h-1v1h1V7zm2-4v6h-4v1h5V3h-1zM7 4V3H6v1h1zm-4 6h4v1H3v-1zm0 2h4v1H3v-1zm9.766-9.78l-.704-.703-1.044 1.04V.453h-1.011v2.103l-1.044-1.04-.703.704 1.747 1.754v.009l.502.502.004-.004.004.004.502-.502v-.009l1.747-1.754zM9 7.322L6.638 5H1v9.994h8V7.322zM2 6h4.237L8 7.741V14H2V6zm4 2H3v1h3V8z" id="iconBg"/></svg>