<svg xmlns="http://www.w3.org/2000/svg" viewBox="0 0 16 16"><style>.icon-canvas-transparent{opacity:0;fill:#f6f6f6}.icon-vs-out{fill:#f6f6f6}.icon-vs-bg{fill:#424242}.icon-vs-fg{fill:#f0eff1}.icon-vs-action-blue{fill:#00539c}</style><path class="icon-canvas-transparent" d="M16 0v16H0V0h16z" id="canvas"/><path class="icon-vs-out" d="M14.604 7a2.473 2.473 0 0 0-2.441-2.095c-.646 0-1.202.241-1.662.721-.458-.479-1.014-.721-1.663-.721-.048 0-.103.01-.153.013l.565-.564L4.913 0h-.805L0 4.083v.538l1.861 1.851L3 5.345V9h2v7h11V7h-1.396z" id="outline"/><path class="icon-vs-fg" d="M7 9h3v5H7V9zm4 0v5h3V9h-3z" id="iconFg"/><path class="icon-vs-bg" d="M13.475 8c.063-.123.113-.25.136-.387a1.464 1.464 0 0 0-1.197-1.687c-1.034-.168-1.472.721-1.64 1.056-.042.084-.15.323-.274.6a23.535 23.535 0 0 0-.274-.598c-.168-.337-.604-1.227-1.641-1.058a1.464 1.464 0 0 0-1.196 1.686c.023.137.073.265.136.388H6v7h9V8h-1.525zM8.754 6.913c.136-.024.294-.05.579.52.04.08.142.306.259.567h-.593a4.264 4.264 0 0 1-.339-.195c-.254-.173-.277-.313-.285-.36a.461.461 0 0 1 .379-.532zM10 14H7V9h3v5zm1.668-6.568c.284-.568.443-.544.578-.518a.462.462 0 0 1 .379.533c-.008.046-.031.185-.284.357a4.23 4.23 0 0 1-.339.196h-.593c.117-.261.218-.488.259-.568zM14 14h-3V9h3v5z" id="iconBg"/><g id="colorAction"><path class="icon-vs-action-blue" d="M4 2.937V8h1V2.919l2.148 2.14.707-.707L4.515 1 1.163 4.352l.707.707L4 2.937z"/></g></svg>