<svg xmlns="http://www.w3.org/2000/svg" viewBox="0 0 16 16"><defs><style>.icon-canvas-transparent,.icon-vs-out{fill:#f6f6f6}.icon-canvas-transparent{opacity:0}.icon-vs-fg{fill:#f0eff1}.icon-vs-bg{fill:#424242}</style></defs><title>Rule_16x</title><path class="icon-canvas-transparent" d="M16 0v16H0V0z"/><path class="icon-vs-out" d="M1 16V0h14v16z"/><path class="icon-vs-fg" d="M12 2v12H4V2z"/><path class="icon-vs-bg" d="M2 1v14h12V1zm11 13H3V2h10zM6 8.22v4.215L8 11.1l2 1.334V8.22a3 3 0 1 0-4 0zm3 2.346L8 9.9l-1 .666v-1.75a2.805 2.805 0 0 0 2 0zM8 4a2 2 0 1 1-2 2 2 2 0 0 1 2-2z"/></svg>