<svg xmlns="http://www.w3.org/2000/svg" viewBox="0 0 16 16"><defs><style>.icon-canvas-transparent,.icon-vs-out{fill:#f6f6f6;}.icon-canvas-transparent{opacity:0;}.icon-vs-bg{fill:#424242;}</style></defs><title>WebConsole_16x</title><g id="canvas"><path class="icon-canvas-transparent" d="M16,0V16H0V0Z"/></g><g id="outline"><path class="icon-vs-out" d="M16,9H10.771a5.514,5.514,0,0,1,.22,1.313c.006.083.009.134.009.187a5.48,5.48,0,0,1-4.963,5.474c-.188.015-.361.026-.537.026s-.321-.009-.479-.023c-.107-.01-.218-.024-.328-.041H4.664l-.081-.018A5.486,5.486,0,0,1,.108,11.562l-.042-.083v-.168c-.017-.112-.032-.224-.042-.337C.009,10.82,0,10.664,0,10.5A5.5,5.5,0,0,1,3,5.607V0H16Z"/></g><g id="iconBg"><path class="icon-vs-bg" d="M11,6H9V5h2ZM9.992,10.348c0,.05.008.1.008.152a4.5,4.5,0,0,1-4.061,4.478C5.8,14.99,5.648,15,5.5,15c-.131,0-.26-.008-.387-.02s-.226-.025-.338-.045H4.762a4.5,4.5,0,0,1-3.7-3.692l0-.012c-.017-.113-.035-.226-.044-.341S1,10.633,1,10.5a4.5,4.5,0,0,1,8.992-.152ZM6.709,7.01A7.564,7.564,0,0,1,7.3,8.736a7.338,7.338,0,0,0,1.256-.32A3.711,3.711,0,0,0,6.709,7.01ZM4.385,8.771A10.561,10.561,0,0,0,5.5,8.842c.365,0,.726,0,1.094-.026a7,7,0,0,0-.785-2c-.1-.007-.208-.015-.313-.015a3.664,3.664,0,0,0-.471.033A7.808,7.808,0,0,0,4.385,8.771Zm-.141,1.411a7.88,7.88,0,0,0,.078,1.154c.379.043.772.072,1.182.078.373,0,.742-.01,1.117-.035a5.541,5.541,0,0,0,.135-1.207,6.583,6.583,0,0,0-.045-.684c-.324.024-.643.012-.957.012H5.5a10.987,10.987,0,0,1-1.209-.055C4.264,9.676,4.246,9.936,4.244,10.182ZM2.467,8.391a12.488,12.488,0,0,0,1.222.279A8.686,8.686,0,0,1,4.16,7.059,3.7,3.7,0,0,0,2.467,8.391Zm-.65,2.369a12.62,12.62,0,0,0,1.788.467,8.386,8.386,0,0,1-.062-1.051,8.123,8.123,0,0,1,.049-.811A12.57,12.57,0,0,1,2.113,9.02,3.716,3.716,0,0,0,1.8,10.5C1.8,10.588,1.811,10.674,1.817,10.76Zm2.535,3.252a11.055,11.055,0,0,1-.632-2.053,13.221,13.221,0,0,1-1.765-.414A3.7,3.7,0,0,0,4.352,14.012ZM6.432,12.1q-.341.016-.678.017c-.084,0-.172,0-.258,0-.359,0-.709-.025-1.045-.058a11.021,11.021,0,0,0,.725,2.123c.107.01.215.017.324.017.021,0,.041,0,.063,0A13.546,13.546,0,0,0,6.432,12.1Zm2.609-.539a8.264,8.264,0,0,1-1.855.472,13.151,13.151,0,0,1-.795,2.053A3.7,3.7,0,0,0,9.041,11.559ZM9.2,10.5a3.664,3.664,0,0,0-.3-1.455,8.293,8.293,0,0,1-1.488.389,7.336,7.336,0,0,1,.049.742,6.034,6.034,0,0,1-.1,1.119,7.545,7.545,0,0,0,1.83-.555C9.188,10.66,9.2,10.58,9.2,10.5ZM7.558,5.4l.9-.9L6.6,2.646,5.9,3.354,7.043,4.5l-.593.593A5.4,5.4,0,0,1,7.558,5.4ZM4,1V5.213a5.5,5.5,0,0,1,1-.188V2h9V7H9.719a5.488,5.488,0,0,1,.662,1H15V1Z"/></g></svg>