<svg xmlns="http://www.w3.org/2000/svg" viewBox="0 0 16 16"><defs><style>.icon-canvas-transparent,.icon-vs-out{fill:#f6f6f6;}.icon-canvas-transparent{opacity:0;}.graph-yellow{fill:#fcb714;}.icon-vs-bg{fill:#424242;}</style></defs><title>LikeFilled_16x</title><g id="canvas"><path class="icon-canvas-transparent" d="M16,0V16H0V0Z"/></g><g id="outline"><path class="icon-vs-out" d="M16.024,7.333a2.279,2.279,0,0,1-.125.753l-1.774,5.32a2.35,2.35,0,0,1-.339.652,2.294,2.294,0,0,1-.512.505,2.413,2.413,0,0,1-.628.319,2.283,2.283,0,0,1-.733.118H8.438a8.826,8.826,0,0,1-2.7-.407c-.052-.016-.225-.088-.427-.175A5.1,5.1,0,0,0,4.063,14H0V6H3.851l.224,0a3.119,3.119,0,0,0,.362-.016,1.879,1.879,0,0,0,.252-.214L8.941,1.53A2.593,2.593,0,0,1,9.5,1.1a1.831,1.831,0,0,1,.905-.223,2.062,2.062,0,0,1,.822.168,2.119,2.119,0,0,1,.656.444,2.078,2.078,0,0,1,.449.664,2.038,2.038,0,0,1,.167.818,5.478,5.478,0,0,1-.151,1.294A5.933,5.933,0,0,1,12.114,5h1.577a2.29,2.29,0,0,1,.908.185,2.387,2.387,0,0,1,.734.491,2.3,2.3,0,0,1,.507.743A2.328,2.328,0,0,1,16.024,7.333Z"/></g><g id="iconFg"><path class="graph-yellow" d="M14.1,7.429c0,.022-1.713,5.213-1.735,5.276a.432.432,0,0,1-.16.215.426.426,0,0,1-.248.08H8.438a7.137,7.137,0,0,1-2.026-.2c-1.382-.521-1.341-.721-2.418-.8H2V8H3.851a2.958,2.958,0,0,0,1.173-.2,3.308,3.308,0,0,0,.525-.313A2.922,2.922,0,0,0,6.018,7.1s4.26-4.354,4.388-4.354a.273.273,0,0,1,.157.062c.123.078.029.739-.038,1.015a3.906,3.906,0,0,1-.29.81,5.223,5.223,0,0,0-.253.622,4.207,4.207,0,0,0-.146.588,4.7,4.7,0,0,0-.068.6C9.756,6.659,9.75,7,9.75,7h3.924a.414.414,0,0,1,.3.127A.408.408,0,0,1,14.1,7.429Z"/></g><g id="iconBg"><path class="icon-vs-bg" d="M14.92,6.813a1.288,1.288,0,0,0-.289-.424,1.367,1.367,0,0,0-.426-.285,1.3,1.3,0,0,0-.514-.1H10.652s.067-.18.13-.382a4.9,4.9,0,0,1,.233-.6,5.035,5.035,0,0,0,.362-.995A4.427,4.427,0,0,0,11.5,2.969a1.04,1.04,0,0,0-.086-.424,1.112,1.112,0,0,0-.235-.349,1.144,1.144,0,0,0-.349-.236,1.056,1.056,0,0,0-.424-.085.843.843,0,0,0-.417.1,1.646,1.646,0,0,0-.342.266L5.4,6.482a1.74,1.74,0,0,1-.708.479A4.437,4.437,0,0,1,3.851,7H1v6H4.063a7.7,7.7,0,0,1,2.055.669A8.441,8.441,0,0,0,8.438,14h3.475a1.318,1.318,0,0,0,.413-.065,1.393,1.393,0,0,0,.365-.185,1.307,1.307,0,0,0,.292-.288,1.433,1.433,0,0,0,.194-.372l1.778-5.333a1.345,1.345,0,0,0-.035-.944Zm-2.552,5.892a.432.432,0,0,1-.16.215.426.426,0,0,1-.248.08H8.438a7.137,7.137,0,0,1-2.026-.2c-1.382-.521-1.341-.721-2.418-.8H2V8H3.851a2.958,2.958,0,0,0,1.173-.2,3.308,3.308,0,0,0,.525-.313A2.922,2.922,0,0,0,6.018,7.1s4.26-4.354,4.388-4.354a.273.273,0,0,1,.157.062c.123.078.029.739-.038,1.015a3.906,3.906,0,0,1-.29.81,5.223,5.223,0,0,0-.253.622,4.207,4.207,0,0,0-.146.588,4.7,4.7,0,0,0-.068.6C9.756,6.659,9.75,7,9.75,7h3.924a.414.414,0,0,1,.3.127.408.408,0,0,1,.128.3C14.1,7.451,12.39,12.642,12.368,12.705Z"/></g></svg>