<svg xmlns="http://www.w3.org/2000/svg" viewBox="0 0 16 16"><style>.icon-canvas-transparent{opacity:0;fill:#f6f6f6}.icon-vs-out{fill:#f6f6f6}.icon-vs-fg{fill:#f0eff1}.icon-folder{fill:#dcb67a}.icon-vs-action-blue{fill:#00539c}</style><path class="icon-canvas-transparent" d="M16 16H0V0h16v16z" id="canvas"/><path class="icon-vs-out" d="M3.005 10H1.5C.673 10 0 9.326 0 8.499l.01-7.001A1.5 1.5 0 0 1 1.51 0h5.116l1.01 2.003L9.519 2c.83 0 1.503.673 1.503 1.5v3.502l2.054-.004.457-.457L16 9.018v2.448l-.901.901-.082-.082v.24a2.486 2.486 0 0 1-2.477 2.491h-.224l.082.082-.901.902H9.049l-1.004-1H4.5c-.827 0-1.5-.674-1.5-1.501L3.005 10z" id="outline"/><path class="icon-folder" d="M9.626 5l.395.783V3.501a.5.5 0 0 0-.501-.5l-2.499.003L6.01 1h-4.5a.5.5 0 0 0-.5.499l-.01 7A.5.5 0 0 0 1.5 9h1.506l.004-2.502C3.01 5.673 3.683 5 4.51 5h5.116zM2.021 3V2H5.01l.5 1H2.021zm4.552 10.532l.023-.023-.01-.01 2.5-2.5h.019l.791-.791-.016-.016L12.072 8l-2.052.003L9.01 6h-4.5a.5.5 0 0 0-.5.499l-.009 7A.499.499 0 0 0 4.5 14h2.542l-.469-.468zM5.021 7H8.01l.5 1H5.021V7z" id="iconBg"/><path class="icon-vs-fg" d="M5 2l.5 1H2V2h3zm3 5l.5 1H5V7h3z" id="iconFg"/><path class="icon-vs-action-blue" d="M14.017 9.876v2.648c0 .827-.649 1.491-1.477 1.491H9.908l1.078 1.081-.711.711-2.286-2.277 2.237-2.237.709.709-1.008 1.005h2.6a.494.494 0 0 0 .491-.5V9.894l-1.013 1.008-.709-.709 2.237-2.237 2.277 2.286-.711.711-1.082-1.077z" id="colorAction"/></svg>