<svg xmlns="http://www.w3.org/2000/svg" viewBox="0 0 16 16"><defs><style>.icon-canvas-transparent,.icon-vs-out{fill:#f6f6f6;}.icon-canvas-transparent{opacity:0;}.icon-fs-purple{fill:#682878;}</style></defs><title>FS_16x</title><g id="canvas"><path class="icon-canvas-transparent" d="M16,0V16H0V0Z"/></g><g id="outline"><path class="icon-vs-out" d="M15,4V9H14v1H9V9H8.754v.281h-2.8V12H2V3H14V4Z"/></g><g id="iconBg"><path class="icon-fs-purple" d="M14,6V5H13V4H12V5H11V4H10V5H9V6h1V7H9V8h1V9h1V8h1V9h1V8h1V7H13V6ZM12,7H11V6h1ZM3,4H8V5.283H4.949V7H7.754v1.28h-2.8V11H3Z"/></g></svg>