<svg xmlns="http://www.w3.org/2000/svg" viewBox="0 0 16 16"><defs><style>.icon-canvas-transparent,.icon-vs-out{fill:#f6f6f6;}.icon-canvas-transparent{opacity:0;}.icon-vs-bg{fill:#424242;}</style></defs><title>PullRequest_16x</title><g id="canvas"><path class="icon-canvas-transparent" d="M16,0V16H0V0Z"/></g><g id="outline"><path class="icon-vs-out" d="M15.75,12.75A3.25,3.25,0,1,1,11,9.869v-4.2l-1.6,1.6L6.539,4.41A3.232,3.232,0,0,1,5,6.131V9.869A3.249,3.249,0,1,1,.25,12.75,3.228,3.228,0,0,1,2,9.869V6.131A3.249,3.249,0,1,1,6.656,2.473L9.129,0h.535l1.854,1.854-.235.234A3.507,3.507,0,0,1,14,5.5V9.869A3.226,3.226,0,0,1,15.75,12.75Z"/></g><g id="iconBg"><path class="icon-vs-bg" d="M5.75,3.25A2.25,2.25,0,1,0,3,5.44v5.12a2.25,2.25,0,1,0,1,0V5.44A2.252,2.252,0,0,0,5.75,3.25Zm-3.5,0A1.25,1.25,0,1,1,3.5,4.5,1.252,1.252,0,0,1,2.25,3.25Zm2.5,9.5A1.25,1.25,0,1,1,3.5,11.5,1.252,1.252,0,0,1,4.75,12.75ZM13,10.561V5.5A2.5,2.5,0,0,0,10.5,3H8.957L10.1,1.854,9.4,1.146,7.043,3.5,9.4,5.854l.708-.708L8.957,4H10.5A1.5,1.5,0,0,1,12,5.5v5.061a2.25,2.25,0,1,0,1,0ZM12.5,14a1.25,1.25,0,1,1,1.25-1.25A1.252,1.252,0,0,1,12.5,14Z"/></g></svg>