<svg xmlns="http://www.w3.org/2000/svg" viewBox="0 0 16 16"><style>.icon-canvas-transparent{opacity:0;fill:#f6f6f6}.icon-vs-out{fill:#f6f6f6}.icon-vs-bg{fill:#424242}.icon-vs-fg{fill:#f0eff1}.icon-vs-action-blue{fill:#00539c}</style><path class="icon-canvas-transparent" d="M16 16H0V0h16v16z" id="canvas"/><path class="icon-vs-out" d="M16 4v12H2V8.649A3.495 3.495 0 0 1 0 5.5C0 3.57 1.57 2 3.5 2h.72l-.377-.379L5.41 0h1.034l3.519 3.515L9.476 4H16z" id="outline"/><path class="icon-vs-bg" d="M11.028 8.898L13 11.66V13H5v-.793l1.446-1.445L7.601 12.3a.485.485 0 0 0 .42.2.504.504 0 0 0 .403-.234l2.604-3.368zM8.724 5l-.862 1H14v8H4V9h-.5c-.171 0-.335-.027-.5-.051V15h12V5H8.724zM6.146 9.646a.497.497 0 0 1 .753.054l1.063 1.417 2.614-3.382a.5.5 0 0 1 .831-.026L13 9.939V7H5v3.793l1.146-1.147z" id="iconBg"/><path class="icon-vs-fg" d="M13 7v2.939l-1.593-2.23a.498.498 0 0 0-.831.026l-2.614 3.382L6.899 9.7a.493.493 0 0 0-.363-.198.492.492 0 0 0-.39.145L5 10.793V9H4v5h10V6H7.862L7 7h6zm0 6H5v-.793l1.446-1.445L7.601 12.3a.485.485 0 0 0 .42.2.504.504 0 0 0 .403-.234l2.604-3.367L13 11.66V13z" id="iconFg"/><path class="icon-vs-action-blue" d="M1 5.5A2.5 2.5 0 0 1 3.5 3h3.125L5.243 1.611 5.931.9l.012.012.001-.001 2.603 2.603L5.898 6.15l-.009-.009-.691-.691L6.64 4H3.5C2.673 4 2 4.673 2 5.5S2.673 7 3.5 7H4v1h-.5A2.5 2.5 0 0 1 1 5.5z" id="colorAction"/></svg>