<svg xmlns="http://www.w3.org/2000/svg" viewBox="0 0 16 16"><style>.icon-canvas-transparent{opacity:0;fill:#f6f6f6}.icon-vs-out{fill:#f6f6f6}.icon-vs-bg{fill:#424242}.icon-vs-fg{fill:#f0eff1}.icon-white{fill:#fff}.icon-vs-red{fill:#e51400}.st0{fill:none}</style><path class="icon-canvas-transparent" d="M0 0h16v16H0z" id="canvas"/><path class="icon-vs-out" d="M16 11.5c0-1.953-1.258-3.602-3-4.224V4.189L8.839 0H0v16h13v-.276c1.742-.622 3-2.271 3-4.224z" id="outline"/><path class="icon-vs-bg" d="M7.762 14H2V2h5v4h4v1.051c.166-.019.329-.051.5-.051s.334.032.5.051V4.603L8.535 1H1v14h7.706a4.504 4.504 0 0 1-.944-1zM8 2.207L10.793 5H8V2.207z" id="iconBg"/><g id="notificationBg"><path class="icon-vs-fg" d="M10.937 5H8V2.091L10.937 5zM7 11.5c0-2.31 1.756-4.197 4-4.449V6H7V2H2v12h5.762A4.474 4.474 0 0 1 7 11.5z"/><path class="icon-vs-red" d="M11.5 8a3.5 3.5 0 1 0 0 7 3.5 3.5 0 0 0 0-7zM9 12v-1h5v1H9z"/></g><g id="notificationFg"><path class="st0" d="M11 5h2.793"/><path class="icon-white" d="M14 12H9v-1h5v1z"/></g></svg>