<svg xmlns="http://www.w3.org/2000/svg" viewBox="0 0 16 16"><style>.icon-canvas-transparent{opacity:0;fill:#f6f6f6}.icon-vs-out{fill:#f6f6f6}.icon-vs-bg{fill:#424242}.icon-vs-fg{fill:#f0eff1}</style><path class="icon-canvas-transparent" d="M16 16H0V0h16v16z" id="canvas"/><path class="icon-vs-out" d="M6 2.086L3.914 0h-.83L0 3.099v.827l1.705 1.705L2 5.338v4.311l-.295-.294L0 11.061v.828l3.527 3.527L6 12.931V15h10V0H6v2.086zm0 7.963l-.68-.68-.313.311.007-4.339.306.304.68-.681v5.085z" id="outline"/><path class="icon-vs-bg" d="M4.015 2.937l-.005 9.144 1.307-1.3.707.707L3.525 14 1 11.475l.707-.707L3 12.053V2.934L1.707 4.219 1 3.512 3.5 1l2.525 2.525-.707.707-1.303-1.295zM15 1v13H7V1h8zm-4 10H9v2h1v-1h1v-1zm0-3H9v2h1V9h1V8zm0-2h-1v1h1V6zm0-3h-1v1h1V3zm3 8h-2v2h1v-1h1v-1zm0-3h-2v2h1V9h1V8zm0-2h-1v1h1V6zm0-3h-1v1h1V3z" id="iconBg"/><path class="icon-vs-fg" d="M10 4V3h1v1h-1zm3 0V3h1v1h-1zm-3 3V6h1v1h-1zm3 0V6h1v1h-1zM9 8h2v1h-1v1H9V8zm3 0h2v1h-1v1h-1V8zm-3 3h2v1h-1v1H9v-2zm3 0h2v1h-1v1h-1v-2z" id="iconFg"/></svg>