<svg xmlns="http://www.w3.org/2000/svg" viewBox="0 0 16 16"><style>.icon-canvas-transparent{opacity:0;fill:#f6f6f6}.icon-vs-out{fill:#f6f6f6}.icon-vs-bg{fill:#424242}.icon-vs-fg{fill:#f0eff1}.icon-vs-action-blue{fill:#00539c}</style><path class="icon-canvas-transparent" d="M16 16H0V0h16v16z" id="canvas"/><path class="icon-vs-out" d="M16 4v12H2V6H0V3l3.608-.001-1.084-1.084L4.438 0h.404l4.076 4H16z" id="outline"/><path class="icon-vs-bg" d="M13 13H5v-.793l1.445-1.445L7.6 12.3a.49.49 0 0 0 .422.2.507.507 0 0 0 .402-.234l2.603-3.367L13 11.66V13zM8.915 5L7.897 6H14v8H4V8.56l-1-1V15h12V5H8.915zM13 7H6.878L5 8.844v1.949l1.146-1.146A.498.498 0 0 1 6.9 9.7l1.063 1.417 2.613-3.383a.5.5 0 0 1 .83-.025L13 9.939V7z" id="iconBg"/><path class="icon-vs-fg" d="M7.897 6L6.878 7H13v2.939l-1.594-2.23a.494.494 0 0 0-.422-.209.505.505 0 0 0-.408.234l-2.613 3.383L6.9 9.7a.498.498 0 0 0-.754-.053L5 10.793V8.844l-.361.355L4 8.56V14h10V6H7.897zM13 13H5v-.793l1.445-1.445L7.6 12.3a.49.49 0 0 0 .422.2.507.507 0 0 0 .402-.234l2.603-3.367L13 11.66V13z" id="iconFg"/><path class="icon-vs-action-blue" d="M4.645 7.791l-.707-.707L6.022 5H1V3.999h5.022L3.938 1.915l.707-.707 3.354 3.291-3.354 3.292z" id="colorAction"/></svg>