<svg xmlns="http://www.w3.org/2000/svg" viewBox="0 0 16 16"><style>.icon-canvas-transparent{opacity:0;fill:#f6f6f6}.icon-vs-out{fill:#f6f6f6}.icon-vs-bg{fill:#424242}.icon-vs-fg{fill:#f0eff1}</style><path class="icon-canvas-transparent" d="M16 16H0V0h16v16z" id="canvas"/><path class="icon-vs-out" d="M12 3V1h-2V0H7v1H6V.001H3.024v3.642L1.94 2.559 0 4.499v.35l1 1.022V13h4v2h2v1h3v-1h2v-2h4V3h-4z" id="outline"/><path class="icon-vs-bg" d="M8 3H6V2h2V1h1v1h2v1H8zm.525 1l.672.672L8.876 5H14v6H3V7.915L2 6.893V12h13V4H8.525zm-.734.68l-.707-.708L5 6.056V1.001h-.976v5.055L1.94 3.972l-.707.708 3.279 3.352L7.791 4.68zM6 14h2v1h1v-1h2v-1H6v1z" id="iconBg"/><path class="icon-vs-fg" d="M14 5v6H3V7.915l1.512 1.546L8.876 5H14z" id="iconFg"/></svg>