<svg xmlns="http://www.w3.org/2000/svg" viewBox="0 0 16 16"><defs><style>.icon-canvas-transparent,.icon-vs-out{fill:#f6f6f6;}.icon-canvas-transparent{opacity:0;}.icon-vs-bg{fill:#424242;}</style></defs><title>FilterPending_16x</title><g id="canvas"><path class="icon-canvas-transparent" d="M16,0V16H0V0Z"/></g><g id="outline"><path class="icon-vs-out" d="M16,10A6,6,0,1,1,5.537,6H3V3.414l-2-2V0H8V1.414l-2,2V5.537A5.993,5.993,0,0,1,16,10Z"/></g><g id="iconBg"><path class="icon-vs-bg" d="M4,5V3L2,1H7L5,3V5Zm6,2H9v4h3V10H10Zm5,3a5,5,0,1,1-5-5A5,5,0,0,1,15,10Zm-1.12,0A3.881,3.881,0,1,0,10,13.881,3.881,3.881,0,0,0,13.88,10Z"/></g></svg>