<svg xmlns="http://www.w3.org/2000/svg" viewBox="0 0 16 16"><defs><style>.icon-canvas-transparent,.icon-vs-out{fill:#f6f6f6;}.icon-canvas-transparent{opacity:0;}.icon-vs-bg{fill:#424242;}</style></defs><title>DescriptionTemplate_16x</title><g id="canvas"><path class="icon-canvas-transparent" d="M16,16H0V0H16Z"/></g><g id="outline"><path class="icon-vs-out" d="M15.249,5.712a2.31,2.31,0,0,0-.249-.2L14.979,0H0V15H4.961l-.25,1H5.984l3.471-.868,5.8-5.8A2.569,2.569,0,0,0,15.249,5.712Z"/></g><g id="iconBg"><path class="icon-vs-bg" d="M8,4H7V3H8ZM1,10H2V9H1ZM8,1H7V2H8ZM1,14H2V13H1Zm0-2H2V11H1ZM13.979,1h-1V2h1Zm0,2h-1V4h1ZM12,3H11V4h1ZM10,1H9V2h1Zm2,0H11V2h1ZM10,3H9V4h1ZM3,2H4V1H3ZM5,14h.211l.25-1H5ZM3,4H4V3H3ZM1,8H2V7H1ZM5,2H6V1H5ZM5,4H6V3H5ZM1,6H2V5H1Zm2,8H4V13H3ZM1,4H2V3H1ZM1,2H2V1H1ZM14.545,8.628l-5.6,5.6L6,14.965l.737-2.943,5.6-5.6a1.655,1.655,0,0,1,2.207,0A1.564,1.564,0,0,1,14.545,8.628Zm-2.019.606-.793-.793L7.639,12.534,7.375,13.59l1.057-.263Zm1.311-2.105a.631.631,0,0,0-.793,0l-.6.605.793.793.6-.6A.562.562,0,0,0,13.837,7.129Z"/></g></svg>