<svg xmlns="http://www.w3.org/2000/svg" viewBox="0 0 16 16"><style>.icon-canvas-transparent{opacity:0;fill:#f6f6f6}.icon-vs-out{fill:#f6f6f6}.icon-vs-fg{fill:#f0eff1}.icon-fs-purple{fill:#682878}</style><path class="icon-canvas-transparent" d="M16 16H0V0h16v16z" id="canvas"/><path class="icon-vs-out" d="M15 16H2V0h8.621L15 4.379V16z" id="outline"/><path class="icon-fs-purple" d="M3 1v14h11V4.793L10.207 1H3zm10 13H4V2h5v4h4v8zm-3-9V2.207L12.793 5H10zM6.558 8c-.506 0-.892.176-1.159.525-.266.351-.399.86-.399 1.528 0 1.287.492 1.934 1.477 1.934.49 0 .867-.174 1.129-.522.263-.348.394-.848.394-1.5C8 8.654 7.52 8 6.558 8zm-.052 3.336c-.387 0-.58-.436-.58-1.305 0-.922.197-1.383.592-1.383.369 0 .554.447.554 1.344-.001.895-.189 1.344-.566 1.344zm2.98-3.301H10V12h-.847V8.999a.89.89 0 0 1-.165.116c-.064.037-.131.07-.203.102-.038.015-.079.026-.119.039v-.772c.097-.04.2-.069.291-.117.195-.099.372-.211.529-.332z" id="iconBg"/><g id="iconFg"><path class="icon-vs-fg" d="M10 2.207V5h2.793zM6.518 8.648c-.395 0-.592.461-.592 1.383 0 .869.193 1.305.58 1.305.377 0 .565-.449.565-1.344 0-.896-.184-1.344-.553-1.344z"/><path class="icon-vs-fg" d="M9 6V2H4v12h9V6H9zm-1.395 5.465c-.262.348-.639.521-1.129.521-.984 0-1.476-.646-1.476-1.933 0-.668.133-1.177.399-1.527.267-.35.653-.526 1.159-.526C7.52 8 8 8.654 8 9.965c0 .652-.131 1.152-.395 1.5zM10 12h-.847V8.999a.89.89 0 0 1-.165.116c-.064.037-.131.07-.203.102-.038.015-.079.026-.119.039v-.772c.097-.04.2-.069.291-.117.195-.1.372-.211.529-.332H10V12z"/><path class="icon-vs-fg" d="M10 2.207V5h2.793zM6.518 8.648c-.395 0-.592.461-.592 1.383 0 .869.193 1.305.58 1.305.377 0 .565-.449.565-1.344 0-.896-.184-1.344-.553-1.344z"/><path class="icon-vs-fg" d="M9 6V2H4v12h9V6H9zm-1.395 5.465c-.262.348-.639.521-1.129.521-.984 0-1.476-.646-1.476-1.933 0-.668.133-1.177.399-1.527.267-.35.653-.526 1.159-.526C7.52 8 8 8.654 8 9.965c0 .652-.131 1.152-.395 1.5zM10 12h-.847V8.999a.89.89 0 0 1-.165.116c-.064.037-.131.07-.203.102-.038.015-.079.026-.119.039v-.772c.097-.04.2-.069.291-.117.195-.1.372-.211.529-.332H10V12z"/></g></svg>