<svg xmlns="http://www.w3.org/2000/svg" viewBox="0 0 16 16"><style>.icon-canvas-transparent{opacity:0;fill:#f6f6f6}.icon-vs-out{fill:#f6f6f6}.icon-vs-bg{fill:#424242}.icon-vs-fg{fill:#f0eff1}</style><path class="icon-canvas-transparent" d="M16 16H0V0h16v16zm0-16H0v16h16V0z" id="canvas"/><path class="icon-vs-out" d="M10.333 0h-.551l-.785.785a3.464 3.464 0 0 0-1.008 2.48L6.17 5.083a4.403 4.403 0 0 0-3.885 1.241l-1.06 1.06 2.61 2.61L.302 13.54 0 14.889V16h1.118l1.388-.332 3.501-3.501 1.252 1.252a4.007 4.007 0 0 0 3.74 2.58c2.206 0 4-1.795 4-4.002a4.01 4.01 0 0 0-2.532-3.724L12.734 8h.041c.924 0 1.791-.353 2.439-1.003L16 6.216v-.549L10.333 0z" id="outline"/><path class="icon-vs-fg" d="M7.267 10.598L4.089 7.42a2.438 2.438 0 0 1 2.319-.193l.312.135 3.416-3.417-.085-.286a1.483 1.483 0 0 1 .069-1.043l3.263 3.263a1.488 1.488 0 0 1-1.043.069l-.286-.085-2.38 2.38a4.001 4.001 0 0 0-2.407 2.355z" id="iconFg"/><g id="iconBg"><path class="icon-vs-bg" d="M11 9c-1.654 0-3 1.346-3 3s1.346 3 3 3 3-1.346 3-3-1.346-3-3-3zm2 3c0 .37-.108.712-.283 1.01L9.99 10.283c.298-.175.64-.283 1.01-.283 1.103 0 2 .897 2 2zm-4 0c0-.37.108-.712.283-1.01l2.726 2.726A1.97 1.97 0 0 1 11 14c-1.103 0-2-.897-2-2zm5.861-6.058l-.354.353a2.45 2.45 0 0 1-2.152.681L11.301 8.03C11.2 8.023 11.103 8 11 8c-.467 0-.908.096-1.325.243l2.38-2.38.286.085a1.48 1.48 0 0 0 1.042-.069L10.12 2.616c-.147.32-.175.69-.069 1.043l.085.286L6.72 7.362l-.312-.135a2.438 2.438 0 0 0-2.319.193l3.178 3.178c-.139.368-.22.761-.244 1.171l-1.016-1.016-4.008 4.008L1 15l.215-.959 4.033-4.047-2.609-2.61.353-.354a3.423 3.423 0 0 1 3.489-.843l2.542-2.542a2.458 2.458 0 0 1 .681-2.153l.354-.354 4.803 4.804z"/></g></svg>