<svg xmlns="http://www.w3.org/2000/svg" viewBox="0 0 16 16"><defs><style>.icon-canvas-transparent,.icon-vs-out{fill:#f6f6f6;}.icon-canvas-transparent{opacity:0;}.icon-vs-bg{fill:#424242;}</style></defs><title>FullScreenshot_16x</title><g id="canvas"><path class="icon-canvas-transparent" d="M16,0V16H0V0Z"/></g><g id="outline"><path class="icon-vs-out" d="M16,0H2V7H0v9H12V13h2V11h2Z"/></g><g id="iconBg"><path class="icon-vs-bg" d="M15,1v9H12V9h2V2H4V6H3.546L3,6.764V1ZM12,12h1V11H12ZM8.642,8H11v7H1V8H3.346L4.06,7H7.928ZM3,9H2v1H3Zm5.5,2.5A2.5,2.5,0,1,0,6,14,2.5,2.5,0,0,0,8.5,11.5ZM6,10a1.5,1.5,0,1,0,1.5,1.5A1.5,1.5,0,0,0,6,10Z"/></g></svg>