<svg xmlns="http://www.w3.org/2000/svg" viewBox="0 0 16 16"><style>.icon-canvas-transparent{opacity:0;fill:#f6f6f6}.icon-vs-out{fill:#f6f6f6}.icon-vs-bg{fill:#424242}.icon-vs-fg{fill:#f0eff1}</style><path class="icon-canvas-transparent" d="M16 16H0V0h16v16z" id="canvas"/><path class="icon-vs-out" d="M16 0v12H9.562l.178.178L5.931 16h-1.89L.22 12.179l2.12-2.12 1.133 1.129V9.756a.949.949 0 0 0-.028-.26l-.012.001c-.026 0-.079-.008-.161-.008H0v-3h3.207c.282.001.543.032.793.08V0h12z" id="outline"/><path class="icon-vs-bg" d="M4.471 13.594l.001-3.839c0-.437-.104-.761-.307-.964-.3-.301-.76-.304-.943-.301H1v-1H3.213c.711 0 1.266.2 1.66.594.397.397.6.96.6 1.672l-.001 3.857 2.148-2.14.707.707-3.34 3.352-3.352-3.352.707-.707 2.129 2.121zM11 6v1h1V6h-1zm-1 3h3V8h-3v1zM5 1v5.94c.209.123.406.263.58.436.164.164.3.351.42.551V3h8v7H6.473v1h.204l.944-.941.941.941H15V1H5zm2 6h3V6H7v1zm0-2h3V4H7v1zm0 3.585V9h2V8H7v.585z" id="iconBg"/><path class="icon-vs-fg" d="M6 3v4.927c.307.512.473 1.13.473 1.829V10H14V3H6zm5 3h1v1h-1V6zM7 4h3v1H7V4zm2 5H7V8h2v1zM7 7V6h3v1H7zm6 2h-3V8h3v1z" id="iconFg"/></svg>