<svg xmlns="http://www.w3.org/2000/svg" viewBox="0 0 16 16"><style>.icon-canvas-transparent{opacity:0;fill:#f6f6f6}.icon-vs-out{fill:#f6f6f6}.icon-vs-bg{fill:#424242}.icon-vs-action-blue{fill:#00539c}</style><path class="icon-canvas-transparent" d="M16 16H0V0h16v16z" id="canvas"/><path class="icon-vs-out" d="M16 6.36a9.88 9.88 0 0 1-1.999 5.96l-.754 1.006-1.408-1.667-.231.297-1.213-1.342-.189.292-1.869-2.195.377-.618c.019-.03.032-.062.05-.093H7.236c.018.031.031.063.05.094l.377.618-.455.61 2.217 2.176L4.842 16H4.44l-1.916-1.916L3.608 13H0v-3h.703-.001A9.831 9.831 0 0 1 0 6.36 9.88 9.88 0 0 1 1.999.4l.3-.4h.965l.896 1.061.23-.297 1.213 1.342.191-.294L7.654 4h.691l1.859-2.188.191.294L11.608.764l.23.297L12.735 0h.966l.3.4A9.88 9.88 0 0 1 16 6.36z" id="outline"/><path class="icon-vs-bg" d="M3.789 6.36c0 .39.064.767.151 1.138L3.438 8h-.2A5.977 5.977 0 0 1 3 6.36c0-1.223.364-2.374 1-3.398a7.55 7.55 0 0 1 .449-.642L5 2.93c-.751 1.008-1.211 2.178-1.211 3.43zM13.2 1l-.52.616a7.976 7.976 0 0 1 1.071 1.967l.005.016c.078.211.148.425.208.644.011.04.017.081.028.121.048.186.094.372.128.563.017.088.024.18.037.27.021.145.046.289.06.437.021.239.033.482.033.728 0 .418-.039.827-.102 1.228-.006.038-.009.076-.016.114a7.795 7.795 0 0 1-.287 1.145l-.03.093a7.96 7.96 0 0 1-.475 1.105l-.008.015a7.957 7.957 0 0 1-.653 1.045l.521.616c1.121-1.497 1.8-3.345 1.8-5.36S14.321 2.497 13.2 1zM7 7h2V5H7v2zm5-4.038a7.55 7.55 0 0 0-.449-.642L11 2.93c.751 1.009 1.211 2.179 1.211 3.431s-.46 2.422-1.211 3.43l.551.609c.167-.215.308-.445.449-.674.627-1.018 1-2.153 1-3.366 0-1.222-.364-2.374-1-3.398zm-1.901.519l-.532.625c.427.7.683 1.458.683 2.254s-.256 1.555-.683 2.254l.531.624c.573-.879.902-1.85.902-2.878 0-1.027-.329-1.999-.901-2.879zM2.154 8.847a7.89 7.89 0 0 1-.287-1.145c-.007-.037-.01-.076-.015-.114A7.876 7.876 0 0 1 1.75 6.36c0-.245.012-.488.033-.728.014-.147.038-.292.06-.437.013-.09.021-.182.037-.27a7.42 7.42 0 0 1 .128-.563c.011-.04.018-.081.028-.121.06-.219.13-.433.208-.644l.005-.016A8.032 8.032 0 0 1 3.32 1.616L2.8 1A8.908 8.908 0 0 0 1 6.36c0 1.3.286 2.528.787 3.64h.853a7.902 7.902 0 0 1-.455-1.06l-.031-.093zm3.747-5.366C5.329 4.361 5 5.333 5 6.36c0 .3.036.593.09.882l1.283 1.259c-.388-.668-.623-1.387-.623-2.141 0-.795.256-1.554.683-2.254l-.532-.625z" id="iconBg"/><path class="icon-vs-action-blue" d="M4.645 14.791l-.707-.707L6.022 12H1v-1.001h5.022L3.938 8.915l.707-.707 3.354 3.291-3.354 3.292z" id="colorAction"/></svg>