<svg xmlns="http://www.w3.org/2000/svg" width="16" height="16"><style>.icon-canvas-transparent{opacity:0;fill:#f6f6f6}.icon-css-red{fill:#bd1e2d}.icon-vs-out{fill:#f6f6f6}</style><path class="icon-canvas-transparent" d="M16 16H0V0h16v16z" id="canvas"/><path class="icon-vs-out" d="M9.289 13l-1.41-2.236V13H4V3h3.979c3.644 0 4.038 2.221 4.038 3.176 0 .402-.067.781-.199 1.128a3.138 3.138 0 0 1-.913 1.291l.035.044.318.445L13.869 13h-4.58z" id="outline"/><path class="icon-css-red" d="M12 12H9.841L8.544 9.941l-.279-.418a2.374 2.374 0 0 0-.271-.315 1.063 1.063 0 0 0-.285-.201.759.759 0 0 0-.323-.07h-.507V12H5V4h2.979c2.025 0 3.037.725 3.037 2.176 0 .279-.044.537-.134.773-.09.236-.215.449-.378.639s-.36.353-.591.491c-.23.137-.487.245-.77.323v.022c.124.037.244.098.361.181.116.084.228.182.337.293.109.112.212.232.312.36l.27.377L12 12zM6.879 5.35v2.226h.815c.403 0 .727-.112.972-.335.248-.227.372-.508.372-.842 0-.699-.436-1.049-1.309-1.049h-.85z" id="iconBg"/></svg>