<svg xmlns="http://www.w3.org/2000/svg" viewBox="0 0 16 16"><defs><style>.icon-canvas-transparent,.icon-vs-out{fill:#f6f6f6;}.icon-canvas-transparent{opacity:0;}.icon-folder{fill:#dcb67a;}.cls-1{fill:#00539c;}</style></defs><title>FindInFiles_16x</title><g id="canvas"><rect class="icon-canvas-transparent" width="16" height="16"/></g><g id="outline"><path class="icon-vs-out" d="M2,0H9.116l1,2H13a2.191,2.191,0,0,1,2,2.25V6h1V7.446l-1.381,3.3L16,12.129v1.828L14.958,15h-.915l-2-2h-.436a6.165,6.165,0,0,1-.781,0H2a1.943,1.943,0,0,1-1.43-.44A1.664,1.664,0,0,1,0,11.25v-9A2.171,2.171,0,0,1,2,0Z"/></g><g id="iconBg"><path class="icon-folder" d="M2,1H8.5l1,2H13a1.334,1.334,0,0,1,1,1.25V7h1l-.692,1.732A3.247,3.247,0,0,0,12.884,7H13V4H9L8,2H2V12a1.047,1.047,0,0,1-1-1.056V2.25A1.334,1.334,0,0,1,2,1ZM9.616,7H5L2,12H8.879a3.217,3.217,0,0,1,.737-5Z"/></g><g id="colorAction"><path class="cls-1" d="M9,9.793a2.25,2.25,0,0,0,2.25,2.25,2.225,2.225,0,0,0,1-.246L14.5,14.043l1-1L13.253,10.8a2.224,2.224,0,0,0,.247-1,2.25,2.25,0,0,0-4.5,0Zm1,0a1.25,1.25,0,1,1,1.25,1.25A1.25,1.25,0,0,1,10,9.793Z"/></g></svg>