<svg xmlns="http://www.w3.org/2000/svg" viewBox="0 0 16 16"><defs><style>.icon-canvas-transparent,.icon-vs-out{fill:#f6f6f6;}.icon-canvas-transparent{opacity:0;}.icon-vs-blue{fill:#1ba1e2;}.icon-vs-bg{fill:#424242;}</style></defs><title>BrowserLink_16x</title><g id="canvas"><path class="icon-canvas-transparent" d="M16,16H0V0H16Z"/></g><g id="outline"><path class="icon-vs-out" d="M16,8a8,8,0,0,1-5.575,7.623A2.957,2.957,0,0,1,9,16H5a3.005,3.005,0,0,1-2.844-2.044l-.619-.349A2.975,2.975,0,0,1,.227,9.863,8,8,0,1,1,16,8Z"/></g><g id="iconBg"><path class="icon-vs-blue" d="M14.988,7.763A7,7,0,0,0,1,8c0,.2.012.4.03.6,0,.046.013.091.018.136a2.991,2.991,0,0,1,1.207-.635c0-.035,0-.07,0-.105a5.736,5.736,0,0,1,.482-2.3,20.164,20.164,0,0,0,2.3.538c-.042.406-.072.821-.077,1.258,0,.167.008.337.014.506H6.06c-.006-.165-.017-.332-.015-.5,0-.386.031-.755.067-1.114a18.549,18.549,0,0,0,1.882.12l.4,0c.489,0,.983-.015,1.488-.054a10.356,10.356,0,0,1,.07,1.047,8.673,8.673,0,0,1-.209,1.869c-.077.005-.154,0-.231.006a3,3,0,0,1,.329.661l.621.351c.046.025.079.065.124.093.009-.034.024-.071.033-.1a12.743,12.743,0,0,0,2.886-.735,5.7,5.7,0,0,1-1.617,2.562,2.8,2.8,0,0,1-.014,1.594A6.967,6.967,0,0,0,15,8C15,7.92,14.99,7.843,14.988,7.763Zm-9.8-2.61a19.128,19.128,0,0,1-1.9-.435A5.768,5.768,0,0,1,5.917,2.645,13.08,13.08,0,0,0,5.185,5.153Zm2.821.268A16.721,16.721,0,0,1,6.267,5.31a12.138,12.138,0,0,1,1-3.008A5.694,5.694,0,0,1,8,2.25c.165,0,.327.011.488.024A10.856,10.856,0,0,1,9.709,5.382C9.138,5.421,8.576,5.426,8.006,5.421Zm1.875-2.85A5.757,5.757,0,0,1,12.749,4.76a11.388,11.388,0,0,1-1.951.5A11.7,11.7,0,0,0,9.881,2.571Zm3.85,5.8a11.773,11.773,0,0,1-2.847.863A9.318,9.318,0,0,0,11.045,7.5a11.587,11.587,0,0,0-.076-1.157,12.57,12.57,0,0,0,2.316-.6A5.715,5.715,0,0,1,13.75,8C13.75,8.126,13.739,8.25,13.731,8.374Z"/><path class="icon-vs-bg" d="M11,13a2,2,0,0,1-2,2H5a2,2,0,0,1,0-4H6L5,12a1,1,0,0,0,0,2H9a1,1,0,0,0,.7-1.713,2.954,2.954,0,0,0,.275-1.023A1.991,1.991,0,0,1,11,13ZM7,13A2,2,0,0,0,7,9H3a1.993,1.993,0,0,0-.973,3.736A2.965,2.965,0,0,1,2.3,11.712.991.991,0,0,1,2,11a1,1,0,0,1,1-1H7a1,1,0,0,1,0,2L6,13Z"/></g></svg>