<svg xmlns="http://www.w3.org/2000/svg" viewBox="0 0 16 16"><style>.icon-canvas-transparent{opacity:0;fill:#f6f6f6}.icon-vs-out{fill:#f6f6f6}.icon-vs-bg{fill:#424242}.icon-vs-fg{fill:#f0eff1}.icon-vs-action-blue{fill:#00539c}</style><path class="icon-canvas-transparent" d="M16 0v16H0V0h16z" id="canvas"/><path class="icon-vs-out" d="M14.414 5H8.471l1.492-1.485L6.444 0H5.41L3.843 1.621 4.22 2H3.5C1.57 2 0 3.57 0 5.5S1.57 9 3.5 9H4v5.414L5.586 16h8.828L16 14.414V6.586L14.414 5zM4 6h-.5a.5.5 0 0 1 0-1h.735l-.45.452.548.548H4z" id="outline"/><path class="icon-vs-bg" d="M15 7v7l-1 1H6l-1-1V6.667l.21.21.705.667L6 7.459v6.126l.414.415h7.172l.414-.414V7.414L13.586 7H6.462l1.005-1H14l1 1z" id="iconBg"/><path class="icon-vs-fg" d="M13.586 7H6.414L6 7.414v6.172l.414.414h7.172l.414-.414V7.414L13.586 7zM12 12H8v-1h4v1zm0-2H8V9h4v1z" id="iconFg"/><path class="icon-vs-action-blue" d="M1 5.5A2.5 2.5 0 0 1 3.5 3h3.125L5.243 1.611 5.931.9l.012.012.001-.001 2.603 2.603L5.898 6.15l-.009-.009-.691-.691L6.64 4H3.5C2.673 4 2 4.673 2 5.5S2.673 7 3.5 7H4v1h-.5A2.5 2.5 0 0 1 1 5.5z" id="colorAction"/><path class="icon-vs-action-blue" d="M12 9v1H8V9h4zm-4 3h4v-1H8v1z" id="colorImportance"/></svg>