<svg xmlns="http://www.w3.org/2000/svg" viewBox="0 0 16 16"><style>.icon-canvas-transparent{opacity:0;fill:#f6f6f6}.icon-vs-out{fill:#f6f6f6}.icon-vs-bg{fill:#424242}.icon-vs-action-blue{fill:#00539c}</style><path class="icon-canvas-transparent" d="M16 16H0V0h16v16z" id="canvas"/><path class="icon-vs-out" d="M8 12.883V12c0-.696-.24-1.429-.617-2.002C7.76 9.425 8 8.693 8 8V7h1V4H8c-.148 0-.278.017-.415.027L6.089 2.531 5.004 3.616 5.003.007h-3v3.608L.919 2.531 0 3.451v2.413l3.505 3.57L4 8.929V11l.006.941.994.06v1.088c-.002.545-.005 1.458.677 2.142C6.192 15.748 6.952 16 8 16h1v-2l.077-.967h-1a.516.516 0 0 1-.077-.15zM4.908 8.004L5 7.91v.088l-.092.006zM16 9v2.952l-1 .052V13c.002.634.006 1.547-.677 2.23-.515.518-1.275.77-2.323.77h-1v-3h1c-.024-.005-.012-.065 0-.112V12c0-.696.24-1.429.617-2.002C12.24 9.425 12 8.693 12 8v-.99h-.903L11 6V4h1c1.048 0 1.808.251 2.323.769.683.685.679 1.597.677 2.142v1.087l.973.058L16 9z" id="outline"/><path class="icon-vs-bg" d="M8 5v1c-.416 0-1 .16-1 1v1c0 .833-.496 1.731-1 2 .504.264 1 1.166 1 2v1s.167 1 1 1v1c-2.083 0-2-1.166-2-2v-1c0-.474-.169-.719-.379-.848a.967.967 0 0 0-.329-.121c-.109-.02-.211-.026-.292-.031V9c.297-.019 1-.031 1-1V7c0-.834-.083-2 2-2zm6 3V7c0-.834.083-2-2-2v1c.416 0 1 .16 1 1v1c0 .833.496 1.731 1 2-.504.264-1 1.166-1 2v1s-.167 1-1 1v1c2.083 0 2-1.166 2-2v-1c0-.118.011-.223.03-.314a.835.835 0 0 1 .202-.413.667.667 0 0 1 .148-.12c.157-.097.337-.128.485-.142.049-.006.095-.009.135-.011V9c-.297-.019-1-.031-1-1z" id="iconBg"/><path class="icon-vs-action-blue" d="M.212 4.652l.707-.707 2.084 2.084V1.007h1.001v5.022l2.084-2.084.707.707-3.29 3.354L.212 4.652z" id="colorAction"/></svg>