<svg xmlns="http://www.w3.org/2000/svg" viewBox="0 0 16 16"><style>.icon-canvas-transparent{opacity:0;fill:#f6f6f6}.icon-vs-out{fill:#f6f6f6}.icon-vs-bg{fill:#424242}.icon-vs-fg{fill:#f0eff1}</style><path class="icon-canvas-transparent" d="M16 16H0V0h16v16z" id="canvas"/><path class="icon-vs-out" d="M16 9.041L14.963 8H16V0H7v5H2.286A2.288 2.288 0 0 0 0 7.286v6.428A2.288 2.288 0 0 0 2.286 16h6.429c.777 0 1.465-.391 1.878-.985l1.918.003a2.498 2.498 0 0 0 2.491-2.5v-.225l.083.083.915-.915v-2.42zm-5 2.975v-.68l.68.681-.68-.001zm0-2.947V8h1.069L11 9.069z" id="outline"/><path class="icon-vs-bg" d="M12 6V5H8V1h7v6h-4V6h1zM8.714 6H2.286C1.576 6 1 6.575 1 7.286v6.428C1 14.425 1.576 15 2.286 15h6.429C9.424 15 10 14.425 10 13.714V7.286C10 6.575 9.424 6 8.714 6zm4.803 1.966l-2.237 2.237.709.709 1.013-1.008.009 2.615c0 .275-.225.5-.5.5l-1.493-.002v1l1.493.002c.827 0 1.491-.673 1.491-1.5V9.885l1.081 1.077.711-.711-2.277-2.285z" id="iconBg"/><path class="icon-vs-fg" d="M9 3h1v1H9V3zm2 3h1V5h-1v1zm2-3v1h1V3h-1zm0 3h1V5h-1v1zm-2-2h1V3h-1v1zm-8.036 8.072a.965.965 0 1 0 .001 1.929.965.965 0 0 0-.001-1.929zM2 10.144v.642A3.214 3.214 0 0 1 5.214 14h.643A3.856 3.856 0 0 0 2 10.144zm0-1.929v.643a5.144 5.144 0 0 1 5.143 5.143h.643A5.787 5.787 0 0 0 2 8.215z" id="iconFg"/></svg>