<svg xmlns="http://www.w3.org/2000/svg" viewBox="0 0 16 16"><style>.icon-canvas-transparent{opacity:0;fill:#f6f6f6}.icon-vs-out{fill:#f6f6f6}.icon-vs-bg{fill:#424242}</style><path class="icon-canvas-transparent" d="M16 16H0V0h16v16z" id="canvas"/><path class="icon-vs-out" d="M16 8v3h-1v3h-4.91c-.26 1.043-1.097 1.966-2.864 1.985L7 15.988V16H4v-.012l-.265-.003C1.543 15.962.761 14.557.761 13.251v-1.234L0 11.969V8.908l.762-.047V7.646c0-1.118.574-2.299 2.09-2.646H2V0h5v1h7v3h-4v1h5v3h1z" id="outline"/><g id="iconBg"><path class="icon-vs-bg" d="M3.747 5.892L4 5.889v1.253l-.244.006c-.277.007-.532.095-.532.683v1.377c0 .548-.202.961-.59 1.22.388.254.59.666.59 1.217v1.362c0 .38.075.532.12.59.067.086.206.132.412.137l.244.005v1.249l-.253-.003c-1.641-.018-1.985-.953-1.985-1.734v-1.44c0-.646-.267-.75-.527-.767L1 11.029V9.848l.234-.015c.261-.017.528-.123.528-.786V7.646c0-.791.344-1.736 1.985-1.754zM9.19 9.047V7.646c0-.79-.343-1.735-1.976-1.754l-.252-.003v1.253l.244.006c.278.007.537.095.537.683v1.377c0 .548.2.961.585 1.22-.385.254-.585.666-.585 1.217v1.362c0 .375-.077.528-.123.586-.07.089-.21.136-.414.141l-.244.006v1.249l.253-.003c1.633-.018 1.976-.953 1.976-1.734v-1.44c0-.646.265-.75.522-.767l.234-.015V9.848l-.233-.015c-.259-.017-.524-.124-.524-.786zM14 6h-4s-.029.86 0 1h4V6zm-1-4H7v1h6V2zm-3 10v1h4v-1h-4zM3 4h3V1H3v3zm8 5v1h4V9h-4z"/></g></svg>