<svg xmlns="http://www.w3.org/2000/svg" viewBox="0 0 16 16"><style>.icon-canvas-transparent{opacity:0;fill:#f6f6f6}.icon-vs-out{fill:#f6f6f6}.icon-vs-bg{fill:#424242}.icon-vs-action-orange{fill:#c27d1a}.st0{fill:#f0eff1}</style><path class="icon-canvas-transparent" d="M16 16H0V0h16v16z" id="canvas"/><path class="icon-vs-out" d="M16 7.414V1.586L14.414 0H8.585l-1.11 1.111-.854-.854L6 .878V0H3v.878L2.379.257.257 2.379.878 3H0v3h.878l-.621.621.854.854L0 8.586v5.828L1.585 16h5.83L8 15.415v.581l3.513.004c1.397 0 2.492-1.083 2.492-2.465v-.222l.082.082L16 11.482v-.421L13.945 9h.469L16 7.414zm-7 5.583v-1.646l1.645 1.647L9 12.997zm0-1.906V9h2.091L9 11.091z" id="outline"/><path class="icon-vs-bg" d="M15 2v5l-1 1H9l-.818-.818.561-.561L8.121 6H9v.586L9.414 7h4.172L14 6.586V2.414L13.586 2H9.414L9 2.414V3h-.879l.621-.621-.56-.561L9 1h5l1 1zM6.621 8.742L6 8.121V9h.586L7 9.414v4.172L6.586 14H2.414L2 13.586V9.414L2.414 9H3v-.879l-.621.621-.561-.56L1 9v5l1 1h5l1-1V9l-.818-.818-.561.56zm5.898.243l-2.237 2.237.709.709 1.013-1.008.009 2.613c0 .275-.225.465-.5.465L9 13.997v1l2.513.003c.827 0 1.491-.638 1.491-1.465v-2.631l1.081 1.077.711-.711-2.277-2.285z" id="iconBg"/><path class="st0" d="M6.586 9L7 9.414v4.172L6.586 14H2.414L2 13.586V9.414L2.414 9h4.172zm7-7H9.414L9 2.414v4.172L9.414 7h4.172L14 6.586V2.414L13.586 2z" id="iconFg"/><path class="icon-vs-action-orange" d="M8 4H5.707l1.621-1.621-.707-.708L5 3.293V1H4v2.293L2.379 1.671l-.708.708L3.293 4H1v1h2.293L1.671 6.621l.708.707L4 5.707V8h1V5.707l1.621 1.621.707-.707L5.707 5H8V4zM5 5H4V4h1v1z" id="colorAction"/></svg>