<svg xmlns="http://www.w3.org/2000/svg" viewBox="0 0 16 16"><style>.icon-canvas-transparent{opacity:0;fill:#f6f6f6}.icon-vs-out{fill:#f6f6f6}.icon-vs-bg{fill:#424242}.icon-vs-fg{fill:#f0eff1}.st0{fill:#424242}</style><path class="icon-canvas-transparent" d="M0 0h16v16H0z" id="canvas"/><path class="icon-vs-out" d="M15 4.379V16H0v-6h2V0h8.621L15 4.379z" id="outline"/><path class="icon-vs-fg" d="M13 6v8H9V7H4V2h5v4h4zm-3-3.793V5h2.793L10 2.207zM5 11h2V9H5v2zm0 3h2v-2H5v2zm-3 0h2v-2H2v2z" id="iconFg"/><g id="iconBg"><path class="icon-vs-bg" d="M10.207 1H3v6h1V2h5v4h4v8H9v1h5V4.793L10.207 1zM10 5V2.207L12.793 5H10z"/><path class="st0" d="M4 8v3H1v4h7V8H4zm0 6H2v-2h2v2zm3 0H5v-2h2v2zm-2-3V9h2v2H5z"/></g></svg>