<svg xmlns="http://www.w3.org/2000/svg" viewBox="0 0 16 16"><style>.icon-canvas-transparent{opacity:0;fill:#f6f6f6}.icon-vs-out{fill:#f6f6f6}.icon-vs-bg{fill:#424242}.icon-vs-action-blue{fill:#00539c}</style><path class="icon-canvas-transparent" d="M16 16H0V0h16v16z" id="canvas"/><path class="icon-vs-out" d="M16 11.499L11.416 16h-.402l-1.916-1.916L10.182 13H6.574v-1H5v-1H4v1H1V9H0V5h1V2h3v1h1V2h3v4H7v2h1v2l2.183-.001-1.085-1.084L11.012 7h.404L16 11.499z" id="outline"/><path class="icon-vs-bg" d="M7 3v2H2V3h1v1h3V3h1zm0 8V9H2v2h1v-1h3v1h1zM6 6H1v2h5V6z" id="iconBg"/><path class="icon-vs-action-blue" d="M11.219 14.791l-.707-.707L12.596 12H7.574v-1.001h5.022l-2.084-2.084.707-.707 3.354 3.291-3.354 3.292z" id="colorAction"/></svg>