<svg xmlns="http://www.w3.org/2000/svg" viewBox="0 0 16 16"><defs><style>.icon-canvas-transparent,.icon-vs-out{fill:#f6f6f6;}.icon-canvas-transparent{opacity:0;}.icon-vs-bg{fill:#424242;}.icon-vs-action-orange{fill:#c27d1a;}</style></defs><title>UserWizard_16x</title><path class="icon-canvas-transparent" d="M16,0V16H0V0Z"/><path class="icon-vs-out" d="M15,11.939v2c-.139,0-.561,0-.592.939,0,.105,0,.166,0,.166l-2,0s0-.062,0-.167c-.021-.637-.22-.959-.592-.959L9.7,13.837s0-.094,0-.255A3.385,3.385,0,0,0,9.3,12H0l.122-1.109A5.638,5.638,0,0,1,2.173,7.142a4.44,4.44,0,1,1,7.964-2.7,8.824,8.824,0,0,1-.444,2.3l2,0s0,.091,0,.247c.027.859.277,2.273,1.625,2.319h.308l.211.1-.329,1.409.9,0s0,.061,0,.164C14.426,11.616,14.626,11.939,15,11.939Z"/><path class="icon-vs-bg" d="M7.6,7.3a3.442,3.442,0,1,0-3.807,0A4.619,4.619,0,0,0,1.116,11H2.129A3.612,3.612,0,0,1,5.7,7.882,3.576,3.576,0,0,1,8.476,9.209,1.382,1.382,0,0,0,9.265,8.6,4.621,4.621,0,0,0,7.6,7.3ZM5.7,6.882a2.441,2.441,0,1,1,2.44-2.441A2.444,2.444,0,0,1,5.7,6.882Z"/><path class="icon-vs-action-orange" d="M10.7,13.6c-.015-.725-.239-3.331-2.695-3.331H8c2.459,0,2.679-2.589,2.693-3.3.015.717.24,3.325,2.688,3.336C10.936,10.311,10.713,12.883,10.7,13.6Zm2.693-3.3h0Zm-2.7-3.519s0,.07,0,.184C10.7,6.854,10.692,6.784,10.692,6.784Zm.006,7.007s0-.073,0-.189C10.7,13.718,10.7,13.791,10.7,13.791ZM13.408,15s0-.04,0-.1C13.407,14.96,13.408,15,13.408,15Zm0-4.038c-.006.409-.128,1.958-1.59,1.958h0c1.462,0,1.585,1.563,1.592,1.977.007-.411.129-1.957,1.59-1.957h0C13.535,12.94,13.412,11.373,13.4,10.962Zm0-.1s0,.039,0,.1C13.405,10.9,13.4,10.861,13.4,10.861Z"/></svg>