<svg xmlns="http://www.w3.org/2000/svg" viewBox="0 0 16 16"><defs><style>.icon-canvas-transparent,.icon-vs-out{fill:#f6f6f6;}.icon-canvas-transparent{opacity:0;}.icon-vs-bg{fill:#424242;}</style></defs><title>HeatMap_16x</title><g id="canvas"><path class="icon-canvas-transparent" d="M16,0V16H0V0Z"/></g><g id="outline"><path class="icon-vs-out" d="M16,1V15H6.643A3.995,3.995,0,0,1,1,9.366V3A3,3,0,0,1,6.234,1Z"/></g><g id="iconBg"><path class="icon-vs-bg" d="M6,3A2,2,0,0,0,2,3V9.776A2.962,2.962,0,0,0,1,12a3,3,0,0,0,6,0A2.962,2.962,0,0,0,6,9.776ZM4,14a2,2,0,0,1-2-2,1.979,1.979,0,0,1,.8-1.589l.2-.15V3A1,1,0,0,1,5,3v7.261l.2.15A1.979,1.979,0,0,1,6,12,2,2,0,0,1,4,14ZM15,2V14H7.444a3.93,3.93,0,0,0,.414-1H14V3H7a2.966,2.966,0,0,0-.184-1ZM7,4h3V7H7ZM9,9h4v3H9ZM5,12a1,1,0,0,1-2,0,.985.985,0,0,1,.5-.847V6h1v5.153A.985.985,0,0,1,5,12Z"/></g></svg>