<svg xmlns="http://www.w3.org/2000/svg" viewBox="0 0 16 16"><title>HeatMap_white_16x</title><path d="M16,0V16H0V0Z" fill="#f6f6f6" opacity="0"/><path d="M10,9h4v3H10ZM7,6h3V4H7ZM6.95,2A3.467,3.467,0,0,1,7,2.5V3h8V13H7.911a4.128,4.128,0,0,1-.2,1H16V2ZM4.723,11.637a1.442,1.442,0,0,0-.316-.324A1.557,1.557,0,0,0,4,11.094V6H3v5.094a1.45,1.45,0,0,0-.41.219,1.477,1.477,0,0,0-.312.324,1.567,1.567,0,0,0-.2.406A1.427,1.427,0,0,0,2,12.5a1.467,1.467,0,0,0,.117.586,1.492,1.492,0,0,0,.8.8,1.523,1.523,0,0,0,1.172,0,1.492,1.492,0,0,0,.8-.8A1.467,1.467,0,0,0,5,12.5a1.441,1.441,0,0,0-.074-.457A1.583,1.583,0,0,0,4.723,11.637ZM6.7,11.4a3.262,3.262,0,0,1,.25,1.266,3.136,3.136,0,0,1-.277,1.313,3.334,3.334,0,0,1-.754,1.059,3.579,3.579,0,0,1-1.1.707,3.48,3.48,0,0,1-2.629,0,3.584,3.584,0,0,1-1.1-.707,3.326,3.326,0,0,1-.754-1.059,3.128,3.128,0,0,1-.277-1.312A3.262,3.262,0,0,1,.3,11.4,3.791,3.791,0,0,1,1,10.3V2.5a2.419,2.419,0,0,1,.2-.969A2.519,2.519,0,0,1,1.73.738,2.563,2.563,0,0,1,2.527.2,2.408,2.408,0,0,1,3.5,0a2.381,2.381,0,0,1,.969.2A2.56,2.56,0,0,1,5.8,1.531,2.381,2.381,0,0,1,6,2.5v7.8A3.8,3.8,0,0,1,6.7,11.4Zm-.758,1.266A2.267,2.267,0,0,0,5.68,11.59,3.29,3.29,0,0,0,5,10.711V2.5a1.474,1.474,0,0,0-.117-.586,1.492,1.492,0,0,0-.8-.8,1.523,1.523,0,0,0-1.172,0,1.492,1.492,0,0,0-.8.8A1.474,1.474,0,0,0,2,2.5v8.211a3.29,3.29,0,0,0-.68.879,2.267,2.267,0,0,0-.258,1.074,2.164,2.164,0,0,0,.2.922,2.342,2.342,0,0,0,.535.742,2.5,2.5,0,0,0,.777.492,2.475,2.475,0,0,0,1.852,0,2.512,2.512,0,0,0,.777-.492,2.349,2.349,0,0,0,.535-.742A2.164,2.164,0,0,0,5.938,12.664Z" fill="#fff"/></svg>