<svg xmlns="http://www.w3.org/2000/svg" viewBox="0 0 16 16"><defs><style>.icon-canvas-transparent,.icon-vs-out{fill:#f6f6f6;}.icon-canvas-transparent{opacity:0;}.icon-vs-red{fill:#e51400;}.icon-white{fill:#fff;}</style></defs><title>StatusRequired_16x</title><g id="canvas"><path class="icon-canvas-transparent" d="M16,16H0V0H16Z"/></g><g id="outline"><path class="icon-vs-out" d="M16.028,8a8,8,0,1,1-8-8A8,8,0,0,1,16.028,8Z"/></g><g id="iconBg"><path class="icon-vs-red" d="M8.028,1a7,7,0,1,0,7,7A7,7,0,0,0,8.028,1Zm3.132,9.912L9.608,12,8.023,9.16,6.471,12,4.9,10.912l2.063-2.5-2.932-.5.641-1.8L7.384,7.251,7.047,4H9.011L8.674,7.251l2.714-1.132.64,1.8-2.909.5Z"/></g><g id="iconFg"><path class="icon-white" d="M9.119,8.416l2.041,2.5L9.608,12,8.023,9.16,6.471,12,4.9,10.912l2.063-2.5-2.932-.5.641-1.8L7.384,7.251,7.047,4H9.011L8.674,7.251l2.714-1.132.64,1.8Z"/></g></svg>