<svg xmlns="http://www.w3.org/2000/svg" viewBox="0 0 16 16"><style>.icon-canvas-transparent{opacity:0;fill:#f6f6f6}.icon-vs-out{fill:#f6f6f6}.icon-vs-bg{fill:#424242}.icon-vs-fg{fill:#f0eff1}.icon-vs-action-orange{fill:#c27d1a}</style><path class="icon-canvas-transparent" d="M16 0v16H0V0h16z" id="canvas"/><path class="icon-vs-out" d="M16 7v9H5V9H3V8H1V6H0V3h1V1h2V0h3v1h2v2h1v1.921a2.214 2.214 0 0 1 1.501.705c.459-.479 1.015-.721 1.662-.721A2.472 2.472 0 0 1 14.604 7H16z" id="outline"/><path class="icon-vs-fg" d="M7 9h3v5H7V9zm4 0v5h3V9h-3z" id="iconFg"/><path class="icon-vs-bg" d="M13.475 8c.063-.123.113-.25.136-.387a1.464 1.464 0 0 0-1.197-1.687c-1.034-.168-1.472.721-1.64 1.056-.042.084-.15.323-.274.6a20.337 20.337 0 0 0-.274-.598c-.168-.337-.604-1.227-1.641-1.058a1.464 1.464 0 0 0-1.196 1.686c.023.137.073.265.136.388H6v7h9V8h-1.525zM8.754 6.913c.136-.024.294-.05.579.52.04.08.142.306.259.567h-.593a4.264 4.264 0 0 1-.339-.195c-.254-.173-.277-.313-.285-.36a.461.461 0 0 1 .379-.532zM10 14H7V9h3v5zm1.668-6.568c.284-.568.443-.544.578-.518a.462.462 0 0 1 .379.533c-.008.046-.031.185-.284.357a4.23 4.23 0 0 1-.339.196h-.593c.117-.261.218-.488.259-.568zM14 14h-3V9h3v5z" id="iconBg"/><g id="colorAction"><path class="icon-vs-action-orange" d="M8 5V4H6V3H5V1H4v2H3v1H1v1h2v1h1v2h1V6h1V5h2zM4 5V4h1v1H4zM3 2v1H2V2h1zm4 1H6V2h1v1zM2 6h1v1H2V6zm4 1V6h1v1H6z"/></g></svg>